<svg id="layer1" xmlns="http://www.w3.org/2000/svg" viewBox="0 0 1757.31 769.24"><defs><style>.cls-1{fill:#93c73d;opacity:0.2;}.cls-2{fill:#ededed;}.cls-3{fill:#fcd8ba;}.cls-4{fill:#fbfbfb;}.cls-5{fill:#edb68f;}.cls-6{fill:#262262;}.cls-7{fill:#a4d645;opacity:0.8;}.cls-8{fill:#f0f0f0;}</style></defs><title>Labmeat-banner-04</title><g id="COW_FRONT" data-name="COW FRONT"><path class="cls-1" d="M810.8,627.2c.31,8.09,41.06,11.86,131.95,8.41s164.32-12.81,164-20.91-74.24-11.86-165.12-8.41S810.49,619.11,810.8,627.2Z"/><path class="cls-2" d="M1078.61,555.85c-1.48-47.41-5.78-77.59-47.3-76.3l.31,10c31.41-1,37.45,6.84,39.29,65.76l3.91,1.9Z"/><rect class="cls-3" x="1067.65" y="544.35" width="14.94" height="26.71" rx="5.99" ry="5.99" transform="translate(2167.08 1081.69) rotate(178.22)"/><path class="cls-2" d="M971,609.05l9.87-3.21c1.21,1,3.5-3.92,4-6.2l9.28-28.89c.5-2.31-.07-5.06-1.27-6.17l-12.42-8c-1.43-1.32-10.84-.87-11.09,2.1l1.73,36.4C970.87,597.29,969.89,608.18,971,609.05Z"/><path class="cls-2" d="M890.61,606.44l10.63,1.65c1.51.23,3.06-1.55,3.49-4l-2-47.47a9.81,9.81,0,0,1,.65-5.14c2.27-5.39,1.27-30.16.06-30.45l-9.3,13.71c-1.8-.43-17,3.77-17.13,6.77l11.42,60.81C888.37,604.5,889.28,606.23,890.61,606.44Z"/><path class="cls-2" d="M987.73,573.7l5.92-.18c4.88-.15,8.64-8.07,8.34-17.6l-.22-7.13c-.3-9.53-4.53-17.2-9.42-17l-7.75.24c-4.88.15-8.64,8.07-8.34,17.6l.11,3.56C976.63,576.51,981.84,573.89,987.73,573.7Z"/><path class="cls-2" d="M959.52,617.5c0,1.32-.16,2.41,1.16,2.37l23-.72a2.41,2.41,0,0,0,2.33-2.48l-.38-12.15a2.41,2.41,0,0,0-2.48-2.33l-9.71.3C969.85,602.6,959.45,615.4,959.52,617.5Z"/><path class="cls-2" d="M874.16,618.7c0,1.32-.07,2.41,1.26,2.37l22.9-.71a2.41,2.41,0,0,0,2.33-2.48l-.38-12.15a2.41,2.41,0,0,0-2.48-2.33l-9.71.3C884.49,603.81,874.1,616.61,874.16,618.7Z"/><ellipse class="cls-3" cx="982.22" cy="554.01" rx="31.15" ry="25.34" transform="translate(-16.77 30.84) rotate(-1.78)"/><rect class="cls-3" x="991.49" y="572.11" width="8.95" height="17.9" rx="4.47" ry="4.47" transform="translate(2009.52 1130.85) rotate(178.22)"/><rect class="cls-3" x="968.56" y="575.73" width="10.44" height="14.91" rx="5.22" ry="5.22" transform="translate(1965.24 1135.79) rotate(178.22)"/><path class="cls-4" d="M1013.11,604.67l11.05-1c1.59.35,3-1.34,3.26-3.82l16.79-78.66c.23-2.51-.87-4.91-2.46-5.39l-24.34,22.83c-1.9-.57-8.81,2.36-8.64,5.4l1.72,56.26C1010.61,602.53,1011.71,604.36,1013.11,604.67Z"/><path class="cls-4" d="M921.08,606.94l10.47-.48c1.49-.07,2.62-2.12,2.55-4.64l-1.82-50.1c-.07-2.55-1.33-4.64-2.85-4.69l-20.89-.73c-1.8-.06-3.07,2.74-2.58,5.71l12.24,51.31C918.56,605.48,919.77,607,921.08,606.94Z"/><path class="cls-4" d="M997.64,615.61c0,1.32-.36,2.42,1,2.38l23.19-.72a2.41,2.41,0,0,0,2.33-2.48l-.38-12.15a2.41,2.41,0,0,0-2.48-2.33l-9.71.3C1008,600.71,997.57,613.51,997.64,615.61Z"/><path class="cls-4" d="M907.87,619.56c0,1.32-.14,2.41,1.18,2.37l23-.72a2.41,2.41,0,0,0,2.33-2.48L934,606.58a2.41,2.41,0,0,0-2.48-2.33l-9.71.3C918.2,604.67,907.8,617.46,907.87,619.56Z"/><path class="cls-2" d="M851.44,524.66c36.06,1.05,63.7,31.1,111.69,29.61s63.75-16.7,63-40.52S940.75,483,892.77,484.46,827.62,524,851.44,524.66Z"/><g id="Layer_116" data-name="Layer 116"><path class="cls-5" d="M819.26,500.68a8.67,8.67,0,0,1-1.31-5.72,6.36,6.36,0,0,1,2.88-4.68l5.72-3.59a6.09,6.09,0,0,1,3.24-.91,8.24,8.24,0,0,1,6.79,4l.72,1.14L820,501.82Z"/><path class="cls-4" d="M829.79,487.13a6.92,6.92,0,0,1,5.65,3.41h0l-15,9.42h0c-1.94-3.09-1.42-6.93,1.14-8.54l5.73-3.59a4.71,4.71,0,0,1,2.53-.71m0-2.7a7.44,7.44,0,0,0-4,1.12l-5.73,3.59a7.79,7.79,0,0,0-3.5,5.64,10,10,0,0,0,1.51,6.61l1.43,2.29,2.29-1.43,15-9.42,2.29-1.43-1.43-2.29a9.6,9.6,0,0,0-7.94-4.68Z"/><rect class="cls-4" x="824.13" y="479.53" width="40.07" height="51.96" rx="19.35" ry="19.35" transform="translate(1715.55 962.5) rotate(176.76)"/><rect class="cls-4" x="817.53" y="493.55" width="36" height="51.96" rx="18" ry="18" transform="translate(731.49 1497.89) rotate(-115.8)"/><path class="cls-6" d="M828,505.7a3.86,3.86,0,0,1-.21-7.71H828a3.86,3.86,0,0,1,.22,7.71Z"/><path class="cls-4" d="M828,499.49a2.35,2.35,0,0,1,.13,4.7H828a2.35,2.35,0,0,1-.13-4.7H828m0-3h-.31a5.36,5.36,0,0,0,.3,10.72h.31a5.36,5.36,0,0,0-.3-10.72Z"/><path class="cls-5" d="M850.91,488.7l.87-1a8.5,8.5,0,0,1,6.32-3.08,6.17,6.17,0,0,1,4.06,1.45l5.14,4.38a6.36,6.36,0,0,1,2.17,5,8.68,8.68,0,0,1-2.13,5.47l-.87,1Z"/><path class="cls-4" d="M858.1,485.94a4.85,4.85,0,0,1,3.19,1.12l5.14,4.38c2.3,2,2.25,5.84-.12,8.61l-13.51-11.51a7.12,7.12,0,0,1,5.3-2.61m0-2.7a9.87,9.87,0,0,0-7.35,3.56L849,488.85l2.05,1.75,13.51,11.51,2.05,1.75,1.75-2.05a10,10,0,0,0,2.45-6.32,7.79,7.79,0,0,0-2.64-6.09L863,485a7.5,7.5,0,0,0-4.94-1.77Z"/><path class="cls-3" d="M852.42,480.71c0,3.76-4.13,6.77-10.46,6.72s-9.31-3.13-9.28-6.89"/><path class="cls-3" d="M841.38,480.73c0,3.76-3.85,6.78-8.53,6.73s-8.45-3.12-8.41-6.88"/><path class="cls-3" d="M852.26,480.79a16.12,16.12,0,0,1-11.64-12.08,17.76,17.76,0,0,0,.8,13.36"/><path class="cls-3" d="M841.79,480.47s-6.65-2.94-7.53-7.43c0,0-4.2,6.18-2.27,9.54"/><path class="cls-3" d="M832.92,481s-6.66-2-6.6-9.15c0,0-1.94,1.31-2,8.78"/><path class="cls-6" d="M840.46,505.57a3.86,3.86,0,0,1-.39-7.69l.39,0a3.86,3.86,0,0,1,.39,7.69l-.39,0Z"/><path class="cls-4" d="M840.46,499.37a2.35,2.35,0,0,1,.24,4.69h-.24a2.35,2.35,0,0,1-.24-4.69h.24m0-3-.55,0a5.36,5.36,0,0,0,.54,10.7l.55,0a5.36,5.36,0,0,0-.54-10.7Z"/><path class="cls-5" d="M812.87,533.74c.27,4.79,8,8.25,17.35,7.72s17.1-7.68,16.83-12.47-8.5-5.41-17.81-4.88S812.6,528.95,812.87,533.74Z"/><path class="cls-7" d="M798.61,531.22H820a2.5,2.5,0,0,1,2.5,2.5v0a2.51,2.51,0,0,1-2.51,2.51H798.61a2.5,2.5,0,0,1-2.5-2.5v0a2.5,2.5,0,0,1,2.5-2.5Z" transform="translate(-144.82 362.02) rotate(-23.2)"/><path class="cls-7" d="M800,533.35h21.43a2.5,2.5,0,0,1,2.5,2.5v0a2.5,2.5,0,0,1-2.5,2.5H800a2.51,2.51,0,0,1-2.51-2.51v0a2.5,2.5,0,0,1,2.5-2.5Z" transform="translate(-73.42 939.21) rotate(-57.99)"/><path class="cls-7" d="M825.76,536.71h21.43a2.5,2.5,0,0,1,2.5,2.5v0a2.5,2.5,0,0,1-2.5,2.5H825.76a2.5,2.5,0,0,1-2.5-2.5v0A2.51,2.51,0,0,1,825.76,536.71Z" transform="translate(400.07 -355.21) rotate(31.18)"/><rect class="cls-7" x="830.59" y="532.84" width="26.44" height="5.01" rx="2.5" ry="2.5" transform="translate(-75.86 144.43) rotate(-9.36)"/><rect class="cls-3" x="804.79" y="514.42" width="40.81" height="21.14" rx="9.62" ry="9.62" transform="translate(1678.74 1002.51) rotate(176.76)"/><path class="cls-5" d="M832.23,522.94c-3,0-5.57-2.74-5.77-6.25s2.17-6.7,5.31-6.88h.28c3,0,5.57,2.74,5.76,6.25a7.12,7.12,0,0,1-1.31,4.63,5.3,5.3,0,0,1-4,2.25h-.28Z"/><path class="cls-3" d="M832.05,511.26c2.25,0,4.16,2.13,4.31,4.87s-1.6,5.21-3.94,5.35h-.2c-2.25,0-4.16-2.13-4.31-4.87s1.6-5.21,3.94-5.35h.2m0-2.91h-.37c-3.93.22-6.93,4-6.68,8.42s3.41,7.62,7.22,7.62h.37a6.82,6.82,0,0,0,5.08-2.84,8.58,8.58,0,0,0,1.59-5.57c-.24-4.27-3.41-7.62-7.22-7.62Z"/><path class="cls-5" d="M812.95,524.58c-3,0-5.57-2.74-5.77-6.25s2.18-6.7,5.31-6.88h.28c3,0,5.57,2.74,5.77,6.25s-2.18,6.7-5.31,6.88h-.28Z"/><path class="cls-3" d="M812.77,512.9c2.25,0,4.16,2.13,4.31,4.87s-1.6,5.21-3.94,5.35h-.2c-2.25,0-4.16-2.13-4.31-4.87s1.6-5.21,3.94-5.35h.2m0-2.91h-.37a6.82,6.82,0,0,0-5.08,2.84,8.58,8.58,0,0,0-1.59,5.57c.24,4.27,3.41,7.62,7.22,7.62h.37a6.82,6.82,0,0,0,5.08-2.84,8.58,8.58,0,0,0,1.59-5.57c-.24-4.27-3.41-7.62-7.22-7.62Z"/></g><rect class="cls-4" x="999.71" y="532.03" width="31.19" height="38.24" rx="15.6" ry="15.6" transform="translate(-67.09 147.37) rotate(-8.04)"/><path class="cls-4" d="M1047.2,529.48c-2-32.19-6.44-56-33.38-54.37,0,0-47.08,7.78-63.3,8.58-14.4.71-56.8-1.15-56.8-1.15-29.07,1.8-22.37,33.08-21.34,49.7"/><path class="cls-4" d="M872.05,530.64c0,16.7,49.61,37.78,75.64,37.78,31.86,0,99.93-19.25,99.19-43.22s-40.49-42.18-88.76-40.68S872.05,506.66,872.05,530.64Z"/><path class="cls-8" d="M1116,631.45c0-7.21,9.51-13.05,21.25-13.05s21.25,5.84,21.25,13.05"/><path class="cls-8" d="M701.52,684c0-12.79,16.88-23.16,37.7-23.16s37.7,10.37,37.7,23.16"/><path class="cls-1" d="M1158.6,631.28c0,2.75-9.47,5-21.14,5s-21.14-2.23-21.14-5"/><path class="cls-1" d="M777.39,684.82c0,4.87-16.79,8.82-37.51,8.82s-37.51-4-37.51-8.82"/></g></svg>