<svg id="layer2" xmlns="http://www.w3.org/2000/svg" viewBox="0 0 1757.31 769.24"><defs><style>.cls-1{fill:#b5dd9b;}.cls-2{fill:#ef7087;}.cls-3{fill:#f49aad;}.cls-4{fill:#353577;}.cls-5{fill:#f9e9de;}.cls-6{fill:#fcd8ba;}.cls-7{fill:#f7c59f;}.cls-8{fill:#aa812e;}.cls-9{fill:#ededed;}.cls-12,.cls-9{opacity:0.7;}.cls-10,.cls-12{fill:#f0f0f0;}.cls-11{fill:#93c73d;}.cls-11,.cls-19{opacity:0.2;}.cls-13,.cls-31{fill:#cb425c;}.cls-14{fill:#363677;}.cls-15{fill:#c0b399;}.cls-16{fill:#4a4aa8;}.cls-17{fill:#94bf79;}.cls-18{fill:#a3cc89;}.cls-20,.cls-21{fill:#fff;}.cls-21{stroke:#fff;}.cls-21,.cls-22,.cls-24,.cls-25,.cls-31,.cls-32{stroke-miterlimit:10;}.cls-21,.cls-22{stroke-width:2.9px;}.cls-22,.cls-24,.cls-25,.cls-32{fill:none;}.cls-22{stroke:#ef7087;}.cls-23{fill:#e4e4e4;}.cls-24{stroke:#e4e4e4;}.cls-24,.cls-25{stroke-width:2.87px;}.cls-25{stroke:#cb425c;}.cls-26{fill:#d9dadb;}.cls-27,.cls-29,.cls-30,.cls-31,.cls-35{opacity:0.8;}.cls-28{fill:#ee5b72;}.cls-29{fill:#5491c4;}.cls-30{fill:#bfdbef;}.cls-31,.cls-32{stroke:#0090bc;stroke-width:3.12px;}.cls-33{fill:#0090bc;}.cls-34{fill:#ccc1ac;}.cls-35{fill:#d7ea88;}</style></defs><title>Labmeat-banner-02</title><path class="cls-1" d="M1865.95,630c0-60.54-160.48-109.63-358.44-109.63S975.75,552.94,801.71,604C635.78,652.67,226.22,866.21,226.22,866.21l557.36,62.63H1845.1Z"/><g id="Layer_117" data-name="Layer 117"><g id="Layer_120" data-name="Layer 120"><rect class="cls-2" x="1419.14" y="306.39" width="76.3" height="266.78"/><polygon class="cls-3" points="1436.49 372.7 1418.59 374.48 1419.14 306.39 1436.62 307.53 1436.49 372.7"/><path class="cls-4" d="M1425.78,360.71c0-15.24,2.78-29.26,10.89-29.26s13.42,14.4,13.42,29.64"/><polygon class="cls-5" points="1423.7 364.35 1450.14 365.04 1450.1 361.04 1423.72 360.71 1423.7 364.35"/><path class="cls-6" d="M1410.31,311.75c0-27.51,21.49-49.8,48-49.8s48,22.3,48,49.8"/><path class="cls-7" d="M1430.52,311.29c0-17.46,9.31-49.66,28.32-49.66,26.51,0,36,22.29,36,49.8"/><polygon class="cls-2" points="1449.71 365.24 1423.83 364.45 1449.6 371.12 1449.71 365.24"/><rect class="cls-8" x="1430.16" y="359.96" width="5.56" height="0.79"/><rect class="cls-8" x="1431.5" y="359.08" width="5.56" height="0.79"/><rect class="cls-8" x="1430.97" y="358.17" width="5.56" height="0.79"/><rect class="cls-9" x="1432.95" y="355.51" width="3.39" height="1.57" rx="0.79" ry="0.79"/><rect class="cls-9" x="1431.8" y="353.72" width="3.39" height="1.57" rx="0.79" ry="0.79"/><rect class="cls-9" x="1433.44" y="353.18" width="3.39" height="1.57" rx="0.79" ry="0.79"/><rect class="cls-9" x="1432.55" y="351.29" width="3.39" height="1.57" rx="0.79" ry="0.79"/></g><path class="cls-10" d="M1733.11,567.58c0-4.39,7.51-7.95,16.76-7.95s16.76,3.56,16.76,7.95"/><path class="cls-11" d="M1766.64,568.11c0,2.18-7.51,3.94-16.76,3.94s-16.76-1.77-16.76-3.94"/><path class="cls-10" d="M1647.33,616.74c0-4.39,7.51-7.95,16.76-7.95s16.76,3.56,16.76,7.95"/><path class="cls-11" d="M1680.86,617.27c0,2.18-7.51,3.94-16.76,3.94s-16.76-1.77-16.76-3.94"/><path class="cls-11" d="M1196.34,556.87c0,2.18-4.85,3.94-10.83,3.94s-10.83-1.77-10.83-3.94"/><path class="cls-11" d="M1412.16,624.52c0,2.18-4.9,3.94-10.94,3.94s-10.94-1.77-10.94-3.94"/><path class="cls-12" d="M1174.62,556.76c0-3.66,4.83-6.63,10.79-6.63s10.79,3,10.79,6.63"/><path class="cls-10" d="M1390.67,624.23c0-3.66,4.83-6.63,10.79-6.63s10.79,3,10.79,6.63"/><path class="cls-12" d="M1458.57,584.09c0-3.66,4.83-6.63,10.79-6.63s10.79,3,10.79,6.63"/><polygon class="cls-7" points="1256.54 467.39 1221.49 467.62 1275.35 371.77 1294.56 405.75 1256.54 467.39"/><polygon class="cls-3" points="1330.52 583.68 1242.36 564.54 1242.36 450.89 1279.81 380.98 1331.18 450.89 1330.52 583.68"/><polygon class="cls-13" points="1307.34 577.41 1266.19 569.31 1266.19 516.65 1307.34 518.52 1307.34 577.41"/><polygon class="cls-14" points="1307.34 577.41 1266.19 569.31 1266.19 516.65 1307.34 518.52 1307.34 577.41"/><polyline class="cls-15" points="1307.3 565.55 1307.39 578.69 1266.12 569.99"/><polygon class="cls-2" points="1483.03 565.02 1330.52 583.45 1330.22 450.41 1483.03 450.41 1483.03 565.02"/><polygon class="cls-16" points="1395.28 530.63 1364.97 533.16 1364.97 507.9 1395.78 506.31 1395.28 530.63"/><polygon class="cls-16" points="1451.17 526.58 1420.86 529.08 1420.86 504.8 1451.17 502.88 1451.17 526.58"/><polygon class="cls-4" points="1390.54 528.28 1364.97 530.51 1364.97 508.3 1390.96 506.91 1390.54 528.28"/><polygon class="cls-4" points="1390.54 528.28 1364.97 530.51 1364.97 508.3 1390.96 506.91 1390.54 528.28"/><polygon class="cls-4" points="1446.72 524.4 1420.69 526.62 1420.69 505.01 1446.72 503.31 1446.72 524.4"/><polygon class="cls-4" points="1446.72 524.4 1420.69 526.62 1420.69 505.01 1446.72 503.31 1446.72 524.4"/><polygon class="cls-5" points="1403.59 535.54 1362.88 538.75 1362.88 533.24 1403.59 530.03 1403.59 535.54"/><polygon class="cls-5" points="1459.53 531.27 1419.07 534.67 1419.07 529.15 1459.53 525.76 1459.53 531.27"/><polygon class="cls-6" points="1494.68 464.99 1322.16 470.8 1275.35 371.77 1443.78 371.77 1494.68 464.99"/><polygon class="cls-7" points="1494.32 465.3 1322.07 470.92 1319.13 464.76 1491.37 459.14 1494.32 465.3"/><polygon class="cls-7" points="1488.96 454.05 1316.72 459.67 1313.77 453.51 1486.01 447.88 1488.96 454.05"/><polygon class="cls-7" points="1482.26 442.8 1311.36 448.42 1308.41 442.26 1479.32 436.63 1482.26 442.8"/><polygon class="cls-7" points="1476.1 431.55 1305.2 435.56 1302.25 429.4 1473.15 425.38 1476.1 431.55"/><polygon class="cls-7" points="1469.94 419.22 1299.57 423.51 1296.63 417.35 1466.99 413.06 1469.94 419.22"/><polygon class="cls-7" points="1463.78 408.24 1294.21 411.99 1291.27 405.83 1460.83 402.08 1463.78 408.24"/><polygon class="cls-7" points="1456.55 395.92 1288.59 399.67 1285.64 393.51 1453.6 389.76 1456.55 395.92"/><polygon class="cls-7" points="1450.12 384.4 1282.7 386.81 1279.75 380.65 1447.17 378.24 1450.12 384.4"/><path class="cls-2" d="M1269.62,465.82c0-15.24,3.44-29.26,13.45-29.26s16.56,14.4,16.56,29.64"/><polygon class="cls-5" points="1267.05 469.46 1299.28 470.23 1299.28 466.3 1267.05 465.53 1267.05 469.46"/><polygon class="cls-17" points="1311.58 585.99 1341.61 594.9 1508.32 570.84 1483.32 564.95 1311.58 585.99"/><polygon class="cls-18" points="1215.2 564.06 1223.93 560.11 1363.56 591.48 1336.64 595.3 1215.2 564.06"/><g class="cls-19"><polygon class="cls-4" points="1446.72 524.4 1420.69 526.62 1420.69 505.01 1446.72 503.31 1446.72 524.4"/></g><polygon class="cls-2" points="1266.18 548.89 1242.39 545.22 1242.39 542.08 1266.18 543.71 1266.18 548.89"/><polygon class="cls-2" points="1326.13 558.09 1307.37 555.14 1307.3 552 1325.29 477.78 1326.13 558.09"/><polygon class="cls-3" points="1225.54 558.96 1226.37 488.07 1265.17 490.91 1265.17 568.37 1225.54 558.96"/><path class="cls-20" d="M1227.8,489.63l35.91,2.62v74.28L1227,557.82l.8-68.19m-2.86-3.12-.86,73.59,42.54,10.1V489.56l-41.68-3Z"/><line class="cls-21" x1="1226.01" y1="557.45" x2="1264.86" y2="493.55"/><line class="cls-21" x1="1264.23" y1="567.62" x2="1226.64" y2="488.83"/><line class="cls-22" x1="1266.99" y1="569.85" x2="1266.81" y2="539.99"/><polygon class="cls-2" points="1308.78 577.92 1309.4 507.96 1347.29 510.79 1347.3 586.22 1308.78 577.92"/><path class="cls-23" d="M1310.82,509.51l35,2.62v72.32l-35.64-7.68.59-67.26m-2.84-3.09-.64,72.65,41.4,8.92V509.46l-40.74-3Z"/><line class="cls-24" x1="1345.95" y1="512.43" x2="1309.81" y2="577.43"/><line class="cls-24" x1="1345.79" y1="584.65" x2="1312.57" y2="511.34"/><line class="cls-25" x1="1350.08" y1="588.26" x2="1350.02" y2="509.91"/><g id="Layer_122" data-name="Layer 122"><polygon class="cls-26" points="1317.56 554.04 1317.56 552.74 1319.21 548.89 1325.04 551.26 1317.56 554.04"/><path class="cls-10" d="M1320.53,550.32s-1.17,3.93-3.38,3.6c-16.46-2.44-81.6-12.14-81.39-12.21,11-3.72,9.4-65.32,9.4-65.32l79.91,3.12s0,52.93,0,71.36C1325.11,552.35,1320.53,550.32,1320.53,550.32Z"/><g class="cls-27"><path class="cls-13" d="M1254.61,489a2.93,2.93,0,0,1-.63.34,2.77,2.77,0,0,1-.65.16,3.65,3.65,0,0,1-.67,0,2.46,2.46,0,0,1-1.13-.33,2.54,2.54,0,0,1-.84-.82,3.63,3.63,0,0,1-.5-1.22,5.67,5.67,0,0,1-.11-1.5,5.48,5.48,0,0,1,.3-1.62,3.29,3.29,0,0,1,.67-1.13,2.48,2.48,0,0,1,.92-.64,2.56,2.56,0,0,1,1.07-.17,4.14,4.14,0,0,1,1.85.64l-.09,1.93a4.82,4.82,0,0,0-.69-.59,1.51,1.51,0,0,0-.82-.27,1.38,1.38,0,0,0-.8.21,1.78,1.78,0,0,0-.63.68,2.45,2.45,0,0,0-.28,1.07,2.51,2.51,0,0,0,.15,1,1.82,1.82,0,0,0,.51.76,1.27,1.27,0,0,0,.77.31,1.77,1.77,0,0,0,.68-.09,2.55,2.55,0,0,0,.54-.25,4.33,4.33,0,0,0,.46-.35Z"/><path class="cls-13" d="M1260.84,486.27a5.44,5.44,0,0,1-.4,1.87,3,3,0,0,1-1,1.31,2.29,2.29,0,0,1-1.54.41,2.33,2.33,0,0,1-1.5-.62,3.19,3.19,0,0,1-.86-1.43,5.69,5.69,0,0,1,.17-3.66,3.09,3.09,0,0,1,1-1.33,2.31,2.31,0,0,1,1.55-.45,2.39,2.39,0,0,1,1.19.36,2.52,2.52,0,0,1,.83.86,3.94,3.94,0,0,1,.46,1.23A5.82,5.82,0,0,1,1260.84,486.27Zm-1.49-.09a3.24,3.24,0,0,0,0-.76,1.85,1.85,0,0,0-.22-.6,1.23,1.23,0,0,0-.38-.41,1.1,1.1,0,0,0-1.49.3,2.43,2.43,0,0,0-.4,1.33,2.46,2.46,0,0,0,.27,1.37,1.07,1.07,0,0,0,.9.57,1,1,0,0,0,.7-.2,1.44,1.44,0,0,0,.46-.64A3,3,0,0,0,1259.35,486.19Z"/><path class="cls-13" d="M1267.24,490.36l-1.47-.09.2-4.28-1.44,2.4h-.12l-1.21-2.55-.2,4.26-1.42-.09.35-7.34,1.33.07,1.36,2.85,1.63-2.69,1.33.07Z"/><path class="cls-13" d="M1272.13,490.68l-3.67-.24.35-7.43,3.61.19-.07,1.5-2.14-.12-.06,1.37,2,.12-.07,1.5-2-.12L1270,489l2.2.14Z"/><path class="cls-13" d="M1280.58,491.25l-1.5-.1-.33-1.56-2.11-.14-.47,1.5-1.5-.1,2.5-7.4,1.62.09Zm-2.1-3-.58-2.8-.85,2.71Z"/><path class="cls-13" d="M1286.5,491.65l-1.3-.09-2.33-4.41-.19,4.24-1.45-.1.35-7.6,1.3.07,2.32,4.38.19-4.24,1.46.08Z"/><path class="cls-13" d="M1292.89,488.35a5.47,5.47,0,0,1-.36,1.89,3.94,3.94,0,0,1-.69,1.12,1.73,1.73,0,0,1-1.49.55l-2.62-.18.35-7.68,2,.11a3.49,3.49,0,0,1,.78.12,2.48,2.48,0,0,1,.57.24,2.1,2.1,0,0,1,.43.33,2.68,2.68,0,0,1,.31.39,3.49,3.49,0,0,1,.4.79,5.09,5.09,0,0,1,.25,1A6.85,6.85,0,0,1,1292.89,488.35Zm-1.49-.19a3.86,3.86,0,0,0-.16-1.48,1.44,1.44,0,0,0-.51-.74,1.31,1.31,0,0,0-.64-.22l-.62,0-.21,4.56.62,0a1.31,1.31,0,0,0,1-.37A2.64,2.64,0,0,0,1291.41,488.15Z"/><path class="cls-13" d="M1300.37,492.06l-.28.14-.22.1-.31.11a4.14,4.14,0,0,1-.67.14,3.53,3.53,0,0,1-.7,0,2.41,2.41,0,0,1-1.35-.53,3,3,0,0,1-.94-1.41,5.9,5.9,0,0,1-.28-2.26,7.22,7.22,0,0,1,.27-1.66,3.21,3.21,0,0,1,.65-1.28,2.82,2.82,0,0,1,.7-.59,2.07,2.07,0,0,1,.67-.25,3.28,3.28,0,0,1,.71,0,3.11,3.11,0,0,1,1.05.22,9.16,9.16,0,0,1,.9.46l-.08,1.86a3.71,3.71,0,0,0-.68-.56,1.85,1.85,0,0,0-.91-.26,1.35,1.35,0,0,0-1,.32,2,2,0,0,0-.57.89,3.82,3.82,0,0,0-.2,1,3.38,3.38,0,0,0,.12,1.1,1.9,1.9,0,0,0,.48.84,1.27,1.27,0,0,0,.83.36,1.71,1.71,0,0,0,.6-.08l0-.92-.66,0,.07-1.58,1.94.12Z"/><path class="cls-13" d="M1306.21,493l-1.58-.11-.32-1.43a7.5,7.5,0,0,0-.33-1.15,1.13,1.13,0,0,0-.31-.48.78.78,0,0,0-.41-.13h-.17l-.14,3.08-1.47-.1.35-7.86,2.49.14a1.34,1.34,0,0,1,1,.46,2.4,2.4,0,0,1,.51,1,3.85,3.85,0,0,1,.12,1.1,3.1,3.1,0,0,1-.19,1,1.93,1.93,0,0,1-.33.58,3.11,3.11,0,0,1-.37.34,1.9,1.9,0,0,1,.36.55,8.65,8.65,0,0,1,.36,1.26Zm-1.75-5.55a1.07,1.07,0,0,0-.19-.78,1,1,0,0,0-.71-.26l-.31,0-.08,1.9.32,0a1.05,1.05,0,0,0,.74-.14A1,1,0,0,0,1304.45,487.49Z"/><path class="cls-13" d="M1312.25,489.46a6.42,6.42,0,0,1-.4,2,3.28,3.28,0,0,1-1,1.43,2.14,2.14,0,0,1-1.54.44,2.25,2.25,0,0,1-1.5-.68,3.57,3.57,0,0,1-.86-1.57,6.49,6.49,0,0,1-.22-2,6.39,6.39,0,0,1,.39-2,3.33,3.33,0,0,1,1-1.44,2.16,2.16,0,0,1,1.55-.48,2.26,2.26,0,0,1,1.19.4,2.68,2.68,0,0,1,.83.94,4.54,4.54,0,0,1,.46,1.34A6.93,6.93,0,0,1,1312.25,489.46Zm-1.49-.1a3.86,3.86,0,0,0,0-.83,2.16,2.16,0,0,0-.22-.66,1.3,1.3,0,0,0-.38-.45,1,1,0,0,0-.54-.19,1,1,0,0,0-1,.5,2.81,2.81,0,0,0-.4,1.45,2.9,2.9,0,0,0,.27,1.5,1.06,1.06,0,0,0,.9.63,1,1,0,0,0,.7-.21,1.56,1.56,0,0,0,.46-.7A3.49,3.49,0,0,0,1310.76,489.36Z"/><path class="cls-13" d="M1321.11,486l-2.46,8.06-.85-.06-1.06-4.84-1.5,4.65-.86-.06-1.71-8.26,1.52.09.82,4.52,1.35-4.39,1,.06.94,4.55,1.25-4.42Z"/><path class="cls-13" d="M1254,494.88l-2.1,3.77-.16,3.3-1.47-.12.16-3.25-1.75-4.08,1.52.11,1,2.34,1.23-2.18Z"/><path class="cls-13" d="M1259.39,498.93a5.36,5.36,0,0,1-.41,1.85,2.9,2.9,0,0,1-1,1.28,2.25,2.25,0,0,1-1.53.37,2.4,2.4,0,0,1-1.5-.65,3.27,3.27,0,0,1-.86-1.45,5.52,5.52,0,0,1-.21-1.85,5.35,5.35,0,0,1,.39-1.8,3,3,0,0,1,1-1.3,2.27,2.27,0,0,1,1.55-.41,2.43,2.43,0,0,1,1.19.39,2.63,2.63,0,0,1,.83.88,4,4,0,0,1,.46,1.23A5.81,5.81,0,0,1,1259.39,498.93Zm-1.49-.12a3.34,3.34,0,0,0,0-.75,1.91,1.91,0,0,0-.22-.61,1.29,1.29,0,0,0-.38-.42,1.08,1.08,0,0,0-.54-.18,1,1,0,0,0-1,.44,2.37,2.37,0,0,0-.4,1.32,2.48,2.48,0,0,0,.27,1.37,1.1,1.1,0,0,0,.9.59,1,1,0,0,0,.7-.18,1.41,1.41,0,0,0,.46-.63A2.91,2.91,0,0,0,1257.9,498.81Z"/><path class="cls-13" d="M1265.35,499.8a4.82,4.82,0,0,1-.31,1.6,2.63,2.63,0,0,1-.67,1,2.24,2.24,0,0,1-.85.49,2.43,2.43,0,0,1-.89.09,2.57,2.57,0,0,1-1.19-.42,2.59,2.59,0,0,1-.92-1.16,4.4,4.4,0,0,1-.3-2l.19-4,1.46.11-.17,3.48a4.42,4.42,0,0,0,.08,1.21,1.52,1.52,0,0,0,.35.73.88.88,0,0,0,.57.27.82.82,0,0,0,.58-.17,1.37,1.37,0,0,0,.42-.66,4.27,4.27,0,0,0,.19-1.19l.17-3.5,1.47.11Z"/><path class="cls-13" d="M1271,503.62l-1.58-.14-.32-1.35a7.08,7.08,0,0,0-.33-1.09,1.07,1.07,0,0,0-.31-.46.83.83,0,0,0-.41-.13h-.17l-.14,2.89-1.47-.13.35-7.4,2.49.19a1.4,1.4,0,0,1,1,.45,2.26,2.26,0,0,1,.51,1,3.48,3.48,0,0,1,.12,1,2.79,2.79,0,0,1-.19.94,1.72,1.72,0,0,1-.33.54,3,3,0,0,1-.37.31,1.89,1.89,0,0,1,.36.53,8,8,0,0,1,.36,1.2Zm-1.75-5.26a1,1,0,0,0-.19-.74,1.07,1.07,0,0,0-.71-.26l-.31,0-.08,1.79.32,0a1.09,1.09,0,0,0,.74-.12A.89.89,0,0,0,1269.29,498.36Z"/><path class="cls-13" d="M1279.23,500.55a5.71,5.71,0,0,1-.41,1.92,3,3,0,0,1-1,1.33,2.2,2.2,0,0,1-1.53.39,2.36,2.36,0,0,1-1.5-.68,3.42,3.42,0,0,1-.86-1.5,5.88,5.88,0,0,1-.21-1.91,5.68,5.68,0,0,1,.39-1.87,3.06,3.06,0,0,1,1-1.34,2.2,2.2,0,0,1,1.55-.42,2.38,2.38,0,0,1,1.19.4,2.69,2.69,0,0,1,.83.91,4.26,4.26,0,0,1,.46,1.28A6.23,6.23,0,0,1,1279.23,500.55Zm-1.49-.13a3.59,3.59,0,0,0,0-.78,2,2,0,0,0-.22-.63,1.32,1.32,0,0,0-.38-.43,1,1,0,0,0-.54-.19,1,1,0,0,0-1,.46,2.51,2.51,0,0,0-.4,1.37,2.64,2.64,0,0,0,.27,1.42,1.1,1.1,0,0,0,.9.61,1,1,0,0,0,.7-.19,1.45,1.45,0,0,0,.46-.65A3.11,3.11,0,0,0,1277.73,500.43Z"/><path class="cls-13" d="M1288.08,497.45l-2.46,7.58-.85-.08-1.06-4.61-1.5,4.37-.86-.08-1.71-7.85,1.52.12.81,4.29,1.35-4.12,1,.08.94,4.32,1.25-4.15Z"/><path class="cls-13" d="M1293.69,505.68l-1.31-.12-2.33-4.52-.2,4.29-1.45-.13.35-7.68,1.3.1,2.32,4.49.19-4.29,1.46.12Z"/><path class="cls-13" d="M1302.69,506.52l-1.47-.14.2-4.55-1.44,2.51h-.12l-1.21-2.74-.2,4.53L1297,506l.35-7.8,1.33.11,1.36,3.06,1.63-2.82,1.33.11Z"/><path class="cls-13" d="M1307.59,507l-3.67-.35.35-7.89,3.61.29-.07,1.59-2.14-.18-.06,1.45,2,.18-.07,1.6-2-.18-.08,1.69,2.2.2Z"/><path class="cls-13" d="M1313.91,507.59l-1.5-.14-.33-1.66-2.11-.2-.47,1.58L1308,507l2.5-7.76,1.62.13Zm-2.1-3.22-.58-3-.85,2.85Z"/><path class="cls-13" d="M1318.76,501.92l-1.78-.16-.27,6.1-1.46-.14.27-6.08-1.78-.15.08-1.95,5,.42Z"/><path class="cls-13" d="M1320.63,507.09a1.65,1.65,0,0,1-.25.87.54.54,0,0,1-.91.11,1.24,1.24,0,0,1-.26-.49,1.89,1.89,0,0,1-.08-.64,1.78,1.78,0,0,1,.13-.62,1.11,1.11,0,0,1,.3-.43.51.51,0,0,1,.39-.13.57.57,0,0,1,.37.2,1.22,1.22,0,0,1,.26.48A2,2,0,0,1,1320.63,507.09Zm.23-5.27a10.38,10.38,0,0,1-.12,1.15q-.11.68-.25,1.35a8.23,8.23,0,0,1-.24.93.63.63,0,0,1-.12.21.22.22,0,0,1-.18,0,.23.23,0,0,1-.17-.08.74.74,0,0,1-.1-.24,9.37,9.37,0,0,1-.17-1q-.09-.66-.14-1.35a10.52,10.52,0,0,1,0-1.17,2.89,2.89,0,0,1,.3-1.34c.17-.28.35-.41.54-.39s.36.17.5.48A3.09,3.09,0,0,1,1320.86,501.82Z"/></g><path class="cls-14" d="M1271.74,547.43c9.38-2.43,11.23-28.22,12.17-32.84.85-4.19-3.35,37.9,10.06,37.9C1294.27,552.5,1271.74,547.43,1271.74,547.43Z"/><ellipse class="cls-13" cx="1308.23" cy="534.59" rx="3.63" ry="8.46" transform="translate(413.77 1628.75) rotate(-72.96)"/><ellipse class="cls-28" cx="1308.23" cy="533.96" rx="3.63" ry="8.46" transform="translate(414.37 1628.31) rotate(-72.96)"/><ellipse class="cls-13" cx="1303.39" cy="522.54" rx="8.46" ry="3.63" transform="translate(-95.36 398.6) rotate(-16.78)"/><ellipse class="cls-28" cx="1303.28" cy="521.92" rx="8.46" ry="3.63" transform="translate(-95.19 398.54) rotate(-16.78)"/><path class="cls-29" d="M1267.89,530.79c.18,1.88-5.4,2.34-8.84,2.67s-6,1-6.14-.87,2.45-6.06,5.89-6.39S1267.71,528.92,1267.89,530.79Z"/><path class="cls-29" d="M1268.49,524.9c-.74,1.43-5.12-.89-7.83-2.29s-4.91-2.11-4.17-3.54,4.65-3.18,7.36-1.78S1269.22,523.47,1268.49,524.9Z"/><ellipse class="cls-30" cx="1260.01" cy="530.11" rx="2.28" ry="1.87"/><ellipse class="cls-30" cx="1262.92" cy="520.8" rx="1.49" ry="2.28" transform="translate(1.64 1045.56) rotate(-45)"/><line class="cls-31" x1="1271.2" y1="528.95" x2="1280.64" y2="531.01"/><g class="cls-27"><line class="cls-13" x1="1284.72" y1="531.57" x2="1294.81" y2="530.52"/><line class="cls-32" x1="1284.72" y1="531.57" x2="1291.54" y2="530.86"/><polygon class="cls-33" points="1290.64 527.14 1291.43 534.68 1294.81 530.52 1290.64 527.14"/></g></g><ellipse class="cls-11" cx="1641.7" cy="544.2" rx="43.26" ry="3.85"/><rect class="cls-34" x="1635.85" y="476.75" width="13.13" height="70" rx="6.56" ry="6.56" transform="translate(3284.82 1023.49) rotate(180)"/><path class="cls-34" d="M1656.12,511.69c5.5,0,8.31-4.48,8.31-9.57v-9.29c0-.35,0-6.63,0-7a1.87,1.87,0,0,1,3.37-1.33,13.87,13.87,0,0,1,2.73,8.3v10.56a14.28,14.28,0,0,1-14.24,14.24h-10.53c-2.68,0-7.65-.66-7.65-3.28s6.15-2.66,8-2.65"/><path class="cls-34" d="M1626.59,499.23c-5.5,0-8.31-4.48-8.31-9.57v-9.29c0-.35,0-6.63,0-7a1.87,1.87,0,0,0-3.37-1.33,13.87,13.87,0,0,0-2.73,8.3v10.56a14.28,14.28,0,0,0,14.24,14.24H1637c2.68,0,7.65-.66,7.65-3.28s-6.15-2.66-8-2.65"/><rect class="cls-35" x="1609.76" y="413.02" width="63.44" height="78.76" rx="25.17" ry="25.17" transform="translate(3282.96 904.81) rotate(-180)"/><rect class="cls-35" x="1649" y="461.37" width="33.95" height="41.56" rx="13.37" ry="13.37" transform="translate(3331.96 964.31) rotate(-180)"/><rect class="cls-35" x="1597.02" y="452.01" width="33.95" height="41.56" rx="13.37" ry="13.37" transform="translate(3227.98 945.58) rotate(-180)"/></g></svg>