<svg id="layer3" xmlns="http://www.w3.org/2000/svg" xmlns:xlink="http://www.w3.org/1999/xlink" viewBox="0 0 1757.31 769.24"><defs><style>.cls-1{fill:#cfe8bf;}.cls-2{fill:#c1e2ac;}.cls-3{fill:#acd053;opacity:0.5;}.cls-4{fill:#93c73d;opacity:0.2;}.cls-5{fill:#c0b399;}.cls-6{fill:#c1dd6b;}.cls-6,.cls-8{opacity:0.8;}.cls-7{fill:#ccc1ac;}.cls-8{fill:#d7ea88;}.cls-9{opacity:0.7;}.cls-10{fill:#ededed;}.cls-11{fill:#fcd8ba;}.cls-12{fill:#e4e4e4;}.cls-13{fill:#fbfbfb;}.cls-14{fill:#edb68f;}.cls-15{fill:#262262;}.cls-16{opacity:0.6;}.cls-17{fill:#f7eb32;}.cls-18{fill:#cacaca;}.cls-19{fill:#d5dd23;}.cls-20{fill:url(#linear-gradient);}</style><linearGradient id="linear-gradient" x1="139.02" y1="571.15" x2="145.93" y2="528.64" gradientTransform="translate(-6.38 15.95) rotate(-29.96)" gradientUnits="userSpaceOnUse"><stop offset="0" stop-color="#fff" stop-opacity="0"/><stop offset="0.09" stop-color="#fefcdd" stop-opacity="0.17"/><stop offset="0.22" stop-color="#fcf7b0" stop-opacity="0.38"/><stop offset="0.36" stop-color="#faf48a" stop-opacity="0.57"/><stop offset="0.49" stop-color="#f9f06a" stop-opacity="0.73"/><stop offset="0.62" stop-color="#f8ee51" stop-opacity="0.85"/><stop offset="0.75" stop-color="#f8ec40" stop-opacity="0.93"/><stop offset="0.88" stop-color="#f7eb36" stop-opacity="0.98"/><stop offset="1" stop-color="#f7eb32"/></linearGradient></defs><title>Labmeat-banner-02</title><g id="Conclusions"><g id="Layer_108" data-name="Layer 108"><path class="cls-1" d="M2012.89,882.42c0,128.64-780.38,102.68-1135.12,102.68S235.44,880.82,235.44,752.17,523,519.24,877.77,519.24,2012.89,753.78,2012.89,882.42Z"/><path class="cls-2" d="M790.6,616.85c134.46,112.78,303.92,450.6,77.82,450.6-111.77,0-633.07-35.19-827.36-137.56-198.73-104.7-215.44-285.73-161.39-315C-57.65,581,155.1,487.84,381.21,487.84S736,571.06,790.6,616.85Z"/></g><g id="Layer_121" data-name="Layer 121"><g id="Layer_111" data-name="Layer 111"><g id="Forest"><rect class="cls-3" x="672.65" y="475.64" width="49.84" height="57.51" rx="24.92" ry="24.92"/><rect class="cls-3" x="280.29" y="470.72" width="49.84" height="57.51" rx="24.92" ry="24.92"/><rect class="cls-3" x="383.71" y="474" width="49.84" height="57.51" rx="24.92" ry="24.92"/><rect class="cls-3" x="781.01" y="485.49" width="49.84" height="57.51" rx="24.92" ry="24.92"/><rect class="cls-3" x="743.25" y="480.57" width="49.84" height="57.51" rx="24.92" ry="24.92"/><rect class="cls-3" x="629.97" y="485.49" width="49.84" height="57.51" rx="24.92" ry="24.92"/><rect class="cls-3" x="1101.42" y="523.25" width="49.84" height="57.51" rx="24.92" ry="24.92"/><rect class="cls-3" x="1143.82" y="513.4" width="49.84" height="57.51" rx="24.92" ry="24.92"/><rect class="cls-3" x="1020.69" y="503.55" width="49.84" height="57.51" rx="24.92" ry="24.92"/><rect class="cls-3" x="978.01" y="485.49" width="49.84" height="57.51" rx="24.92" ry="24.92"/><rect class="cls-3" x="922.19" y="488.78" width="49.84" height="57.51" rx="24.92" ry="24.92"/><rect class="cls-3" x="892.64" y="465.79" width="49.84" height="57.51" rx="24.92" ry="24.92"/><rect class="cls-3" x="843.39" y="488.78" width="49.84" height="57.51" rx="24.92" ry="24.92"/><rect class="cls-3" x="815.48" y="485.49" width="49.84" height="57.51" rx="24.92" ry="24.92"/><rect class="cls-3" x="858.16" y="480.57" width="49.84" height="57.51" rx="24.92" ry="24.92"/><rect class="cls-3" x="577.43" y="474" width="49.84" height="57.51" rx="24.92" ry="24.92"/><rect class="cls-3" x="608.63" y="488.78" width="49.84" height="57.51" rx="24.92" ry="24.92"/><rect class="cls-3" x="465.8" y="462.51" width="49.84" height="57.51" rx="24.92" ry="24.92"/><rect class="cls-3" x="424.76" y="467.44" width="49.84" height="57.51" rx="24.92" ry="24.92"/><rect class="cls-3" x="354.16" y="460.87" width="49.84" height="57.51" rx="24.92" ry="24.92"/><rect class="cls-3" x="321.33" y="480.57" width="49.84" height="57.51" rx="24.92" ry="24.92"/><rect class="cls-3" x="240.89" y="483.85" width="49.84" height="57.51" rx="24.92" ry="24.92"/><rect class="cls-3" x="1186.22" y="529.82" width="49.84" height="57.51" rx="24.92" ry="24.92"/><rect class="cls-3" x="1231.32" y="525.57" width="49.84" height="57.51" rx="24.92" ry="24.92"/><rect class="cls-3" x="1277.83" y="558.56" width="49.84" height="57.51" rx="24.92" ry="24.92"/><rect class="cls-3" x="1452.64" y="606.62" width="49.84" height="57.51" rx="24.92" ry="24.92"/><rect class="cls-3" x="1495.03" y="596.77" width="49.84" height="57.51" rx="24.92" ry="24.92"/><rect class="cls-3" x="1537.43" y="613.18" width="49.84" height="57.51" rx="24.92" ry="24.92"/><rect class="cls-3" x="1582.53" y="608.93" width="49.84" height="57.51" rx="24.92" ry="24.92"/><rect class="cls-3" x="1629.04" y="641.92" width="49.84" height="57.51" rx="24.92" ry="24.92"/><rect class="cls-3" x="1253.81" y="544.6" width="49.84" height="57.51" rx="24.92" ry="24.92"/><rect class="cls-3" x="705.49" y="495.34" width="49.84" height="57.51" rx="24.92" ry="24.92"/></g><g id="Layer_112" data-name="Layer 112"><ellipse class="cls-4" cx="515.87" cy="580.56" rx="73.01" ry="6.5"/><rect class="cls-5" x="503.61" y="466.72" width="22.15" height="118.15" rx="11.08" ry="11.08"/><path class="cls-5" d="M491.55,525.69c-9.28,0-14-7.55-14-16.15V493.87c0-.59,0-11.19.06-11.77a3.16,3.16,0,0,0-5.69-2.24,23.4,23.4,0,0,0-4.61,14v17.82a24.1,24.1,0,0,0,24,24h17.78c4.53,0,12.92-1.11,12.92-5.54s-10.37-4.49-13.5-4.48"/><path class="cls-5" d="M541.38,504.66c9.28,0,14-7.55,14-16.15V472.84c0-.59,0-11.19-.06-11.77a3.16,3.16,0,0,1,5.69-2.24,23.4,23.4,0,0,1,4.61,14v17.82a24.1,24.1,0,0,1-24,24H523.85c-4.53,0-12.92-1.11-12.92-5.54s10.37-4.49,13.5-4.48"/><rect class="cls-6" x="462.71" y="359.16" width="107.07" height="132.94" rx="42.48" ry="42.48"/><rect class="cls-6" x="446.25" y="440.77" width="57.3" height="70.14" rx="22.57" ry="22.57"/><rect class="cls-6" x="534" y="424.97" width="57.3" height="70.14" rx="22.57" ry="22.57"/><ellipse class="cls-4" cx="786.16" cy="522.91" rx="35.43" ry="3.15"/><rect class="cls-7" x="781.37" y="467.67" width="10.75" height="57.33" rx="5.37" ry="5.37" transform="translate(1573.48 992.67) rotate(180)"/><path class="cls-7" d="M798,496.29c4.5,0,6.81-3.67,6.81-7.84v-7.6c0-.29,0-5.43,0-5.71A1.53,1.53,0,0,1,807.5,474a11.36,11.36,0,0,1,2.24,6.8v8.65a11.69,11.69,0,0,1-11.66,11.66h-8.63c-2.2,0-6.27-.54-6.27-2.69s5-2.18,6.55-2.17"/><path class="cls-7" d="M773.78,486.08c-4.5,0-6.81-3.67-6.81-7.84v-7.6c0-.29,0-5.43,0-5.71a1.53,1.53,0,0,0-2.76-1.09,11.36,11.36,0,0,0-2.24,6.8v8.65a11.69,11.69,0,0,0,11.66,11.66h8.63c2.2,0,6.27-.54,6.27-2.69s-5-2.18-6.55-2.17"/><rect class="cls-8" x="760" y="415.48" width="51.96" height="64.51" rx="20.61" ry="20.61" transform="translate(1571.96 895.47) rotate(-180)"/><rect class="cls-8" x="792.14" y="455.08" width="27.81" height="34.04" rx="10.95" ry="10.95" transform="translate(1612.09 944.2) rotate(-180)"/><rect class="cls-8" x="749.56" y="447.41" width="27.81" height="34.04" rx="10.95" ry="10.95" transform="translate(1526.93 928.86) rotate(-180)"/></g></g><g id="COW" class="cls-9"><ellipse class="cls-4" cx="252.5" cy="636.46" rx="6.5" ry="73.01" transform="translate(-393.08 864.63) rotate(-87.83)"/><g id="Tail"><path class="cls-10" d="M214.93,573.49c-16-.5-19.12,12-20.06,42.05l-1.69,0c0,1.19-2.41.18-2.3,1.35-1.13-3.26-.08-4.36,0-8l0-1.53c.75-24.18,2.95-39.58,24.13-38.92Z"/><rect class="cls-11" x="188.01" y="603.49" width="8.9" height="15.91" rx="3.57" ry="3.57" transform="translate(19.12 -5.69) rotate(1.78)"/></g><g id="Main_Back" data-name="Main Back"><path class="cls-10" d="M309.22,593.79c-19.23.56-34,16.59-59.57,15.79s-34-8.91-33.6-21.61,45.54-16.41,71.13-15.61S321.92,593.42,309.22,593.79Z"/><path class="cls-10" d="M239.75,631.18l-4.37-1.42c-.54.44-1.55-1.74-1.77-2.75l-4.11-12.81a3.2,3.2,0,0,1,.56-2.74l5.51-3.53c.64-.59,1.36.12,1.47,1.44L239.71,625C239.79,626,240.22,630.8,239.75,631.18Z"/><path class="cls-10" d="M281.9,630l-4.71.73c-.67.1-1.36-.69-1.55-1.79l.89-21a4.35,4.35,0,0,0-.29-2.28c-1-2.39-.56-13.37,0-13.5l4.12,6.08c.8-.19,7.55,1.67,7.59,3l-5.06,27C282.9,629.17,282.5,629.94,281.9,630Z"/><path class="cls-12" d="M232.31,613.88l-2.62-.08c-2.16-.07-3.83-3.58-3.7-7.8l.1-3.16c.13-4.22,2-7.62,4.17-7.56l3.43.11c2.16.07,3.83,3.58,3.7,7.8l0,1.58C237.23,615.12,234.92,614,232.31,613.88Z"/><path class="cls-10" d="M244.82,634.93c0,.59.07,1.07-.51,1.05l-10.19-.32a1.07,1.07,0,0,1-1-1.1l.17-5.39a1.07,1.07,0,0,1,1.1-1l4.31.13C240.24,628.32,244.85,634,244.82,634.93Z"/><path class="cls-10" d="M289.2,635.46c0,.59,0,1.07-.56,1l-10.15-.32a1.07,1.07,0,0,1-1-1.1l.17-5.39a1.07,1.07,0,0,1,1.1-1l4.31.13C284.62,628.86,289.22,634.53,289.2,635.46Z"/><ellipse class="cls-11" cx="233.67" cy="608.75" rx="11.23" ry="13.81" transform="translate(-382.06 823.36) rotate(-88.22)"/><rect class="cls-11" x="225.59" y="614.27" width="3.97" height="7.93" rx="1.98" ry="1.98" transform="translate(19.35 -6.78) rotate(1.78)"/><rect class="cls-11" x="235.09" y="615.87" width="4.63" height="6.61" rx="2.31" ry="2.31" transform="translate(19.38 -7.09) rotate(1.78)"/></g><g id="Main_front" data-name="Main front"><path class="cls-13" d="M207,592.94c1-16,3.21-27.93,16.67-27.1,0,0,23.52,3.88,31.62,4.28,7.2.35,28.37-.57,28.37-.57,14.52.9,11.17,16.49,10.66,24.78"/><path class="cls-13" d="M219.28,628.73l-4.9-.43c-.7.16-1.34-.59-1.44-1.7l-2.42-21.84a2.24,2.24,0,0,1,1.09-2.39l9.78-2.91c.84-.25,1.59.81,1.51,2.15l-2.46,25.18A2,2,0,0,1,219.28,628.73Z"/><path class="cls-13" d="M268.4,630.25l-4.64-.21c-.66,0-1.16-.94-1.13-2.06l.81-22.21c0-1.13.59-2.06,1.26-2.08l9.26-.32c.8,0,1.36,1.22,1.15,2.53l-5.43,22.75C269.51,629.6,269,630.27,268.4,630.25Z"/><path class="cls-13" d="M226.08,634.09c0,.59.16,1.07-.43,1.05l-10.28-.32a1.07,1.07,0,0,1-1-1.1l.17-5.39a1.07,1.07,0,0,1,1.1-1l4.31.13C221.5,627.49,226.11,633.16,226.08,634.09Z"/><path class="cls-13" d="M274.25,635.84c0,.59.06,1.07-.52,1.05l-10.18-.32a1.07,1.07,0,0,1-1-1.1l.17-5.39a1.07,1.07,0,0,1,1.1-1l4.31.13C269.67,629.24,274.28,634.91,274.25,635.84Z"/><path class="cls-13" d="M294.44,594c-.57,18.34-44.27,17.59-57.24,17.19-24.06-.75-30.27-8-29.9-19.9s20.18-21,44.24-20.28S294.81,582.07,294.44,594Z"/></g><g id="Head"><path class="cls-14" d="M312.63,576l.38-.5a3.88,3.88,0,0,1,3-1.59,2.85,2.85,0,0,1,1.75.58l2.49,1.9a3,3,0,0,1,1.13,2.28,4,4,0,0,1-.85,2.59l-.38.5Z"/><path class="cls-13" d="M316,574.59a2.22,2.22,0,0,1,1.37.45l2.49,1.9a2.86,2.86,0,0,1,.16,4l-6.54-5a3.27,3.27,0,0,1,2.53-1.34m0-1.25h0a4.51,4.51,0,0,0-3.52,1.83l-.76,1,1,.76,6.54,5,1,.76.76-1a4.1,4.1,0,0,0-.39-5.75l-2.49-1.9a3.47,3.47,0,0,0-2.13-.7Z"/><rect class="cls-13" x="299.54" y="570.42" width="18.59" height="24.11" rx="8.98" ry="8.98" transform="translate(90.38 -39.57) rotate(8.58)"/><rect class="cls-13" x="303.86" y="577.26" width="16.7" height="24.11" rx="8.35" ry="8.35" transform="translate(-353.64 551.72) rotate(-58.85)"/><path class="cls-15" d="M316.45,583.26l-.27,0a1.79,1.79,0,0,1,.27-3.56l.27,0a1.79,1.79,0,0,1-.27,3.56Z"/><path class="cls-13" d="M316.44,580.38h.16a1.09,1.09,0,0,1-.16,2.17h-.16a1.09,1.09,0,0,1,.16-2.17m0-1.4h0A2.5,2.5,0,0,0,314,581.1a2.49,2.49,0,0,0,2.09,2.83l.37,0a2.5,2.5,0,0,0,2.46-2.12,2.49,2.49,0,0,0-2.09-2.83l-.37,0Z"/><path class="cls-14" d="M298.32,579.35a4,4,0,0,1-.75-2.62,3,3,0,0,1,1.22-2.24l2.56-1.8a2.83,2.83,0,0,1,1.64-.51,3.89,3.89,0,0,1,3.08,1.71l.36.51-7.76,5.45Z"/><path class="cls-13" d="M303,572.82a3.24,3.24,0,0,1,2.57,1.45L298.84,579a2.86,2.86,0,0,1,.32-4l2.57-1.8a2.21,2.21,0,0,1,1.28-.39m0-1.25h0a3.46,3.46,0,0,0-2,.62l-2.57,1.8a3.61,3.61,0,0,0-1.48,2.7,4.65,4.65,0,0,0,.86,3l.72,1,1-.72,6.74-4.73,1-.72-.72-1a4.46,4.46,0,0,0-3.6-2Z"/><path class="cls-11" d="M304.45,571.21c.26-1.73,2.34-2.84,5.24-2.4s4.07,2,3.81,3.77"/><path class="cls-11" d="M309.52,571.92c.26-1.73,2.21-2.86,4.36-2.54s3.68,2,3.42,3.71"/><path class="cls-11" d="M304.53,571.19a7.48,7.48,0,0,1,4.56,6.31,8.24,8.24,0,0,0,.5-6.19"/><path class="cls-11" d="M309.32,572s2.86,1.78,3,3.91c0,0,2.33-2.56,1.66-4.23"/><path class="cls-11" d="M313.43,572.37a4.46,4.46,0,0,1,2.43,4.63s1-.48,1.49-3.9"/><path class="cls-15" d="M310.71,582.67a1.82,1.82,0,0,1-.35,0,1.79,1.79,0,0,1,.34-3.55,1.83,1.83,0,0,1,.35,0,1.79,1.79,0,0,1-.35,3.55Z"/><path class="cls-13" d="M310.71,579.79l.21,0a1.09,1.09,0,0,1-.21,2.16l-.21,0a1.09,1.09,0,0,1,.21-2.16m0-1.4h0a2.49,2.49,0,1,0,.48,0,2.49,2.49,0,0,0-.48,0Z"/><path class="cls-14" d="M322.79,596.76c-.33,2.2-4.07,3.46-8.35,2.82s-7.57-4.29-7.23-6.49,4.16-2.13,8.44-1.48S323.13,594.56,322.79,596.76Z"/><rect class="cls-11" x="307.29" y="587.39" width="18.93" height="9.81" rx="4.46" ry="4.46" transform="translate(91.94 -40.64) rotate(8.58)"/><path class="cls-14" d="M313.81,591l-.35,0a2.87,2.87,0,0,1-2.15-3.41A2.94,2.94,0,0,1,314,585l.35,0a2.87,2.87,0,0,1,2.15,3.41A2.94,2.94,0,0,1,313.81,591Z"/><path class="cls-11" d="M314,585.64l.25,0a2.2,2.2,0,0,1,1.59,2.64,2.26,2.26,0,0,1-2,2.07l-.25,0a2.2,2.2,0,0,1-1.59-2.64,2.26,2.26,0,0,1,2-2.07m0-1.35h0a3.62,3.62,0,0,0-3.38,3.22,3.54,3.54,0,0,0,2.72,4.18,3,3,0,0,0,.45,0,3.62,3.62,0,0,0,3.38-3.22,3.54,3.54,0,0,0-2.72-4.18,3,3,0,0,0-.45,0Z"/><path class="cls-14" d="M322.65,592.64l-.35,0a2.46,2.46,0,0,1-1.75-1.21,3.3,3.3,0,0,1-.41-2.19,2.94,2.94,0,0,1,2.72-2.65l.35,0a2.87,2.87,0,0,1,2.15,3.41A2.94,2.94,0,0,1,322.65,592.64Z"/><path class="cls-11" d="M322.86,587.23l.25,0a2.2,2.2,0,0,1,1.59,2.64,2.26,2.26,0,0,1-2,2.07l-.25,0a2.2,2.2,0,0,1-1.59-2.64,2.26,2.26,0,0,1,2-2.07m0-1.35h0a3.62,3.62,0,0,0-3.38,3.22,4,4,0,0,0,.5,2.64,3.17,3.17,0,0,0,2.22,1.53,3,3,0,0,0,.45,0,3.62,3.62,0,0,0,3.38-3.22,4,4,0,0,0-.5-2.64,3.17,3.17,0,0,0-2.22-1.53,3,3,0,0,0-.45,0Z"/></g></g><g id="Layer_114" data-name="Layer 114"><g id="Layer_115" data-name="Layer 115"><path class="cls-10" d="M399.91,431.15c2.07.52,2.63-1.15,3.13-5.35l.22.05c0-.17.31,0,.32-.12.11.49,0,.62-.11,1.12l0,.21c-.41,3.38-.89,5.48-3.62,4.8Z"/><path class="cls-11" d="M403.33,425.31l.23.06a.57.57,0,0,1,.4.61l-.15,1.22a.42.42,0,0,1-.52.38l-.23-.06a.57.57,0,0,1-.4-.61l.15-1.22A.42.42,0,0,1,403.33,425.31Z"/><path class="cls-10" d="M388,425.66c2.5.46,4.61-1.38,7.91-.56s4.29,2.2,4.08,4-6.1,1-9.41.21S386.32,425.36,388,425.66Z"/><path class="cls-10" d="M397.43,422.35l.55.32c.08,0,.18.29.19.44l.37,1.91a.45.45,0,0,1-.11.37l-.76.34c-.09.06-.17-.06-.17-.24l-.15-2.27A3.5,3.5,0,0,1,397.43,422.35Z"/><path class="cls-10" d="M392,421.34l.62,0c.09,0,.17.13.18.29l-.38,2.93a.68.68,0,0,0,0,.33,5.93,5.93,0,0,1-.17,1.9l-.46-1c-.11,0-1-.45-.94-.63l1-3.65C391.82,421.43,391.88,421.33,392,421.34Z"/><path class="cls-12" d="M398.18,425l.34.08c.28.07.45.61.38,1.2l-.05.44c-.07.59-.36,1-.64.95l-.44-.11c-.28-.07-.45-.61-.38-1.2l0-.22C397.56,424.68,397.84,424.91,398.18,425Z"/><path class="cls-10" d="M396.83,421.68c0-.08,0-.15.08-.13l1.32.33a.17.17,0,0,1,.12.18l-.09.75a.13.13,0,0,1-.16.11l-.56-.14A2.58,2.58,0,0,1,396.83,421.68Z"/><path class="cls-10" d="M391.09,420.37c0-.08,0-.15.09-.13l1.31.33a.17.17,0,0,1,.12.18l-.09.75a.13.13,0,0,1-.16.11l-.56-.14A2.58,2.58,0,0,1,391.09,420.37Z"/><path class="cls-11" d="M396.15,425.23a1.48,1.48,0,0,1,2-1.12,2,2,0,0,1,1.59,2,1.48,1.48,0,0,1-2,1.12A2,2,0,0,1,396.15,425.23Z"/><path class="cls-11" d="M398.91,424h0a.32.32,0,0,1,.22.34l-.07.55a.23.23,0,0,1-.29.21h0a.32.32,0,0,1-.22-.34l.07-.55A.23.23,0,0,1,398.91,424Z"/><path class="cls-11" d="M397.64,423.64h0a.37.37,0,0,1,.26.4l0,.28a.27.27,0,0,1-.34.25h0a.37.37,0,0,1-.26-.4l0-.28A.27.27,0,0,1,397.64,423.64Z"/><path class="cls-13" d="M401.19,428.64c-.33,2.23-.77,3.84-2.5,3.34,0,0-3-1.2-4-1.48s-3.68-.71-3.68-.71c-1.87-.53-1.24-2.63-1.07-3.78"/><path class="cls-13" d="M400.05,423.27l.63.2c.09,0,.17.12.17.28l0,3.14c0,.16-.08.3-.17.31l-1.3.14c-.11,0-.2-.16-.17-.34l.64-3.47C399.9,423.37,400,423.27,400.05,423.27Z"/><path class="cls-13" d="M393.71,421.68l.6.16c.09,0,.14.16.12.32l-.39,3.1c0,.16-.1.27-.19.26l-1.2-.21c-.1,0-.16-.21-.12-.39l1-3C393.56,421.74,393.64,421.66,393.71,421.68Z"/><path class="cls-13" d="M399.24,422.32c0-.08,0-.16.07-.14l1.33.33a.17.17,0,0,1,.12.18l-.09.75a.13.13,0,0,1-.16.11l-.56-.14A2.58,2.58,0,0,1,399.24,422.32Z"/><path class="cls-13" d="M393,420.73c0-.08,0-.15.08-.13l1.31.33a.17.17,0,0,1,.12.18l-.09.75a.13.13,0,0,1-.16.11l-.56-.14A2.58,2.58,0,0,1,393,420.73Z"/><path class="cls-13" d="M389.88,426c.31-2.56,6-1.24,7.63-.82,3.11.78,3.82,2,3.62,3.63s-2.88,2.39-6,1.61S389.68,427.71,389.88,426Z"/><path class="cls-14" d="M386.91,428.27a.4.4,0,0,1-.3-.14l-.3-.34a.52.52,0,0,1,0-.68l.06-.07.9,1-.05.06A.47.47,0,0,1,386.91,428.27Z"/><path class="cls-13" d="M386.4,427.17l.78.89a.38.38,0,0,1-.28.13.32.32,0,0,1-.24-.11l-.3-.34a.43.43,0,0,1,0-.57m0-.25-.13.14a.6.6,0,0,0,0,.79l.3.34a.49.49,0,0,0,.37.17.55.55,0,0,0,.4-.18l.11-.11-.1-.12-.78-.89-.12-.14Z"/><path class="cls-13" d="M388.22,425.63l.08,0a1.45,1.45,0,0,1,.85,1.65l-.2.83a1,1,0,0,1-1.42.77l-.08,0a1.45,1.45,0,0,1-.85-1.65l.2-.83A1,1,0,0,1,388.22,425.63Z"/><path class="cls-13" d="M386.26,425h0a1,1,0,0,1,1.52-.08l.77.71a1.32,1.32,0,0,1,.22,1.69h0a1,1,0,0,1-1.52.08l-.77-.71A1.32,1.32,0,0,1,386.26,425Z"/><path class="cls-15" d="M386.87,427.45l-.07,0a.27.27,0,0,1-.16-.31.22.22,0,0,1,.22-.18c.2.06.27.2.24.33a.22.22,0,0,1-.22.18Z"/><path class="cls-13" d="M386.86,427h0a.18.18,0,0,1,.1.2.13.13,0,0,1-.12.1h0a.18.18,0,0,1-.1-.2.13.13,0,0,1,.12-.1m0-.19a.32.32,0,0,0-.31.25.37.37,0,0,0,.22.42l.12,0a.32.32,0,0,0,.31-.25.37.37,0,0,0-.22-.42l-.12,0Z"/><path class="cls-14" d="M388.56,428.88a.54.54,0,0,1-.45-.33l0-.08,1.08-.55,0,.08a.49.49,0,0,1-.13.66l-.36.18A.33.33,0,0,1,388.56,428.88Z"/><path class="cls-13" d="M389.12,428a.41.41,0,0,1-.09.55l-.35.18-.11,0a.46.46,0,0,1-.38-.28l.93-.48m.08-.23-.15.08-.93.48-.15.08.07.15a.62.62,0,0,0,.53.38.41.41,0,0,0,.19,0l.35-.18a.57.57,0,0,0,.17-.78l-.08-.16Z"/><path class="cls-11" d="M388.29,429c-.06.24-.34.33-.71.19s-.5-.4-.45-.64"/><path class="cls-11" d="M387.65,428.73a.42.42,0,0,1-.6.23.58.58,0,0,1-.4-.62"/><path class="cls-11" d="M388.28,429a1.22,1.22,0,0,1-.51-1,1.19,1.19,0,0,0-.14.86"/><path class="cls-11" d="M387.67,428.72a1.07,1.07,0,0,1-.34-.63s-.33.3-.27.55"/><path class="cls-11" d="M387.15,428.56a.73.73,0,0,1-.26-.72s-.13,0-.24.51"/><path class="cls-15" d="M387.6,427.69l-.07,0a.27.27,0,0,1-.15-.32.22.22,0,0,1,.21-.17c.21.07.28.21.24.34a.22.22,0,0,1-.21.17Z"/><path class="cls-13" d="M387.59,427.28h.05a.18.18,0,0,1,.09.2.13.13,0,0,1-.12.1h-.05a.18.18,0,0,1-.09-.2.13.13,0,0,1,.12-.1m0-.19h0a.32.32,0,0,0-.31.24.37.37,0,0,0,.2.43l.13,0a.32.32,0,0,0,.31-.24.37.37,0,0,0-.2-.43l-.13,0Z"/><path class="cls-14" d="M386.25,424.87c.07-.3.57-.37,1.12-.16s.93.81.85,1.11-.57.18-1.11,0S386.17,425.17,386.25,424.87Z"/><path class="cls-11" d="M386.5,424.76l1.26.49a.72.72,0,0,1,.42.82l0,.12a.52.52,0,0,1-.7.38l-1.26-.49a.72.72,0,0,1-.42-.82l0-.12A.52.52,0,0,1,386.5,424.76Z"/><path class="cls-14" d="M387.17,426.75a.45.45,0,0,1-.23-.52.37.37,0,0,1,.34-.31l.11,0a.45.45,0,0,1,.23.52.37.37,0,0,1-.34.31Z"/><path class="cls-11" d="M387.28,426h.07a.36.36,0,0,1,.17.42.28.28,0,0,1-.25.24h-.07a.36.36,0,0,1-.17-.42.28.28,0,0,1,.25-.24m0-.18h0a.46.46,0,0,0-.43.38.54.54,0,0,0,.28.63l.14,0a.46.46,0,0,0,.43-.38.54.54,0,0,0-.28-.63l-.14,0Z"/><path class="cls-14" d="M386.14,426.3l-.09,0a.44.44,0,0,1-.23-.52.37.37,0,0,1,.34-.31h0l.09,0a.44.44,0,0,1,.23.52.37.37,0,0,1-.34.31Z"/><path class="cls-11" d="M386.16,425.54h.07a.36.36,0,0,1,.17.42.28.28,0,0,1-.25.24h-.07a.36.36,0,0,1-.17-.42.28.28,0,0,1,.25-.24m0-.18h0a.46.46,0,0,0-.43.38.54.54,0,0,0,.28.63l.14,0a.46.46,0,0,0,.43-.38.54.54,0,0,0-.28-.63l-.14,0Z"/></g><g id="Layer_110" data-name="Layer 110" class="cls-16"><circle class="cls-17" cx="352.57" cy="401.72" r="1.27" transform="translate(-119.17 150.44) rotate(-20.69)"/><circle class="cls-17" cx="407.51" cy="380.97" r="1.27" transform="translate(-108.3 168.51) rotate(-20.69)"/><path class="cls-18" d="M395.11,389l-27.59,10.42c-3.61,1.36-5.79-.9-5-3.65l1.74-9.92a5.89,5.89,0,0,1,3.73-3.51l15.74-5.94a5.85,5.85,0,0,1,5.16.2l8.1,6.27C399.27,384.47,398.69,387.67,395.11,389Z"/><rect class="cls-18" x="368.83" y="387.55" width="25.36" height="10.55" rx="5.28" ry="5.28" transform="translate(-113.38 158.42) rotate(-20.49)"/><rect class="cls-19" x="350.52" y="388.23" width="58.9" height="6.54" rx="3.27" ry="3.27" transform="translate(-113.8 159.46) rotate(-20.69)"/><g id="Layer_113" data-name="Layer 113"><circle class="cls-17" cx="356.8" cy="400.12" r="1.27" transform="translate(-118.34 151.83) rotate(-20.69)"/><circle class="cls-17" cx="361.02" cy="398.52" r="1.27" transform="matrix(0.94, -0.35, 0.35, 0.94, -117.5, 153.22)"/><circle class="cls-17" cx="365.25" cy="396.93" r="1.27" transform="translate(-116.66 154.61) rotate(-20.69)"/><circle class="cls-17" cx="369.48" cy="395.33" r="1.27" transform="translate(-115.83 156) rotate(-20.69)"/><circle class="cls-17" cx="373.7" cy="393.74" r="1.27" transform="translate(-114.99 157.39) rotate(-20.69)"/><circle class="cls-17" cx="377.93" cy="392.14" r="1.27" transform="translate(-114.16 158.78) rotate(-20.69)"/><circle class="cls-17" cx="382.16" cy="390.54" r="1.27" transform="translate(-113.32 160.17) rotate(-20.69)"/><circle class="cls-17" cx="386.38" cy="388.95" r="1.27" transform="translate(-112.48 161.56) rotate(-20.69)"/><circle class="cls-17" cx="390.61" cy="387.35" r="1.27" transform="translate(-111.65 162.95) rotate(-20.69)"/><circle class="cls-17" cx="394.84" cy="385.76" r="1.27" transform="translate(-110.81 164.34) rotate(-20.69)"/><circle class="cls-17" cx="399.06" cy="384.16" r="1.27" transform="translate(-109.98 165.73) rotate(-20.69)"/><circle class="cls-17" cx="403.29" cy="382.56" r="1.27" transform="translate(-109.14 167.12) rotate(-20.69)"/></g><polygon class="cls-20" points="414.58 435.03 383.69 446.63 376.2 403 392.82 396.84 414.58 435.03"/></g></g></g></g></svg>