<svg id="layer4" xmlns="http://www.w3.org/2000/svg" viewBox="0 0 1757.31 769.24"><defs><style>.cls-1{fill:#f4f7f9;}.cls-2{fill:#eff1f4;}.cls-3,.cls-5{fill:#fff;}.cls-3,.cls-4,.cls-8{opacity:0.7;}.cls-4,.cls-7{fill:#dce0e5;}.cls-6{fill:#edeeef;}.cls-8{fill:#e7ebf2;}.cls-9{fill:#c9cfd3;}.cls-10{fill:#f7f5eb;}.cls-11{fill:#cfe8bf;}</style></defs><title>Labmeat-banner-01</title><rect class="cls-1" x="-67.52" y="-11.67" width="1894.78" height="779.26"/><g id="Layer_109" data-name="Layer 109"><path class="cls-2" d="M1132.31,617.38,1373,376.7a37.12,37.12,0,0,1,52.34,0L1666,617.38"/><path class="cls-3" d="M1372.34,425.67l-.36-24.44a5,5,0,0,0-6.84-3l-13.64,14.55a5,5,0,0,1-5.75-7.94l26.86-28.93a37.12,37.12,0,0,1,52.34,0l34.55,34.85a5,5,0,0,1-4.25,8.57l-25.8-16.82a5,5,0,0,0-5.81,5.07l1.73,14.86a5,5,0,0,1-8.16,4l-13.93-18.11a5,5,0,0,0-6.07-.19L1380,428.23A5,5,0,0,1,1372.34,425.67Z"/><path class="cls-4" d="M344.13,570.29,584.82,329.61a37.12,37.12,0,0,1,52.34,0L877.85,570.29"/><path class="cls-5" d="M588.55,364.7,584.2,351a5,5,0,0,0-6.84-3l-5,4.69a5,5,0,0,1-5.75-7.94l18.2-19.08a37.12,37.12,0,0,1,52.34,0l21.16,20.06a5,5,0,0,1-4.25,8.57l-12.4-2a5,5,0,0,0-5.81,5.07l.18,6.84a5,5,0,0,1-8.16,4L615.5,358a5,5,0,0,0-6.07-.19l-13.2,9.43A5,5,0,0,1,588.55,364.7Z"/><path class="cls-6" d="M54.59,628.75l335.59-338.5a37.12,37.12,0,0,1,52.34,0L791,653"/><path class="cls-7" d="M467.75,597.18,227.06,356.49a37.12,37.12,0,0,0-52.34,0L-66,597.18l-1.55,170.41,560.33-4.38Z"/><path class="cls-5" d="M178.44,391.59l-4.35-13.73a5,5,0,0,0-6.84-3l-5,4.69a5,5,0,0,1-5.75-7.94l18.2-19.08a37.12,37.12,0,0,1,52.34,0l21.16,20.06a5,5,0,0,1-4.25,8.57l-12.4-2a5,5,0,0,0-5.81,5.07l.18,6.84a5,5,0,0,1-8.16,4l-12.38-10.1a5,5,0,0,0-6.07-.19l-13.2,9.43A5,5,0,0,1,178.44,391.59Z"/><path class="cls-5" d="M393.6,329.75,389.24,316a5,5,0,0,0-6.84-3l-5,4.69a5,5,0,0,1-5.75-7.94l18.2-19.08a37.12,37.12,0,0,1,52.34,0l21.16,20.06a5,5,0,0,1-4.25,8.57l-12.4-2a5,5,0,0,0-5.81,5.07l.18,6.84a5,5,0,0,1-8.16,4l-12.38-10.1a5,5,0,0,0-6.07-.19l-13.2,9.43A5,5,0,0,1,393.6,329.75Z"/><path class="cls-8" d="M1374,555.47l188.31-197a37.12,37.12,0,0,1,52.34,0l240.69,240.69.34,184.58L1616,776.91Z"/><path class="cls-3" d="M1565.65,396.76,1561.29,383a5,5,0,0,0-6.84-3l-5,4.69a5,5,0,0,1-5.75-7.94l18.2-19.08a37.12,37.12,0,0,1,52.34,0l21.16,20.06a5,5,0,0,1-4.25,8.57l-12.4-2a5,5,0,0,0-5.81,5.07l.18,6.84a5,5,0,0,1-8.16,4l-12.38-10.1a5,5,0,0,0-6.07-.19l-13.2,9.43A5,5,0,0,1,1565.65,396.76Z"/><path class="cls-7" d="M682.29,770.06,1139.4,297.33a37.12,37.12,0,0,1,52.34,0l527,534.37"/><path class="cls-9" d="M307.58,887.4l534-535.27a37.12,37.12,0,0,1,52.34,0l543.64,560.39"/><path class="cls-3" d="M1134.32,349.82l-2.59-13.44a6.29,6.29,0,0,0-8.6-3.83l-6.27,5.9a6.29,6.29,0,0,1-7.23-10l22.88-24c18.47-22.53,42.43-24.77,62.93-3.83l25.14,26.15a6.29,6.29,0,0,1-5.34,10.77l-14.13-3.48a6.29,6.29,0,0,0-7.3,6.37l.23,8.6a6.29,6.29,0,0,1-10.26,5l-15.56-12.69a6.29,6.29,0,0,0-7.63-.24L1144,353A6.29,6.29,0,0,1,1134.32,349.82Z"/></g><rect class="cls-3" x="391.48" y="157.95" width="135.48" height="47.12" rx="23.56" ry="23.56"/><rect class="cls-3" x="456.27" y="187.4" width="135.48" height="47.12" rx="23.56" ry="23.56"/><rect class="cls-3" x="552.18" y="266" width="67.87" height="23.61" rx="11.8" ry="11.8"/><rect class="cls-3" x="584.64" y="280.75" width="67.87" height="23.61" rx="11.8" ry="11.8"/><rect class="cls-3" x="1304.95" y="308.97" width="67.87" height="23.61" rx="11.8" ry="11.8"/><rect class="cls-3" x="1337.42" y="323.73" width="67.87" height="23.61" rx="11.8" ry="11.8"/><rect class="cls-3" x="1386.05" y="189.22" width="135.48" height="47.12" rx="23.56" ry="23.56"/><rect class="cls-3" x="1450.85" y="218.67" width="135.48" height="47.12" rx="23.56" ry="23.56"/><rect class="cls-3" x="752.77" y="298.8" width="200.91" height="69.88" rx="34.94" ry="34.94"/><rect class="cls-3" x="882.99" y="328.25" width="135.48" height="47.12" rx="23.56" ry="23.56"/><circle class="cls-10" cx="223.44" cy="232.72" r="58.48"/><rect class="cls-11" x="-189.31" y="618.07" width="2174.26" height="387.46"/></svg>