<svg xmlns="http://www.w3.org/2000/svg" xmlns:xlink="http://www.w3.org/1999/xlink" viewBox="0 0 1545.66 1080"><defs><style>.cls-1,.cls-111,.cls-112,.cls-115,.cls-116,.cls-117,.cls-67,.cls-68,.cls-80{fill:none;}.cls-2{fill:#409ed6;opacity:0.1;}.cls-13,.cls-23,.cls-26,.cls-3,.cls-4,.cls-49{opacity:0.5;}.cls-4{fill:#e7d4cd;}.cls-5{fill:#eee4db;}.cls-6{fill:#e7e8e7;}.cls-13,.cls-14,.cls-7,.cls-8{fill:#eacece;}.cls-118,.cls-35,.cls-7{opacity:0.2;}.cls-73,.cls-8,.cls-93,.cls-94,.cls-95,.cls-96{opacity:0.3;}.cls-9{fill:#dbcde3;}.cls-10{fill:#ced2e9;}.cls-11{fill:#eedeeb;}.cls-12{fill:#eed9ea;}.cls-15{fill:url(#linear-gradient);}.cls-16{fill:#d1dce0;}.cls-17{fill:#c7d9e2;}.cls-18{fill:#d6e4ea;}.cls-19{fill:url(#linear-gradient-2);}.cls-20{fill:#e9f0f2;}.cls-20,.cls-22,.cls-24,.cls-55,.cls-76,.cls-77,.cls-79,.cls-85{opacity:0.8;}.cls-21{fill:#e4ecef;}.cls-22,.cls-23,.cls-25,.cls-66{fill:#fff;}.cls-26{fill:#acd053;}.cls-27{fill:#d3e5be;}.cls-28{fill:#c9e0c1;}.cls-29,.cls-49{fill:#baddaf;}.cls-30{fill:#a6d893;}.cls-31{fill:#8bcc90;}.cls-32,.cls-83,.cls-92{opacity:0.7;}.cls-33{fill:#c0b399;}.cls-34{fill:#7abf6a;opacity:0.9;}.cls-35{fill:#93c73d;}.cls-36{fill:#969e85;}.cls-37{fill:#55ad7d;}.cls-38{fill:#65ad59;}.cls-39{fill:#5fb272;}.cls-103,.cls-105,.cls-40,.cls-72{opacity:0.6;}.cls-41{fill:#ccc1ac;}.cls-42,.cls-83{fill:#ededed;}.cls-43{fill:#fcd8ba;}.cls-44{fill:#e4e4e4;}.cls-45{fill:#fbfbfb;}.cls-46,.cls-94{fill:#edb68f;}.cls-47{fill:#848496;}.cls-48{fill:#945899;}.cls-106,.cls-48,.cls-97{opacity:0.4;}.cls-50{fill:#f7eb32;}.cls-51{fill:#c9cfd3;}.cls-52{fill:#d5dd23;}.cls-53{fill:url(#linear-gradient-3);}.cls-54{fill:#f0f0f0;}.cls-55{fill:#79ba83;}.cls-56{fill:#f7c59f;}.cls-57{fill:#f49aad;}.cls-103,.cls-58{fill:#ef7087;}.cls-59{fill:#363677;}.cls-60{fill:#d35e7c;}.cls-61{fill:#4a4aa8;}.cls-62{fill:#353577;}.cls-63{fill:#f4b99f;}.cls-64{fill:#f9dac5;}.cls-65{fill:#f9e9de;}.cls-66{stroke:#fff;stroke-width:5.3px;}.cls-110,.cls-111,.cls-112,.cls-115,.cls-116,.cls-117,.cls-66,.cls-67,.cls-68,.cls-79,.cls-80{stroke-miterlimit:10;}.cls-67{stroke:#e4e4e4;}.cls-67,.cls-68{stroke-width:5.24px;}.cls-68{stroke:#cb425c;}.cls-69{fill:#f2f2f2;}.cls-70{fill:#f8f8f9;}.cls-71{fill:#a89b92;}.cls-72{fill:#58595b;}.cls-73{fill:#35526d;}.cls-74,.cls-79{fill:#cb425c;}.cls-75{fill:#ee5b72;}.cls-102,.cls-76,.cls-95{fill:#5491c4;}.cls-77{fill:#bfdbef;}.cls-78{fill:#d9dadb;}.cls-111,.cls-112,.cls-115,.cls-116,.cls-79,.cls-80{stroke:#0090bc;}.cls-79,.cls-80{stroke-width:5.7px;}.cls-81{fill:#0090bc;}.cls-82,.cls-96{fill:#aa812e;}.cls-84{fill:#262262;}.cls-85{fill:#c9c535;}.cls-86{clip-path:url(#clip-path);}.cls-87{clip-path:url(#clip-path-2);}.cls-88{clip-path:url(#clip-path-3);}.cls-89{clip-path:url(#clip-path-4);}.cls-90{clip-path:url(#clip-path-5);}.cls-91{fill:#f9acbc;}.cls-100,.cls-92{fill:#f6eaea;}.cls-101,.cls-93{fill:#fab129;}.cls-98{fill:#f4d8a6;}.cls-99{fill:#efc178;}.cls-104{clip-path:url(#clip-path-6);}.cls-105,.cls-106{fill:#a52b2e;}.cls-107{fill:#88caea;}.cls-108{fill:#f7f7ed;}.cls-109{fill:#f9ceaf;}.cls-110{fill:#0e141d;stroke:#b1b1b1;stroke-width:3.96px;}.cls-111{stroke-width:15.86px;}.cls-112{stroke-width:5.95px;}.cls-113{font-size:36px;font-family:MoskBold700, Mosk;}.cls-113,.cls-114{fill:#336191;}.cls-114{font-size:28px;font-family:MoskMedium500, Mosk;}.cls-115,.cls-116,.cls-117{stroke-width:1.98px;}.cls-115{stroke-dasharray:4.08 4.08;}.cls-116{stroke-dasharray:3.96;}.cls-117{stroke:#336191;}</style><linearGradient id="linear-gradient" x1="945.56" y1="896.04" x2="945.56" y2="649.22" gradientUnits="userSpaceOnUse"><stop offset="0.19" stop-color="#fff" stop-opacity="0.3"/><stop offset="1" stop-color="#d6e6ed"/></linearGradient><linearGradient id="linear-gradient-2" x1="835.84" y1="904.55" x2="835.84" y2="657.74" gradientUnits="userSpaceOnUse"><stop offset="0" stop-color="#fff" stop-opacity="0.3"/><stop offset="0.12" stop-color="#f4f8fa" stop-opacity="0.49"/><stop offset="0.23" stop-color="#ebf3f6" stop-opacity="0.64"/><stop offset="0.36" stop-color="#e3eef3" stop-opacity="0.77"/><stop offset="0.49" stop-color="#ddebf0" stop-opacity="0.87"/><stop offset="0.63" stop-color="#d9e8ee" stop-opacity="0.94"/><stop offset="0.79" stop-color="#d7e6ed" stop-opacity="0.99"/><stop offset="1" stop-color="#d6e6ed"/></linearGradient><linearGradient id="linear-gradient-3" x1="671.86" y1="-655.75" x2="678.68" y2="-697.69" gradientTransform="translate(202.17 1757.55) rotate(-29.96)" gradientUnits="userSpaceOnUse"><stop offset="0" stop-color="#fff" stop-opacity="0"/><stop offset="0.09" stop-color="#fefcdd" stop-opacity="0.17"/><stop offset="0.22" stop-color="#fcf7b0" stop-opacity="0.38"/><stop offset="0.36" stop-color="#faf48a" stop-opacity="0.57"/><stop offset="0.49" stop-color="#f9f06a" stop-opacity="0.73"/><stop offset="0.62" stop-color="#f8ee51" stop-opacity="0.85"/><stop offset="0.75" stop-color="#f8ec40" stop-opacity="0.93"/><stop offset="0.88" stop-color="#f7eb36" stop-opacity="0.98"/><stop offset="1" stop-color="#f7eb32"/></linearGradient><clipPath id="clip-path"><path class="cls-1" d="M829.12,369.05c9,.24,80.66,3,87.3,3s53.69,3.44,59.92,3.8,45.91,3,47.35,5,2.63,8.74,2,12.22-1.31,9.29-3.32,10.35-43.5-4-52.48-4.15-73.24-3-80.25-3.38-71-1.69-72.91-1.8-7.86.73-10.1-1-2.48-11.47-2.3-14.58,2.51-7.49,4.1-8.83S820.1,368.81,829.12,369.05Z"/></clipPath><clipPath id="clip-path-2"><path class="cls-1" d="M1021.8,395.43c8.74-2,78.87-17.16,85.29-18.83s52.86-10,59-11.25,45.21-8.53,47.11-6.92,4.73,7.81,5,11.33,1,9.33-.63,10.85-43.14,6.93-51.86,9.05S1094,405,1087.14,406.37s-69.15,16.05-71.06,16.42-7.43,2.66-10,1.58-5.26-10.48-5.86-13.54.56-7.88,1.77-9.57S1013,397.45,1021.8,395.43Z"/></clipPath><clipPath id="clip-path-3"><path class="cls-1" d="M966.76,285.24c8.76,1.91,78.67,18,85.2,19.25s52.1,13.41,58.16,14.92,44.54,11.51,45.58,13.78,1,9.08-.28,12.39-3,8.89-5.2,9.55-42-12.08-50.78-13.88-71.39-16.61-78.2-18.31-69.41-14.91-71.3-15.38-7.85-.75-9.74-2.83-.29-11.73.46-14.75,3.86-6.89,5.68-7.91S957.94,283.31,966.76,285.24Z"/></clipPath><clipPath id="clip-path-4"><path class="cls-1" d="M985.31,327.26c12.58-2.72,113.51-23.38,122.77-25.67s76.05-13.58,84.86-15.22,65-11.52,67.76-9.18,6.65,11.29,7,16.35,1.36,13.41-1.09,15.57-62.05,9.26-74.6,12.17S1088.86,342.17,1079,344s-99.56,21.93-102.31,22.44-10.7,3.7-14.41,2.12-7.37-15.15-8.19-19.55.93-11.3,2.7-13.71S972.64,330,985.31,327.26Z"/></clipPath><clipPath id="clip-path-5"><path class="cls-1" d="M745.8,309.49c12.8,1.4,115.08,13.82,124.58,14.58s76.43,11.25,85.3,12.49,65.34,9.7,67.18,12.78,2.73,12.82,1.47,17.73-3,13.15-6,14.42-61.78-10.89-74.61-12.12-104.47-12.9-114.45-14.3-101.37-10.78-104.14-11.16-11.32.11-14.34-2.57-2.18-16.7-1.56-21.14,4.47-10.41,6.91-12.14S732.91,308.07,745.8,309.49Z"/></clipPath><clipPath id="clip-path-6"><path class="cls-1" d="M761.61,326.08c24.65-.53,221.92-3.12,240.14-3.9s148,.78,165.1.78,126.5,1.78,130.79,5.69,8.58,17.19,7.51,24.22-2.15,18.75-7.51,21.1-120.07-4.13-144.73-3.35S951.37,373,932.07,373,737,377.66,731.59,377.66s-21.44,2.34-27.87-.78-8.58-22.67-8.58-28.92,5.72-15.26,9.89-18.12S736.79,326.62,761.61,326.08Z"/></clipPath></defs><g id="Background"><polyline class="cls-2" points="1610.49 0 1610.49 1080 -1695.27 1080 -1695.27 0"/></g><g id="bits" class="cls-3"><circle class="cls-4" cx="99.44" cy="333.43" r="10.64"/><circle class="cls-5" cx="187.36" cy="422.05" r="11.76"/><circle class="cls-6" cx="20.66" cy="424.47" r="11.76"/><circle class="cls-6" cx="121.8" cy="437.28" r="11.76"/><circle class="cls-4" cx="1342.42" cy="416.84" r="16.79"/><circle class="cls-7" cx="878.49" cy="400.76" r="4.42"/><circle class="cls-8" cx="1310.41" cy="559.44" r="9.72"/><circle class="cls-7" cx="1396.27" cy="455.74" r="6.19"/><circle class="cls-9" cx="559.3" cy="455.74" r="12.37"/><circle class="cls-10" cx="523.97" cy="396.1" r="9.22"/><circle class="cls-7" cx="1292.45" cy="481.09" r="4.42"/><circle class="cls-8" cx="912.81" cy="375.85" r="9.72"/><circle class="cls-7" cx="1422.31" cy="694.22" r="6.19"/><circle class="cls-7" cx="734.93" cy="352.86" r="6.19"/><circle class="cls-11" cx="1431.93" cy="647.42" r="12.37"/><circle class="cls-11" cx="587.78" cy="572.3" r="12.37"/><circle class="cls-7" cx="784.17" cy="334.92" r="6.19"/><circle class="cls-4" cx="1359.22" cy="83.14" r="16.79"/><circle class="cls-7" cx="887.99" cy="393.56" r="4.42"/><circle class="cls-12" cx="1004.64" cy="445.54" r="12.37"/><circle class="cls-11" cx="1436.07" cy="881.9" r="12.37"/><circle class="cls-7" cx="1188.11" cy="975.42" r="2.8"/><circle class="cls-4" cx="1169.66" cy="808.92" r="10.64"/><circle class="cls-10" cx="1201.79" cy="963.88" r="5.84"/><circle class="cls-8" cx="1203.9" cy="997.17" r="6.16"/><circle class="cls-7" cx="1196.06" cy="607.27" r="3.92"/><circle class="cls-13" cx="1158.77" cy="584.25" r="10.64"/><circle class="cls-14" cx="1014.9" cy="974.64" r="4.48"/><circle class="cls-5" cx="1014.9" cy="766.99" r="11.76"/><circle class="cls-6" cx="1078.62" cy="730.14" r="11.76"/><circle class="cls-6" cx="1023.75" cy="876.41" r="11.76"/></g><g id="Cover"><g id="mountains"><path class="cls-15" d="M1142,896H749.13l151.7-200.79L932,654.07a16.68,16.68,0,0,1,23.52,0l32.38,42Z"/><path class="cls-16" d="M1195.62,919.26l125.31-242a16.68,16.68,0,0,1,23.52,0l148.18,242Z"/><path class="cls-16" d="M987.76,859.8l182.81-242a16.69,16.69,0,0,1,23.53,0l63.22,39.91L1380.61,859.8Z"/><path class="cls-17" d="M357.22,954.65l106.13-242a16.69,16.69,0,0,1,23.53,0l109.84,242Z"/><polygon class="cls-18" points="347.33 971.47 426.16 971.47 465.33 939.91 417.04 871.37 439.08 803.2 471.33 708.27 463.36 712.68 347.33 971.47"/><path class="cls-19" d="M639.41,904.55l182.82-242a16.68,16.68,0,0,1,23.52,0l186.51,242Z"/><polygon class="cls-20" points="678.07 844.27 783.49 844.27 800.41 829.63 822.55 740.44 843.15 657.74 826.16 657.74 678.07 844.27"/><path class="cls-18" d="M497.26,878.25,617.91,740.1l62.16-103.82a16.69,16.69,0,0,1,23.53,0l45.74,87,140.77,155Z"/><polygon class="cls-21" points="497.26 878.25 602.68 878.25 619.6 863.6 623.82 759.46 662.34 691.71 680.07 636.28 616.67 738.72 497.26 878.25"/><path class="cls-21" d="M989.1,856.68h105.43L1073,838l87-107.44a21.7,21.7,0,0,0,1.56-11.91l-6.66-43.81a20,20,0,0,1,.73-9.16l16.29-50.93Z"/><path class="cls-21" d="M1153.17,922.17l105.32-4.61L1236.2,899.8l3-53.13c1.46-3.81,18.62-47.25,17.83-51.26l43.31-63c-.6-3,4.54-9.12,5.35-12.11l19.54-47.86Z"/></g><g id="cloudes"><circle class="cls-22" cx="1190.98" cy="558.44" r="34.91"/><circle class="cls-22" cx="1225.89" cy="550.19" r="34.91"/><circle class="cls-22" cx="1264.52" cy="558.44" r="26.59"/><circle class="cls-22" cx="1153.07" cy="565.98" r="26.59"/><circle class="cls-23" cx="998.57" cy="626.59" r="18.15"/><circle class="cls-23" cx="1016.72" cy="622.3" r="18.15"/><circle class="cls-23" cx="1036.8" cy="626.59" r="13.82"/><circle class="cls-23" cx="978.87" cy="630.5" r="13.82"/><circle class="cls-22" cx="599.9" cy="594.74" r="37.69"/><circle class="cls-22" cx="624.92" cy="584.62" r="42.79"/><ellipse class="cls-22" cx="662.01" cy="584.62" rx="23.8" ry="25.51"/><ellipse class="cls-22" cx="671.15" cy="604.85" rx="25.51" ry="23.8"/><g class="cls-24"><ellipse class="cls-25" cx="564.99" cy="609.52" rx="34.92" ry="20.53"/></g></g><g id="back_hedge" data-name="back hedge"><rect class="cls-26" x="1092.01" y="820.65" width="36.68" height="42.33" rx="18.34"/><rect class="cls-26" x="779.02" y="803.1" width="36.68" height="42.33" rx="18.34"/><rect class="cls-26" x="609.03" y="810.06" width="36.68" height="42.33" rx="18.34"/><rect class="cls-26" x="338.03" y="862.06" width="36.68" height="42.33" rx="18.34"/><rect class="cls-26" x="312.03" y="870.06" width="36.68" height="42.33" rx="18.34"/><rect class="cls-26" x="287.03" y="880.06" width="36.68" height="42.33" rx="18.34"/><rect class="cls-26" x="1147.5" y="813.98" width="36.68" height="42.33" rx="18.34"/><rect class="cls-26" x="1143.96" y="824.28" width="36.68" height="42.33" rx="18.34"/><rect class="cls-26" x="1060.6" y="827.9" width="36.68" height="42.33" rx="18.34"/><rect class="cls-26" x="987.88" y="821.54" width="36.68" height="42.33" rx="18.34"/><rect class="cls-26" x="1016.91" y="827.9" width="36.68" height="42.33" rx="18.34"/><rect class="cls-26" x="631.67" y="810.06" width="36.68" height="42.33" rx="18.34"/><rect class="cls-26" x="460.36" y="859.7" width="36.68" height="42.33" rx="18.34"/><rect class="cls-26" x="578.23" y="818.25" width="36.68" height="42.33" rx="18.34"/><rect class="cls-26" x="551.94" y="825.93" width="36.68" height="42.33" rx="18.34"/><rect class="cls-26" x="750.02" y="812.77" width="36.68" height="42.33" rx="18.34"/><rect class="cls-26" x="1116.18" y="835.15" width="36.68" height="42.33" rx="18.34"/></g><g id="land"><path class="cls-27" d="M1495.47,961.86c0,52.44-82.83,47.88-227.43,47.88s-261.81-42.51-261.81-94.94,146.6-87.19,289.33-110.32c85-13.78,199.59-7.14,199.91,22C1495.83,859.58,1495.47,916.28,1495.47,961.86Z"/><ellipse class="cls-28" cx="1015.54" cy="934.35" rx="261.82" ry="94.94"/><path class="cls-29" d="M970.48,933c0,52.43-246.21,168.38-390.81,168.38s-514.8,10.74-514.8-41.69C64.87,908.44,564.06,838,708.66,838S970.48,880.55,970.48,933Z"/><path class="cls-30" d="M1542.8,1146.14,164.71,1140,19.78,1106.27-37.8,1140s408-121.2,484.28-148.35C529.66,962,982,870.9,1167.36,870.9s333.11,6.72,374.14,48.46l.46,79.81Z"/><path class="cls-31" d="M1543.39,901.3l-.21,85,0,18.47-.34,141.38L164.71,1140H-18.08C107.26,1034.4,647.83,1011.4,815,989.18c99.33-13.21,262.68-6.48,340.65-5.55,5.46.06,10.5.1,15.08.1a365.79,365.79,0,0,0,44-2.75C1342.51,965.47,1456.71,890,1543.39,901.3Z"/></g><g class="cls-32"><rect class="cls-33" x="706.3" y="811.35" width="13.26" height="70.74" rx="6.63"/><path class="cls-33" d="M699.08,846.67c-5.56,0-8.4-4.53-8.4-9.67v-9.39c0-.35,0-6.7,0-7.05a1.89,1.89,0,0,0-3.4-1.34,14,14,0,0,0-2.76,8.39v10.67a14.43,14.43,0,0,0,14.38,14.39h10.65c2.71,0,7.73-.66,7.73-3.32s-6.21-2.69-8.08-2.68"/><path class="cls-33" d="M728.92,834.08c5.55,0,8.4-4.53,8.4-9.67V815c0-.35,0-6.7,0-7a1.89,1.89,0,0,1,3.4-1.34,14,14,0,0,1,2.76,8.39v10.67a14.43,14.43,0,0,1-14.38,14.39H718.41c-2.71,0-7.73-.67-7.73-3.32s6.21-2.69,8.09-2.68"/><rect class="cls-34" x="681.81" y="746.96" width="64.11" height="79.6" rx="26.54"/><rect class="cls-34" x="671.95" y="795.82" width="34.31" height="42" rx="14.1"/><rect class="cls-34" x="724.49" y="786.36" width="34.31" height="42" rx="14.1"/><ellipse class="cls-35" cx="713.64" cy="879.52" rx="43.71" ry="3.89"/></g><rect class="cls-36" x="7.91" y="1037.49" width="35.92" height="191.55" rx="17.96"/><path class="cls-36" d="M69.16,1099c15,0,22.74-12.25,22.74-26.18v-25.41c0-1,0-18.15-.1-19.09a5.13,5.13,0,0,1,9.22-3.63,38,38,0,0,1,7.48,22.72v28.88a39.07,39.07,0,0,1-38.95,39H40.72c-7.34,0-20.94-1.8-20.94-9,0-7,16.82-7.29,21.89-7.26"/><rect class="cls-37" x="-58.39" y="863.11" width="173.59" height="123.84" rx="54.46"/><rect class="cls-37" x="-18.08" y="948.92" width="173.59" height="123.84" rx="54.46"/><rect class="cls-38" x="-50.45" y="1000.24" width="92.9" height="113.72" rx="38.18"/><rect class="cls-39" x="57.18" y="1021.29" width="92.9" height="62.24" rx="28.25"/><g class="cls-40"><rect class="cls-41" x="938.84" y="825.58" width="7.91" height="42.19" rx="3.96" transform="translate(1885.6 1693.34) rotate(-180)"/><path class="cls-41" d="M951.06,846.64c3.31,0,5-2.7,5-5.77v-5.6c0-.21,0-4,0-4.2a1.13,1.13,0,0,1,2-.8,8.34,8.34,0,0,1,1.64,5v6.36a8.6,8.6,0,0,1-8.58,8.58H944.8c-1.62,0-4.62-.39-4.62-2s3.71-1.6,4.83-1.59"/><path class="cls-41" d="M933.26,839.13c-3.31,0-5-2.7-5-5.77v-5.6c0-.21,0-4,0-4.2a1.13,1.13,0,0,0-2-.8,8.34,8.34,0,0,0-1.64,5v6.37a8.61,8.61,0,0,0,8.58,8.58h6.35c1.61,0,4.61-.4,4.61-2s-3.71-1.61-4.82-1.6"/><rect class="cls-34" x="915.44" y="810.67" width="20.46" height="25.05" rx="8.41" transform="translate(1851.34 1646.38) rotate(-180)"/><rect class="cls-34" x="923.12" y="787.17" width="38.24" height="47.47" rx="15.83" transform="translate(1884.48 1621.81) rotate(-180)"/><rect class="cls-34" x="946.77" y="816.31" width="20.46" height="25.05" rx="8.41" transform="translate(1914.01 1657.67) rotate(-180)"/><ellipse class="cls-35" cx="942.37" cy="866.23" rx="26.07" ry="2.32"/></g><g class="cls-3"><rect class="cls-41" x="1041.27" y="817.57" width="7.91" height="42.19" rx="3.96" transform="translate(2090.45 1677.33) rotate(180)"/><path class="cls-41" d="M1053.48,838.63c3.32,0,5-2.7,5-5.77v-5.6c0-.21,0-4,0-4.2a1.13,1.13,0,0,1,2-.8,8.35,8.35,0,0,1,1.65,5v6.37a8.6,8.6,0,0,1-8.58,8.58h-6.35c-1.62,0-4.61-.4-4.61-2s3.7-1.61,4.82-1.6"/><path class="cls-41" d="M1035.69,831.12c-3.32,0-5-2.7-5-5.77v-5.59c0-.21,0-4,0-4.21a1.13,1.13,0,0,0-2-.8,8.38,8.38,0,0,0-1.65,5v6.36a8.6,8.6,0,0,0,8.58,8.58H1042c1.62,0,4.61-.4,4.61-2s-3.7-1.61-4.82-1.6"/><rect class="cls-34" x="1017.86" y="802.66" width="20.46" height="25.05" rx="8.41" transform="translate(2056.19 1630.37) rotate(-180)"/><rect class="cls-34" x="1025.54" y="779.16" width="38.24" height="47.47" rx="15.83" transform="translate(2089.33 1605.79) rotate(-180)"/><rect class="cls-34" x="1049.2" y="808.3" width="20.46" height="25.05" rx="8.41" transform="translate(2118.86 1641.66) rotate(-180)"/><ellipse class="cls-35" cx="1044.8" cy="858.22" rx="26.07" ry="2.32"/></g><g id="co2"><ellipse class="cls-35" cx="990.36" cy="870.99" rx="2.23" ry="25.03" transform="translate(82.41 1827.59) rotate(-87.83)"/><path class="cls-42" d="M977.48,849.41c-5.5-.17-6.56,4.11-6.88,14.41H970c0,.41-.82.06-.79.46-.38-1.12,0-1.5,0-2.74l0-.53c.26-8.29,1-13.57,8.27-13.35Z"/><rect class="cls-43" x="968.25" y="859.69" width="3.05" height="5.45" rx="1.28" transform="translate(27.31 -29.76) rotate(1.78)"/><path class="cls-42" d="M1009.8,856.37c-6.59.19-11.64,5.68-20.42,5.41s-11.65-3-11.52-7.41,15.61-5.63,24.39-5.35S1014.16,856.24,1009.8,856.37Z"/><path class="cls-42" d="M986,869.19l-1.5-.49c-.19.15-.53-.6-.61-1l-1.41-4.39a1.1,1.1,0,0,1,.19-.94l1.89-1.2c.22-.21.47,0,.5.49l.92,5.36A8,8,0,0,1,986,869.19Z"/><path class="cls-42" d="M1000.44,868.79l-1.61.25c-.23,0-.47-.24-.54-.61l.31-7.22a1.5,1.5,0,0,0-.1-.78,13.42,13.42,0,0,1,0-4.63l1.41,2.09c.28-.07,2.59.57,2.61,1l-1.74,9.24C1000.78,868.49,1000.64,868.76,1000.44,868.79Z"/><path class="cls-44" d="M983.44,863.25l-.9,0c-.74,0-1.31-1.23-1.27-2.68l0-1.08c0-1.45.68-2.62,1.43-2.59l1.17,0c.75,0,1.32,1.23,1.27,2.68l0,.54C985.13,863.68,984.33,863.28,983.44,863.25Z"/><path class="cls-42" d="M987.73,870.47c0,.2,0,.37-.18.36l-3.5-.11a.37.37,0,0,1-.35-.38l.06-1.84a.37.37,0,0,1,.37-.36l1.48.05C986.16,868.21,987.74,870.15,987.73,870.47Z"/><path class="cls-42" d="M1002.94,870.65c0,.2,0,.37-.19.36l-3.48-.11a.37.37,0,0,1-.36-.37l.06-1.85a.37.37,0,0,1,.38-.35l1.48,0C1001.37,868.39,1003,870.33,1002.94,870.65Z"/><ellipse class="cls-43" cx="983.9" cy="861.5" rx="3.85" ry="4.73" transform="translate(92.2 1818.11) rotate(-88.22)"/><path class="cls-45" d="M1004.74,856.13h0a.17.17,0,0,0,0,.07l0,.34-7.11-.11-4.56-.07-3.51-.06-6.94-.11h-.43l-7.29-.11h-.09c.08-1.31.18-2.53.35-3.63a14.26,14.26,0,0,1,.43-2c.73-2.42,2.11-3.88,4.93-3.71l2.43.39c2.6.4,6.61,1,8.41,1.08.32,0,.73,0,1.19,0,3,0,8.54-.22,8.54-.22C1005.79,848.35,1005,853.21,1004.74,856.13Z"/><path class="cls-45" d="M979,868.34l-1.68-.14c-.24,0-.46-.21-.49-.58l-.83-7.49a.77.77,0,0,1,.37-.82l3.36-1c.28-.08.54.28.51.74l-.84,8.63C979.35,868,979.18,868.3,979,868.34Z"/><path class="cls-45" d="M995.81,868.86l-1.59-.07c-.23,0-.4-.32-.39-.7l.28-7.62c0-.39.2-.7.43-.71l3.17-.11c.28,0,.47.41.4.86l-1.86,7.8C996.19,868.64,996,868.87,995.81,868.86Z"/><path class="cls-45" d="M981.3,870.18c0,.2.06.37-.15.36l-3.52-.11a.35.35,0,0,1-.35-.37l.05-1.85a.37.37,0,0,1,.38-.35l1.48,0C979.73,867.92,981.31,869.86,981.3,870.18Z"/><path class="cls-45" d="M997.82,870.78c0,.2,0,.37-.18.36l-3.49-.11a.36.36,0,0,1-.36-.37l.06-1.85a.37.37,0,0,1,.38-.35l1.47,0C996.25,868.52,997.83,870.46,997.82,870.78Z"/><path class="cls-45" d="M1004.74,856.24h0v.2c-.07,2.3-2.12,3.73-4.91,4.6a32.1,32.1,0,0,1-7.12,1.19c-2,.14-3.83.16-5.35.15-.89,0-1.66,0-2.24,0-6.25-.2-9-1.66-9.89-4.14a5.9,5.9,0,0,1-.34-1.66l0-.46v-.57a4.55,4.55,0,0,1,1.36-3,9.78,9.78,0,0,1,2.86-2,17.26,17.26,0,0,1,3.37-1.22,27.73,27.73,0,0,1,7.58-.78c.87,0,1.73.09,2.56.18a28.44,28.44,0,0,1,3.8.73,17.4,17.4,0,0,1,5.35,2.32c1.81,1.24,2.91,2.74,3,4.34h0Z"/><path class="cls-46" d="M1011,850.29l.14-.18a1.31,1.31,0,0,1,1-.55,1,1,0,0,1,.61.2l.85.65a1,1,0,0,1,.39.79,1.4,1.4,0,0,1-.29.89l-.14.18Z"/><path class="cls-45" d="M1012.14,849.78a.74.74,0,0,1,.47.16l.85.65a1,1,0,0,1,.06,1.37l-2.24-1.72a1.12,1.12,0,0,1,.86-.46m0-.44h0a1.55,1.55,0,0,0-1.22.63l-.27.36.35.27,2.25,1.71.35.28.27-.36a1.42,1.42,0,0,0-.13-2l-.86-.65a1.19,1.19,0,0,0-.74-.24Z"/><rect class="cls-45" x="1006.49" y="848.35" width="6.37" height="8.27" rx="3.19" transform="translate(138.53 -141.13) rotate(8.58)"/><rect class="cls-45" x="1007.97" y="850.7" width="5.73" height="8.27" rx="2.86" transform="translate(-243.6 1277.82) rotate(-58.85)"/><circle class="cls-47" cx="1012.32" cy="852.02" r="0.57"/><path class="cls-46" d="M1006.06,851.42a1.41,1.41,0,0,1-.26-.9,1,1,0,0,1,.43-.78l.87-.61a1,1,0,0,1,.57-.18,1.37,1.37,0,0,1,1.07.59l.13.18-2.68,1.88Z"/><path class="cls-45" d="M1007.67,849.17a1.13,1.13,0,0,1,.89.5l-2.32,1.62a1,1,0,0,1,.11-1.36l.88-.62a.79.79,0,0,1,.44-.14m0-.44h0a1.2,1.2,0,0,0-.69.21l-.88.62a1.25,1.25,0,0,0-.52.94,1.63,1.63,0,0,0,.3,1l.26.37.36-.26,2.31-1.62.37-.26-.26-.37a1.54,1.54,0,0,0-1.25-.68Z"/><path class="cls-43" d="M1008.17,848.62c.09-.59.8-1,1.8-.82s1.4.7,1.31,1.29"/><path class="cls-43" d="M1009.91,848.87a1.38,1.38,0,0,1,2.67.4"/><path class="cls-43" d="M1008.2,848.62a2.55,2.55,0,0,1,1.56,2.16,2.8,2.8,0,0,0,.17-2.12"/><path class="cls-43" d="M1009.84,848.9s1,.61,1,1.34c0,0,.8-.88.57-1.45"/><circle class="cls-47" cx="1010.83" cy="851.96" r="0.57"/><path class="cls-46" d="M1014.46,857.38c-.11.76-1.4,1.19-2.86,1s-2.6-1.47-2.48-2.23,1.42-.73,2.89-.5S1014.57,856.63,1014.46,857.38Z"/><rect class="cls-43" x="1009.14" y="854.17" width="6.49" height="3.36" rx="1.6" transform="translate(139.06 -141.5) rotate(8.58)"/><path class="cls-46" d="M1011.26,855.43a1.08,1.08,0,0,1,.19-2.1h.12a.84.84,0,0,1,.56.34,1.11,1.11,0,0,1,.19.84,1,1,0,0,1-.94.91Z"/><path class="cls-43" d="M1011.45,853.57h.09a.75.75,0,0,1,.54.9.78.78,0,0,1-.7.71h-.09a.76.76,0,0,1-.54-.91.78.78,0,0,1,.7-.71m0-.48h0a1.27,1.27,0,0,0-1.18,1.12,1.33,1.33,0,0,0,.18.92,1.06,1.06,0,0,0,.77.53l.16,0a1.28,1.28,0,0,0,1.18-1.13,1.23,1.23,0,0,0-.95-1.45Z"/><path class="cls-46" d="M1014.29,856a.84.84,0,0,1-.56-.34,1.16,1.16,0,0,1-.19-.84,1,1,0,0,1,.94-.91h.12a1,1,0,0,1,.75,1.18,1,1,0,0,1-.94.92Z"/><path class="cls-43" d="M1014.48,854.12h.09a.76.76,0,0,1,.54.91.78.78,0,0,1-.7.71h-.09a.75.75,0,0,1-.54-.9.78.78,0,0,1,.7-.71m0-.49h0a1.28,1.28,0,0,0-1.18,1.13,1.35,1.35,0,0,0,.17.91,1.1,1.1,0,0,0,.78.54h.16a1.27,1.27,0,0,0,1.18-1.12,1.23,1.23,0,0,0-1-1.45l-.16,0Z"/></g><path class="cls-48" d="M1004.74,856.24h0v.2c-.07,2.3-2.12,3.73-4.91,4.6a4,4,0,0,1-1.64-3.31v0a1.57,1.57,0,0,0-.6-1.27,1.12,1.12,0,0,0-.33-.2,3.86,3.86,0,0,1-2.26-3.65,4.06,4.06,0,0,1,1.39-3.12,3.07,3.07,0,0,1,2-.75,3.55,3.55,0,0,1,3.34,3.07,5.29,5.29,0,0,1,.07.8v0a1.56,1.56,0,0,0,.93,1.47,3.64,3.64,0,0,1,2,2.13Z"/><path class="cls-48" d="M993.22,856.19l-.19.18a2.93,2.93,0,0,1-3.51-.06,3.28,3.28,0,0,1-.46-.39l-.16-.17a1.21,1.21,0,0,0-1-.38h-.34c-2.82,0-5.1-2.59-5.1-5.79a2.09,2.09,0,0,1,0-.25,6.18,6.18,0,0,1,.46-2.17c2.6.4,6.61,1,8.41,1.08.32,0,.73,0,1.19,0,0,.15,0,.31.08.46a7.92,7.92,0,0,1,0,.85,5.79,5.79,0,0,1-.12,1.19,1.33,1.33,0,0,0,.38,1.2l.05,0A3,3,0,0,1,993.22,856.19Z"/><path class="cls-48" d="M982.93,857.32c0,1.35-1.42,2.44-3.18,2.44a3.34,3.34,0,0,1-2.92-1.47,1.39,1.39,0,0,0-.65-.62,3.31,3.31,0,0,1-1.29-1.13l0-.46h-.09c.08-1.31.18-2.53.35-3.63a14.26,14.26,0,0,1,.43-2,2.65,2.65,0,0,1,3.53.07,4.4,4.4,0,0,1,1.37,3.32h0a1.36,1.36,0,0,0,.79,1.28,2.88,2.88,0,0,1,1.34,1A2,2,0,0,1,982.93,857.32Z"/><path class="cls-48" d="M992.71,862.23c-2,.14-3.83.16-5.35.15a2.81,2.81,0,0,1,.28-3.45,3,3,0,0,1,4.16.27A3.2,3.2,0,0,1,992.71,862.23Z"/><polygon class="cls-49" points="858.49 721.55 790.12 721.55 790.12 679.36 869.2 679.36 858.49 721.55"/><g id="UFO"><path class="cls-43" d="M460.66,838.07l.23.06a.54.54,0,0,1,.39.6l-.14,1.21a.41.41,0,0,1-.51.38l-.23-.06a.54.54,0,0,1-.39-.6l.14-1.21A.41.41,0,0,1,460.66,838.07Z"/><path class="cls-42" d="M445.51,838.42c2.46.46,4.55-1.36,7.81-.54s4.23,2.17,4,3.92-6,1-9.29.2S443.88,838.12,445.51,838.42Z"/><path class="cls-42" d="M454.85,835.15l.54.32c.08,0,.18.28.19.43l.37,1.89a.42.42,0,0,1-.11.36l-.75.34c-.08.07-.17,0-.16-.24l-.15-2.24A3.69,3.69,0,0,1,454.85,835.15Z"/><path class="cls-42" d="M449.45,834.15l.61,0c.09,0,.17.13.18.29l-.38,2.89a.74.74,0,0,0,0,.33,5.75,5.75,0,0,1-.17,1.87l-.45-1c-.1,0-.94-.44-.93-.62l1-3.6C449.31,834.24,449.38,834.15,449.45,834.15Z"/><path class="cls-44" d="M455.58,837.76l.34.08c.27.07.44.6.37,1.18l-.05.44c-.07.58-.35,1-.63.93l-.44-.11c-.27-.07-.44-.6-.37-1.18l0-.22C455,837.45,455.25,837.67,455.58,837.76Z"/><path class="cls-42" d="M454.25,834.49c0-.08,0-.15.08-.13l1.3.33a.17.17,0,0,1,.12.18l-.09.74a.13.13,0,0,1-.16.11l-.54-.13C454.75,835.54,454.24,834.62,454.25,834.49Z"/><path class="cls-42" d="M448.59,833.2c0-.08,0-.15.08-.13l1.3.32a.17.17,0,0,1,.11.18l-.08.74a.13.13,0,0,1-.16.12l-.55-.14A2.49,2.49,0,0,1,448.59,833.2Z"/><ellipse class="cls-43" cx="455.35" cy="838.43" rx="1.52" ry="1.85" transform="translate(-498.16 804.76) rotate(-59.47)"/><path class="cls-43" d="M456.31,836.74h0a.3.3,0,0,1,.22.33l-.07.55a.22.22,0,0,1-.28.21h0a.31.31,0,0,1-.22-.34L456,837A.23.23,0,0,1,456.31,836.74Z"/><path class="cls-43" d="M455.05,836.43h0a.35.35,0,0,1,.26.39l0,.27a.27.27,0,0,1-.33.25h0a.36.36,0,0,1-.26-.39l0-.28A.27.27,0,0,1,455.05,836.43Z"/><path class="cls-45" d="M457.44,836.06l.62.19c.09,0,.16.12.16.28l0,3.09c0,.16-.07.29-.17.3l-1.28.14c-.11,0-.19-.16-.17-.34l.63-3.43C457.28,836.16,457.35,836.06,457.44,836.06Z"/><path class="cls-45" d="M451.18,834.49l.59.16c.08,0,.14.16.12.32l-.38,3c0,.16-.1.27-.19.26l-1.19-.21c-.1,0-.16-.21-.11-.38l1-3C451,834.55,451.11,834.47,451.18,834.49Z"/><path class="cls-45" d="M456.63,835.13c0-.08,0-.16.07-.14l1.31.33a.16.16,0,0,1,.12.18l-.09.74a.13.13,0,0,1-.15.12l-.55-.14A2.61,2.61,0,0,1,456.63,835.13Z"/><path class="cls-45" d="M450.5,833.56c0-.08,0-.15.08-.13l1.3.32a.17.17,0,0,1,.12.18l-.09.74a.13.13,0,0,1-.15.12l-.55-.14C451,834.6,450.49,833.68,450.5,833.56Z"/><path class="cls-45" d="M447.4,838.8c.3-2.53,5.87-1.22,7.53-.81,3.06.77,3.76,1.94,3.57,3.59s-2.85,2.36-5.91,1.59S447.2,840.45,447.4,838.8Z"/><path class="cls-45" d="M445.76,838.39l.07,0a1.42,1.42,0,0,1,.84,1.62l-.19.82a1,1,0,0,1-1.4.76l-.08,0a1.43,1.43,0,0,1-.84-1.62l.2-.82A1,1,0,0,1,445.76,838.39Z"/><path class="cls-45" d="M443.83,837.81h0a1,1,0,0,1,1.5-.07l.76.7a1.31,1.31,0,0,1,.22,1.67h0a1,1,0,0,1-1.5.08l-.76-.71A1.3,1.3,0,0,1,443.83,837.81Z"/><path class="cls-46" d="M443.81,837.64c.07-.3.57-.37,1.1-.16s.92.8.85,1.1-.56.18-1.1,0S443.74,837.93,443.81,837.64Z"/><path class="cls-43" d="M444.06,837.53l1.24.48a.71.71,0,0,1,.42.81l0,.12a.52.52,0,0,1-.69.38l-1.25-.48a.7.7,0,0,1-.41-.81l0-.12A.52.52,0,0,1,444.06,837.53Z"/><path class="cls-46" d="M443.62,839a.45.45,0,0,1-.23-.52.37.37,0,0,1,.34-.31h0l.09,0a.43.43,0,0,1,.22.52.37.37,0,0,1-.33.31Z"/><path class="cls-43" d="M443.73,838.3l.07,0a.34.34,0,0,1,.17.41.26.26,0,0,1-.24.23h-.08a.36.36,0,0,1-.17-.41.29.29,0,0,1,.25-.24m0-.19h0a.46.46,0,0,0-.43.39.55.55,0,0,0,.28.63l.15,0a.47.47,0,0,0,.43-.38.55.55,0,0,0-.29-.63.35.35,0,0,0-.14,0Z"/><circle class="cls-50" cx="410.58" cy="814.79" r="1.25"/><circle class="cls-50" cx="464.8" cy="794.32" r="1.25"/><path class="cls-51" d="M452.55,802.27l-27.22,10.28c-3.57,1.35-5.71-.89-5-3.6l1.72-9.78a5.82,5.82,0,0,1,3.68-3.47l15.53-5.86a5.75,5.75,0,0,1,5.09.19l8,6.18C456.66,797.78,456.09,800.93,452.55,802.27Z"/><rect class="cls-51" x="426.62" y="800.82" width="25.02" height="10.41" rx="5.21" transform="translate(-254.39 204.75) rotate(-20.49)"/><rect class="cls-52" x="408.56" y="801.49" width="58.12" height="6.45" rx="3.23" transform="translate(-256.05 206.46) rotate(-20.69)"/><circle class="cls-50" cx="414.75" cy="813.22" r="1.25"/><circle class="cls-50" cx="418.93" cy="811.64" r="1.25"/><circle class="cls-50" cx="423.1" cy="810.07" r="1.25"/><circle class="cls-50" cx="427.27" cy="808.49" r="1.25"/><circle class="cls-50" cx="431.44" cy="806.92" r="1.25"/><circle class="cls-50" cx="435.61" cy="805.35" r="1.25"/><circle class="cls-50" cx="439.78" cy="803.77" r="1.25"/><circle class="cls-50" cx="443.95" cy="802.2" r="1.25"/><circle class="cls-50" cx="448.12" cy="800.62" r="1.25"/><circle class="cls-50" cx="452.29" cy="799.05" r="1.25"/><circle class="cls-50" cx="456.46" cy="797.47" r="1.25"/><circle class="cls-50" cx="460.63" cy="795.9" r="1.25"/><polygon class="cls-53" points="471.76 847.66 441.3 859.11 433.9 816.06 450.3 809.99 471.76 847.66"/></g><g id="rocks"><path class="cls-54" d="M1195.72,1086.35c0-7.41,9.77-13.41,21.82-13.41s21.82,6,21.82,13.41"/></g><g id="house"><polygon class="cls-55" points="1543.18 986.29 1543.14 1004.76 1279.34 1014.34 1155.65 983.63 1055.75 958.82 1050.6 944.11 1214.77 980.98 1237.3 986.04 1519.13 976.42 1543.18 986.29"/><polygon class="cls-56" points="1104.83 767.7 1065.12 770.27 1082.5 693.37 1135.7 614.15 1189.33 664.05 1104.83 767.7"/><polygon class="cls-57" points="1237.34 985.39 1082.88 951.03 1082.88 752.76 1094.69 694.25 1148.29 619.69 1218.6 705.13 1238.48 752.76 1237.34 985.39"/><polygon class="cls-58" points="1096.35 761.08 1108.15 702.57 1158.66 632.3 1148.29 619.69 1094.69 694.25 1082.88 752.76 1082.88 951.03 1096.35 954.02 1096.35 761.08"/><polygon class="cls-59" points="1196.73 976.9 1124.63 961.06 1124.63 870.46 1196.73 873.74 1196.73 976.9"/><polygon class="cls-60" points="1265.18 988.86 1249.56 982.1 1237.29 970.52 1236.81 759.16 1394.24 765.8 1392.58 499.62 1519.14 499.62 1519.14 976.41 1265.18 988.86"/><polygon class="cls-57" points="1422.97 615.79 1391.61 618.91 1392.58 499.62 1423.2 504.12 1423.1 553.05 1400.17 586.37 1423.02 590.03 1422.97 615.79"/><polygon class="cls-61" points="1353.27 846.18 1353.27 890.58 1299.29 893.5 1299.29 848.57 1344.08 846.59 1353.27 846.18"/><polygon class="cls-62" points="1344.08 846.59 1344.08 886.01 1299.29 888.64 1299.29 848.57 1344.08 846.59"/><polygon class="cls-61" points="1447.87 886.2 1394.77 888.92 1394.62 843.99 1447.87 841.36 1447.87 886.2"/><polygon class="cls-62" points="1394.62 843.99 1440.21 841.74 1440.21 881.26 1394.75 884.32 1394.62 843.99"/><polygon class="cls-56" points="1499.17 777.47 1220.18 787.64 1210.65 710.14 1135.7 614.15 1428.54 609.81 1489.03 703.71 1499.17 777.47"/><polygon class="cls-63" points="1499.17 777.48 1220.18 787.65 1215.61 750.46 1214.08 737.99 1210.65 710.14 1489.03 703.71 1492.64 730.01 1494.36 742.49 1499.17 777.48"/><polygon class="cls-64" points="1434.9 622.23 1428.54 609.81 1135.7 614.15 1144.24 626.54 1434.9 622.23"/><path class="cls-62" d="M1128.08,785c0-26.69,11-51.26,28.54-51.26s24,25.23,24,51.92"/><polygon class="cls-65" points="1126.14 784.46 1182.6 790.8 1182.6 783.92 1126.14 777.58 1126.14 784.46"/><polygon class="cls-57" points="1053.53 942 1054.99 818.02 1122.73 822.97 1122.73 958.43 1053.53 942"/><path class="cls-25" d="M1057.6,820.87l62.48,4.56V955.08l-63.88-15.17,1.4-119m-5.23-5.69-1.51,128.91,74.52,17.69V820.51l-73-5.33Z"/><line class="cls-66" x1="1054.25" y1="939.45" x2="1122.3" y2="827.49"/><line class="cls-66" x1="1121.2" y1="957.26" x2="1055.35" y2="819.22"/><rect class="cls-58" x="1123.35" y="909.06" width="5.08" height="52.3" transform="translate(-5.74 6.96) rotate(-0.35)"/><polygon class="cls-58" points="1199.36 975.22 1200.44 852.87 1266.61 857.81 1266.62 989.71 1199.36 975.22"/><path class="cls-44" d="M1203,855.69l61,4.55V986.47l-62-13.37,1-117.41m-5.19-5.64-1.12,127.28L1269.24,993l0-137.58-71.38-5.33Z"/><line class="cls-67" x1="1264.36" y1="860.57" x2="1201.05" y2="974.44"/><line class="cls-67" x1="1264.08" y1="987.09" x2="1205.88" y2="858.66"/><line class="cls-68" x1="1271.61" y1="992.96" x2="1271.51" y2="855.44"/><g id="LABCOAT"><polygon class="cls-69" points="1323.96 642.53 1304.32 646.93 1300.15 611.39 1312.41 611.56 1323.96 642.53"/><rect class="cls-70" x="1297.9" y="611.27" width="6.63" height="29.51" rx="3.31"/><rect class="cls-25" x="1296.61" y="637.15" width="9.02" height="3.91"/><rect class="cls-70" x="1308.65" y="617.32" width="4.66" height="4.49" transform="translate(-102.97 298.2) rotate(-12.49)"/><rect class="cls-70" x="1307.79" y="616.3" width="5.16" height="1.52" transform="translate(-101.22 292.63) rotate(-12.27)"/></g><g id="Layer_14" data-name="Layer 14"><path class="cls-71" d="M1360.75,607.2a24.24,24.24,0,0,1-.17,2.85c0,.42-.11.83-.17,1.25h0c-.13.72,1,.7.77,1.38a.4.4,0,0,1,0,.15c-.43.2-2.14,1.13-2.61,1.3a21.72,21.72,0,0,1-3.2,1,28,28,0,0,1-6,.64,26.09,26.09,0,0,1-9-1.51,5.78,5.78,0,0,1-3.68-4.54h0c0-.17-.05-.33-.06-.49-.06-.65-.08-1.31-.08-2s0-1.1.06-1.64.08-.89.13-1.33l.06-.46a.29.29,0,0,1,0-.09,21.58,21.58,0,0,1,.56-2.75l.09-.29.18-.58c.17-.52.35-1,.55-1.52,0-.12.1-.26.15-.37l.06-.15.17-.37a18.52,18.52,0,0,1,1.17-2.11c.2-.32.41-.61.63-.9l.2-.24a10.45,10.45,0,0,1,7.76-4.42h.33c4.23,0,8,3.1,10.11,7.78A22.57,22.57,0,0,1,1360.75,607.2Z"/><path class="cls-71" d="M1353.64,576.12l3.74,4.54-6.43,4.56,1.46-8.72A.7.7,0,0,1,1353.64,576.12Z"/><path class="cls-71" d="M1362.94,583.51a6.73,6.73,0,0,0-13.14,2.88l-4.49,10.86a3.69,3.69,0,0,0,2,4.8h0a3.41,3.41,0,0,0,.67.2l-1.16,3.45a4.66,4.66,0,0,0,2.91,5.89l1.22.41c2.42.82,9.45,2.83,10.27.41,0,0,.89-8.07.89-13.37,0-3.38-.49-7.17-1.61-8.38A6.74,6.74,0,0,0,1362.94,583.51Z"/><path class="cls-72" d="M1347.89,597.38c-.15,1.12-3.47,1.64-7.43,1.15q-1.12-.15-2.13-.36l.06-.15.17-.37a18.52,18.52,0,0,1,1.17-2.11c.2-.32.41-.61.63-.9l.2-.24.41.05C1344.93,594.94,1348,596.25,1347.89,597.38Z"/><path class="cls-72" d="M1343.15,608.44c-.13,1-3,1.55-6.48,1.25h0c0-.17-.05-.33-.06-.49-.06-.65-.08-1.31-.08-2s0-1.1.06-1.64C1340.37,606.07,1343.29,607.35,1343.15,608.44Z"/><path class="cls-72" d="M1347.54,603.16c-.14,1.14-3.47,1.65-7.42,1.16a23,23,0,0,1-3.4-.67l.06-.46a23.4,23.4,0,0,1,.58-2.84l.09-.29a22.16,22.16,0,0,1,3.16.18C1344.58,600.73,1347.68,602,1347.54,603.16Z"/><path class="cls-71" d="M1338.72,613.38a14.75,14.75,0,0,1-7.06.43,12.07,12.07,0,0,1-5-2.18c-.18-.13-.37-.28-.55-.43a12.81,12.81,0,0,1-1.79-1.83,12.4,12.4,0,0,1-1.18-1.81,12.59,12.59,0,0,1-1.12-2.86,14.29,14.29,0,0,1-.48-2.9c0-.19,0-.36,0-.5s0-.45,0-.58a1.62,1.62,0,1,1,3.23.14c0,.09,0,.31,0,.64,0,.07,0,.13,0,.22a11.18,11.18,0,0,0,.28,1.84,10.33,10.33,0,0,0,1.12,2.82,9.58,9.58,0,0,0,.83,1.16,8.13,8.13,0,0,0,1.17,1.18,9.39,9.39,0,0,0,1,.72,10.81,10.81,0,0,0,8.43.9,1.61,1.61,0,1,1,1.07,3Z"/><path class="cls-71" d="M1361.64,576l-5,3.18,3.78,6.55,2.22-9A.69.69,0,0,0,1361.64,576Z"/><path class="cls-72" d="M1321.56,600.72c0,.13,0,.32,0,.57s0,.32,0,.51a2.56,2.56,0,0,0,1.42.54,2.38,2.38,0,0,0,1.82-.62,1.77,1.77,0,0,1,0-.22c0-.33,0-.55,0-.64a1.62,1.62,0,1,0-3.23-.14Z"/><ellipse class="cls-71" cx="1360.49" cy="611.38" rx="1.84" ry="1.6"/><path class="cls-72" d="M1326.21,606.38a6.25,6.25,0,0,1-1,.56,6.85,6.85,0,0,1-2.09.62,12.59,12.59,0,0,1-1.12-2.86,3.77,3.77,0,0,0,2-.34,3.73,3.73,0,0,0,1.07-.8A10.33,10.33,0,0,0,1326.21,606.38Z"/><path class="cls-72" d="M1329.22,609.44a6.05,6.05,0,0,1-.85,1,6.48,6.48,0,0,1-1.68,1.17c-.18-.13-.37-.28-.55-.43a12.81,12.81,0,0,1-1.79-1.83,3.85,3.85,0,0,0,2-1,4.15,4.15,0,0,0,.67-.85,8.13,8.13,0,0,0,1.17,1.18A9.39,9.39,0,0,0,1329.22,609.44Z"/></g><g id="Layer_16" data-name="Layer 16"><polygon class="cls-73" points="1227.8 805.4 1239.2 938.58 1080.51 915.87 1227.8 805.4"/><path class="cls-54" d="M1218.58,922.87s-.51,6.45-4.38,5.87c-28.84-4.28-141.7-18.06-141.33-18.18,19.22-6.52,14.94-123.09,14.94-123.09l140,17.93s.35,85.72.35,118C1228.15,926,1218.58,922.87,1218.58,922.87Z"/><g class="cls-24"><path class="cls-74" d="M1104.89,812.7a4.74,4.74,0,0,1-1.15.53,4.59,4.59,0,0,1-1.14.22,6.57,6.57,0,0,1-1.17,0,4.28,4.28,0,0,1-3.33-2.2,6.28,6.28,0,0,1-.76-2.17,10.38,10.38,0,0,1-.06-2.63,9.51,9.51,0,0,1,.67-2.8,5.64,5.64,0,0,1,1.27-1.92,4.34,4.34,0,0,1,1.67-1,4.6,4.6,0,0,1,1.88-.2,7.26,7.26,0,0,1,3.18,1.3l-.34,3.36a8.38,8.38,0,0,0-1.15-1.1,2.61,2.61,0,0,0-1.41-.55,2.45,2.45,0,0,0-1.42.29,3.09,3.09,0,0,0-1.16,1.14,4.65,4.65,0,0,0-.42,3.63,3.15,3.15,0,0,0,.82,1.37,2.2,2.2,0,0,0,1.33.62,3,3,0,0,0,1.19-.09,4.26,4.26,0,0,0,1-.39,7.2,7.2,0,0,0,.84-.56Z"/><path class="cls-74" d="M1116.05,808.5a9.45,9.45,0,0,1-.88,3.23,5.19,5.19,0,0,1-1.87,2.19,3.92,3.92,0,0,1-2.72.57,4.08,4.08,0,0,1-2.57-1.22,5.56,5.56,0,0,1-1.38-2.59,9.75,9.75,0,0,1-.21-3.25,9.4,9.4,0,0,1,.85-3.14,5.34,5.34,0,0,1,1.86-2.23,4,4,0,0,1,2.75-.63,4.22,4.22,0,0,1,2,.74,4.57,4.57,0,0,1,1.37,1.59A6.7,6.7,0,0,1,1116,806,10.3,10.3,0,0,1,1116.05,808.5Zm-2.61-.29a5.87,5.87,0,0,0,0-1.33,3.18,3.18,0,0,0-.32-1.08,2.11,2.11,0,0,0-.63-.75,1.92,1.92,0,0,0-2.63.37,4.2,4.2,0,0,0-.82,2.3,4.28,4.28,0,0,0,.35,2.42,1.87,1.87,0,0,0,1.52,1.09,1.8,1.8,0,0,0,1.24-.28,2.51,2.51,0,0,0,.87-1.08A5.05,5.05,0,0,0,1113.44,808.21Z"/><path class="cls-74" d="M1126.87,816.27l-2.56-.31.74-7.47-2.74,4.06-.2,0-1.89-4.58-.73,7.43-2.49-.29,1.27-12.81,2.32.24,2.13,5.12,3.1-4.56,2.32.25Z"/><path class="cls-74" d="M1135.41,817.32l-6.4-.79,1.27-13,6.29.68-.25,2.62-3.73-.41-.24,2.38,3.56.41-.25,2.62-3.56-.41-.28,2.77,3.84.46Z"/><path class="cls-74" d="M1150.16,819.15l-2.62-.33-.44-2.76-3.68-.45-1,2.58-2.62-.33,5-12.69,2.83.32Zm-3.42-5.45-.78-5-1.72,4.66Z"/><path class="cls-74" d="M1160.49,820.47l-2.27-.3-3.7-7.95-.71,7.39-2.53-.32,1.27-13.25,2.28.26,3.68,7.9.7-7.4,2.56.29Z"/><path class="cls-74" d="M1172,815.36a9.65,9.65,0,0,1-.79,3.28,7.12,7.12,0,0,1-1.31,1.89,3,3,0,0,1-2.66.8l-4.58-.59,1.28-13.4,3.52.41a6.21,6.21,0,0,1,1.35.29,4.27,4.27,0,0,1,1,.49,3.19,3.19,0,0,1,.72.63,3.79,3.79,0,0,1,.51.7,6.07,6.07,0,0,1,.64,1.43,8.57,8.57,0,0,1,.35,1.85A11.79,11.79,0,0,1,1172,815.36Zm-2.59-.5a6.58,6.58,0,0,0-.15-2.61,2.58,2.58,0,0,0-.83-1.34,2.43,2.43,0,0,0-1.1-.45l-1.09-.13-.76,8,1.09.14a2.31,2.31,0,0,0,1.81-.54C1168.88,817.45,1169.22,816.44,1169.37,814.86Z"/><path class="cls-74" d="M1184.73,822.66l-.49.21-.4.15-.54.16a7.11,7.11,0,0,1-1.19.17,5.68,5.68,0,0,1-1.23-.05,4.25,4.25,0,0,1-2.32-1.07,5.35,5.35,0,0,1-1.53-2.57,10.43,10.43,0,0,1-.3-4,12.75,12.75,0,0,1,.62-2.88,5.49,5.49,0,0,1,1.25-2.18,4.72,4.72,0,0,1,1.27-1,3.44,3.44,0,0,1,1.2-.37,5.87,5.87,0,0,1,1.25,0,5.75,5.75,0,0,1,1.83.49,16.93,16.93,0,0,1,1.53.91l-.3,3.24a6.67,6.67,0,0,0-1.14-1.06,3.36,3.36,0,0,0-1.57-.56,2.3,2.3,0,0,0-1.83.46,3.44,3.44,0,0,0-1.08,1.49,6.89,6.89,0,0,0-.43,1.78,5.84,5.84,0,0,0,.13,1.93,3.24,3.24,0,0,0,.77,1.51,2.2,2.2,0,0,0,1.42.72,3,3,0,0,0,1.06-.07l.15-1.61-1.16-.14.26-2.75,3.39.43Z"/><path class="cls-74" d="M1194.87,825l-2.75-.37-.44-2.53a12.87,12.87,0,0,0-.48-2.05,2,2,0,0,0-.5-.87,1.3,1.3,0,0,0-.7-.26l-.29,0-.49,5.36-2.56-.35,1.27-13.71,4.35.53a2.39,2.39,0,0,1,1.66.91,4.26,4.26,0,0,1,.82,1.82,6.78,6.78,0,0,1,.12,1.93,5.3,5.3,0,0,1-.41,1.73,3.46,3.46,0,0,1-.62,1,6.21,6.21,0,0,1-.68.54,3.4,3.4,0,0,1,.59,1,15.12,15.12,0,0,1,.53,2.25Zm-2.6-9.88a1.89,1.89,0,0,0-.27-1.38,1.81,1.81,0,0,0-1.22-.54l-.54-.06-.3,3.31.55.07a1.84,1.84,0,0,0,1.31-.17A1.73,1.73,0,0,0,1192.27,815.12Z"/><path class="cls-74" d="M1205.75,819.42a11,11,0,0,1-.88,3.52,5.6,5.6,0,0,1-1.87,2.38,3.73,3.73,0,0,1-2.72.6,4,4,0,0,1-2.57-1.36,6.3,6.3,0,0,1-1.38-2.84,11.61,11.61,0,0,1-.21-3.55,11.15,11.15,0,0,1,.85-3.42,5.68,5.68,0,0,1,1.86-2.42,3.75,3.75,0,0,1,2.75-.67,4,4,0,0,1,2.05.84,4.91,4.91,0,0,1,1.37,1.74,7.83,7.83,0,0,1,.69,2.4A11.68,11.68,0,0,1,1205.75,819.42Zm-2.61-.34a7,7,0,0,0,0-1.45,3.78,3.78,0,0,0-.32-1.18,2.31,2.31,0,0,0-.63-.83,1.82,1.82,0,0,0-.92-.39,1.77,1.77,0,0,0-1.71.78,4.86,4.86,0,0,0-.82,2.49,5.14,5.14,0,0,0,.35,2.66,1.94,1.94,0,0,0,1.52,1.2,1.7,1.7,0,0,0,1.25-.3,2.78,2.78,0,0,0,.86-1.16A5.93,5.93,0,0,0,1203.14,819.08Z"/><path class="cls-74" d="M1221.54,814.37l-5,13.81-1.48-.21-1.46-8.58-3,8-1.49-.21-2.31-14.63,2.65.33,1.06,8,2.72-7.51,1.83.23,1.28,8.06,2.55-7.58Z"/><path class="cls-74" d="M1103.32,822.91l-4,6.38-.58,5.74-2.56-.35.58-5.66-2.69-7.27,2.66.33,1.54,4.18,2.36-3.7Z"/><path class="cls-74" d="M1112.36,830.48a9.16,9.16,0,0,1-.88,3.2,5,5,0,0,1-1.87,2.15,4,4,0,0,1-2.72.5,4.14,4.14,0,0,1-2.57-1.28,5.58,5.58,0,0,1-1.38-2.61,9.67,9.67,0,0,1-.21-3.24,9.47,9.47,0,0,1,.85-3.11,5.16,5.16,0,0,1,1.86-2.17,3.92,3.92,0,0,1,2.76-.57,4.26,4.26,0,0,1,2,.78,4.62,4.62,0,0,1,1.37,1.61,6.84,6.84,0,0,1,.69,2.2A9.77,9.77,0,0,1,1112.36,830.48Zm-2.61-.34a5.35,5.35,0,0,0,0-1.33,3.32,3.32,0,0,0-.32-1.08,2.27,2.27,0,0,0-.63-.77,1.84,1.84,0,0,0-.92-.36,1.8,1.8,0,0,0-1.71.68,4.17,4.17,0,0,0-.82,2.27,4.31,4.31,0,0,0,.35,2.42,1.94,1.94,0,0,0,1.52,1.12,1.83,1.83,0,0,0,1.25-.25,2.63,2.63,0,0,0,.87-1.05A5,5,0,0,0,1109.75,830.14Z"/><path class="cls-74" d="M1122.72,832.57a8.71,8.71,0,0,1-.68,2.76,4.52,4.52,0,0,1-1.26,1.68,3.89,3.89,0,0,1-1.55.77,4.4,4.4,0,0,1-1.57.08,4.67,4.67,0,0,1-2-.85,4.62,4.62,0,0,1-1.52-2.12,7.66,7.66,0,0,1-.34-3.54l.7-7,2.56.33-.61,6.05a7.64,7.64,0,0,0,0,2.12,2.61,2.61,0,0,0,.55,1.3,1.57,1.57,0,0,0,1,.53,1.48,1.48,0,0,0,1-.24,2.39,2.39,0,0,0,.79-1.11,7.19,7.19,0,0,0,.45-2.06l.61-6.09,2.55.33Z"/><path class="cls-74" d="M1132.37,839.8l-2.75-.4-.44-2.39a11.56,11.56,0,0,0-.48-1.93,1.82,1.82,0,0,0-.5-.83,1.49,1.49,0,0,0-.7-.26l-.29,0-.49,5-2.56-.36,1.27-12.88,4.35.57a2.47,2.47,0,0,1,1.66.88,4,4,0,0,1,.82,1.72,5.77,5.77,0,0,1,.12,1.82,4.68,4.68,0,0,1-.41,1.63,3,3,0,0,1-.62.91,5.24,5.24,0,0,1-.68.51,3.38,3.38,0,0,1,.6,1,13.51,13.51,0,0,1,.52,2.12Zm-2.6-9.35a1.71,1.71,0,0,0-.27-1.3,1.9,1.9,0,0,0-1.22-.52l-.53-.07-.31,3.11.55.07a1.87,1.87,0,0,0,1.31-.14A1.55,1.55,0,0,0,1129.77,830.45Z"/><path class="cls-74" d="M1147,835.26a10,10,0,0,1-.87,3.31,5.23,5.23,0,0,1-1.87,2.22,3.88,3.88,0,0,1-2.73.52,4.16,4.16,0,0,1-2.57-1.34,5.89,5.89,0,0,1-1.38-2.7,10.44,10.44,0,0,1-.21-3.36,10.05,10.05,0,0,1,.85-3.22,5.33,5.33,0,0,1,1.86-2.25,3.87,3.87,0,0,1,2.76-.58,4.2,4.2,0,0,1,2,.82,4.65,4.65,0,0,1,1.37,1.67,7.24,7.24,0,0,1,.69,2.28A10.47,10.47,0,0,1,1147,835.26Zm-2.61-.37a5.67,5.67,0,0,0,0-1.37,3.49,3.49,0,0,0-.32-1.12,2.25,2.25,0,0,0-.63-.79,1.88,1.88,0,0,0-2.63.32,4.36,4.36,0,0,0-.82,2.34,4.6,4.6,0,0,0,.35,2.51,2,2,0,0,0,1.53,1.17,1.75,1.75,0,0,0,1.24-.26,2.48,2.48,0,0,0,.87-1.09A5.23,5.23,0,0,0,1144.36,834.89Z"/><path class="cls-74" d="M1162.76,830.76l-5,13-1.48-.23-1.46-8.14-3,7.47-1.49-.22-2.31-13.87,2.65.36,1.06,7.57,2.73-7.06,1.83.25,1.27,7.65,2.55-7.12Z"/><path class="cls-74" d="M1171.87,845.7l-2.27-.35-3.7-8.13-.7,7.46-2.54-.38,1.27-13.38,2.28.32,3.68,8.07.7-7.46,2.56.36Z"/><path class="cls-74" d="M1187.59,848.14l-2.56-.4.74-7.91-2.73,4.23-.21,0-1.88-4.91-.74,7.87-2.49-.39L1179,833l2.32.33,2.13,5.49,3.09-4.74,2.32.33Z"/><path class="cls-74" d="M1196.13,849.49l-6.4-1,1.28-13.72,6.29.91-.26,2.77-3.73-.55-.23,2.52,3.56.54-.26,2.77-3.56-.54-.27,2.94,3.83.59Z"/><path class="cls-74" d="M1207.16,851.25l-2.62-.42-.44-2.93-3.68-.58-1,2.7-2.62-.42,5-13.26,2.83.41Zm-3.42-5.85-.78-5.26-1.72,4.87Z"/><path class="cls-74" d="M1216.13,841.92l-3.11-.48-1,10.6-2.55-.41,1-10.57-3.1-.47.31-3.4,8.77,1.31Z"/><path class="cls-74" d="M1219,851.14a2.88,2.88,0,0,1-.52,1.49,1,1,0,0,1-1,.48,1.06,1.06,0,0,1-.62-.39,2.06,2.06,0,0,1-.43-.89,3.21,3.21,0,0,1-.08-1.12,3,3,0,0,1,.28-1.06,1.77,1.77,0,0,1,.56-.71.85.85,0,0,1,.68-.19,1,1,0,0,1,.63.39,2.24,2.24,0,0,1,.41.88A3.44,3.44,0,0,1,1219,851.14Zm.83-9.16a19.78,19.78,0,0,1-.32,2c-.16.79-.34,1.56-.54,2.32a14.38,14.38,0,0,1-.5,1.59,1.12,1.12,0,0,1-.22.36.4.4,0,0,1-.32.06.38.38,0,0,1-.28-.15,1.34,1.34,0,0,1-.16-.43,14.51,14.51,0,0,1-.21-1.72c-.07-.77-.11-1.56-.13-2.36a18.83,18.83,0,0,1,0-2.06,4.87,4.87,0,0,1,.64-2.29c.32-.47.64-.67,1-.62s.6.34.83.89A5.57,5.57,0,0,1,1219.81,842Z"/></g><path class="cls-59" d="M1135.44,918.67c16.44-4.27,18.59-46.2,20.23-54.3,1.49-7.34-7,64.53,16.54,64.53C1172.76,928.9,1135.44,918.67,1135.44,918.67Z"/><ellipse class="cls-74" cx="1189.81" cy="878.28" rx="14.82" ry="6.35" transform="translate(-202.92 380.95) rotate(-16.78)"/><ellipse class="cls-75" cx="1189.61" cy="877.2" rx="14.82" ry="6.35" transform="translate(-202.62 380.85) rotate(-16.78)"/><path class="cls-76" d="M1128.66,882.42c-1.3,2.51-9-1.56-13.73-4s-8.59-3.69-7.3-6.2,8.14-5.58,12.9-3.12S1130,879.91,1128.66,882.42Z"/><ellipse class="cls-77" cx="1118.91" cy="875.24" rx="2.6" ry="3.99" transform="translate(-291.16 1047.54) rotate(-45)"/><polygon class="cls-78" points="1214.92 928.9 1216.59 924.38 1217.8 919.87 1228.02 924.03 1214.92 928.9"/><ellipse class="cls-74" cx="1198.28" cy="899.39" rx="6.35" ry="14.82" transform="matrix(0.29, -0.96, 0.96, 0.29, -12.75, 1781.54)"/><ellipse class="cls-75" cx="1198.28" cy="898.3" rx="6.35" ry="14.82" transform="translate(-11.71 1780.77) rotate(-72.96)"/><path class="cls-76" d="M1127.61,892.74c.32,3.29-9.47,4.11-15.49,4.69s-10.44,1.77-10.75-1.52,4.29-10.61,10.32-11.2S1127.29,889.46,1127.61,892.74Z"/><ellipse class="cls-77" cx="1113.81" cy="891.55" rx="3.99" ry="3.27"/><line class="cls-79" x1="1133.4" y1="889.51" x2="1149.95" y2="893.12"/><g class="cls-24"><line class="cls-74" x1="1157.1" y1="894.1" x2="1174.76" y2="892.27"/><line class="cls-80" x1="1157.1" y1="894.1" x2="1168.8" y2="892.89"/><polygon class="cls-81" points="1167.16 886.09 1168.59 899.88 1174.77 892.27 1167.16 886.09"/></g></g><path class="cls-43" d="M1453.7,426.15c-1.76-.16-3.54-.24-5.33-.24-36.8,0-66.63,33-66.63,73.71h57.4C1439.14,460.9,1419.4,429.15,1453.7,426.15Z"/><path class="cls-56" d="M1525.66,499.62H1415.78c0-40.71,6.46-73.71,43.25-73.71,23.6,0,44.32,13.57,56.16,34A79.16,79.16,0,0,1,1525.66,499.62Z"/><path class="cls-63" d="M1525.66,499.62h-87c2.87-29.17,12.92-50.17,42.28-50.17a61.59,61.59,0,0,1,34.25,10.48A79.16,79.16,0,0,1,1525.66,499.62Z"/><g id="Layer_13" data-name="Layer 13"><path class="cls-61" d="M1435.25,581.87V582l-32.34-.5c0-20.27,5.36-38.93,16.15-38.93a9,9,0,0,1,5.24,1.72C1431.57,549.43,1435.23,565.26,1435.25,581.87Z"/><path class="cls-62" d="M1435.25,581.87l-21.8-.34c0-16.61,3.61-32.15,10.85-37.21C1431.57,549.43,1435.23,565.26,1435.25,581.87Z"/><polygon class="cls-65" points="1400.17 586.37 1435.32 587.29 1435.27 581.97 1400.17 581.53 1400.17 586.37"/><rect class="cls-82" x="1407.44" y="578.8" width="18.56" height="2.65" rx="1.33"/><rect class="cls-82" x="1409.02" y="575.87" width="18.56" height="2.65" rx="1.33"/><rect class="cls-83" x="1415.08" y="569.63" width="7.72" height="3.59" rx="1.79"/><rect class="cls-83" x="1412.48" y="565.55" width="7.72" height="3.59" rx="1.79"/><rect class="cls-83" x="1416.22" y="564.31" width="7.72" height="3.59" rx="1.79"/><rect class="cls-83" x="1414.18" y="560.01" width="7.72" height="3.59" rx="1.79"/></g></g><g id="Layer_26" data-name="Layer 26"><path class="cls-42" d="M713,962.24c1.13,36.36,49.43,49.83,78.41,48.93,53.79-1.67,69.57-29.77,68.84-53.45s2.59-43.05-51.19-41.38S712.26,938.57,713,962.24Z"/><path class="cls-42" d="M873.88,915c39.24-1.23,46.79,8.54,49.08,82.16l4.89,2.37c.09,2.93,5.14-2,4.88.82,2.77-8,.25,10.14,0,1.23l-.12-3.76c-1.84-59.24-7.22-97-59.09-95.34Z"/><rect class="cls-43" x="917.22" y="967.31" width="21.8" height="38.97" rx="9.12" transform="translate(1886.49 1944.23) rotate(178.22)"/><path class="cls-42" d="M842.14,1003.78l6.43-.2c5.3-.17,9.37-8.77,9-19.11l-.24-7.74c-.32-10.35-4.92-18.68-10.23-18.51l-8.41.26c-5.3.17-9.37,8.77-9,19.11l.12,3.87C830.09,1006.82,835.75,1004,842.14,1003.78Z"/><path class="cls-55" d="M653.24,1055.33c0,8.66,43.4,14.34,140.7,14.34s176.18-7,176.18-15.69-78.88-15.69-176.18-15.69S653.24,1046.66,653.24,1055.33Z"/><path class="cls-42" d="M823.94,1042.16l10.71-3.49c1.31,1.07,3.8-4.26,4.33-6.74l10.08-31.37c.54-2.52-.08-5.5-1.38-6.7l-13.49-8.64c-1.56-1.44-11.77-1-12,2.28L824,1027C823.83,1029.38,822.77,1041.21,823.94,1042.16Z"/><path class="cls-42" d="M812.5,1051c0,1.42-.18,2.58,1.24,2.54l24.6-.77a2.57,2.57,0,0,0,2.49-2.65l-.4-13a2.58,2.58,0,0,0-2.66-2.49l-10.39.32C823.55,1035,812.43,1048.71,812.5,1051Z"/><path class="cls-42" d="M736.69,1039.32l11.53,1.8c1.65.25,3.32-1.69,3.8-4.38l-2.18-51.54a10.64,10.64,0,0,1,.71-5.58c2.47-5.86,1.38-32.76.07-33.06l-10.09,14.89c-1.95-.47-18.49,4.09-18.6,7.35l12.4,66C734.25,1037.22,735.24,1039.1,736.69,1039.32Z"/><path class="cls-42" d="M721.19,1052.25c0,1.41-.07,2.57,1.34,2.53L747,1054a2.59,2.59,0,0,0,2.49-2.65l-.41-13a2.58,2.58,0,0,0-2.65-2.49l-10.39.32C732.23,1036.31,721.12,1050,721.19,1052.25Z"/><path class="cls-45" d="M769.77,1039.86l11.37-.51c1.62-.08,2.85-2.31,2.78-5l-2-54.4c-.07-2.77-1.45-5-3.09-5.1l-22.69-.8c-1.95-.06-3.33,3-2.8,6.2l13.29,55.71C767,1038.28,768.35,1039.93,769.77,1039.86Z"/><path class="cls-45" d="M757.24,1053.16c0,1.42-.15,2.58,1.27,2.54l24.57-.76a2.59,2.59,0,0,0,2.5-2.66l-.41-13a2.57,2.57,0,0,0-2.65-2.49l-10.39.32C768.29,1037.23,757.17,1050.92,757.24,1053.16Z"/><path class="cls-45" d="M815,989.18c-7.28,19.88-67.21,16-83.8,10a15.89,15.89,0,0,1-7-5.23c-4.28-5.4-6.57-13.69-9-22.37-2.72-9.77-5.61-20-11.72-27.24-13.69-16.18,34-14.39,50.62-8.33S822.28,969.28,815,989.18Z"/><ellipse class="cls-43" cx="843.15" cy="983.04" rx="33.83" ry="27.51" transform="translate(-30.18 26.72) rotate(-1.78)"/><rect class="cls-43" x="853.21" y="1002.7" width="9.72" height="19.43" rx="4.86" transform="translate(1747.24 1997.64) rotate(178.22)"/><rect class="cls-43" x="828.32" y="1006.63" width="11.33" height="16.19" rx="5.67" transform="translate(1699.15 2003.01) rotate(178.22)"/><path class="cls-45" d="M890.48,967.31l-30-3L715.34,949.89h-.14c-1.11-18.06,2.67-27.79,18.08-36.78,6.14-3.6,11.68-5.56,22.42-6.56,2.13-.2,4.48-.36,7.08-.49,4.6-.23,10.28-1.61,16.9-3.5,18.7-5.35,44.88-14.8,75.06-13.86C907.87,890.33,896.39,936.79,890.48,967.31Z"/><path class="cls-45" d="M714.91,954.57c1.13,36.35,49.43,49.83,78.41,48.93,53.79-1.68,69.57-29.77,68.83-53.45s2.6-43-51.19-41.38S714.17,930.9,714.91,954.57Z"/><path class="cls-45" d="M882.48,943l-4,18.91a16.91,16.91,0,0,0-26.75,16l1.07,7.58a17,17,0,0,0,13,14.13l1,33.09c.14,2.41,1.33,4.39,2.85,4.73l12-1.05c1.73.38,3.29-1.46,3.54-4.15l9.42-88.32C894.91,941.15,884.21,943.46,882.48,943Z"/><path class="cls-45" d="M853.27,1048.93c.05,1.42-.38,2.59,1,2.54l24.81-.77a2.59,2.59,0,0,0,2.5-2.65l-.41-13a2.59,2.59,0,0,0-2.65-2.5l-10.39.33C864.32,1033,853.2,1046.69,853.27,1048.93Z"/><g id="Layer_27" data-name="Layer 27"><path class="cls-46" d="M677.28,906.61a9.51,9.51,0,0,1-3.6-7,7,7,0,0,1,2.39-5.4l6.28-5.52a9,9,0,0,1,5.93-2.07,12.16,12.16,0,0,1,7.74,2.87l1.54,1.3-19.14,16.82Z"/><path class="cls-45" d="M688.28,888.32a10.42,10.42,0,0,1,6.62,2.45l-16.5,14.51c-3.46-2.92-4-7.33-1.18-9.8L683.5,890a7.16,7.16,0,0,1,4.78-1.63m0-3.47a10.59,10.59,0,0,0-7.07,2.5l-6.28,5.52a8.73,8.73,0,0,0-3,6.71,11.24,11.24,0,0,0,4.22,8.35l2.29,1.93,2.24-2,16.5-14.51,3-2.66-3.08-2.6a14,14,0,0,0-8.86-3.27Z"/><path class="cls-45" d="M719.9,933.8l1.73-.45c13.54-3.51,21.28-15.93,17.2-27.6l-5.07-14.53c-4.08-11.67-18.49-18.34-32-14.83l-1.74.45c-13.54,3.52-21.28,15.94-17.2,27.6L687.87,919C692,930.64,706.36,937.31,719.9,933.8Z"/><path class="cls-45" d="M677.31,941.86h0c8.34,8.76,23.48,10.06,33.66,2.88l16.4-11.58c10.17-7.18,11.68-20.23,3.34-29h0c-8.33-8.76-23.48-10.06-33.65-2.88l-16.4,11.58C670.48,920,669,933.09,677.31,941.86Z"/><path class="cls-84" d="M688.83,910a5,5,0,0,1-4.82-3.21,4.25,4.25,0,0,1,.28-3.45,5,5,0,0,1,3.16-2.42,5.88,5.88,0,0,1,1.39-.17,5,5,0,0,1,4.81,3.21,4.25,4.25,0,0,1-.27,3.45,5,5,0,0,1-3.16,2.42,5.88,5.88,0,0,1-1.39.17Z"/><path class="cls-45" d="M688.84,902.64a3.1,3.1,0,0,1,3,1.92,2.65,2.65,0,0,1-2.09,3.35,3.48,3.48,0,0,1-.9.12,3.1,3.1,0,0,1-3-1.92,2.64,2.64,0,0,1,2.08-3.35,3.56,3.56,0,0,1,.91-.12m0-3.87A7.4,7.4,0,0,0,687,899a6.87,6.87,0,0,0-4.38,3.38,6.16,6.16,0,0,0-.4,5,7,7,0,0,0,6.65,4.51,7.4,7.4,0,0,0,1.88-.24,6.87,6.87,0,0,0,4.38-3.38,6.12,6.12,0,0,0,.39-5,6.94,6.94,0,0,0-6.64-4.51Z"/><path class="cls-46" d="M714.22,884.71l1-1.68a10.9,10.9,0,0,1,9.18-5.35,8.81,8.81,0,0,1,3.51.71l8,3.5a7.71,7.71,0,0,1,4.29,4.72,9.1,9.1,0,0,1-1,7.37l-.78,1.32Z"/><path class="cls-45" d="M724.39,879.41a7.09,7.09,0,0,1,2.81.57l8,3.5c3.58,1.57,4.72,5.9,2.52,9.62h0l-21-9.19a9.17,9.17,0,0,1,7.68-4.5m0-3.47a12.66,12.66,0,0,0-10.67,6.21l-2,3.37,3.59,1.57,21,9.19,2.82,1.23,1.56-2.65a10.82,10.82,0,0,0,1.12-8.79,9.41,9.41,0,0,0-5.24-5.77l-8-3.5a10.42,10.42,0,0,0-4.2-.86Z"/><path class="cls-43" d="M718.64,876.07c-1.44-4.13-7.79-6.12-15.84-4s-10.71,6.42-9.27,10.54"/><path class="cls-43" d="M704.56,879.58c-1.44-4.12-7.43-6.21-13.39-4.66s-9.61,6.14-8.17,10.26"/><path class="cls-43" d="M718.41,876s-11.25,5.26-10.35,17c0,0-5.78-6.48-3.94-14.94"/><path class="cls-43" d="M705.18,879.74s-7.39,5.36-6.85,10.58c0,0-7.65-5.44-6.44-9.75"/><path class="cls-43" d="M693.68,882s-7.74,4.35-5,12.18c0,0-3-.83-5.81-9"/><path class="cls-84" d="M704.85,906.5a5.08,5.08,0,0,1-4.74-3,4.27,4.27,0,0,1,.11-3.48,4.94,4.94,0,0,1,3-2.54,5.71,5.71,0,0,1,1.59-.23,5.07,5.07,0,0,1,4.74,3,4.23,4.23,0,0,1-.1,3.48,4.89,4.89,0,0,1-3,2.53,5.44,5.44,0,0,1-1.6.24Z"/><path class="cls-45" d="M704.85,899.18a3.13,3.13,0,0,1,2.95,1.8,2.62,2.62,0,0,1-1.91,3.43,3.74,3.74,0,0,1-1,.15,3.12,3.12,0,0,1-2.94-1.8,2.61,2.61,0,0,1,1.91-3.43,3.67,3.67,0,0,1,1-.15m0-3.88a7.46,7.46,0,0,0-2.15.32,6.82,6.82,0,0,0-4.23,3.56,6.15,6.15,0,0,0-.15,5,6.94,6.94,0,0,0,6.53,4.22,7.53,7.53,0,0,0,2.16-.32,6.88,6.88,0,0,0,4.23-3.56,6.15,6.15,0,0,0,.15-5,6.94,6.94,0,0,0-6.54-4.22Z"/><path class="cls-46" d="M677.06,944.89c1.84,5.27,13,7,24.82,4s19.69-13.13,17.86-18.39-12.66-3.75-24.52-.67S675.22,939.63,677.06,944.89Z"/><path class="cls-85" d="M679.22,932.66l-12.14,28.6a2.82,2.82,0,0,0,2.1,3.63h0a3.5,3.5,0,0,0,4.22-1.81l12.13-28.61"/><path class="cls-85" d="M725.92,945.66l-27.13-7.44a3.47,3.47,0,0,0-4.18,1.86h0a2.82,2.82,0,0,0,2.16,3.6l27.13,7.45a3.46,3.46,0,0,0,4.18-1.87h0A2.82,2.82,0,0,0,725.92,945.66Z"/><path class="cls-85" d="M731.44,931l-26.23,9.54a2.76,2.76,0,0,0-1.77,3.76h0a3.56,3.56,0,0,0,4.36,1.53L734,936.28a2.76,2.76,0,0,0,1.77-3.76h0A3.56,3.56,0,0,0,731.44,931Z"/><rect class="cls-85" x="651.66" y="945.76" width="34.54" height="7.52" rx="3.76" transform="translate(-454.33 654) rotate(-40.1)"/><path class="cls-43" d="M682.68,947l27.46-7.12c6.72-1.75,10.57-7.92,8.54-13.71l-.73-2.1c-2-5.8-9.19-9.11-15.91-7.37l-27.45,7.13c-6.73,1.74-10.58,7.91-8.55,13.71l.73,2.1C668.8,945.44,676,948.76,682.68,947Z"/><path class="cls-46" d="M699.25,928.05a8.38,8.38,0,0,1-7.74-5.63,7.57,7.57,0,0,1,.39-6,6.81,6.81,0,0,1,4.33-3.4,7.46,7.46,0,0,1,1.83-.23,8.4,8.4,0,0,1,7.75,5.64,7.55,7.55,0,0,1-.39,6,6.77,6.77,0,0,1-4.33,3.4,7.14,7.14,0,0,1-1.84.23Z"/><path class="cls-43" d="M698.06,914.62a6.51,6.51,0,0,1,6,4.39,5.21,5.21,0,0,1-3.42,7,5.3,5.3,0,0,1-1.37.17,6.49,6.49,0,0,1-6-4.38,5.2,5.2,0,0,1,3.42-7,5.3,5.3,0,0,1,1.36-.18m0-3.74a9.35,9.35,0,0,0-2.3.29,8.59,8.59,0,0,0-5.51,4.33,9.42,9.42,0,0,0-.51,7.53,10.3,10.3,0,0,0,9.51,6.9,9,9,0,0,0,2.31-.3,8.64,8.64,0,0,0,5.51-4.33,9.42,9.42,0,0,0,.5-7.53,10.28,10.28,0,0,0-9.51-6.89Z"/><path class="cls-46" d="M674.86,935a8.4,8.4,0,0,1-7.75-5.64,7.55,7.55,0,0,1,.39-6,6.81,6.81,0,0,1,4.33-3.4,7.6,7.6,0,0,1,1.84-.23,8.38,8.38,0,0,1,7.74,5.63,7.57,7.57,0,0,1-.39,6,6.78,6.78,0,0,1-4.33,3.4,7.46,7.46,0,0,1-1.83.23Z"/><path class="cls-43" d="M673.67,921.61a6.51,6.51,0,0,1,6,4.38,5.18,5.18,0,0,1-4.79,7.18,6.52,6.52,0,0,1-6-4.39,5.21,5.21,0,0,1,3.42-7,5.78,5.78,0,0,1,1.37-.17m0-3.75a9,9,0,0,0-2.31.3,8.64,8.64,0,0,0-5.51,4.33,9.42,9.42,0,0,0-.5,7.53,10.28,10.28,0,0,0,9.51,6.89,9.35,9.35,0,0,0,2.3-.29,8.59,8.59,0,0,0,5.51-4.33,9.42,9.42,0,0,0,.51-7.53,10.3,10.3,0,0,0-9.51-6.9Z"/></g><circle class="cls-43" cx="811.26" cy="941.18" r="22.73"/><circle class="cls-43" cx="830.84" cy="933.22" r="12.82"/><path class="cls-43" d="M736.52,981.1a12.82,12.82,0,0,1-12.35,12.8c-4.28-5.4-6.57-13.69-9-22.37a12.82,12.82,0,0,1,21.36,9.57Z"/><path class="cls-43" d="M781.18,908.57a12.64,12.64,0,0,1-.39,3.15,12.82,12.82,0,0,1-25.25-3.15,13.56,13.56,0,0,1,.16-2c2.13-.2,4.48-.36,7.08-.49,4.6-.23,10.28-1.61,16.9-3.5A12.84,12.84,0,0,1,781.18,908.57Z"/></g></g><g id="Calque_32" data-name="Calque 32"><path class="cls-75" d="M829.12,369.05c9,.24,80.66,3,87.3,3s53.69,3.44,59.92,3.8,45.91,3,47.35,5,2.63,8.74,2,12.22-1.31,9.29-3.32,10.35-43.5-4-52.48-4.15-73.24-3-80.25-3.38-71-1.69-72.91-1.8-7.86.73-10.1-1-2.48-11.47-2.3-14.58,2.51-7.49,4.1-8.83S820.1,368.81,829.12,369.05Z"/><g class="cls-86"><path class="cls-58" d="M821.11,404.83l-7.93-.45s-1.33-18.74-.93-24.94c.5-7.8,3.83-26.23,3.83-26.23l7.94.45s-3.29,17.54-3.85,26.43A158.29,158.29,0,0,0,821.11,404.83Z"/><path class="cls-58" d="M838.18,406.7l-7.93-.45s-.55-18.69-.15-24.89c.5-7.81,3-26.28,3-26.28l7.94.45S838.59,374.2,838,382C837.57,388.15,838.18,406.7,838.18,406.7Z"/><path class="cls-58" d="M856.94,407.11l-7.94-.45s-.55-18.69-.15-24.89c.51-7.8,3.06-26.27,3.06-26.27l7.93.45s-2.49,18.67-3.07,26.47C856.32,388.56,856.94,407.11,856.94,407.11Z"/><path class="cls-58" d="M875.94,407.94l-7.94-.45s-.55-18.69-.15-24.89c.51-7.81,3.06-26.28,3.06-26.28l7.93.45s-2.49,18.67-3.07,26.47C875.32,389.39,875.94,407.94,875.94,407.94Z"/><path class="cls-58" d="M893,409.81l-7.94-.45s.23-18.65.63-24.84c.51-7.81,2.28-26.32,2.28-26.32l7.93.45s-1.71,18.71-2.29,26.51C893.17,391.31,893,409.81,893,409.81Z"/><path class="cls-58" d="M911.76,410.23l-7.93-.45s.23-18.65.63-24.85c.5-7.81,2.27-26.32,2.27-26.32l7.94.45s-1.72,18.71-2.29,26.51C911.93,391.72,911.76,410.23,911.76,410.23Z"/><path class="cls-58" d="M1013.78,365.84l7.93.45s1.27,16.17.93,24.94c-.44,11.33-3.84,26.23-3.84,26.23l-7.93-.45s3-16.91,3.85-26.43C1015.44,382.15,1013.78,365.84,1013.78,365.84Z"/><path class="cls-58" d="M996.71,364l7.93.45s.55,18.69.15,24.89c-.5,7.81-3,26.28-3,26.28l-7.94-.45s2.49-18.67,3.07-26.48C997.32,382.52,996.71,364,996.71,364Z"/><path class="cls-58" d="M978,363.56l7.93.45s.56,18.69.16,24.89c-.51,7.8-3.06,26.27-3.06,26.27l-7.93-.45s2.49-18.67,3.06-26.47C978.57,382.11,978,363.56,978,363.56Z"/><path class="cls-58" d="M959,362.73l7.93.45s.56,18.69.16,24.89c-.51,7.81-3.06,26.28-3.06,26.28l-7.93-.45s2.49-18.67,3.06-26.47C959.57,381.28,959,362.73,959,362.73Z"/><path class="cls-58" d="M941.88,360.85l7.93.46s-.22,18.64-.62,24.84c-.51,7.81-2.28,26.32-2.28,26.32L939,412s1.71-18.71,2.28-26.51C941.72,379.36,941.88,360.85,941.88,360.85Z"/><path class="cls-58" d="M923.13,360.44l7.93.45s-.23,18.65-.63,24.85c-.5,7.81-2.28,26.32-2.28,26.32l-7.93-.45s1.71-18.71,2.29-26.51C923,379,923.13,360.44,923.13,360.44Z"/></g><path class="cls-75" d="M1021.8,395.43c8.74-2,78.87-17.16,85.29-18.83s52.86-10,59-11.25,45.21-8.53,47.11-6.92,4.73,7.81,5,11.33,1,9.33-.63,10.85-43.14,6.93-51.86,9.05S1094,405,1087.14,406.37s-69.15,16.05-71.06,16.42-7.43,2.66-10,1.58-5.26-10.48-5.86-13.54.56-7.88,1.77-9.57S1013,397.45,1021.8,395.43Z"/><g class="cls-87"><path class="cls-58" d="M1023,432.08l-7.79,1.54s-6-17.82-7.12-23.92c-1.45-7.68-2.81-26.36-2.81-26.36l7.79-1.54s1.18,17.81,2.86,26.55A157.83,157.83,0,0,0,1023,432.08Z"/><path class="cls-58" d="M1040,429.64l-7.8,1.54s-5.19-18-6.34-24.07c-1.46-7.68-3.59-26.21-3.59-26.21l7.8-1.54s2.24,18.71,3.62,26.41C1034.73,411.83,1040,429.64,1040,429.64Z"/><path class="cls-58" d="M1058.22,425.37l-7.8,1.54s-5.19-18-6.34-24.07c-1.46-7.68-3.59-26.21-3.59-26.21l7.8-1.54s2.23,18.7,3.62,26.4C1053,407.56,1058.22,425.37,1058.22,425.37Z"/><path class="cls-58" d="M1076.82,421.44,1069,423s-5.19-18-6.35-24.07c-1.45-7.69-3.58-26.21-3.58-26.21l7.79-1.54s2.24,18.7,3.63,26.4C1071.61,403.63,1076.82,421.44,1076.82,421.44Z"/><path class="cls-58" d="M1093.82,419l-7.79,1.54s-4.43-18.12-5.58-24.22c-1.46-7.68-4.35-26.06-4.35-26.06l7.79-1.54s3,18.55,4.39,26.25C1089.37,401,1093.82,419,1093.82,419Z"/><path class="cls-58" d="M1112.09,414.73l-7.8,1.54s-4.42-18.12-5.58-24.22c-1.45-7.69-4.35-26.06-4.35-26.06l7.8-1.54s3,18.55,4.39,26.25C1107.64,396.77,1112.09,414.73,1112.09,414.73Z"/><path class="cls-58" d="M1199.83,346.34l7.8-1.54s5.26,15.34,7.11,23.92c2.39,11.08,2.82,26.36,2.82,26.36l-7.79,1.54s-1.28-17.13-2.86-26.56C1205.51,361.72,1199.83,346.34,1199.83,346.34Z"/><path class="cls-58" d="M1182.84,348.77l7.79-1.54s5.19,18,6.35,24.07c1.45,7.69,3.58,26.21,3.58,26.21l-7.79,1.54s-2.24-18.7-3.62-26.4C1188.05,366.59,1182.84,348.77,1182.84,348.77Z"/><path class="cls-58" d="M1164.57,353.05l7.79-1.54s5.2,18,6.35,24.07c1.46,7.68,3.59,26.21,3.59,26.21l-7.8,1.53s-2.24-18.7-3.62-26.4C1169.79,370.86,1164.57,353.05,1164.57,353.05Z"/><path class="cls-58" d="M1146,357l7.8-1.54s5.19,18,6.34,24.07c1.46,7.68,3.59,26.21,3.59,26.21l-7.8,1.54s-2.23-18.71-3.62-26.41C1151.18,374.79,1146,357,1146,357Z"/><path class="cls-58" d="M1129,359.41l7.8-1.54s4.42,18.12,5.58,24.22c1.46,7.69,4.35,26.06,4.35,26.06l-7.8,1.54s-3-18.55-4.38-26.25C1133.41,377.38,1129,359.41,1129,359.41Z"/><path class="cls-58" d="M1110.7,363.69l7.79-1.54s4.43,18.12,5.58,24.22c1.46,7.68,4.35,26.06,4.35,26.06l-7.79,1.54s-3-18.56-4.39-26.26C1115.15,381.65,1110.7,363.69,1110.7,363.69Z"/></g><path class="cls-75" d="M966.76,285.24c8.76,1.91,78.67,18,85.2,19.25s52.1,13.41,58.16,14.92,44.54,11.51,45.58,13.78,1,9.08-.28,12.39-3,8.89-5.2,9.55-42-12.08-50.78-13.88-71.39-16.61-78.2-18.31-69.41-14.91-71.3-15.38-7.85-.75-9.74-2.83-.29-11.73.46-14.75,3.86-6.89,5.68-7.91S957.94,283.31,966.76,285.24Z"/><g class="cls-88"><path class="cls-58" d="M952.21,318.89,944.5,317s2.19-18.66,3.74-24.67c2-7.58,8.67-25.06,8.67-25.06l7.71,1.93s-6.51,16.61-8.72,25.24A157.76,157.76,0,0,0,952.21,318.89Z"/><path class="cls-58" d="M968.63,323.92,960.92,322s2.94-18.47,4.5-24.49c2-7.57,7.91-25.24,7.91-25.24l7.7,1.92s-5.93,17.88-7.95,25.44C971.48,305.58,968.63,323.92,968.63,323.92Z"/><path class="cls-58" d="M987,327.83l-7.71-1.93s3-18.46,4.5-24.48c2-7.57,7.91-25.24,7.91-25.24l7.71,1.92s-5.93,17.88-8,25.43C989.83,309.49,987,327.83,987,327.83Z"/><path class="cls-58" d="M1005.49,332.19l-7.71-1.93s3-18.46,4.5-24.48c2-7.57,7.91-25.24,7.91-25.24l7.71,1.92s-5.94,17.88-8,25.43C1008.35,313.85,1005.49,332.19,1005.49,332.19Z"/><path class="cls-58" d="M1021.91,337.22l-7.71-1.93s3.7-18.28,5.25-24.29c2-7.58,7.15-25.43,7.15-25.43l7.71,1.92s-5.17,18.06-7.19,25.62C1025.52,319.07,1021.91,337.22,1021.91,337.22Z"/><path class="cls-58" d="M1040.25,341.12l-7.71-1.92s3.71-18.28,5.26-24.29c2-7.58,7.15-25.44,7.15-25.44l7.71,1.93s-5.17,18.06-7.2,25.62C1043.87,323,1040.25,341.12,1040.25,341.12Z"/><path class="cls-58" d="M1148.76,316.57l7.71,1.92s-1.77,16.13-3.74,24.67c-2.55,11-8.67,25.06-8.67,25.06l-7.71-1.93s6.14-16,8.72-25.24C1147.35,332.9,1148.76,316.57,1148.76,316.57Z"/><path class="cls-58" d="M1132.34,311.54l7.71,1.92s-3,18.47-4.5,24.49c-2,7.57-7.91,25.24-7.91,25.24l-7.71-1.92s5.94-17.88,8-25.44C1129.48,329.88,1132.34,311.54,1132.34,311.54Z"/><path class="cls-58" d="M1114,307.63l7.71,1.93s-2.94,18.47-4.5,24.48c-2,7.57-7.9,25.24-7.9,25.24l-7.71-1.92s5.93-17.88,8-25.43C1111.14,326,1114,307.63,1114,307.63Z"/><path class="cls-58" d="M1095.48,303.27l7.71,1.93s-3,18.47-4.5,24.48c-2,7.57-7.91,25.24-7.91,25.24l-7.71-1.92s5.94-17.88,8-25.43C1092.62,321.61,1095.48,303.27,1095.48,303.27Z"/><path class="cls-58" d="M1079.06,298.24l7.71,1.93s-3.7,18.28-5.25,24.29c-2,7.58-7.16,25.43-7.16,25.43l-7.71-1.92s5.18-18.06,7.2-25.62C1075.45,316.4,1079.06,298.24,1079.06,298.24Z"/><path class="cls-58" d="M1060.72,294.34l7.7,1.92s-3.7,18.28-5.25,24.29c-2,7.58-7.15,25.44-7.15,25.44l-7.71-1.93s5.17-18.06,7.2-25.62C1057.1,312.49,1060.72,294.34,1060.72,294.34Z"/></g><path class="cls-75" d="M985.32,327.49c12.57-2.75,113.47-23.59,122.72-25.9s76-13.71,84.83-15.36,65-11.64,67.75-9.31,6.67,11.28,7.05,16.34,1.38,13.41-1.06,15.57-62,9.38-74.59,12.3-103.12,21.08-113,22.94-99.52,22.11-102.27,22.63-10.69,3.72-14.41,2.14-7.4-15.13-8.22-19.53.91-11.3,2.67-13.72S972.65,330.26,985.32,327.49Z"/><g class="cls-89"><path class="cls-58" d="M986.38,379.9,975.16,382s-8.27-25.68-9.83-34.46c-2-11.06-3.63-37.9-3.63-37.9l11.22-2.08s1.41,25.58,3.68,38.17C979.49,361.81,986.38,379.9,986.38,379.9Z"/><path class="cls-58" d="M1010.82,376.67l-11.22,2.09s-7.16-25.88-8.72-34.66c-2-11.06-4.73-37.69-4.73-37.69l11.22-2.09s2.91,26.89,4.78,38C1003.62,351,1010.82,376.67,1010.82,376.67Z"/><path class="cls-58" d="M1037.12,370.83l-11.22,2.09s-7.16-25.88-8.73-34.66c-2-11.06-4.72-37.69-4.72-37.69l11.21-2.09s2.92,26.89,4.78,38C1029.91,345.17,1037.12,370.83,1037.12,370.83Z"/><path class="cls-58" d="M1063.9,365.48l-11.22,2.09s-7.16-25.88-8.73-34.66c-2-11.06-4.72-37.69-4.72-37.69l11.21-2.09s2.92,26.89,4.78,38C1056.69,339.82,1063.9,365.48,1063.9,365.48Z"/><path class="cls-58" d="M1088.34,362.26l-11.21,2.08s-6.06-26.08-7.63-34.86c-2-11.06-5.83-37.49-5.83-37.49l11.22-2.08s4,26.68,5.88,37.76C1082.24,336.39,1088.34,362.26,1088.34,362.26Z"/><path class="cls-58" d="M1114.64,356.42l-11.22,2.08s-6.06-26.09-7.62-34.87c-2-11.05-5.83-37.48-5.83-37.48l11.22-2.09s4,26.69,5.88,37.76C1108.54,330.55,1114.64,356.42,1114.64,356.42Z"/><path class="cls-58" d="M1241.72,259.62l11.22-2.09s7.31,22.12,9.83,34.46c3.26,15.95,3.63,37.89,3.63,37.89L1255.18,332s-1.55-24.61-3.68-38.17C1249.62,281.79,1241.72,259.62,1241.72,259.62Z"/><path class="cls-58" d="M1217.28,262.84l11.22-2.08s7.16,25.88,8.72,34.66c2,11.06,4.73,37.69,4.73,37.69l-11.22,2.08s-2.91-26.88-4.78-38C1224.48,288.5,1217.28,262.84,1217.28,262.84Z"/><path class="cls-58" d="M1191,268.68l11.22-2.08s7.16,25.88,8.73,34.66c2,11.06,4.72,37.69,4.72,37.69L1204.44,341s-2.92-26.89-4.78-38C1198.19,294.34,1191,268.68,1191,268.68Z"/><path class="cls-58" d="M1164.2,274l11.22-2.08s7.16,25.88,8.73,34.66c2,11.06,4.72,37.69,4.72,37.69l-11.21,2.08s-2.92-26.88-4.78-38C1171.41,299.69,1164.2,274,1164.2,274Z"/><path class="cls-58" d="M1139.76,277.26l11.21-2.09s6.07,26.09,7.63,34.87c2,11.06,5.83,37.48,5.83,37.48l-11.22,2.09s-4-26.68-5.88-37.76C1145.86,303.12,1139.76,277.26,1139.76,277.26Z"/><path class="cls-58" d="M1113.46,283.1l11.22-2.09s6.06,26.09,7.62,34.87c2,11.06,5.83,37.49,5.83,37.49l-11.22,2.08s-4-26.68-5.88-37.76C1119.56,309,1113.46,283.1,1113.46,283.1Z"/></g><path class="cls-75" d="M745.8,309.49c12.8,1.4,115.08,13.82,124.58,14.58s76.43,11.25,85.3,12.49,65.34,9.7,67.18,12.78,2.73,12.82,1.47,17.73-3,13.15-6,14.42-61.78-10.89-74.61-12.12-104.47-12.9-114.45-14.3-101.37-10.78-104.14-11.16-11.32.11-14.34-2.57-2.18-16.7-1.56-21.14,4.47-10.41,6.91-12.14S732.91,308.07,745.8,309.49Z"/><g class="cls-90"><path class="cls-58" d="M730.12,359.74l-11.3-1.58s.3-27,1.61-35.79c1.64-11.11,8.58-37.09,8.58-37.09l11.3,1.58s-6.78,24.71-8.62,37.37C729.33,340.4,730.12,359.74,730.12,359.74Z"/><path class="cls-58" d="M754.33,364.44,743,362.86s1.41-26.82,2.71-35.64c1.65-11.12,7.47-37.25,7.47-37.25l11.3,1.58S758.75,318,757,329.07C755.63,337.82,754.33,364.44,754.33,364.44Z"/><path class="cls-58" d="M781.12,367.24l-11.3-1.58s1.41-26.82,2.72-35.64c1.64-11.12,7.47-37.25,7.47-37.25l11.3,1.58s-5.77,26.43-7.51,37.52C782.42,340.61,781.12,367.24,781.12,367.24Z"/><path class="cls-58" d="M808.21,370.66l-11.3-1.58s1.42-26.82,2.72-35.64c1.64-11.11,7.47-37.25,7.47-37.25l11.3,1.58s-5.77,26.43-7.51,37.53C809.52,344,808.21,370.66,808.21,370.66Z"/><path class="cls-58" d="M832.42,375.35l-11.3-1.58s2.52-26.66,3.83-35.48c1.64-11.12,6.36-37.4,6.36-37.4l11.3,1.58s-4.66,26.58-6.4,37.67C834.84,348.89,832.42,375.35,832.42,375.35Z"/><path class="cls-58" d="M859.21,378.15l-11.3-1.58s2.53-26.66,3.83-35.48c1.64-11.12,6.36-37.4,6.36-37.4l11.3,1.58s-4.66,26.58-6.4,37.67C861.63,351.68,859.21,378.15,859.21,378.15Z"/><path class="cls-58" d="M1010.43,326.65l11.3,1.58s-.08,23.3-1.6,35.8c-2,16.16-8.58,37.09-8.58,37.09l-11.3-1.58s6.33-23.84,8.62-37.37C1010.89,350.19,1010.43,326.65,1010.43,326.65Z"/><path class="cls-58" d="M986.23,322l11.3,1.58s-1.42,26.82-2.72,35.64c-1.64,11.11-7.47,37.24-7.47,37.24L976,394.84s5.77-26.42,7.51-37.52C984.92,348.58,986.23,322,986.23,322Z"/><path class="cls-58" d="M959.44,319.16l11.3,1.58s-1.42,26.82-2.72,35.64c-1.64,11.11-7.47,37.24-7.47,37.24L949.25,392s5.76-26.42,7.51-37.52C958.13,345.78,959.44,319.16,959.44,319.16Z"/><path class="cls-58" d="M932.34,315.74l11.3,1.58s-1.41,26.82-2.72,35.64c-1.64,11.11-7.47,37.24-7.47,37.24l-11.3-1.58s5.77-26.42,7.51-37.52C931,342.36,932.34,315.74,932.34,315.74Z"/><path class="cls-58" d="M908.13,311.05l11.3,1.57s-2.52,26.67-3.82,35.49c-1.64,11.11-6.36,37.4-6.36,37.4L898,383.93s4.65-26.58,6.4-37.68C905.72,337.51,908.13,311.05,908.13,311.05Z"/><path class="cls-58" d="M881.34,308.25l11.3,1.57s-2.52,26.67-3.82,35.49c-1.65,11.11-6.36,37.4-6.36,37.4l-11.3-1.58s4.65-26.58,6.39-37.68C878.93,334.71,881.34,308.25,881.34,308.25Z"/></g><path class="cls-91" d="M804.7,324c-2.62,6.26-19.23.95-25.49-1.67s-21.13-9.74-18.52-16,21.2-8,27.46-5.36S807.31,317.74,804.7,324Z"/><ellipse class="cls-92" cx="781.48" cy="313.35" rx="6.4" ry="9.22" transform="translate(190.78 913.32) rotate(-67.29)"/><ellipse class="cls-92" cx="783.61" cy="311.96" rx="6.4" ry="7.66" transform="translate(193.36 914.43) rotate(-67.29)"/><ellipse class="cls-92" cx="785.06" cy="315.74" rx="6.4" ry="7.66" transform="translate(190.77 918.09) rotate(-67.29)"/><ellipse class="cls-92" cx="782.25" cy="314.65" rx="6.4" ry="8.05" transform="translate(190.05 914.83) rotate(-67.29)"/><circle class="cls-93" cx="793.59" cy="313.37" r="0.3"/><circle class="cls-94" cx="773.02" cy="307.46" r="0.44"/><rect class="cls-46" x="783.36" y="301.76" width="2.96" height="1.22" rx="0.61" transform="translate(74.65 -148.22) rotate(11.32)"/><rect class="cls-46" x="769.45" y="304.17" width="2.96" height="1.22" rx="0.61" transform="translate(-57.99 315.26) rotate(-22.29)"/><circle class="cls-95" cx="766.77" cy="309.28" r="0.3"/><circle class="cls-93" cx="777.25" cy="304.4" r="0.78"/><ellipse class="cls-95" cx="792.92" cy="321.56" rx="0.49" ry="0.53" transform="translate(-62.72 324.85) rotate(-22.29)"/><ellipse class="cls-96" cx="793.49" cy="309.16" rx="0.47" ry="0.45" transform="translate(-57.97 324.14) rotate(-22.29)"/><circle class="cls-93" cx="768.97" cy="313.58" r="0.78"/><g class="cls-97"><path class="cls-98" d="M888.82,306.06c-4.84,2-13.31,6.62-24.27,5.59-10-.94-24.19-13.55-25.85-17-6.25-13.09,2.15-34.51,8.08-40.51,5.07-5.14,20.69-5.06,23.86-3.9,2.67,1,12.69,8.33,16.86,12.12,5,4.53,9.46,10.7,10.44,14.56.85,3.36.44,9.67-1,15.57C895.38,299,892.38,304.6,888.82,306.06Z"/><path class="cls-99" d="M859.36,305.05c-3.09-.22-10.68-3.45-14.23-7.76-3.79-4.61-4.11-15.2-4-17.56.24-8.89,5.92-23.59,10.66-25.29,4.06-1.45,13-.56,16.89,2.75,1.3,1.11,3.22,9.71,4,13.05.88,4.09,1.29,9.78,1.69,13.43.23,2.11.67,12.44-1.67,15.3C870,302.16,861.63,305.21,859.36,305.05Z"/><ellipse class="cls-100" cx="882.96" cy="279.16" rx="6.9" ry="9.94" transform="translate(-41.53 225.64) rotate(-14.23)"/><ellipse class="cls-100" cx="885.53" cy="280.1" rx="6.9" ry="8.26" transform="translate(-41.68 226.3) rotate(-14.23)"/><ellipse class="cls-100" cx="883.22" cy="283.79" rx="6.9" ry="8.26" transform="translate(-42.66 225.84) rotate(-14.23)"/><ellipse class="cls-100" cx="882.34" cy="280.67" rx="6.9" ry="8.67" transform="translate(-41.92 225.53) rotate(-14.23)"/><circle class="cls-101" cx="890.78" cy="289.61" r="0.32"/><circle class="cls-46" cx="882.55" cy="268.06" r="0.47"/><rect class="cls-58" x="881.38" y="263.36" width="4.54" height="1.87" rx="0.94" transform="translate(265.64 -420.36) rotate(31.28)"/><rect class="cls-58" x="892.39" y="274.89" width="4.54" height="1.87" rx="0.94" transform="translate(706.59 -641.3) rotate(61.28)"/><circle class="cls-102" cx="876.94" cy="263.86" r="0.32"/><circle class="cls-101" cx="887.92" cy="269.73" r="0.84"/><ellipse class="cls-102" cx="883.29" cy="294.33" rx="0.57" ry="0.53" transform="translate(178.52 902.72) rotate(-59.23)"/><ellipse class="cls-82" cx="894.35" cy="286.8" rx="0.49" ry="0.5" transform="translate(190.4 908.54) rotate(-59.23)"/><circle class="cls-101" cx="874.66" cy="268.53" r="0.84"/></g><path class="cls-98" d="M1190.37,391.83c2,4.86,6.53,13.36,5.41,24.31-1,10-13.73,24.08-17.22,25.72-13.13,6.15-34.49-2.41-40.45-8.38-5.1-5.11-4.9-20.73-3.72-23.89,1-2.67,8.43-12.63,12.25-16.78,4.57-5,10.77-9.37,14.64-10.32,3.36-.83,9.67-.37,15.56,1.09C1183.4,385.21,1188.94,388.25,1190.37,391.83Z"/><path class="cls-99" d="M1189.14,421.28c-.24,3.09-3.53,10.66-7.86,14.17-4.64,3.76-15.24,4-17.6,3.91-8.88-.3-23.54-6.09-25.2-10.85-1.42-4.07-.46-13.05,2.88-16.87,1.12-1.28,9.73-3.14,13.08-3.84,4.09-.85,9.78-1.22,13.44-1.59,2.11-.21,12.44-.58,15.29,1.79C1186.34,410.63,1189.32,419,1189.14,421.28Z"/><ellipse class="cls-92" cx="1163.44" cy="397.48" rx="9.94" ry="6.9" transform="translate(-61.23 288.95) rotate(-13.8)"/><ellipse class="cls-92" cx="1168.07" cy="397.26" rx="8.26" ry="6.9" transform="translate(-61.04 290.05) rotate(-13.8)"/><ellipse class="cls-92" cx="1164.94" cy="398.12" rx="8.67" ry="6.9" transform="translate(-61.33 289.32) rotate(-13.8)"/><circle class="cls-93" cx="1152.75" cy="405.71" r="0.84"/><ellipse class="cls-92" cx="1164.4" cy="394.92" rx="8.26" ry="6.9" transform="translate(-60.59 289.1) rotate(-13.8)"/><circle class="cls-93" cx="1173.95" cy="389.74" r="0.32"/><circle class="cls-94" cx="1152.33" cy="397.81" r="0.47"/><rect class="cls-103" x="1146.31" y="395.75" width="4.54" height="1.87" rx="0.94" transform="translate(207.39 1165.28) rotate(-58.29)"/><circle class="cls-95" cx="1148.09" cy="403.39" r="0.32"/><circle class="cls-93" cx="1154.04" cy="392.45" r="0.84"/><ellipse class="cls-95" cx="1178.61" cy="397.27" rx="0.53" ry="0.57" transform="translate(228.22 1199.58) rotate(-58.8)"/><path class="cls-75" d="M761.61,326.08c24.65-.53,221.92-3.12,240.14-3.9s148,.78,165.1.78,126.5,1.78,130.79,5.69,8.58,17.19,7.51,24.22-2.15,18.75-7.51,21.1-120.07-4.13-144.73-3.35S951.37,373,932.07,373,737,377.66,731.59,377.66s-21.44,2.34-27.87-.78-8.58-22.67-8.58-28.92,5.72-15.26,9.89-18.12S736.79,326.62,761.61,326.08Z"/><g class="cls-104"><path class="cls-58" d="M745.2,398.59H723.35s-6.58-37.35-6.45-49.79c.17-15.68,6.45-52.94,6.45-52.94H745.2s-6.3,35.47-6.45,53.33C738.57,372,745.2,398.59,745.2,398.59Z"/><path class="cls-58" d="M792.35,400.4H770.5s-4.43-37.35-4.3-49.79c.17-15.68,4.3-52.93,4.3-52.93h21.85s-3.93,37.64-4.3,53.32C787.77,363.35,792.35,400.4,792.35,400.4Z"/><path class="cls-58" d="M843.91,399.09H822.06s-4.43-37.34-4.3-49.79c.17-15.68,4.3-52.93,4.3-52.93h21.85S840,334,839.61,349.69C839.32,362,843.91,399.09,843.91,399.09Z"/><path class="cls-58" d="M896.2,398.59H874.35s-4.43-37.35-4.3-49.79c.17-15.68,4.3-52.94,4.3-52.94H896.2s-3.93,37.65-4.29,53.33C891.62,361.54,896.2,398.59,896.2,398.59Z"/><path class="cls-58" d="M943.36,400.4H921.51s-2.29-37.35-2.15-49.79c.16-15.68,2.15-52.93,2.15-52.93h21.85s-1.79,37.64-2.15,53.32C940.92,363.35,943.36,400.4,943.36,400.4Z"/><path class="cls-58" d="M994.91,399.09H973.06s-2.28-37.34-2.15-49.79c.17-15.68,2.15-52.93,2.15-52.93h21.85s-1.78,37.64-2.15,53.32C992.48,362,994.91,399.09,994.91,399.09Z"/><path class="cls-58" d="M1268.07,298.69l21.85-30s6,63.21,6.44,80.79c.55,22.72-6.44,44.93-6.44,44.93l-21.85,7s5.69-64.17,6.44-83.32C1275.18,301.13,1268.07,298.69,1268.07,298.69Z"/><path class="cls-58" d="M1220.91,296.87h21.85s4.43,37.35,4.3,49.8c-.17,15.68-4.3,52.93-4.3,52.93h-21.85s3.94-37.64,4.3-53.32C1225.5,333.93,1220.91,296.87,1220.91,296.87Z"/><path class="cls-58" d="M1169.36,298.18h21.85s4.43,37.35,4.29,49.8c-.16,15.67-4.29,52.93-4.29,52.93h-21.85s3.93-37.65,4.29-53.33C1173.94,335.23,1169.36,298.18,1169.36,298.18Z"/><path class="cls-58" d="M1117.06,298.69h21.85s4.43,37.34,4.3,49.79c-.17,15.68-4.3,52.93-4.3,52.93h-21.85s3.94-37.64,4.3-53.32C1121.65,335.74,1117.06,298.69,1117.06,298.69Z"/><path class="cls-58" d="M1069.91,296.87h21.85s2.28,37.35,2.15,49.8c-.17,15.68-2.15,52.93-2.15,52.93h-21.85s1.78-37.64,2.15-53.32C1072.34,333.93,1069.91,296.87,1069.91,296.87Z"/><path class="cls-58" d="M1018.35,298.18h21.85s2.28,37.35,2.15,49.8c-.17,15.67-2.15,52.93-2.15,52.93h-21.85s1.79-37.65,2.15-53.33C1020.79,335.23,1018.35,298.18,1018.35,298.18Z"/></g><ellipse class="cls-105" cx="759.44" cy="360.89" rx="17.09" ry="6.72"/><ellipse class="cls-105" cx="763.14" cy="365.66" rx="17.09" ry="6.72"/><ellipse class="cls-105" cx="754.67" cy="368.31" rx="17.09" ry="6.72"/><ellipse class="cls-105" cx="874.51" cy="331.96" rx="17.09" ry="6.72"/><ellipse class="cls-105" cx="881.4" cy="333.23" rx="17.09" ry="6.72"/><ellipse class="cls-105" cx="871.09" cy="336.01" rx="17.09" ry="6.72"/><ellipse class="cls-105" cx="994.14" cy="361.64" rx="17.09" ry="6.72"/><ellipse class="cls-105" cx="1003.39" cy="361.52" rx="17.09" ry="6.72"/><ellipse class="cls-105" cx="993.53" cy="364.07" rx="17.09" ry="6.72"/><ellipse class="cls-105" cx="1154.47" cy="340.71" rx="17.09" ry="6.72"/><ellipse class="cls-105" cx="1158.18" cy="345.47" rx="17.09" ry="6.72"/><ellipse class="cls-105" cx="1163.84" cy="340.04" rx="17.09" ry="6.72"/><path class="cls-105" d="M1249.38,365.62c0-3.72,7.66-6.73,17.1-6.73s17.09,1,17.09,4.73-7.65,8.72-17.09,8.72S1249.38,369.33,1249.38,365.62Z"/><path class="cls-105" d="M1245.68,360.85c0-3.71,7.65-6.72,17.09-6.72s17.09,1,17.09,4.72-7.65,8.73-17.09,8.73S1245.68,364.56,1245.68,360.85Z"/><path class="cls-105" d="M1254.15,358.2c0-3.71,7.65-6.72,17.09-6.72s17.09,2,17.09,5.72-7.65,7.73-17.09,7.73S1254.15,361.92,1254.15,358.2Z"/><rect class="cls-106" x="1047.81" y="325.29" width="26.14" height="9.58" rx="4.36"/><rect class="cls-106" x="847.41" y="361.64" width="27.01" height="11.33" rx="4.36"/><rect class="cls-106" x="793.88" y="343.8" width="27.01" height="11.33" rx="4.36"/><path class="cls-107" d="M968.78,320.72c.5,8.25-20.52,11.36-28.77,11.85s-28.35.69-28.84-7.56,18.91-20.11,27.16-20.6S968.29,312.47,968.78,320.72Z"/><ellipse class="cls-92" cx="937.67" cy="321.52" rx="11.24" ry="7.8" transform="translate(-17.52 56.56) rotate(-3.42)"/><ellipse class="cls-92" cx="939.26" cy="318.87" rx="9.34" ry="7.8" transform="translate(-17.36 56.65) rotate(-3.42)"/><ellipse class="cls-92" cx="942.87" cy="322.22" rx="9.34" ry="7.8" transform="translate(-17.56 56.87) rotate(-3.42)"/><ellipse class="cls-92" cx="939.21" cy="322.53" rx="9.81" ry="7.8" transform="translate(-17.58 56.65) rotate(-3.42)"/><circle class="cls-93" cx="950.94" cy="315.06" r="0.36"/><circle class="cls-94" cx="925.26" cy="319.63" r="0.53"/><rect class="cls-46" x="933.65" y="306.97" width="3.61" height="1.49" rx="0.74" transform="translate(-47.57 249.23) rotate(-14.8)"/><rect class="cls-46" x="919.73" y="317.07" width="3.61" height="1.49" rx="0.74" transform="translate(72.23 796.27) rotate(-48.42)"/><circle class="cls-95" cx="919.39" cy="324.96" r="0.36"/><circle class="cls-93" cx="928.24" cy="314.01" r="0.94"/><ellipse class="cls-95" cx="954.59" cy="324.38" rx="0.6" ry="0.64" transform="translate(78.44 823.2) rotate(-48.42)"/><ellipse class="cls-96" cx="948.57" cy="310.5" rx="0.57" ry="0.55" transform="translate(86.8 814.03) rotate(-48.42)"/><circle class="cls-93" cx="924.11" cy="328.5" r="0.94"/><g class="cls-97"><path class="cls-107" d="M1228.61,274.28c1.62,8.11-18.77,14.06-26.88,15.68s-28,4.56-29.61-3.54,16-22.51,24.09-24.13S1227,266.17,1228.61,274.28Z"/><ellipse class="cls-92" cx="1197.9" cy="279.34" rx="11.24" ry="7.8" transform="translate(-31.51 240) rotate(-11.29)"/><ellipse class="cls-92" cx="1199.11" cy="276.49" rx="9.34" ry="7.8" transform="translate(-30.93 240.19) rotate(-11.29)"/><ellipse class="cls-92" cx="1203.15" cy="279.32" rx="9.34" ry="7.8" transform="translate(-31.4 241.03) rotate(-11.29)"/><ellipse class="cls-92" cx="1199.56" cy="280.13" rx="9.81" ry="7.8" transform="translate(-31.63 240.34) rotate(-11.29)"/><circle class="cls-93" cx="1210.16" cy="271.11" r="0.36"/><circle class="cls-94" cx="1185.34" cy="279.16" r="0.53"/><rect class="cls-46" x="1192.02" y="265.22" width="3.61" height="1.49" rx="0.74" transform="translate(-10.25 480.77) rotate(-22.67)"/><rect class="cls-46" x="1179.61" y="277.13" width="3.61" height="1.49" rx="0.74" transform="translate(294.64 1106.48) rotate(-56.29)"/><circle class="cls-95" cx="1180.27" cy="285.25" r="0.36"/><circle class="cls-93" cx="1187.53" cy="273.19" r="0.94"/><ellipse class="cls-95" cx="1215.05" cy="279.85" rx="0.6" ry="0.64" transform="translate(307.97 1135.34) rotate(-56.29)"/><ellipse class="cls-96" cx="1207.18" cy="266.92" rx="0.57" ry="0.55" transform="translate(315.22 1123.04) rotate(-56.29)"/><circle class="cls-93" cx="1185.42" cy="288.1" r="0.94"/></g><path class="cls-107" d="M1052.61,370.62c.28-4.05,33.61-8.22,41.32-7.74s26.37,2.56,25.89,10.27-35.51,13.56-43.21,13.08S1052.05,378.32,1052.61,370.62Z"/><ellipse class="cls-92" cx="1094.85" cy="373.39" rx="7.29" ry="10.5" transform="translate(654.92 1443.24) rotate(-86.48)"/><ellipse class="cls-92" cx="1093.08" cy="375.67" rx="7.29" ry="8.72" transform="translate(650.98 1443.61) rotate(-86.48)"/><ellipse class="cls-92" cx="1090.11" cy="372.15" rx="7.29" ry="8.72" transform="translate(651.7 1437.35) rotate(-86.48)"/><ellipse class="cls-92" cx="1093.54" cy="372.28" rx="7.29" ry="9.16" transform="translate(654.8 1440.88) rotate(-86.48)"/><circle class="cls-93" cx="1081.82" cy="377.89" r="0.34"/><circle class="cls-93" cx="1068.44" cy="370.42" r="0.34"/><circle class="cls-93" cx="1056.19" cy="371.75" r="0.34"/><circle class="cls-93" cx="1074.04" cy="382.6" r="0.34"/><circle class="cls-94" cx="1106.15" cy="376.55" r="0.5"/><rect class="cls-46" x="1068.93" y="376.29" width="3.37" height="1.39" rx="0.7" transform="matrix(-0.99, 0.14, -0.14, -0.99, 2182.72, 604.03)"/><rect class="cls-46" x="1074.74" y="365.87" width="3.37" height="1.39" rx="0.7" transform="translate(2125.68 -71.76) rotate(138.52)"/><circle class="cls-95" cx="1112.19" cy="372.26" r="0.34"/><circle class="cls-93" cx="1103.03" cy="366.15" r="0.88"/><ellipse class="cls-95" cx="1079.48" cy="368.83" rx="0.56" ry="0.6" transform="translate(26.44 807.49) rotate(-41.48)"/><ellipse class="cls-96" cx="1083.5" cy="382.38" rx="0.53" ry="0.52" transform="translate(18.47 813.55) rotate(-41.48)"/><ellipse class="cls-96" cx="1062.35" cy="371.4" rx="0.53" ry="0.52" transform="translate(20.44 796.79) rotate(-41.48)"/><ellipse class="cls-96" cx="1065.43" cy="380.15" rx="0.53" ry="0.52" transform="translate(15.42 801.02) rotate(-41.48)"/><circle class="cls-93" cx="1108.22" cy="368.45" r="0.88"/><path class="cls-74" d="M632.16,342.72h-5.9l-.19,0a2,2,0,0,0-.06,3.95h6.15Z"/><ellipse class="cls-75" cx="632.11" cy="344.68" rx="1.6" ry="1.97"/><path class="cls-46" d="M341,273.51l.85-4.34a16.91,16.91,0,0,1,19.81-13.31l15,2.95A16.89,16.89,0,0,1,390,278.61l-.85,4.34Z"/><path class="cls-25" d="M358.43,260a12.17,12.17,0,0,1,2.39.23l15,2.94a12.51,12.51,0,0,1,9.83,14.62h0L346.2,270h0a12.49,12.49,0,0,1,12.23-10m0-8.84h0a21.35,21.35,0,0,0-20.91,17.19l-1.7,8.68,8.68,1.7L384,286.44l8.67,1.7,1.7-8.68a21.32,21.32,0,0,0-16.8-25l-15-2.95a21.63,21.63,0,0,0-4.09-.39Z"/><path class="cls-46" d="M455.46,278.83A16.9,16.9,0,0,1,468.78,259l15-2.94a16.85,16.85,0,0,1,19.81,13.31l.85,4.34-48.15,9.44Z"/><path class="cls-25" d="M487,260.18a12.51,12.51,0,0,1,12.23,10.06h0L459.8,278a12.49,12.49,0,0,1,9.83-14.62l15-2.95a13,13,0,0,1,2.39-.23m0-8.84a21.64,21.64,0,0,0-4.09.4l-15,2.94a21.33,21.33,0,0,0-16.81,25l1.71,8.67,8.67-1.7L501,278.92l8.67-1.71-1.7-8.67a21.33,21.33,0,0,0-20.9-17.2Z"/><path class="cls-25" d="M438.1,383.31H410.7C394.55,383.31,374,353,374,336.79V289.64a29.47,29.47,0,0,1,29.38-29.38h42.09a29.46,29.46,0,0,1,29.37,29.38v47.15C474.82,353,454.26,383.31,438.1,383.31Z"/><path class="cls-108" d="M454,261.55a29.29,29.29,0,0,1,8,20.11v47.15c0,16.16-20.57,46.51-36.72,46.51h-27.4a15.47,15.47,0,0,1-4-.59c5.48,5.15,11.39,8.58,16.81,8.58h27.4c16.16,0,36.72-30.36,36.72-46.52V289.64A29.48,29.48,0,0,0,454,261.55Z"/><ellipse class="cls-46" cx="423.5" cy="392.49" rx="35.46" ry="16.25"/><path class="cls-43" d="M450.33,395.59c-12,6.19-41,4-53.92,0-11.28-3.47-20.22-9.1-20.22-20.22h0a20.28,20.28,0,0,1,20.22-20.22h53.92a20.28,20.28,0,0,1,20.22,20.22h0C470.55,386.49,462.13,389.49,450.33,395.59Z"/><path class="cls-109" d="M450.93,355.18A27.67,27.67,0,0,1,457,372.53h0c0,14.68-10.66,19.09-25.85,26.83,7.63-.3,14.61-1.43,19.14-3.77,11.8-6.1,20.22-9.1,20.22-20.22h0A20.27,20.27,0,0,0,450.93,355.18Z"/><path class="cls-46" d="M401.83,372.46a12.85,12.85,0,1,1,12.85-12.84A12.85,12.85,0,0,1,401.83,372.46Z"/><path class="cls-43" d="M401.83,349.83a9.79,9.79,0,1,1-9.78,9.79,9.79,9.79,0,0,1,9.78-9.79m0-6.12a15.91,15.91,0,1,0,15.91,15.91,15.93,15.93,0,0,0-15.91-15.91Z"/><path class="cls-46" d="M446.56,373.51a12.85,12.85,0,1,1,12.84-12.85A12.86,12.86,0,0,1,446.56,373.51Z"/><path class="cls-43" d="M446.56,350.88a9.79,9.79,0,1,1-9.79,9.78,9.78,9.78,0,0,1,9.79-9.78m0-6.12a15.91,15.91,0,1,0,15.9,15.9,15.93,15.93,0,0,0-15.9-15.9Z"/><path class="cls-109" d="M457.65,355.61a2.88,2.88,0,0,0-1.51,3.25A9.79,9.79,0,0,1,439,367.17a2.87,2.87,0,0,0-3.49-.83l-.3.14a2.83,2.83,0,0,0-1,4.28,15.78,15.78,0,0,0,27.73-13.44,2.83,2.83,0,0,0-4-1.86Z"/><circle class="cls-84" cx="395.55" cy="314.72" r="5.42"/><circle class="cls-84" cx="450.04" cy="313.8" r="5.42"/><path class="cls-43" d="M395.48,261c0-7.05,7.63-12.77,19.49-12.77s17.52,5.72,17.52,12.77"/><path class="cls-43" d="M416.16,260.76c0-7,7.12-12.76,15.89-12.76s15.88,5.71,15.88,12.76"/><path class="cls-43" d="M395.77,260.82s17.69,3.67,22,22.44c0,0,4.75-12.51-1.73-25"/><path class="cls-43" d="M415.41,261.25s12.51,5.4,14.24,13.81c0,0,7.77-11.65,4.1-17.91"/><path class="cls-43" d="M432,260.18s12.52,3.66,12.52,17c0,0,3.6-2.49,3.6-16.48"/><line class="cls-110" x1="478.87" y1="340.83" x2="566.76" y2="272.45"/><line class="cls-111" x1="534.51" y1="297.98" x2="560.87" y2="277"/><ellipse class="cls-112" cx="546.19" cy="278.18" rx="8.37" ry="8.81"/><ellipse class="cls-112" cx="557.62" cy="290.61" rx="8.37" ry="8.81"/><rect class="cls-81" x="561.95" y="268.04" width="12.23" height="5.81" rx="2.91" transform="translate(406.07 -337.22) rotate(49.58)"/><text class="cls-113" transform="translate(376.84 224.4)">biopsy</text><text class="cls-114" transform="translate(326 448.25)">(collecting a bit of<tspan x="59.18" y="33.6">muscle)</tspan></text><text class="cls-113" transform="translate(783.28 224.4)">Skeletal muscle or meat</text><path class="cls-112" d="M534.09,320.31c1.09,26.63,26.82,38.91,52.29,36.59"/><path class="cls-81" d="M603.2,353.15c-7.32,4.6-16.12,11.68-21.11,18.28l2-14.3-7.58-12.28C583.75,348.9,594.65,351.86,603.2,353.15Z"/><path class="cls-115" d="M639.8,345.41a10.41,10.41,0,0,1-10.41,10.4c-13.8-.55-13.79-20.26,0-20.81a10.41,10.41,0,0,1,10.41,10.41Z"/><line class="cls-116" x1="636.74" y1="330.56" x2="692.29" y2="257.32"/><line class="cls-116" x1="636.74" y1="358.94" x2="702.01" y2="443.8"/><line class="cls-117" x1="794.44" y1="458.85" x2="827.49" y2="361.77"/><line class="cls-117" x1="1140.11" y1="464.6" x2="1103.59" y2="382.08"/><line class="cls-117" x1="1254.29" y1="459.28" x2="1192.42" y2="416.6"/></g></svg>