<svg xmlns="http://www.w3.org/2000/svg" xmlns:xlink="http://www.w3.org/1999/xlink" viewBox="0 0 1173.45 769.24"><defs><style>.cls-1,.cls-54,.cls-55,.cls-57,.cls-58{fill:none;}.cls-2{fill:#faf4f1;}.cls-3{opacity:0.05;fill:url(#linear-gradient);}.cls-4{opacity:0.3;}.cls-5{fill:#eee6de;}.cls-11,.cls-12,.cls-13,.cls-6{fill:#eacece;}.cls-31,.cls-6{opacity:0.2;}.cls-7{fill:#e7d4cd;}.cls-13,.cls-29,.cls-58,.cls-7{opacity:0.5;}.cls-8{fill:#dbcde3;}.cls-9{fill:#ced2e9;}.cls-10{fill:#f7e2e6;}.cls-11,.cls-19,.cls-22,.cls-23,.cls-24,.cls-27{opacity:0.3;}.cls-14{fill:#eedeeb;}.cls-15{fill:#e7e8e7;}.cls-16{fill:#eee4db;}.cls-17,.cls-39{fill:#f9acbc;}.cls-17,.cls-30{opacity:0.8;}.cls-18,.cls-42{fill:#f6eaea;}.cls-18,.cls-25{opacity:0.7;}.cls-19,.cls-43{fill:#fab129;}.cls-20,.cls-48{fill:#a52b2e;}.cls-20,.cls-46{opacity:0.6;}.cls-21,.cls-46{fill:#ef7087;}.cls-22,.cls-44{fill:#5491c4;}.cls-23{fill:#ff7baa;}.cls-24,.cls-45{fill:#aa812e;}.cls-26,.cls-30{fill:#88caea;}.cls-27,.cls-28{fill:#edb68f;}.cls-32{fill:#ee5b72;}.cls-33{clip-path:url(#clip-path);}.cls-34{clip-path:url(#clip-path-2);}.cls-35{clip-path:url(#clip-path-3);}.cls-36,.cls-48{opacity:0.4;}.cls-37{clip-path:url(#clip-path-4);}.cls-38{clip-path:url(#clip-path-5);}.cls-40{fill:#f4d8a6;}.cls-41{fill:#efc178;}.cls-47{clip-path:url(#clip-path-6);}.cls-49{fill:#cb425c;}.cls-50{fill:#fff;}.cls-51{fill:#fcd8ba;}.cls-52{fill:#262262;}.cls-53{fill:#0e141d;stroke:#b1b1b1;stroke-width:3.52px;}.cls-53,.cls-54,.cls-55,.cls-57,.cls-58{stroke-miterlimit:10;}.cls-54,.cls-55,.cls-57,.cls-58{stroke:#0090bc;}.cls-54{stroke-width:14.09px;}.cls-55{stroke-width:5.28px;}.cls-56{fill:#0090bc;}.cls-57,.cls-58{stroke-width:1.76px;}.cls-57{stroke-dasharray:3.63 3.63;}.cls-58{stroke-dasharray:3.52;}</style><linearGradient id="linear-gradient" x1="881.29" y1="954.41" x2="881.29" y2="111.7" gradientUnits="userSpaceOnUse"><stop offset="0" stop-color="#fff" stop-opacity="0"/><stop offset="0.04" stop-color="#d3ecf3" stop-opacity="0.17"/><stop offset="0.09" stop-color="#a1d6e6" stop-opacity="0.37"/><stop offset="0.14" stop-color="#75c3db" stop-opacity="0.54"/><stop offset="0.21" stop-color="#51b3d1" stop-opacity="0.68"/><stop offset="0.28" stop-color="#33a6c9" stop-opacity="0.8"/><stop offset="0.36" stop-color="#1c9cc3" stop-opacity="0.89"/><stop offset="0.46" stop-color="#0c95bf" stop-opacity="0.95"/><stop offset="0.6" stop-color="#0391bd" stop-opacity="0.99"/><stop offset="1" stop-color="#0090bc"/></linearGradient><clipPath id="clip-path"><path class="cls-1" d="M598.26,186.69c8,.22,71.65,2.68,77.54,2.67s47.69,3.05,53.22,3.37,40.78,2.66,42.06,4.47,2.33,7.76,1.81,10.86-1.16,8.26-3,9.2-38.64-3.58-46.62-3.69-65.06-2.65-71.28-3-63-1.5-64.77-1.6-7,.64-9-.86-2.2-10.18-2-12.95a14,14,0,0,1,3.64-7.84C581.33,186.13,590.24,186.48,598.26,186.69Z"/></clipPath><clipPath id="clip-path-2"><path class="cls-1" d="M769.41,210.13c7.76-1.77,70.06-15.25,75.76-16.73s47-8.92,52.39-10,40.16-7.58,41.85-6.15,4.19,6.94,4.46,10.06.93,8.29-.57,9.64-38.32,6.16-46.07,8-63.67,13.63-69.78,14.84S766,234.09,764.32,234.43s-6.59,2.36-8.9,1.4-4.66-9.32-5.2-12a14,14,0,0,1,1.58-8.5C752.87,213.8,761.59,211.92,769.41,210.13Z"/></clipPath><clipPath id="clip-path-3"><path class="cls-1" d="M720.52,112.25c7.78,1.7,69.89,16,75.68,17.1s46.28,11.91,51.66,13.25,39.56,10.23,40.49,12.25.84,8.06-.25,11-2.68,7.9-4.62,8.48-37.3-10.73-45.11-12.33S775,147.25,768.91,145.74s-61.65-13.24-63.33-13.66-7-.67-8.65-2.52-.26-10.41.41-13.1a14,14,0,0,1,5-7C704,108.53,712.68,110.54,720.52,112.25Z"/></clipPath><clipPath id="clip-path-4"><path class="cls-1" d="M737,149.58c11.18-2.42,100.83-20.77,109.05-22.81s67.56-12.06,75.38-13.51S979.2,103,981.61,105.1s5.91,10,6.24,14.52,1.2,11.91-1,13.84-55.12,8.23-66.27,10.81S829,162.82,820.18,164.45s-88.43,19.48-90.87,19.93-9.5,3.28-12.8,1.87-6.55-13.45-7.27-17.36.83-10,2.4-12.18S725.74,152,737,149.58Z"/></clipPath><clipPath id="clip-path-5"><path class="cls-1" d="M524.25,133.78c11.37,1.25,102.22,12.28,110.66,13s67.89,10,75.77,11.09,58,8.61,59.67,11.35,2.43,11.38,1.31,15.75-2.64,11.68-5.31,12.81-54.88-9.68-66.28-10.77-92.79-11.46-101.65-12.7-90-9.57-92.5-9.92-10.06.1-12.74-2.28-1.94-14.83-1.39-18.77,4-9.25,6.14-10.79S512.8,132.53,524.25,133.78Z"/></clipPath><clipPath id="clip-path-6"><path class="cls-1" d="M538.29,148.53c21.89-.47,197.12-2.78,213.31-3.47s131.41.69,146.65.69,112.37.69,116.18,4.16,7.62,15.27,6.67,21.52-1.9,16.66-6.67,18.74-106.65-2.78-128.56-2.08-179,2.08-196.17,2.08-173.31,4.16-178.07,4.16-19,2.08-24.76-.69-7.62-20.13-7.62-25.68,5.08-13.56,8.78-16.1S516.25,149,538.29,148.53Z"/></clipPath></defs><title>Preview</title><g id="Background"><rect class="cls-2" x="-68.13" y="-18.22" width="1882.02" height="812.1"/><rect class="cls-3" x="-27.22" y="-35.25" width="1817.02" height="842.71" rx="69.18" ry="69.18"/></g><g id="Additional_stuff" data-name="Additional stuff" class="cls-4"><circle class="cls-5" cx="-8.96" cy="427.63" r="21.8"/><circle class="cls-6" cx="516.2" cy="578.03" r="5.19"/><circle class="cls-6" cx="452.34" cy="718.95" r="7.27"/><circle class="cls-7" cx="207.64" cy="543.83" r="19.72"/><circle class="cls-8" cx="152.96" cy="782.07" r="14.53"/><circle class="cls-9" cx="494.81" cy="603.38" r="10.83"/><circle class="cls-10" cx="653.12" cy="215.16" r="21.8"/><circle class="cls-11" cx="556.5" cy="607.29" r="11.42"/><circle class="cls-12" cx="252.86" cy="764.19" r="8.31"/><circle class="cls-6" cx="367.57" cy="634.28" r="7.27"/><circle class="cls-13" cx="606.32" cy="310.02" r="19.72"/><circle class="cls-14" cx="211.24" cy="72.39" r="14.53"/><circle class="cls-15" cx="1054.07" cy="247.87" r="21.8" transform="translate(-28.62 231.2) rotate(-12.35)"/><circle class="cls-11" cx="956.1" cy="206.05" r="11.42" transform="translate(-21.95 209.28) rotate(-12.35)"/><circle class="cls-11" cx="11.14" cy="73.79" r="11.42" transform="translate(-62.15 59.7) rotate(-70.53)"/><circle class="cls-6" cx="4.68" cy="142.58" r="5.19" transform="translate(-131.3 99.47) rotate(-70.53)"/><circle class="cls-6" cx="551.38" cy="119.78" r="7.27" transform="translate(-12.86 120.71) rotate(-12.35)"/><circle class="cls-11" cx="857.19" cy="708.17" r="11.42"/><circle class="cls-6" cx="1046.13" cy="681.18" r="7.27"/><circle class="cls-14" cx="985.8" cy="490.8" r="14.53"/><circle class="cls-12" cx="514.76" cy="257.03" r="8.31"/><circle class="cls-10" cx="397.16" cy="386.74" r="21.8"/><circle class="cls-16" cx="177.73" cy="373.92" r="21.8" transform="translate(-234.05 416.86) rotate(-70.53)"/><circle class="cls-6" cx="231.5" cy="209.4" r="5.19" transform="translate(-43.09 357.88) rotate(-70.53)"/><circle class="cls-6" cx="141.8" cy="216.02" r="7.27" transform="translate(-109.13 277.72) rotate(-70.53)"/><circle class="cls-15" cx="61.67" cy="375.12" r="21.8" transform="translate(-78.81 21.87) rotate(-12.35)"/><circle class="cls-15" cx="332.71" cy="273.43" r="21.8" transform="translate(-50.79 77.49) rotate(-12.35)"/><circle class="cls-15" cx="684.42" cy="408.97" r="21.8" transform="translate(-71.64 155.86) rotate(-12.35)"/><circle class="cls-6" cx="645.65" cy="414.04" r="7.27" transform="translate(-73.62 147.69) rotate(-12.35)"/></g><g id="How"><g id="step2"><path class="cls-17" d="M490,575.83c-4.77,18.47-53.12,10.38-71.6,5.61s-62.75-18.62-58-37.09,55.8-30.73,74.27-26S494.77,557.36,490,575.83Z"/><ellipse class="cls-18" cx="421.11" cy="555.5" rx="18" ry="25.94" transform="translate(-222.1 824.21) rotate(-75.51)"/><ellipse class="cls-18" cx="426.48" cy="550.8" rx="18" ry="21.55" transform="translate(-213.51 825.88) rotate(-75.51)"/><ellipse class="cls-18" cx="432.02" cy="560.73" rx="18" ry="21.55" transform="translate(-218.97 838.69) rotate(-75.51)"/><ellipse class="cls-18" cx="423.77" cy="558.82" rx="18" ry="22.63" transform="matrix(0.25, -0.97, 0.97, 0.25, -223.31, 829.27)"/><circle class="cls-19" cx="454.83" cy="550.72" r="0.84" transform="translate(-203.88 826.87) rotate(-73.19)"/><circle class="cls-20" cx="395.19" cy="542.52" r="1.23" transform="translate(-260.9 684.12) rotate(-66.11)"/><rect class="cls-21" x="421.89" y="521.89" width="8.32" height="3.43" rx="1.72" ry="1.72" transform="matrix(1, 0.05, -0.05, 1, 29.04, -22.35)"/><rect class="cls-21" x="384.14" y="534.19" width="8.32" height="3.43" rx="1.72" ry="1.72" transform="translate(-218.31 271.32) rotate(-30.51)"/><circle class="cls-22" cx="378.53" cy="550.09" r="0.84" transform="translate(-257.51 753.38) rotate(-73.19)"/><circle class="cls-23" cx="405.73" cy="532.31" r="2.18" transform="translate(-211.17 791.94) rotate(-75.51)"/><ellipse class="cls-22" cx="456.24" cy="573.78" rx="1.38" ry="1.48" transform="translate(-228.13 311.06) rotate(-30.51)"/><ellipse class="cls-24" cx="452.86" cy="539.02" rx="1.32" ry="1.28" transform="translate(-210.95 304.53) rotate(-30.51)"/><circle class="cls-23" cx="386.37" cy="561.19" r="2.18" transform="translate(-231.4 273.84) rotate(-30.51)"/></g><g id="step1"><g id="Layer_49" data-name="Layer 49"><g class="cls-25"><path class="cls-26" d="M546.06,367.69c.91,10.33-14.31,23-24.64,23.89S479.5,395.37,478.6,385s18.4-27.74,28.73-28.65S545.16,357.36,546.06,367.69Z"/><ellipse class="cls-18" cx="515.33" cy="372.23" rx="14.1" ry="9.78" transform="translate(-30.56 46.46) rotate(-5.01)"/><ellipse class="cls-18" cx="513.61" cy="376.36" rx="11.71" ry="9.78" transform="matrix(1, -0.09, 0.09, 1, -30.93, 46.33)"/><ellipse class="cls-18" cx="512.64" cy="370.87" rx="11.71" ry="9.78" transform="matrix(1, -0.09, 0.09, 1, -30.45, 46.22)"/><ellipse class="cls-18" cx="521.16" cy="373.06" rx="12.3" ry="9.78" transform="translate(-30.61 46.97) rotate(-5.01)"/><circle class="cls-19" cx="528.12" cy="371.18" r="0.46" transform="matrix(1, -0.05, 0.05, 1, -16.89, 25.27)"/><circle class="cls-27" cx="496.08" cy="377.8" r="0.67" transform="translate(81.44 843.53) rotate(-85.61)"/><rect class="cls-28" x="506.19" y="361.58" width="4.52" height="1.87" rx="0.93" ry="0.93" transform="translate(-81.65 158.26) rotate(-16.39)"/><rect class="cls-28" x="489.09" y="374.73" width="4.52" height="1.87" rx="0.93" ry="0.93" transform="translate(-112.23 510.73) rotate(-50.01)"/><circle class="cls-22" cx="488.92" cy="384.7" r="0.46" transform="translate(-17.57 23.44) rotate(-2.7)"/><circle class="cls-19" cx="499.63" cy="370.66" r="1.18" transform="translate(-30.48 45.08) rotate(-5.01)"/><ellipse class="cls-22" cx="533.03" cy="382.74" rx="0.75" ry="0.8" transform="translate(-102.75 545.19) rotate(-50.01)"/><ellipse class="cls-24" cx="524.99" cy="365.54" rx="0.72" ry="0.69" transform="translate(-92.45 532.89) rotate(-50.01)"/><circle class="cls-19" cx="494.95" cy="388.96" r="1.18" transform="translate(-121.13 518.24) rotate(-50.01)"/></g><g class="cls-29"><path class="cls-26" d="M638.9,333c.53,6-8.32,13.35-14.32,13.88s-24.36,2.2-24.89-3.8,10.69-16.12,16.7-16.65S638.38,327,638.9,333Z"/><ellipse class="cls-18" cx="621.04" cy="335.68" rx="8.19" ry="5.69" transform="matrix(1, -0.09, 0.09, 1, -26.96, 55.56)"/><ellipse class="cls-18" cx="620.04" cy="338.08" rx="6.81" ry="5.69" transform="translate(-27.17 55.48) rotate(-5.01)"/><ellipse class="cls-18" cx="619.48" cy="334.89" rx="6.81" ry="5.69" transform="translate(-26.9 55.42) rotate(-5.01)"/><ellipse class="cls-18" cx="624.43" cy="336.16" rx="7.15" ry="5.69" transform="matrix(1, -0.09, 0.09, 1, -26.99, 55.86)"/><circle class="cls-19" cx="628.47" cy="335.07" r="0.27" transform="translate(-15.07 29.95) rotate(-2.7)"/><circle class="cls-27" cx="609.85" cy="338.92" r="0.39" transform="translate(225.28 921.06) rotate(-85.61)"/><rect class="cls-28" x="615.73" y="329.49" width="2.63" height="1.08" rx="0.54" ry="0.54" transform="translate(-68.06 187.59) rotate(-16.39)"/><rect class="cls-28" x="605.79" y="337.13" width="2.63" height="1.08" rx="0.54" ry="0.54" transform="translate(-41.75 585.85) rotate(-50.01)"/><circle class="cls-22" cx="605.69" cy="342.93" r="0.27" transform="translate(-15.47 28.89) rotate(-2.7)"/><circle class="cls-19" cx="611.92" cy="334.77" r="0.69" transform="translate(-26.92 54.76) rotate(-5.01)"/><ellipse class="cls-22" cx="631.33" cy="341.79" rx="0.44" ry="0.47" transform="translate(-36.24 605.88) rotate(-50.01)"/><ellipse class="cls-24" cx="626.65" cy="331.79" rx="0.42" ry="0.4" transform="translate(-30.26 598.72) rotate(-50.01)"/><circle class="cls-19" cx="609.2" cy="345.4" r="0.69" transform="translate(-46.92 590.21) rotate(-50.01)"/></g><g class="cls-29"><path class="cls-26" d="M663.59,384.17c-1.8,7.45-21.29,4.5-28.74,2.7s-25.34-7.09-23.53-14.55,22.23-12.7,29.69-10.9S665.39,376.71,663.59,384.17Z"/><ellipse class="cls-18" cx="647.17" cy="377.93" rx="10.43" ry="7.24" transform="translate(-79.8 195.78) rotate(-16.22)"/><ellipse class="cls-18" cx="646.94" cy="376.08" rx="7.24" ry="8.66" transform="translate(129.28 916.45) rotate(-76.4)"/><ellipse class="cls-18" cx="648.8" cy="377.17" rx="7.24" ry="8.66" transform="translate(129.64 919.09) rotate(-76.4)"/><circle class="cls-19" cx="649.3" cy="374.3" r="0.34" transform="translate(111.29 896.06) rotate(-74.08)"/><circle class="cls-27" cx="625.28" cy="371.37" r="0.49" transform="translate(39.1 801.82) rotate(-67)"/><rect class="cls-28" x="635.89" y="362.89" width="3.35" height="1.38" rx="0.69" ry="0.69" transform="translate(14.56 -24.41) rotate(2.22)"/><rect class="cls-28" x="620.79" y="368.07" width="3.35" height="1.38" rx="0.69" ry="0.69" transform="translate(-100.97 378.31) rotate(-31.4)"/><circle class="cls-22" cx="618.63" cy="374.52" r="0.34" transform="translate(88.82 866.72) rotate(-74.08)"/><circle class="cls-19" cx="629.45" cy="367.2" r="0.88" transform="translate(124.53 892.66) rotate(-76.4)"/><ellipse class="cls-22" cx="650.01" cy="383.56" rx="0.56" ry="0.59" transform="translate(-104.64 394.83) rotate(-31.4)"/><ellipse class="cls-24" cx="648.43" cy="369.61" rx="0.53" ry="0.51" transform="matrix(0.85, -0.52, 0.52, 0.85, -97.61, 391.97)"/><circle class="cls-19" cx="621.85" cy="378.93" r="0.88" transform="translate(-106.36 379.48) rotate(-31.4)"/></g><path class="cls-30" d="M817.93,574.2c-4.77,18.47-53.12,10.38-71.6,5.61s-62.75-18.62-58-37.09,55.8-30.73,74.27-26S822.71,555.73,817.93,574.2Z"/><ellipse class="cls-18" cx="749.04" cy="553.88" rx="18" ry="25.94" transform="matrix(0.25, -0.97, 0.97, 0.25, 25.35, 1140.49)"/><ellipse class="cls-18" cx="754.42" cy="549.17" rx="18" ry="21.55" transform="translate(33.94 1142.16) rotate(-75.51)"/><ellipse class="cls-18" cx="759.96" cy="559.1" rx="18" ry="21.55" transform="matrix(0.25, -0.97, 0.97, 0.25, 28.48, 1154.97)"/><ellipse class="cls-18" cx="751.7" cy="557.19" rx="18" ry="22.63" transform="matrix(0.25, -0.97, 0.97, 0.25, 24.14, 1145.55)"/><circle class="cls-19" cx="782.76" cy="549.09" r="0.84" transform="translate(30.79 1139.64) rotate(-73.19)"/><circle class="cls-27" cx="723.13" cy="540.9" r="1.23" transform="translate(-64.3 982.98) rotate(-66.11)"/><rect class="cls-21" x="749.82" y="520.26" width="8.32" height="3.43" rx="1.72" ry="1.72" transform="translate(29.43 -40.14) rotate(3.11)"/><rect class="cls-21" x="712.08" y="532.57" width="8.32" height="3.43" rx="1.72" ry="1.72" transform="translate(-172.08 437.58) rotate(-30.51)"/><circle class="cls-22" cx="706.47" cy="548.46" r="0.84" transform="translate(-22.84 1066.15) rotate(-73.19)"/><circle class="cls-23" cx="733.67" cy="530.69" r="2.18" transform="translate(36.28 1108.22) rotate(-75.51)"/><ellipse class="cls-22" cx="784.17" cy="572.16" rx="1.38" ry="1.48" transform="translate(-181.9 477.31) rotate(-30.51)"/><ellipse class="cls-24" cx="780.79" cy="537.4" rx="1.32" ry="1.28" transform="translate(-164.72 470.79) rotate(-30.51)"/><circle class="cls-23" cx="714.31" cy="559.56" r="2.18" transform="translate(-185.18 440.1) rotate(-30.51)"/><path class="cls-30" d="M645.7,400.9c-4.77,18.47-53.12,10.38-71.6,5.61s-62.75-18.62-58-37.09,55.8-30.73,74.27-26S650.47,382.43,645.7,400.9Z"/><ellipse class="cls-18" cx="576.81" cy="380.58" rx="18" ry="25.94" transform="matrix(0.25, -0.97, 0.97, 0.25, 64, 843.81)"/><ellipse class="cls-18" cx="582.18" cy="375.87" rx="18" ry="21.55" transform="translate(72.59 845.48) rotate(-75.51)"/><ellipse class="cls-18" cx="587.73" cy="385.8" rx="18" ry="21.55" transform="matrix(0.25, -0.97, 0.97, 0.25, 67.13, 858.29)"/><ellipse class="cls-18" cx="579.47" cy="383.89" rx="18" ry="22.63" transform="matrix(0.25, -0.97, 0.97, 0.25, 62.79, 848.87)"/><circle class="cls-19" cx="610.53" cy="375.79" r="0.84" transform="translate(74.25 851.58) rotate(-73.19)"/><circle class="cls-27" cx="550.89" cy="367.6" r="1.23" transform="translate(-8.33 722.4) rotate(-66.11)"/><rect class="cls-21" x="577.59" y="346.97" width="8.32" height="3.43" rx="1.72" ry="1.72" transform="translate(19.78 -31.05) rotate(3.11)"/><rect class="cls-21" x="539.84" y="359.27" width="8.32" height="3.43" rx="1.72" ry="1.72" transform="translate(-107.95 326.15) rotate(-30.51)"/><circle class="cls-22" cx="534.23" cy="375.16" r="0.84" transform="translate(20.62 778.09) rotate(-73.19)"/><circle class="cls-23" cx="561.44" cy="357.39" r="2.18" transform="translate(74.93 811.53) rotate(-75.51)"/><ellipse class="cls-22" cx="611.94" cy="398.86" rx="1.38" ry="1.48" transform="translate(-117.77 365.88) rotate(-30.51)"/><ellipse class="cls-24" cx="608.56" cy="364.1" rx="1.32" ry="1.28" transform="translate(-100.59 359.36) rotate(-30.51)"/><circle class="cls-23" cx="542.07" cy="386.26" r="2.18" transform="translate(-121.04 328.67) rotate(-30.51)"/></g><g id="Layer_92" data-name="Layer 92" class="cls-31"><path class="cls-32" d="M598.26,186.69c8,.22,71.65,2.68,77.54,2.67s47.69,3.05,53.22,3.37,40.78,2.66,42.06,4.47,2.33,7.76,1.81,10.86-1.16,8.26-3,9.2-38.64-3.58-46.62-3.69-65.06-2.65-71.28-3-63-1.5-64.77-1.6-7,.64-9-.86-2.2-10.18-2-12.95a14,14,0,0,1,3.64-7.84C581.33,186.13,590.24,186.48,598.26,186.69Z"/><g class="cls-33"><path class="cls-21" d="M591.15,218.47l-7-.4s-1.18-16.64-.83-22.15c.45-6.93,3.41-23.3,3.41-23.3l7,.4s-2.92,15.58-3.42,23.47A140.07,140.07,0,0,0,591.15,218.47Z"/><path class="cls-21" d="M606.31,220.14l-7-.4s-.49-16.61-.13-22.11c.45-6.93,2.71-23.34,2.71-23.34l7,.4s-2.21,16.58-2.72,23.51C605.76,203.66,606.31,220.14,606.31,220.14Z"/><path class="cls-21" d="M623,220.5l-7-.4s-.49-16.61-.13-22.11c.45-6.93,2.71-23.34,2.71-23.34l7,.4s-2.21,16.58-2.72,23.51C622.42,204,623,220.5,623,220.5Z"/><path class="cls-21" d="M639.84,221.24l-7-.4s-.49-16.61-.13-22.11c.45-6.93,2.71-23.34,2.71-23.34l7,.4s-2.21,16.58-2.72,23.51C639.3,204.76,639.84,221.24,639.84,221.24Z"/><path class="cls-21" d="M655,222.9l-7-.4s.2-16.57.56-22.07c.45-6.93,2-23.38,2-23.38l7,.4s-1.52,16.62-2,23.55C655.15,206.46,655,222.9,655,222.9Z"/><path class="cls-21" d="M671.67,223.27l-7-.4s.2-16.57.56-22.07c.45-6.93,2-23.38,2-23.38l7,.4s-1.52,16.62-2,23.55C671.81,206.83,671.67,223.27,671.67,223.27Z"/><path class="cls-21" d="M762.28,183.84l7,.4s1.13,14.36.83,22.15c-.4,10.06-3.41,23.3-3.41,23.3l-7-.4s2.69-15,3.42-23.47C763.76,198.33,762.28,183.84,762.28,183.84Z"/><path class="cls-21" d="M747.12,182.18l7,.4s.49,16.61.13,22.11c-.45,6.93-2.71,23.34-2.71,23.34l-7-.4s2.21-16.58,2.72-23.51C747.67,198.66,747.12,182.18,747.12,182.18Z"/><path class="cls-21" d="M730.46,181.81l7,.4s.49,16.61.13,22.11c-.45,6.93-2.71,23.34-2.71,23.34l-7-.4s2.21-16.58,2.72-23.51C731,198.29,730.46,181.81,730.46,181.81Z"/><path class="cls-21" d="M713.58,181.08l7,.4s.49,16.61.13,22.11c-.45,6.93-2.71,23.34-2.71,23.34l-7-.4s2.21-16.58,2.72-23.51C714.13,197.56,713.58,181.08,713.58,181.08Z"/><path class="cls-21" d="M698.42,179.41l7,.4s-.2,16.57-.56,22.07c-.45,6.93-2,23.38-2,23.38l-7-.4s1.52-16.62,2-23.55C698.27,195.85,698.42,179.41,698.42,179.41Z"/><path class="cls-21" d="M681.76,179l7,.4s-.2,16.57-.56,22.07c-.45,6.93-2,23.38-2,23.38l-7-.4s1.52-16.62,2-23.55C681.62,195.49,681.76,179,681.76,179Z"/></g><path class="cls-32" d="M769.41,210.13c7.76-1.77,70.06-15.25,75.76-16.73s47-8.92,52.39-10,40.16-7.58,41.85-6.15,4.19,6.94,4.46,10.06.93,8.29-.57,9.64-38.32,6.16-46.07,8-63.67,13.63-69.78,14.84S766,234.09,764.32,234.43s-6.59,2.36-8.9,1.4-4.66-9.32-5.2-12a14,14,0,0,1,1.58-8.5C752.87,213.8,761.59,211.92,769.41,210.13Z"/><g class="cls-34"><path class="cls-21" d="M770.43,242.68,763.51,244s-5.29-15.83-6.32-21.25c-1.29-6.83-2.5-23.42-2.5-23.42l6.92-1.37s1.05,15.82,2.54,23.59A140.07,140.07,0,0,0,770.43,242.68Z"/><path class="cls-21" d="M785.53,240.52l-6.92,1.37s-4.61-16-5.64-21.38c-1.29-6.83-3.18-23.28-3.18-23.28l6.92-1.37s2,16.61,3.22,23.45C780.9,224.69,785.53,240.52,785.53,240.52Z"/><path class="cls-21" d="M801.76,236.72l-6.92,1.37s-4.61-16-5.64-21.38c-1.29-6.83-3.18-23.28-3.18-23.28l6.92-1.37s2,16.61,3.22,23.45C797.12,220.9,801.76,236.72,801.76,236.72Z"/><path class="cls-21" d="M818.28,233.23l-6.92,1.37s-4.61-16-5.64-21.38c-1.29-6.83-3.18-23.28-3.18-23.28l6.92-1.37s2,16.61,3.22,23.45C813.65,217.41,818.28,233.23,818.28,233.23Z"/><path class="cls-21" d="M833.38,231.06l-6.92,1.37s-3.93-16.09-5-21.51c-1.29-6.83-3.86-23.15-3.86-23.15l6.92-1.37s2.67,16.48,3.9,23.32C829.43,215.11,833.38,231.06,833.38,231.06Z"/><path class="cls-21" d="M849.61,227.27l-6.92,1.37s-3.93-16.09-5-21.51c-1.29-6.83-3.86-23.15-3.86-23.15l6.92-1.37s2.67,16.48,3.9,23.32C845.65,211.31,849.61,227.27,849.61,227.27Z"/><path class="cls-21" d="M927.55,166.52l6.92-1.37s4.68,13.63,6.32,21.25c2.12,9.84,2.5,23.42,2.5,23.42l-6.92,1.37s-1.13-15.21-2.54-23.59C932.59,180.18,927.55,166.52,927.55,166.52Z"/><path class="cls-21" d="M912.45,168.68l6.92-1.37s4.61,16,5.64,21.38c1.29,6.83,3.18,23.28,3.18,23.28l-6.92,1.37s-2-16.61-3.22-23.45C917.08,184.5,912.45,168.68,912.45,168.68Z"/><path class="cls-21" d="M896.22,172.48l6.92-1.37s4.61,16,5.64,21.38c1.29,6.83,3.18,23.28,3.18,23.28L905,217.14s-2-16.61-3.22-23.45C900.86,188.3,896.22,172.48,896.22,172.48Z"/><path class="cls-21" d="M879.7,176l6.92-1.37s4.61,16,5.64,21.38c1.29,6.83,3.18,23.28,3.18,23.28l-6.92,1.37s-2-16.61-3.22-23.45C884.33,191.79,879.7,176,879.7,176Z"/><path class="cls-21" d="M864.6,178.13l6.92-1.37s3.93,16.09,5,21.51c1.29,6.83,3.86,23.15,3.86,23.15l-6.92,1.37s-2.67-16.48-3.9-23.32C868.55,194.09,864.6,178.13,864.6,178.13Z"/><path class="cls-21" d="M848.37,181.93l6.92-1.37s3.93,16.09,5,21.51c1.29,6.83,3.86,23.15,3.86,23.15l-6.92,1.37s-2.67-16.48-3.9-23.32C852.32,197.89,848.37,181.93,848.37,181.93Z"/></g><path class="cls-32" d="M720.52,112.25c7.78,1.7,69.89,16,75.68,17.1s46.28,11.91,51.66,13.25,39.56,10.23,40.49,12.25.84,8.06-.25,11-2.68,7.9-4.62,8.48-37.3-10.73-45.11-12.33S775,147.25,768.91,145.74s-61.65-13.24-63.33-13.66-7-.67-8.65-2.52-.26-10.41.41-13.1a14,14,0,0,1,5-7C704,108.53,712.68,110.54,720.52,112.25Z"/><g class="cls-35"><path class="cls-21" d="M707.59,142.14l-6.85-1.71s1.95-16.57,3.32-21.91c1.73-6.73,7.7-22.26,7.7-22.26L718.61,98s-5.78,14.76-7.74,22.42A140.07,140.07,0,0,0,707.59,142.14Z"/><path class="cls-21" d="M722.18,146.61l-6.85-1.71s2.62-16.4,4-21.75c1.73-6.73,7-22.42,7-22.42l6.85,1.71s-5.27,15.88-7.07,22.59C724.71,130.32,722.18,146.61,722.18,146.61Z"/><path class="cls-21" d="M738.47,150.08l-6.85-1.71s2.62-16.4,4-21.75c1.73-6.73,7-22.42,7-22.42l6.85,1.71s-5.27,15.88-7.07,22.59C741,133.79,738.47,150.08,738.47,150.08Z"/><path class="cls-21" d="M754.92,153.95l-6.85-1.71s2.62-16.4,4-21.75c1.73-6.73,7-22.42,7-22.42l6.85,1.71s-5.27,15.88-7.07,22.59C757.46,137.66,754.92,153.95,754.92,153.95Z"/><path class="cls-21" d="M769.5,158.42l-6.85-1.71s3.29-16.24,4.67-21.58c1.73-6.73,6.35-22.59,6.35-22.59l6.85,1.71s-4.6,16-6.39,22.76C772.71,142.29,769.5,158.42,769.5,158.42Z"/><path class="cls-21" d="M785.8,161.89,779,160.18s3.29-16.24,4.67-21.58C785.36,131.87,790,116,790,116l6.85,1.71s-4.6,16-6.39,22.76C789,145.76,785.8,161.89,785.8,161.89Z"/><path class="cls-21" d="M882.18,140.08l6.85,1.71s-1.57,14.32-3.32,21.91C883.44,173.51,878,186,878,186l-6.85-1.71s5.45-14.25,7.74-22.42C880.93,154.58,882.18,140.08,882.18,140.08Z"/><path class="cls-21" d="M867.6,135.61l6.85,1.71s-2.62,16.4-4,21.75c-1.73,6.73-7,22.42-7,22.42l-6.85-1.71s5.27-15.88,7.07-22.59C865.06,151.9,867.6,135.61,867.6,135.61Z"/><path class="cls-21" d="M851.3,132.14l6.85,1.71s-2.62,16.4-4,21.75c-1.73,6.73-7,22.42-7,22.42l-6.85-1.71s5.27-15.88,7.07-22.59C848.76,148.43,851.3,132.14,851.3,132.14Z"/><path class="cls-21" d="M834.86,128.27,841.7,130s-2.62,16.4-4,21.75c-1.73,6.73-7,22.42-7,22.42l-6.85-1.71s5.27-15.88,7.07-22.59C832.32,144.56,834.86,128.27,834.86,128.27Z"/><path class="cls-21" d="M820.27,123.8l6.85,1.71s-3.29,16.24-4.67,21.58c-1.73,6.73-6.35,22.59-6.35,22.59L809.25,168s4.6-16,6.39-22.76C817.06,139.92,820.27,123.8,820.27,123.8Z"/><path class="cls-21" d="M804,120.33l6.85,1.71s-3.29,16.24-4.67,21.58c-1.73,6.73-6.35,22.59-6.35,22.59L793,164.5s4.6-16,6.39-22.76C800.76,136.45,804,120.33,804,120.33Z"/></g></g><g id="Layer_91" data-name="Layer 91" class="cls-36"><path class="cls-32" d="M737,149.78c11.17-2.44,100.8-21,109-23s67.53-12.18,75.35-13.65,57.76-10.34,60.17-8.27,5.93,10,6.27,14.51,1.23,11.91-.94,13.84-55.1,8.33-66.25,10.93-91.6,18.72-100.4,20.38-88.39,19.64-90.84,20.1-9.5,3.3-12.8,1.9-6.57-13.44-7.31-17.35.81-10,2.38-12.18S725.75,152.24,737,149.78Z"/><g class="cls-37"><path class="cls-21" d="M737.94,196.33l-10,1.85s-7.34-22.81-8.73-30.61c-1.75-9.82-3.22-33.66-3.22-33.66l10-1.85s1.25,22.73,3.27,33.91C731.83,180.26,737.94,196.33,737.94,196.33Z"/><path class="cls-21" d="M759.66,193.46l-10,1.85s-6.36-23-7.75-30.79c-1.75-9.82-4.2-33.48-4.2-33.48l10-1.85s2.59,23.88,4.24,33.72C753.26,170.67,759.66,193.46,759.66,193.46Z"/><path class="cls-21" d="M783,188.28l-10,1.85s-6.36-23-7.75-30.79c-1.75-9.82-4.2-33.48-4.2-33.48l10-1.85s2.59,23.88,4.24,33.72C776.61,165.48,783,188.28,783,188.28Z"/><path class="cls-21" d="M806.8,183.52l-10,1.85s-6.36-23-7.75-30.79c-1.75-9.82-4.2-33.48-4.2-33.48l10-1.85s2.59,23.88,4.24,33.72C800.4,160.73,806.8,183.52,806.8,183.52Z"/><path class="cls-21" d="M828.52,180.66l-10,1.85s-5.38-23.17-6.77-31c-1.75-9.82-5.18-33.3-5.18-33.3l10-1.85s3.57,23.7,5.22,33.54C823.1,157.68,828.52,180.66,828.52,180.66Z"/><path class="cls-21" d="M851.88,175.47l-10,1.85s-5.38-23.17-6.77-31c-1.75-9.82-5.18-33.3-5.18-33.3l10-1.85s3.57,23.7,5.22,33.54C846.45,152.49,851.88,175.47,851.88,175.47Z"/><path class="cls-21" d="M964.76,89.49l10-1.85s6.49,19.65,8.73,30.61c2.89,14.17,3.22,33.66,3.22,33.66l-10,1.85s-1.38-21.86-3.27-33.91C971.77,109.19,964.76,89.49,964.76,89.49Z"/><path class="cls-21" d="M943,92.35l10-1.85s6.36,23,7.75,30.79c1.75,9.82,4.2,33.48,4.2,33.48l-10,1.85s-2.59-23.88-4.24-33.72C949.44,115.15,943,92.35,943,92.35Z"/><path class="cls-21" d="M919.68,97.54l10-1.85s6.36,23,7.75,30.79c1.75,9.82,4.2,33.48,4.2,33.48l-10,1.85s-2.59-23.88-4.24-33.72C926.09,120.34,919.68,97.54,919.68,97.54Z"/><path class="cls-21" d="M895.9,102.29l10-1.85s6.36,23,7.75,30.79c1.75,9.82,4.2,33.48,4.2,33.48l-10,1.85s-2.59-23.88-4.24-33.72C902.3,125.09,895.9,102.29,895.9,102.29Z"/><path class="cls-21" d="M874.18,105.16l10-1.85s5.38,23.17,6.77,31c1.75,9.82,5.18,33.3,5.18,33.3l-10,1.85s-3.57-23.7-5.22-33.54C879.6,128.13,874.18,105.16,874.18,105.16Z"/><path class="cls-21" d="M850.82,110.35l10-1.85s5.38,23.17,6.77,31c1.75,9.82,5.18,33.3,5.18,33.3l-10,1.85s-3.57-23.7-5.22-33.54C856.25,133.32,850.82,110.35,850.82,110.35Z"/></g><path class="cls-32" d="M524.25,133.78c11.37,1.25,102.22,12.28,110.66,13s67.89,10,75.77,11.09,58,8.61,59.67,11.35,2.43,11.38,1.31,15.75-2.64,11.68-5.31,12.81-54.88-9.68-66.28-10.77-92.79-11.46-101.65-12.7-90-9.57-92.5-9.92-10.06.1-12.74-2.28-1.94-14.83-1.39-18.77,4-9.25,6.14-10.79S512.8,132.53,524.25,133.78Z"/><g class="cls-38"><path class="cls-21" d="M510.32,178.43l-10-1.4s.27-24,1.43-31.8c1.46-9.87,7.62-32.94,7.62-32.94l10,1.4s-6,21.95-7.66,33.19C509.62,161.25,510.32,178.43,510.32,178.43Z"/><path class="cls-21" d="M531.82,182.59l-10-1.4s1.26-23.82,2.41-31.66c1.46-9.87,6.64-33.08,6.64-33.08l10,1.4s-5.12,23.47-6.67,33.33C533,158.95,531.82,182.59,531.82,182.59Z"/><path class="cls-21" d="M555.62,185.08l-10-1.4S546.84,159.86,548,152c1.46-9.87,6.64-33.08,6.64-33.08l10,1.4s-5.12,23.47-6.67,33.33C556.78,161.44,555.62,185.08,555.62,185.08Z"/><path class="cls-21" d="M579.69,188.12l-10-1.4s1.26-23.82,2.41-31.66c1.46-9.87,6.64-33.08,6.64-33.08l10,1.4s-5.12,23.47-6.67,33.33C580.85,164.47,579.69,188.12,579.69,188.12Z"/><path class="cls-21" d="M601.19,192.29l-10-1.4s2.24-23.68,3.4-31.52c1.46-9.87,5.65-33.22,5.65-33.22l10,1.4s-4.13,23.61-5.68,33.47C603.34,168.78,601.19,192.29,601.19,192.29Z"/><path class="cls-21" d="M625,194.78l-10-1.4s2.24-23.68,3.4-31.52c1.46-9.87,5.65-33.22,5.65-33.22l10,1.4s-4.13,23.61-5.68,33.47C627.13,171.27,625,194.78,625,194.78Z"/><path class="cls-21" d="M759.31,149l10,1.4s-.07,20.69-1.43,31.8c-1.75,14.35-7.62,32.94-7.62,32.94l-10-1.4s5.63-21.17,7.66-33.19C759.72,169.94,759.31,149,759.31,149Z"/><path class="cls-21" d="M737.81,144.86l10,1.4s-1.26,23.82-2.41,31.66C744,187.8,738.8,211,738.8,211l-10-1.4s5.12-23.47,6.67-33.33C736.65,168.51,737.81,144.86,737.81,144.86Z"/><path class="cls-21" d="M714,142.38l10,1.4s-1.26,23.82-2.41,31.66c-1.46,9.87-6.64,33.08-6.64,33.08l-10-1.4s5.12-23.47,6.67-33.33C712.85,166,714,142.38,714,142.38Z"/><path class="cls-21" d="M689.95,139.34l10,1.4s-1.26,23.82-2.41,31.66c-1.46,9.87-6.64,33.08-6.64,33.08l-10-1.4s5.12-23.47,6.67-33.33C688.79,163,689.95,139.34,689.95,139.34Z"/><path class="cls-21" d="M668.44,135.17l10,1.4s-2.24,23.68-3.4,31.52c-1.46,9.87-5.65,33.22-5.65,33.22l-10-1.4s4.13-23.61,5.68-33.47C666.3,158.68,668.44,135.17,668.44,135.17Z"/><path class="cls-21" d="M644.65,132.68l10,1.4s-2.24,23.68-3.4,31.52c-1.46,9.87-5.65,33.22-5.65,33.22l-10-1.4s4.13-23.61,5.68-33.47C642.5,156.19,644.65,132.68,644.65,132.68Z"/></g><path class="cls-39" d="M576.56,146.67c-2.33,5.56-17.08.85-22.64-1.48s-18.78-8.65-16.45-14.21,18.83-7.09,24.39-4.76S578.89,141.12,576.56,146.67Z"/><ellipse class="cls-18" cx="555.94" cy="137.21" rx="5.69" ry="8.19" transform="translate(214.78 597.11) rotate(-67.29)"/><ellipse class="cls-18" cx="557.84" cy="135.98" rx="5.69" ry="6.81" transform="translate(217.07 598.1) rotate(-67.29)"/><ellipse class="cls-18" cx="559.12" cy="139.34" rx="5.69" ry="6.81" transform="translate(214.77 601.35) rotate(-67.29)"/><ellipse class="cls-18" cx="556.63" cy="138.37" rx="5.69" ry="7.15" transform="translate(214.13 598.45) rotate(-67.29)"/><circle class="cls-19" cx="566.7" cy="137.24" r="0.27" transform="translate(202.66 592.71) rotate(-64.98)"/><circle class="cls-27" cx="548.43" cy="131.99" r="0.39" transform="translate(145.15 526.39) rotate(-57.89)"/><rect class="cls-28" x="557.61" y="126.92" width="2.63" height="1.08" rx="0.54" ry="0.54" transform="translate(35.91 -107.27) rotate(11.32)"/><rect class="cls-28" x="545.26" y="129.07" width="2.63" height="1.08" rx="0.54" ry="0.54" transform="translate(-8.31 217.05) rotate(-22.29)"/><circle class="cls-22" cx="542.88" cy="133.6" r="0.27" transform="translate(192.21 569.02) rotate(-64.98)"/><circle class="cls-19" cx="552.19" cy="129.27" r="0.69" transform="translate(219.8 588.77) rotate(-67.29)"/><ellipse class="cls-22" cx="566.1" cy="144.51" rx="0.44" ry="0.47" transform="translate(-12.5 225.57) rotate(-22.29)"/><ellipse class="cls-24" cx="566.61" cy="133.49" rx="0.42" ry="0.4" transform="translate(-8.29 224.94) rotate(-22.29)"/><circle class="cls-19" cx="544.83" cy="137.42" r="0.69" transform="translate(-11.4 216.97) rotate(-22.29)"/></g><g id="Layer_96" data-name="Layer 96"><g class="cls-36"><path class="cls-40" d="M651.29,130.74c-4.3,1.76-11.82,5.88-21.56,5-8.89-.83-21.48-12-23-15.13-5.56-11.62,1.91-30.65,7.17-36,4.5-4.56,18.38-4.49,21.19-3.46,2.38.87,11.27,7.4,15,10.76,4.44,4,8.4,9.51,9.27,12.94.76,3,.39,8.58-.87,13.83C657.12,124.5,654.45,129.44,651.29,130.74Z"/><path class="cls-41" d="M625.12,129.84c-2.74-.2-9.49-3.06-12.64-6.89-3.37-4.1-3.65-13.5-3.59-15.6.21-7.89,5.25-20.95,9.47-22.46,3.61-1.29,11.59-.5,15,2.44,1.15,1,2.86,8.62,3.5,11.6.78,3.62,1.15,8.68,1.5,11.92.2,1.87.59,11.05-1.48,13.6C634.56,127.28,627.13,130,625.12,129.84Z"/><ellipse class="cls-42" cx="646.08" cy="106.85" rx="6.13" ry="8.83" transform="translate(-6.44 162.12) rotate(-14.23)"/><ellipse class="cls-42" cx="648.37" cy="107.68" rx="6.13" ry="7.33" transform="translate(-6.57 162.7) rotate(-14.23)"/><ellipse class="cls-42" cx="646.31" cy="110.96" rx="6.13" ry="7.33" transform="translate(-7.44 162.3) rotate(-14.23)"/><ellipse class="cls-42" cx="645.53" cy="108.19" rx="6.13" ry="7.7" transform="translate(-6.79 162.02) rotate(-14.23)"/><circle class="cls-43" cx="653.03" cy="116.13" r="0.29" transform="translate(-9.91 137.33) rotate(-11.92)"/><circle class="cls-28" cx="645.72" cy="96.99" r="0.42" transform="translate(-5.87 54.72) rotate(-4.83)"/><rect class="cls-21" x="644.68" y="92.81" width="4.03" height="1.66" rx="0.83" ry="0.83" transform="translate(142.6 -322.14) rotate(31.28)"/><rect class="cls-21" x="654.46" y="103.06" width="4.03" height="1.66" rx="0.83" ry="0.83" transform="translate(432.09 -521.73) rotate(61.28)"/><circle class="cls-44" cx="640.74" cy="93.25" r="0.29" transform="matrix(0.98, -0.21, 0.21, 0.98, -5.45, 134.3)"/><circle class="cls-43" cx="650.49" cy="98.47" r="0.74" transform="translate(-4.24 162.94) rotate(-14.23)"/><ellipse class="cls-44" cx="646.37" cy="120.33" rx="0.5" ry="0.47" transform="translate(212.32 614.16) rotate(-59.23)"/><ellipse class="cls-45" cx="656.2" cy="113.63" rx="0.43" ry="0.45" transform="matrix(0.51, -0.86, 0.86, 0.51, 222.87, 619.33)"/><circle class="cls-43" cx="638.71" cy="97.41" r="0.74" transform="translate(228.27 596.38) rotate(-59.23)"/></g><path class="cls-40" d="M919.14,206.93c1.73,4.32,5.79,11.87,4.81,21.6-.9,8.88-12.2,21.39-15.3,22.84-11.67,5.47-30.64-2.14-35.93-7.45-4.53-4.54-4.35-18.41-3.3-21.22.89-2.37,7.48-11.22,10.87-14.9,4.06-4.41,9.57-8.33,13-9.17,3-.73,8.59-.33,13.82,1C913,201.05,917.87,203.75,919.14,206.93Z"/><path class="cls-41" d="M918,233.09c-.22,2.74-3.13,9.46-7,12.58-4.12,3.34-13.53,3.55-15.63,3.48-7.89-.27-20.91-5.41-22.39-9.64-1.26-3.61-.41-11.6,2.55-15,1-1.14,8.65-2.79,11.62-3.41,3.63-.76,8.69-1.09,11.93-1.41,1.88-.19,11.06-.51,13.58,1.59C915.56,223.62,918.21,231.07,918,233.09Z"/><ellipse class="cls-18" cx="895.22" cy="211.95" rx="8.83" ry="6.13" transform="translate(-24.72 219.62) rotate(-13.8)"/><ellipse class="cls-18" cx="899.33" cy="211.75" rx="7.33" ry="6.13" transform="translate(-24.55 220.6) rotate(-13.8)"/><ellipse class="cls-18" cx="896.55" cy="212.51" rx="7.7" ry="6.13" transform="translate(-24.81 219.96) rotate(-13.8)"/><circle class="cls-19" cx="885.72" cy="219.25" r="0.74" transform="translate(239.33 863.27) rotate(-58.8)"/><ellipse class="cls-18" cx="896.07" cy="209.67" rx="7.33" ry="6.13" transform="translate(-24.15 219.76) rotate(-13.8)"/><circle class="cls-19" cx="904.55" cy="205.07" r="0.29" transform="translate(-22.72 184.16) rotate(-11.48)"/><circle class="cls-27" cx="885.36" cy="212.24" r="0.42" transform="translate(-13.67 68.5) rotate(-4.4)"/><rect class="cls-46" x="880" y="210.41" width="4.03" height="1.66" rx="0.83" ry="0.83" transform="translate(238.7 850.55) rotate(-58.29)"/><circle class="cls-22" cx="881.58" cy="217.19" r="0.29" transform="translate(-25.59 179.83) rotate(-11.48)"/><circle class="cls-19" cx="886.87" cy="207.48" r="0.74" transform="translate(-23.89 217.5) rotate(-13.8)"/><ellipse class="cls-22" cx="908.7" cy="211.76" rx="0.47" ry="0.5" transform="matrix(0.52, -0.86, 0.86, 0.52, 256.81, 879.31)"/></g><g id="Layer_69" data-name="Layer 69"><path class="cls-32" d="M538.29,148.53c21.89-.47,197.12-2.78,213.31-3.47s131.41.69,146.65.69,112.37.69,116.18,4.16,7.62,15.27,6.67,21.52-1.9,16.66-6.67,18.74-106.65-2.78-128.56-2.08-179,2.08-196.17,2.08-173.31,4.16-178.07,4.16-19,2.08-24.76-.69-7.62-20.13-7.62-25.68,5.08-13.56,8.78-16.1S516.25,149,538.29,148.53Z"/><g class="cls-47"><path class="cls-21" d="M523.71,212.93H504.3s-5.84-33.17-5.72-44.23c.15-13.93,5.72-47,5.72-47h19.41S518.12,153.19,518,169C517.82,189.32,523.71,212.93,523.71,212.93Z"/><path class="cls-21" d="M565.6,214.54H546.19s-3.93-33.17-3.82-44.23c.15-13.93,3.82-47,3.82-47H565.6s-3.49,33.44-3.82,47.36C561.53,181.63,565.6,214.54,565.6,214.54Z"/><path class="cls-21" d="M611.39,213.38H592s-3.93-33.17-3.82-44.23c.15-13.93,3.82-47,3.82-47h19.41s-3.49,33.44-3.82,47.36C607.32,180.47,611.39,213.38,611.39,213.38Z"/><path class="cls-21" d="M657.84,212.93H638.44s-3.93-33.17-3.82-44.23c.15-13.93,3.82-47,3.82-47h19.41S654.35,155.12,654,169C653.77,180,657.84,212.93,657.84,212.93Z"/><path class="cls-21" d="M699.73,214.54H680.32s-2-33.17-1.91-44.23c.15-13.93,1.91-47,1.91-47h19.41s-1.58,33.44-1.91,47.36C697.57,181.63,699.73,214.54,699.73,214.54Z"/><path class="cls-21" d="M745.52,213.38H726.12s-2-33.17-1.91-44.23c.15-13.93,1.91-47,1.91-47h19.41s-1.58,33.44-1.91,47.36C743.36,180.47,745.52,213.38,745.52,213.38Z"/><path class="cls-21" d="M988.16,124.19h19.41s5.35,28.62,5.72,44.23c.48,20.18-5.72,47-5.72,47H988.16s5.06-30.36,5.72-47.36C994.47,153,988.16,124.19,988.16,124.19Z"/><path class="cls-21" d="M946.27,122.58h19.41s3.93,33.17,3.82,44.23c-.15,13.93-3.82,47-3.82,47H946.27s3.49-33.44,3.82-47.36C950.34,155.49,946.27,122.58,946.27,122.58Z"/><path class="cls-21" d="M900.48,123.74h19.41s3.93,33.17,3.82,44.23c-.15,13.93-3.82,47-3.82,47H900.48s3.49-33.44,3.82-47.36C904.55,156.66,900.48,123.74,900.48,123.74Z"/><path class="cls-21" d="M854,124.19h19.41s3.93,33.17,3.82,44.23c-.15,13.93-3.82,47-3.82,47H854s3.49-33.44,3.82-47.36C858.1,157.1,854,124.19,854,124.19Z"/><path class="cls-21" d="M812.14,122.58h19.41s2,33.17,1.91,44.23c-.15,13.93-1.91,47-1.91,47H812.14s1.58-33.44,1.91-47.36C814.3,155.49,812.14,122.58,812.14,122.58Z"/><path class="cls-21" d="M766.35,123.74h19.41s2,33.17,1.91,44.23c-.15,13.93-1.91,47-1.91,47H766.35s1.58-33.44,1.91-47.36C768.51,156.66,766.35,123.74,766.35,123.74Z"/></g><g id="Layer_71" data-name="Layer 71"><ellipse class="cls-20" cx="536.36" cy="179.45" rx="15.18" ry="5.97"/><ellipse class="cls-20" cx="539.65" cy="183.68" rx="15.18" ry="5.97"/><ellipse class="cls-20" cx="532.13" cy="186.03" rx="15.18" ry="5.97"/><ellipse class="cls-20" cx="638.58" cy="153.74" rx="15.18" ry="5.97"/><ellipse class="cls-20" cx="644.7" cy="154.87" rx="15.18" ry="5.97"/><ellipse class="cls-20" cx="635.54" cy="157.34" rx="15.18" ry="5.97"/><ellipse class="cls-20" cx="744.84" cy="180.11" rx="15.18" ry="5.97"/><ellipse class="cls-20" cx="753.06" cy="180" rx="15.18" ry="5.97"/><ellipse class="cls-20" cx="744.3" cy="182.27" rx="15.18" ry="5.97"/><ellipse class="cls-20" cx="887.26" cy="161.52" rx="15.18" ry="5.97"/><ellipse class="cls-20" cx="890.55" cy="165.75" rx="15.18" ry="5.97"/><ellipse class="cls-20" cx="895.58" cy="160.93" rx="15.18" ry="5.97"/><ellipse class="cls-20" cx="986.74" cy="183.64" rx="15.18" ry="5.97"/><ellipse class="cls-20" cx="983.45" cy="179.41" rx="15.18" ry="5.97"/><ellipse class="cls-20" cx="990.98" cy="177.06" rx="15.18" ry="5.97"/><rect class="cls-48" x="792.51" y="147.82" width="23.22" height="8.51" rx="3.87" ry="3.87"/><rect class="cls-48" x="614.5" y="180.11" width="23.99" height="10.06" rx="3.87" ry="3.87"/><rect class="cls-48" x="566.96" y="164.26" width="23.99" height="10.06" rx="3.87" ry="3.87"/></g><g id="Layer_70" data-name="Layer 70"><path class="cls-26" d="M722.31,143.76c.44,7.33-18.23,10.09-25.56,10.53s-25.18.61-25.62-6.72,16.8-17.86,24.13-18.3S721.88,136.43,722.31,143.76Z"/><ellipse class="cls-18" cx="694.68" cy="144.48" rx="9.98" ry="6.93" transform="translate(-7.39 41.73) rotate(-3.42)"/><ellipse class="cls-18" cx="696.09" cy="142.12" rx="8.29" ry="6.93" transform="translate(-7.24 41.81) rotate(-3.42)"/><ellipse class="cls-18" cx="699.3" cy="145.1" rx="8.29" ry="6.93" transform="translate(-7.42 42.01) rotate(-3.42)"/><ellipse class="cls-18" cx="696.05" cy="145.38" rx="8.71" ry="6.93" transform="translate(-7.44 41.82) rotate(-3.42)"/><circle class="cls-19" cx="706.46" cy="138.73" r="0.32" transform="translate(-2.55 13.67) rotate(-1.11)"/><circle class="cls-27" cx="683.65" cy="142.79" r="0.47" transform="translate(470.43 807.85) rotate(-84.02)"/><rect class="cls-28" x="691.11" y="131.55" width="3.2" height="1.32" rx="0.66" ry="0.66" transform="translate(-10.79 181.38) rotate(-14.8)"/><rect class="cls-28" x="678.75" y="140.52" width="3.2" height="1.32" rx="0.66" ry="0.66" transform="translate(123.23 556.43) rotate(-48.42)"/><circle class="cls-22" cx="678.45" cy="147.53" r="0.32" transform="translate(-2.72 13.13) rotate(-1.11)"/><circle class="cls-19" cx="686.3" cy="137.8" r="0.84" transform="translate(-7 41.22) rotate(-3.42)"/><ellipse class="cls-22" cx="709.71" cy="147.01" rx="0.53" ry="0.57" transform="translate(128.75 580.36) rotate(-48.42)"/><ellipse class="cls-24" cx="704.36" cy="134.68" rx="0.51" ry="0.49" transform="translate(136.17 572.21) rotate(-48.42)"/><circle class="cls-19" cx="682.63" cy="150.67" r="0.84" transform="translate(116.91 561.33) rotate(-48.42)"/><g class="cls-36"><path class="cls-26" d="M953.11,102.51c1.44,7.2-16.67,12.49-23.87,13.93s-24.86,4.05-26.3-3.15,14.19-20,21.39-21.43S951.67,95.31,953.11,102.51Z"/><ellipse class="cls-18" cx="925.83" cy="107" rx="9.98" ry="6.93" transform="translate(-3.03 183.38) rotate(-11.29)"/><ellipse class="cls-18" cx="926.91" cy="104.47" rx="8.29" ry="6.93" transform="translate(-2.51 183.55) rotate(-11.29)"/><ellipse class="cls-18" cx="930.49" cy="106.99" rx="8.29" ry="6.93" transform="translate(-2.93 184.3) rotate(-11.29)"/><ellipse class="cls-18" cx="927.31" cy="107.71" rx="8.71" ry="6.93" transform="translate(-3.14 183.69) rotate(-11.29)"/><circle class="cls-19" cx="936.72" cy="99.7" r="0.32" transform="translate(-4.08 147.39) rotate(-8.98)"/><circle class="cls-27" cx="914.68" cy="106.84" r="0.47" transform="translate(-3.03 30.27) rotate(-1.89)"/><rect class="cls-28" x="920.6" y="94.46" width="3.2" height="1.32" rx="0.66" ry="0.66" transform="translate(34.61 362.86) rotate(-22.67)"/><rect class="cls-28" x="909.58" y="105.05" width="3.2" height="1.32" rx="0.66" ry="0.66" transform="translate(317.6 805.05) rotate(-56.29)"/><circle class="cls-22" cx="910.17" cy="112.25" r="0.32" transform="translate(-6.37 143.41) rotate(-8.98)"/><circle class="cls-19" cx="916.62" cy="101.54" r="0.84" transform="translate(-2.14 181.48) rotate(-11.29)"/><ellipse class="cls-22" cx="941.07" cy="107.46" rx="0.53" ry="0.57" transform="matrix(0.55, -0.83, 0.83, 0.55, 329.44, 830.69)"/><ellipse class="cls-24" cx="934.08" cy="95.98" rx="0.51" ry="0.49" transform="translate(335.88 819.77) rotate(-56.29)"/><circle class="cls-19" cx="914.74" cy="114.79" r="0.84" transform="translate(311.63 812.06) rotate(-56.29)"/></g><path class="cls-26" d="M796.77,188.09c.26-3.6,29.86-7.3,36.7-6.88s23.42,2.28,23,9.13-31.54,12-38.39,11.62S796.28,194.93,796.77,188.09Z"/><ellipse class="cls-18" cx="834.29" cy="190.55" rx="6.47" ry="9.33" transform="translate(592.87 1011.56) rotate(-86.48)"/><ellipse class="cls-18" cx="832.72" cy="192.58" rx="6.47" ry="7.75" transform="translate(589.36 1011.9) rotate(-86.48)"/><ellipse class="cls-18" cx="830.08" cy="189.45" rx="6.47" ry="7.75" transform="translate(590.01 1006.33) rotate(-86.48)"/><ellipse class="cls-18" cx="833.13" cy="189.56" rx="6.47" ry="8.14" transform="translate(592.76 1009.47) rotate(-86.48)"/><circle class="cls-19" cx="822.72" cy="194.54" r="0.3" transform="translate(545.51 993.21) rotate(-84.16)"/><circle class="cls-19" cx="810.84" cy="187.91" r="0.3" transform="matrix(0.1, -0.99, 0.99, 0.1, 541.44, 975.43)"/><circle class="cls-19" cx="799.96" cy="189.09" r="0.3" transform="translate(530.49 965.67) rotate(-84.16)"/><circle class="cls-19" cx="815.81" cy="198.73" r="0.3" transform="matrix(0.1, -0.99, 0.99, 0.1, 535.14, 990.1)"/><circle class="cls-27" cx="844.33" cy="193.36" r="0.44" transform="translate(467.06 973.06) rotate(-77.08)"/><rect class="cls-28" x="811.27" y="193.13" width="2.99" height="1.23" rx="0.62" ry="0.62" transform="translate(1644.39 274.52) rotate(172.14)"/><rect class="cls-28" x="816.43" y="183.87" width="2.99" height="1.23" rx="0.62" ry="0.62" transform="translate(1552.92 -219.04) rotate(138.52)"/><circle class="cls-22" cx="849.69" cy="189.55" r="0.3" transform="translate(574.71 1015.56) rotate(-84.16)"/><circle class="cls-19" cx="841.56" cy="184.12" r="0.78" transform="translate(606.1 1012.78) rotate(-86.48)"/><ellipse class="cls-22" cx="820.64" cy="186.5" rx="0.5" ry="0.53" transform="translate(82.29 590.32) rotate(-41.48)"/><ellipse class="cls-24" cx="824.21" cy="198.54" rx="0.47" ry="0.46" transform="translate(75.21 595.7) rotate(-41.48)"/><ellipse class="cls-24" cx="805.43" cy="188.78" rx="0.47" ry="0.46" transform="translate(76.96 580.82) rotate(-41.48)"/><ellipse class="cls-24" cx="808.17" cy="196.55" rx="0.47" ry="0.46" transform="translate(72.5 584.58) rotate(-41.48)"/><circle class="cls-19" cx="846.17" cy="186.16" r="0.78" transform="translate(88.91 607.14) rotate(-41.48)"/></g></g><path class="cls-49" d="M414.42,163.3H409a1.8,1.8,0,0,0,0,3.5h5.46Z"/><ellipse class="cls-32" cx="414.38" cy="165.04" rx="1.42" ry="1.75"/><g id="Layer_90" data-name="Layer 90"><path class="cls-28" d="M146.93,101.83l.76-3.85a15,15,0,0,1,17.59-11.83l13.34,2.62a15,15,0,0,1,11.83,17.59l-.76,3.85Z"/><path class="cls-50" d="M162.4,89.8a11,11,0,0,1,2.12.21l13.34,2.62a11.1,11.1,0,0,1,8.73,13h0l-35.06-6.87A11.11,11.11,0,0,1,162.4,89.8m0-7.85h0a19,19,0,0,0-18.57,15.28l-1.51,7.71,7.71,1.51,35.06,6.87,7.71,1.51,1.51-7.71a18.94,18.94,0,0,0-14.92-22.2L166,82.3a18.91,18.91,0,0,0-3.63-.35Z"/><path class="cls-28" d="M248.59,106.55A15,15,0,0,1,260.41,89l13.35-2.62a15,15,0,0,1,17.59,11.83l.76,3.85-42.76,8.38Z"/><path class="cls-50" d="M276.64,90a11.11,11.11,0,0,1,10.87,8.93l-35.06,6.87a11.1,11.1,0,0,1,8.73-13l13.34-2.62a11,11,0,0,1,2.12-.21m0-7.85a18.91,18.91,0,0,0-3.63.35l-13.34,2.62a18.95,18.95,0,0,0-14.92,22.2l1.51,7.71L254,113.5,289,106.63l7.71-1.51-1.51-7.71a19,19,0,0,0-18.57-15.28Z"/><path class="cls-50" d="M233.17,199.36H208.83c-14.35,0-32.62-27-32.62-41.32V116.16a26.17,26.17,0,0,1,26.09-26.09h37.39a26.17,26.17,0,0,1,26.09,26.09V158C265.79,172.39,247.52,199.36,233.17,199.36Z"/><ellipse class="cls-28" cx="220.2" cy="204.85" rx="31.5" ry="14.43"/><rect class="cls-51" x="178.18" y="174.34" width="83.81" height="35.92" rx="17.96" ry="17.96"/><path class="cls-28" d="M201,189.72a11.41,11.41,0,1,1,11.41-11.41A11.42,11.42,0,0,1,201,189.72Z"/><path class="cls-51" d="M201,169.62a8.69,8.69,0,1,1-8.69,8.69,8.69,8.69,0,0,1,8.69-8.69m0-5.44a14.13,14.13,0,1,0,14.13,14.13A14.14,14.14,0,0,0,201,164.19Z"/><path class="cls-28" d="M240.68,190.65a11.41,11.41,0,1,1,11.41-11.41A11.42,11.42,0,0,1,240.68,190.65Z"/><path class="cls-51" d="M240.68,170.55a8.69,8.69,0,1,1-8.69,8.69,8.69,8.69,0,0,1,8.69-8.69m0-5.44a14.13,14.13,0,1,0,14.13,14.13,14.14,14.14,0,0,0-14.13-14.13Z"/><circle class="cls-52" cx="195.37" cy="138.43" r="4.81"/><circle class="cls-52" cx="243.78" cy="137.62" r="4.81"/><path class="cls-51" d="M195.31,90.69c0-6.26,6.78-11.34,17.31-11.34s15.55,5.08,15.55,11.34"/><path class="cls-51" d="M213.68,90.5c0-6.26,6.32-11.34,14.11-11.34S241.9,84.24,241.9,90.5"/><path class="cls-51" d="M195.57,90.56s15.72,3.26,19.55,19.93c0,0,4.22-11.12-1.53-22.23"/><path class="cls-51" d="M213,90.94s11.12,4.79,12.65,12.27c0,0,6.9-10.35,3.64-15.91"/><path class="cls-51" d="M227.77,90s11.12,3.26,11.12,15.14c0,0,3.2-2.21,3.2-14.64"/><line class="cls-53" x1="269.38" y1="161.62" x2="347.45" y2="100.89"/><line class="cls-54" x1="318.8" y1="123.56" x2="342.22" y2="104.93"/><ellipse class="cls-55" cx="329.18" cy="105.98" rx="7.44" ry="7.83"/><ellipse class="cls-55" cx="339.33" cy="117.02" rx="7.44" ry="7.83"/><rect class="cls-56" x="343.18" y="96.97" width="10.86" height="5.16" rx="2.58" ry="2.58" transform="translate(198.39 -230.41) rotate(49.58)"/></g><g id="Layer_93" data-name="Layer 93"><g class="cls-29"><path class="cls-55" d="M334.27,137.4c1,23.65,23.83,34.55,46.45,32.5"/><path class="cls-56" d="M395.66,166.56c-6.5,4.09-14.31,10.38-18.75,16.24l1.8-12.7L372,159.2C378.39,162.79,388.07,165.42,395.66,166.56Z"/></g><g class="cls-29"><circle class="cls-57" cx="411.97" cy="165.69" r="9.24"/></g><line class="cls-58" x1="422.51" y1="156.02" x2="458" y2="135.16"/><line class="cls-58" x1="422.18" y1="173.05" x2="458" y2="196.27"/><g class="cls-29"><line class="cls-55" x1="548.08" y1="429.42" x2="488.33" y2="493.98"/><path class="cls-56" d="M475.34,508c3.66-8.87,7.06-20.94,7.34-30.12L490,492.14l14.76,6.23C495.67,499.36,483.9,503.68,475.34,508Z"/></g><g class="cls-29"><line class="cls-55" x1="628.27" y1="432.35" x2="692.83" y2="492.1"/><path class="cls-56" d="M706.87,505.09c-8.87-3.66-20.94-7.06-30.12-7.34L691,490.39l6.23-14.76C698.2,484.76,702.53,496.53,706.87,505.09Z"/></g></g></g></g></svg>