<?xml version="1.0" encoding="utf-8"?>
<!-- Generator: Adobe Illustrator 26.0.3, SVG Export Plug-In . SVG Version: 6.00 Build 0)  -->
<svg version="1.1" id="Layer_1" xmlns="http://www.w3.org/2000/svg" xmlns:xlink="http://www.w3.org/1999/xlink" x="0px" y="0px"
	 viewBox="0 0 1545.7 1080" style="enable-background:new 0 0 1545.7 1080;" xml:space="preserve">
<style type="text/css">
	.st0{opacity:0.1;fill:#409ED6;enable-background:new    ;}
	.st1{opacity:0.5;}
	.st2{opacity:0.5;fill:#E7D4CD;enable-background:new    ;}
	.st3{fill:#EEE4DB;}
	.st4{fill:#E7E8E7;}
	.st5{opacity:0.2;fill:#EACECE;enable-background:new    ;}
	.st6{opacity:0.3;fill:#EACECE;enable-background:new    ;}
	.st7{fill:#DBCDE3;}
	.st8{fill:#CED2E9;}
	.st9{fill:#EEDEEB;}
	.st10{fill:#EED9EA;}
	.st11{opacity:0.5;fill:#EACECE;enable-background:new    ;}
	.st12{fill:#EACECE;}
	.st13{fill:url(#SVGID_1_);}
	.st14{fill:#D1DCE0;}
	.st15{fill:#C7D9E2;}
	.st16{fill:#D6E4EA;}
	.st17{fill:url(#SVGID_00000147180812114540229130000006501669884402795905_);}
	.st18{opacity:0.8;fill:#E9F0F2;enable-background:new    ;}
	.st19{fill:#E4ECEF;}
	.st20{opacity:0.8;fill:#FFFFFF;enable-background:new    ;}
	.st21{opacity:0.5;fill:#FFFFFF;enable-background:new    ;}
	.st22{opacity:0.8;}
	.st23{fill:#FFFFFF;}
	.st24{opacity:0.5;fill:#ACD053;enable-background:new    ;}
	.st25{fill:#D3E5BE;}
	.st26{fill:#C9E0C1;}
	.st27{fill:#BADDAF;}
	.st28{fill:#A6D893;}
	.st29{fill:#8BCC90;}
	.st30{opacity:0.7;}
	.st31{fill:#C0B399;}
	.st32{opacity:0.9;fill:#7ABF6A;enable-background:new    ;}
	.st33{opacity:0.2;fill:#93C73D;enable-background:new    ;}
	.st34{fill:#969E85;}
	.st35{fill:#55AD7D;}
	.st36{fill:#65AD59;}
	.st37{fill:#5FB272;}
	.st38{opacity:0.6;}
	.st39{fill:#CCC1AC;}
	.st40{fill:#EDEDED;}
	.st41{fill:#FCD8BA;}
	.st42{fill:#E4E4E4;}
	.st43{fill:#FBFBFB;}
	.st44{fill:#EDB68F;}
	.st45{fill:#848496;}
	.st46{opacity:0.4;fill:#945899;enable-background:new    ;}
	.st47{opacity:0.5;fill:#BADDAF;enable-background:new    ;}
	.st48{fill:#F7EB32;}
	.st49{fill:#C9CFD3;}
	.st50{fill:#D5DD23;}
	.st51{fill:url(#SVGID_00000153700026292679365030000007638531184013825705_);}
	.st52{fill:#F0F0F0;}
	.st53{opacity:0.8;fill:#79BA83;enable-background:new    ;}
	.st54{fill:#F7C59F;}
	.st55{fill:#F49AAD;}
	.st56{fill:#EF7087;}
	.st57{fill:#363677;}
	.st58{fill:#D35E7C;}
	.st59{fill:#4A4AA8;}
	.st60{fill:#353577;}
	.st61{fill:#F4B99F;}
	.st62{fill:#F9DAC5;}
	.st63{fill:#F9E9DE;}
	.st64{fill:none;stroke:#FFFFFF;stroke-width:5.3;stroke-miterlimit:10;}
	.st65{fill:none;stroke:#E4E4E4;stroke-width:5.24;stroke-miterlimit:10;}
	.st66{fill:none;stroke:#CB425C;stroke-width:5.24;stroke-miterlimit:10;}
	.st67{fill:#F2F2F2;}
	.st68{fill:#F8F8F9;}
	.st69{fill:#A89B92;}
	.st70{opacity:0.6;fill:#58595B;enable-background:new    ;}
	.st71{opacity:0.3;fill:#35526D;enable-background:new    ;}
	.st72{fill:#CB425C;}
	.st73{fill:#EE5B72;}
	.st74{opacity:0.8;fill:#5491C4;enable-background:new    ;}
	.st75{opacity:0.8;fill:#BFDBEF;enable-background:new    ;}
	.st76{fill:#D9DADB;}
	.st77{opacity:0.8;fill:none;stroke:#0090BC;stroke-width:5.7;stroke-miterlimit:10;enable-background:new    ;}
	.st78{fill:none;}
	.st79{fill:none;stroke:#0090BC;stroke-width:5.7;stroke-miterlimit:10;}
	.st80{fill:#0090BC;}
	.st81{fill:#AA812E;}
	.st82{opacity:0.7;fill:#EDEDED;enable-background:new    ;}
	.st83{fill:#262262;}
	.st84{opacity:0.8;fill:#C9C535;enable-background:new    ;}
	.st85{clip-path:url(#SVGID_00000115513678394836722670000002115676978685325957_);}
	.st86{clip-path:url(#SVGID_00000069385822159799937380000007046073565266229387_);}
	.st87{clip-path:url(#SVGID_00000062170130239474371140000017097042236655066243_);}
	.st88{clip-path:url(#SVGID_00000152240268535842776650000009817543083834986410_);}
	.st89{clip-path:url(#SVGID_00000178198801881720843700000013262474625331456650_);}
	.st90{fill:#F9ACBC;}
	.st91{opacity:0.7;fill:#F6EAEA;enable-background:new    ;}
	.st92{opacity:0.3;fill:#FAB129;enable-background:new    ;}
	.st93{opacity:0.3;fill:#EDB68F;enable-background:new    ;}
	.st94{opacity:0.3;fill:#5491C4;enable-background:new    ;}
	.st95{opacity:0.3;fill:#AA812E;enable-background:new    ;}
	.st96{opacity:0.4;}
	.st97{fill:#F4D8A6;}
	.st98{fill:#EFC178;}
	.st99{fill:#F6EAEA;}
	.st100{fill:#FAB129;}
	.st101{fill:#5491C4;}
	.st102{opacity:0.6;fill:#EF7087;enable-background:new    ;}
	.st103{clip-path:url(#SVGID_00000057125487696230581870000000099098350797544833_);}
	.st104{opacity:0.6;fill:#A52B2E;enable-background:new    ;}
	.st105{opacity:0.4;fill:#A52B2E;enable-background:new    ;}
	.st106{fill:#88CAEA;}
	.st107{fill:#F7F7ED;}
	.st108{fill:#F9CEAF;}
	.st109{fill:none;stroke:#B1B1B1;stroke-width:3.96;stroke-miterlimit:10;}
	.st110{fill:none;stroke:#0090BC;stroke-width:15.86;stroke-miterlimit:10;}
	.st111{fill:none;stroke:#0090BC;stroke-width:5.95;stroke-miterlimit:10;}
	.st112{fill:none;stroke:#0090BC;stroke-width:1.98;stroke-miterlimit:10;stroke-dasharray:4.08,4.08;}
	.st113{fill:none;stroke:#0090BC;stroke-width:1.98;stroke-miterlimit:10;stroke-dasharray:3.96;}
</style>
<g id="Background">
	<polyline class="st0" points="1610.5,0 1610.5,1080 -1695.3,1080 -1695.3,0 	"/>
</g>
<g id="bits" class="st1">
	<circle class="st2" cx="99.4" cy="333.4" r="10.6"/>
	<circle class="st3" cx="187.4" cy="422" r="11.8"/>
	
		<ellipse transform="matrix(2.172375e-02 -0.9998 0.9998 2.172375e-02 -404.1586 435.9041)" class="st4" cx="20.7" cy="424.5" rx="11.8" ry="11.8"/>
	
		<ellipse transform="matrix(7.088906e-02 -0.9975 0.9975 7.088906e-02 -323.0142 527.7752)" class="st4" cx="121.8" cy="437.3" rx="11.8" ry="11.8"/>
	<circle class="st2" cx="1342.4" cy="416.8" r="16.8"/>
	<circle class="st5" cx="878.5" cy="400.8" r="4.4"/>
	<circle class="st6" cx="1310.4" cy="559.4" r="9.7"/>
	<circle class="st5" cx="1396.3" cy="455.7" r="6.2"/>
	<circle class="st7" cx="559.3" cy="455.7" r="12.4"/>
	<circle class="st8" cx="524" cy="396.1" r="9.2"/>
	<circle class="st5" cx="1292.4" cy="481.1" r="4.4"/>
	<circle class="st6" cx="912.8" cy="375.9" r="9.7"/>
	<circle class="st5" cx="1422.3" cy="694.2" r="6.2"/>
	<circle class="st5" cx="734.9" cy="352.9" r="6.2"/>
	<circle class="st9" cx="1431.9" cy="647.4" r="12.4"/>
	<circle class="st9" cx="587.8" cy="572.3" r="12.4"/>
	<circle class="st5" cx="784.2" cy="334.9" r="6.2"/>
	<circle class="st2" cx="1359.2" cy="83.1" r="16.8"/>
	<circle class="st5" cx="888" cy="393.6" r="4.4"/>
	<circle class="st10" cx="1004.6" cy="445.5" r="12.4"/>
	<circle class="st9" cx="1436.1" cy="881.9" r="12.4"/>
	<circle class="st5" cx="1188.1" cy="975.4" r="2.8"/>
	<circle class="st2" cx="1169.7" cy="808.9" r="10.6"/>
	<circle class="st8" cx="1201.8" cy="963.9" r="5.8"/>
	<circle class="st6" cx="1203.9" cy="997.2" r="6.2"/>
	<circle class="st5" cx="1196.1" cy="607.3" r="3.9"/>
	<circle class="st11" cx="1158.8" cy="584.2" r="10.6"/>
	<circle class="st12" cx="1014.9" cy="974.6" r="4.5"/>
	<circle class="st3" cx="1014.9" cy="767" r="11.8"/>
	<circle class="st4" cx="1078.6" cy="730.1" r="11.8"/>
	<circle class="st4" cx="1023.8" cy="876.4" r="11.8"/>
</g>
<g id="Cover">
	<g id="mountains">
		
			<linearGradient id="SVGID_1_" gradientUnits="userSpaceOnUse" x1="945.565" y1="184" x2="945.565" y2="430.781" gradientTransform="matrix(1 0 0 -1 0 1080)">
			<stop  offset="0.19" style="stop-color:#FFFFFF;stop-opacity:0.3"/>
			<stop  offset="1" style="stop-color:#D6E6ED"/>
		</linearGradient>
		<path class="st13" d="M1142,896H749.1l151.7-200.8l31.2-41.1c6.5-6.5,17-6.5,23.5,0l32.4,42L1142,896z"/>
		<path class="st14" d="M1195.6,919.3l125.3-242c6.5-6.5,17-6.5,23.5,0l148.2,242H1195.6z"/>
		<path class="st14" d="M987.8,859.8l182.8-242c6.5-6.5,17-6.5,23.5,0l63.2,39.9l123.3,202.1H987.8z"/>
		<path class="st15" d="M357.2,954.7l106.1-242c6.5-6.5,17-6.5,23.5,0l109.8,242H357.2z"/>
		<polygon class="st16" points="347.3,971.5 426.2,971.5 465.3,939.9 417,871.4 439.1,803.2 471.3,708.3 463.4,712.7 		"/>
		
			<linearGradient id="SVGID_00000156554738319094949180000012857363051498198704_" gradientUnits="userSpaceOnUse" x1="835.835" y1="175.45" x2="835.835" y2="422.301" gradientTransform="matrix(1 0 0 -1 0 1080)">
			<stop  offset="0" style="stop-color:#FFFFFF;stop-opacity:0.3"/>
			<stop  offset="0.12" style="stop-color:#F4F8FA;stop-opacity:0.49"/>
			<stop  offset="0.23" style="stop-color:#EBF3F6;stop-opacity:0.64"/>
			<stop  offset="0.36" style="stop-color:#E3EEF3;stop-opacity:0.77"/>
			<stop  offset="0.49" style="stop-color:#DDEBF0;stop-opacity:0.87"/>
			<stop  offset="0.63" style="stop-color:#D9E8EE;stop-opacity:0.94"/>
			<stop  offset="0.79" style="stop-color:#D7E6ED;stop-opacity:0.99"/>
			<stop  offset="1" style="stop-color:#D6E6ED"/>
		</linearGradient>
		<path style="fill:url(#SVGID_00000156554738319094949180000012857363051498198704_);" d="M639.4,904.5l182.8-242
			c6.5-6.5,17-6.5,23.5,0l186.5,242H639.4z"/>
		<polygon class="st18" points="678.1,844.3 783.5,844.3 800.4,829.6 822.5,740.4 843.2,657.7 826.2,657.7 		"/>
		<path class="st16" d="M497.3,878.2l120.6-138.2l62.2-103.8c6.5-6.5,17-6.5,23.5,0l45.7,87l140.8,155L497.3,878.2z"/>
		<polygon class="st19" points="497.3,878.2 602.7,878.2 619.6,863.6 623.8,759.5 662.3,691.7 680.1,636.3 616.7,738.7 		"/>
		<path class="st19" d="M989.1,856.7h105.4L1073,838l87-107.4c1.6-3.7,2.2-7.9,1.6-11.9l-6.7-43.8c-0.5-3.1-0.2-6.2,0.7-9.2
			l16.3-50.9L989.1,856.7z"/>
		<path class="st19" d="M1153.2,922.2l105.3-4.6l-22.3-17.8l3-53.1c1.5-3.8,18.6-47.2,17.8-51.3l43.3-63c-0.6-3,4.5-9.1,5.3-12.1
			l19.5-47.9L1153.2,922.2z"/>
	</g>
	<g id="cloudes">
		<circle class="st20" cx="1191" cy="558.4" r="34.9"/>
		<circle class="st20" cx="1225.9" cy="550.2" r="34.9"/>
		<circle class="st20" cx="1264.5" cy="558.4" r="26.6"/>
		<circle class="st20" cx="1153.1" cy="566" r="26.6"/>
		<circle class="st21" cx="998.6" cy="626.6" r="18.2"/>
		<circle class="st21" cx="1016.7" cy="622.3" r="18.2"/>
		
			<ellipse transform="matrix(0.1602 -0.9871 0.9871 0.1602 252.2238 1549.6337)" class="st21" cx="1036.8" cy="626.6" rx="13.8" ry="13.8"/>
		<circle class="st21" cx="978.9" cy="630.5" r="13.8"/>
		<circle class="st20" cx="599.9" cy="594.7" r="37.7"/>
		<circle class="st20" cx="624.9" cy="584.6" r="42.8"/>
		<ellipse class="st20" cx="662" cy="584.6" rx="23.8" ry="25.5"/>
		<ellipse class="st20" cx="671.2" cy="604.8" rx="25.5" ry="23.8"/>
		<g class="st22">
			<ellipse class="st23" cx="565" cy="609.5" rx="34.9" ry="20.5"/>
		</g>
	</g>
	<g id="back_hedge">
		<path class="st24" d="M1110.3,820.7L1110.3,820.7c10.1,0,18.3,8.2,18.3,18.3v5.6c0,10.1-8.2,18.3-18.3,18.3h0
			c-10.1,0-18.3-8.2-18.3-18.3V839C1092,828.9,1100.2,820.7,1110.3,820.7z"/>
		<path class="st24" d="M797.4,803.1L797.4,803.1c10.1,0,18.3,8.2,18.3,18.3v5.6c0,10.1-8.2,18.3-18.3,18.3h0
			c-10.1,0-18.3-8.2-18.3-18.3v-5.6C779,811.3,787.2,803.1,797.4,803.1z"/>
		<path class="st24" d="M627.4,810.1L627.4,810.1c10.1,0,18.3,8.2,18.3,18.3v5.6c0,10.1-8.2,18.3-18.3,18.3h0
			c-10.1,0-18.3-8.2-18.3-18.3v-5.6C609,818.3,617.2,810.1,627.4,810.1z"/>
		<path class="st24" d="M356.4,862.1L356.4,862.1c10.1,0,18.3,8.2,18.3,18.3v5.6c0,10.1-8.2,18.3-18.3,18.3l0,0
			c-10.1,0-18.3-8.2-18.3-18.3v-5.6C338,870.3,346.2,862.1,356.4,862.1z"/>
		<path class="st24" d="M330.4,870.1L330.4,870.1c10.1,0,18.3,8.2,18.3,18.3v5.6c0,10.1-8.2,18.3-18.3,18.3l0,0
			c-10.1,0-18.3-8.2-18.3-18.3v-5.6C312,878.3,320.2,870.1,330.4,870.1z"/>
		<path class="st24" d="M305.4,880.1L305.4,880.1c10.1,0,18.3,8.2,18.3,18.3v5.6c0,10.1-8.2,18.3-18.3,18.3l0,0
			c-10.1,0-18.3-8.2-18.3-18.3v-5.6C287,888.3,295.2,880.1,305.4,880.1z"/>
		<path class="st24" d="M1165.8,814L1165.8,814c10.1,0,18.3,8.2,18.3,18.3v5.6c0,10.1-8.2,18.3-18.3,18.3h0
			c-10.1,0-18.3-8.2-18.3-18.3v-5.6C1147.5,822.2,1155.7,814,1165.8,814z"/>
		<path class="st24" d="M1162.3,824.3L1162.3,824.3c10.1,0,18.3,8.2,18.3,18.3v5.6c0,10.1-8.2,18.3-18.3,18.3h0
			c-10.1,0-18.3-8.2-18.3-18.3v-5.6C1144,832.5,1152.2,824.3,1162.3,824.3z"/>
		<path class="st24" d="M1078.9,827.9L1078.9,827.9c10.1,0,18.3,8.2,18.3,18.3v5.6c0,10.1-8.2,18.3-18.3,18.3h0
			c-10.1,0-18.3-8.2-18.3-18.3v-5.6C1060.6,836.1,1068.8,827.9,1078.9,827.9z"/>
		<path class="st24" d="M1006.2,821.5L1006.2,821.5c10.1,0,18.3,8.2,18.3,18.3v5.6c0,10.1-8.2,18.3-18.3,18.3l0,0
			c-10.1,0-18.3-8.2-18.3-18.3v-5.6C987.9,829.8,996.1,821.5,1006.2,821.5z"/>
		<path class="st24" d="M1035.2,827.9L1035.2,827.9c10.1,0,18.3,8.2,18.3,18.3v5.6c0,10.1-8.2,18.3-18.3,18.3l0,0
			c-10.1,0-18.3-8.2-18.3-18.3v-5.6C1016.9,836.1,1025.1,827.9,1035.2,827.9z"/>
		<path class="st24" d="M650,810.1L650,810.1c10.1,0,18.3,8.2,18.3,18.3v5.6c0,10.1-8.2,18.3-18.3,18.3h0
			c-10.1,0-18.3-8.2-18.3-18.3v-5.6C631.7,818.3,639.9,810.1,650,810.1z"/>
		<path class="st24" d="M478.7,859.7L478.7,859.7c10.1,0,18.3,8.2,18.3,18.3v5.6c0,10.1-8.2,18.3-18.3,18.3l0,0
			c-10.1,0-18.3-8.2-18.3-18.3V878C460.4,867.9,468.6,859.7,478.7,859.7z"/>
		<path class="st24" d="M596.6,818.2L596.6,818.2c10.1,0,18.3,8.2,18.3,18.3v5.6c0,10.1-8.2,18.3-18.3,18.3h0
			c-10.1,0-18.3-8.2-18.3-18.3v-5.6C578.2,826.5,586.4,818.2,596.6,818.2z"/>
		<path class="st24" d="M570.3,825.9L570.3,825.9c10.1,0,18.3,8.2,18.3,18.3v5.6c0,10.1-8.2,18.3-18.3,18.3h0
			c-10.1,0-18.3-8.2-18.3-18.3v-5.6C551.9,834.1,560.2,825.9,570.3,825.9z"/>
		<path class="st24" d="M768.4,812.8L768.4,812.8c10.1,0,18.3,8.2,18.3,18.3v5.6c0,10.1-8.2,18.3-18.3,18.3h0
			c-10.1,0-18.3-8.2-18.3-18.3v-5.6C750,821,758.2,812.8,768.4,812.8z"/>
		<path class="st24" d="M1134.5,835.2L1134.5,835.2c10.1,0,18.3,8.2,18.3,18.3v5.6c0,10.1-8.2,18.3-18.3,18.3h0
			c-10.1,0-18.3-8.2-18.3-18.3v-5.6C1116.2,843.4,1124.4,835.2,1134.5,835.2z"/>
	</g>
	<g id="land">
		<path class="st25" d="M1495.5,961.9c0,52.4-82.8,47.9-227.4,47.9s-261.8-42.5-261.8-94.9s146.6-87.2,289.3-110.3
			c85-13.8,199.6-7.1,199.9,22C1495.8,859.6,1495.5,916.3,1495.5,961.9z"/>
		<ellipse class="st26" cx="1015.5" cy="934.3" rx="261.8" ry="94.9"/>
		<path class="st27" d="M970.5,933c0,52.4-246.2,168.4-390.8,168.4s-514.8,10.7-514.8-41.7C64.9,908.4,564.1,838,708.7,838
			S970.5,880.5,970.5,933z"/>
		<path class="st28" d="M1542.8,1146.1L164.7,1140l-144.9-33.7l-57.6,33.7c0,0,408-121.2,484.3-148.3
			C529.7,962,982,870.9,1167.4,870.9s333.1,6.7,374.1,48.5l0.5,79.8L1542.8,1146.1z"/>
		<path class="st29" d="M1543.4,901.3l-0.2,85v18.5l-0.3,141.4L164.7,1140H-18.1c125.3-105.6,665.9-128.6,833.1-150.8
			c99.3-13.2,262.7-6.5,340.7-5.5c5.5,0.1,10.5,0.1,15.1,0.1c14.7,0,29.4-0.9,44-2.8C1342.5,965.5,1456.7,890,1543.4,901.3z"/>
	</g>
	<g class="st30">
		<path class="st31" d="M712.9,811.3L712.9,811.3c3.7,0,6.6,3,6.6,6.6v57.5c0,3.7-3,6.6-6.6,6.6l0,0c-3.7,0-6.6-3-6.6-6.6V818
			C706.3,814.3,709.3,811.3,712.9,811.3z"/>
		<path class="st31" d="M699.1,846.7c-5.6,0-8.4-4.5-8.4-9.7v-9.4c0-0.3,0-6.7,0-7c0.1-1-0.6-2-1.7-2.1c-0.7-0.1-1.3,0.2-1.7,0.8
			c-1.8,2.4-2.8,5.4-2.8,8.4v10.7c0,7.9,6.4,14.4,14.4,14.4h10.7c2.7,0,7.7-0.7,7.7-3.3s-6.2-2.7-8.1-2.7"/>
		<path class="st31" d="M728.9,834.1c5.5,0,8.4-4.5,8.4-9.7V815c0-0.3,0-6.7,0-7c-0.1-1,0.6-2,1.7-2.1c0.7-0.1,1.3,0.2,1.7,0.8
			c1.8,2.4,2.8,5.4,2.8,8.4v10.7c0,7.9-6.4,14.4-14.4,14.4h-10.7c-2.7,0-7.7-0.7-7.7-3.3s6.2-2.7,8.1-2.7"/>
		<path class="st32" d="M708.3,747h11c14.7,0,26.5,11.9,26.5,26.5V800c0,14.7-11.9,26.5-26.5,26.5h-11c-14.7,0-26.5-11.9-26.5-26.5
			v-26.5C681.8,758.8,693.7,747,708.3,747z"/>
		<path class="st32" d="M686,795.8h6.1c7.8,0,14.1,6.3,14.1,14.1v13.8c0,7.8-6.3,14.1-14.1,14.1H686c-7.8,0-14.1-6.3-14.1-14.1
			v-13.8C672,802.1,678.3,795.8,686,795.8z"/>
		<path class="st32" d="M738.6,786.4h6.1c7.8,0,14.1,6.3,14.1,14.1v13.8c0,7.8-6.3,14.1-14.1,14.1h-6.1c-7.8,0-14.1-6.3-14.1-14.1
			v-13.8C724.5,792.7,730.8,786.4,738.6,786.4z"/>
		<ellipse class="st33" cx="713.6" cy="879.5" rx="43.7" ry="3.9"/>
	</g>
	<path class="st34" d="M25.9,1037.5L25.9,1037.5c9.9,0,18,8,18,18v155.6c0,9.9-8,18-18,18l0,0c-9.9,0-18-8-18-18v-155.6
		C7.9,1045.5,16,1037.5,25.9,1037.5z"/>
	<path class="st34" d="M69.2,1099c15,0,22.7-12.2,22.7-26.2v-25.4c0-1,0-18.2-0.1-19.1c-0.3-2.8,1.7-5.4,4.5-5.7
		c1.8-0.2,3.6,0.6,4.7,2c4.9,6.6,7.5,14.5,7.5,22.7v28.9c0,21.5-17.4,38.9-39,39H40.7c-7.3,0-20.9-1.8-20.9-9c0-7,16.8-7.3,21.9-7.3
		"/>
	<path class="st35" d="M-3.9,863.1h64.7c30.1,0,54.5,24.4,54.5,54.5v14.9c0,30.1-24.4,54.5-54.5,54.5H-3.9
		c-30.1,0-54.5-24.4-54.5-54.5v-14.9C-58.4,887.5-34,863.1-3.9,863.1z"/>
	<path class="st35" d="M36.4,948.9H101c30.1,0,54.5,24.4,54.5,54.5v14.9c0,30.1-24.4,54.5-54.5,54.5H36.4
		c-30.1,0-54.5-24.4-54.5-54.5v-14.9C-18.1,973.3,6.3,948.9,36.4,948.9z"/>
	<path class="st36" d="M-12.3,1000.2H4.3c21.1,0,38.2,17.1,38.2,38.2v37.4c0,21.1-17.1,38.2-38.2,38.2h-16.5
		c-21.1,0-38.2-17.1-38.2-38.2v-37.4C-50.5,1017.3-33.4,1000.2-12.3,1000.2z"/>
	<path class="st37" d="M85.4,1021.3h36.4c15.6,0,28.2,12.6,28.2,28.3v5.7c0,15.6-12.6,28.2-28.2,28.2H85.4
		c-15.6,0-28.2-12.6-28.2-28.2v-5.7C57.2,1033.9,69.8,1021.3,85.4,1021.3z"/>
	<g class="st38">
		<path class="st39" d="M942.8,867.8L942.8,867.8c-2.2,0-4-1.8-4-4v-34.3c0-2.2,1.8-4,4-4h0c2.2,0,4,1.8,4,4v34.3
			C946.8,866,945,867.8,942.8,867.8z"/>
		<path class="st39" d="M951.1,846.6c3.3,0,5-2.7,5-5.8v-5.6c0-0.2,0-4,0-4.2c0-0.6,0.4-1.2,1-1.2c0.4,0,0.7,0.1,1,0.4
			c1.1,1.4,1.6,3.2,1.6,5v6.4c0,4.7-3.8,8.6-8.6,8.6h-6.3c-1.6,0-4.6-0.4-4.6-2s3.7-1.6,4.8-1.6"/>
		<path class="st39" d="M933.3,839.1c-3.3,0-5-2.7-5-5.8v-5.6c0-0.2,0-4,0-4.2c0-0.6-0.4-1.2-1-1.2c-0.4,0-0.7,0.1-1,0.4
			c-1.1,1.4-1.6,3.2-1.6,5v6.4c0,4.7,3.8,8.6,8.6,8.6h6.3c1.6,0,4.6-0.4,4.6-2s-3.7-1.6-4.8-1.6"/>
		<path class="st32" d="M927.5,835.7h-3.6c-4.6,0-8.4-3.8-8.4-8.4v-8.2c0-4.6,3.8-8.4,8.4-8.4h3.6c4.6,0,8.4,3.8,8.4,8.4v8.2
			C935.9,831.9,932.1,835.7,927.5,835.7z"/>
		<path class="st32" d="M945.5,834.6H939c-8.7,0-15.8-7.1-15.8-15.8V803c0-8.7,7.1-15.8,15.8-15.8h6.6c8.7,0,15.8,7.1,15.8,15.8
			v15.8C961.4,827.6,954.3,834.6,945.5,834.6z"/>
		<path class="st32" d="M958.8,841.4h-3.6c-4.6,0-8.4-3.8-8.4-8.4v-8.2c0-4.6,3.8-8.4,8.4-8.4h3.6c4.6,0,8.4,3.8,8.4,8.4v8.2
			C967.2,837.6,963.5,841.4,958.8,841.4z"/>
		<ellipse class="st33" cx="942.4" cy="866.2" rx="26.1" ry="2.3"/>
	</g>
	<g class="st1">
		<path class="st39" d="M1045.2,859.8L1045.2,859.8c-2.2,0-4-1.8-4-4v-34.3c0-2.2,1.8-4,4-4h0c2.2,0,4,1.8,4,4v34.3
			C1049.2,858,1047.4,859.8,1045.2,859.8z"/>
		<path class="st39" d="M1053.5,838.6c3.3,0,5-2.7,5-5.8v-5.6c0-0.2,0-4,0-4.2c0-0.6,0.4-1.2,1-1.2c0.4,0,0.7,0.1,1,0.4
			c1.1,1.4,1.7,3.2,1.7,5v6.4c0,4.7-3.8,8.6-8.6,8.6h-6.3c-1.6,0-4.6-0.4-4.6-2s3.7-1.6,4.8-1.6"/>
		<path class="st39" d="M1035.7,831.1c-3.3,0-5-2.7-5-5.8v-5.6c0-0.2,0-4,0-4.2c0-0.6-0.4-1.2-1-1.2c-0.4,0-0.7,0.1-1,0.4
			c-1.1,1.4-1.7,3.2-1.7,5v6.4c0,4.7,3.8,8.6,8.6,8.6h6.4c1.6,0,4.6-0.4,4.6-2s-3.7-1.6-4.8-1.6"/>
		<path class="st32" d="M1029.9,827.7h-3.6c-4.6,0-8.4-3.8-8.4-8.4v-8.2c0-4.6,3.8-8.4,8.4-8.4h3.6c4.6,0,8.4,3.8,8.4,8.4v8.2
			C1038.3,823.9,1034.6,827.7,1029.9,827.7z"/>
		<path class="st32" d="M1048,826.6h-6.6c-8.7,0-15.8-7.1-15.8-15.8V795c0-8.7,7.1-15.8,15.8-15.8h6.6c8.7,0,15.8,7.1,15.8,15.8
			v15.8C1063.8,819.5,1056.7,826.6,1048,826.6z"/>
		<path class="st32" d="M1061.3,833.4h-3.6c-4.6,0-8.4-3.8-8.4-8.4v-8.2c0-4.6,3.8-8.4,8.4-8.4h3.6c4.6,0,8.4,3.8,8.4,8.4v8.2
			C1069.7,829.6,1065.9,833.4,1061.3,833.4z"/>
		<ellipse class="st33" cx="1044.8" cy="858.2" rx="26.1" ry="2.3"/>
	</g>
	<g id="co2">
		
			<ellipse transform="matrix(3.786456e-02 -0.9993 0.9993 3.786456e-02 82.4834 1827.5077)" class="st33" cx="990.3" cy="870.9" rx="2.2" ry="25"/>
		<path class="st40" d="M977.5,849.4c-5.5-0.2-6.6,4.1-6.9,14.4H970c0,0.4-0.8,0.1-0.8,0.5c-0.4-1.1,0-1.5,0-2.7V861
			c0.3-8.3,1-13.6,8.3-13.3L977.5,849.4z"/>
		<path class="st41" d="M969.7,859.6l0.5,0c0.7,0,1.3,0.6,1.2,1.3l-0.1,2.9c0,0.7-0.6,1.3-1.3,1.2l-0.5,0c-0.7,0-1.3-0.6-1.2-1.3
			l0.1-2.9C968.4,860.2,969,859.6,969.7,859.6z"/>
		<path class="st40" d="M1009.8,856.4c-6.6,0.2-11.6,5.7-20.4,5.4s-11.7-3-11.5-7.4s15.6-5.6,24.4-5.3S1014.2,856.2,1009.8,856.4z"
			/>
		<path class="st40" d="M986,869.2l-1.5-0.5c-0.2,0.2-0.5-0.6-0.6-1l-1.4-4.4c-0.1-0.3,0-0.7,0.2-0.9l1.9-1.2c0.2-0.2,0.5,0,0.5,0.5
			l0.9,5.4C986.1,867.7,986.1,868.5,986,869.2z"/>
		<path class="st40" d="M1000.4,868.8l-1.6,0.2c-0.2,0-0.5-0.2-0.5-0.6l0.3-7.2c0-0.3,0-0.5-0.1-0.8c-0.3-1.5-0.3-3.1,0-4.6l1.4,2.1
			c0.3-0.1,2.6,0.6,2.6,1l-1.7,9.2C1000.8,868.5,1000.6,868.8,1000.4,868.8z"/>
		<path class="st42" d="M983.4,863.2h-0.9c-0.7,0-1.3-1.2-1.3-2.7v-1.1c0-1.5,0.7-2.6,1.4-2.6h1.2c0.8,0,1.3,1.2,1.3,2.7v0.5
			C985.1,863.7,984.3,863.3,983.4,863.2z"/>
		<path class="st40" d="M987.7,870.5c0,0.2,0,0.4-0.2,0.4l-3.5-0.1c-0.2,0-0.4-0.2-0.3-0.4l0.1-1.8c0-0.2,0.2-0.4,0.4-0.4l1.5,0
			C986.2,868.2,987.7,870.2,987.7,870.5z"/>
		<path class="st40" d="M1002.9,870.7c0,0.2,0,0.4-0.2,0.4l-3.5-0.1c-0.2,0-0.4-0.2-0.4-0.4l0.1-1.8c0-0.2,0.2-0.4,0.4-0.3h1.5
			C1001.4,868.4,1003,870.3,1002.9,870.7z"/>
		
			<ellipse transform="matrix(3.106184e-02 -0.9995 0.9995 3.106184e-02 92.2571 1818.0577)" class="st41" cx="983.8" cy="861.4" rx="3.8" ry="4.7"/>
		<path class="st43" d="M1004.7,856.1L1004.7,856.1C1004.7,856.2,1004.7,856.2,1004.7,856.1v0.4l-7.1-0.1l-4.6-0.1l-3.5-0.1
			l-6.9-0.1h-0.4l-7.3-0.1h-0.1c0.1-1.3,0.2-2.5,0.3-3.6c0.1-0.7,0.2-1.3,0.4-2c0.7-2.4,2.1-3.9,4.9-3.7l2.4,0.4
			c2.6,0.4,6.6,1,8.4,1.1c0.3,0,0.7,0,1.2,0c3,0,8.5-0.2,8.5-0.2C1005.8,848.3,1005,853.2,1004.7,856.1z"/>
		<path class="st43" d="M979,868.3l-1.7-0.1c-0.2,0-0.5-0.2-0.5-0.6l-0.8-7.5c-0.1-0.3,0.1-0.7,0.4-0.8l3.4-1
			c0.3-0.1,0.5,0.3,0.5,0.7l-0.8,8.6C979.3,868,979.2,868.3,979,868.3z"/>
		<path class="st43" d="M995.8,868.9l-1.6-0.1c-0.2,0-0.4-0.3-0.4-0.7l0.3-7.6c0-0.4,0.2-0.7,0.4-0.7l3.2-0.1c0.3,0,0.5,0.4,0.4,0.9
			l-1.9,7.8C996.2,868.6,996,868.9,995.8,868.9z"/>
		<path class="st43" d="M981.3,870.2c0,0.2,0.1,0.4-0.2,0.4l-3.5-0.1c-0.2,0-0.4-0.2-0.4-0.3c0,0,0,0,0,0l0-1.8
			c0-0.2,0.2-0.4,0.4-0.3h1.5C979.7,867.9,981.3,869.9,981.3,870.2z"/>
		<path class="st43" d="M997.8,870.8c0,0.2,0,0.4-0.2,0.4l-3.5-0.1c-0.2,0-0.4-0.2-0.4-0.4c0,0,0,0,0,0l0.1-1.8
			c0-0.2,0.2-0.4,0.4-0.3h1.5C996.2,868.5,997.8,870.5,997.8,870.8z"/>
		<path class="st43" d="M1004.7,856.2L1004.7,856.2v0.2c-0.1,2.3-2.1,3.7-4.9,4.6c-2.3,0.7-4.7,1.1-7.1,1.2c-2,0.1-3.8,0.2-5.3,0.2
			c-0.9,0-1.7,0-2.2,0c-6.2-0.2-9-1.7-9.9-4.1c-0.2-0.5-0.3-1.1-0.3-1.7v-0.5v-0.6c0.1-1.1,0.5-2.2,1.4-3c0.8-0.8,1.8-1.5,2.9-2
			c1.1-0.5,2.2-0.9,3.4-1.2c2.5-0.6,5-0.9,7.6-0.8c0.9,0,1.7,0.1,2.6,0.2c1.3,0.2,2.6,0.4,3.8,0.7c1.9,0.5,3.7,1.3,5.3,2.3
			c1.8,1.2,2.9,2.7,3,4.3l0,0L1004.7,856.2z"/>
		<path class="st44" d="M1011,850.3l0.1-0.2c0.2-0.3,0.6-0.5,1-0.5c0.2,0,0.4,0.1,0.6,0.2l0.8,0.7c0.2,0.2,0.4,0.5,0.4,0.8
			c0,0.3-0.1,0.6-0.3,0.9l-0.1,0.2L1011,850.3z"/>
		<path class="st43" d="M1012.1,849.8c0.2,0,0.3,0.1,0.5,0.2l0.8,0.7c0.4,0.4,0.4,1,0.1,1.4l-2.2-1.7
			C1011.5,850,1011.8,849.8,1012.1,849.8 M1012.1,849.3L1012.1,849.3c-0.5,0-0.9,0.2-1.2,0.6l-0.3,0.4l0.3,0.3l2.2,1.7l0.3,0.3
			l0.3-0.4c0.5-0.6,0.5-1.5-0.1-2l-0.9-0.7C1012.7,849.4,1012.4,849.3,1012.1,849.3L1012.1,849.3z"/>
		<path class="st43" d="M1010.3,848.4L1010.3,848.4c1.7,0.3,2.9,1.9,2.7,3.6l-0.3,1.9c-0.3,1.7-1.9,2.9-3.6,2.7l0,0
			c-1.7-0.3-2.9-1.9-2.7-3.6l0.3-1.9C1007,849.3,1008.6,848.1,1010.3,848.4z"/>
		<path class="st43" d="M1007.3,852.8L1007.3,852.8c0.8-1.4,2.6-1.8,3.9-1l2.2,1.3c1.4,0.8,1.8,2.6,1,3.9l0,0
			c-0.8,1.4-2.6,1.8-3.9,1l-2.2-1.3C1006.9,855.9,1006.5,854.1,1007.3,852.8z"/>
		<circle class="st45" cx="1012.3" cy="852" r="0.6"/>
		<path class="st44" d="M1006.1,851.4c-0.2-0.3-0.3-0.6-0.3-0.9c0-0.3,0.2-0.6,0.4-0.8l0.9-0.6c0.2-0.1,0.4-0.2,0.6-0.2
			c0.4,0,0.8,0.2,1.1,0.6l0.1,0.2l-2.7,1.9L1006.1,851.4z"/>
		<path class="st43" d="M1007.7,849.2c0.4,0,0.7,0.2,0.9,0.5l-2.3,1.6c-0.3-0.4-0.3-1,0.1-1.4l0.9-0.6
			C1007.4,849.2,1007.5,849.2,1007.7,849.2 M1007.7,848.7L1007.7,848.7c-0.2,0-0.5,0.1-0.7,0.2l-0.9,0.6c-0.3,0.2-0.5,0.6-0.5,0.9
			c0,0.4,0.1,0.7,0.3,1l0.3,0.4l0.4-0.3l2.3-1.6l0.4-0.3l-0.3-0.4C1008.6,848.9,1008.2,848.7,1007.7,848.7L1007.7,848.7z"/>
		<path class="st41" d="M1008.2,848.6c0.1-0.6,0.8-1,1.8-0.8s1.4,0.7,1.3,1.3"/>
		<path class="st41" d="M1009.9,848.9c0.3-0.7,1.1-1.1,1.8-0.8c0.5,0.2,0.9,0.7,0.9,1.2"/>
		<path class="st41" d="M1008.2,848.6c0.9,0.4,1.5,1.2,1.6,2.2c0.3-0.7,0.4-1.4,0.2-2.1"/>
		<path class="st41" d="M1009.8,848.9c0,0,1,0.6,1,1.3c0,0,0.8-0.9,0.6-1.5"/>
		<circle class="st45" cx="1010.8" cy="852" r="0.6"/>
		<path class="st44" d="M1014.5,857.4c-0.1,0.8-1.4,1.2-2.9,1s-2.6-1.5-2.5-2.2s1.4-0.7,2.9-0.5S1014.6,856.6,1014.5,857.4z"/>
		<path class="st41" d="M1011.1,853.9l3.3,0.5c0.9,0.1,1.5,0.9,1.3,1.8l0,0.2c-0.1,0.9-0.9,1.5-1.8,1.3l-3.3-0.5
			c-0.9-0.1-1.5-0.9-1.3-1.8l0-0.2C1009.4,854.4,1010.2,853.8,1011.1,853.9z"/>
		<path class="st44" d="M1011.3,855.4c-0.6-0.2-0.9-0.8-0.7-1.4c0.1-0.4,0.5-0.7,0.9-0.7h0.1c0.2,0,0.4,0.2,0.6,0.3
			c0.2,0.2,0.2,0.5,0.2,0.8c0,0.5-0.4,0.9-0.9,0.9L1011.3,855.4z"/>
		<path class="st41" d="M1011.5,853.6L1011.5,853.6c0.5,0.1,0.7,0.5,0.6,0.9c0,0.4-0.3,0.7-0.7,0.7h-0.1c-0.4-0.1-0.6-0.5-0.5-0.9
			C1010.8,853.9,1011.1,853.6,1011.5,853.6 M1011.5,853.1L1011.5,853.1c-0.6,0-1.1,0.5-1.2,1.1c-0.1,0.3,0,0.6,0.2,0.9
			c0.2,0.3,0.4,0.5,0.8,0.5h0.2c0.6,0,1.1-0.5,1.2-1.1c0.1-0.7-0.3-1.3-1-1.5L1011.5,853.1z"/>
		<path class="st44" d="M1014.3,856c-0.2,0-0.4-0.2-0.6-0.3c-0.2-0.2-0.2-0.5-0.2-0.8c0-0.5,0.4-0.9,0.9-0.9h0.1
			c0.5,0.1,0.9,0.6,0.8,1.2c0,0.5-0.4,0.9-0.9,0.9L1014.3,856z"/>
		<path class="st41" d="M1014.5,854.1L1014.5,854.1c0.5,0.1,0.7,0.5,0.6,0.9c0,0.4-0.3,0.7-0.7,0.7h-0.1c-0.4-0.1-0.6-0.5-0.5-0.9
			C1013.8,854.5,1014.1,854.2,1014.5,854.1 M1014.5,853.6L1014.5,853.6c-0.6,0-1.1,0.5-1.2,1.1c-0.1,0.3,0,0.6,0.2,0.9
			c0.2,0.3,0.5,0.5,0.8,0.5h0.2c0.6,0,1.1-0.5,1.2-1.1c0.1-0.7-0.3-1.3-1-1.4c0,0,0,0,0,0L1014.5,853.6L1014.5,853.6z"/>
	</g>
	<path class="st46" d="M1004.7,856.2L1004.7,856.2v0.2c-0.1,2.3-2.1,3.7-4.9,4.6c-1.1-0.8-1.7-2-1.6-3.3l0,0c0-0.5-0.2-1-0.6-1.3
		c-0.1-0.1-0.2-0.2-0.3-0.2c-1.4-0.6-2.3-2.1-2.3-3.7c0-1.2,0.5-2.3,1.4-3.1c0.6-0.5,1.3-0.7,2-0.8c1.7,0.1,3.1,1.4,3.3,3.1
		c0,0.3,0.1,0.5,0.1,0.8l0,0c0,0.6,0.4,1.2,0.9,1.5C1003.7,854.5,1004.4,855.3,1004.7,856.2L1004.7,856.2z"/>
	<path class="st46" d="M993.2,856.2l-0.2,0.2c-1.1,0.8-2.5,0.7-3.5-0.1c-0.2-0.1-0.3-0.2-0.5-0.4l-0.2-0.2c-0.3-0.3-0.6-0.4-1-0.4
		h-0.3c-2.8,0-5.1-2.6-5.1-5.8c0-0.1,0-0.2,0-0.2c0-0.7,0.2-1.5,0.5-2.2c2.6,0.4,6.6,1,8.4,1.1c0.3,0,0.7,0,1.2,0
		c0,0.2,0,0.3,0.1,0.5c0,0.3,0,0.6,0,0.8c0,0.4,0,0.8-0.1,1.2c-0.1,0.4,0.1,0.9,0.4,1.2h0C994.2,853,994.3,854.9,993.2,856.2
		C993.2,856.2,993.2,856.2,993.2,856.2z"/>
	<path class="st46" d="M982.9,857.3c0,1.3-1.4,2.4-3.2,2.4c-1.2,0.1-2.3-0.5-2.9-1.5c-0.1-0.3-0.4-0.5-0.7-0.6
		c-0.5-0.3-1-0.6-1.3-1.1v-0.5h-0.1c0.1-1.3,0.2-2.5,0.3-3.6c0.1-0.7,0.2-1.3,0.4-2c1-0.9,2.5-0.8,3.5,0.1c0.9,0.9,1.4,2.1,1.4,3.3
		l0,0c0,0.5,0.3,1.1,0.8,1.3c0.5,0.2,1,0.5,1.3,1C982.8,856.5,983,856.9,982.9,857.3z"/>
	<path class="st46" d="M992.7,862.2c-2,0.1-3.8,0.2-5.3,0.2c-0.7-1.1-0.6-2.5,0.3-3.5c1.2-1,3.1-0.9,4.2,0.3
		C992.6,860,993,861.1,992.7,862.2z"/>
	<polygon class="st47" points="858.5,721.5 790.1,721.5 790.1,679.4 869.2,679.4 	"/>
	<g id="UFO">
		<path class="st41" d="M460.7,838.1l0.2,0.1c0.3,0.1,0.4,0.3,0.4,0.6l-0.1,1.2c0,0.2-0.2,0.4-0.4,0.4c0,0-0.1,0-0.1,0l-0.2-0.1
			c-0.3-0.1-0.4-0.3-0.4-0.6l0.1-1.2C460.2,838.2,460.4,838,460.7,838.1C460.6,838.1,460.6,838.1,460.7,838.1z"/>
		<path class="st40" d="M445.5,838.4c2.5,0.5,4.5-1.4,7.8-0.5s4.2,2.2,4,3.9s-6,1-9.3,0.2S443.9,838.1,445.5,838.4z"/>
		<path class="st40" d="M454.9,835.2l0.5,0.3c0.1,0,0.2,0.3,0.2,0.4l0.4,1.9c0,0.1,0,0.3-0.1,0.4l-0.8,0.3c-0.1,0.1-0.2,0-0.2-0.2
			l-0.1-2.2C454.8,835.7,454.8,835.4,454.9,835.2z"/>
		<path class="st40" d="M449.5,834.2h0.6c0.1,0,0.2,0.1,0.2,0.3l-0.4,2.9c0,0.1,0,0.2,0,0.3c0,0.6,0,1.3-0.2,1.9l-0.5-1
			c-0.1,0-0.9-0.4-0.9-0.6l1-3.6C449.3,834.2,449.4,834.2,449.5,834.2z"/>
		<path class="st42" d="M455.6,837.8l0.3,0.1c0.3,0.1,0.4,0.6,0.4,1.2l0,0.4c-0.1,0.6-0.4,1-0.6,0.9l-0.4-0.1
			c-0.3-0.1-0.4-0.6-0.4-1.2v-0.2C455,837.5,455.2,837.7,455.6,837.8z"/>
		<path class="st40" d="M454.2,834.5c0-0.1,0-0.2,0.1-0.1l1.3,0.3c0.1,0,0.1,0.1,0.1,0.2l-0.1,0.7c0,0.1-0.1,0.1-0.1,0.1
			c0,0,0,0,0,0l-0.5-0.1C454.8,835.5,454.2,834.6,454.2,834.5z"/>
		<path class="st40" d="M448.6,833.2c0-0.1,0-0.2,0.1-0.1l1.3,0.3c0.1,0,0.1,0.1,0.1,0.2l-0.1,0.7c0,0.1-0.1,0.1-0.1,0.1
			c0,0,0,0,0,0l-0.5-0.1C449,834,448.7,833.6,448.6,833.2z"/>
		
			<ellipse transform="matrix(0.508 -0.8614 0.8614 0.508 -498.1767 804.7453)" class="st41" cx="455.3" cy="838.5" rx="1.5" ry="1.8"/>
		<path class="st41" d="M456.3,836.7L456.3,836.7c0.1,0,0.2,0.2,0.2,0.3l-0.1,0.5c0,0.1-0.1,0.2-0.2,0.2c0,0,0,0-0.1,0l0,0
			c-0.1,0-0.2-0.2-0.2-0.3l0-0.5c0-0.1,0.1-0.2,0.2-0.3C456.2,836.7,456.3,836.7,456.3,836.7z"/>
		<path class="st41" d="M455,836.4L455,836.4c0.2,0,0.3,0.2,0.3,0.4v0.3c0,0.1-0.1,0.3-0.3,0.3c0,0,0,0,0,0l0,0
			c-0.2,0-0.3-0.2-0.3-0.4v-0.3C454.7,836.5,454.9,836.4,455,836.4C455,836.4,455,836.4,455,836.4z"/>
		<path class="st43" d="M457.4,836.1l0.6,0.2c0.1,0,0.2,0.1,0.2,0.3v3.1c0,0.2-0.1,0.3-0.2,0.3l-1.3,0.1c-0.1,0-0.2-0.2-0.2-0.3
			l0.6-3.4C457.3,836.2,457.4,836.1,457.4,836.1z"/>
		<path class="st43" d="M451.2,834.5l0.6,0.2c0.1,0,0.1,0.2,0.1,0.3l-0.4,3c0,0.2-0.1,0.3-0.2,0.3l-1.2-0.2c-0.1,0-0.2-0.2-0.1-0.4
			l1-3C451,834.5,451.1,834.5,451.2,834.5z"/>
		<path class="st43" d="M456.6,835.1c0-0.1,0-0.2,0.1-0.1l1.3,0.3c0.1,0,0.1,0.1,0.1,0.2l-0.1,0.7c0,0.1-0.1,0.1-0.1,0.1
			c0,0,0,0,0,0l-0.5-0.1C457,835.9,456.8,835.5,456.6,835.1z"/>
		<path class="st43" d="M450.5,833.6c0-0.1,0-0.2,0.1-0.1l1.3,0.3c0.1,0,0.1,0.1,0.1,0.2l-0.1,0.7c0,0.1-0.1,0.1-0.1,0.1
			c0,0,0,0,0,0l-0.5-0.1C451,834.6,450.5,833.7,450.5,833.6z"/>
		<path class="st43" d="M447.4,838.8c0.3-2.5,5.9-1.2,7.5-0.8c3.1,0.8,3.8,1.9,3.6,3.6s-2.9,2.4-5.9,1.6S447.2,840.5,447.4,838.8z"
			/>
		<path class="st43" d="M445.8,838.4L445.8,838.4c0.7,0.3,1.1,0.9,0.9,1.6l-0.2,0.8c-0.1,0.5-0.6,0.9-1.1,0.8c-0.1,0-0.2,0-0.3-0.1
			H445c-0.6-0.3-1-0.9-0.8-1.6l0.2-0.8c0.1-0.5,0.6-0.9,1.1-0.8C445.6,838.3,445.7,838.4,445.8,838.4z"/>
		<path class="st43" d="M443.8,837.8L443.8,837.8c0.3-0.4,1-0.5,1.4-0.2c0,0,0.1,0.1,0.1,0.1l0.8,0.7c0.5,0.4,0.6,1.1,0.2,1.7l0,0
			c-0.3,0.4-1,0.5-1.4,0.2c0,0-0.1-0.1-0.1-0.1l-0.8-0.7C443.6,839.1,443.5,838.3,443.8,837.8z"/>
		<path class="st44" d="M443.8,837.6c0.1-0.3,0.6-0.4,1.1-0.2s0.9,0.8,0.9,1.1s-0.6,0.2-1.1,0S443.7,837.9,443.8,837.6z"/>
		<path class="st41" d="M444.1,837.5l1.2,0.5c0.3,0.1,0.5,0.5,0.4,0.8v0.1c-0.1,0.3-0.3,0.5-0.6,0.4c0,0,0,0-0.1,0l-1.2-0.5
			c-0.3-0.1-0.5-0.5-0.4-0.8v-0.1C443.4,837.6,443.7,837.4,444.1,837.5C444,837.5,444,837.5,444.1,837.5z"/>
		<path class="st44" d="M443.6,839c-0.2-0.1-0.3-0.3-0.2-0.5c0-0.2,0.2-0.3,0.3-0.3l0,0h0.1c0.2,0.1,0.3,0.3,0.2,0.5
			C444,838.9,443.9,839,443.6,839L443.6,839z"/>
		<path class="st41" d="M443.7,838.3L443.7,838.3c0.2,0.1,0.3,0.3,0.2,0.4c0,0.1-0.1,0.2-0.2,0.2h-0.1c-0.1-0.1-0.2-0.3-0.2-0.4
			C443.5,838.4,443.6,838.3,443.7,838.3 M443.7,838.1L443.7,838.1c-0.2,0-0.4,0.2-0.4,0.4c-0.1,0.2,0.1,0.5,0.3,0.6h0.1
			c0.2,0,0.4-0.2,0.4-0.4c0.1-0.3-0.1-0.5-0.3-0.6C443.8,838.1,443.8,838.1,443.7,838.1L443.7,838.1z"/>
		<circle class="st48" cx="410.6" cy="814.8" r="1.2"/>
		<circle class="st48" cx="464.8" cy="794.3" r="1.2"/>
		<path class="st49" d="M452.5,802.3l-27.2,10.3c-3.6,1.3-5.7-0.9-5-3.6l1.7-9.8c0.6-1.7,2-2.9,3.7-3.5l15.5-5.9
			c1.6-0.7,3.5-0.7,5.1,0.2l8,6.2C456.7,797.8,456.1,800.9,452.5,802.3z"/>
		<path class="st49" d="M430.4,803.7l13.7-5.1c2.7-1,5.7,0.4,6.7,3.1v0c1,2.7-0.4,5.7-3.1,6.7l-13.7,5.1c-2.7,1-5.7-0.4-6.7-3.1l0,0
			C426.4,807.8,427.7,804.8,430.4,803.7z"/>
		<path class="st50" d="M412.4,810.8l48.3-18.3c1.7-0.6,3.5,0.2,4.2,1.9l0,0c0.6,1.7-0.2,3.5-1.9,4.2l-48.3,18.3
			c-1.7,0.6-3.5-0.2-4.2-1.9l0,0C409.8,813.3,410.7,811.4,412.4,810.8z"/>
		<circle class="st48" cx="414.8" cy="813.2" r="1.2"/>
		<circle class="st48" cx="418.9" cy="811.6" r="1.2"/>
		<circle class="st48" cx="423.1" cy="810.1" r="1.2"/>
		<circle class="st48" cx="427.3" cy="808.5" r="1.2"/>
		<circle class="st48" cx="431.4" cy="806.9" r="1.2"/>
		<circle class="st48" cx="435.6" cy="805.3" r="1.2"/>
		<circle class="st48" cx="439.8" cy="803.8" r="1.2"/>
		<circle class="st48" cx="444" cy="802.2" r="1.2"/>
		<circle class="st48" cx="448.1" cy="800.6" r="1.2"/>
		<circle class="st48" cx="452.3" cy="799" r="1.2"/>
		<circle class="st48" cx="456.5" cy="797.5" r="1.2"/>
		<circle class="st48" cx="460.6" cy="795.9" r="1.2"/>
		
			<linearGradient id="SVGID_00000158713724355898076930000004263291139910659761_" gradientUnits="userSpaceOnUse" x1="646.9609" y1="1642.8698" x2="653.7809" y2="1684.8097" gradientTransform="matrix(0.8664 -0.4994 -0.4994 -0.8664 716.6625 2600.3467)">
			<stop  offset="0" style="stop-color:#FFFFFF;stop-opacity:0"/>
			<stop  offset="9.000000e-02" style="stop-color:#FEFCDD;stop-opacity:0.17"/>
			<stop  offset="0.22" style="stop-color:#FCF7B0;stop-opacity:0.38"/>
			<stop  offset="0.36" style="stop-color:#FAF48A;stop-opacity:0.57"/>
			<stop  offset="0.49" style="stop-color:#F9F06A;stop-opacity:0.73"/>
			<stop  offset="0.62" style="stop-color:#F8EE51;stop-opacity:0.85"/>
			<stop  offset="0.75" style="stop-color:#F8EC40;stop-opacity:0.93"/>
			<stop  offset="0.88" style="stop-color:#F7EB36;stop-opacity:0.98"/>
			<stop  offset="1" style="stop-color:#F7EB32"/>
		</linearGradient>
		<polygon style="fill:url(#SVGID_00000158713724355898076930000004263291139910659761_);" points="471.8,847.7 441.3,859.1 
			433.9,816.1 450.3,810 		"/>
	</g>
	<g id="rocks">
		<path class="st52" d="M1195.7,1086.3c0-7.4,9.8-13.4,21.8-13.4s21.8,6,21.8,13.4"/>
	</g>
	<g id="house">
		<polygon class="st53" points="1543.2,986.3 1543.1,1004.8 1279.3,1014.3 1155.7,983.6 1055.8,958.8 1050.6,944.1 1214.8,981 
			1237.3,986 1519.1,976.4 		"/>
		<polygon class="st54" points="1104.8,767.7 1065.1,770.3 1082.5,693.4 1135.7,614.2 1189.3,664 		"/>
		<polygon class="st55" points="1237.3,985.4 1082.9,951 1082.9,752.8 1094.7,694.2 1148.3,619.7 1218.6,705.1 1238.5,752.8 		"/>
		<polygon class="st56" points="1096.3,761.1 1108.2,702.6 1158.7,632.3 1148.3,619.7 1094.7,694.2 1082.9,752.8 1082.9,951 
			1096.3,954 		"/>
		<polygon class="st57" points="1196.7,976.9 1124.6,961.1 1124.6,870.5 1196.7,873.7 		"/>
		<polygon class="st58" points="1265.2,988.9 1249.6,982.1 1237.3,970.5 1236.8,759.2 1394.2,765.8 1392.6,499.6 1519.1,499.6 
			1519.1,976.4 		"/>
		<polygon class="st55" points="1423,615.8 1391.6,618.9 1392.6,499.6 1423.2,504.1 1423.1,553 1400.2,586.4 1423,590 		"/>
		<polygon class="st59" points="1353.3,846.2 1353.3,890.6 1299.3,893.5 1299.3,848.6 1344.1,846.6 		"/>
		<polygon class="st60" points="1344.1,846.6 1344.1,886 1299.3,888.6 1299.3,848.6 		"/>
		<polygon class="st59" points="1447.9,886.2 1394.8,888.9 1394.6,844 1447.9,841.4 		"/>
		<polygon class="st60" points="1394.6,844 1440.2,841.7 1440.2,881.3 1394.8,884.3 		"/>
		<polygon class="st54" points="1499.2,777.5 1220.2,787.6 1210.7,710.1 1135.7,614.2 1428.5,609.8 1489,703.7 		"/>
		<polygon class="st61" points="1499.2,777.5 1220.2,787.7 1215.6,750.5 1214.1,738 1210.7,710.1 1489,703.7 1492.6,730 
			1494.4,742.5 		"/>
		<polygon class="st62" points="1434.9,622.2 1428.5,609.8 1135.7,614.2 1144.2,626.5 		"/>
		<path class="st60" d="M1128.1,785c0-26.7,11-51.3,28.5-51.3s24,25.2,24,51.9"/>
		<polygon class="st63" points="1126.1,784.5 1182.6,790.8 1182.6,783.9 1126.1,777.6 		"/>
		<polygon class="st55" points="1053.5,942 1055,818 1122.7,823 1122.7,958.4 		"/>
		<path class="st23" d="M1057.6,820.9l62.5,4.6v129.7l-63.9-15.2L1057.6,820.9 M1052.4,815.2l-1.5,128.9l74.5,17.7V820.5
			L1052.4,815.2L1052.4,815.2z"/>
		<line class="st64" x1="1054.2" y1="939.5" x2="1122.3" y2="827.5"/>
		<line class="st64" x1="1121.2" y1="957.3" x2="1055.3" y2="819.2"/>
		
			<rect x="1123.3" y="909.1" transform="matrix(1 -6.108614e-03 6.108614e-03 1 -5.6922 6.8948)" class="st56" width="5.1" height="52.3"/>
		<polygon class="st56" points="1199.4,975.2 1200.4,852.9 1266.6,857.8 1266.6,989.7 		"/>
		<path class="st42" d="M1203,855.7l61,4.5v126.2l-62-13.4L1203,855.7 M1197.8,850l-1.1,127.3l72.5,15.7V855.4L1197.8,850
			L1197.8,850z"/>
		<line class="st65" x1="1264.4" y1="860.6" x2="1201.1" y2="974.4"/>
		<line class="st65" x1="1264.1" y1="987.1" x2="1205.9" y2="858.7"/>
		<line class="st66" x1="1271.6" y1="993" x2="1271.5" y2="855.4"/>
		<g id="LABCOAT">
			<polygon class="st67" points="1324,642.5 1304.3,646.9 1300.2,611.4 1312.4,611.6 			"/>
			<path class="st68" d="M1301.2,611.3L1301.2,611.3c1.8,0,3.3,1.5,3.3,3.3v22.9c0,1.8-1.5,3.3-3.3,3.3h0c-1.8,0-3.3-1.5-3.3-3.3
				v-22.9C1297.9,612.8,1299.4,611.3,1301.2,611.3z"/>
			<rect x="1296.6" y="637.2" class="st23" width="9" height="3.9"/>
			
				<rect x="1308.6" y="617.3" transform="matrix(0.9763 -0.2163 0.2163 0.9763 -102.9697 298.187)" class="st68" width="4.7" height="4.5"/>
			
				<rect x="1307.8" y="616.4" transform="matrix(0.9772 -0.2125 0.2125 0.9772 -101.2163 292.5717)" class="st68" width="5.2" height="1.5"/>
		</g>
		<g id="Layer_14">
			<path class="st69" d="M1360.8,607.2c0,1-0.1,1.9-0.2,2.8c0,0.4-0.1,0.8-0.2,1.2l0,0c-0.1,0.7,1,0.7,0.8,1.4c0,0,0,0.1,0,0.2
				c-0.4,0.2-2.1,1.1-2.6,1.3c-1,0.4-2.1,0.7-3.2,1c-2,0.4-4,0.6-6,0.6c-3.1,0-6.1-0.5-9-1.5c-2-0.7-3.4-2.5-3.7-4.5l0,0
				c0-0.2-0.1-0.3-0.1-0.5c-0.1-0.7-0.1-1.3-0.1-2s0-1.1,0.1-1.6s0.1-0.9,0.1-1.3l0.1-0.5c0,0,0-0.1,0-0.1c0.1-0.9,0.3-1.8,0.6-2.8
				l0.1-0.3l0.2-0.6c0.2-0.5,0.3-1,0.6-1.5c0-0.1,0.1-0.3,0.2-0.4l0.1-0.2l0.2-0.4c0.3-0.7,0.7-1.4,1.2-2.1c0.2-0.3,0.4-0.6,0.6-0.9
				l0.2-0.2c1.8-2.6,4.6-4.2,7.8-4.4h0.3c4.2,0,8,3.1,10.1,7.8C1360.1,600.7,1360.8,604,1360.8,607.2z"/>
			<path class="st69" d="M1353.6,576.1l3.7,4.5l-6.4,4.6l1.5-8.7c0-0.4,0.4-0.7,0.8-0.6C1353.4,575.9,1353.5,576,1353.6,576.1z"/>
			<path class="st69" d="M1362.9,583.5c-0.9-3.6-4.6-5.8-8.2-4.9c-3.4,0.9-5.6,4.3-5,7.7l-4.5,10.9c-0.8,1.9,0.1,4,2,4.8l0,0
				c0.2,0.1,0.4,0.2,0.7,0.2l-1.2,3.5c-0.8,2.4,0.5,5.1,2.9,5.9l1.2,0.4c2.4,0.8,9.4,2.8,10.3,0.4c0,0,0.9-8.1,0.9-13.4
				c0-3.4-0.5-7.2-1.6-8.4C1362.7,589,1363.7,586.2,1362.9,583.5z"/>
			<path class="st70" d="M1347.9,597.4c-0.2,1.1-3.5,1.6-7.4,1.2c-0.7-0.1-1.5-0.2-2.1-0.4l0.1-0.2l0.2-0.4c0.3-0.7,0.7-1.4,1.2-2.1
				c0.2-0.3,0.4-0.6,0.6-0.9l0.2-0.2l0.4,0C1344.9,594.9,1348,596.2,1347.9,597.4z"/>
			<path class="st70" d="M1343.2,608.4c-0.1,1-3,1.5-6.5,1.2l0,0c0-0.2-0.1-0.3-0.1-0.5c-0.1-0.7-0.1-1.3-0.1-2s0-1.1,0.1-1.6
				C1340.4,606.1,1343.3,607.3,1343.2,608.4z"/>
			<path class="st70" d="M1347.5,603.2c-0.1,1.1-3.5,1.7-7.4,1.2c-1.1-0.1-2.3-0.4-3.4-0.7l0.1-0.5c0.1-1,0.3-1.9,0.6-2.8l0.1-0.3
				c1.1,0,2.1,0,3.2,0.2C1344.6,600.7,1347.7,602,1347.5,603.2z"/>
			<path class="st69" d="M1338.7,613.4c-2.3,0.7-4.7,0.9-7.1,0.4c-1.8-0.3-3.5-1.1-5-2.2c-0.2-0.1-0.4-0.3-0.6-0.4
				c-0.7-0.5-1.3-1.2-1.8-1.8c-0.4-0.6-0.8-1.2-1.2-1.8c-0.5-0.9-0.9-1.9-1.1-2.9c-0.3-0.9-0.4-1.9-0.5-2.9c0-0.2,0-0.4,0-0.5
				s0-0.5,0-0.6c0-0.9,0.7-1.6,1.6-1.7s1.6,0.7,1.7,1.6c0,0.1,0,0.1,0,0.2c0,0.1,0,0.3,0,0.6c0,0.1,0,0.1,0,0.2
				c0,0.6,0.1,1.2,0.3,1.8c0.2,1,0.6,1.9,1.1,2.8c0.2,0.4,0.5,0.8,0.8,1.2c0.3,0.4,0.7,0.8,1.2,1.2c0.3,0.3,0.7,0.5,1,0.7
				c2.6,1.4,5.6,1.8,8.4,0.9c0.8-0.4,1.8-0.1,2.2,0.7s0.1,1.8-0.7,2.2C1339,613.3,1338.8,613.3,1338.7,613.4L1338.7,613.4z"/>
			<path class="st69" d="M1361.6,576l-5,3.2l3.8,6.5l2.2-9c0.1-0.4-0.2-0.7-0.6-0.8C1361.9,575.9,1361.8,575.9,1361.6,576z"/>
			<path class="st70" d="M1321.6,600.7c0,0.1,0,0.3,0,0.6s0,0.3,0,0.5c0.4,0.3,0.9,0.5,1.4,0.5c0.7,0.1,1.3-0.2,1.8-0.6
				c0-0.1,0-0.1,0-0.2c0-0.3,0-0.5,0-0.6c0.1-0.9-0.5-1.7-1.4-1.8c-0.9-0.1-1.7,0.5-1.8,1.4C1321.6,600.6,1321.6,600.6,1321.6,600.7
				L1321.6,600.7z"/>
			<ellipse class="st69" cx="1360.5" cy="611.4" rx="1.8" ry="1.6"/>
			<path class="st70" d="M1326.2,606.4c-0.3,0.2-0.7,0.4-1,0.6c-0.7,0.3-1.4,0.5-2.1,0.6c-0.5-0.9-0.9-1.9-1.1-2.9
				c0.7,0.1,1.4,0,2-0.3c0.4-0.2,0.8-0.5,1.1-0.8C1325.3,604.6,1325.7,605.5,1326.2,606.4z"/>
			<path class="st70" d="M1329.2,609.4c-0.2,0.4-0.5,0.7-0.8,1c-0.5,0.5-1.1,0.9-1.7,1.2c-0.2-0.1-0.4-0.3-0.6-0.4
				c-0.7-0.5-1.3-1.2-1.8-1.8c0.8-0.1,1.4-0.5,2-1c0.3-0.3,0.5-0.5,0.7-0.8c0.3,0.4,0.7,0.8,1.2,1.2
				C1328.5,609,1328.9,609.2,1329.2,609.4z"/>
		</g>
		<g id="Layer_16">
			<polygon class="st71" points="1227.8,805.4 1239.2,938.6 1080.5,915.9 			"/>
			<path class="st52" d="M1218.6,922.9c0,0-0.5,6.5-4.4,5.9c-28.8-4.3-141.7-18.1-141.3-18.2c19.2-6.5,14.9-123.1,14.9-123.1
				l140,17.9c0,0,0.3,85.7,0.3,118C1228.2,926,1218.6,922.9,1218.6,922.9z"/>
			<g class="st22">
				<path class="st72" d="M1104.9,812.7c-0.4,0.2-0.7,0.4-1.2,0.5c-0.4,0.1-0.8,0.2-1.1,0.2c-0.4,0-0.8,0-1.2,0
					c-1.4-0.1-2.7-1-3.3-2.2c-0.4-0.7-0.6-1.4-0.8-2.2c-0.1-0.9-0.2-1.8-0.1-2.6c0.1-1,0.3-1.9,0.7-2.8c0.3-0.7,0.7-1.4,1.3-1.9
					c0.5-0.5,1-0.8,1.7-1c0.6-0.2,1.2-0.3,1.9-0.2c1.1,0.2,2.2,0.6,3.2,1.3l-0.3,3.4c-0.3-0.4-0.7-0.8-1.2-1.1
					c-0.4-0.3-0.9-0.5-1.4-0.5c-0.5,0-1,0.1-1.4,0.3c-0.5,0.3-0.9,0.7-1.2,1.1c-0.6,1.1-0.8,2.4-0.4,3.6c0.2,0.5,0.4,1,0.8,1.4
					c0.4,0.4,0.8,0.6,1.3,0.6c0.4,0,0.8,0,1.2-0.1c0.3-0.1,0.7-0.2,1-0.4c0.3-0.2,0.6-0.4,0.8-0.6L1104.9,812.7z"/>
				<path class="st72" d="M1116.1,808.5c-0.1,1.1-0.4,2.2-0.9,3.2c-0.4,0.9-1.1,1.7-1.9,2.2c-0.8,0.5-1.8,0.7-2.7,0.6
					c-1-0.1-1.9-0.5-2.6-1.2c-0.7-0.7-1.2-1.6-1.4-2.6c-0.3-1.1-0.3-2.2-0.2-3.2c0.1-1.1,0.4-2.2,0.8-3.1c0.4-0.9,1-1.7,1.9-2.2
					c0.8-0.5,1.8-0.8,2.8-0.6c0.7,0.1,1.4,0.3,2,0.7c0.6,0.4,1,1,1.4,1.6c0.4,0.7,0.6,1.5,0.7,2.2
					C1116.1,806.8,1116.1,807.7,1116.1,808.5z M1113.4,808.2c0.1-0.4,0.1-0.9,0-1.3c0-0.4-0.1-0.7-0.3-1.1c-0.1-0.3-0.4-0.6-0.6-0.8
					c-0.8-0.6-2-0.4-2.6,0.4c-0.5,0.7-0.8,1.5-0.8,2.3c-0.1,0.8,0,1.7,0.3,2.4c0.3,0.6,0.9,1,1.5,1.1c0.4,0.1,0.9,0,1.2-0.3
					c0.4-0.3,0.7-0.6,0.9-1.1C1113.3,809.3,1113.4,808.8,1113.4,808.2L1113.4,808.2z"/>
				<path class="st72" d="M1126.9,816.3l-2.6-0.3l0.7-7.5l-2.7,4.1h-0.2l-1.9-4.6l-0.7,7.4l-2.5-0.3l1.3-12.8l2.3,0.2l2.1,5.1
					l3.1-4.6l2.3,0.2L1126.9,816.3z"/>
				<path class="st72" d="M1135.4,817.3l-6.4-0.8l1.3-13l6.3,0.7l-0.2,2.6l-3.7-0.4l-0.2,2.4l3.6,0.4l-0.2,2.6l-3.6-0.4l-0.3,2.8
					l3.8,0.5L1135.4,817.3z"/>
				<path class="st72" d="M1150.2,819.2l-2.6-0.3l-0.4-2.8l-3.7-0.5l-1,2.6l-2.6-0.3l5-12.7l2.8,0.3L1150.2,819.2z M1146.7,813.7
					l-0.8-5l-1.7,4.7L1146.7,813.7z"/>
				<path class="st72" d="M1160.5,820.5l-2.3-0.3l-3.7-8l-0.7,7.4l-2.5-0.3l1.3-13.2l2.3,0.3l3.7,7.9l0.7-7.4l2.6,0.3L1160.5,820.5z
					"/>
				<path class="st72" d="M1172,815.4c-0.1,1.1-0.3,2.2-0.8,3.3c-0.3,0.7-0.8,1.3-1.3,1.9c-0.7,0.7-1.7,1-2.7,0.8l-4.6-0.6l1.3-13.4
					l3.5,0.4c0.5,0,0.9,0.1,1.3,0.3c0.4,0.1,0.7,0.3,1,0.5c0.3,0.2,0.5,0.4,0.7,0.6c0.2,0.2,0.4,0.4,0.5,0.7
					c0.3,0.4,0.5,0.9,0.6,1.4c0.2,0.6,0.3,1.2,0.3,1.8C1172.1,813.9,1172.1,814.6,1172,815.4z M1169.4,814.9
					c0.1-0.9,0.1-1.8-0.2-2.6c-0.1-0.5-0.4-1-0.8-1.3c-0.3-0.2-0.7-0.4-1.1-0.5l-1.1-0.1l-0.8,8l1.1,0.1c0.7,0.1,1.3-0.1,1.8-0.5
					C1168.9,817.5,1169.2,816.4,1169.4,814.9L1169.4,814.9z"/>
				<path class="st72" d="M1184.7,822.7l-0.5,0.2l-0.4,0.2l-0.5,0.2c-0.4,0.1-0.8,0.1-1.2,0.2c-0.4,0-0.8,0-1.2,0
					c-0.9-0.1-1.7-0.5-2.3-1.1c-0.7-0.7-1.3-1.6-1.5-2.6c-0.4-1.3-0.5-2.7-0.3-4c0.1-1,0.3-1.9,0.6-2.9c0.2-0.8,0.7-1.6,1.2-2.2
					c0.4-0.4,0.8-0.7,1.3-1c0.4-0.2,0.8-0.3,1.2-0.4c0.4,0,0.8,0,1.2,0c0.6,0.1,1.3,0.2,1.8,0.5c0.5,0.3,1,0.6,1.5,0.9l-0.3,3.2
					c-0.3-0.4-0.7-0.8-1.1-1.1c-0.5-0.3-1-0.5-1.6-0.6c-0.6-0.1-1.3,0.1-1.8,0.5c-0.5,0.4-0.9,0.9-1.1,1.5c-0.2,0.6-0.4,1.2-0.4,1.8
					c-0.1,0.6,0,1.3,0.1,1.9c0.1,0.6,0.4,1.1,0.8,1.5c0.4,0.4,0.9,0.7,1.4,0.7c0.4,0,0.7,0,1.1-0.1l0.2-1.6l-1.2-0.1l0.3-2.8
					l3.4,0.4L1184.7,822.7z"/>
				<path class="st72" d="M1194.9,825l-2.8-0.4l-0.4-2.5c-0.1-0.7-0.3-1.4-0.5-2c-0.1-0.3-0.3-0.6-0.5-0.9c-0.2-0.2-0.4-0.2-0.7-0.3
					h-0.3l-0.5,5.4l-2.6-0.3l1.3-13.7l4.3,0.5c0.7,0.1,1.3,0.4,1.7,0.9c0.4,0.5,0.7,1.2,0.8,1.8c0.1,0.6,0.2,1.3,0.1,1.9
					c0,0.6-0.2,1.2-0.4,1.7c-0.1,0.4-0.4,0.7-0.6,1c-0.2,0.2-0.4,0.4-0.7,0.5c0.3,0.3,0.5,0.6,0.6,1c0.2,0.7,0.4,1.5,0.5,2.2
					L1194.9,825z M1192.3,815.1c0.1-0.5,0-1-0.3-1.4c-0.3-0.3-0.8-0.5-1.2-0.5l-0.5-0.1l-0.3,3.3l0.6,0.1c0.4,0.1,0.9,0,1.3-0.2
					C1192.1,816,1192.3,815.6,1192.3,815.1z"/>
				<path class="st72" d="M1205.8,819.4c-0.1,1.2-0.4,2.4-0.9,3.5c-0.4,0.9-1,1.8-1.9,2.4c-0.8,0.5-1.8,0.8-2.7,0.6
					c-1-0.1-1.9-0.6-2.6-1.4c-0.7-0.8-1.2-1.8-1.4-2.8c-0.3-1.2-0.3-2.4-0.2-3.5c0.1-1.2,0.4-2.3,0.8-3.4c0.4-1,1-1.8,1.9-2.4
					c0.8-0.6,1.8-0.8,2.8-0.7c0.7,0.1,1.5,0.4,2.1,0.8c0.6,0.5,1.1,1.1,1.4,1.7c0.4,0.8,0.6,1.6,0.7,2.4
					C1205.8,817.6,1205.8,818.5,1205.8,819.4z M1203.1,819.1c0.1-0.5,0.1-1,0-1.5c0-0.4-0.2-0.8-0.3-1.2c-0.1-0.3-0.4-0.6-0.6-0.8
					c-0.3-0.2-0.6-0.3-0.9-0.4c-0.7-0.1-1.3,0.2-1.7,0.8c-0.5,0.7-0.8,1.6-0.8,2.5c-0.1,0.9,0,1.8,0.3,2.7c0.3,0.6,0.8,1.1,1.5,1.2
					c0.4,0.1,0.9,0,1.2-0.3c0.4-0.3,0.7-0.7,0.9-1.2C1203,820.3,1203.1,819.7,1203.1,819.1L1203.1,819.1z"/>
				<path class="st72" d="M1221.5,814.4l-5,13.8l-1.5-0.2l-1.5-8.6l-3,8l-1.5-0.2l-2.3-14.6l2.7,0.3l1.1,8l2.7-7.5l1.8,0.2l1.3,8.1
					l2.6-7.6L1221.5,814.4z"/>
				<path class="st72" d="M1103.3,822.9l-4,6.4l-0.6,5.7l-2.6-0.3l0.6-5.7l-2.7-7.3l2.7,0.3l1.5,4.2l2.4-3.7L1103.3,822.9z"/>
				<path class="st72" d="M1112.4,830.5c-0.1,1.1-0.4,2.2-0.9,3.2c-0.4,0.9-1.1,1.6-1.9,2.2c-0.8,0.5-1.8,0.7-2.7,0.5
					c-1-0.1-1.9-0.6-2.6-1.3c-0.7-0.7-1.2-1.6-1.4-2.6c-0.3-1.1-0.3-2.2-0.2-3.2c0.1-1.1,0.4-2.1,0.8-3.1c0.4-0.9,1-1.6,1.9-2.2
					c0.8-0.5,1.8-0.7,2.8-0.6c0.7,0.1,1.4,0.4,2,0.8c0.6,0.4,1,1,1.4,1.6c0.4,0.7,0.6,1.4,0.7,2.2
					C1112.4,828.8,1112.4,829.6,1112.4,830.5z M1109.8,830.1c0.1-0.4,0.1-0.9,0-1.3c0-0.4-0.2-0.7-0.3-1.1c-0.2-0.3-0.4-0.6-0.6-0.8
					c-0.3-0.2-0.6-0.3-0.9-0.4c-0.7-0.1-1.3,0.2-1.7,0.7c-0.5,0.7-0.8,1.4-0.8,2.3c-0.1,0.8,0,1.7,0.3,2.4c0.3,0.6,0.9,1,1.5,1.1
					c0.4,0.1,0.9,0,1.2-0.2c0.4-0.3,0.7-0.6,0.9-1C1109.6,831.3,1109.7,830.7,1109.8,830.1L1109.8,830.1z"/>
				<path class="st72" d="M1122.7,832.6c-0.1,1-0.3,1.9-0.7,2.8c-0.3,0.7-0.7,1.2-1.3,1.7c-0.5,0.4-1,0.6-1.6,0.8
					c-0.5,0.1-1,0.1-1.6,0.1c-0.7-0.1-1.4-0.4-2-0.8c-0.7-0.5-1.2-1.3-1.5-2.1c-0.4-1.1-0.5-2.3-0.3-3.5l0.7-7l2.6,0.3l-0.6,6
					c-0.1,0.7-0.1,1.4,0,2.1c0.1,0.5,0.3,0.9,0.6,1.3c0.3,0.3,0.6,0.5,1,0.5c0.4,0,0.7,0,1-0.2c0.4-0.3,0.6-0.7,0.8-1.1
					c0.3-0.7,0.4-1.4,0.4-2.1l0.6-6.1l2.6,0.3L1122.7,832.6z"/>
				<path class="st72" d="M1132.4,839.8l-2.8-0.4l-0.4-2.4c-0.1-0.7-0.3-1.3-0.5-1.9c-0.1-0.3-0.3-0.6-0.5-0.8
					c-0.2-0.1-0.4-0.2-0.7-0.3h-0.3l-0.5,5l-2.6-0.4l1.3-12.9l4.3,0.6c0.6,0.1,1.2,0.4,1.7,0.9c0.4,0.5,0.7,1.1,0.8,1.7
					c0.1,0.6,0.2,1.2,0.1,1.8c0,0.6-0.2,1.1-0.4,1.6c-0.1,0.3-0.4,0.6-0.6,0.9c-0.2,0.2-0.4,0.4-0.7,0.5c0.3,0.3,0.5,0.6,0.6,1
					c0.2,0.7,0.4,1.4,0.5,2.1L1132.4,839.8z M1129.8,830.5c0.1-0.5,0-0.9-0.3-1.3c-0.3-0.3-0.8-0.5-1.2-0.5l-0.5-0.1l-0.3,3.1
					l0.6,0.1c0.4,0.1,0.9,0.1,1.3-0.1C1129.6,831.3,1129.8,830.9,1129.8,830.5z"/>
				<path class="st72" d="M1147,835.3c-0.1,1.1-0.4,2.3-0.9,3.3c-0.4,0.9-1,1.7-1.9,2.2c-0.8,0.5-1.8,0.7-2.7,0.5
					c-1-0.1-1.9-0.6-2.6-1.3c-0.7-0.8-1.2-1.7-1.4-2.7c-0.3-1.1-0.3-2.2-0.2-3.4c0.1-1.1,0.4-2.2,0.8-3.2c0.4-0.9,1-1.7,1.9-2.2
					c0.8-0.5,1.8-0.7,2.8-0.6c0.7,0.1,1.4,0.4,2,0.8c0.6,0.4,1.1,1,1.4,1.7c0.4,0.7,0.6,1.5,0.7,2.3
					C1147,833.5,1147.1,834.4,1147,835.3z M1144.4,834.9c0.1-0.5,0.1-0.9,0-1.4c0-0.4-0.2-0.8-0.3-1.1c-0.1-0.3-0.4-0.6-0.6-0.8
					c-0.8-0.6-2-0.5-2.6,0.3c-0.5,0.7-0.8,1.5-0.8,2.3c-0.1,0.9,0,1.7,0.3,2.5c0.3,0.6,0.9,1.1,1.5,1.2c0.4,0.1,0.9,0,1.2-0.3
					c0.4-0.3,0.7-0.7,0.9-1.1C1144.2,836.1,1144.3,835.5,1144.4,834.9L1144.4,834.9z"/>
				<path class="st72" d="M1162.8,830.8l-5,13l-1.5-0.2l-1.5-8.1l-3,7.5l-1.5-0.2l-2.3-13.9l2.7,0.4l1.1,7.6l2.7-7.1l1.8,0.2
					l1.3,7.7l2.6-7.1L1162.8,830.8z"/>
				<path class="st72" d="M1171.9,845.7l-2.3-0.3l-3.7-8.1l-0.7,7.5l-2.5-0.4l1.3-13.4l2.3,0.3l3.7,8.1l0.7-7.5l2.6,0.4
					L1171.9,845.7z"/>
				<path class="st72" d="M1187.6,848.1l-2.6-0.4l0.7-7.9l-2.7,4.2h-0.2l-1.9-4.9l-0.7,7.9l-2.5-0.4l1.3-13.6l2.3,0.3l2.1,5.5
					l3.1-4.7l2.3,0.3L1187.6,848.1z"/>
				<path class="st72" d="M1196.1,849.5l-6.4-1l1.3-13.7l6.3,0.9l-0.3,2.8l-3.7-0.5l-0.2,2.5l3.6,0.5l-0.3,2.8l-3.6-0.5l-0.3,2.9
					l3.8,0.6L1196.1,849.5z"/>
				<path class="st72" d="M1207.2,851.2l-2.6-0.4l-0.4-2.9l-3.7-0.6l-1,2.7l-2.6-0.4l5-13.3l2.8,0.4L1207.2,851.2z M1203.7,845.4
					l-0.8-5.3l-1.7,4.9L1203.7,845.4z"/>
				<path class="st72" d="M1216.1,841.9l-3.1-0.5l-1,10.6l-2.6-0.4l1-10.6l-3.1-0.5l0.3-3.4l8.8,1.3L1216.1,841.9z"/>
				<path class="st72" d="M1219,851.1c0,0.5-0.2,1.1-0.5,1.5c-0.2,0.3-0.6,0.5-1,0.5c-0.2-0.1-0.5-0.2-0.6-0.4
					c-0.2-0.3-0.4-0.6-0.4-0.9c-0.1-0.4-0.1-0.7-0.1-1.1c0-0.4,0.1-0.7,0.3-1.1c0.1-0.3,0.3-0.5,0.6-0.7c0.2-0.2,0.4-0.2,0.7-0.2
					c0.3,0,0.5,0.2,0.6,0.4c0.2,0.3,0.3,0.6,0.4,0.9C1219,850.4,1219,850.8,1219,851.1z M1219.8,842c-0.1,0.7-0.2,1.3-0.3,2
					c-0.2,0.8-0.3,1.6-0.5,2.3c-0.1,0.5-0.3,1.1-0.5,1.6c0,0.1-0.1,0.3-0.2,0.4c-0.1,0.1-0.2,0.1-0.3,0.1c-0.1,0-0.2-0.1-0.3-0.2
					c-0.1-0.1-0.1-0.3-0.2-0.4c-0.1-0.6-0.2-1.1-0.2-1.7c-0.1-0.8-0.1-1.6-0.1-2.4c0-0.7,0-1.4,0-2.1c0-0.8,0.2-1.6,0.6-2.3
					c0.3-0.5,0.6-0.7,1-0.6s0.6,0.3,0.8,0.9C1219.9,840.4,1219.9,841.2,1219.8,842L1219.8,842z"/>
			</g>
			<path class="st57" d="M1135.4,918.7c16.4-4.3,18.6-46.2,20.2-54.3c1.5-7.3-7,64.5,16.5,64.5
				C1172.8,928.9,1135.4,918.7,1135.4,918.7z"/>
			
				<ellipse transform="matrix(0.9574 -0.2887 0.2887 0.9574 -202.9134 380.8877)" class="st72" cx="1189.8" cy="878.3" rx="14.8" ry="6.3"/>
			
				<ellipse transform="matrix(0.9574 -0.2887 0.2887 0.9574 -202.6113 380.7831)" class="st73" cx="1189.6" cy="877.3" rx="14.8" ry="6.3"/>
			<path class="st74" d="M1128.7,882.4c-1.3,2.5-9-1.6-13.7-4s-8.6-3.7-7.3-6.2s8.1-5.6,12.9-3.1S1130,879.9,1128.7,882.4z"/>
			
				<ellipse transform="matrix(0.7071 -0.7071 0.7071 0.7071 -291.1645 1047.5454)" class="st75" cx="1118.9" cy="875.2" rx="2.6" ry="4"/>
			<polygon class="st76" points="1214.9,928.9 1216.6,924.4 1217.8,919.9 1228,924 			"/>
			
				<ellipse transform="matrix(0.2892 -0.9573 0.9573 0.2892 -2.2199 1781.0391)" class="st72" cx="1198.2" cy="892" rx="6.4" ry="14.9"/>
			
				<ellipse transform="matrix(0.293 -0.9561 0.9561 0.293 -11.7451 1780.7782)" class="st73" cx="1198.3" cy="898.3" rx="6.3" ry="14.8"/>
			<path class="st74" d="M1127.6,892.7c0.3,3.3-9.5,4.1-15.5,4.7s-10.4,1.8-10.8-1.5s4.3-10.6,10.3-11.2S1127.3,889.5,1127.6,892.7z
				"/>
			<ellipse class="st75" cx="1113.8" cy="891.5" rx="4" ry="3.3"/>
			<line class="st77" x1="1133.4" y1="889.5" x2="1149.9" y2="893.1"/>
			<g class="st22">
				<line class="st78" x1="1157.1" y1="894.1" x2="1174.8" y2="892.3"/>
				<line class="st79" x1="1157.1" y1="894.1" x2="1168.8" y2="892.9"/>
				<polygon class="st80" points="1167.2,886.1 1168.6,899.9 1174.8,892.3 				"/>
			</g>
		</g>
		<path class="st41" d="M1453.7,426.1c-1.8-0.2-3.5-0.2-5.3-0.2c-36.8,0-66.6,33-66.6,73.7h57.4
			C1439.1,460.9,1419.4,429.1,1453.7,426.1z"/>
		<path class="st54" d="M1525.7,499.6h-109.9c0-40.7,6.5-73.7,43.2-73.7c23.6,0,44.3,13.6,56.2,34
			C1522.1,472,1525.7,485.7,1525.7,499.6z"/>
		<path class="st61" d="M1525.7,499.6h-87c2.9-29.2,12.9-50.2,42.3-50.2c12.2,0,24.1,3.7,34.2,10.5
			C1522.1,472,1525.7,485.7,1525.7,499.6z"/>
		<g id="Layer_13">
			<path class="st59" d="M1435.2,581.9v0.1l-32.3-0.5c0-20.3,5.4-38.9,16.2-38.9c1.9,0,3.7,0.6,5.2,1.7
				C1431.6,549.4,1435.2,565.3,1435.2,581.9z"/>
			<path class="st60" d="M1435.2,581.9l-21.8-0.3c0-16.6,3.6-32.2,10.8-37.2C1431.6,549.4,1435.2,565.3,1435.2,581.9z"/>
			<polygon class="st63" points="1400.2,586.4 1435.3,587.3 1435.3,582 1400.2,581.5 			"/>
			<path class="st81" d="M1408.8,578.8h15.9c0.7,0,1.3,0.6,1.3,1.3l0,0c0,0.7-0.6,1.3-1.3,1.3h-15.9c-0.7,0-1.3-0.6-1.3-1.3l0,0
				C1407.4,579.4,1408,578.8,1408.8,578.8z"/>
			<path class="st81" d="M1410.3,575.9h15.9c0.7,0,1.3,0.6,1.3,1.3l0,0c0,0.7-0.6,1.3-1.3,1.3h-15.9c-0.7,0-1.3-0.6-1.3-1.3l0,0
				C1409,576.5,1409.6,575.9,1410.3,575.9z"/>
			<path class="st82" d="M1416.9,569.6h4.1c1,0,1.8,0.8,1.8,1.8v0c0,1-0.8,1.8-1.8,1.8h-4.1c-1,0-1.8-0.8-1.8-1.8v0
				C1415.1,570.4,1415.9,569.6,1416.9,569.6z"/>
			<path class="st82" d="M1414.3,565.5h4.1c1,0,1.8,0.8,1.8,1.8v0c0,1-0.8,1.8-1.8,1.8h-4.1c-1,0-1.8-0.8-1.8-1.8v0
				C1412.5,566.4,1413.3,565.5,1414.3,565.5z"/>
			<path class="st82" d="M1418,564.3h4.1c1,0,1.8,0.8,1.8,1.8v0c0,1-0.8,1.8-1.8,1.8h-4.1c-1,0-1.8-0.8-1.8-1.8v0
				C1416.2,565.1,1417,564.3,1418,564.3z"/>
			<path class="st82" d="M1416,560h4.1c1,0,1.8,0.8,1.8,1.8v0c0,1-0.8,1.8-1.8,1.8h-4.1c-1,0-1.8-0.8-1.8-1.8v0
				C1414.2,560.8,1415,560,1416,560z"/>
		</g>
	</g>
	<g id="Layer_26">
		<path class="st40" d="M713,962.2c1.1,36.4,49.4,49.8,78.4,48.9c53.8-1.7,69.6-29.8,68.8-53.5s2.6-43-51.2-41.4
			S712.3,938.6,713,962.2z"/>
		<path class="st40" d="M873.9,915c39.2-1.2,46.8,8.5,49.1,82.2l4.9,2.4c0.1,2.9,5.1-2,4.9,0.8c2.8-8,0.2,10.1,0,1.2l-0.1-3.8
			c-1.8-59.2-7.2-97-59.1-95.3L873.9,915z"/>
		<path class="st41" d="M930.6,1006.2l-3.6,0.1c-5,0.2-9.2-3.8-9.4-8.8l-0.6-20.7c-0.2-5,3.8-9.2,8.8-9.4l3.6-0.1
			c5-0.2,9.2,3.8,9.4,8.8l0.6,20.7C939.5,1001.8,935.6,1006,930.6,1006.2z"/>
		<path class="st40" d="M842.1,1003.8l6.4-0.2c5.3-0.2,9.4-8.8,9-19.1l-0.2-7.7c-0.3-10.3-4.9-18.7-10.2-18.5l-8.4,0.3
			c-5.3,0.2-9.4,8.8-9,19.1l0.1,3.9C830.1,1006.8,835.8,1004,842.1,1003.8z"/>
		<path class="st53" d="M653.2,1055.3c0,8.7,43.4,14.3,140.7,14.3s176.2-7,176.2-15.7s-78.9-15.7-176.2-15.7
			S653.2,1046.7,653.2,1055.3z"/>
		<path class="st40" d="M823.9,1042.2l10.7-3.5c1.3,1.1,3.8-4.3,4.3-6.7l10.1-31.4c0.5-2.5-0.1-5.5-1.4-6.7l-13.5-8.6
			c-1.6-1.4-11.8-1-12,2.3l1.8,39.5C823.8,1029.4,822.8,1041.2,823.9,1042.2z"/>
		<path class="st40" d="M812.5,1051c0,1.4-0.2,2.6,1.2,2.5l24.6-0.8c1.4,0,2.5-1.2,2.5-2.6c0,0,0,0,0,0l-0.4-13
			c0-1.4-1.2-2.5-2.7-2.5l-10.4,0.3C823.5,1035,812.4,1048.7,812.5,1051z"/>
		<path class="st40" d="M736.7,1039.3l11.5,1.8c1.7,0.2,3.3-1.7,3.8-4.4l-2.2-51.5c-0.3-1.9,0-3.8,0.7-5.6
			c2.5-5.9,1.4-32.8,0.1-33.1l-10.1,14.9c-2-0.5-18.5,4.1-18.6,7.3l12.4,66C734.2,1037.2,735.2,1039.1,736.7,1039.3z"/>
		<path class="st40" d="M721.2,1052.2c0,1.4-0.1,2.6,1.3,2.5l24.5-0.8c1.4-0.1,2.5-1.2,2.5-2.7l-0.4-13c0-1.4-1.2-2.5-2.7-2.5
			l-10.4,0.3C732.2,1036.3,721.1,1050,721.2,1052.2z"/>
		<path class="st43" d="M769.8,1039.9l11.4-0.5c1.6-0.1,2.8-2.3,2.8-5l-2-54.4c-0.1-2.8-1.5-5-3.1-5.1l-22.7-0.8
			c-2-0.1-3.3,3-2.8,6.2l13.3,55.7C767,1038.3,768.3,1039.9,769.8,1039.9z"/>
		<path class="st43" d="M757.2,1053.2c0,1.4-0.2,2.6,1.3,2.5l24.6-0.8c1.4,0,2.5-1.2,2.5-2.7l-0.4-13c0-1.4-1.2-2.5-2.6-2.5
			c0,0,0,0,0,0l-10.4,0.3C768.3,1037.2,757.2,1050.9,757.2,1053.2z"/>
		<path class="st43" d="M815,989.2c-7.3,19.9-67.2,16-83.8,10c-2.8-1.1-5.2-2.9-7-5.2c-4.3-5.4-6.6-13.7-9-22.4
			c-2.7-9.8-5.6-20-11.7-27.2c-13.7-16.2,34-14.4,50.6-8.3S822.3,969.3,815,989.2z"/>
		
			<ellipse transform="matrix(0.9995 -3.106186e-02 3.106186e-02 0.9995 -30.13 26.6626)" class="st41" cx="843.1" cy="983.1" rx="33.8" ry="27.5"/>
		<path class="st41" d="M858.4,1022.1L858.4,1022.1c-2.7,0.1-4.9-2-5-4.7l-0.3-9.7c-0.1-2.7,2-4.9,4.7-5l0,0c2.7-0.1,4.9,2,5,4.7
			l0.3,9.7C863.2,1019.8,861.1,1022,858.4,1022.1z"/>
		<path class="st41" d="M834.3,1022.8L834.3,1022.8c-3.1,0.1-5.7-2.4-5.8-5.5l-0.2-4.8c-0.1-3.1,2.4-5.7,5.5-5.8h0
			c3.1-0.1,5.7,2.4,5.8,5.5l0.2,4.8C839.9,1020.1,837.4,1022.7,834.3,1022.8z"/>
		<path class="st43" d="M890.5,967.3l-30-3l-145.1-14.4h-0.1c-1.1-18.1,2.7-27.8,18.1-36.8c6.1-3.6,11.7-5.6,22.4-6.6
			c2.1-0.2,4.5-0.4,7.1-0.5c4.6-0.2,10.3-1.6,16.9-3.5c18.7-5.3,44.9-14.8,75.1-13.9C907.9,890.3,896.4,936.8,890.5,967.3z"/>
		<path class="st43" d="M714.9,954.6c1.1,36.3,49.4,49.8,78.4,48.9c53.8-1.7,69.6-29.8,68.8-53.5s2.6-43-51.2-41.4
			S714.2,930.9,714.9,954.6z"/>
		<path class="st43" d="M882.5,943l-4,18.9c-7.5-5.5-18.1-3.9-23.6,3.6c-2.6,3.6-3.7,8-3.1,12.4l1.1,7.6c1,6.9,6.2,12.6,13,14.1
			l1,33.1c0.1,2.4,1.3,4.4,2.8,4.7l12-1.1c1.7,0.4,3.3-1.5,3.5-4.2l9.4-88.3C894.9,941.2,884.2,943.5,882.5,943z"/>
		<path class="st43" d="M853.3,1048.9c0,1.4-0.4,2.6,1,2.5l24.8-0.8c1.4,0,2.5-1.2,2.5-2.7l-0.4-13c0-1.4-1.2-2.5-2.7-2.5l-10.4,0.3
			C864.3,1033,853.2,1046.7,853.3,1048.9z"/>
		<g id="Layer_27">
			<path class="st44" d="M677.3,906.6c-2.2-1.7-3.5-4.3-3.6-7c0-2.1,0.8-4,2.4-5.4l6.3-5.5c1.7-1.4,3.8-2.1,5.9-2.1
				c2.8,0,5.6,1,7.7,2.9l1.5,1.3l-19.1,16.8L677.3,906.6z"/>
			<path class="st43" d="M688.3,888.3c2.4,0,4.8,0.9,6.6,2.5l-16.5,14.5c-3.5-2.9-4-7.3-1.2-9.8l6.3-5.5
				C684.8,888.9,686.5,888.3,688.3,888.3 M688.3,884.9c-2.6-0.1-5.1,0.8-7.1,2.5l-6.3,5.5c-1.9,1.7-3,4.1-3,6.7
				c0.1,3.3,1.7,6.3,4.2,8.3l2.3,1.9l2.2-2l16.5-14.5l3-2.7l-3.1-2.6C694.6,886.1,691.5,884.9,688.3,884.9L688.3,884.9z"/>
			<path class="st43" d="M719.9,933.8l1.7-0.5c13.5-3.5,21.3-15.9,17.2-27.6l-5.1-14.5c-4.1-11.7-18.5-18.3-32-14.8l-1.7,0.5
				c-13.5,3.5-21.3,15.9-17.2,27.6l5,14.6C692,930.6,706.4,937.3,719.9,933.8z"/>
			<path class="st43" d="M677.3,941.9L677.3,941.9c8.3,8.8,23.5,10.1,33.7,2.9l16.4-11.6c10.2-7.2,11.7-20.2,3.3-29l0,0
				c-8.3-8.8-23.5-10.1-33.7-2.9l-16.4,11.6C670.5,920,669,933.1,677.3,941.9z"/>
			<path class="st83" d="M688.8,910c-2.1,0.1-4.1-1.2-4.8-3.2c-0.4-1.1-0.3-2.4,0.3-3.5c0.7-1.2,1.8-2.1,3.2-2.4
				c0.5-0.1,0.9-0.2,1.4-0.2c2.1-0.1,4.1,1.2,4.8,3.2c0.4,1.1,0.3,2.4-0.3,3.5c-0.7,1.2-1.8,2.1-3.2,2.4
				C689.8,909.9,689.3,910,688.8,910z"/>
			<path class="st43" d="M688.8,902.6c1.3-0.1,2.5,0.7,3,1.9c0.4,1.4-0.4,2.9-1.8,3.3c-0.1,0-0.2,0-0.3,0.1
				c-0.3,0.1-0.6,0.1-0.9,0.1c-1.3,0.1-2.5-0.7-3-1.9c-0.4-1.4,0.4-2.9,1.8-3.3c0.1,0,0.2-0.1,0.3-0.1
				C688.2,902.7,688.5,902.6,688.8,902.6 M688.8,898.8c-0.6,0-1.2,0.1-1.8,0.2c-1.9,0.5-3.5,1.7-4.4,3.4c-0.8,1.5-1,3.4-0.4,5
				c1,2.8,3.7,4.6,6.7,4.5c0.6,0,1.3-0.1,1.9-0.2c1.9-0.5,3.5-1.7,4.4-3.4c0.8-1.5,1-3.4,0.4-5C694.5,900.5,691.8,898.7,688.8,898.8
				L688.8,898.8z"/>
			<path class="st44" d="M714.2,884.7l1-1.7c1.9-3.3,5.4-5.3,9.2-5.3c1.2,0,2.4,0.2,3.5,0.7l8,3.5c2,0.9,3.6,2.6,4.3,4.7
				c0.7,2.5,0.4,5.2-1,7.4l-0.8,1.3L714.2,884.7z"/>
			<path class="st43" d="M724.4,879.4c1,0,1.9,0.2,2.8,0.6l8,3.5c3.6,1.6,4.7,5.9,2.5,9.6l0,0l-21-9.2
				C718.3,881.2,721.2,879.5,724.4,879.4 M724.4,875.9c-4.4,0.1-8.4,2.4-10.7,6.2l-2,3.4l3.6,1.6l21,9.2l2.8,1.2l1.6-2.7
				c1.6-2.6,2-5.8,1.1-8.8c-0.8-2.6-2.7-4.7-5.2-5.8l-8-3.5C727.3,876.2,725.8,875.9,724.4,875.9L724.4,875.9z"/>
			<path class="st41" d="M718.6,876.1c-1.4-4.1-7.8-6.1-15.8-4s-10.7,6.4-9.3,10.5"/>
			<path class="st41" d="M704.6,879.6c-1.4-4.1-7.4-6.2-13.4-4.7s-9.6,6.1-8.2,10.3"/>
			<path class="st41" d="M718.4,876c0,0-11.2,5.3-10.3,17c0,0-5.8-6.5-3.9-14.9"/>
			<path class="st41" d="M705.2,879.7c0,0-7.4,5.4-6.8,10.6c0,0-7.7-5.4-6.4-9.8"/>
			<path class="st41" d="M693.7,882c0,0-7.7,4.3-5,12.2c0,0-3-0.8-5.8-9"/>
			<path class="st83" d="M704.8,906.5c-2,0-3.9-1.1-4.7-3c-0.5-1.1-0.4-2.4,0.1-3.5c0.6-1.2,1.7-2.1,3-2.5c0.5-0.2,1.1-0.2,1.6-0.2
				c2,0,3.9,1.1,4.7,3c0.5,1.1,0.4,2.4-0.1,3.5c-0.6,1.2-1.7,2.1-3,2.5C705.9,906.4,705.4,906.5,704.8,906.5L704.8,906.5z"/>
			<path class="st43" d="M704.8,899.2c1.3,0,2.4,0.7,3,1.8c0.5,1.4-0.2,2.9-1.6,3.3c-0.1,0-0.2,0.1-0.3,0.1c-0.3,0.1-0.7,0.1-1,0.2
				c-1.3,0-2.4-0.7-2.9-1.8c-0.5-1.4,0.2-2.9,1.6-3.3c0.1,0,0.2-0.1,0.3-0.1C704.2,899.2,704.5,899.2,704.8,899.2 M704.9,895.3
				c-0.7,0-1.5,0.1-2.2,0.3c-1.8,0.5-3.4,1.8-4.2,3.6c-0.8,1.6-0.8,3.4-0.2,5c1.1,2.6,3.7,4.3,6.5,4.2c0.7,0,1.5-0.1,2.2-0.3
				c1.8-0.5,3.4-1.8,4.2-3.6c0.8-1.6,0.8-3.4,0.2-5C710.3,896.9,707.7,895.2,704.9,895.3z"/>
			<path class="st44" d="M677.1,944.9c1.8,5.3,13,7,24.8,4s19.7-13.1,17.9-18.4s-12.7-3.8-24.5-0.7S675.2,939.6,677.1,944.9z"/>
			<path class="st84" d="M679.2,932.7l-12.1,28.6c-0.5,1.5,0.3,3.1,1.8,3.6c0.1,0,0.2,0.1,0.3,0.1l0,0c1.7,0.5,3.5-0.2,4.2-1.8
				l12.1-28.6"/>
			<path class="st84" d="M725.9,945.7l-27.1-7.4c-1.7-0.5-3.5,0.3-4.2,1.9l0,0c-0.5,1.5,0.4,3.1,1.9,3.5c0.1,0,0.2,0.1,0.3,0.1
				l27.1,7.5c1.7,0.5,3.5-0.3,4.2-1.9l0,0c0.5-1.5-0.4-3.1-1.9-3.5C726.1,945.7,726,945.7,725.9,945.7z"/>
			<path class="st84" d="M731.4,931l-26.2,9.5c-1.5,0.4-2.3,1.9-1.9,3.4c0,0.1,0.1,0.2,0.1,0.3l0,0c0.9,1.5,2.7,2.2,4.4,1.5
				l26.2-9.5c1.5-0.4,2.3-1.9,1.9-3.4c0-0.1-0.1-0.2-0.1-0.3l0,0C734.9,931,733.1,930.4,731.4,931z"/>
			<path class="st84" d="M656.2,955.3l20.7-17.4c1.6-1.3,4-1.1,5.3,0.5l0,0c1.3,1.6,1.1,4-0.5,5.3L661,961c-1.6,1.3-4,1.1-5.3-0.5
				l0,0C654.4,959,654.6,956.6,656.2,955.3z"/>
			<path class="st41" d="M682.7,947l27.5-7.1c6.7-1.8,10.6-7.9,8.5-13.7l-0.7-2.1c-2-5.8-9.2-9.1-15.9-7.4l-27.5,7.1
				c-6.7,1.7-10.6,7.9-8.5,13.7l0.7,2.1C668.8,945.4,676,948.8,682.7,947z"/>
			<path class="st44" d="M699.2,928c-3.5-0.1-6.6-2.3-7.7-5.6c-0.7-2-0.6-4.1,0.4-6c0.9-1.7,2.5-2.9,4.3-3.4
				c0.6-0.2,1.2-0.2,1.8-0.2c3.5,0.1,6.6,2.3,7.8,5.6c0.7,2,0.6,4.1-0.4,6c-0.9,1.7-2.5,2.9-4.3,3.4
				C700.5,928,699.9,928.1,699.2,928L699.2,928z"/>
			<path class="st41" d="M698.1,914.6c2.7,0.1,5.1,1.8,6,4.4c1.1,2.7-0.2,5.7-2.8,6.8c-0.2,0.1-0.4,0.1-0.6,0.2
				c-0.4,0.1-0.9,0.2-1.4,0.2c-2.7-0.1-5.1-1.8-6-4.4c-1.1-2.7,0.2-5.7,2.8-6.8c0.2-0.1,0.4-0.2,0.6-0.2
				C697.1,914.7,697.6,914.6,698.1,914.6 M698,910.9c-0.8,0-1.5,0.1-2.3,0.3c-2.4,0.6-4.4,2.2-5.5,4.3c-1.2,2.3-1.4,5.1-0.5,7.5
				c1.4,4.1,5.2,6.8,9.5,6.9c0.8,0,1.6-0.1,2.3-0.3c2.4-0.6,4.4-2.2,5.5-4.3c1.2-2.3,1.4-5.1,0.5-7.5
				C706.1,913.7,702.3,911,698,910.9z"/>
			<path class="st44" d="M674.9,935c-3.5-0.1-6.6-2.3-7.8-5.6c-0.7-2-0.6-4.1,0.4-6c0.9-1.7,2.5-2.9,4.3-3.4
				c0.6-0.2,1.2-0.2,1.8-0.2c3.5,0.1,6.6,2.3,7.7,5.6c0.7,2,0.6,4.1-0.4,6c-0.9,1.7-2.5,2.9-4.3,3.4
				C676.1,934.9,675.5,935,674.9,935L674.9,935z"/>
			<path class="st41" d="M673.7,921.6c2.7,0.1,5.1,1.8,6,4.4c1.1,2.6-0.1,5.7-2.8,6.8c-0.6,0.3-1.3,0.4-2,0.4
				c-2.7-0.1-5.1-1.8-6-4.4c-1.1-2.7,0.2-5.7,2.8-6.8c0.2-0.1,0.4-0.1,0.6-0.2C672.7,921.7,673.2,921.6,673.7,921.6 M673.7,917.9
				c-0.8,0-1.6,0.1-2.3,0.3c-2.4,0.6-4.4,2.2-5.5,4.3c-1.2,2.3-1.4,5.1-0.5,7.5c1.4,4.1,5.2,6.8,9.5,6.9c0.8,0,1.5-0.1,2.3-0.3
				c2.4-0.6,4.4-2.2,5.5-4.3c1.2-2.3,1.4-5.1,0.5-7.5C681.8,920.7,678,917.9,673.7,917.9z"/>
		</g>
		<circle class="st41" cx="811.3" cy="941.2" r="22.7"/>
		<circle class="st41" cx="830.8" cy="933.2" r="12.8"/>
		<path class="st41" d="M736.5,981.1c0,6.9-5.5,12.5-12.3,12.8c-4.3-5.4-6.6-13.7-9-22.4c5.3-4.7,13.4-4.3,18.1,1
			C735.4,974.9,736.5,977.9,736.5,981.1L736.5,981.1z"/>
		<path class="st41" d="M781.2,908.6c0,1.1-0.1,2.1-0.4,3.2c-1.7,6.9-8.7,11-15.6,9.3c-5.7-1.4-9.7-6.6-9.7-12.4
			c0-0.7,0.1-1.3,0.2-2c2.1-0.2,4.5-0.4,7.1-0.5c4.6-0.2,10.3-1.6,16.9-3.5C780.7,904.4,781.2,906.5,781.2,908.6z"/>
	</g>
</g>
<g id="Calque_32">
	<path class="st73" d="M829.1,369c9,0.2,80.7,3,87.3,3s53.7,3.4,59.9,3.8s45.9,3,47.3,5c1.4,2,2.6,8.7,2,12.2s-1.3,9.3-3.3,10.4
		s-43.5-4-52.5-4.1s-73.2-3-80.2-3.4s-71-1.7-72.9-1.8s-7.9,0.7-10.1-1s-2.5-11.5-2.3-14.6s2.5-7.5,4.1-8.8S820.1,368.8,829.1,369z"
		/>
	<g>
		<defs>
			<path id="SVGID_00000087387955254244470610000015619771024059663264_" d="M829.1,369c9,0.2,80.7,3,87.3,3s53.7,3.4,59.9,3.8
				s45.9,3,47.3,5c1.4,2,2.6,8.7,2,12.2s-1.3,9.3-3.3,10.4s-43.5-4-52.5-4.1s-73.2-3-80.2-3.4s-71-1.7-72.9-1.8s-7.9,0.7-10.1-1
				s-2.5-11.5-2.3-14.6s2.5-7.5,4.1-8.8S820.1,368.8,829.1,369z"/>
		</defs>
		<clipPath id="SVGID_00000138536242237200394400000004782028877463449750_">
			<use xlink:href="#SVGID_00000087387955254244470610000015619771024059663264_"  style="overflow:visible;"/>
		</clipPath>
		<g style="clip-path:url(#SVGID_00000138536242237200394400000004782028877463449750_);">
			<path class="st56" d="M821.1,404.8l-7.9-0.5c0,0-1.3-18.7-0.9-24.9c0.5-7.8,3.8-26.2,3.8-26.2l7.9,0.5c0,0-3.3,17.5-3.8,26.4
				C819.8,388.3,820.2,396.6,821.1,404.8z"/>
			<path class="st56" d="M838.2,406.7l-7.9-0.5c0,0-0.5-18.7-0.2-24.9c0.5-7.8,3-26.3,3-26.3l7.9,0.5c0,0-2.4,18.7-3,26.5
				C837.6,388.1,838.2,406.7,838.2,406.7z"/>
			<path class="st56" d="M856.9,407.1l-7.9-0.5c0,0-0.5-18.7-0.2-24.9c0.5-7.8,3.1-26.3,3.1-26.3l7.9,0.5c0,0-2.5,18.7-3.1,26.5
				C856.3,388.6,856.9,407.1,856.9,407.1z"/>
			<path class="st56" d="M875.9,407.9l-7.9-0.5c0,0-0.5-18.7-0.2-24.9c0.5-7.8,3.1-26.3,3.1-26.3l7.9,0.5c0,0-2.5,18.7-3.1,26.5
				C875.3,389.4,875.9,407.9,875.9,407.9z"/>
			<path class="st56" d="M893,409.8l-7.9-0.5c0,0,0.2-18.6,0.6-24.8c0.5-7.8,2.3-26.3,2.3-26.3l7.9,0.5c0,0-1.7,18.7-2.3,26.5
				C893.2,391.3,893,409.8,893,409.8z"/>
			<path class="st56" d="M911.8,410.2l-7.9-0.5c0,0,0.2-18.6,0.6-24.9c0.5-7.8,2.3-26.3,2.3-26.3l7.9,0.5c0,0-1.7,18.7-2.3,26.5
				C911.9,391.7,911.8,410.2,911.8,410.2z"/>
			<path class="st56" d="M1013.8,365.8l7.9,0.5c0,0,1.3,16.2,0.9,24.9c-0.4,11.3-3.8,26.2-3.8,26.2l-7.9-0.5c0,0,3-16.9,3.8-26.4
				C1015.4,382.1,1013.8,365.8,1013.8,365.8z"/>
			<path class="st56" d="M996.7,364l7.9,0.5c0,0,0.5,18.7,0.2,24.9c-0.5,7.8-3,26.3-3,26.3l-7.9-0.5c0,0,2.5-18.7,3.1-26.5
				C997.3,382.5,996.7,364,996.7,364z"/>
			<path class="st56" d="M978,363.6l7.9,0.5c0,0,0.6,18.7,0.2,24.9c-0.5,7.8-3.1,26.3-3.1,26.3l-7.9-0.5c0,0,2.5-18.7,3.1-26.5
				C978.6,382.1,978,363.6,978,363.6z"/>
			<path class="st56" d="M959,362.7l7.9,0.5c0,0,0.6,18.7,0.2,24.9c-0.5,7.8-3.1,26.3-3.1,26.3l-7.9-0.5c0,0,2.5-18.7,3.1-26.5
				C959.6,381.3,959,362.7,959,362.7z"/>
			<path class="st56" d="M941.9,360.9l7.9,0.5c0,0-0.2,18.6-0.6,24.8c-0.5,7.8-2.3,26.3-2.3,26.3L939,412c0,0,1.7-18.7,2.3-26.5
				C941.7,379.4,941.9,360.9,941.9,360.9z"/>
			<path class="st56" d="M923.1,360.4l7.9,0.5c0,0-0.2,18.6-0.6,24.9c-0.5,7.8-2.3,26.3-2.3,26.3l-7.9-0.5c0,0,1.7-18.7,2.3-26.5
				C923,379,923.1,360.4,923.1,360.4z"/>
		</g>
	</g>
	<path class="st73" d="M1021.8,395.4c8.7-2,78.9-17.2,85.3-18.8s52.9-10,59-11.2s45.2-8.5,47.1-6.9s4.7,7.8,5,11.3s1,9.3-0.6,10.9
		s-43.1,6.9-51.9,9s-71.7,15.3-78.6,16.7s-69.2,16-71.1,16.4s-7.4,2.7-10,1.6s-5.3-10.5-5.9-13.5s0.6-7.9,1.8-9.6
		S1013,397.5,1021.8,395.4z"/>
	<g>
		<defs>
			<path id="SVGID_00000044153808101645426310000003198263615112470707_" d="M1021.8,395.4c8.7-2,78.9-17.2,85.3-18.8
				s52.9-10,59-11.2s45.2-8.5,47.1-6.9s4.7,7.8,5,11.3s1,9.3-0.6,10.9s-43.1,6.9-51.9,9s-71.7,15.3-78.6,16.7s-69.2,16-71.1,16.4
				s-7.4,2.7-10,1.6s-5.3-10.5-5.9-13.5s0.6-7.9,1.8-9.6S1013,397.5,1021.8,395.4z"/>
		</defs>
		<clipPath id="SVGID_00000033344011280919037480000014549945768456368277_">
			<use xlink:href="#SVGID_00000044153808101645426310000003198263615112470707_"  style="overflow:visible;"/>
		</clipPath>
		<g style="clip-path:url(#SVGID_00000033344011280919037480000014549945768456368277_);">
			<path class="st56" d="M1023,432.1l-7.8,1.5c0,0-6-17.8-7.1-23.9c-1.5-7.7-2.8-26.4-2.8-26.4l7.8-1.5c0,0,1.2,17.8,2.9,26.5
				C1017.7,416.4,1020,424.4,1023,432.1z"/>
			<path class="st56" d="M1040,429.6l-7.8,1.5c0,0-5.2-18-6.3-24.1c-1.5-7.7-3.6-26.2-3.6-26.2l7.8-1.5c0,0,2.2,18.7,3.6,26.4
				C1034.7,411.8,1040,429.6,1040,429.6z"/>
			<path class="st56" d="M1058.2,425.4l-7.8,1.5c0,0-5.2-18-6.3-24.1c-1.5-7.7-3.6-26.2-3.6-26.2l7.8-1.5c0,0,2.2,18.7,3.6,26.4
				C1053,407.6,1058.2,425.4,1058.2,425.4z"/>
			<path class="st56" d="M1076.8,421.4l-7.8,1.6c0,0-5.2-18-6.3-24.1c-1.4-7.7-3.6-26.2-3.6-26.2l7.8-1.5c0,0,2.2,18.7,3.6,26.4
				C1071.6,403.6,1076.8,421.4,1076.8,421.4z"/>
			<path class="st56" d="M1093.8,419l-7.8,1.5c0,0-4.4-18.1-5.6-24.2c-1.5-7.7-4.3-26.1-4.3-26.1l7.8-1.5c0,0,3,18.5,4.4,26.2
				C1089.4,401,1093.8,419,1093.8,419z"/>
			<path class="st56" d="M1112.1,414.7l-7.8,1.5c0,0-4.4-18.1-5.6-24.2c-1.4-7.7-4.3-26.1-4.3-26.1l7.8-1.5c0,0,3,18.5,4.4,26.2
				C1107.6,396.8,1112.1,414.7,1112.1,414.7z"/>
			<path class="st56" d="M1199.8,346.3l7.8-1.5c0,0,5.3,15.3,7.1,23.9c2.4,11.1,2.8,26.4,2.8,26.4l-7.8,1.5c0,0-1.3-17.1-2.9-26.6
				C1205.5,361.7,1199.8,346.3,1199.8,346.3z"/>
			<path class="st56" d="M1182.8,348.8l7.8-1.5c0,0,5.2,18,6.3,24.1c1.4,7.7,3.6,26.2,3.6,26.2l-7.8,1.5c0,0-2.2-18.7-3.6-26.4
				C1188.1,366.6,1182.8,348.8,1182.8,348.8z"/>
			<path class="st56" d="M1164.6,353l7.8-1.5c0,0,5.2,18,6.3,24.1c1.5,7.7,3.6,26.2,3.6,26.2l-7.8,1.5c0,0-2.2-18.7-3.6-26.4
				C1169.8,370.9,1164.6,353,1164.6,353z"/>
			<path class="st56" d="M1146,357l7.8-1.5c0,0,5.2,18,6.3,24.1c1.5,7.7,3.6,26.2,3.6,26.2l-7.8,1.5c0,0-2.2-18.7-3.6-26.4
				C1151.2,374.8,1146,357,1146,357z"/>
			<path class="st56" d="M1129,359.4l7.8-1.5c0,0,4.4,18.1,5.6,24.2c1.5,7.7,4.3,26.1,4.3,26.1l-7.8,1.5c0,0-3-18.5-4.4-26.2
				C1133.4,377.4,1129,359.4,1129,359.4z"/>
			<path class="st56" d="M1110.7,363.7l7.8-1.5c0,0,4.4,18.1,5.6,24.2c1.5,7.7,4.3,26.1,4.3,26.1l-7.8,1.5c0,0-3-18.6-4.4-26.3
				C1115.2,381.6,1110.7,363.7,1110.7,363.7z"/>
		</g>
	</g>
	<path class="st73" d="M966.8,285.2c8.8,1.9,78.7,18,85.2,19.2s52.1,13.4,58.2,14.9s44.5,11.5,45.6,13.8s1,9.1-0.3,12.4
		s-3,8.9-5.2,9.5s-42-12.1-50.8-13.9s-71.4-16.6-78.2-18.3s-69.4-14.9-71.3-15.4s-7.8-0.8-9.7-2.8s-0.3-11.7,0.5-14.8
		s3.9-6.9,5.7-7.9S957.9,283.3,966.8,285.2z"/>
	<g>
		<defs>
			<path id="SVGID_00000009567669890843024220000008364670334197135024_" d="M966.8,285.2c8.8,1.9,78.7,18,85.2,19.2
				s52.1,13.4,58.2,14.9s44.5,11.5,45.6,13.8s1,9.1-0.3,12.4s-3,8.9-5.2,9.5s-42-12.1-50.8-13.9s-71.4-16.6-78.2-18.3
				s-69.4-14.9-71.3-15.4s-7.8-0.8-9.7-2.8s-0.3-11.7,0.5-14.8s3.9-6.9,5.7-7.9S957.9,283.3,966.8,285.2z"/>
		</defs>
		<clipPath id="SVGID_00000156571635190654828530000010597188182068979121_">
			<use xlink:href="#SVGID_00000009567669890843024220000008364670334197135024_"  style="overflow:visible;"/>
		</clipPath>
		<g style="clip-path:url(#SVGID_00000156571635190654828530000010597188182068979121_);">
			<path class="st56" d="M952.2,318.9l-7.7-1.9c0,0,2.2-18.7,3.7-24.7c2-7.6,8.7-25.1,8.7-25.1l7.7,1.9c0,0-6.5,16.6-8.7,25.2
				C954,302.5,952.8,310.7,952.2,318.9z"/>
			<path class="st56" d="M968.6,323.9l-7.7-1.9c0,0,2.9-18.5,4.5-24.5c2-7.6,7.9-25.2,7.9-25.2l7.7,1.9c0,0-5.9,17.9-8,25.4
				C971.5,305.6,968.6,323.9,968.6,323.9z"/>
			<path class="st56" d="M987,327.8l-7.7-1.9c0,0,3-18.5,4.5-24.5c2-7.6,7.9-25.2,7.9-25.2l7.7,1.9c0,0-5.9,17.9-8,25.4
				C989.8,309.5,987,327.8,987,327.8z"/>
			<path class="st56" d="M1005.5,332.2l-7.7-1.9c0,0,3-18.5,4.5-24.5c2-7.6,7.9-25.2,7.9-25.2l7.7,1.9c0,0-5.9,17.9-8,25.4
				C1008.3,313.9,1005.5,332.2,1005.5,332.2z"/>
			<path class="st56" d="M1021.9,337.2l-7.7-1.9c0,0,3.7-18.3,5.2-24.3c2-7.6,7.2-25.4,7.2-25.4l7.7,1.9c0,0-5.2,18.1-7.2,25.6
				C1025.5,319.1,1021.9,337.2,1021.9,337.2z"/>
			<path class="st56" d="M1040.2,341.1l-7.7-1.9c0,0,3.7-18.3,5.3-24.3c2-7.6,7.2-25.4,7.2-25.4l7.7,1.9c0,0-5.2,18.1-7.2,25.6
				C1043.9,323,1040.2,341.1,1040.2,341.1z"/>
			<path class="st56" d="M1148.8,316.6l7.7,1.9c0,0-1.8,16.1-3.7,24.7c-2.6,11-8.7,25.1-8.7,25.1l-7.7-1.9c0,0,6.1-16,8.7-25.2
				C1147.3,332.9,1148.8,316.6,1148.8,316.6z"/>
			<path class="st56" d="M1132.3,311.5l7.7,1.9c0,0-3,18.5-4.5,24.5c-2,7.6-7.9,25.2-7.9,25.2l-7.7-1.9c0,0,5.9-17.9,8-25.4
				C1129.5,329.9,1132.3,311.5,1132.3,311.5z"/>
			<path class="st56" d="M1114,307.6l7.7,1.9c0,0-2.9,18.5-4.5,24.5c-2,7.6-7.9,25.2-7.9,25.2l-7.7-1.9c0,0,5.9-17.9,8-25.4
				C1111.1,326,1114,307.6,1114,307.6z"/>
			<path class="st56" d="M1095.5,303.3l7.7,1.9c0,0-3,18.5-4.5,24.5c-2,7.6-7.9,25.2-7.9,25.2l-7.7-1.9c0,0,5.9-17.9,8-25.4
				C1092.6,321.6,1095.5,303.3,1095.5,303.3z"/>
			<path class="st56" d="M1079.1,298.2l7.7,1.9c0,0-3.7,18.3-5.2,24.3c-2,7.6-7.2,25.4-7.2,25.4l-7.7-1.9c0,0,5.2-18.1,7.2-25.6
				C1075.4,316.4,1079.1,298.2,1079.1,298.2z"/>
			<path class="st56" d="M1060.7,294.3l7.7,1.9c0,0-3.7,18.3-5.2,24.3c-2,7.6-7.2,25.4-7.2,25.4l-7.7-1.9c0,0,5.2-18.1,7.2-25.6
				C1057.1,312.5,1060.7,294.3,1060.7,294.3z"/>
		</g>
	</g>
	<path class="st73" d="M985.3,327.5c12.6-2.8,113.5-23.6,122.7-25.9s76-13.7,84.8-15.4s65-11.6,67.8-9.3s6.7,11.3,7.1,16.3
		s1.4,13.4-1.1,15.6s-62,9.4-74.6,12.3s-103.1,21.1-113,22.9s-99.5,22.1-102.3,22.6s-10.7,3.7-14.4,2.1s-7.4-15.1-8.2-19.5
		s0.9-11.3,2.7-13.7S972.7,330.3,985.3,327.5z"/>
	<g>
		<defs>
			<path id="SVGID_00000013905143642837137650000004312399339620444306_" d="M985.3,327.3c12.6-2.7,113.5-23.4,122.8-25.7
				s76.1-13.6,84.9-15.2s65-11.5,67.8-9.2s6.7,11.3,7,16.4s1.4,13.4-1.1,15.6s-62.1,9.3-74.6,12.2s-103.2,20.9-113,22.7
				s-99.6,21.9-102.3,22.4s-10.7,3.7-14.4,2.1s-7.4-15.1-8.2-19.5s0.9-11.3,2.7-13.7S972.6,330,985.3,327.3z"/>
		</defs>
		<clipPath id="SVGID_00000057141244785410943410000003210398331765007031_">
			<use xlink:href="#SVGID_00000013905143642837137650000004312399339620444306_"  style="overflow:visible;"/>
		</clipPath>
		<g style="clip-path:url(#SVGID_00000057141244785410943410000003210398331765007031_);">
			<path class="st56" d="M986.4,379.9l-11.2,2.1c0,0-8.3-25.7-9.8-34.5c-2-11.1-3.6-37.9-3.6-37.9l11.2-2.1c0,0,1.4,25.6,3.7,38.2
				C979.5,361.8,986.4,379.9,986.4,379.9z"/>
			<path class="st56" d="M1010.8,376.7l-11.2,2.1c0,0-7.2-25.9-8.7-34.7c-2-11.1-4.7-37.7-4.7-37.7l11.2-2.1c0,0,2.9,26.9,4.8,38
				C1003.6,351,1010.8,376.7,1010.8,376.7z"/>
			<path class="st56" d="M1037.1,370.8l-11.2,2.1c0,0-7.2-25.9-8.7-34.7c-2-11.1-4.7-37.7-4.7-37.7l11.2-2.1c0,0,2.9,26.9,4.8,38
				C1029.9,345.2,1037.1,370.8,1037.1,370.8z"/>
			<path class="st56" d="M1063.9,365.5l-11.2,2.1c0,0-7.2-25.9-8.7-34.7c-2-11.1-4.7-37.7-4.7-37.7l11.2-2.1c0,0,2.9,26.9,4.8,38
				C1056.7,339.8,1063.9,365.5,1063.9,365.5z"/>
			<path class="st56" d="M1088.3,362.3l-11.2,2.1c0,0-6.1-26.1-7.6-34.9c-2-11.1-5.8-37.5-5.8-37.5l11.2-2.1c0,0,4,26.7,5.9,37.8
				C1082.2,336.4,1088.3,362.3,1088.3,362.3z"/>
			<path class="st56" d="M1114.6,356.4l-11.2,2.1c0,0-6.1-26.1-7.6-34.9c-2-11-5.8-37.5-5.8-37.5l11.2-2.1c0,0,4,26.7,5.9,37.8
				C1108.5,330.5,1114.6,356.4,1114.6,356.4z"/>
			<path class="st56" d="M1241.7,259.6l11.2-2.1c0,0,7.3,22.1,9.8,34.5c3.3,16,3.6,37.9,3.6,37.9l-11.2,2.1c0,0-1.6-24.6-3.7-38.2
				C1249.6,281.8,1241.7,259.6,1241.7,259.6z"/>
			<path class="st56" d="M1217.3,262.8l11.2-2.1c0,0,7.2,25.9,8.7,34.7c2,11.1,4.7,37.7,4.7,37.7l-11.2,2.1c0,0-2.9-26.9-4.8-38
				C1224.5,288.5,1217.3,262.8,1217.3,262.8z"/>
			<path class="st56" d="M1191,268.7l11.2-2.1c0,0,7.2,25.9,8.7,34.7c2,11.1,4.7,37.7,4.7,37.7l-11.2,2c0,0-2.9-26.9-4.8-38
				C1198.2,294.3,1191,268.7,1191,268.7z"/>
			<path class="st56" d="M1164.2,274l11.2-2.1c0,0,7.2,25.9,8.7,34.7c2,11.1,4.7,37.7,4.7,37.7l-11.2,2.1c0,0-2.9-26.9-4.8-38
				C1171.4,299.7,1164.2,274,1164.2,274z"/>
			<path class="st56" d="M1139.8,277.3l11.2-2.1c0,0,6.1,26.1,7.6,34.9c2,11.1,5.8,37.5,5.8,37.5l-11.2,2.1c0,0-4-26.7-5.9-37.8
				C1145.9,303.1,1139.8,277.3,1139.8,277.3z"/>
			<path class="st56" d="M1113.5,283.1l11.2-2.1c0,0,6.1,26.1,7.6,34.9c2,11.1,5.8,37.5,5.8,37.5l-11.2,2.1c0,0-4-26.7-5.9-37.8
				C1119.6,309,1113.5,283.1,1113.5,283.1z"/>
		</g>
	</g>
	<path class="st73" d="M745.8,309.5c12.8,1.4,115.1,13.8,124.6,14.6s76.4,11.2,85.3,12.5s65.3,9.7,67.2,12.8s2.7,12.8,1.5,17.7
		s-3,13.1-6,14.4s-61.8-10.9-74.6-12.1s-104.5-12.9-114.5-14.3s-101.4-10.8-104.1-11.2s-11.3,0.1-14.3-2.6s-2.2-16.7-1.6-21.1
		s4.5-10.4,6.9-12.1S732.9,308.1,745.8,309.5z"/>
	<g>
		<defs>
			<path id="SVGID_00000130646396555726961520000011456663417781851535_" d="M745.8,309.5c12.8,1.4,115.1,13.8,124.6,14.6
				s76.4,11.2,85.3,12.5s65.3,9.7,67.2,12.8s2.7,12.8,1.5,17.7s-3,13.1-6,14.4s-61.8-10.9-74.6-12.1s-104.5-12.9-114.5-14.3
				s-101.4-10.8-104.1-11.2s-11.3,0.1-14.3-2.6s-2.2-16.7-1.6-21.1s4.5-10.4,6.9-12.1S732.9,308.1,745.8,309.5z"/>
		</defs>
		<clipPath id="SVGID_00000177452769786030928310000017204589180715733420_">
			<use xlink:href="#SVGID_00000130646396555726961520000011456663417781851535_"  style="overflow:visible;"/>
		</clipPath>
		<g style="clip-path:url(#SVGID_00000177452769786030928310000017204589180715733420_);">
			<path class="st56" d="M730.1,359.7l-11.3-1.6c0,0,0.3-27,1.6-35.8c1.6-11.1,8.6-37.1,8.6-37.1l11.3,1.6c0,0-6.8,24.7-8.6,37.4
				C729.3,340.4,730.1,359.7,730.1,359.7z"/>
			<path class="st56" d="M754.3,364.4l-11.3-1.6c0,0,1.4-26.8,2.7-35.6c1.7-11.1,7.5-37.2,7.5-37.2l11.3,1.6c0,0-5.7,26.5-7.5,37.5
				C755.6,337.8,754.3,364.4,754.3,364.4z"/>
			<path class="st56" d="M781.1,367.2l-11.3-1.6c0,0,1.4-26.8,2.7-35.6c1.6-11.1,7.5-37.2,7.5-37.2l11.3,1.6c0,0-5.8,26.4-7.5,37.5
				C782.4,340.6,781.1,367.2,781.1,367.2z"/>
			<path class="st56" d="M808.2,370.7l-11.3-1.6c0,0,1.4-26.8,2.7-35.6c1.6-11.1,7.5-37.2,7.5-37.2l11.3,1.6c0,0-5.8,26.4-7.5,37.5
				C809.5,344,808.2,370.7,808.2,370.7z"/>
			<path class="st56" d="M832.4,375.4l-11.3-1.6c0,0,2.5-26.7,3.8-35.5c1.6-11.1,6.4-37.4,6.4-37.4l11.3,1.6c0,0-4.7,26.6-6.4,37.7
				C834.8,348.9,832.4,375.4,832.4,375.4z"/>
			<path class="st56" d="M859.2,378.1l-11.3-1.6c0,0,2.5-26.7,3.8-35.5c1.6-11.1,6.4-37.4,6.4-37.4l11.3,1.6c0,0-4.7,26.6-6.4,37.7
				C861.6,351.7,859.2,378.1,859.2,378.1z"/>
			<path class="st56" d="M1010.4,326.6l11.3,1.6c0,0-0.1,23.3-1.6,35.8c-2,16.2-8.6,37.1-8.6,37.1l-11.3-1.6c0,0,6.3-23.8,8.6-37.4
				C1010.9,350.2,1010.4,326.6,1010.4,326.6z"/>
			<path class="st56" d="M986.2,322l11.3,1.6c0,0-1.4,26.8-2.7,35.6c-1.6,11.1-7.5,37.2-7.5,37.2l-11.3-1.6c0,0,5.8-26.4,7.5-37.5
				C984.9,348.6,986.2,322,986.2,322z"/>
			<path class="st56" d="M959.4,319.2l11.3,1.6c0,0-1.4,26.8-2.7,35.6c-1.6,11.1-7.5,37.2-7.5,37.2l-11.3-1.6c0,0,5.8-26.4,7.5-37.5
				C958.1,345.8,959.4,319.2,959.4,319.2z"/>
			<path class="st56" d="M932.3,315.7l11.3,1.6c0,0-1.4,26.8-2.7,35.6c-1.6,11.1-7.5,37.2-7.5,37.2l-11.3-1.6c0,0,5.8-26.4,7.5-37.5
				C931,342.4,932.3,315.7,932.3,315.7z"/>
			<path class="st56" d="M908.1,311l11.3,1.6c0,0-2.5,26.7-3.8,35.5c-1.6,11.1-6.4,37.4-6.4,37.4l-11.2-1.6c0,0,4.7-26.6,6.4-37.7
				C905.7,337.5,908.1,311,908.1,311z"/>
			<path class="st56" d="M881.3,308.2l11.3,1.6c0,0-2.5,26.7-3.8,35.5c-1.7,11.1-6.4,37.4-6.4,37.4l-11.3-1.6c0,0,4.7-26.6,6.4-37.7
				C878.9,334.7,881.3,308.2,881.3,308.2z"/>
		</g>
	</g>
	<path class="st90" d="M804.7,324c-2.6,6.3-19.2,1-25.5-1.7s-21.1-9.7-18.5-16s21.2-8,27.5-5.4S807.3,317.7,804.7,324z"/>
	
		<ellipse transform="matrix(0.3861 -0.9225 0.9225 0.3861 190.7092 913.3553)" class="st91" cx="781.5" cy="313.4" rx="6.4" ry="9.2"/>
	
		<ellipse transform="matrix(0.3861 -0.9225 0.9225 0.3861 193.2944 914.4567)" class="st91" cx="783.7" cy="312" rx="6.4" ry="7.7"/>
	
		<ellipse transform="matrix(0.3861 -0.9225 0.9225 0.3861 190.7002 918.1223)" class="st91" cx="785.1" cy="315.8" rx="6.4" ry="7.7"/>
	
		<ellipse transform="matrix(0.3861 -0.9225 0.9225 0.3861 189.9791 914.8615)" class="st91" cx="782.3" cy="314.7" rx="6.4" ry="8"/>
	<circle class="st92" cx="793.6" cy="313.4" r="0.3"/>
	<circle class="st93" cx="773" cy="307.5" r="0.4"/>
	<path class="st44" d="M784.1,301.6l1.7,0.3c0.3,0.1,0.5,0.4,0.5,0.7v0c-0.1,0.3-0.4,0.5-0.7,0.5l-1.7-0.3c-0.3-0.1-0.5-0.4-0.5-0.7
		v0C783.5,301.7,783.8,301.5,784.1,301.6z"/>
	<path class="st44" d="M769.9,304.6l1.6-0.7c0.3-0.1,0.7,0,0.8,0.3v0c0.1,0.3,0,0.7-0.3,0.8l-1.6,0.7c-0.3,0.1-0.7,0-0.8-0.3v0
		C769.4,305.1,769.6,304.7,769.9,304.6z"/>
	<circle class="st94" cx="766.8" cy="309.3" r="0.3"/>
	<circle class="st92" cx="777.2" cy="304.4" r="0.8"/>
	
		<ellipse transform="matrix(0.9253 -0.3793 0.3793 0.9253 -62.7432 324.7823)" class="st94" cx="792.9" cy="321.6" rx="0.5" ry="0.5"/>
	
		<ellipse transform="matrix(0.9253 -0.3793 0.3793 0.9253 -57.9972 324.0736)" class="st95" cx="793.5" cy="309.2" rx="0.5" ry="0.5"/>
	<circle class="st92" cx="769" cy="313.6" r="0.8"/>
	<g class="st96">
		<path class="st97" d="M888.8,306.1c-4.8,2-13.3,6.6-24.3,5.6c-10-0.9-24.2-13.5-25.8-17c-6.2-13.1,2.2-34.5,8.1-40.5
			c5.1-5.1,20.7-5.1,23.9-3.9c2.7,1,12.7,8.3,16.9,12.1c5,4.5,9.5,10.7,10.4,14.6c0.8,3.4,0.4,9.7-1,15.6
			C895.4,299,892.4,304.6,888.8,306.1z"/>
		<path class="st98" d="M859.4,305c-3.1-0.2-10.7-3.5-14.2-7.8c-3.8-4.6-4.1-15.2-4-17.6c0.2-8.9,5.9-23.6,10.7-25.3
			c4.1-1.4,13-0.6,16.9,2.8c1.3,1.1,3.2,9.7,4,13c0.9,4.1,1.3,9.8,1.7,13.4c0.2,2.1,0.7,12.4-1.7,15.3
			C870,302.2,861.6,305.2,859.4,305z"/>
		
			<ellipse transform="matrix(0.9693 -0.2458 0.2458 0.9693 -41.537 225.6111)" class="st99" cx="883" cy="279.2" rx="6.9" ry="9.9"/>
		
			<ellipse transform="matrix(0.9693 -0.2458 0.2458 0.9693 -41.6889 226.2722)" class="st99" cx="885.5" cy="280.1" rx="6.9" ry="8.3"/>
		
			<ellipse transform="matrix(0.9693 -0.2458 0.2458 0.9693 -42.6656 225.8169)" class="st99" cx="883.2" cy="283.8" rx="6.9" ry="8.3"/>
		
			<ellipse transform="matrix(0.9693 -0.2458 0.2458 0.9693 -41.9262 225.505)" class="st99" cx="882.3" cy="280.7" rx="6.9" ry="8.7"/>
		<circle class="st100" cx="890.8" cy="289.6" r="0.3"/>
		<circle class="st44" cx="882.5" cy="268.1" r="0.5"/>
		<path class="st56" d="M883,262.8l2.3,1.4c0.4,0.3,0.6,0.8,0.3,1.3l0,0c-0.3,0.4-0.8,0.6-1.3,0.3l-2.3-1.4
			c-0.4-0.3-0.6-0.8-0.3-1.3l0,0C881.9,262.7,882.5,262.6,883,262.8z"/>
		<path class="st56" d="M894.8,274.2l1.3,2.3c0.2,0.5,0.1,1-0.4,1.3l0,0c-0.5,0.2-1,0.1-1.3-0.4l-1.3-2.3c-0.2-0.5-0.1-1,0.4-1.3
			l0,0C894,273.6,894.5,273.8,894.8,274.2z"/>
		<circle class="st101" cx="876.9" cy="263.9" r="0.3"/>
		<circle class="st100" cx="887.9" cy="269.7" r="0.8"/>
		
			<ellipse transform="matrix(0.5116 -0.8592 0.8592 0.5116 178.4971 902.7198)" class="st101" cx="883.3" cy="294.3" rx="0.6" ry="0.5"/>
		
			<ellipse transform="matrix(0.5116 -0.8592 0.8592 0.5116 190.3775 908.5496)" class="st81" cx="894.4" cy="286.8" rx="0.5" ry="0.5"/>
		<circle class="st100" cx="874.7" cy="268.5" r="0.8"/>
	</g>
	<path class="st97" d="M1190.4,391.8c2,4.9,6.5,13.4,5.4,24.3c-1,10-13.7,24.1-17.2,25.7c-13.1,6.1-34.5-2.4-40.4-8.4
		c-5.1-5.1-4.9-20.7-3.7-23.9c1-2.7,8.4-12.6,12.2-16.8c4.6-5,10.8-9.4,14.6-10.3c3.4-0.8,9.7-0.4,15.6,1.1
		C1183.4,385.2,1188.9,388.2,1190.4,391.8z"/>
	<path class="st98" d="M1189.1,421.3c-0.2,3.1-3.5,10.7-7.9,14.2c-4.6,3.8-15.2,4-17.6,3.9c-8.9-0.3-23.5-6.1-25.2-10.9
		c-1.4-4.1-0.5-13,2.9-16.9c1.1-1.3,9.7-3.1,13.1-3.8c4.1-0.9,9.8-1.2,13.4-1.6c2.1-0.2,12.4-0.6,15.3,1.8
		C1186.3,410.6,1189.3,419,1189.1,421.3z"/>
	
		<ellipse transform="matrix(0.9711 -0.2385 0.2385 0.9711 -61.2186 288.9914)" class="st91" cx="1163.4" cy="397.4" rx="9.9" ry="6.9"/>
	
		<ellipse transform="matrix(0.9711 -0.2385 0.2385 0.9711 -61.0328 290.0904)" class="st91" cx="1168.1" cy="397.2" rx="8.3" ry="6.9"/>
	
		<ellipse transform="matrix(0.9711 -0.2385 0.2385 0.9711 -61.3261 289.3697)" class="st91" cx="1164.9" cy="398.1" rx="8.7" ry="6.9"/>
	<circle class="st92" cx="1152.8" cy="405.7" r="0.8"/>
	
		<ellipse transform="matrix(0.9711 -0.2385 0.2385 0.9711 -60.5789 289.1467)" class="st91" cx="1164.4" cy="394.9" rx="8.3" ry="6.9"/>
	<circle class="st92" cx="1173.9" cy="389.7" r="0.3"/>
	<circle class="st93" cx="1152.3" cy="397.8" r="0.5"/>
	<path class="st102" d="M1147.1,397.3l1.4-2.3c0.3-0.4,0.9-0.6,1.3-0.3l0,0c0.4,0.3,0.6,0.8,0.3,1.3l-1.4,2.3
		c-0.3,0.4-0.9,0.6-1.3,0.3l0,0C1146.9,398.3,1146.8,397.7,1147.1,397.3z"/>
	<circle class="st94" cx="1148.1" cy="403.4" r="0.3"/>
	<circle class="st92" cx="1154" cy="392.5" r="0.8"/>
	
		<ellipse transform="matrix(0.518 -0.8554 0.8554 0.518 228.2637 1199.5741)" class="st94" cx="1178.6" cy="397.2" rx="0.5" ry="0.6"/>
	<path class="st73" d="M761.6,326.1c24.7-0.5,221.9-3.1,240.1-3.9s148,0.8,165.1,0.8s126.5,1.8,130.8,5.7s8.6,17.2,7.5,24.2
		s-2.2,18.8-7.5,21.1s-120.1-4.1-144.7-3.4S951.4,373,932.1,373s-195.1,4.7-200.5,4.7s-21.4,2.3-27.9-0.8s-8.6-22.7-8.6-28.9
		s5.7-15.3,9.9-18.1S736.8,326.6,761.6,326.1z"/>
	<g>
		<defs>
			<path id="SVGID_00000024709922834292867830000010872861728874136981_" d="M761.6,326.1c24.7-0.5,221.9-3.1,240.1-3.9
				s148,0.8,165.1,0.8s126.5,1.8,130.8,5.7s8.6,17.2,7.5,24.2s-2.2,18.8-7.5,21.1s-120.1-4.1-144.7-3.4S951.4,373,932.1,373
				s-195.1,4.7-200.5,4.7s-21.4,2.3-27.9-0.8s-8.6-22.7-8.6-28.9s5.7-15.3,9.9-18.1S736.8,326.6,761.6,326.1z"/>
		</defs>
		<clipPath id="SVGID_00000173865808803605075370000004779103856930041516_">
			<use xlink:href="#SVGID_00000024709922834292867830000010872861728874136981_"  style="overflow:visible;"/>
		</clipPath>
		<g style="clip-path:url(#SVGID_00000173865808803605075370000004779103856930041516_);">
			<path class="st56" d="M745.2,398.6h-21.9c0,0-6.6-37.4-6.5-49.8c0.2-15.7,6.5-52.9,6.5-52.9h21.9c0,0-6.3,35.5-6.5,53.3
				C738.6,372,745.2,398.6,745.2,398.6z"/>
			<path class="st56" d="M792.3,400.4h-21.8c0,0-4.4-37.4-4.3-49.8c0.2-15.7,4.3-52.9,4.3-52.9h21.8c0,0-3.9,37.6-4.3,53.3
				C787.8,363.4,792.3,400.4,792.3,400.4z"/>
			<path class="st56" d="M843.9,399.1h-21.8c0,0-4.4-37.3-4.3-49.8c0.2-15.7,4.3-52.9,4.3-52.9h21.8c0,0-3.9,37.6-4.3,53.3
				C839.3,362,843.9,399.1,843.9,399.1z"/>
			<path class="st56" d="M896.2,398.6h-21.9c0,0-4.4-37.4-4.3-49.8c0.2-15.7,4.3-52.9,4.3-52.9h21.9c0,0-3.9,37.6-4.3,53.3
				C891.6,361.5,896.2,398.6,896.2,398.6z"/>
			<path class="st56" d="M943.4,400.4h-21.8c0,0-2.3-37.4-2.2-49.8c0.2-15.7,2.2-52.9,2.2-52.9h21.8c0,0-1.8,37.6-2.2,53.3
				C940.9,363.4,943.4,400.4,943.4,400.4z"/>
			<path class="st56" d="M994.9,399.1h-21.8c0,0-2.3-37.3-2.2-49.8c0.2-15.7,2.2-52.9,2.2-52.9h21.8c0,0-1.8,37.6-2.2,53.3
				C992.5,362,994.9,399.1,994.9,399.1z"/>
			<path class="st56" d="M1268.1,298.7l21.8-30c0,0,6,63.2,6.4,80.8c0.6,22.7-6.4,44.9-6.4,44.9l-21.8,7c0,0,5.7-64.2,6.4-83.3
				C1275.2,301.1,1268.1,298.7,1268.1,298.7z"/>
			<path class="st56" d="M1220.9,296.9h21.8c0,0,4.4,37.4,4.3,49.8c-0.2,15.7-4.3,52.9-4.3,52.9h-21.8c0,0,3.9-37.6,4.3-53.3
				C1225.5,333.9,1220.9,296.9,1220.9,296.9z"/>
			<path class="st56" d="M1169.4,298.2h21.8c0,0,4.4,37.4,4.3,49.8c-0.2,15.7-4.3,52.9-4.3,52.9h-21.8c0,0,3.9-37.6,4.3-53.3
				C1173.9,335.2,1169.4,298.2,1169.4,298.2z"/>
			<path class="st56" d="M1117.1,298.7h21.8c0,0,4.4,37.3,4.3,49.8c-0.2,15.7-4.3,52.9-4.3,52.9h-21.8c0,0,3.9-37.6,4.3-53.3
				C1121.7,335.7,1117.1,298.7,1117.1,298.7z"/>
			<path class="st56" d="M1069.9,296.9h21.8c0,0,2.3,37.4,2.2,49.8c-0.2,15.7-2.2,52.9-2.2,52.9h-21.8c0,0,1.8-37.6,2.2-53.3
				C1072.3,333.9,1069.9,296.9,1069.9,296.9z"/>
			<path class="st56" d="M1018.3,298.2h21.8c0,0,2.3,37.4,2.2,49.8c-0.2,15.7-2.2,52.9-2.2,52.9h-21.8c0,0,1.8-37.6,2.2-53.3
				C1020.8,335.2,1018.3,298.2,1018.3,298.2z"/>
		</g>
	</g>
	<ellipse class="st104" cx="759.4" cy="360.9" rx="17.1" ry="6.7"/>
	<ellipse class="st104" cx="763.1" cy="365.7" rx="17.1" ry="6.7"/>
	<ellipse class="st104" cx="754.7" cy="368.3" rx="17.1" ry="6.7"/>
	<ellipse class="st104" cx="874.5" cy="332" rx="17.1" ry="6.7"/>
	<ellipse class="st104" cx="881.4" cy="333.2" rx="17.1" ry="6.7"/>
	<ellipse class="st104" cx="871.1" cy="336" rx="17.1" ry="6.7"/>
	<ellipse class="st104" cx="994.1" cy="361.6" rx="17.1" ry="6.7"/>
	<ellipse class="st104" cx="1003.4" cy="361.5" rx="17.1" ry="6.7"/>
	<ellipse class="st104" cx="993.5" cy="364.1" rx="17.1" ry="6.7"/>
	<ellipse class="st104" cx="1154.5" cy="340.7" rx="17.1" ry="6.7"/>
	<ellipse class="st104" cx="1158.2" cy="345.5" rx="17.1" ry="6.7"/>
	<ellipse class="st104" cx="1163.8" cy="340" rx="17.1" ry="6.7"/>
	<path class="st104" d="M1249.4,365.6c0-3.7,7.7-6.7,17.1-6.7s17.1,1,17.1,4.7s-7.7,8.7-17.1,8.7S1249.4,369.3,1249.4,365.6z"/>
	<path class="st104" d="M1245.7,360.9c0-3.7,7.7-6.7,17.1-6.7s17.1,1,17.1,4.7s-7.7,8.7-17.1,8.7S1245.7,364.6,1245.7,360.9z"/>
	<path class="st104" d="M1254.2,358.2c0-3.7,7.7-6.7,17.1-6.7s17.1,2,17.1,5.7s-7.7,7.7-17.1,7.7S1254.2,361.9,1254.2,358.2z"/>
	<path class="st105" d="M1052.2,325.3h17.4c2.4,0,4.4,2,4.4,4.4v0.9c0,2.4-2,4.4-4.4,4.4h-17.4c-2.4,0-4.4-2-4.4-4.4v-0.9
		C1047.8,327.2,1049.8,325.3,1052.2,325.3z"/>
	<path class="st105" d="M851.8,361.6h18.3c2.4,0,4.4,2,4.4,4.4v2.6c0,2.4-2,4.4-4.4,4.4h-18.3c-2.4,0-4.4-2-4.4-4.4V366
		C847.4,363.6,849.4,361.6,851.8,361.6z"/>
	<path class="st105" d="M798.2,343.8h18.3c2.4,0,4.4,2,4.4,4.4v2.6c0,2.4-2,4.4-4.4,4.4h-18.3c-2.4,0-4.4-2-4.4-4.4v-2.6
		C793.9,345.8,795.8,343.8,798.2,343.8z"/>
	<path class="st106" d="M968.8,320.7c0.5,8.2-20.5,11.4-28.8,11.9s-28.3,0.7-28.8-7.6s18.9-20.1,27.2-20.6S968.3,312.5,968.8,320.7z
		"/>
	
		<ellipse transform="matrix(0.9982 -5.965482e-02 5.965482e-02 0.9982 -17.5133 56.5087)" class="st91" cx="937.7" cy="321.6" rx="11.2" ry="7.8"/>
	
		<ellipse transform="matrix(0.9982 -5.965482e-02 5.965482e-02 0.9982 -17.3524 56.5987)" class="st91" cx="939.2" cy="318.9" rx="9.3" ry="7.8"/>
	
		<ellipse transform="matrix(0.9982 -5.965482e-02 5.965482e-02 0.9982 -17.5458 56.8197)" class="st91" cx="942.9" cy="322.3" rx="9.3" ry="7.8"/>
	
		<ellipse transform="matrix(0.9982 -5.965482e-02 5.965482e-02 0.9982 -17.5706 56.6022)" class="st91" cx="939.2" cy="322.6" rx="9.8" ry="7.8"/>
	<circle class="st92" cx="950.9" cy="315.1" r="0.4"/>
	<circle class="st93" cx="925.3" cy="319.6" r="0.5"/>
	<path class="st44" d="M934.2,307.3l2.1-0.5c0.4-0.1,0.8,0.1,0.9,0.5l0,0c0.1,0.4-0.1,0.8-0.5,0.9l-2.1,0.5
		c-0.4,0.1-0.8-0.1-0.9-0.5l0,0C933.6,307.8,933.8,307.4,934.2,307.3z"/>
	<path class="st44" d="M920.3,318.2l1.4-1.6c0.3-0.3,0.7-0.3,1-0.1l0,0c0.3,0.3,0.3,0.7,0.1,1l-1.4,1.6c-0.3,0.3-0.7,0.3-1,0.1l0,0
		C920,318.9,920,318.5,920.3,318.2z"/>
	<circle class="st94" cx="919.4" cy="325" r="0.4"/>
	<circle class="st92" cx="928.2" cy="314" r="0.9"/>
	<ellipse transform="matrix(0.6637 -0.748 0.748 0.6637 78.3957 823.1928)" class="st94" cx="954.6" cy="324.4" rx="0.6" ry="0.6"/>
	<ellipse transform="matrix(0.6637 -0.748 0.748 0.6637 86.7532 814.0234)" class="st95" cx="948.6" cy="310.5" rx="0.6" ry="0.5"/>
	<circle class="st92" cx="924.1" cy="328.5" r="0.9"/>
	<g class="st96">
		<path class="st106" d="M1228.6,274.3c1.6,8.1-18.8,14.1-26.9,15.7s-28,4.6-29.6-3.5s16-22.5,24.1-24.1S1227,266.2,1228.6,274.3z"
			/>
		
			<ellipse transform="matrix(0.9806 -0.1958 0.1958 0.9806 -31.5219 239.9253)" class="st91" cx="1197.9" cy="279.4" rx="11.2" ry="7.8"/>
		
			<ellipse transform="matrix(0.9806 -0.1958 0.1958 0.9806 -30.9422 240.1069)" class="st91" cx="1199.1" cy="276.6" rx="9.3" ry="7.8"/>
		
			<ellipse transform="matrix(0.9806 -0.1958 0.1958 0.9806 -31.4168 240.9537)" class="st91" cx="1203.2" cy="279.4" rx="9.3" ry="7.8"/>
		
			<ellipse transform="matrix(0.9806 -0.1958 0.1958 0.9806 -31.6443 240.2661)" class="st91" cx="1199.6" cy="280.2" rx="9.8" ry="7.8"/>
		<circle class="st92" cx="1210.2" cy="271.1" r="0.4"/>
		<circle class="st93" cx="1185.3" cy="279.2" r="0.5"/>
		<path class="st44" d="M1192.6,265.8l2-0.8c0.4-0.2,0.8,0,1,0.4l0,0c0.2,0.4,0,0.8-0.4,1l-2,0.8c-0.4,0.2-0.8,0-1-0.4l0,0
			C1192,266.4,1192.2,265.9,1192.6,265.8z"/>
		<path class="st44" d="M1180.3,278.4l1.2-1.8c0.2-0.3,0.7-0.4,1-0.2l0,0c0.3,0.2,0.4,0.7,0.2,1l-1.2,1.8c-0.2,0.3-0.7,0.4-1,0.2
			l0,0C1180.1,279.2,1180,278.7,1180.3,278.4z"/>
		<circle class="st94" cx="1180.3" cy="285.2" r="0.4"/>
		<circle class="st92" cx="1187.5" cy="273.2" r="0.9"/>
		
			<ellipse transform="matrix(0.555 -0.8319 0.8319 0.555 307.893 1135.3552)" class="st94" cx="1215.1" cy="279.9" rx="0.6" ry="0.6"/>
		
			<ellipse transform="matrix(0.555 -0.8319 0.8319 0.555 315.1444 1123.0518)" class="st95" cx="1207.2" cy="267" rx="0.6" ry="0.5"/>
		<circle class="st92" cx="1185.4" cy="288.1" r="0.9"/>
	</g>
	<path class="st106" d="M1052.6,370.6c0.3-4,33.6-8.2,41.3-7.7s26.4,2.6,25.9,10.3s-35.5,13.6-43.2,13.1S1052.1,378.3,1052.6,370.6z
		"/>
	
		<ellipse transform="matrix(6.139689e-02 -0.9981 0.9981 6.139689e-02 654.931 1443.2166)" class="st91" cx="1094.8" cy="373.4" rx="7.3" ry="10.5"/>
	
		<ellipse transform="matrix(6.139689e-02 -0.9981 0.9981 6.139689e-02 650.9945 1443.5839)" class="st91" cx="1093.1" cy="375.7" rx="7.3" ry="8.7"/>
	
		<ellipse transform="matrix(6.139689e-02 -0.9981 0.9981 6.139689e-02 651.7066 1437.3176)" class="st91" cx="1090.1" cy="372.1" rx="7.3" ry="8.7"/>
	
		<ellipse transform="matrix(6.139689e-02 -0.9981 0.9981 6.139689e-02 654.8215 1440.8589)" class="st91" cx="1093.5" cy="372.3" rx="7.3" ry="9.2"/>
	<circle class="st92" cx="1081.8" cy="377.9" r="0.3"/>
	<circle class="st92" cx="1068.4" cy="370.4" r="0.3"/>
	<circle class="st92" cx="1056.2" cy="371.8" r="0.3"/>
	<circle class="st92" cx="1074" cy="382.6" r="0.3"/>
	<circle class="st93" cx="1106.2" cy="376.5" r="0.5"/>
	<path class="st44" d="M1071.1,381.3l-2,0.3c-0.4,0.1-0.7-0.2-0.8-0.6l0,0c-0.1-0.4,0.2-0.7,0.6-0.8l2-0.3c0.4-0.1,0.7,0.2,0.8,0.6
		l0,0C1071.8,380.8,1071.5,381.2,1071.1,381.3z"/>
	<path class="st44" d="M1077.6,366.5l-1.5,1.3c-0.3,0.3-0.7,0.2-1-0.1l0,0c-0.3-0.3-0.2-0.7,0.1-1l1.5-1.3c0.3-0.3,0.7-0.2,1,0.1
		l0,0C1078,365.8,1077.9,366.2,1077.6,366.5z"/>
	<circle class="st94" cx="1112.2" cy="372.3" r="0.3"/>
	<circle class="st92" cx="1103" cy="366.1" r="0.9"/>
	
		<ellipse transform="matrix(0.7492 -0.6624 0.6624 0.7492 26.4608 807.4985)" class="st94" cx="1079.5" cy="368.8" rx="0.6" ry="0.6"/>
	
		<ellipse transform="matrix(0.7492 -0.6624 0.6624 0.7492 18.4941 813.5573)" class="st95" cx="1083.5" cy="382.4" rx="0.5" ry="0.5"/>
	
		<ellipse transform="matrix(0.7492 -0.6624 0.6624 0.7492 20.4607 796.7964)" class="st95" cx="1062.3" cy="371.4" rx="0.5" ry="0.5"/>
	
		<ellipse transform="matrix(0.7492 -0.6624 0.6624 0.7492 15.4415 801.0321)" class="st95" cx="1065.4" cy="380.1" rx="0.5" ry="0.5"/>
	<circle class="st92" cx="1108.2" cy="368.5" r="0.9"/>
	<path class="st72" d="M632.2,342.7h-5.9h-0.2c-1.1,0.2-1.9,1.2-1.7,2.3c0.1,0.9,0.8,1.5,1.6,1.7h6.2V342.7z"/>
	<ellipse class="st73" cx="632.1" cy="344.7" rx="1.6" ry="2"/>
	<path class="st44" d="M341,273.5l0.9-4.3c1.8-9.1,10.7-15.1,19.8-13.3l15,3c9.1,1.8,15.1,10.6,13.3,19.8l-0.9,4.3L341,273.5z"/>
	<path class="st23" d="M358.4,260c0.8,0,1.6,0.1,2.4,0.2l15,2.9c6.7,1.3,11.1,7.9,9.8,14.6l0,0l-39.4-7.8l0,0
		C347.4,264.2,352.5,260,358.4,260 M358.4,251.2L358.4,251.2c-10.2,0-18.9,7.2-20.9,17.2l-1.7,8.7l8.7,1.7l39.5,7.7l8.7,1.7l1.7-8.7
		c2.3-11.5-5.3-22.7-16.8-25l-15-2.9C361.2,251.3,359.9,251.1,358.4,251.2L358.4,251.2z"/>
	<path class="st44" d="M455.5,278.8c-1.8-9.2,4.2-18,13.3-19.8l15-2.9c9.1-1.8,18,4.1,19.8,13.3c0,0,0,0,0,0.1l0.9,4.3l-48.1,9.4
		L455.5,278.8z"/>
	<path class="st23" d="M487,260.2c6,0,11.1,4.2,12.2,10.1l0,0l-39.4,7.8c-1.3-6.7,3.1-13.3,9.8-14.6l15-3
		C485.4,260.3,486.2,260.2,487,260.2 M487,251.4c-1.4,0-2.7,0.1-4.1,0.4l-15,2.9c-11.5,2.3-19.1,13.5-16.8,25l1.7,8.7l8.7-1.7
		l39.5-7.7l8.7-1.7l-1.7-8.7C506,258.6,497.2,251.4,487,251.4L487,251.4z"/>
	<path class="st23" d="M438.1,383.3h-27.4c-16.2,0-36.7-30.3-36.7-46.5v-47.1c0-16.2,13.2-29.3,29.4-29.4h42.1
		c16.2,0,29.3,13.2,29.4,29.4v47.1C474.8,353,454.3,383.3,438.1,383.3z"/>
	<path class="st107" d="M454,261.5c5.1,5.4,8,12.6,8,20.1v47.1c0,16.2-20.6,46.5-36.7,46.5h-27.4c-1.4,0-2.7-0.2-4-0.6
		c5.5,5.1,11.4,8.6,16.8,8.6h27.4c16.2,0,36.7-30.4,36.7-46.5v-47.1C474.8,276.7,466.3,265.3,454,261.5z"/>
	<ellipse class="st44" cx="423.5" cy="392.5" rx="35.5" ry="16.2"/>
	<path class="st41" d="M450.3,395.6c-12,6.2-41,4-53.9,0c-11.3-3.5-20.2-9.1-20.2-20.2l0,0c0-11.2,9.1-20.2,20.2-20.2h53.9
		c11.2,0,20.2,9.1,20.2,20.2l0,0C470.5,386.5,462.1,389.5,450.3,395.6z"/>
	<path class="st108" d="M450.9,355.2c3.9,4.9,6.1,11,6.1,17.4l0,0c0,14.7-10.7,19.1-25.9,26.8c7.6-0.3,14.6-1.4,19.1-3.8
		c11.8-6.1,20.2-9.1,20.2-20.2l0,0C470.5,364.5,461.8,355.6,450.9,355.2z"/>
	<path class="st44" d="M401.8,372.5c-7.1,0-12.9-5.8-12.9-12.9c0-7.1,5.8-12.9,12.9-12.9c7.1,0,12.8,5.8,12.8,12.9c0,0,0,0,0,0
		C414.7,366.7,408.9,372.5,401.8,372.5z"/>
	<path class="st41" d="M401.8,349.8c5.4,0,9.8,4.4,9.8,9.8s-4.4,9.8-9.8,9.8c-5.4,0-9.8-4.4-9.8-9.8c0,0,0,0,0,0
		C392,354.2,396.4,349.8,401.8,349.8 M401.8,343.7c-8.8,0-15.9,7.1-15.9,15.9c0,8.8,7.1,15.9,15.9,15.9c8.8,0,15.9-7.1,15.9-15.9
		C417.7,350.8,410.6,343.7,401.8,343.7z"/>
	<path class="st44" d="M446.6,373.5c-7.1,0-12.9-5.7-12.9-12.8c0-7.1,5.7-12.9,12.8-12.9c7.1,0,12.9,5.7,12.9,12.8c0,0,0,0,0,0
		C459.4,367.8,453.7,373.5,446.6,373.5z"/>
	<path class="st41" d="M446.6,350.9c5.4,0,9.8,4.4,9.8,9.8c0,5.4-4.4,9.8-9.8,9.8c-5.4,0-9.8-4.4-9.8-9.8c0,0,0,0,0,0
		C436.8,355.3,441.1,350.9,446.6,350.9C446.6,350.9,446.6,350.9,446.6,350.9 M446.6,344.8c-8.8,0-15.9,7.1-15.9,15.9
		s7.1,15.9,15.9,15.9c8.8,0,15.9-7.1,15.9-15.9c0,0,0,0,0,0C462.4,351.9,455.3,344.8,446.6,344.8z"/>
	<path class="st108" d="M457.6,355.6c-1.2,0.6-1.8,1.9-1.5,3.2c1.2,5.3-2.2,10.5-7.4,11.7c-3.6,0.8-7.4-0.5-9.7-3.4
		c-0.8-1.1-2.3-1.4-3.5-0.8l-0.3,0.1c-1.4,0.7-2,2.4-1.3,3.8c0.1,0.2,0.2,0.3,0.3,0.5c5.4,6.8,15.3,8,22.2,2.6
		c4.8-3.8,7-10.1,5.6-16c-0.4-1.5-1.9-2.4-3.4-2.1c-0.2,0-0.4,0.1-0.6,0.2L457.6,355.6z"/>
	<circle class="st83" cx="395.5" cy="314.7" r="5.4"/>
	<circle class="st83" cx="450" cy="313.8" r="5.4"/>
	<path class="st41" d="M395.5,261c0-7.1,7.6-12.8,19.5-12.8s17.5,5.7,17.5,12.8"/>
	<path class="st41" d="M416.2,260.8c0-7,7.1-12.8,15.9-12.8s15.9,5.7,15.9,12.8"/>
	<path class="st41" d="M395.8,260.8c0,0,17.7,3.7,22,22.4c0,0,4.8-12.5-1.7-25"/>
	<path class="st41" d="M415.4,261.2c0,0,12.5,5.4,14.2,13.8c0,0,7.8-11.6,4.1-17.9"/>
	<path class="st41" d="M432,260.2c0,0,12.5,3.7,12.5,17c0,0,3.6-2.5,3.6-16.5"/>
	<line class="st109" x1="478.9" y1="340.8" x2="566.8" y2="272.5"/>
	<line class="st110" x1="534.5" y1="298" x2="560.9" y2="277"/>
	<ellipse class="st111" cx="546.2" cy="278.2" rx="8.4" ry="8.8"/>
	<ellipse class="st111" cx="557.6" cy="290.6" rx="8.4" ry="8.8"/>
	<path class="st80" d="M568.3,266.6l4.2,4.9c1,1.2,0.9,3.1-0.3,4.1l0,0c-1.2,1-3.1,0.9-4.1-0.3l-4.2-4.9c-1-1.2-0.9-3.1,0.3-4.1l0,0
		C565.4,265.2,567.2,265.4,568.3,266.6z"/>
	<path class="st111" d="M534.1,320.3c1.1,26.6,26.8,38.9,52.3,36.6"/>
	<path class="st80" d="M603.2,353.1c-7.3,4.6-16.1,11.7-21.1,18.3l2-14.3l-7.6-12.3C583.8,348.9,594.7,351.9,603.2,353.1z"/>
	<path class="st112" d="M639.8,345.4c0,5.7-4.7,10.4-10.4,10.4c-13.8-0.5-13.8-20.3,0-20.8C635.1,335,639.8,339.7,639.8,345.4z"/>
	<line class="st113" x1="636.7" y1="330.6" x2="692.3" y2="257.3"/>
	<line class="st113" x1="636.7" y1="358.9" x2="702" y2="443.8"/>
</g>
</svg>
