<svg xmlns="http://www.w3.org/2000/svg" xmlns:xlink="http://www.w3.org/1999/xlink" viewBox="0 0 1757.31 769.24"><defs><style>.cls-1,.cls-53,.cls-54,.cls-56,.cls-57{fill:none;}.cls-2{fill:#faf4f1;}.cls-3{opacity:0.05;fill:url(#linear-gradient);}.cls-4{opacity:0.3;}.cls-5{fill:#eee6de;}.cls-12,.cls-6,.cls-7,.cls-8{fill:#eacece;}.cls-30,.cls-6{opacity:0.2;}.cls-18,.cls-21,.cls-22,.cls-23,.cls-26,.cls-7{opacity:0.3;}.cls-9{fill:#e7d4cd;}.cls-12,.cls-28,.cls-57,.cls-9{opacity:0.5;}.cls-10{fill:#ced2e9;}.cls-11{fill:#f7e2e6;}.cls-13{fill:#eedeeb;}.cls-14{fill:#eee4db;}.cls-15{fill:#e7e8e7;}.cls-16,.cls-38{fill:#f9acbc;}.cls-16,.cls-29{opacity:0.8;}.cls-17,.cls-41{fill:#f6eaea;}.cls-17,.cls-24{opacity:0.7;}.cls-18,.cls-42{fill:#fab129;}.cls-19,.cls-47{fill:#a52b2e;}.cls-19,.cls-45{opacity:0.6;}.cls-20,.cls-45{fill:#ef7087;}.cls-21,.cls-43{fill:#5491c4;}.cls-22{fill:#ff7baa;}.cls-23,.cls-44{fill:#aa812e;}.cls-25,.cls-29{fill:#88caea;}.cls-26,.cls-27{fill:#edb68f;}.cls-31{fill:#ee5b72;}.cls-32{clip-path:url(#clip-path);}.cls-33{clip-path:url(#clip-path-2);}.cls-34{clip-path:url(#clip-path-3);}.cls-35,.cls-47{opacity:0.4;}.cls-36{clip-path:url(#clip-path-4);}.cls-37{clip-path:url(#clip-path-5);}.cls-39{fill:#f4d8a6;}.cls-40{fill:#efc178;}.cls-46{clip-path:url(#clip-path-6);}.cls-48{fill:#cb425c;}.cls-49{fill:#fff;}.cls-50{fill:#fcd8ba;}.cls-51{fill:#262262;}.cls-52{fill:#0e141d;stroke:#b1b1b1;stroke-width:3.52px;}.cls-52,.cls-53,.cls-54,.cls-56,.cls-57{stroke-miterlimit:10;}.cls-53,.cls-54,.cls-56,.cls-57{stroke:#0090bc;}.cls-53{stroke-width:14.09px;}.cls-54{stroke-width:5.28px;}.cls-55{fill:#0090bc;}.cls-56,.cls-57{stroke-width:1.76px;}.cls-56{stroke-dasharray:3.63 3.63;}.cls-57{stroke-dasharray:3.52;}</style><linearGradient id="linear-gradient" x1="881.29" y1="954.41" x2="881.29" y2="111.7" gradientUnits="userSpaceOnUse"><stop offset="0" stop-color="#fff" stop-opacity="0"/><stop offset="0.04" stop-color="#d3ecf3" stop-opacity="0.17"/><stop offset="0.09" stop-color="#a1d6e6" stop-opacity="0.37"/><stop offset="0.14" stop-color="#75c3db" stop-opacity="0.54"/><stop offset="0.21" stop-color="#51b3d1" stop-opacity="0.68"/><stop offset="0.28" stop-color="#33a6c9" stop-opacity="0.8"/><stop offset="0.36" stop-color="#1c9cc3" stop-opacity="0.89"/><stop offset="0.46" stop-color="#0c95bf" stop-opacity="0.95"/><stop offset="0.6" stop-color="#0391bd" stop-opacity="0.99"/><stop offset="1" stop-color="#0090bc"/></linearGradient><clipPath id="clip-path"><path class="cls-1" d="M888,241.4c8,.22,71.65,2.68,77.54,2.67s47.69,3.05,53.22,3.37,40.78,2.66,42.06,4.47,2.33,7.76,1.81,10.86-1.16,8.26-3,9.2-38.64-3.58-46.62-3.69-65.06-2.65-71.28-3-63-1.5-64.77-1.6-7,.64-9-.86-2.2-10.18-2-12.95a14,14,0,0,1,3.64-7.84C871,240.84,880,241.19,888,241.4Z"/></clipPath><clipPath id="clip-path-2"><path class="cls-1" d="M1059.12,264.84c7.76-1.77,70.06-15.25,75.76-16.73s47-8.92,52.39-10,40.16-7.58,41.85-6.15,4.19,6.94,4.46,10.06.93,8.29-.57,9.64-38.32,6.16-46.07,8-63.67,13.63-69.78,14.84-61.43,14.25-63.13,14.59-6.59,2.36-8.9,1.4-4.66-9.32-5.2-12a14,14,0,0,1,1.58-8.5C1042.59,268.51,1051.3,266.63,1059.12,264.84Z"/></clipPath><clipPath id="clip-path-3"><path class="cls-1" d="M1010.23,167c7.78,1.7,69.89,16,75.68,17.1s46.28,11.91,51.66,13.25,39.56,10.23,40.49,12.25.84,8.06-.25,11-2.68,7.9-4.62,8.48-37.3-10.73-45.11-12.33-63.42-14.75-69.47-16.26S997,187.2,995.29,186.79s-7-.67-8.65-2.52-.26-10.41.41-13.1a14,14,0,0,1,5-7C993.71,163.24,1002.4,165.25,1010.23,167Z"/></clipPath><clipPath id="clip-path-4"><path class="cls-1" d="M1026.71,204.29c11.18-2.42,100.83-20.77,109.05-22.81s67.56-12.06,75.38-13.51,57.78-10.24,60.19-8.16,5.91,10,6.24,14.52,1.2,11.91-1,13.84-55.12,8.23-66.27,10.81-91.64,18.56-100.44,20.19-88.43,19.48-90.87,19.93-9.5,3.28-12.8,1.87-6.55-13.45-7.27-17.36.83-10,2.4-12.18S1015.45,206.73,1026.71,204.29Z"/></clipPath><clipPath id="clip-path-5"><path class="cls-1" d="M814,188.49c11.37,1.25,102.22,12.28,110.66,13s67.89,10,75.77,11.09,58,8.61,59.67,11.35,2.43,11.38,1.31,15.75-2.64,11.68-5.31,12.81-54.88-9.68-66.28-10.77S897,230.23,888.14,229s-90-9.57-92.5-9.92-10.06.1-12.74-2.28S781,202,781.5,198s4-9.25,6.14-10.79S802.52,187.24,814,188.49Z"/></clipPath><clipPath id="clip-path-6"><path class="cls-1" d="M828,203.24c21.89-.47,197.12-2.78,213.31-3.47s131.41.69,146.65.69,112.37.69,116.18,4.16,7.62,15.27,6.67,21.52-1.9,16.66-6.67,18.74-106.65-2.78-128.56-2.08-179,2.08-196.17,2.08S806.11,249,801.34,249s-19,2.08-24.76-.69S769,228.23,769,222.67s5.08-13.56,8.78-16.1S806,203.71,828,203.24Z"/></clipPath></defs><title>Preview</title><g id="Background"><rect class="cls-2" x="-68.13" y="-18.22" width="1882.02" height="812.1"/><rect class="cls-3" x="-27.22" y="-35.25" width="1817.02" height="842.71" rx="69.18" ry="69.18"/></g><g id="Additional_stuff" data-name="Additional stuff" class="cls-4"><circle class="cls-5" cx="280.76" cy="429.34" r="21.8"/><circle class="cls-6" cx="805.91" cy="579.74" r="5.19"/><circle class="cls-7" cx="40.07" cy="746.27" r="11.42"/><circle class="cls-8" cx="1559.03" cy="702.69" r="8.31"/><circle class="cls-6" cx="742.05" cy="720.66" r="7.27"/><circle class="cls-6" cx="229.01" cy="719.27" r="7.27"/><circle class="cls-9" cx="497.36" cy="545.54" r="19.72"/><circle class="cls-10" cx="784.53" cy="605.09" r="10.83"/><circle class="cls-11" cx="942.84" cy="216.88" r="21.8"/><circle class="cls-6" cx="107.07" cy="729.42" r="5.19"/><circle class="cls-7" cx="846.22" cy="609" r="11.42"/><circle class="cls-8" cx="542.57" cy="765.9" r="8.31"/><circle class="cls-6" cx="123.68" cy="594.47" r="7.27"/><circle class="cls-6" cx="657.28" cy="635.99" r="7.27"/><circle class="cls-12" cx="28.37" cy="21.02" r="19.72"/><circle class="cls-12" cx="896.04" cy="311.73" r="19.72"/><circle class="cls-13" cx="500.95" cy="74.1" r="14.53"/><circle class="cls-14" cx="1727.63" cy="193.28" r="21.8" transform="translate(969.58 1757.7) rotate(-70.53)"/><circle class="cls-9" cx="1562.16" cy="193.01" r="19.72" transform="translate(859.52 1601.52) rotate(-70.53)"/><circle class="cls-6" cx="1559.33" cy="170.58" r="5.19" transform="translate(878.77 1583.89) rotate(-70.53)"/><circle class="cls-6" cx="1681.03" cy="231.22" r="7.27" transform="translate(902.74 1739.06) rotate(-70.53)"/><circle class="cls-15" cx="1343.78" cy="249.58" r="21.8" transform="translate(-22.28 293.21) rotate(-12.35)"/><circle class="cls-15" cx="1752.15" cy="275.71" r="21.8" transform="translate(-18.42 381.16) rotate(-12.35)"/><circle class="cls-7" cx="1245.82" cy="207.76" r="11.42" transform="translate(-15.61 271.28) rotate(-12.35)"/><circle class="cls-7" cx="300.85" cy="75.51" r="11.42" transform="translate(129.39 333.99) rotate(-70.53)"/><circle class="cls-6" cx="294.4" cy="144.29" r="5.19" transform="translate(60.24 373.76) rotate(-70.53)"/><circle class="cls-6" cx="841.1" cy="121.5" r="7.27" transform="translate(-6.52 182.72) rotate(-12.35)"/><circle class="cls-5" cx="1630.83" cy="531.05" r="21.8"/><circle class="cls-7" cx="1730.67" cy="638.82" r="11.42"/><circle class="cls-6" cx="1541.73" cy="654.07" r="7.27"/><circle class="cls-10" cx="1538.94" cy="298.9" r="10.83"/><circle class="cls-6" cx="1663.67" cy="655.66" r="5.19"/><circle class="cls-7" cx="1146.9" cy="709.89" r="11.42"/><circle class="cls-6" cx="126.9" cy="313.71" r="7.27"/><circle class="cls-6" cx="1335.84" cy="682.89" r="7.27"/><circle class="cls-13" cx="1275.51" cy="492.51" r="14.53"/><circle class="cls-8" cx="804.47" cy="258.74" r="8.31"/><circle class="cls-11" cx="686.88" cy="388.45" r="21.8"/><circle class="cls-14" cx="467.45" cy="375.63" r="21.8" transform="translate(-42.51 691.15) rotate(-70.53)"/><circle class="cls-7" cx="1475.61" cy="491.1" r="11.42" transform="translate(520.76 1718.65) rotate(-70.53)"/><circle class="cls-6" cx="521.22" cy="211.12" r="5.19" transform="translate(148.45 632.17) rotate(-70.53)"/><circle class="cls-6" cx="431.52" cy="217.73" r="7.27" transform="translate(82.41 552.01) rotate(-70.53)"/><circle class="cls-15" cx="351.38" cy="376.83" r="21.8" transform="translate(-72.47 83.88) rotate(-12.35)"/><circle class="cls-15" cx="622.43" cy="275.14" r="21.8" transform="translate(-44.45 139.5) rotate(-12.35)"/><circle class="cls-15" cx="974.14" cy="410.68" r="21.8" transform="translate(-65.3 217.87) rotate(-12.35)"/><circle class="cls-7" cx="120.14" cy="222.87" r="11.42" transform="translate(-44.89 30.85) rotate(-12.35)"/><circle class="cls-6" cx="89.35" cy="203.3" r="5.19" transform="translate(-41.42 23.82) rotate(-12.35)"/><circle class="cls-6" cx="935.37" cy="415.75" r="7.27" transform="translate(-67.28 209.69) rotate(-12.35)"/></g><g id="How"><g id="step2"><path class="cls-16" d="M779.71,630.54c-4.77,18.47-53.12,10.38-71.6,5.61s-62.75-18.62-58-37.09,55.8-30.73,74.27-26S784.49,612.07,779.71,630.54Z"/><ellipse class="cls-17" cx="710.82" cy="610.22" rx="18" ry="25.94" transform="translate(-57.85 1145.73) rotate(-75.51)"/><ellipse class="cls-17" cx="716.2" cy="605.51" rx="18" ry="21.55" transform="translate(-49.27 1147.4) rotate(-75.51)"/><ellipse class="cls-17" cx="721.74" cy="615.44" rx="18" ry="21.55" transform="translate(-54.72 1160.21) rotate(-75.51)"/><ellipse class="cls-17" cx="713.48" cy="613.53" rx="18" ry="22.63" transform="matrix(0.25, -0.97, 0.97, 0.25, -59.06, 1150.79)"/><circle class="cls-18" cx="744.54" cy="605.43" r="0.84" transform="translate(-50.31 1143.1) rotate(-73.19)"/><circle class="cls-19" cx="684.9" cy="597.23" r="1.23" transform="translate(-138.55 981.56) rotate(-66.11)"/><rect class="cls-20" x="711.6" y="576.6" width="8.32" height="3.43" rx="1.72" ry="1.72" transform="translate(32.43 -37.98) rotate(3.11)"/><rect class="cls-20" x="673.86" y="588.91" width="8.32" height="3.43" rx="1.72" ry="1.72" transform="translate(-205.97 425.98) rotate(-30.51)"/><circle class="cls-21" cx="668.24" cy="604.8" r="0.84" transform="translate(-103.94 1069.61) rotate(-73.19)"/><circle class="cls-22" cx="695.45" cy="587.02" r="2.18" transform="translate(-46.92 1113.46) rotate(-75.51)"/><ellipse class="cls-21" cx="745.95" cy="628.5" rx="1.38" ry="1.48" transform="translate(-215.79 465.71) rotate(-30.51)"/><ellipse class="cls-23" cx="742.57" cy="593.74" rx="1.32" ry="1.28" transform="translate(-198.61 459.18) rotate(-30.51)"/><circle class="cls-22" cx="676.08" cy="615.9" r="2.18" transform="translate(-219.07 428.5) rotate(-30.51)"/></g><g id="step1"><g id="Layer_49" data-name="Layer 49"><g class="cls-24"><path class="cls-25" d="M835.78,422.4c.91,10.33-14.31,23-24.64,23.89s-41.92,3.79-42.82-6.54S786.71,412,797,411.1,834.87,412.07,835.78,422.4Z"/><ellipse class="cls-17" cx="805.05" cy="426.94" rx="14.1" ry="9.78" transform="translate(-34.23 71.99) rotate(-5.01)"/><ellipse class="cls-17" cx="803.33" cy="431.07" rx="11.71" ry="9.78" transform="matrix(1, -0.09, 0.09, 1, -34.6, 71.86)"/><ellipse class="cls-17" cx="802.35" cy="425.58" rx="11.71" ry="9.78" transform="matrix(1, -0.09, 0.09, 1, -34.12, 71.75)"/><ellipse class="cls-17" cx="810.87" cy="427.77" rx="12.3" ry="9.78" transform="translate(-34.28 72.5) rotate(-5.01)"/><circle class="cls-18" cx="817.83" cy="425.89" r="0.46" transform="matrix(1, -0.05, 0.05, 1, -19.14, 38.97)"/><circle class="cls-26" cx="785.79" cy="432.51" r="0.67" transform="translate(294.44 1182.92) rotate(-85.61)"/><rect class="cls-27" x="795.91" y="416.29" width="4.52" height="1.87" rx="0.93" ry="0.93" transform="translate(-85.31 242.25) rotate(-16.39)"/><rect class="cls-27" x="778.8" y="429.44" width="4.52" height="1.87" rx="0.93" ry="0.93" transform="translate(-50.6 752.27) rotate(-50.01)"/><circle class="cls-21" cx="778.63" cy="439.41" r="0.46" transform="translate(-19.82 37.14) rotate(-2.7)"/><circle class="cls-18" cx="789.34" cy="425.37" r="1.18" transform="translate(-34.16 70.61) rotate(-5.01)"/><ellipse class="cls-21" cx="822.74" cy="437.45" rx="0.75" ry="0.8" transform="translate(-41.13 786.73) rotate(-50.01)"/><ellipse class="cls-23" cx="814.7" cy="420.25" rx="0.72" ry="0.69" transform="translate(-30.83 774.42) rotate(-50.01)"/><circle class="cls-18" cx="784.66" cy="443.67" r="1.18" transform="translate(-59.51 759.78) rotate(-50.01)"/></g><g class="cls-28"><path class="cls-25" d="M928.62,387.75c.53,6-8.32,13.35-14.32,13.88s-24.36,2.2-24.89-3.8,10.69-16.12,16.7-16.65S928.09,381.75,928.62,387.75Z"/><ellipse class="cls-17" cx="910.76" cy="390.39" rx="8.19" ry="5.69" transform="matrix(1, -0.09, 0.09, 1, -30.63, 81.09)"/><ellipse class="cls-17" cx="909.76" cy="392.79" rx="6.81" ry="5.69" transform="translate(-30.85 81.01) rotate(-5.01)"/><ellipse class="cls-17" cx="909.19" cy="389.6" rx="6.81" ry="5.69" transform="translate(-30.57 80.95) rotate(-5.01)"/><ellipse class="cls-17" cx="914.14" cy="390.87" rx="7.15" ry="5.69" transform="matrix(1, -0.09, 0.09, 1, -30.66, 81.39)"/><circle class="cls-18" cx="918.19" cy="389.78" r="0.27" transform="translate(-17.33 43.65) rotate(-2.7)"/><circle class="cls-26" cx="899.57" cy="393.63" r="0.39" transform="translate(438.28 1260.45) rotate(-85.61)"/><rect class="cls-27" x="905.45" y="384.2" width="2.63" height="1.08" rx="0.54" ry="0.54" transform="translate(-71.73 271.58) rotate(-16.39)"/><rect class="cls-27" x="895.51" y="391.84" width="2.63" height="1.08" rx="0.54" ry="0.54" transform="translate(19.88 827.38) rotate(-50.01)"/><circle class="cls-21" cx="895.41" cy="397.64" r="0.27" transform="translate(-17.72 42.59) rotate(-2.7)"/><circle class="cls-18" cx="901.63" cy="389.48" r="0.69" transform="translate(-30.59 80.29) rotate(-5.01)"/><ellipse class="cls-21" cx="921.04" cy="396.5" rx="0.44" ry="0.47" transform="translate(25.38 847.41) rotate(-50.01)"/><ellipse class="cls-23" cx="916.37" cy="386.51" rx="0.42" ry="0.4" transform="translate(31.37 840.26) rotate(-50.01)"/><circle class="cls-18" cx="898.91" cy="400.12" r="0.69" transform="translate(14.7 831.75) rotate(-50.01)"/></g><g class="cls-28"><path class="cls-25" d="M953.31,438.88c-1.8,7.45-21.29,4.5-28.74,2.7S899.23,434.49,901,427s22.23-12.7,29.69-10.9S955.11,431.42,953.31,438.88Z"/><ellipse class="cls-17" cx="936.89" cy="432.64" rx="10.43" ry="7.24" transform="translate(-83.55 278.87) rotate(-16.22)"/><ellipse class="cls-17" cx="936.65" cy="430.79" rx="7.24" ry="8.66" transform="translate(297.69 1239.88) rotate(-76.4)"/><ellipse class="cls-17" cx="938.51" cy="431.88" rx="7.24" ry="8.66" transform="translate(298.05 1242.52) rotate(-76.4)"/><circle class="cls-18" cx="939.01" cy="429.01" r="0.34" transform="translate(268.95 1214.37) rotate(-74.08)"/><circle class="cls-26" cx="914.99" cy="426.09" r="0.49" transform="translate(165.25 1101.84) rotate(-67)"/><rect class="cls-27" x="925.6" y="417.6" width="3.35" height="1.38" rx="0.69" ry="0.69" transform="translate(16.89 -35.59) rotate(2.22)"/><rect class="cls-27" x="910.51" y="422.78" width="3.35" height="1.38" rx="0.69" ry="0.69" transform="matrix(0.85, -0.52, 0.52, 0.85, -87.04, 537.27)"/><circle class="cls-21" cx="908.34" cy="429.23" r="0.34" transform="translate(246.47 1185.04) rotate(-74.08)"/><circle class="cls-18" cx="919.17" cy="421.92" r="0.88" transform="translate(292.94 1216.1) rotate(-76.4)"/><ellipse class="cls-21" cx="939.72" cy="438.27" rx="0.56" ry="0.59" transform="translate(-90.72 553.78) rotate(-31.4)"/><ellipse class="cls-23" cx="938.15" cy="424.32" rx="0.53" ry="0.51" transform="matrix(0.85, -0.52, 0.52, 0.85, -83.68, 550.92)"/><circle class="cls-18" cx="911.56" cy="433.64" r="0.88" transform="translate(-92.43 538.44) rotate(-31.4)"/></g><path class="cls-29" d="M1107.65,628.91c-4.77,18.47-53.12,10.38-71.6,5.61s-62.75-18.62-58-37.09,55.8-30.73,74.27-26S1112.42,610.44,1107.65,628.91Z"/><ellipse class="cls-17" cx="1038.76" cy="608.59" rx="18" ry="25.94" transform="matrix(0.25, -0.97, 0.97, 0.25, 189.6, 1462.01)"/><ellipse class="cls-17" cx="1044.13" cy="603.88" rx="18" ry="21.55" transform="translate(198.19 1463.68) rotate(-75.51)"/><ellipse class="cls-17" cx="1049.68" cy="613.81" rx="18" ry="21.55" transform="matrix(0.25, -0.97, 0.97, 0.25, 192.73, 1476.49)"/><ellipse class="cls-17" cx="1041.42" cy="611.9" rx="18" ry="22.63" transform="matrix(0.25, -0.97, 0.97, 0.25, 188.39, 1467.07)"/><circle class="cls-18" cx="1072.48" cy="603.8" r="0.84" transform="translate(184.36 1455.88) rotate(-73.19)"/><circle class="cls-26" cx="1012.84" cy="595.61" r="1.23" transform="translate(58.05 1280.42) rotate(-66.11)"/><rect class="cls-20" x="1039.54" y="574.97" width="8.32" height="3.43" rx="1.72" ry="1.72" transform="translate(32.83 -55.78) rotate(3.11)"/><rect class="cls-20" x="1001.79" y="587.28" width="8.32" height="3.43" rx="1.72" ry="1.72" transform="translate(-159.74 592.24) rotate(-30.51)"/><circle class="cls-21" cx="996.18" cy="603.17" r="0.84" transform="translate(130.73 1382.39) rotate(-73.19)"/><circle class="cls-22" cx="1023.39" cy="585.4" r="2.18" transform="translate(200.53 1429.74) rotate(-75.51)"/><ellipse class="cls-21" cx="1073.89" cy="626.87" rx="1.38" ry="1.48" transform="translate(-169.56 631.97) rotate(-30.51)"/><ellipse class="cls-23" cx="1070.51" cy="592.11" rx="1.32" ry="1.28" transform="translate(-152.39 625.44) rotate(-30.51)"/><circle class="cls-22" cx="1004.02" cy="614.27" r="2.18" transform="translate(-172.84 594.75) rotate(-30.51)"/><path class="cls-29" d="M935.41,455.61c-4.77,18.47-53.12,10.38-71.6,5.61s-62.75-18.62-58-37.09,55.8-30.73,74.27-26S940.19,437.14,935.41,455.61Z"/><ellipse class="cls-17" cx="866.53" cy="435.29" rx="18" ry="25.94" transform="matrix(0.25, -0.97, 0.97, 0.25, 228.25, 1165.32)"/><ellipse class="cls-17" cx="871.9" cy="430.58" rx="18" ry="21.55" transform="translate(236.83 1167) rotate(-75.51)"/><ellipse class="cls-17" cx="877.44" cy="440.51" rx="18" ry="21.55" transform="matrix(0.25, -0.97, 0.97, 0.25, 231.38, 1179.81)"/><ellipse class="cls-17" cx="869.19" cy="438.6" rx="18" ry="22.63" transform="matrix(0.25, -0.97, 0.97, 0.25, 227.04, 1170.38)"/><circle class="cls-18" cx="900.25" cy="430.51" r="0.84" transform="translate(227.82 1167.81) rotate(-73.19)"/><circle class="cls-26" cx="840.61" cy="422.31" r="1.23" transform="translate(114.02 1019.84) rotate(-66.11)"/><rect class="cls-20" x="867.31" y="401.68" width="8.32" height="3.43" rx="1.72" ry="1.72" transform="translate(23.17 -46.69) rotate(3.11)"/><rect class="cls-20" x="829.56" y="413.98" width="8.32" height="3.43" rx="1.72" ry="1.72" transform="matrix(0.86, -0.51, 0.51, 0.86, -95.61, 480.81)"/><circle class="cls-21" cx="823.95" cy="429.87" r="0.84" transform="translate(174.19 1094.32) rotate(-73.19)"/><circle class="cls-22" cx="851.15" cy="412.1" r="2.18" transform="translate(239.18 1133.05) rotate(-75.51)"/><ellipse class="cls-21" cx="901.65" cy="453.57" rx="1.38" ry="1.48" transform="translate(-105.43 520.54) rotate(-30.51)"/><ellipse class="cls-23" cx="898.28" cy="418.81" rx="1.32" ry="1.28" transform="translate(-88.25 514.01) rotate(-30.51)"/><circle class="cls-22" cx="831.79" cy="440.97" r="2.18" transform="translate(-108.71 483.32) rotate(-30.51)"/></g><g id="Layer_92" data-name="Layer 92" class="cls-30"><path class="cls-31" d="M888,241.4c8,.22,71.65,2.68,77.54,2.67s47.69,3.05,53.22,3.37,40.78,2.66,42.06,4.47,2.33,7.76,1.81,10.86-1.16,8.26-3,9.2-38.64-3.58-46.62-3.69-65.06-2.65-71.28-3-63-1.5-64.77-1.6-7,.64-9-.86-2.2-10.18-2-12.95a14,14,0,0,1,3.64-7.84C871,240.84,880,241.19,888,241.4Z"/><g class="cls-32"><path class="cls-20" d="M880.86,273.18l-7-.4s-1.18-16.64-.83-22.15c.45-6.93,3.41-23.3,3.41-23.3l7,.4s-2.92,15.58-3.42,23.47A140.07,140.07,0,0,0,880.86,273.18Z"/><path class="cls-20" d="M896,274.85l-7-.4s-.49-16.61-.13-22.11c.45-6.93,2.71-23.34,2.71-23.34l7,.4s-2.21,16.58-2.72,23.51C895.48,258.37,896,274.85,896,274.85Z"/><path class="cls-20" d="M912.68,275.21l-7-.4s-.49-16.61-.13-22.11c.45-6.93,2.71-23.34,2.71-23.34l7,.4s-2.21,16.58-2.72,23.51C912.14,258.74,912.68,275.21,912.68,275.21Z"/><path class="cls-20" d="M929.56,275.95l-7-.4s-.49-16.61-.13-22.11c.45-6.93,2.71-23.34,2.71-23.34l7,.4s-2.21,16.58-2.72,23.51C929,259.47,929.56,275.95,929.56,275.95Z"/><path class="cls-20" d="M944.72,277.61l-7-.4s.2-16.57.56-22.07c.45-6.93,2-23.38,2-23.38l7,.4s-1.52,16.62-2,23.55C944.87,261.17,944.72,277.61,944.72,277.61Z"/><path class="cls-20" d="M961.38,278l-7-.4s.2-16.57.56-22.07c.45-6.93,2-23.38,2-23.38l7,.4s-1.52,16.62-2,23.55C961.53,261.54,961.38,278,961.38,278Z"/><path class="cls-20" d="M1052,238.55l7,.4s1.13,14.36.83,22.15c-.4,10.06-3.41,23.3-3.41,23.3l-7-.4s2.69-15,3.42-23.47C1053.47,253,1052,238.55,1052,238.55Z"/><path class="cls-20" d="M1036.83,236.89l7,.4s.49,16.61.13,22.11c-.45,6.93-2.71,23.34-2.71,23.34l-7-.4s2.21-16.58,2.72-23.51C1037.38,253.37,1036.83,236.89,1036.83,236.89Z"/><path class="cls-20" d="M1020.18,236.52l7,.4s.49,16.61.13,22.11c-.45,6.93-2.71,23.34-2.71,23.34l-7-.4s2.21-16.58,2.72-23.51C1020.72,253,1020.18,236.52,1020.18,236.52Z"/><path class="cls-20" d="M1003.3,235.79l7,.4s.49,16.61.13,22.11c-.45,6.93-2.71,23.34-2.71,23.34l-7-.4s2.21-16.58,2.72-23.51C1003.84,252.27,1003.3,235.79,1003.3,235.79Z"/><path class="cls-20" d="M988.14,234.12l7,.4s-.2,16.57-.56,22.07c-.45,6.93-2,23.38-2,23.38l-7-.4s1.52-16.62,2-23.55C988,250.56,988.14,234.12,988.14,234.12Z"/><path class="cls-20" d="M971.48,233.76l7,.4s-.2,16.57-.56,22.07c-.45,6.93-2,23.38-2,23.38l-7-.4s1.52-16.62,2-23.55C971.33,250.2,971.48,233.76,971.48,233.76Z"/></g><path class="cls-31" d="M1059.12,264.84c7.76-1.77,70.06-15.25,75.76-16.73s47-8.92,52.39-10,40.16-7.58,41.85-6.15,4.19,6.94,4.46,10.06.93,8.29-.57,9.64-38.32,6.16-46.07,8-63.67,13.63-69.78,14.84-61.43,14.25-63.13,14.59-6.59,2.36-8.9,1.4-4.66-9.32-5.2-12a14,14,0,0,1,1.58-8.5C1042.59,268.51,1051.3,266.63,1059.12,264.84Z"/><g class="cls-33"><path class="cls-20" d="M1060.15,297.39l-6.92,1.37s-5.29-15.83-6.32-21.25c-1.29-6.83-2.5-23.42-2.5-23.42l6.92-1.37s1.05,15.82,2.54,23.59A140.07,140.07,0,0,0,1060.15,297.39Z"/><path class="cls-20" d="M1075.25,295.23l-6.92,1.37s-4.61-16-5.64-21.38c-1.29-6.83-3.18-23.28-3.18-23.28l6.92-1.37s2,16.61,3.22,23.45C1070.61,279.4,1075.25,295.23,1075.25,295.23Z"/><path class="cls-20" d="M1091.47,291.43l-6.92,1.37s-4.61-16-5.64-21.38c-1.29-6.83-3.18-23.28-3.18-23.28l6.92-1.37s2,16.61,3.22,23.45C1086.84,275.61,1091.47,291.43,1091.47,291.43Z"/><path class="cls-20" d="M1108,287.94l-6.92,1.37s-4.61-16-5.64-21.38c-1.29-6.83-3.18-23.28-3.18-23.28l6.92-1.37s2,16.61,3.22,23.45C1103.37,272.12,1108,287.94,1108,287.94Z"/><path class="cls-20" d="M1123.1,285.78l-6.92,1.37s-3.93-16.09-5-21.51c-1.29-6.83-3.86-23.15-3.86-23.15l6.92-1.37s2.67,16.48,3.9,23.32C1119.14,269.82,1123.1,285.78,1123.1,285.78Z"/><path class="cls-20" d="M1139.32,282l-6.92,1.37s-3.93-16.09-5-21.51c-1.29-6.83-3.86-23.15-3.86-23.15l6.92-1.37s2.67,16.48,3.9,23.32C1135.37,266,1139.32,282,1139.32,282Z"/><path class="cls-20" d="M1217.26,221.23l6.92-1.37s4.68,13.63,6.32,21.25c2.12,9.84,2.5,23.42,2.5,23.42l-6.92,1.37s-1.13-15.21-2.54-23.59C1222.3,234.89,1217.26,221.23,1217.26,221.23Z"/><path class="cls-20" d="M1202.17,223.39l6.92-1.37s4.61,16,5.64,21.38c1.29,6.83,3.18,23.28,3.18,23.28l-6.92,1.37s-2-16.61-3.22-23.45C1206.8,239.22,1202.17,223.39,1202.17,223.39Z"/><path class="cls-20" d="M1185.94,227.19l6.92-1.37s4.61,16,5.64,21.38c1.29,6.83,3.18,23.28,3.18,23.28l-6.92,1.37s-2-16.61-3.22-23.45C1190.57,243,1185.94,227.19,1185.94,227.19Z"/><path class="cls-20" d="M1169.41,230.68l6.92-1.37s4.61,16,5.64,21.38c1.29,6.83,3.18,23.28,3.18,23.28l-6.92,1.37s-2-16.61-3.22-23.45C1174,246.5,1169.41,230.68,1169.41,230.68Z"/><path class="cls-20" d="M1154.31,232.84l6.92-1.37s3.93,16.09,5,21.51c1.29,6.83,3.86,23.15,3.86,23.15l-6.92,1.37s-2.67-16.48-3.9-23.32C1158.27,248.8,1154.31,232.84,1154.31,232.84Z"/><path class="cls-20" d="M1138.09,236.64l6.92-1.37s3.93,16.09,5,21.51c1.29,6.83,3.86,23.15,3.86,23.15l-6.92,1.37s-2.67-16.48-3.9-23.32C1142,252.6,1138.09,236.64,1138.09,236.64Z"/></g><path class="cls-31" d="M1010.23,167c7.78,1.7,69.89,16,75.68,17.1s46.28,11.91,51.66,13.25,39.56,10.23,40.49,12.25.84,8.06-.25,11-2.68,7.9-4.62,8.48-37.3-10.73-45.11-12.33-63.42-14.75-69.47-16.26S997,187.2,995.29,186.79s-7-.67-8.65-2.52-.26-10.41.41-13.1a14,14,0,0,1,5-7C993.71,163.24,1002.4,165.25,1010.23,167Z"/><g class="cls-34"><path class="cls-20" d="M997.31,196.85l-6.85-1.71s1.95-16.57,3.32-21.91c1.73-6.73,7.7-22.26,7.7-22.26l6.85,1.71s-5.78,14.76-7.74,22.42A140.07,140.07,0,0,0,997.31,196.85Z"/><path class="cls-20" d="M1011.89,201.32l-6.85-1.71s2.62-16.4,4-21.75c1.73-6.73,7-22.42,7-22.42l6.85,1.71s-5.27,15.88-7.07,22.59C1014.43,185,1011.89,201.32,1011.89,201.32Z"/><path class="cls-20" d="M1028.19,204.79l-6.85-1.71s2.62-16.4,4-21.75c1.73-6.73,7-22.42,7-22.42l6.85,1.71s-5.27,15.88-7.07,22.59C1030.73,188.5,1028.19,204.79,1028.19,204.79Z"/><path class="cls-20" d="M1044.63,208.66l-6.85-1.71s2.62-16.4,4-21.75c1.73-6.73,7-22.42,7-22.42l6.85,1.71s-5.27,15.88-7.07,22.59C1047.17,192.37,1044.63,208.66,1044.63,208.66Z"/><path class="cls-20" d="M1059.22,213.13l-6.85-1.71s3.29-16.24,4.67-21.58c1.73-6.73,6.35-22.59,6.35-22.59l6.85,1.71s-4.6,16-6.39,22.76C1062.43,197,1059.22,213.13,1059.22,213.13Z"/><path class="cls-20" d="M1075.52,216.6l-6.85-1.71s3.29-16.24,4.67-21.58c1.73-6.73,6.35-22.59,6.35-22.59l6.85,1.71s-4.6,16-6.39,22.76C1078.73,200.47,1075.52,216.6,1075.52,216.6Z"/><path class="cls-20" d="M1171.9,194.79l6.85,1.71s-1.57,14.32-3.32,21.91c-2.27,9.81-7.7,22.26-7.7,22.26l-6.85-1.71s5.45-14.25,7.74-22.42C1170.64,209.3,1171.9,194.79,1171.9,194.79Z"/><path class="cls-20" d="M1157.31,190.32l6.85,1.71s-2.62,16.4-4,21.75c-1.73,6.73-7,22.42-7,22.42l-6.85-1.71s5.27-15.88,7.07-22.59C1154.78,206.61,1157.31,190.32,1157.31,190.32Z"/><path class="cls-20" d="M1141,186.85l6.85,1.71s-2.62,16.4-4,21.75c-1.73,6.73-7,22.42-7,22.42L1130,231s5.27-15.88,7.07-22.59C1138.48,203.14,1141,186.85,1141,186.85Z"/><path class="cls-20" d="M1124.57,183l6.85,1.71s-2.62,16.4-4,21.75c-1.73,6.73-7,22.42-7,22.42l-6.85-1.71s5.27-15.88,7.07-22.59C1122,199.27,1124.57,183,1124.57,183Z"/><path class="cls-20" d="M1110,178.51l6.85,1.71s-3.29,16.24-4.67,21.58c-1.73,6.73-6.35,22.59-6.35,22.59l-6.85-1.71s4.6-16,6.39-22.76C1106.78,194.63,1110,178.51,1110,178.51Z"/><path class="cls-20" d="M1093.69,175l6.85,1.71s-3.29,16.24-4.67,21.58c-1.73,6.73-6.35,22.59-6.35,22.59l-6.85-1.71s4.6-16,6.39-22.76C1090.48,191.16,1093.69,175,1093.69,175Z"/></g></g><g id="Layer_91" data-name="Layer 91" class="cls-35"><path class="cls-31" d="M1026.72,204.49c11.17-2.44,100.8-21,109-23s67.53-12.18,75.35-13.65,57.76-10.34,60.17-8.27,5.93,10,6.27,14.51,1.23,11.91-.94,13.84-55.1,8.33-66.25,10.93-91.6,18.72-100.4,20.38-88.39,19.64-90.84,20.1-9.5,3.3-12.8,1.9-6.57-13.44-7.31-17.35.81-10,2.38-12.18S1015.47,207,1026.72,204.49Z"/><g class="cls-36"><path class="cls-20" d="M1027.66,251l-10,1.85s-7.34-22.81-8.73-30.61c-1.75-9.82-3.22-33.66-3.22-33.66l10-1.85s1.25,22.73,3.27,33.91C1021.54,235,1027.66,251,1027.66,251Z"/><path class="cls-20" d="M1049.37,248.18l-10,1.85s-6.36-23-7.75-30.79c-1.75-9.82-4.2-33.48-4.2-33.48l10-1.85s2.59,23.88,4.24,33.72C1043,225.38,1049.37,248.18,1049.37,248.18Z"/><path class="cls-20" d="M1072.73,243l-10,1.85s-6.36-23-7.75-30.79c-1.75-9.82-4.2-33.48-4.2-33.48l10-1.85s2.59,23.88,4.24,33.72C1066.33,220.19,1072.73,243,1072.73,243Z"/><path class="cls-20" d="M1096.52,238.24l-10,1.85s-6.36-23-7.75-30.79c-1.75-9.82-4.2-33.48-4.2-33.48l10-1.85s2.59,23.88,4.24,33.72C1090.12,215.44,1096.52,238.24,1096.52,238.24Z"/><path class="cls-20" d="M1118.23,235.37l-10,1.85s-5.38-23.17-6.77-31c-1.75-9.82-5.18-33.3-5.18-33.3l10-1.85s3.57,23.7,5.22,33.54C1112.81,212.4,1118.23,235.37,1118.23,235.37Z"/><path class="cls-20" d="M1141.59,230.18l-10,1.85s-5.38-23.17-6.77-31c-1.75-9.82-5.18-33.3-5.18-33.3l10-1.85s3.57,23.7,5.22,33.54C1136.17,207.21,1141.59,230.18,1141.59,230.18Z"/><path class="cls-20" d="M1254.47,144.2l10-1.85s6.49,19.65,8.73,30.61c2.89,14.17,3.22,33.66,3.22,33.66l-10,1.85s-1.38-21.86-3.27-33.91C1261.49,163.9,1254.47,144.2,1254.47,144.2Z"/><path class="cls-20" d="M1232.76,147.06l10-1.85s6.36,23,7.75,30.79c1.75,9.82,4.2,33.48,4.2,33.48l-10,1.85s-2.59-23.88-4.24-33.72C1239.16,169.86,1232.76,147.06,1232.76,147.06Z"/><path class="cls-20" d="M1209.4,152.25l10-1.85s6.36,23,7.75,30.79c1.75,9.82,4.2,33.48,4.2,33.48l-10,1.85s-2.59-23.88-4.24-33.72C1215.8,175,1209.4,152.25,1209.4,152.25Z"/><path class="cls-20" d="M1185.61,157l10-1.85s6.36,23,7.75,30.79c1.75,9.82,4.2,33.48,4.2,33.48l-10,1.85s-2.59-23.88-4.24-33.72C1192,179.8,1185.61,157,1185.61,157Z"/><path class="cls-20" d="M1163.9,159.87l10-1.85s5.38,23.17,6.77,31c1.75,9.82,5.18,33.3,5.18,33.3l-10,1.85s-3.57-23.7-5.22-33.54C1169.32,182.84,1163.9,159.87,1163.9,159.87Z"/><path class="cls-20" d="M1140.54,165.06l10-1.85s5.38,23.17,6.77,31c1.75,9.82,5.18,33.3,5.18,33.3l-10,1.85s-3.57-23.7-5.22-33.54C1146,188,1140.54,165.06,1140.54,165.06Z"/></g><path class="cls-31" d="M814,188.49c11.37,1.25,102.22,12.28,110.66,13s67.89,10,75.77,11.09,58,8.61,59.67,11.35,2.43,11.38,1.31,15.75-2.64,11.68-5.31,12.81-54.88-9.68-66.28-10.77S897,230.23,888.14,229s-90-9.57-92.5-9.92-10.06.1-12.74-2.28S781,202,781.5,198s4-9.25,6.14-10.79S802.52,187.24,814,188.49Z"/><g class="cls-37"><path class="cls-20" d="M800,233.14l-10-1.4s.27-24,1.43-31.8C792.88,190.07,799,167,799,167l10,1.4s-6,21.95-7.66,33.19C799.33,216,800,233.14,800,233.14Z"/><path class="cls-20" d="M821.54,237.31l-10-1.4s1.26-23.82,2.41-31.66c1.46-9.87,6.64-33.08,6.64-33.08l10,1.4s-5.12,23.47-6.67,33.33C822.7,213.66,821.54,237.31,821.54,237.31Z"/><path class="cls-20" d="M845.34,239.79l-10-1.4s1.26-23.82,2.41-31.66c1.46-9.87,6.64-33.08,6.64-33.08l10,1.4s-5.12,23.47-6.67,33.33C846.5,216.15,845.34,239.79,845.34,239.79Z"/><path class="cls-20" d="M869.4,242.83l-10-1.4s1.26-23.82,2.41-31.66c1.46-9.87,6.64-33.08,6.64-33.08l10,1.4s-5.12,23.47-6.67,33.33C870.56,219.19,869.4,242.83,869.4,242.83Z"/><path class="cls-20" d="M890.91,247l-10-1.4s2.24-23.68,3.4-31.52c1.46-9.87,5.65-33.22,5.65-33.22l10,1.4s-4.13,23.61-5.68,33.47C893.05,223.49,890.91,247,890.91,247Z"/><path class="cls-20" d="M914.7,249.49l-10-1.4s2.24-23.68,3.4-31.52c1.46-9.87,5.65-33.22,5.65-33.22l10,1.4s-4.13,23.61-5.68,33.47C916.85,226,914.7,249.49,914.7,249.49Z"/><path class="cls-20" d="M1049,203.74l10,1.4s-.07,20.69-1.43,31.8c-1.75,14.35-7.62,32.94-7.62,32.94l-10-1.4s5.63-21.17,7.66-33.19C1049.43,224.65,1049,203.74,1049,203.74Z"/><path class="cls-20" d="M1027.53,199.58l10,1.4s-1.26,23.82-2.41,31.66c-1.46,9.87-6.64,33.08-6.64,33.08l-10-1.4s5.12-23.47,6.67-33.33C1026.37,223.22,1027.53,199.58,1027.53,199.58Z"/><path class="cls-20" d="M1003.73,197.09l10,1.4s-1.26,23.82-2.41,31.66c-1.46,9.87-6.64,33.08-6.64,33.08l-10-1.4s5.12-23.47,6.67-33.33C1002.57,220.74,1003.73,197.09,1003.73,197.09Z"/><path class="cls-20" d="M979.66,194l10,1.4s-1.26,23.82-2.41,31.66c-1.46,9.87-6.64,33.08-6.64,33.08l-10-1.4s5.12-23.47,6.67-33.33C978.5,217.7,979.66,194,979.66,194Z"/><path class="cls-20" d="M958.16,189.88l10,1.4S966,215,964.8,222.8c-1.46,9.87-5.65,33.22-5.65,33.22l-10-1.4s4.13-23.61,5.68-33.47C956,213.39,958.16,189.88,958.16,189.88Z"/><path class="cls-20" d="M934.36,187.39l10,1.4s-2.24,23.68-3.4,31.52c-1.46,9.87-5.65,33.22-5.65,33.22l-10-1.4s4.13-23.61,5.68-33.47C932.22,210.9,934.36,187.39,934.36,187.39Z"/></g><path class="cls-38" d="M866.28,201.39c-2.33,5.56-17.08.85-22.64-1.48s-18.78-8.65-16.45-14.21,18.83-7.09,24.39-4.76S868.61,195.83,866.28,201.39Z"/><ellipse class="cls-17" cx="845.66" cy="191.92" rx="5.69" ry="8.19" transform="translate(342.2 897.97) rotate(-67.29)"/><ellipse class="cls-17" cx="847.55" cy="190.69" rx="5.69" ry="6.81" transform="translate(344.49 898.96) rotate(-67.29)"/><ellipse class="cls-17" cx="848.84" cy="194.05" rx="5.69" ry="6.81" transform="translate(342.19 902.2) rotate(-67.29)"/><ellipse class="cls-17" cx="846.34" cy="193.08" rx="5.69" ry="7.15" transform="translate(341.55 899.31) rotate(-67.29)"/><circle class="cls-18" cx="856.42" cy="191.95" r="0.27" transform="translate(320.26 886.81) rotate(-64.98)"/><circle class="cls-26" cx="838.14" cy="186.7" r="0.39" transform="translate(234.54 797.43) rotate(-57.89)"/><rect class="cls-27" x="847.33" y="181.63" width="2.63" height="1.08" rx="0.54" ry="0.54" transform="translate(52.29 -163.09) rotate(11.32)"/><rect class="cls-27" x="834.98" y="183.78" width="2.63" height="1.08" rx="0.54" ry="0.54" transform="translate(-7.41 331.05) rotate(-22.29)"/><circle class="cls-21" cx="832.59" cy="188.31" r="0.27" transform="translate(309.81 863.12) rotate(-64.98)"/><circle class="cls-18" cx="841.9" cy="183.98" r="0.69" transform="translate(347.22 889.62) rotate(-67.29)"/><ellipse class="cls-21" cx="855.82" cy="199.22" rx="0.44" ry="0.47" transform="translate(-11.6 339.57) rotate(-22.29)"/><ellipse class="cls-23" cx="856.33" cy="188.2" rx="0.42" ry="0.4" transform="translate(-7.38 338.94) rotate(-22.29)"/><circle class="cls-18" cx="834.54" cy="192.13" r="0.69" transform="translate(-10.5 330.97) rotate(-22.29)"/></g><g id="Layer_96" data-name="Layer 96"><g class="cls-35"><path class="cls-39" d="M941,185.45c-4.3,1.76-11.82,5.88-21.56,5-8.89-.83-21.48-12-23-15.13-5.56-11.62,1.91-30.65,7.17-36,4.5-4.56,18.38-4.49,21.19-3.46,2.38.87,11.27,7.4,15,10.76,4.44,4,8.4,9.51,9.27,12.94.76,3,.39,8.58-.87,13.83C946.83,179.21,944.17,184.15,941,185.45Z"/><path class="cls-40" d="M914.83,184.55c-2.74-.2-9.49-3.06-12.64-6.89-3.37-4.1-3.65-13.5-3.59-15.6.21-7.89,5.25-20.95,9.47-22.46,3.61-1.29,11.59-.5,15,2.44,1.15,1,2.86,8.62,3.5,11.6.78,3.62,1.15,8.68,1.5,11.92.2,1.87.59,11.05-1.48,13.6C924.28,182,916.85,184.7,914.83,184.55Z"/><ellipse class="cls-41" cx="935.8" cy="161.56" rx="6.13" ry="8.83" transform="translate(-11 235.02) rotate(-14.23)"/><ellipse class="cls-41" cx="938.08" cy="162.39" rx="6.13" ry="7.33" transform="translate(-11.13 235.61) rotate(-14.23)"/><ellipse class="cls-41" cx="936.03" cy="165.67" rx="6.13" ry="7.33" transform="translate(-12 235.2) rotate(-14.23)"/><ellipse class="cls-41" cx="935.25" cy="162.9" rx="6.13" ry="7.7" transform="translate(-11.34 234.93) rotate(-14.23)"/><circle class="cls-42" cx="942.74" cy="170.84" r="0.29" transform="translate(-14.96 198.33) rotate(-11.92)"/><circle class="cls-27" cx="935.44" cy="151.7" r="0.42" transform="translate(-9.45 79.32) rotate(-4.83)"/><rect class="cls-20" x="934.4" y="147.52" width="4.03" height="1.66" rx="0.83" ry="0.83" transform="translate(213.11 -464.6) rotate(31.28)"/><rect class="cls-20" x="944.17" y="157.77" width="4.03" height="1.66" rx="0.83" ry="0.83" transform="translate(630.56 -747.38) rotate(61.28)"/><circle class="cls-43" cx="930.45" cy="147.96" r="0.29" transform="matrix(0.98, -0.21, 0.21, 0.98, -10.5, 195.3)"/><circle class="cls-42" cx="940.21" cy="153.18" r="0.74" transform="translate(-8.8 235.85) rotate(-14.23)"/><ellipse class="cls-43" cx="936.09" cy="175.04" rx="0.5" ry="0.47" transform="translate(306.82 889.82) rotate(-59.23)"/><ellipse class="cls-44" cx="945.91" cy="168.34" rx="0.43" ry="0.45" transform="matrix(0.51, -0.86, 0.86, 0.51, 317.37, 894.99)"/><circle class="cls-42" cx="928.42" cy="152.12" r="0.74" transform="translate(322.76 872.04) rotate(-59.23)"/></g><path class="cls-39" d="M1208.86,261.64c1.73,4.32,5.79,11.87,4.81,21.6-.9,8.88-12.2,21.39-15.3,22.84-11.67,5.47-30.64-2.14-35.93-7.45-4.53-4.54-4.35-18.41-3.3-21.22.89-2.37,7.48-11.22,10.87-14.9,4.06-4.41,9.57-8.33,13-9.17,3-.73,8.59-.33,13.82,1C1202.67,255.76,1207.59,258.46,1208.86,261.64Z"/><path class="cls-40" d="M1207.77,287.8c-.22,2.74-3.13,9.46-7,12.58-4.12,3.34-13.53,3.55-15.63,3.48-7.89-.27-20.91-5.41-22.39-9.64-1.26-3.61-.41-11.6,2.55-15,1-1.14,8.65-2.79,11.62-3.41,3.63-.76,8.69-1.09,11.93-1.41,1.88-.19,11.06-.51,13.58,1.59C1205.27,278.34,1207.92,285.78,1207.77,287.8Z"/><ellipse class="cls-17" cx="1184.93" cy="266.66" rx="8.83" ry="6.13" transform="translate(-29.4 290.3) rotate(-13.8)"/><ellipse class="cls-17" cx="1189.05" cy="266.46" rx="7.33" ry="6.13" transform="translate(-29.24 291.28) rotate(-13.8)"/><ellipse class="cls-17" cx="1186.27" cy="267.22" rx="7.7" ry="6.13" transform="translate(-29.5 290.63) rotate(-13.8)"/><circle class="cls-18" cx="1175.44" cy="273.97" r="0.74" transform="translate(332.16 1137.44) rotate(-58.8)"/><ellipse class="cls-17" cx="1185.79" cy="264.38" rx="7.33" ry="6.13" transform="translate(-28.84 290.44) rotate(-13.8)"/><circle class="cls-18" cx="1194.27" cy="259.78" r="0.29" transform="translate(-27.81 242.93) rotate(-11.48)"/><circle class="cls-26" cx="1175.07" cy="266.95" r="0.42" transform="translate(-17.01 90.87) rotate(-4.4)"/><rect class="cls-45" x="1169.72" y="265.12" width="4.03" height="1.66" rx="0.83" ry="0.83" transform="translate(329.59 1122.96) rotate(-58.29)"/><circle class="cls-21" cx="1171.3" cy="271.9" r="0.29" transform="translate(-30.68 238.6) rotate(-11.48)"/><circle class="cls-18" cx="1176.59" cy="262.19" r="0.74" transform="translate(-28.58 288.18) rotate(-13.8)"/><ellipse class="cls-21" cx="1198.41" cy="266.47" rx="0.47" ry="0.5" transform="matrix(0.52, -0.86, 0.86, 0.52, 349.64, 1153.48)"/></g><g id="Layer_69" data-name="Layer 69"><path class="cls-31" d="M828,203.24c21.89-.47,197.12-2.78,213.31-3.47s131.41.69,146.65.69,112.37.69,116.18,4.16,7.62,15.27,6.67,21.52-1.9,16.66-6.67,18.74-106.65-2.78-128.56-2.08-179,2.08-196.17,2.08S806.11,249,801.34,249s-19,2.08-24.76-.69S769,228.23,769,222.67s5.08-13.56,8.78-16.1S806,203.71,828,203.24Z"/><g class="cls-46"><path class="cls-20" d="M813.43,267.64H794s-5.84-33.17-5.72-44.23c.15-13.93,5.72-47,5.72-47h19.41s-5.59,31.51-5.72,47.36C807.54,244,813.43,267.64,813.43,267.64Z"/><path class="cls-20" d="M855.31,269.25H835.9S832,236.08,832.09,225c.15-13.93,3.82-47,3.82-47h19.41s-3.49,33.44-3.82,47.36C851.24,236.34,855.31,269.25,855.31,269.25Z"/><path class="cls-20" d="M901.11,268.09H881.7s-3.93-33.17-3.82-44.23c.15-13.93,3.82-47,3.82-47h19.41s-3.49,33.44-3.82,47.36C897,235.18,901.11,268.09,901.11,268.09Z"/><path class="cls-20" d="M947.56,267.64H928.15s-3.93-33.17-3.82-44.23c.15-13.93,3.82-47,3.82-47h19.41s-3.49,33.44-3.82,47.36C943.49,234.73,947.56,267.64,947.56,267.64Z"/><path class="cls-20" d="M989.44,269.25H970s-2-33.17-1.91-44.23c.15-13.93,1.91-47,1.91-47h19.41s-1.58,33.44-1.91,47.36C987.28,236.34,989.44,269.25,989.44,269.25Z"/><path class="cls-20" d="M1035.24,268.09h-19.41s-2-33.17-1.91-44.23c.15-13.93,1.91-47,1.91-47h19.41s-1.58,33.44-1.91,47.36C1033.08,235.18,1035.24,268.09,1035.24,268.09Z"/><path class="cls-20" d="M1277.87,178.9h19.41s5.35,28.62,5.72,44.23c.48,20.18-5.72,47-5.72,47h-19.41s5.06-30.36,5.72-47.36C1284.19,207.72,1277.87,178.9,1277.87,178.9Z"/><path class="cls-20" d="M1236,177.29h19.41s3.93,33.17,3.82,44.23c-.15,13.93-3.82,47-3.82,47H1236s3.49-33.44,3.82-47.36C1240.06,210.21,1236,177.29,1236,177.29Z"/><path class="cls-20" d="M1190.19,178.45h19.41s3.93,33.17,3.82,44.23c-.15,13.93-3.82,47-3.82,47h-19.41s3.49-33.44,3.82-47.36C1194.26,211.37,1190.19,178.45,1190.19,178.45Z"/><path class="cls-20" d="M1143.74,178.9h19.41s3.93,33.17,3.82,44.23c-.15,13.93-3.82,47-3.82,47h-19.41s3.49-33.44,3.82-47.36C1147.81,211.82,1143.74,178.9,1143.74,178.9Z"/><path class="cls-20" d="M1101.86,177.29h19.41s2,33.17,1.91,44.23c-.15,13.93-1.91,47-1.91,47h-19.41s1.58-33.44,1.91-47.36C1104,210.21,1101.86,177.29,1101.86,177.29Z"/><path class="cls-20" d="M1056.06,178.45h19.41s2,33.17,1.91,44.23c-.15,13.93-1.91,47-1.91,47h-19.41s1.58-33.44,1.91-47.36C1058.23,211.37,1056.06,178.45,1056.06,178.45Z"/></g><g id="Layer_71" data-name="Layer 71"><ellipse class="cls-19" cx="826.08" cy="234.16" rx="15.18" ry="5.97"/><ellipse class="cls-19" cx="829.37" cy="238.39" rx="15.18" ry="5.97"/><ellipse class="cls-19" cx="821.84" cy="240.75" rx="15.18" ry="5.97"/><ellipse class="cls-19" cx="928.3" cy="208.46" rx="15.18" ry="5.97"/><ellipse class="cls-19" cx="934.41" cy="209.58" rx="15.18" ry="5.97"/><ellipse class="cls-19" cx="925.26" cy="212.05" rx="15.18" ry="5.97"/><ellipse class="cls-19" cx="1034.55" cy="234.82" rx="15.18" ry="5.97"/><ellipse class="cls-19" cx="1042.77" cy="234.71" rx="15.18" ry="5.97"/><ellipse class="cls-19" cx="1034.01" cy="236.98" rx="15.18" ry="5.97"/><ellipse class="cls-19" cx="1176.97" cy="216.23" rx="15.18" ry="5.97"/><ellipse class="cls-19" cx="1180.27" cy="220.46" rx="15.18" ry="5.97"/><ellipse class="cls-19" cx="1185.29" cy="215.64" rx="15.18" ry="5.97"/><ellipse class="cls-19" cx="1276.46" cy="238.35" rx="15.18" ry="5.97"/><ellipse class="cls-19" cx="1273.17" cy="234.12" rx="15.18" ry="5.97"/><ellipse class="cls-19" cx="1280.69" cy="231.77" rx="15.18" ry="5.97"/><rect class="cls-47" x="1082.23" y="202.53" width="23.22" height="8.51" rx="3.87" ry="3.87"/><rect class="cls-47" x="904.22" y="234.82" width="23.99" height="10.06" rx="3.87" ry="3.87"/><rect class="cls-47" x="856.67" y="218.97" width="23.99" height="10.06" rx="3.87" ry="3.87"/></g><g id="Layer_70" data-name="Layer 70"><path class="cls-25" d="M1012,198.48c.44,7.33-18.23,10.09-25.56,10.53s-25.18.61-25.62-6.72S977.65,184.42,985,184,1011.59,191.15,1012,198.48Z"/><ellipse class="cls-17" cx="984.4" cy="199.19" rx="9.98" ry="6.93" transform="translate(-10.14 59.13) rotate(-3.42)"/><ellipse class="cls-17" cx="985.81" cy="196.83" rx="8.29" ry="6.93" transform="translate(-9.99 59.21) rotate(-3.42)"/><ellipse class="cls-17" cx="989.01" cy="199.81" rx="8.29" ry="6.93" transform="translate(-10.16 59.4) rotate(-3.42)"/><ellipse class="cls-17" cx="985.76" cy="200.09" rx="8.71" ry="6.93" transform="translate(-10.19 59.21) rotate(-3.42)"/><circle class="cls-18" cx="996.18" cy="193.44" r="0.32" transform="translate(-3.55 19.28) rotate(-1.11)"/><circle class="cls-26" cx="973.37" cy="197.5" r="0.47" transform="translate(675.56 1145.01) rotate(-84.02)"/><rect class="cls-27" x="980.83" y="186.26" width="3.2" height="1.32" rx="0.66" ry="0.66" transform="translate(-15.15 257.23) rotate(-14.8)"/><rect class="cls-27" x="968.46" y="195.24" width="3.2" height="1.32" rx="0.66" ry="0.66" transform="translate(179.76 791.56) rotate(-48.42)"/><circle class="cls-21" cx="968.16" cy="202.24" r="0.32" transform="translate(-3.73 18.74) rotate(-1.11)"/><circle class="cls-18" cx="976.02" cy="192.51" r="0.84" transform="translate(-9.75 58.61) rotate(-3.42)"/><ellipse class="cls-21" cx="999.42" cy="201.72" rx="0.53" ry="0.57" transform="translate(185.28 815.49) rotate(-48.42)"/><ellipse class="cls-23" cx="994.07" cy="189.39" rx="0.51" ry="0.49" transform="translate(192.7 807.33) rotate(-48.42)"/><circle class="cls-18" cx="972.35" cy="205.38" r="0.84" transform="translate(173.43 796.46) rotate(-48.42)"/><g class="cls-35"><path class="cls-25" d="M1242.82,157.22c1.44,7.2-16.67,12.49-23.87,13.93s-24.86,4.05-26.3-3.15,14.19-20,21.39-21.43S1241.39,150,1242.82,157.22Z"/><ellipse class="cls-17" cx="1215.55" cy="161.71" rx="9.98" ry="6.93" transform="translate(-8.13 241.18) rotate(-11.29)"/><ellipse class="cls-17" cx="1216.62" cy="159.18" rx="8.29" ry="6.93" transform="translate(-7.62 241.34) rotate(-11.29)"/><ellipse class="cls-17" cx="1220.2" cy="161.7" rx="8.29" ry="6.93" transform="translate(-8.04 242.09) rotate(-11.29)"/><ellipse class="cls-17" cx="1217.02" cy="162.42" rx="8.71" ry="6.93" transform="translate(-8.24 241.48) rotate(-11.29)"/><circle class="cls-18" cx="1226.43" cy="154.41" r="0.32" transform="translate(-9.07 193.27) rotate(-8.98)"/><circle class="cls-26" cx="1204.39" cy="161.56" r="0.47" transform="translate(-4.68 39.87) rotate(-1.89)"/><rect class="cls-27" x="1210.32" y="149.17" width="3.2" height="1.32" rx="0.66" ry="0.66" transform="translate(35.91 478.78) rotate(-22.67)"/><rect class="cls-27" x="1199.3" y="159.76" width="3.2" height="1.32" rx="0.66" ry="0.66" transform="translate(401.03 1070.42) rotate(-56.29)"/><circle class="cls-21" cx="1199.88" cy="166.97" r="0.32" transform="translate(-11.36 189.29) rotate(-8.98)"/><circle class="cls-18" cx="1206.34" cy="156.25" r="0.84" transform="translate(-7.24 239.27) rotate(-11.29)"/><ellipse class="cls-21" cx="1230.78" cy="162.17" rx="0.53" ry="0.57" transform="matrix(0.55, -0.83, 0.83, 0.55, 412.87, 1096.05)"/><ellipse class="cls-23" cx="1223.79" cy="150.69" rx="0.51" ry="0.49" transform="translate(419.31 1085.13) rotate(-56.29)"/><circle class="cls-18" cx="1204.46" cy="169.5" r="0.84" transform="translate(395.06 1077.42) rotate(-56.29)"/></g><path class="cls-25" d="M1086.49,242.8c.26-3.6,29.86-7.3,36.7-6.88s23.42,2.28,23,9.13-31.54,12-38.39,11.62S1086,249.64,1086.49,242.8Z"/><ellipse class="cls-17" cx="1124.01" cy="245.26" rx="6.47" ry="9.33" transform="translate(810.18 1352.08) rotate(-86.48)"/><ellipse class="cls-17" cx="1122.44" cy="247.29" rx="6.47" ry="7.75" transform="translate(806.68 1352.41) rotate(-86.48)"/><ellipse class="cls-17" cx="1119.8" cy="244.16" rx="6.47" ry="7.75" transform="translate(807.32 1346.85) rotate(-86.48)"/><ellipse class="cls-17" cx="1122.84" cy="244.27" rx="6.47" ry="8.14" transform="translate(810.07 1349.99) rotate(-86.48)"/><circle class="cls-18" cx="1112.43" cy="249.25" r="0.3" transform="translate(751.33 1330.57) rotate(-84.16)"/><circle class="cls-18" cx="1100.55" cy="242.62" r="0.3" transform="matrix(0.1, -0.99, 0.99, 0.1, 747.26, 1312.79)"/><circle class="cls-18" cx="1089.67" cy="243.8" r="0.3" transform="translate(736.31 1303.03) rotate(-84.16)"/><circle class="cls-18" cx="1105.53" cy="253.44" r="0.3" transform="matrix(0.1, -0.99, 0.99, 0.1, 740.97, 1327.46)"/><circle class="cls-26" cx="1134.05" cy="248.07" r="0.44" transform="translate(638.66 1297.92) rotate(-77.08)"/><rect class="cls-27" x="1100.99" y="247.84" width="2.99" height="1.23" rx="0.62" ry="0.62" transform="translate(2228.59 343.81) rotate(172.14)"/><rect class="cls-27" x="1106.15" y="238.58" width="2.99" height="1.23" rx="0.62" ry="0.62" transform="translate(2095.93 -315.23) rotate(138.52)"/><circle class="cls-21" cx="1139.41" cy="244.26" r="0.3" transform="translate(780.54 1352.92) rotate(-84.16)"/><circle class="cls-18" cx="1131.28" cy="238.83" r="0.78" transform="translate(823.42 1353.3) rotate(-86.48)"/><ellipse class="cls-21" cx="1110.36" cy="241.21" rx="0.5" ry="0.53" transform="translate(118.71 795.93) rotate(-41.48)"/><ellipse class="cls-23" cx="1113.93" cy="253.25" rx="0.47" ry="0.46" transform="translate(111.64 801.32) rotate(-41.48)"/><ellipse class="cls-23" cx="1095.14" cy="243.49" rx="0.47" ry="0.46" transform="translate(113.39 786.43) rotate(-41.48)"/><ellipse class="cls-23" cx="1097.88" cy="251.27" rx="0.47" ry="0.46" transform="translate(108.92 790.19) rotate(-41.48)"/><circle class="cls-18" cx="1135.88" cy="240.88" r="0.78" transform="translate(125.34 812.75) rotate(-41.48)"/></g></g><path class="cls-48" d="M704.14,218h-5.41a1.8,1.8,0,0,0,0,3.5h5.46Z"/><ellipse class="cls-31" cx="704.09" cy="219.75" rx="1.42" ry="1.75"/><g id="Layer_90" data-name="Layer 90"><path class="cls-27" d="M436.64,156.54l.76-3.85A15,15,0,0,1,455,140.86l13.34,2.62a15,15,0,0,1,11.83,17.59l-.76,3.85Z"/><path class="cls-49" d="M452.12,144.51a11,11,0,0,1,2.12.21l13.34,2.62a11.1,11.1,0,0,1,8.73,13h0l-35.06-6.87a11.11,11.11,0,0,1,10.87-8.93m0-7.85h0a19,19,0,0,0-18.57,15.28L432,159.64l7.71,1.51L474.8,168l7.71,1.51,1.51-7.71a18.94,18.94,0,0,0-14.92-22.2L455.75,137a18.91,18.91,0,0,0-3.63-.35Z"/><path class="cls-27" d="M538.31,161.26a15,15,0,0,1,11.82-17.59l13.35-2.62a15,15,0,0,1,17.59,11.83l.76,3.85-42.76,8.38Z"/><path class="cls-49" d="M566.35,144.7a11.11,11.11,0,0,1,10.87,8.93l-35.06,6.87a11.1,11.1,0,0,1,8.73-13l13.34-2.62a11,11,0,0,1,2.12-.21m0-7.85a18.91,18.91,0,0,0-3.63.35l-13.34,2.62A18.95,18.95,0,0,0,534.45,162l1.51,7.71,7.71-1.51,35.06-6.87,7.71-1.51-1.51-7.71a19,19,0,0,0-18.57-15.28Z"/><path class="cls-49" d="M522.89,254.07H498.55c-14.35,0-32.62-27-32.62-41.32V170.87A26.17,26.17,0,0,1,492,144.77h37.39a26.17,26.17,0,0,1,26.09,26.09v41.88C555.5,227.1,537.24,254.07,522.89,254.07Z"/><ellipse class="cls-27" cx="509.91" cy="259.56" rx="31.5" ry="14.43"/><rect class="cls-50" x="467.89" y="229.05" width="83.81" height="35.92" rx="17.96" ry="17.96"/><path class="cls-27" d="M490.67,244.43A11.41,11.41,0,1,1,502.08,233,11.42,11.42,0,0,1,490.67,244.43Z"/><path class="cls-50" d="M490.67,224.33A8.69,8.69,0,1,1,482,233a8.69,8.69,0,0,1,8.69-8.69m0-5.44A14.13,14.13,0,1,0,504.8,233a14.14,14.14,0,0,0-14.13-14.13Z"/><path class="cls-27" d="M530.39,245.36A11.41,11.41,0,1,1,541.8,234,11.42,11.42,0,0,1,530.39,245.36Z"/><path class="cls-50" d="M530.39,225.27A8.69,8.69,0,1,1,521.7,234a8.69,8.69,0,0,1,8.69-8.69m0-5.44A14.13,14.13,0,1,0,544.52,234a14.14,14.14,0,0,0-14.13-14.13Z"/><circle class="cls-51" cx="485.08" cy="193.14" r="4.81"/><circle class="cls-51" cx="533.49" cy="192.33" r="4.81"/><path class="cls-50" d="M485,145.41c0-6.26,6.78-11.34,17.31-11.34s15.55,5.08,15.55,11.34"/><path class="cls-50" d="M503.4,145.22c0-6.26,6.32-11.34,14.11-11.34s14.11,5.08,14.11,11.34"/><path class="cls-50" d="M485.28,145.27s15.72,3.26,19.55,19.93c0,0,4.22-11.12-1.53-22.23"/><path class="cls-50" d="M502.73,145.65s11.12,4.79,12.65,12.27c0,0,6.9-10.35,3.64-15.91"/><path class="cls-50" d="M517.48,144.7S528.6,148,528.6,159.84c0,0,3.2-2.21,3.2-14.64"/><line class="cls-52" x1="559.1" y1="216.33" x2="637.17" y2="155.6"/><line class="cls-53" x1="608.52" y1="178.27" x2="631.93" y2="159.64"/><ellipse class="cls-54" cx="618.9" cy="160.69" rx="7.44" ry="7.83"/><ellipse class="cls-54" cx="629.05" cy="171.73" rx="7.44" ry="7.83"/><rect class="cls-55" x="632.9" y="151.68" width="10.86" height="5.16" rx="2.58" ry="2.58" transform="translate(341.94 -431.75) rotate(49.58)"/></g><g id="Layer_93" data-name="Layer 93"><g class="cls-28"><path class="cls-54" d="M624,192.11c1,23.65,23.83,34.55,46.45,32.5"/><path class="cls-55" d="M685.38,221.27c-6.5,4.09-14.31,10.38-18.75,16.24l1.8-12.7-6.74-10.91C668.11,217.5,677.78,220.13,685.38,221.27Z"/></g><g class="cls-28"><circle class="cls-56" cx="701.68" cy="220.4" r="9.24"/></g><line class="cls-57" x1="712.23" y1="210.73" x2="747.72" y2="189.88"/><line class="cls-57" x1="711.89" y1="227.76" x2="747.72" y2="250.98"/><g class="cls-28"><line class="cls-54" x1="837.79" y1="484.13" x2="778.05" y2="548.69"/><path class="cls-55" d="M765.06,562.73c3.66-8.87,7.06-20.94,7.34-30.12l7.36,14.24,14.76,6.23C785.39,554.07,773.62,558.39,765.06,562.73Z"/></g><g class="cls-28"><line class="cls-54" x1="917.98" y1="487.06" x2="982.55" y2="546.81"/><path class="cls-55" d="M996.59,559.8c-8.87-3.66-20.94-7.06-30.12-7.34l14.24-7.36,6.23-14.76C987.92,539.47,992.25,551.24,996.59,559.8Z"/></g></g></g></g></svg>