<?xml version="1.0" encoding="utf-8"?>
<!-- Generator: Adobe Illustrator 21.0.2, SVG Export Plug-In . SVG Version: 6.00 Build 0)  -->
<svg version="1.1" id="Layer_1" xmlns="http://www.w3.org/2000/svg" xmlns:xlink="http://www.w3.org/1999/xlink" x="0px" y="0px"
	 viewBox="0 0 1757.3 769.2" style="enable-background:new 0 0 1757.3 769.2;" xml:space="preserve">
<style type="text/css">
	.st0{fill:#F0F0F0;}
	.st1{fill:#D04448;}
	.st2{fill:#E4E4E4;}
</style>
<g id="Layer4">
	<path class="st0" d="M1443.2,407l7.4,35.3l-17.6-32.9c-3.2,0.9-0.8,0.7-4.2,1.6c-18.2,5-38.1,10-38.1,10s6.8,16.2,15,36.4
		c9.9,24.3,22,54.3,27.1,68.9c8.4,24.1,28.1,48.2,31.2,51.3c4.8,4.7,20.4,11,27.8,10.6c7.3-0.4,101.6-34.8,101.6-34.8
		s-33-25.1-43.4-55.7c-10-29.2-35.1-119.3-35.1-119.3s-27.3,12.3-46.3,19.5l5.5,31.9l-12.3-31c-0.8,0.3-1.1,0.7-4.6,2.7
		c-0.5,0.3,3.2-2.1-0.5,0.5l10.6,44.1l-19.2-41.5"/>
	<path class="st0" d="M378.8,38.9l12.6,14.2L382.2,36c2.5-2.1,5.2-4.4,7.9-6.8c14.3-12.4,29.6-26.1,29.6-26.1s9.7,14.7,21.9,32.8
		c14.6,21.8,32.8,48.5,42.1,60.9c15.4,20.4,24.4,50.2,25.2,54.5c1.2,6.6-2.3,23-6.7,29c-4.4,5.9-85.5,64.9-85.5,64.9
		s-2.5-41.4-22-67.1c-18.7-24.6-79.5-95.6-79.5-95.6s33.1-21.1,49.7-32.8L377,63.5l-8.6-16.3c0.7-0.5,1.3-0.9,1.8-1.4
		c0.4-0.3,0.9-0.7,1.4-1.1l13.1,14.8l-9.1-17.3"/>
	<path class="st0" d="M162.3,631.3l19,0.2l-18.9,4.4c0,3.3,0.1,6.8,0.1,10.4c0,18.9-0.3,39.4-0.3,39.4s17.4-2.3,39.1-5
		c26-3.2,58.2-7.1,73.6-8.2c25.5-1.8,53.9-14.5,57.6-16.8c5.8-3.4,15.9-16.8,17.5-24.1c0.5-2.5-0.1-16-1.3-32.6
		c-0.1-1.8-40.9,3.5-41.1,1.6c0-0.7,40.6-8.5,40.5-9.2c-0.2-3.5-0.5-7.1-0.8-10.7c-0.1-1-49.9,9.2-50,8.2
		c-0.1-1.3,49.6-13.7,49.5-15c-0.1-1.7-0.3-3.4-0.4-5.1c-0.1-1.2-40.5,6.7-40.6,5.5c-0.1-1.4,40.1-11.8,40-13.2
		c-1.6-20.1-3-36.5-3-36.5S310,549.9,277.7,552c-30.8,2-124.3,2.7-124.3,2.7s5.8,38.8,7.9,59l18.3,0.2l-17.9,4.2
		c0.1,0.8,0.1,1.6,0.2,2.3c0,0.5,0.1,1.1,0.1,1.7l19.8,0.2l-19,4.4"/>
	<path class="st0" d="M590.4,298.8l-0.1,11.3l-2.6-11.3c-2,0-4.1,0-6.2,0c-11.3,0-23.5-0.2-23.5-0.2s1.4,10.4,3,23.3
		c1.9,15.5,4.2,34.7,4.9,43.9c1.1,15.2,8.7,32.1,10,34.3c2.1,3.4,10,9.5,14.4,10.4c4.3,0.9,63.8-4.2,63.8-4.2s-15.1-19.6-16.3-38.8
		c-1.2-18.3-1.6-74.1-1.6-74.1s-23.1,3.5-35.2,4.7l-0.1,10.9l-2.5-10.7c-0.5,0-0.9,0.1-1.3,0.1c-0.3,0-0.7,0-1,0.1l-0.1,11.8
		l-2.6-11.3"/>
	<path class="st0" d="M454.2,606.4"/>
	<path class="st0" d="M455.6,603.6c-0.1,0.3-0.3,0.5-0.4,0.7s-0.2,0.4-0.3,0.5"/>
	<path class="st0" d="M453.2,607.7"/>
	<path class="st0" d="M744.1,387.7"/>
	<path class="st0" d="M743.4,385.3c0.1,0.2,0.1,0.4,0.2,0.6c0,0.2,0.1,0.3,0.1,0.5"/>
	<path class="st0" d="M744.2,389"/>
	<path class="st0" d="M771.5,711l-9.1-6.7l10.7,4.5c1.2-1.6,2.4-3.3,3.6-5c6.6-9.2,13.9-19,13.9-19s-9.3-4.9-20.7-11.1
		c-13.7-7.5-30.7-16.8-38.5-21.6c-13-8-31.2-11.6-33.7-11.9c-4-0.3-13.5,2.6-16.8,5.6c-3.2,3-33.8,54.3-33.8,54.3s24.7-0.9,41,9.4
		c15.6,9.7,61.2,41.9,61.2,41.9s10.6-20.8,16.7-31.3l-8.8-6.4l10.2,4.2c0.3-0.4,0.4-0.8,0.7-1.1c0.2-0.2,0.4-0.6,0.5-0.9l-9.5-7
		l10.7,4.5"/>
	<path class="st0" d="M787.3,658.7"/>
	<path class="st0" d="M789.7,659.6c-0.2,0-0.4-0.2-0.6-0.2c-0.2-0.1-0.3-0.1-0.5-0.2"/>
	<path class="st0" d="M786.2,658"/>
	<g>
		<polygon class="st1" points="1547.9,564.8 1537.3,552.7 1569.6,539.4 1580.2,551.5 		"/>
		<path class="st2" d="M1459.9,573.6l25.9-5.9l5.8,20.7c0,0-3.8,1.3-17.1-4.9C1466.1,579.7,1459.9,573.6,1459.9,573.6z"/>
	</g>
	<path class="st0" d="M1481.3,204.8c-2.3-1.9-4.8-3.8-7.4-5.8c-13.5-10.5-13.5-12.2-13.5-12.2s-49.8,4.2-39.7-14.4
		c11.2-20.9,37.3-37.6,46.7-48.1c15.4-17.2,24.8-27.9,27.7-30.6c10.2-9.6,22.1-13.6,22.7-13.4c6.1,2.4,73.7,64.5,73.7,64.5
		s-16.8,22.4-36.2,44.2c-18.5,20.9-33.8,56.6-33.8,56.6s-11.4-15.2-24.7-27.9"/>
	<path class="st2" d="M1420.8,181.7c0,0,77.2,75.5,77.5,75.7c15.3,10.6,40.2,2.1,40.2,2.1l-83.6-86.8
		C1454.8,172.7,1443.8,191.1,1420.8,181.7z"/>
	<path class="st0" d="M1092.8,50.3c1.3,2.7,2.6,5.6,4,8.5c7.4,15.4,6.7,16.9,6.7,16.9s46.5,18.3,29.2,30.6
		c-19.3,13.8-41.9,22-54.9,27.2c-21.5,8.6-50,13.5-53.7,14.7c-13.4,4.1-22.8,24.6-23.2,24.2c-4.4-5-55.9-102.6-55.9-102.6
		s47.6-27.3,74.7-38.2c25.9-10.5,55.5-35.7,55.5-35.7s3.5,18.7,9.8,36"/>
	<path class="st2" d="M1136.8,97.9c0,0-35.7-101.9-35.8-102.3c-9-16.3-35-19.7-35-19.7l36.4,114.9
		C1102.3,90.8,1120.3,79.3,1136.8,97.9z"/>
	<path class="st0" d="M195.3,155.5c-3-0.4-6.1-0.9-9.3-1.4c-16.9-2.6-18.1-1.5-18.1-1.5s-30.9-39.2-37.7-19.1
		c-7.6,22.5-1.9,53-3.2,66.9c-2,23-3.4,37.2-3.4,41.1c-0.1,14,15.5,27.7,23.3,27.5c6.6-0.1,84.2,7.2,84.2,7.2s-9.3-13.5-5.9-36.4
		c3.7-25,27.3-83.1,27.3-83.1s-18.9,2-37.3,1"/>
	<path class="st2" d="M137,127.2c0,0,107.9,4.7,108.2,4.8c18.2,3.9,29,27.9,29,27.9l-120.5-1.7C153.7,158.2,159.6,137.6,137,127.2z"
		/>
	<polygon class="st1" points="343.7,97.3 333.1,85.2 363.3,67.2 373.9,79.3 	"/>
</g>
</svg>
