<?xml version="1.0" encoding="utf-8"?>
<!-- Generator: Adobe Illustrator 21.0.2, SVG Export Plug-In . SVG Version: 6.00 Build 0)  -->
<svg version="1.1" id="Layer_1" xmlns="http://www.w3.org/2000/svg" xmlns:xlink="http://www.w3.org/1999/xlink" x="0px" y="0px"
	 viewBox="0 0 1757.3 769.2" style="enable-background:new 0 0 1757.3 769.2;" xml:space="preserve">
<style type="text/css">
	.st0{fill:#F4CAC3;}
	.st1{fill:#F2BCB1;}
	.st2{fill:#B7B5C1;}
	.st3{fill:#D1D0D6;}
	.st4{fill:#9EA5B6;}
	.st5{fill:#F4A08C;}
	.st6{fill:#E4E4E4;}
</style>
<g id="Layer2">
	<polygon class="st0" points="1247.8,674.7 818,674.3 821,292.7 885.9,292.7 950.5,292.7 1011.1,292.7 1202.9,292.7 1191.8,292.7 
		1247.8,292.7 	"/>
	<polygon class="st1" points="1361.9,680.1 1220.7,680.1 1221.2,298.1 1361.9,298.1 	"/>
	<polygon class="st2" points="1212.8,288.8 1349.4,288.8 1304,207.9 1212.8,207.1 	"/>
	<path class="st3" d="M1210.3,216h97.3c4.6,0,8.3-3.7,8.3-8.3l0,0c0-4.6-3.7-8.3-8.3-8.3h-97.3c-4.6,0-8.3,3.7-8.3,8.3l0,0
		C1202,212.2,1205.8,216,1210.3,216z"/>
	<path class="st3" d="M1213.8,298.7H1349c4.6,0,8.3-3.7,8.3-8.3l0,0c0-4.6-3.7-8.3-8.3-8.3h-135.2c-4.6,0-8.3,3.7-8.3,8.3l0,0
		C1205.5,295,1209.2,298.7,1213.8,298.7z"/>
	<polygon class="st4" points="1223.1,288.8 816.2,288.8 861.6,207.9 1213.2,207.1 	"/>
	<path class="st2" d="M1211.3,216H862.5c-4.5,0-8.2-3.7-8.2-8.2v-0.3c0-4.5,3.7-8.2,8.2-8.2h348.8c4.5,0,8.2,3.7,8.2,8.2v0.3
		C1219.4,212.3,1215.7,216,1211.3,216z"/>
	<path class="st2" d="M1223,298.7H823.2c-4.5,0-8.2-3.7-8.2-8.2v-0.2c0-4.5,3.7-8.2,8.2-8.2H1223c4.5,0,8.2,3.7,8.2,8.2v0.2
		C1231.2,295,1227.5,298.7,1223,298.7z"/>
	<g>
		<polyline class="st1" points="915.6,372.2 859.1,372.2 859.1,317.5 915.6,317.5 		"/>
		<path class="st5" d="M915.6,372.2v-47.1"/>
		<rect x="870.7" y="323.9" class="st4" width="44.6" height="52.9"/>
		<rect x="853.5" y="371.9" class="st1" width="62.4" height="6.1"/>
		<rect x="883.8" y="324" class="st1" width="2.7" height="47.7"/>
		<polygon class="st1" points="870.7,347.2 870.7,350 915.7,350 915.7,347.3 		"/>
		<rect x="900.4" y="324" class="st1" width="2.7" height="47.7"/>
	</g>
	<g>
		<polyline class="st1" points="1005.8,372.2 949.3,372.2 949.3,317.5 1005.8,317.5 		"/>
		<path class="st5" d="M1005.8,372.2v-47.1"/>
		<rect x="960.9" y="323.9" class="st4" width="44.6" height="52.9"/>
		<rect x="943.7" y="371.9" class="st1" width="62.4" height="6.1"/>
		<rect x="974.1" y="324" class="st1" width="2.7" height="47.7"/>
		<polygon class="st1" points="960.9,347.2 960.9,350 1005.9,350 1005.9,347.3 		"/>
		<rect x="990.6" y="324" class="st1" width="2.7" height="47.7"/>
	</g>
	<g>
		<polyline class="st1" points="1186.2,372.2 1129.7,372.2 1129.7,317.5 1186.2,317.5 		"/>
		<path class="st5" d="M1186.2,372.2v-47.1"/>
		<rect x="1141.3" y="323.9" class="st4" width="44.6" height="52.9"/>
		<rect x="1124.1" y="371.9" class="st1" width="62.4" height="6.1"/>
		<rect x="1154.5" y="324" class="st1" width="2.7" height="47.7"/>
		<polygon class="st1" points="1141.3,347.2 1141.3,350 1186.3,350 1186.3,347.3 		"/>
		<rect x="1171" y="324" class="st1" width="2.7" height="47.7"/>
	</g>
	<g>
		<polyline class="st1" points="914.8,522.5 858.3,522.5 858.3,417.1 914.8,417.1 		"/>
		<path class="st5" d="M914.8,523.1v-97.3"/>
		<rect x="870" y="423.4" class="st4" width="44.6" height="98.3"/>
		<polygon class="st1" points="915.1,477.6 869.9,477.6 869.9,471.5 915.1,471.5 		"/>
		<rect x="883.1" y="423.5" class="st1" width="2.7" height="98.5"/>
		<polygon class="st1" points="869.9,446.8 869.9,449.5 914.9,449.6 914.9,446.8 		"/>
		<polygon class="st1" points="869.9,496.2 869.9,498.9 915.3,498.9 915.3,496.2 		"/>
		<rect x="899.5" y="423.5" class="st1" width="2.7" height="98.5"/>
		<rect x="844.8" y="522.4" class="st5" width="70.4" height="11.2"/>
		<path class="st5" d="M915.2,522.4"/>
		<path class="st1" d="M866,412.3c0-12.2,9.9-22.1,22.1-22.1c12.2,0,22.1,9.9,22.1,22.1"/>
	</g>
	<g>
		<polyline class="st1" points="912.6,635.2 860.2,635.2 860.2,560.2 912.6,560.2 		"/>
		<rect x="871" y="561.1" class="st4" width="41.4" height="73.3"/>
		<polygon class="st1" points="913,600.7 871,600.7 871,594.6 913,594.6 		"/>
		<rect x="883.1" y="561" class="st1" width="2.5" height="73.7"/>
		<polygon class="st1" points="870.9,613.2 870.9,615.9 913.1,616 913.1,613.3 		"/>
		<polygon class="st1" points="870.7,576 870.7,578.7 912.8,578.8 912.8,576.1 		"/>
		<rect x="898.5" y="561" class="st1" width="2.5" height="73.7"/>
		<path class="st5" d="M913,635.1"/>
	</g>
	<g>
		<polyline class="st1" points="1000,635.2 947.6,635.2 947.6,560.2 1000,560.2 		"/>
		<rect x="958.4" y="561.1" class="st4" width="41.4" height="73.3"/>
		<polygon class="st1" points="1000.4,600.7 958.4,600.7 958.4,594.6 1000.4,594.6 		"/>
		<rect x="970.6" y="561" class="st1" width="2.5" height="73.7"/>
		<polygon class="st1" points="958.3,613.2 958.3,615.9 1000.5,616 1000.5,613.3 		"/>
		<polygon class="st1" points="958.1,576 958.1,578.7 1000.2,578.8 1000.2,576.1 		"/>
		<rect x="985.8" y="561" class="st1" width="2.5" height="73.7"/>
		<path class="st5" d="M1000.4,635.1"/>
	</g>
	<g>
		<polyline class="st1" points="1087.4,635.2 1035,635.2 1035,560.2 1087.4,560.2 		"/>
		<rect x="1045.8" y="561.1" class="st4" width="41.4" height="73.3"/>
		<polygon class="st1" points="1087.8,600.7 1045.8,600.7 1045.8,594.6 1087.8,594.6 		"/>
		<rect x="1058" y="561" class="st1" width="2.5" height="73.7"/>
		<polygon class="st1" points="1045.7,613.2 1045.7,615.9 1087.9,616 1087.9,613.3 		"/>
		<polygon class="st1" points="1045.5,576 1045.5,578.7 1087.6,578.8 1087.6,576.1 		"/>
		<rect x="1073.3" y="561" class="st1" width="2.5" height="73.7"/>
		<path class="st5" d="M1087.8,635.1"/>
	</g>
	<g>
		<polyline class="st1" points="1174.8,635.2 1122.4,635.2 1122.4,560.2 1174.8,560.2 		"/>
		<rect x="1133.1" y="561.1" class="st4" width="41.4" height="73.3"/>
		<polygon class="st1" points="1175.1,600.7 1133.2,600.7 1133.2,594.6 1175.1,594.6 		"/>
		<rect x="1145.4" y="561" class="st1" width="2.5" height="73.7"/>
		<polygon class="st1" points="1133.1,613.2 1133.1,615.9 1175.2,616 1175.2,613.3 		"/>
		<polygon class="st1" points="1132.9,576 1132.9,578.7 1175,578.8 1175,576.1 		"/>
		<rect x="1160.7" y="561" class="st1" width="2.5" height="73.7"/>
		<path class="st5" d="M1175.1,635.1"/>
	</g>
	<g>
		<polyline class="st1" points="1004.3,522.5 947.9,522.5 947.9,417.1 1004.3,417.1 		"/>
		<path class="st5" d="M1004.3,523.1v-97.3"/>
		<rect x="959.5" y="423.4" class="st4" width="44.6" height="98.3"/>
		<polygon class="st1" points="1004.6,477.6 959.4,477.6 959.4,471.5 1004.6,471.5 		"/>
		<rect x="972.6" y="423.5" class="st1" width="2.7" height="98.5"/>
		<polygon class="st1" points="959.4,446.8 959.4,449.5 1004.4,449.6 1004.4,446.8 		"/>
		<polygon class="st1" points="959.4,496.2 959.4,498.9 1004.8,498.9 1004.8,496.2 		"/>
		<rect x="989.1" y="423.5" class="st1" width="2.7" height="98.5"/>
		<rect x="934.3" y="522.4" class="st5" width="70.4" height="11.2"/>
		<path class="st5" d="M1004.7,522.4"/>
		<path class="st1" d="M955.6,412.3c0-12.2,9.9-22.1,22.1-22.1s22.1,9.9,22.1,22.1"/>
	</g>
	<g>
		<polyline class="st1" points="1179.9,522.5 1123.4,522.5 1123.4,417.1 1179.9,417.1 		"/>
		<path class="st5" d="M1179.9,523.1v-97.3"/>
		<rect x="1135" y="423.4" class="st4" width="44.6" height="98.3"/>
		<polygon class="st1" points="1180.2,477.6 1135,477.6 1135,471.5 1180.2,471.5 		"/>
		<rect x="1148.2" y="423.5" class="st1" width="2.7" height="98.5"/>
		<polygon class="st1" points="1135,446.8 1135,449.5 1180,449.6 1180,446.8 		"/>
		<polygon class="st1" points="1135,496.2 1135,498.9 1180.4,498.9 1180.4,496.2 		"/>
		<rect x="1164.7" y="423.5" class="st1" width="2.7" height="98.5"/>
		<rect x="1109.8" y="522.4" class="st5" width="70.4" height="11.2"/>
		<path class="st5" d="M1180.2,522.4"/>
		<path class="st1" d="M1131.1,412.3c0-12.2,9.9-22.1,22.1-22.1s22.1,9.9,22.1,22.1"/>
	</g>
	<g>
		<polyline class="st1" points="1096,372.2 1039.5,372.2 1039.5,317.5 1096,317.5 		"/>
		<path class="st5" d="M1096,372.2v-47.1"/>
		<rect x="1051.1" y="323.9" class="st4" width="44.6" height="52.9"/>
		<rect x="1033.9" y="371.9" class="st1" width="62.4" height="6.1"/>
		<rect x="1064.3" y="324" class="st1" width="2.7" height="47.7"/>
		<polygon class="st1" points="1051.1,347.2 1051.1,350 1096.1,350 1096.1,347.3 		"/>
		<rect x="1080.8" y="324" class="st1" width="2.7" height="47.7"/>
	</g>
	<path class="st1" d="M1095.8,510.6v-97.3"/>
	<path class="st5" d="M1096.2,520.9"/>
	<g>
		<polyline class="st1" points="1095,522.5 1038.5,522.5 1038.5,417.1 1095,417.1 		"/>
		<rect x="1050.1" y="423.4" class="st4" width="44.6" height="98.3"/>
		<polygon class="st1" points="1095.3,477.6 1050.1,477.6 1050.1,471.5 1095.3,471.5 		"/>
		<rect x="1063.3" y="423.5" class="st1" width="2.7" height="98.5"/>
		<polygon class="st1" points="1050.1,446.8 1050.1,449.5 1095.1,449.6 1095.1,446.8 		"/>
		<polygon class="st1" points="1050.1,496.2 1050.1,498.9 1095.5,498.9 1095.5,496.2 		"/>
		<rect x="1079.8" y="423.5" class="st1" width="2.7" height="98.5"/>
		<rect x="1024.9" y="522.4" class="st5" width="70.4" height="11.2"/>
		<path class="st1" d="M1046.2,412.3c0-12.2,9.9-22.1,22.1-22.1s22.1,9.9,22.1,22.1"/>
	</g>
	<polygon class="st0" points="96.8,780.2 -333,779.8 -330,398.2 -265.2,398.2 -200.5,398.2 -139.9,398.2 51.9,398.2 40.7,398.2 
		96.8,398.2 	"/>
	<polygon class="st1" points="199.8,781.4 69.6,781.4 70.1,399.4 199.8,399.4 	"/>
	<polygon class="st2" points="61.7,394.3 198.3,394.3 152.9,313.4 61.7,312.6 	"/>
	<path class="st3" d="M59.3,321.5h97.3c4.6,0,8.3-3.7,8.3-8.3l0,0c0-4.6-3.7-8.3-8.3-8.3H59.3c-4.6,0-8.3,3.7-8.3,8.3l0,0
		C51,317.7,54.7,321.5,59.3,321.5z"/>
	<path class="st3" d="M62.8,404.2H198c4.6,0,8.3-3.7,8.3-8.3l0,0c0-4.6-3.7-8.3-8.3-8.3H62.8c-4.6,0-8.3,3.7-8.3,8.3l0,0
		C54.4,400.5,58.2,404.2,62.8,404.2z"/>
	<polygon class="st4" points="72.1,394.3 -334.8,394.3 -289.4,313.4 62.2,312.6 	"/>
	<path class="st2" d="M60.2,321.5h-348.8c-4.5,0-8.2-3.7-8.2-8.2V313c0-4.5,3.7-8.2,8.2-8.2H60.2c4.5,0,8.2,3.7,8.2,8.2v0.3
		C68.3,317.8,64.7,321.5,60.2,321.5z"/>
	<path class="st2" d="M71.9,404.2h-399.8c-4.5,0-8.2-3.7-8.2-8.2v-0.2c0-4.5,3.7-8.2,8.2-8.2H71.9c4.5,0,8.2,3.7,8.2,8.2v0.2
		C80.2,400.5,76.5,404.2,71.9,404.2z"/>
	<g>
		<polyline class="st5" points="111.1,467.8 167.6,467.8 167.6,413.2 111.1,413.2 		"/>
		<path class="st5" d="M111.1,467.8v-47.1"/>
		<rect x="111.3" y="419.6" class="st4" width="44.6" height="52.9"/>
		<rect x="110.8" y="467.6" class="st5" width="62.4" height="6.1"/>
		<rect x="140.1" y="419.6" class="st1" width="2.7" height="47.7"/>
		<polygon class="st1" points="156,442.9 156,445.6 111,445.7 111,443 		"/>
		<rect x="123.6" y="419.6" class="st1" width="2.7" height="47.7"/>
	</g>
	<g>
		<polyline class="st5" points="111.1,547.7 167.6,547.7 167.6,493 111.1,493 		"/>
		<path class="st5" d="M111.1,547.7v-47.1"/>
		<rect x="111.3" y="499.4" class="st4" width="44.6" height="52.9"/>
		<rect x="110.8" y="547.5" class="st5" width="62.4" height="6.1"/>
		<rect x="140.1" y="499.5" class="st1" width="2.7" height="47.7"/>
		<polygon class="st1" points="156,522.8 156,525.5 111,525.5 111,522.8 		"/>
		<rect x="123.6" y="499.5" class="st1" width="2.7" height="47.7"/>
	</g>
	<g>
		<polyline class="st5" points="111.1,629.6 167.6,629.6 167.6,575 111.1,575 		"/>
		<path class="st5" d="M111.1,629.6v-47.1"/>
		<rect x="111.3" y="581.3" class="st4" width="44.6" height="52.9"/>
		<rect x="110.8" y="629.4" class="st5" width="62.4" height="6.1"/>
		<rect x="140.1" y="581.4" class="st1" width="2.7" height="47.7"/>
		<polygon class="st1" points="156,604.7 156,607.4 111,607.5 111,604.8 		"/>
		<rect x="123.6" y="581.4" class="st1" width="2.7" height="47.7"/>
	</g>
	<g id="Layer_14">
		<path class="st6" d="M1493.5,375.8c0.3,1.4,0.5,3,0.8,4.5c1.4,8.2,2.7,17.2,2.7,17.2s7.4-2.3,16.6-5c11.1-3.3,24.8-7.3,31.4-8.9
			c10.9-2.6,17.6-4.8,19.5-4.8c4.4,0,14.6,7.9,14.8,4.6c0.2-3.2-10.8-46.1-10.8-46.1s-17.1-9.7-30.9-6.4
			c-13.2,3.1-53.9,10.1-53.9,10.1s5.3,16.4,7.7,25.1"/>
		<path class="st6" d="M843.8,439.7c0.1,0.6,0.2,1.3,0.3,1.9c0.6,3.5,1.2,7.3,1.2,7.3s3.2-1,7.1-2.1c4.7-1.4,10.6-3.1,13.4-3.8
			c4.7-1.1,7.5-2,8.3-2c1.9,0,6.2,3.4,6.3,2s-4.6-19.6-4.6-19.6s-7.3-4.1-13.2-2.7c-5.6,1.3-22.9,4.3-22.9,4.3s2.3,7,3.3,10.7"/>
		<path class="st6" d="M579.1,466.8l3.1,2l-3.5-1.2c-0.3,0.5-0.7,1.1-1.1,1.7c-1.9,3.1-4.1,6.4-4.1,6.4s3.1,1.4,6.9,3.2
			c4.6,2.2,10.2,4.9,12.9,6.3c4.4,2.3,10.3,3.2,11.2,3.2c1.3,0,4.3-1.1,5.4-2.1c1-1,9.9-18.3,9.9-18.3s-8,0.7-13.5-2.2
			c-5.2-2.8-20.6-12.4-20.6-12.4s-3.1,6.9-4.8,10.5l3,1.9l-3.4-1.2c-0.1,0.1-0.1,0.3-0.2,0.4c0,0.1-0.1,0.2-0.2,0.3l3.2,2.1
			l-3.6-1.2"/>
	</g>
</g>
<g id="Layer_7">
	<rect x="-19.1" y="672.3" class="st6" width="1791.8" height="125.8"/>
</g>
</svg>
