<?xml version="1.0" encoding="utf-8"?>
<!-- Generator: Adobe Illustrator 21.0.2, SVG Export Plug-In . SVG Version: 6.00 Build 0)  -->
<svg version="1.1" id="Layer_1" xmlns="http://www.w3.org/2000/svg" xmlns:xlink="http://www.w3.org/1999/xlink" x="0px" y="0px"
	 viewBox="0 0 1757.3 769.2" style="enable-background:new 0 0 1757.3 769.2;" xml:space="preserve">
<style type="text/css">
	.st0{fill:#E9967F;}
	.st1{opacity:0.8;}
	.st2{fill:#DD6E54;}
	.st3{fill:#F4A08C;}
	.st4{fill:#DD5847;}
	.st5{fill:#EA3338;}
	.st6{fill:#F24E5A;}
	.st7{opacity:0.7;fill:#DD2634;enable-background:new    ;}
	.st8{fill:#DD2634;}
	.st9{fill:#4D4D4D;}
	.st10{fill:none;stroke:#B72E2F;stroke-width:3.5229;stroke-miterlimit:10;}
	.st11{fill:#E4E4E4;stroke:#D04448;stroke-width:3.5229;stroke-miterlimit:10;}
	.st12{fill:#CACACA;}
	.st13{fill:#B72E2F;}
	.st14{font-family:'Marion-Regular';}
	.st15{font-size:37.9017px;}
	.st16{fill:#333333;}
	.st17{fill:#666666;}
	.st18{fill:#F96E7F;}
	.st19{fill:#A69990;}
	.st20{fill:#58595B;}
	.st21{fill:#9B897C;}
	.st22{fill:#B1B1B1;}
	.st23{fill:#D8D8D8;}
	.st24{fill:#F0F0F0;}
	.st25{fill:#E4E4E4;}
	.st26{fill:#D04448;}
	.st27{display:none;fill:#F0F0F0;}
</style>
<g id="Layer3">
	<rect x="1312.1" y="0.7" class="st0" width="456.2" height="684.3"/>
	<g id="Layer_9" class="st1">
		<rect x="1646.3" y="207.3" class="st2" width="90.2" height="32.9"/>
		<rect x="1332.3" y="42.6" class="st2" width="90.2" height="32.9"/>
		<rect x="1466.4" y="405.9" class="st2" width="90.2" height="32.9"/>
		<rect x="1377.1" y="252.1" class="st3" width="90.2" height="32.9"/>
		<rect x="1593.6" y="57.1" class="st4" width="90.2" height="32.9"/>
		<rect x="1327.8" y="539" class="st4" width="90.2" height="32.9"/>
		<rect x="1724.8" y="370.5" class="st3" width="90.2" height="32.9"/>
	</g>
	<g id="Layer_2">
		<rect x="1042.6" y="356.3" class="st5" width="214" height="261"/>
		<path class="st5" d="M1293,341.2v13.4c0,14.6-27.9,19.5-42.5,19.5H1048c-14.6,0-37.1-4.9-37.1-19.5v-13.4"/>
		<path class="st6" d="M1010.9,341.2c0-7.8,58.4-19.5,73-19.5h136.7c14.6,0,72.3,13.9,72.3,19.5"/>
		<rect x="1042.6" y="373.9" class="st7" width="213.7" height="10.3"/>
		<polygon class="st6" points="1260,429.3 1038.2,429.3 1039.9,425.8 1258.4,425.8 		"/>
		<polygon class="st8" points="1038.2,429.1 1260,429.1 1258.4,432.6 1039.9,432.6 		"/>
		<rect x="1216" y="383.1" class="st7" width="39.9" height="225.9"/>
		<rect x="1036.9" y="608.7" class="st9" width="225.5" height="76.6"/>
		<path class="st6" d="M1142.3,363.9v-9.1c0-2.6,1.7-4.8,3.8-4.8l0,0c2.1,0,3.8,2.2,3.8,4.8v9.1"/>
		<path class="st6" d="M1129.2,363.9v-9.1c0-2.6,1.7-4.8,3.8-4.8l0,0c2.1,0,3.8,2.2,3.8,4.8v9.1"/>
		<path class="st6" d="M1116,363.9v-9.1c0-2.6,1.7-4.8,3.8-4.8l0,0c2.1,0,3.8,2.2,3.8,4.8v9.1"/>
		<path class="st6" d="M1102.9,363.9v-9.1c0-2.6,1.7-4.8,3.8-4.8l0,0c2.1,0,3.8,2.2,3.8,4.8v9.1"/>
		<path class="st6" d="M1089.8,363.4v-9.1c0-2.6,1.7-4.8,3.8-4.8l0,0c2.1,0,3.8,2.2,3.8,4.8v9.1"/>
		<path class="st6" d="M1077.2,363.4v-9.1c0-2.6,1.5-4.8,3.3-4.8l0,0c1.8,0,3.3,2.2,3.3,4.8v9.1"/>
		<path class="st6" d="M1064.8,363.7v-9.1c0-2.6,1.2-4.8,2.6-4.8l0,0c1.4,0,2.6,2.2,2.6,4.8v9.1"/>
		<path class="st6" d="M1051.6,363.7v-9.1c0-2.6,1.2-4.8,2.6-4.8l0,0c1.4,0,2.6,2.2,2.6,4.8v9.1"/>
		<path class="st6" d="M1039.6,363.7v-9.1c0-2.6,0.7-4.8,1.6-4.8l0,0c0.9,0,1.6,2.2,1.6,4.8v9.1"/>
		<path class="st6" d="M1027,363.7v-9.1c0-2.6,0.4-4.8,1-4.8l0,0c0.5,0,1,2.2,1,4.8v9.1"/>
		<path class="st6" d="M1163,363.6v-9.1c0-2.6-1.7-4.8-3.8-4.8l0,0c-2.1,0-3.8,2.2-3.8,4.8v9.1"/>
		<path class="st6" d="M1176.1,363.6v-9.1c0-2.6-1.7-4.8-3.8-4.8l0,0c-2.1,0-3.8,2.2-3.8,4.8v9.1"/>
		<path class="st6" d="M1189.2,363.6v-9.1c0-2.6-1.7-4.8-3.8-4.8l0,0c-2.1,0-3.8,2.2-3.8,4.8v9.1"/>
		<path class="st6" d="M1202.3,363.1V354c0-2.6-1.7-4.8-3.8-4.8l0,0c-2.1,0-3.8,2.2-3.8,4.8v9.1"/>
		<path class="st6" d="M1215,363.1V354c0-2.6-1.5-4.8-3.3-4.8l0,0c-1.8,0-3.3,2.2-3.3,4.8v9.1"/>
		<path class="st6" d="M1227.4,363.4v-9.1c0-2.6-1.2-4.8-2.6-4.8l0,0c-1.4,0-2.6,2.2-2.6,4.8v9.1"/>
		<path class="st6" d="M1240.5,363.4v-9.1c0-2.6-1.2-4.8-2.6-4.8l0,0c-1.4,0-2.6,2.2-2.6,4.8v9.1"/>
		<path class="st6" d="M1252.6,363.4v-9.1c0-2.6-0.7-4.8-1.6-4.8l0,0c-0.9,0-1.6,2.2-1.6,4.8v9.1"/>
		<path class="st6" d="M1265.1,363.4v-9.1c0-2.6-0.4-4.8-1-4.8l0,0c-0.5,0-1,2.2-1,4.8v9.1"/>
		<rect x="1050.7" y="448.3" class="st10" width="197.9" height="150"/>
		<rect x="1071.5" y="457.9" class="st11" width="40.4" height="48.5"/>
		<rect x="1190.7" y="457.9" class="st11" width="40.4" height="48.5"/>
		<rect x="1215.5" y="459.7" class="st12" width="13.9" height="45"/>
		<text transform="matrix(1 0 0 1 1119.5946 581.2248)" class="st13 st14 st15">E R</text>
		<rect x="1210" y="608.6" class="st16" width="52.2" height="76.4"/>
		<path class="st17" d="M1103.3,624.7h-56.6c-2.6,0-4.8-2.2-4.8-4.8l0,0c0-2.6,2.2-4.8,4.8-4.8h56.6c2.6,0,4.8,2.2,4.8,4.8l0,0
			C1108.1,622.6,1105.9,624.7,1103.3,624.7z"/>
		<path class="st18" d="M1126.7,336.6h-58.2c-2.2,0-4-1.8-4-4l0,0c0-2.2,1.8-4,4-4h58.2c2.2,0,4,1.8,4,4l0,0
			C1130.7,334.8,1128.9,336.6,1126.7,336.6z"/>
	</g>
	<g id="Layer_13">
		<rect x="1058.1" y="394" class="st9" width="83.3" height="22.8"/>
		<rect x="1156.7" y="394" class="st9" width="83.3" height="22.8"/>
		<path class="st19" d="M1128.7,417.2c-3-5-14.6-22.9-16.6-25.5c-2.3-3-3.7-7.8-0.6-10.5l1.5-1.2c5.3-3.4,8.1,1.1,10.3,4.2
			c2.5,3.6,25.1,26.6,30.2,33"/>
		<path class="st12" d="M1120.6,376.7L1120.6,376.7c-0.2,0-0.3-0.2-0.3-0.3v-2c0-0.2,0.2-0.3,0.3-0.3l0,0c0.2,0,0.3,0.2,0.3,0.3v2
			C1121,376.5,1120.8,376.7,1120.6,376.7z"/>
		<path class="st12" d="M1114.3,376.4L1114.3,376.4c-0.2,0-0.4-0.1-0.4-0.3l-0.3-2c0-0.2,0.1-0.4,0.3-0.4l0,0c0.2,0,0.4,0.1,0.4,0.3
			l0.3,2C1114.6,376.2,1114.4,376.4,1114.3,376.4z"/>
		<path class="st12" d="M1107.6,380.2L1107.6,380.2c-0.1,0.2-0.3,0.2-0.5,0.1l-1.6-1.2c-0.2-0.1-0.2-0.3-0.1-0.5l0,0
			c0.1-0.2,0.3-0.2,0.5-0.1l1.6,1.2C1107.7,379.8,1107.7,380,1107.6,380.2z"/>
		<path class="st12" d="M1106.7,387.6L1106.7,387.6c0,0.2-0.2,0.3-0.4,0.3l-2-0.4c-0.2,0-0.3-0.2-0.3-0.4l0,0c0-0.2,0.2-0.3,0.4-0.3
			l2,0.4C1106.6,387.2,1106.8,387.4,1106.7,387.6z"/>
		<g>
			<path class="st20" d="M1115.3,384.5L1115.3,384.5c1-0.6,2.3-0.4,2.9,0.6l2,3c0.6,1,0.4,2.3-0.6,2.9l0,0c-1,0.6-2.3,0.4-2.9-0.6
				l-2-3C1114.1,386.4,1114.3,385.1,1115.3,384.5z"/>
			<path class="st20" d="M1114.9,385.6L1114.9,385.6c0.3-1.1,1.4-1.8,2.5-1.5l3.5,0.9c1.1,0.3,1.8,1.4,1.5,2.5l0,0
				c-0.3,1.1-1.4,1.8-2.5,1.5l-3.5-0.9C1115.3,387.9,1114.6,386.7,1114.9,385.6z"/>
			<path class="st20" d="M1115.9,384.6L1115.9,384.6c1.1-0.1,2.1,0.8,2.2,2l0.2,3.6c0.1,1.1-0.8,2.1-2,2.2l0,0
				c-1.1,0.1-2.1-0.8-2.2-2l-0.2-3.6C1113.9,385.6,1114.8,384.7,1115.9,384.6z"/>
		</g>
		<path class="st19" d="M1112.1,391.6l-4.6-1.1c-1.4-0.3-2.3-1.8-2-3.2l0,0c0.3-1.4,1.8-2.3,3.2-2l3.3,0.9"/>
		<path class="st20" d="M1110.8,388.1l-0.1,0.6c-0.1,0.7-0.9,1.2-1.6,1.1l-0.9-0.1c-0.7-0.1-1.5-1.2-1.3-1.9l0,0
			c0.1-0.7,1.3-1.4,2.1-1.3l0.8,0.1C1110.5,386.7,1111,387.4,1110.8,388.1z"/>
		<path class="st19" d="M1111,386.1l-3.8-2.8c-1.2-0.9-1.4-2.6-0.5-3.7l0,0c0.9-1.2,2.6-1.4,3.7-0.5l2.7,2.1"/>
		<path class="st20" d="M1111.2,382.3l-0.3,0.5c-0.4,0.6-1.3,0.8-1.9,0.4l-0.7-0.4c-0.6-0.4-0.9-1.7-0.5-2.3l0,0
			c0.4-0.6,1.8-0.8,2.4-0.4l0.7,0.4C1111.5,380.9,1111.7,381.7,1111.2,382.3z"/>
		<path class="st19" d="M1112.9,382.7l-0.9-4.6c-0.3-1.4,0.7-2.8,2.1-3.1l0,0c1.4-0.3,2.8,0.7,3.1,2.1l0.5,3.4"/>
		<path class="st20" d="M1115.6,380.1l-0.6,0.1c-0.7,0.2-1.5-0.3-1.6-1l-0.2-0.8c-0.2-0.7,0.5-1.8,1.2-2l0,0c0.7-0.2,1.8,0.6,2,1.3
			l0.2,0.7C1116.8,379.2,1116.3,379.9,1115.6,380.1z"/>
		<path class="st19" d="M1118,383.2v-4.7c0-1.5,1.2-2.7,2.7-2.7l0,0c1.5,0,2.7,1.2,2.7,2.7l-0.1,6.2"/>
		<path class="st20" d="M1121.1,381.2h-0.6c-0.7,0-1.4-0.6-1.4-1.3l-0.1-0.9c0-0.7,0.8-1.7,1.6-1.8l0,0c0.7,0,1.7,1,1.7,1.7l0.1,0.8
			C1122.5,380.5,1121.9,381.1,1121.1,381.2z"/>
		<path class="st21" d="M1205.7,416l2.9-9.2c0.7-1.2-0.4-2.8-1.7-2.4l-13,3.7c0,0,0,1.9,5,5.1C1202.4,415.5,1205.7,416,1205.7,416z"
			/>
		<path class="st19" d="M1159.2,416.7c5.4-12.6,15.7-19.9,30-16.7c11.1,2.5,16,7.3,17.3,16.7"/>
		<path class="st19" d="M1172.8,416.7l8.4-4.8c0.7-0.5,0.9-1.5,0.4-2.2c0,0-2.3-9.5-4.9-10.9c-3.2-1.8-13.2,1.7-14.1,3.2
			c-2.4,4-4.1,14.8-4.1,14.8"/>
		<rect x="1136.2" y="385.2" class="st5" width="20.7" height="36.4"/>
		<path class="st21" d="M1162.9,401.7c0,0,4.3,3,5.8,3.9c1.2,0.7,2.3,1,3-0.2l5.3-6.5c0,0-1.4-1.3-7.1-0.1
			C1165.6,399.6,1162.9,401.7,1162.9,401.7z"/>
		<path class="st9" d="M1178.7,415.1c-0.1,0.7-0.5,1.2-1,1.6h-3.8c-0.7-0.6-1.1-1.7-0.9-2.7"/>
		<polygon class="st22" points="1066.9,416.7 1077.5,407.1 1087.1,416.7 		"/>
		<polygon class="st22" points="1219.9,416.7 1234.9,410.7 1240.1,416.7 		"/>
		<polygon class="st22" points="1101.3,416.4 1111.2,407.2 1120.8,416.8 		"/>
		<polygon class="st23" points="1078.5,416.6 1115.9,409.3 1119.6,416.9 		"/>
		<polygon class="st24" points="1089.8,416.7 1093.1,410.7 1102.7,416.8 		"/>
		<polygon class="st24" points="1239.9,416.6 1233.9,413.3 1240,403.7 		"/>
	</g>
	<g id="Layer_15">
		<path class="st24" d="M1005.5,551.4c0.8,0.7,1.6,1.4,2.5,2.2c4.5,3.9,4.5,4.5,4.5,4.5s17.5-0.7,13.6,5.7
			c-4.3,7.1-13.7,12.5-17.1,16c-5.7,5.8-9.1,9.3-10.2,10.2c-3.7,3.2-7.9,4.4-8.1,4.3c-2.1-1-24.7-23.8-24.7-23.8s6.2-7.5,13.4-14.8
			c6.8-7,12.8-19.2,12.8-19.2s3.7,5.5,8.2,10.2"/>
		<path class="st25" d="M1026.3,560.5c0,0-25.7-27.7-25.8-27.7c-5.2-4-14-1.4-14-1.4l27.8,31.7
			C1014.3,563.1,1018.4,556.9,1026.3,560.5z"/>
		<path class="st24" d="M1073.8,317.4c-1.5-1.9-29-20.6-29-20.6s-0.4,13.7-6.6,22.4c-5.9,8.3-25.3,32.5-25.3,32.5
			s14.1,8.4,18.6,11.6c1.5,1.1,4.1,3.1,6.8,5.3c4.9,3.9,10.1,8.3,10.1,8.3s2-3.2,4.8-7.7l-9.3-8.4l10.8,6.1c0.2-0.3,0.4-0.7,0.6-1
			l-9.2-8.3l10.6,6c0.4-0.6,0.7-1.2,1.1-1.8l-8.9-8l10.3,5.8c3.6-5.7,7.3-11.4,9.4-14.4c4.9-6.9,7.6-16.9,7.8-18.3
			C1076.6,324.7,1075.3,319.3,1073.8,317.4z"/>
		<path class="st25" d="M1074,317.7l-3.3,7.1l5.6,2.9c0,0,0.6-1-0.3-5.2C1075.4,319.9,1074,317.7,1074,317.7z"/>
		<polygon class="st26" points="1057.2,308.7 1056,313.8 1046.2,307.7 1047.4,302.5 		"/>
		<path class="st24" d="M605.9,603.6c-0.4,0.6-0.7,1.2-1.1,1.8c-2.1,3.3-4.4,6.9-4.4,6.9s3.3,1.5,7.4,3.4c4.9,2.3,10.9,5.2,13.8,6.7
			c4.6,2.5,11,3.4,11.9,3.4c1.4,0,4.6-1.2,5.7-2.3c1.1-1.1,10.6-10.9,10.6-10.9s-8.5,0.8-14.4-2.4c-5.6-3-24.6-14.2-24.6-14.2
			s-2.3,3.5-2.5,3.6"/>
		<path class="st25" d="M488.5,563.8l9.1,1.8l-9.4,0.4c-0.3,1.6-0.6,3.3-0.9,5c-1.7,9-3.8,18.8-3.8,18.8s8.5,0.5,19.1,1.2
			c12.7,0.8,28.4,2,35.9,2.8c12.3,1.5,27.1-2,29.1-2.7c3.1-1.1,9.1-6.6,10.6-9.9c1.4-3.3,6.4-51.8,6.4-51.8s-18,9.1-33.6,7.1
			c-14.9-1.8-59.7-10.1-59.7-10.1s-0.8,19.1-1.7,28.9l8.7,1.8l-8.9,0.4c0,0.4-0.1,0.8-0.1,1.1s-0.1,0.5-0.1,0.8l9.4,1.9l-9.5,0.4"/>
		<polygon class="st25" points="750.2,571.7 745.9,554 748.2,552.9 762.1,560.8 752.7,571.8 		"/>
		<path class="st24" d="M750.6,544.1l18.8,9.9l-20-8c-0.9,1.4-1.8,2.8-2.8,4.2c-0.6,1-0.9,1.8-1,2.7c-0.2,5.7,12.6,8,12.6,8
			s-14.7,9-5.2,13.7c11.4,5.7,25.5,12.8,32,16.5c10.8,6.1,25.8,8.6,27.9,8.7c3.3,0.2,11-2.5,13.6-5s26-45.3,26-45.3
			s-20.1,1.4-33.8-6.4c-13-7.5-28.7-37.6-28.7-37.6s-24,15.1-28.6,23.9l16.4,16.4l-20.2-10.9c-0.2,0.3-2.5,3.2-2.6,3.5
			c-0.1,0.2-0.1,0.3-0.3,0.6l16.1,8.2l-18.8-4.9"/>
	</g>
	<path class="st24" d="M1191.3,653.2l-1.9-6.2l3.4,5.7c1.1-0.4,2.2-0.7,3.4-1.1c6.2-1.9,12.9-3.9,12.9-3.9s-2.5-5.5-5.6-12.3
		c-3.7-8.2-8.2-18.3-10.2-23.3c-3.2-8.2-10.3-16.2-11.4-17.2c-1.7-1.5-7.1-3.5-9.7-3.3c-2.5,0.2-34.3,13.2-34.3,13.2
		s11.6,8.2,15.6,18.5c3.8,9.9,13.6,40.4,13.6,40.4s12.1-5.9,18.5-8.6l-1.8-6l3.2,5.4c0.3-0.1,0.5-0.2,0.7-0.3s0.4-0.1,0.6-0.2
		l-2-6.5l3.4,5.8"/>
	<g>
		<path class="st25" d="M1296.2,416.7c0.2-1.3,0.5-2.7,0.7-4.1c1.3-7.5,1.9-7.8,1.9-7.8s-12.1-18.5-2.8-18.5c10.5,0,22.5,6.6,28.5,8
			c9.9,2.4,16.1,3.8,17.7,4.3c5.9,1.9,9.9,5.7,10,6c0.3,2.9-9.6,42.3-9.6,42.3s-12.2-1.8-24.8-4.8c-12-2.8-29.2-1.2-29.2-1.2
			s3.5-7.6,5.6-15.5"/>
		<path class="st12" d="M1292.4,388.3c0,0-13.1,46-13.1,46.1c-0.9,8.2,7.6,16.1,7.6,16.1l16.2-50.8
			C1303.1,399.7,1293.6,399.2,1292.4,388.3z"/>
	</g>
	<path class="st27" d="M465.7,404.7l-1.9-6.2l3.4,5.7c1.1-0.4,2.2-0.7,3.4-1.1c6.2-1.9,12.9-3.9,12.9-3.9s-2.5-5.5-5.6-12.3
		c-3.7-8.2-8.2-18.3-10.2-23.3c-3.2-8.2-10.3-16.2-11.4-17.2c-1.7-1.5-7.1-3.5-9.7-3.3c-2.5,0.2-34.3,13.2-34.3,13.2
		s11.6,8.2,15.6,18.5c3.8,9.9,13.6,40.4,13.6,40.4s12.1-5.9,18.5-8.6l-1.8-6l3.2,5.4c0.3-0.1,0.5-0.2,0.7-0.3
		c0.2-0.1,0.4-0.1,0.6-0.2l-2-6.5l3.4,5.8"/>
</g>
</svg>
