<?xml version="1.0" encoding="utf-8"?>
<!-- Generator: Adobe Illustrator 26.0.3, SVG Export Plug-In . SVG Version: 6.00 Build 0)  -->
<svg version="1.1" id="Layer_1" xmlns="http://www.w3.org/2000/svg" xmlns:xlink="http://www.w3.org/1999/xlink" x="0px" y="0px"
	 viewBox="0 0 1757.3 769.2" style="enable-background:new 0 0 1757.3 769.2;" xml:space="preserve">
<style type="text/css">
	.st0{fill:#E9967F;}
	.st1{fill:#AEBDC1;}
	.st2{opacity:0.8;}
	.st3{fill:#DD6E54;}
	.st4{fill:#F4A08C;}
	.st5{fill:#DD5847;}
	.st6{fill:#EA3338;}
	.st7{fill:#F24E5A;}
	.st8{fill:#B72E2F;}
	.st9{fill:#DD2634;}
	.st10{opacity:0.7;fill:#DD2634;enable-background:new    ;}
	.st11{opacity:0.2;fill:#F24E5A;}
	.st12{fill:#4D4D4D;}
	.st13{fill:#353535;}
	.st14{fill:none;stroke:#B72E2F;stroke-width:3.5229;stroke-miterlimit:10;}
	.st15{fill:#E4E4E4;stroke:#D04448;stroke-width:3.5229;stroke-miterlimit:10;}
	.st16{font-family:'Marion-Regular';}
	.st17{font-size:41px;}
	.st18{enable-background:new    ;}
	.st19{fill:none;stroke:#666060;stroke-width:5;stroke-linecap:round;stroke-miterlimit:10;}
	.st20{fill:#998276;}
	.st21{fill:#CACACA;}
	.st22{fill:#58595B;}
	.st23{fill:#877268;}
	.st24{fill:#595455;}
	.st25{fill:#848081;}
	.st26{fill:#F0F0F0;}
	.st27{fill:#E4E4E4;}
	.st28{fill:#D04448;}
	.st29{fill:none;stroke:#EF8E9A;stroke-width:10;stroke-linecap:round;stroke-miterlimit:10;}
	.st30{opacity:0.7;fill:none;stroke:#EF8E9A;stroke-width:5;stroke-linecap:round;stroke-miterlimit:10;}
	.st31{opacity:0.2;fill:none;stroke:#EF8E9A;stroke-width:5;stroke-linecap:round;stroke-miterlimit:10;}
	.st32{opacity:0.1;fill:none;stroke:#EF8E9A;stroke-width:5;stroke-linecap:round;stroke-miterlimit:10;}
	.st33{fill:#EF8E9A;}
	.st34{fill:#A69990;}
	.st35{fill:#3A3735;}
	.st36{fill:#7C6B60;}
</style>
<g id="Layer3">
	<rect x="1312.1" y="0.7" class="st0" width="456.2" height="684.3"/>
	<path class="st1" d="M1149.1,742.3H915.6c-4.7,0-9.2-2.3-11.8-6.3l-23.7-37.5c-6.4-9.5,0.4-22.3,11.8-22.3h233.5
		c4.7,0,9.2,2.3,11.8,6.3l23.7,37.5C1167.3,729.5,1160.5,742.3,1149.1,742.3z"/>
	<path class="st1" d="M1312.1,685h458.2c7.3,0,14.1,4.1,18.2,10.8l31.8,52.7c9.9,16.4-0.6,38.5-18.2,38.5h-416.2
		c-7.3,0-14.1-4.1-18.2-10.8"/>
	<g id="Layer_9" class="st2">
		<rect x="1646.3" y="207.3" class="st3" width="90.2" height="32.9"/>
		<rect x="1332.3" y="42.6" class="st3" width="90.2" height="32.9"/>
		<rect x="1466.4" y="405.9" class="st3" width="90.2" height="32.9"/>
		<rect x="1377.1" y="252.1" class="st4" width="90.2" height="32.9"/>
		<rect x="1593.6" y="57.1" class="st5" width="90.2" height="32.9"/>
		<rect x="1327.8" y="539" class="st5" width="90.2" height="32.9"/>
		<rect x="1724.8" y="370.5" class="st4" width="90.2" height="32.9"/>
	</g>
	<g id="Layer_2">
		<rect x="892.6" y="356.3" class="st6" width="214" height="261"/>
		<path class="st6" d="M1143,341.2v13.4c0,14.6-27.9,19.5-42.5,19.5H898c-14.6,0-37.1-4.9-37.1-19.5v-13.4"/>
		<path class="st7" d="M860.9,341.2c0-7.8,58.4-19.5,73-19.5h136.7c14.6,0,72.3,13.9,72.3,19.5"/>
		<rect x="892.6" y="373.9" class="st8" width="213.7" height="10.3"/>
		<polygon class="st7" points="1110,429.3 888.2,429.3 889.9,425.8 1108.4,425.8 		"/>
		<polygon class="st9" points="888.2,429.1 1110,429.1 1108.4,432.6 889.9,432.6 		"/>
		<rect x="1053" y="384.2" class="st10" width="39.9" height="224.8"/>
		<rect x="893.7" y="384.2" class="st11" width="26.2" height="224.8"/>
		<path class="st12" d="M896.6,608.7h206c5.4,0,9.7,4.4,9.7,9.7v57.1c0,5.4-4.4,9.7-9.7,9.7h-206c-5.4,0-9.7-4.4-9.7-9.7v-57.1
			C886.9,613.1,891.3,608.7,896.6,608.7z"/>
		<path class="st13" d="M1061.3,609h33.7c4.1,0,7.4,3.7,7.4,8.3V677c0,4.6-3.3,8.3-7.4,8.3h-33.7c-4.1,0-7.4-3.7-7.4-8.3v-59.8
			C1053.9,612.7,1057.2,609,1061.3,609z"/>
		<path class="st7" d="M992.3,363.9v-9.1c0-2.6,1.7-4.8,3.8-4.8l0,0c2.1,0,3.8,2.2,3.8,4.8v9.1"/>
		<path class="st7" d="M979.2,363.9v-9.1c0-2.6,1.7-4.8,3.8-4.8l0,0c2.1,0,3.8,2.2,3.8,4.8v9.1"/>
		<path class="st7" d="M966,363.9v-9.1c0-2.6,1.7-4.8,3.8-4.8l0,0c2.1,0,3.8,2.2,3.8,4.8v9.1"/>
		<path class="st7" d="M952.9,363.9v-9.1c0-2.6,1.7-4.8,3.8-4.8l0,0c2.1,0,3.8,2.2,3.8,4.8v9.1"/>
		<path class="st7" d="M939.8,363.4v-9.1c0-2.6,1.7-4.8,3.8-4.8l0,0c2.1,0,3.8,2.2,3.8,4.8v9.1"/>
		<path class="st7" d="M927.2,363.4v-9.1c0-2.6,1.5-4.8,3.3-4.8l0,0c1.8,0,3.3,2.2,3.3,4.8v9.1"/>
		<path class="st7" d="M914.8,363.7v-9.1c0-2.6,1.2-4.8,2.6-4.8l0,0c1.4,0,2.6,2.2,2.6,4.8v9.1"/>
		<path class="st7" d="M901.6,363.7v-9.1c0-2.6,1.2-4.8,2.6-4.8l0,0c1.4,0,2.6,2.2,2.6,4.8v9.1"/>
		<path class="st7" d="M889.6,363.7v-9.1c0-2.6,0.7-4.8,1.6-4.8l0,0c0.9,0,1.6,2.2,1.6,4.8v9.1"/>
		<path class="st7" d="M877,363.7v-9.1c0-2.6,0.4-4.8,1-4.8l0,0c0.5,0,1,2.2,1,4.8v9.1"/>
		<path class="st7" d="M1013,363.6v-9.1c0-2.6-1.7-4.8-3.8-4.8l0,0c-2.1,0-3.8,2.2-3.8,4.8v9.1"/>
		<path class="st7" d="M1026.1,363.6v-9.1c0-2.6-1.7-4.8-3.8-4.8l0,0c-2.1,0-3.8,2.2-3.8,4.8v9.1"/>
		<path class="st7" d="M1039.2,363.6v-9.1c0-2.6-1.7-4.8-3.8-4.8l0,0c-2.1,0-3.8,2.2-3.8,4.8v9.1"/>
		<path class="st7" d="M1052.3,363.1V354c0-2.6-1.7-4.8-3.8-4.8l0,0c-2.1,0-3.8,2.2-3.8,4.8v9.1"/>
		<path class="st7" d="M1065,363.1V354c0-2.6-1.5-4.8-3.3-4.8l0,0c-1.8,0-3.3,2.2-3.3,4.8v9.1"/>
		<path class="st7" d="M1077.4,363.4v-9.1c0-2.6-1.2-4.8-2.6-4.8l0,0c-1.4,0-2.6,2.2-2.6,4.8v9.1"/>
		<path class="st7" d="M1090.5,363.4v-9.1c0-2.6-1.2-4.8-2.6-4.8l0,0c-1.4,0-2.6,2.2-2.6,4.8v9.1"/>
		<path class="st7" d="M1102.6,363.4v-9.1c0-2.6-0.7-4.8-1.6-4.8l0,0c-0.9,0-1.6,2.2-1.6,4.8v9.1"/>
		<path class="st7" d="M1115.1,363.4v-9.1c0-2.6-0.4-4.8-1-4.8l0,0c-0.5,0-1,2.2-1,4.8v9.1"/>
		<rect x="900.7" y="448.3" class="st14" width="197.9" height="150"/>
		<rect x="931.5" y="457.9" class="st15" width="40.4" height="48.5"/>
		<rect x="1030.7" y="457.9" class="st15" width="40.4" height="48.5"/>
		<text transform="matrix(1 0 0 1 964.5946 581.2248)" class="st8 st16 st17">E R</text>
		<g class="st18">
			<path class="st10" d="M982,561.9h1.5 M970.4,558.7c0-2.3-1.4-3.5-4.1-3.5V554h21.6l0.3,7.7l-1.3,0.2c-0.2-1.5-0.6-2.6-1.1-3.4
				c-0.5-0.8-1.1-1.4-1.8-1.8s-1.5-0.6-2.4-0.7s-1.9-0.1-3-0.1h-1.1c-2.1,0-3.1,0.6-3.1,1.8"/>
			<path class="st10" d="M1009,557.9c0-1.7-1.3-2.6-3.9-2.6V554h5.1c0.9,0,1.7,0,2.3,0s1.2,0,1.8-0.1s1.2,0,1.9-0.1
				c0.7,0,1.5,0,2.4,0c1.2,0,2.3,0.2,3.3,0.5c1,0.3,1.9,0.8,2.7,1.4c0.8,0.6,1.3,1.3,1.8,2.1c0.4,0.8,0.7,1.7,0.7,2.7
				c0,1-0.2,1.8-0.5,2.5l-4.4,0.7c0.4-0.7,0.6-1.7,0.6-2.9c0-1-0.2-1.9-0.6-2.6c-0.4-0.7-0.8-1.2-1.4-1.6c-0.6-0.4-1.2-0.7-1.9-0.8
				c-0.7-0.2-1.4-0.2-2.1-0.2h-2c-1,0-1.6,0.8-1.6,2.3H1009z"/>
		</g>
		<line class="st19" x1="934.8" y1="611.3" x2="1062.4" y2="611.3"/>
		<line class="st19" x1="920.8" y1="621.8" x2="1048.4" y2="621.8"/>
	</g>
	<g id="Layer_13">
		<rect x="908.1" y="394" class="st13" width="83.3" height="22.8"/>
		<rect x="1006.7" y="394" class="st13" width="83.3" height="22.8"/>
		<g>
			<path class="st20" d="M991.2,403.7v13.5h-12.5c-3-5-14.6-22.9-16.6-25.5c-2.3-3-3.7-7.8-0.6-10.5l1.5-1.2
				c5.3-3.4,8.1,1.1,10.3,4.2C974.8,386.3,983.4,395.4,991.2,403.7z"/>
			<path class="st21" d="M970.6,376.7L970.6,376.7c-0.2,0-0.3-0.2-0.3-0.3v-2c0-0.2,0.2-0.3,0.3-0.3l0,0c0.2,0,0.3,0.2,0.3,0.3v2
				C971,376.5,970.8,376.7,970.6,376.7z"/>
			<path class="st21" d="M964.3,376.4L964.3,376.4c-0.2,0-0.4-0.1-0.4-0.3l-0.3-2c0-0.2,0.1-0.4,0.3-0.4l0,0c0.2,0,0.4,0.1,0.4,0.3
				l0.3,2C964.6,376.2,964.4,376.4,964.3,376.4z"/>
			<path class="st21" d="M957.6,380.2L957.6,380.2c-0.1,0.2-0.3,0.2-0.5,0.1l-1.6-1.2c-0.2-0.1-0.2-0.3-0.1-0.5l0,0
				c0.1-0.2,0.3-0.2,0.5-0.1l1.6,1.2C957.7,379.8,957.7,380,957.6,380.2z"/>
			<path class="st21" d="M956.7,387.6L956.7,387.6c0,0.2-0.2,0.3-0.4,0.3l-2-0.4c-0.2,0-0.3-0.2-0.3-0.4l0,0c0-0.2,0.2-0.3,0.4-0.3
				l2,0.4C956.6,387.2,956.8,387.4,956.7,387.6z"/>
			<g>
				<path class="st22" d="M965.3,384.5L965.3,384.5c1-0.6,2.3-0.4,2.9,0.6l2,3c0.6,1,0.4,2.3-0.6,2.9l0,0c-1,0.6-2.3,0.4-2.9-0.6
					l-2-3C964.1,386.4,964.3,385.1,965.3,384.5z"/>
				<path class="st22" d="M964.9,385.6L964.9,385.6c0.3-1.1,1.4-1.8,2.5-1.5l3.5,0.9c1.1,0.3,1.8,1.4,1.5,2.5l0,0
					c-0.3,1.1-1.4,1.8-2.5,1.5l-3.5-0.9C965.3,387.9,964.6,386.7,964.9,385.6z"/>
				<path class="st22" d="M965.9,384.6L965.9,384.6c1.1-0.1,2.1,0.8,2.2,2l0.2,3.6c0.1,1.1-0.8,2.1-2,2.2l0,0
					c-1.1,0.1-2.1-0.8-2.2-2l-0.2-3.6C963.9,385.6,964.8,384.7,965.9,384.6z"/>
			</g>
			<path class="st20" d="M962.1,391.6l-4.6-1.1c-1.4-0.3-2.3-1.8-2-3.2l0,0c0.3-1.4,1.8-2.3,3.2-2l3.3,0.9"/>
			<path class="st22" d="M960.8,388.1l-0.1,0.6c-0.1,0.7-0.9,1.2-1.6,1.1l-0.9-0.1c-0.7-0.1-1.5-1.2-1.3-1.9l0,0
				c0.1-0.7,1.3-1.4,2.1-1.3l0.8,0.1C960.5,386.7,961,387.4,960.8,388.1z"/>
			<path class="st20" d="M961,386.1l-3.8-2.8c-1.2-0.9-1.4-2.6-0.5-3.7l0,0c0.9-1.2,2.6-1.4,3.7-0.5l2.7,2.1"/>
			<path class="st22" d="M961.2,382.3l-0.3,0.5c-0.4,0.6-1.3,0.8-1.9,0.4l-0.7-0.4c-0.6-0.4-0.9-1.7-0.5-2.3l0,0
				c0.4-0.6,1.8-0.8,2.4-0.4l0.7,0.4C961.5,380.9,961.7,381.7,961.2,382.3z"/>
			<path class="st20" d="M962.9,382.7l-0.9-4.6c-0.3-1.4,0.7-2.8,2.1-3.1l0,0c1.4-0.3,2.8,0.7,3.1,2.1l0.5,3.4"/>
			<path class="st22" d="M965.6,380.1l-0.6,0.1c-0.7,0.2-1.5-0.3-1.6-1l-0.2-0.8c-0.2-0.7,0.5-1.8,1.2-2l0,0c0.7-0.2,1.8,0.6,2,1.3
				l0.2,0.7C966.8,379.2,966.3,379.9,965.6,380.1z"/>
			<path class="st20" d="M968,383.2v-4.7c0-1.5,1.2-2.7,2.7-2.7l0,0c1.5,0,2.7,1.2,2.7,2.7l-0.1,6.2"/>
			<path class="st22" d="M971.1,381.2h-0.6c-0.7,0-1.4-0.6-1.4-1.3L969,379c0-0.7,0.8-1.7,1.6-1.8l0,0c0.7,0,1.7,1,1.7,1.7l0.1,0.8
				C972.5,380.5,971.9,381.1,971.1,381.2z"/>
		</g>
		<path class="st23" d="M1014.2,416.7c5.4-12.6,10.7-19.9,25-16.7c11.1,2.5,17,7.3,18.3,16.7"/>
		<polygon class="st24" points="916.9,416.7 927.5,407.1 937.1,416.7 		"/>
		<polygon class="st25" points="1069.9,416.7 1084.9,410.7 1090.1,416.7 		"/>
		<polygon class="st24" points="951.3,416.4 961.2,407.2 970.8,416.8 		"/>
		<polygon class="st25" points="928.5,416.6 965.9,409.3 969.6,416.9 		"/>
		<polygon class="st26" points="939.8,416.7 943.1,410.7 952.7,416.8 		"/>
		<polygon class="st26" points="1089.9,416.6 1083.9,413.3 1090,403.7 		"/>
	</g>
	<g id="Layer_15">
		<path class="st26" d="M855.5,551.4c0.8,0.7,1.6,1.4,2.5,2.2c4.5,3.9,4.5,4.5,4.5,4.5s17.5-0.7,13.6,5.7
			c-4.3,7.1-13.7,12.5-17.1,16c-5.7,5.8-9.1,9.3-10.2,10.2c-3.7,3.2-7.9,4.4-8.1,4.3c-2.1-1-24.7-23.8-24.7-23.8s6.2-7.5,13.4-14.8
			c6.8-7,12.8-19.2,12.8-19.2s3.7,5.5,8.2,10.2"/>
		<path class="st27" d="M876.3,560.5c0,0-25.7-27.7-25.8-27.7c-5.2-4-14-1.4-14-1.4l27.8,31.7C864.3,563.1,868.4,556.9,876.3,560.5z
			"/>
		<path class="st26" d="M923.8,317.4c-1.5-1.9-29-20.6-29-20.6s-0.4,13.7-6.6,22.4c-5.9,8.3-25.3,32.5-25.3,32.5s14.1,8.4,18.6,11.6
			c1.5,1.1,4.1,3.1,6.8,5.3c4.9,3.9,10.1,8.3,10.1,8.3s2-3.2,4.8-7.7l-9.3-8.4l10.8,6.1c0.2-0.3,0.4-0.7,0.6-1l-9.2-8.3l10.6,6
			c0.4-0.6,0.7-1.2,1.1-1.8l-8.9-8l10.3,5.8c3.6-5.7,7.3-11.4,9.4-14.4c4.9-6.9,7.6-16.9,7.8-18.3
			C926.6,324.7,925.3,319.3,923.8,317.4z"/>
		<path class="st27" d="M924,317.7l-3.3,7.1l5.6,2.9c0,0,0.6-1-0.3-5.2C925.4,319.9,924,317.7,924,317.7z"/>
		<polygon class="st28" points="907.2,308.7 906,313.8 896.2,307.7 897.4,302.5 		"/>
		<path class="st26" d="M623.9,475.8c-0.4,0.6-0.7,1.2-1.1,1.8c-2.1,3.3-4.4,6.9-4.4,6.9s3.3,1.5,7.4,3.4c4.9,2.3,10.9,5.2,13.8,6.7
			c4.6,2.5,11,3.4,11.9,3.4c1.4,0,4.6-1.2,5.7-2.3c1.1-1.1,10.6-10.9,10.6-10.9s-8.5,0.8-14.4-2.4c-5.6-3-24.6-14.2-24.6-14.2
			s-2.3,3.5-2.5,3.6"/>
		<path class="st27" d="M821,227.3l9.1,1.8l-9.4,0.4c-0.3,1.6-0.6,3.3-0.9,5c-1.7,9-3.8,18.8-3.8,18.8s8.5,0.5,19.1,1.2
			c12.7,0.8,28.4,2,35.9,2.8c12.3,1.5,27.1-2,29.1-2.7c3.1-1.1,9.1-6.6,10.6-9.9c1.4-3.3,6.4-51.8,6.4-51.8s-18,9.1-33.6,7.1
			c-14.9-1.8-59.7-10.1-59.7-10.1s-0.8,19.1-1.7,28.9l8.7,1.8l-8.9,0.4c0,0.4-0.1,0.8-0.1,1.1s-0.1,0.5-0.1,0.8l9.4,1.9l-9.5,0.4"/>
		<polygon class="st27" points="640.2,571.7 635.9,554 638.2,552.9 652.1,560.8 642.7,571.8 		"/>
		<path class="st26" d="M640.6,544.1l18.8,9.9l-20-8c-0.9,1.4-1.8,2.8-2.8,4.2c-0.6,1-0.9,1.8-1,2.7c-0.2,5.7,12.6,8,12.6,8
			s-14.7,9-5.2,13.7c11.4,5.7,25.5,12.8,32,16.5c10.8,6.1,25.8,8.6,27.9,8.7c3.3,0.2,11-2.5,13.6-5s26-45.3,26-45.3
			s-20.1,1.4-33.8-6.4c-13-7.5-28.7-37.6-28.7-37.6s-24,15.1-28.6,23.9l16.4,16.4l-20.2-10.9c-0.2,0.3-2.5,3.2-2.6,3.5
			c-0.1,0.2-0.1,0.3-0.3,0.6l16.1,8.2l-18.8-4.9"/>
	</g>
	<path class="st26" d="M1041.3,653.2l-1.9-6.2l3.4,5.7c1.1-0.4,2.2-0.7,3.4-1.1c6.2-1.9,12.9-3.9,12.9-3.9s-2.5-5.5-5.6-12.3
		c-3.7-8.2-8.2-18.3-10.2-23.3c-3.2-8.2-10.3-16.2-11.4-17.2c-1.7-1.5-7.1-3.5-9.7-3.3c-2.5,0.2-34.3,13.2-34.3,13.2
		s11.6,8.2,15.6,18.5c3.8,9.9,13.6,40.4,13.6,40.4s12.1-5.9,18.5-8.6l-1.8-6l3.2,5.4c0.3-0.1,0.5-0.2,0.7-0.3s0.4-0.1,0.6-0.2
		l-2-6.5l3.4,5.8"/>
	<g>
		<path class="st27" d="M1146.2,416.7c0.2-1.3,0.5-2.7,0.7-4.1c1.3-7.5,1.9-7.8,1.9-7.8s-12.1-18.5-2.8-18.5c10.5,0,22.5,6.6,28.5,8
			c9.9,2.4,16.1,3.8,17.7,4.3c5.9,1.9,9.9,5.7,10,6c0.3,2.9-9.6,42.3-9.6,42.3s-12.2-1.8-24.8-4.8c-12-2.8-29.2-1.2-29.2-1.2
			s3.5-7.6,5.6-15.5"/>
		<path class="st21" d="M1142.4,388.3c0,0-13.1,46-13.1,46.1c-0.9,8.2,7.6,16.1,7.6,16.1l56.2-50.8
			C1193.1,399.7,1143.6,399.2,1142.4,388.3z"/>
	</g>
	<path class="st26" d="M465.7,404.7l-1.9-6.2l3.4,5.7c1.1-0.4,2.2-0.7,3.4-1.1c6.2-1.9,12.9-3.9,12.9-3.9s-2.5-5.5-5.6-12.3
		c-3.7-8.2-8.2-18.3-10.2-23.3c-3.2-8.2-10.3-16.2-11.4-17.2c-1.7-1.5-7.1-3.5-9.7-3.3c-2.5,0.2-34.3,13.2-34.3,13.2
		s11.6,8.2,15.6,18.5c3.8,9.9,13.6,40.4,13.6,40.4s12.1-5.9,18.5-8.6l-1.8-6l3.2,5.4c0.3-0.1,0.5-0.2,0.7-0.3
		c0.2-0.1,0.4-0.1,0.6-0.2l-2-6.5l3.4,5.8"/>
</g>
<line class="st29" x1="935.3" y1="330.2" x2="1008.4" y2="330.2"/>
<line class="st30" x1="919.9" y1="457.9" x2="919.9" y2="531"/>
<line class="st31" x1="995.8" y1="469" x2="995.8" y2="542.1"/>
<line class="st32" x1="1083.9" y1="464.5" x2="1083.9" y2="537.6"/>
<g>
	<polygon class="st33" points="890.1,539.5 904.7,533.9 892,543.1 890.1,539.5 	"/>
</g>
<g>
	<polygon class="st33" points="890.8,545 905.5,539.4 892.7,548.5 890.8,545 	"/>
</g>
<g>
	<polygon class="st33" points="890.8,550.4 905.5,544.8 892.7,553.9 890.8,550.4 	"/>
</g>
<ellipse class="st34" cx="1077" cy="417.2" rx="5.6" ry="4.7"/>
<circle class="st34" cx="1071.8" cy="417.2" r="2.2"/>
<path class="st35" d="M1032.1,415.4c-0.5,1.1-2,1.5-3.3,0.9c-1.3-0.6-2-2-1.4-3.1c0.5-1.1,1.8-0.4,3.2,0.2
	C1031.8,414,1032.7,414.3,1032.1,415.4z"/>
<path class="st36" d="M1032.1,403.7h-12c-1.6,0-2.9-1.3-2.9-2.9l0,0c0-1.6,1.3-2.9,2.9-2.9h12c1.6,0,2.9,1.3,2.9,2.9l0,0
	C1034.9,402.4,1033.7,403.7,1032.1,403.7z"/>
<path class="st36" d="M1055.9,413.4l-10.4-6c-1.4-0.8-1.8-2.5-1-3.9l0,0c0.8-1.4,2.5-1.8,3.9-1l10.4,6c1.4,0.8,1.8,2.5,1,3.9l0,0
	C1059,413.7,1057.2,414.1,1055.9,413.4z"/>
<path class="st23" d="M1028.8,403.7h-9.8c-0.5,0-0.9-0.4-0.9-0.9l0,0c0-0.5,0.4-0.9,0.9-0.9h9.8c0.5,0,0.9,0.4,0.9,0.9l0,0
	C1029.7,403.3,1029.3,403.7,1028.8,403.7z"/>
</svg>
