<?xml version="1.0" encoding="utf-8"?>
<!-- Generator: Adobe Illustrator 26.0.3, SVG Export Plug-In . SVG Version: 6.00 Build 0)  -->
<svg version="1.1" id="Layer_1" xmlns="http://www.w3.org/2000/svg" xmlns:xlink="http://www.w3.org/1999/xlink" x="0px" y="0px"
	 viewBox="0 0 1757.3 769.2" style="enable-background:new 0 0 1757.3 769.2;" xml:space="preserve">
<style type="text/css">
	.st0{fill:#DAE9EF;}
	.st1{fill:#E8DDBD;}
	.st2{opacity:0.5;fill:#BFDCE8;enable-background:new    ;}
	.st3{opacity:0.5;}
	.st4{fill:#EFB8AC;}
	.st5{fill:#E4E4E4;}
</style>
<g id="Layer1">
	<rect x="-5.6" y="2.2" class="st0" width="1774" height="783.3"/>
	<circle class="st1" cx="69" cy="42.3" r="139.9"/>
	<path class="st2" d="M1008.8,218.2H785.3c-15.4,0-28.1-12.6-28.1-28.1v-4.7c0-15.4,12.6-28.1,28.1-28.1h223.5
		c15.4,0,28.1,12.6,28.1,28.1v4.7C1036.8,205.5,1024.2,218.2,1008.8,218.2z"/>
	<path class="st2" d="M354.5,224.1H134.8c-15.2,0-27.6-12.4-27.6-27.6v-4.6c0-15.2,12.4-27.6,27.6-27.6h219.7
		c15.2,0,27.6,12.4,27.6,27.6v4.6C382.1,211.6,369.8,224.1,354.5,224.1z"/>
	<path class="st2" d="M536.7,127.3h-47.4c-15.2,0-27.6-12.4-27.6-27.6l0,0c0-15.2,12.4-27.6,27.6-27.6h47.4
		c15.2,0,27.6,12.4,27.6,27.6l0,0C564.3,114.9,551.9,127.3,536.7,127.3z"/>
	<path class="st2" d="M814.5,52.9h-47.4c-15.2,0-27.6-12.4-27.6-27.6l0,0c0-15.2,12.4-27.6,27.6-27.6h47.4
		c15.2,0,27.6,12.4,27.6,27.6l0,0C842.1,40.4,829.7,52.9,814.5,52.9z"/>
	<path class="st2" d="M995.7,182.5h-47.4c-15.2,0-27.6-12.4-27.6-27.6l0,0c0-15.2,12.4-27.6,27.6-27.6h47.4
		c15.2,0,27.6,12.4,27.6,27.6l0,0C1023.3,170,1010.9,182.5,995.7,182.5z"/>
	<path class="st2" d="M671.2,230h-47.4c-15.2,0-27.6-12.4-27.6-27.6l0,0c0-15.2,12.4-27.6,27.6-27.6h47.4
		c15.2,0,27.6,12.4,27.6,27.6l0,0C698.8,217.5,686.4,230,671.2,230z"/>
	<path class="st2" d="M756,75.5h-47.4C693.4,75.5,681,63,681,47.8l0,0c0-15.2,12.4-27.6,27.6-27.6H756c15.2,0,27.6,12.4,27.6,27.6
		l0,0C783.6,63,771.2,75.5,756,75.5z"/>
	<g id="Layer_10" class="st3">
		<g>
			<polygon class="st4" points="683.8,639.1 304.2,639.1 307.8,532.3 365.6,448.7 618.7,448.7 682.4,527.5 			"/>
			<polygon class="st4" points="486.6,557.6 407.4,557.6 407.4,357.8 445.7,352 486.6,357.8 			"/>
		</g>
		<polyline class="st4" points="1392.7,478.1 -27.1,476.4 -27.1,666.6 1392.7,666.5 		"/>
		<rect x="524.9" y="426.6" class="st4" width="200.4" height="69.8"/>
		<path class="st4" d="M551.8,427.2c0-66.1,49.9-88.1,67.8-88.1c14.7,0,67.8,15.2,67.8,88.1"/>
		<path class="st4" d="M302.2,455.3L302.2,455.3c-10.8,0-19.7-8.9-19.7-19.7v-60.2c0-10.8,8.9-19.7,19.7-19.7l0,0
			c10.8,0,19.7,8.9,19.7,19.7v60.2C321.9,446.4,313,455.3,302.2,455.3z"/>
		<rect x="277.6" y="416.4" class="st4" width="48.9" height="71.3"/>
		<path class="st4" d="M412.8,368.3L412.8,368.3c-2.9,0-5.3-2.4-5.3-5.3v-19.7c0-2.9,2.4-5.3,5.3-5.3l0,0c2.9,0,5.3,2.4,5.3,5.3V363
			C418.1,366,415.7,368.3,412.8,368.3z"/>
		<path class="st4" d="M439.4,368.3L439.4,368.3c-3.2,0-5.9-2.7-5.9-5.9v-28.9c0-3.2,2.7-5.9,5.9-5.9l0,0c3.2,0,5.9,2.7,5.9,5.9
			v28.9C445.3,365.7,442.7,368.3,439.4,368.3z"/>
		<path class="st4" d="M244.7,487.4L244.7,487.4c-3.2,0-5.9-2.7-5.9-5.9v-28.9c0-3.2,2.7-5.9,5.9-5.9l0,0c3.2,0,5.9,2.7,5.9,5.9
			v28.9C250.6,484.7,247.9,487.4,244.7,487.4z"/>
		<path class="st4" d="M378.6,476.2L378.6,476.2c-3.2,0-5.9-2.7-5.9-5.9v-28.9c0-3.2,2.7-5.9,5.9-5.9l0,0c3.2,0,5.9,2.7,5.9,5.9
			v28.9C384.5,473.6,381.9,476.2,378.6,476.2z"/>
		<path class="st4" d="M481.1,382.8L481.1,382.8c-2.9,0-5.3-2.4-5.3-5.3V346c0-2.9,2.4-5.3,5.3-5.3l0,0c2.9,0,5.3,2.4,5.3,5.3v31.5
			C486.3,380.4,484,382.8,481.1,382.8z"/>
		<path class="st4" d="M301.9,372.3L301.9,372.3c-4.7,0-8.5-3.8-8.5-8.5v-18.4c0-4.7,3.8-8.5,8.5-8.5l0,0c4.7,0,8.5,3.8,8.5,8.5
			v18.4C310.4,368.4,306.6,372.3,301.9,372.3z"/>
		<path class="st4" d="M452.8,360.5L452.8,360.5c-2.5,0-4.6-2.1-4.6-4.6v-5.3c0-2.5,2.1-4.6,4.6-4.6l0,0c2.5,0,4.6,2.1,4.6,4.6v5.3
			C457.4,358.4,455.4,360.5,452.8,360.5z"/>
		<path class="st4" d="M619.4,346.8L619.4,346.8c-3.6,0-6.5-2.9-6.5-6.5v-15.9c0-3.6,2.9-6.5,6.5-6.5l0,0c3.6,0,6.5,2.9,6.5,6.5
			v15.9C625.9,343.9,623,346.8,619.4,346.8z"/>
		<path class="st4" d="M549.9,401.7v-0.3c0-2.7,2.2-4.9,4.9-4.9H683c2.7,0,4.9,2.2,4.9,4.9v0.3c0,2.7-2.2,4.9-4.9,4.9H554.8
			C552.1,406.6,549.9,404.4,549.9,401.7z"/>
		<path class="st4" d="M527.2,437.3L527.2,437.3c-1.4,0-2.6-1.2-2.6-2.6V419c0-1.4,1.2-2.6,2.6-2.6l0,0c1.4,0,2.6,1.2,2.6,2.6v15.8
			C529.8,436.2,528.6,437.3,527.2,437.3z"/>
		<path class="st4" d="M721.8,434.7L721.8,434.7c1.8,0,3.3-1.5,3.3-3.3V417c0-1.8-1.5-3.3-3.3-3.3l0,0c-1.8,0-3.3,1.5-3.3,3.3v14.4
			C718.5,433.2,720,434.7,721.8,434.7z"/>
	</g>
</g>
<g id="Layer_7">
	<rect x="-19.1" y="650.3" class="st5" width="1791.8" height="131.8"/>
</g>
<path class="st2" d="M537.9,33.9h-81c1.1-3.8,1.8-7.9,1.8-12.1c0-23.2-18.8-42-42-42c-23.2,0-42,18.8-42,42c0,0.2,0,0.3,0,0.5
	c-3.1-1.4-6.5-2.2-10.2-2.2c-1.5,0-2.9,0.1-4.3,0.4c0-0.1,0-0.3,0-0.4c0-13.8-11.2-25-25-25c-13.8,0-25,11.2-25,25
	c0,5.2,1.6,10,4.3,13.9c-13.5,1.8-24.1,13.4-24.1,27.4v4.6c0,15.2,12.4,27.6,27.6,27.6h219.7c15.2,0,27.6-12.4,27.6-27.6v-4.6
	C565.5,46.3,553.1,33.9,537.9,33.9z"/>
<g id="Lcvnqe.tif">
	
		<image style="overflow:visible;" width="958" height="938" id="Layer_0_00000073698902863666782090000009455070819836715436_" xlink:href="568B0221F7F15B70.png"  transform="matrix(0.5 0 0 0.5 -549.9 83.4)">
	</image>
</g>
</svg>
