<svg id="Vögel_2" data-name="Vögel 2" xmlns="http://www.w3.org/2000/svg" width="1757.7" height="668.77" viewBox="0 0 1757.7 668.77">
  <defs>
    <style>
      .cls-1 {
        fill: none;
        stroke: #ffb578;
        stroke-linecap: round;
        stroke-linejoin: round;
        stroke-width: 13.12px;
      }

      .cls-2 {
        fill: #40c96c;
      }

      .cls-3 {
        fill: #ffeacf;
      }

      .cls-4 {
        fill: #ffe3bf;
      }

      .cls-5 {
        fill: #ffefd9;
      }

      .cls-6 {
        fill: #8d2648;
      }

      .cls-7 {
        fill: #ff8a54;
      }

      .cls-8 {
        fill: #b8315e;
      }

      .cls-9 {
        fill: #e44268;
      }

      .cls-10 {
        fill: #fff;
      }

      .cls-11 {
        fill: #ded7cb;
      }

      .cls-12 {
        fill: #afa9a0;
      }

      .cls-13 {
        fill: #f05732;
      }

      .cls-14 {
        fill: #e02b3d;
      }

      .cls-15 {
        fill: #b32231;
      }

      .cls-16 {
        fill: #5f77b5;
      }

      .cls-17 {
        fill: #769ccf;
      }

      .cls-18 {
        fill: #2bb385;
      }

      .cls-19 {
        fill: #0094cb;
      }

      .cls-20 {
        fill: #185b84;
      }

      .cls-21 {
        fill: #e79873;
      }

      .cls-22 {
        fill: #6e3667;
      }

      .cls-23 {
        fill: #37bd6f;
      }
    </style>
  </defs>
  <title>Patreon Header</title>
  <g id="Vögel_2-2" data-name="Vögel 2">
    <path class="cls-1" d="M-16.39,525.23H429.44a21.64,21.64,0,0,0,21.64-21.64V489.7a21.64,21.64,0,0,1,21.64-21.64H573.54a21.64,21.64,0,0,0,21.64-21.64h0a21.64,21.64,0,0,1,21.64-21.64H672a21.64,21.64,0,0,0,21.64-21.64v-30a21.64,21.64,0,0,1,21.64-21.64H913.53"/>
    <path class="cls-1" d="M784.08,351.46v25.87A21.64,21.64,0,0,0,805.72,399h242.46"/>
    <path class="cls-1" d="M869.21,399v44.24a21.64,21.64,0,0,0,21.64,21.64h80.67"/>
    <path class="cls-2" d="M1085.09,391.72c-8,8-23.05,6-23.05,6s-2-15,6-23.05,23.05-6,23.05-6S1093.12,383.68,1085.09,391.72Z"/>
    <path class="cls-2" d="M1005.71,447.11c-8,8-23.05,6-23.05,6s-2-15,6-23.05,23.05-6,23.05-6S1013.74,439.08,1005.71,447.11Z"/>
    <path class="cls-2" d="M1111.9,418.44c-14,0-25.41-14.85-25.41-14.85s11.38-14.85,25.41-14.85,25.41,14.85,25.41,14.85S1125.93,418.44,1111.9,418.44Z"/>
    <path class="cls-2" d="M1063.42,436.34c-9.92-9.92-7.46-28.47-7.46-28.47s18.55-2.46,28.47,7.46,7.46,28.47,7.46,28.47S1073.35,446.26,1063.42,436.34Z"/>
    <path class="cls-2" d="M938.21,315.19c-11.2,8.46-11.32,27.17-11.32,27.17s18,5,29.23-3.47,11.32-27.17,11.32-27.17S949.4,306.73,938.21,315.19Z"/>
    <path class="cls-2" d="M1014.51,461c-12.88-5.58-29.22,3.52-29.22,3.52s4.53,18.15,17.4,23.73,29.22-3.52,29.22-3.52S1027.39,466.57,1014.51,461Z"/>
    <path class="cls-2" d="M890.87,317.53c3.08,13.69,20.07,21.53,20.07,21.53s12-14.36,8.91-28-20.07-21.53-20.07-21.53S887.78,303.84,890.87,317.53Z"/>
    <path class="cls-2" d="M622.1,492.65c-14,.16-25.57-14.57-25.57-14.57s11.21-15,25.24-15.14,25.57,14.57,25.57,14.57S636.13,492.49,622.1,492.65Z"/>
    <path class="cls-2" d="M732.74,423.58c-14,.16-25.57-14.57-25.57-14.57s11.21-15,25.24-15.14S758,408.45,758,408.45,746.77,423.43,732.74,423.58Z"/>
    <path class="cls-2" d="M703,448.72C695.66,441,697.89,427,697.89,427s14.08-1.49,21.39,6.22,5.08,21.69,5.08,21.69S710.28,456.43,703,448.72Z"/>
    <path class="cls-2" d="M617.72,527.73c-10-9.81-7.78-28.38-7.78-28.38s18.52-2.67,28.55,7.15,7.78,28.38,7.78,28.38S627.75,537.54,617.72,527.73Z"/>
    <path class="cls-2" d="M572.77,502.72c-0.13-11.89,12.34-21.66,12.34-21.66s12.69,9.5,12.82,21.38S585.6,524.1,585.6,524.1,572.91,514.61,572.77,502.72Z"/>
    <path class="cls-2" d="M486.92,541.27c-2.27-13.85-18.77-22.67-18.77-22.67s-12.82,13.63-10.55,27.47,18.77,22.67,18.77,22.67S489.19,555.12,486.92,541.27Z"/>
    <path class="cls-2" d="M520.71,530.9c-11.4-8.19-29.3-2.76-29.3-2.76s0.57,18.7,12,26.89,29.3,2.76,29.3,2.76S532.11,539.09,520.71,530.9Z"/>
    <path class="cls-2" d="M491.79,488.08c-13.85,2.27-22.67,18.77-22.67,18.77s13.63,12.82,27.47,10.55,22.67-18.77,22.67-18.77S505.64,485.81,491.79,488.08Z"/>
    <path class="cls-3" d="M402.32,568.9c8.43-6.22,8.69-20.19,8.69-20.19s-13.42-3.89-21.85,2.33-8.69,20.19-8.69,20.19S393.89,575.11,402.32,568.9Z"/>
    <path class="cls-3" d="M420.71,587.83c1.57-10.36-8.13-20.42-8.13-20.42s-12.24,6.74-13.8,17.1,8.13,20.42,8.13,20.42S419.15,598.19,420.71,587.83Z"/>
    <path class="cls-3" d="M439.34,554c-6.22-8.43-20.19-8.69-20.19-8.69s-3.89,13.42,2.33,21.85,20.19,8.69,20.19,8.69S445.56,562.47,439.34,554Z"/>
    <path class="cls-3" d="M121.65,565.11c9.43-4.58,12.22-18.26,12.22-18.26s-12.49-6.27-21.91-1.69-12.22,18.26-12.22,18.26S112.22,569.68,121.65,565.11Z"/>
    <path class="cls-3" d="M136.28,587.08c3.43-9.9-4.27-21.56-4.27-21.56s-13.26,4.4-16.69,14.3,4.27,21.56,4.27,21.56S132.85,597,136.28,587.08Z"/>
    <path class="cls-3" d="M160.75,557.25c-4.58-9.43-18.26-12.22-18.26-12.22s-6.27,12.49-1.69,21.91,18.26,12.22,18.26,12.22S165.33,566.68,160.75,557.25Z"/>
    <path class="cls-4" d="M171.11,460.32c-0.24,13.31,13.66,24.35,13.66,24.35s14.28-10.54,14.52-23.85-13.66-24.35-13.66-24.35S171.35,447,171.11,460.32Z"/>
    <path class="cls-4" d="M137.8,464.25c9.25,9.58,26.88,7.56,26.88,7.56s2.65-17.55-6.6-27.13-26.88-7.56-26.88-7.56S128.55,454.67,137.8,464.25Z"/>
    <path class="cls-4" d="M94.18,502.44c9.25,9.58,26.88,7.56,26.88,7.56s2.65-17.55-6.6-27.13-26.88-7.56-26.88-7.56S84.94,492.86,94.18,502.44Z"/>
    <path class="cls-4" d="M157.52,509.15c13.31,0.24,24.35-13.66,24.35-13.66S171.33,481.2,158,481s-24.35,13.66-24.35,13.66S144.21,508.91,157.52,509.15Z"/>
    <path class="cls-4" d="M1571.58,473.7c-3.18-12.93-19.45-20-19.45-20s-11.1,13.85-7.92,26.78,19.45,20,19.45,20S1574.77,486.63,1571.58,473.7Z"/>
    <path class="cls-4" d="M1577.07,425c-11.39-6.89-27.92-.42-27.92-0.42s1.94,17.65,13.34,24.54,27.92,0.42,27.92.42S1588.47,431.87,1577.07,425Z"/>
    <path class="cls-5" d="M812.85,436.72c10-3.22,14.64-16.39,14.64-16.39S816,412.39,806,415.62,791.39,432,791.39,432,802.88,439.95,812.85,436.72Z"/>
    <path class="cls-5" d="M824.29,460.51c4.77-9.33-1.24-21.94-1.24-21.94s-13.74,2.52-18.51,11.84,1.24,21.94,1.24,21.94S819.52,469.84,824.29,460.51Z"/>
    <path class="cls-5" d="M852.67,434.36c-3.22-10-16.39-14.64-16.39-14.64s-7.94,11.5-4.71,21.46S848,455.83,848,455.83,855.89,444.33,852.67,434.36Z"/>
    <path class="cls-5" d="M947.51,501.06c10-3.22,14.64-16.39,14.64-16.39s-11.5-7.94-21.46-4.71S926,496.34,926,496.34,937.54,504.28,947.51,501.06Z"/>
    <path class="cls-5" d="M958.95,524.84c4.77-9.33-1.24-21.94-1.24-21.94S944,505.42,939.2,514.75s1.24,21.94,1.24,21.94S954.18,534.17,958.95,524.84Z"/>
    <path class="cls-5" d="M987.33,498.7c-3.22-10-16.39-14.64-16.39-14.64s-7.94,11.5-4.71,21.46,16.39,14.64,16.39,14.64S990.55,508.67,987.33,498.7Z"/>
    <path class="cls-3" d="M596.87,555.37c-6.38-8.31-2.76-21.8-2.76-21.8s14,0,20.35,8.29,2.76,21.8,2.76,21.8S603.25,563.68,596.87,555.37Z"/>
    <path class="cls-5" d="M662.54,471.53c-8.4-6.27-8.57-20.24-8.57-20.24s13.44-3.81,21.84,2.46S684.38,474,684.38,474,670.94,477.79,662.54,471.53Z"/>
    <path class="cls-3" d="M551.55,541.3c-2.61-10.15,6-21.13,6-21.13s12.85,5.47,15.46,15.62-6,21.13-6,21.13S554.15,551.45,551.55,541.3Z"/>
    <path class="cls-6" d="M869,440.7a5.35,5.35,0,0,0,.58,9.84h0a5.35,5.35,0,0,0,4.09-.21L931.44,422l-4.87-9.81Z"/>
    <path class="cls-7" d="M951.74,409H938.63a4,4,0,0,1-4-4h0a4,4,0,0,1,4-4h13.11a4,4,0,0,1,4,4h0A4,4,0,0,1,951.74,409Z"/>
    <path class="cls-7" d="M925.18,454a2.47,2.47,0,0,1-2.48,2.47h0a2.45,2.45,0,0,1-2.46-2.47V418a2.45,2.45,0,0,1,2.46-2.47h0a2.47,2.47,0,0,1,2.48,2.47v36Z"/>
    <path class="cls-7" d="M914.77,454a2.46,2.46,0,0,1-2.46,2.47h0a2.47,2.47,0,0,1-2.49-2.47V418a2.47,2.47,0,0,1,2.49-2.47h0a2.46,2.46,0,0,1,2.46,2.47v36Z"/>
    <path class="cls-7" d="M932.26,456.47a2.68,2.68,0,0,1-2.69,2.69H904.45a2.69,2.69,0,0,1-2.69-2.69h0a2.69,2.69,0,0,1,2.69-2.69h25.12a2.69,2.69,0,0,1,2.69,2.69h0Z"/>
    <path class="cls-8" d="M857.2,438.08a5.35,5.35,0,0,0,.58,9.84h0a5.35,5.35,0,0,0,4.09-.21l57.74-28.29-4.87-9.81Z"/>
    <path class="cls-6" d="M945.18,388.29l-23-7.78a5.35,5.35,0,0,0-6.55,7.37h0a5.35,5.35,0,0,0,3,2.75l21.18,7.25Q942.51,393.08,945.18,388.29Z"/>
    <path class="cls-9" d="M862.88,437h0a5.35,5.35,0,0,0,4.09-.21l16.57-7.88a5.35,5.35,0,0,1,4.09-.21l21.59,7.68a22.94,22.94,0,0,0,29.29-13.93l9.83-27.63a5.35,5.35,0,0,0-7.42-6.59L862.3,427.13A5.35,5.35,0,0,0,862.88,437Z"/>
    <circle class="cls-10" cx="935.8" cy="402.82" r="4.35" transform="translate(-81.53 457.73) rotate(-26.38)"/>
    <path class="cls-7" d="M532,457.75a2.13,2.13,0,0,1-2.15,2.13h0a2.12,2.12,0,0,1-2.13-2.13V433.67a2.12,2.12,0,0,1,2.13-2.14h0a2.13,2.13,0,0,1,2.15,2.14v24.08Z"/>
    <path class="cls-7" d="M523,457.75a2.13,2.13,0,0,1-2.13,2.13h0a2.14,2.14,0,0,1-2.15-2.13V433.67a2.14,2.14,0,0,1,2.15-2.14h0a2.13,2.13,0,0,1,2.13,2.14v24.08Z"/>
    <path class="cls-7" d="M538.1,459.88a2.32,2.32,0,0,1-2.33,2.33H514a2.32,2.32,0,0,1-2.32-2.33h0a2.32,2.32,0,0,1,2.32-2.32h21.73a2.32,2.32,0,0,1,2.33,2.32h0Z"/>
    <path class="cls-11" d="M489.51,454.94h0a5.66,5.66,0,0,0,4-1.66l5.16-5.16a5.66,5.66,0,0,1,4-1.66H526.9a24.24,24.24,0,0,0,24.24-24.24v-16.6a11.49,11.49,0,0,0-19.75-8l-46,47.72A5.66,5.66,0,0,0,489.51,454.94Z"/>
    <path class="cls-7" d="M552.37,419.53H536.05a5,5,0,0,1-5-5h0a5,5,0,0,1,5-5h16.32a5,5,0,0,1,5,5h0A5,5,0,0,1,552.37,419.53Z"/>
    <path class="cls-12" d="M498.67,448.12l49.85-49.85a11.5,11.5,0,0,0-17.13-.65l-46,47.72a5.66,5.66,0,0,0,8.07,7.94l5.16-5.16h0Z"/>
    <path class="cls-13" d="M551.14,422.22v-16.6a11.24,11.24,0,0,0-3.74-8.51,24,24,0,0,0-5.35,44A24.19,24.19,0,0,0,551.14,422.22Z"/>
    <circle class="cls-10" cx="542.03" cy="412.17" r="5.34"/>
    <path class="cls-7" d="M847,340.49a2.54,2.54,0,0,1-2.55,2.54h0a2.52,2.52,0,0,1-2.53-2.54V311.85a2.52,2.52,0,0,1,2.53-2.54h0a2.54,2.54,0,0,1,2.55,2.54v28.64Z"/>
    <path class="cls-7" d="M836.27,340.49a2.53,2.53,0,0,1-2.53,2.54h0a2.54,2.54,0,0,1-2.56-2.54V311.85a2.54,2.54,0,0,1,2.56-2.54h0a2.53,2.53,0,0,1,2.53,2.54v28.64Z"/>
    <path class="cls-7" d="M854.26,343a2.76,2.76,0,0,1-2.77,2.77H825.65a2.76,2.76,0,0,1-2.76-2.77h0a2.76,2.76,0,0,1,2.76-2.76h25.84a2.76,2.76,0,0,1,2.77,2.76h0Z"/>
    <path class="cls-7" d="M870,292.19h-25.8V303H870A5.43,5.43,0,0,0,870,292.19Z"/>
    <path class="cls-14" d="M858,295.92a9.21,9.21,0,0,1-9.21-9.21V256.11c0-.31.81,0.08,2.07,0.89a33.56,33.56,0,0,1,15.48,28.36v2.22a8.34,8.34,0,0,1-8.34,8.34h0Z"/>
    <path class="cls-14" d="M858.71,294a9.21,9.21,0,0,1-12.4-4l-13.93-27.23c-0.14-.27.76-0.29,2.25-0.15a33.56,33.56,0,0,1,26.7,18.19l1,2A8.34,8.34,0,0,1,858.71,294h0Z"/>
    <path class="cls-14" d="M857.84,293.57a9.21,9.21,0,0,1-12.94,1.5l-24-19c-0.24-.19.57-0.58,2-1.07a33.56,33.56,0,0,1,31.84,5.46l1.74,1.38a8.34,8.34,0,0,1,1.36,11.72h0Z"/>
    <path class="cls-15" d="M801.87,327.56a4.42,4.42,0,0,1-4.43-4.42c0-6.35,34.76-46.32,51.93-46.32,9.39,0,17,0,17,14.62v4.38a31.74,31.74,0,0,1-31.74,31.74H801.87Z"/>
    <circle class="cls-10" cx="848.85" cy="293.13" r="6.26"/>
    <path class="cls-14" d="M795.74,317.57a2.39,2.39,0,0,1-2.39-2.39c0-3.43,22.84-25,32.11-25,5.07,0,9.19,0,9.19,7.9v10.34a9.18,9.18,0,0,1-9.19,9.17H795.74Z"/>
    <path class="cls-7" d="M651.09,415.08a2.22,2.22,0,0,1-2.23,2.22h0a2.21,2.21,0,0,1-2.21-2.22V390a2.21,2.21,0,0,1,2.21-2.23h0a2.22,2.22,0,0,1,2.23,2.23v25.08Z"/>
    <path class="cls-7" d="M641.71,415.08a2.22,2.22,0,0,1-2.22,2.22h0a2.23,2.23,0,0,1-2.24-2.22V390a2.23,2.23,0,0,1,2.24-2.23h0a2.22,2.22,0,0,1,2.22,2.23v25.08Z"/>
    <path class="cls-7" d="M657.47,417.31a2.42,2.42,0,0,1-2.42,2.42H632.42a2.42,2.42,0,0,1-2.42-2.42h0a2.42,2.42,0,0,1,2.42-2.42h22.63a2.42,2.42,0,0,1,2.42,2.42h0Z"/>
    <path class="cls-7" d="M678.74,348.75a6.88,6.88,0,0,1-6.88,6.88H657a6.88,6.88,0,0,1-6.88-6.88h0a6.88,6.88,0,0,1,6.88-6.88h14.85a6.88,6.88,0,0,1,6.88,6.88h0Z"/>
    <path class="cls-16" d="M606.5,403.75a3.87,3.87,0,0,1-3.88-3.87c0-5.56,37-40.57,52.08-40.57,8.23,0,14.9,0,14.9,12.8V376a27.8,27.8,0,0,1-27.8,27.8H606.5Z"/>
    <circle class="cls-16" cx="653.1" cy="355.63" r="19.93"/>
    <circle class="cls-10" cx="656.74" cy="348.75" r="6.61"/>
    <path class="cls-17" d="M605.37,391.24a2.68,2.68,0,0,1-2.73-2.64c-0.06-3.85,25.2-28.47,35.61-28.63,5.69-.09,10.31-0.16,10.45,8.7l0.18,11.6a10.3,10.3,0,0,1-10.15,10.45h0Z"/>
    <path class="cls-16" d="M653.1,335.7H620.22a1.49,1.49,0,0,0-.74,2.79l19.67,11.28Z"/>
    <polygon class="cls-16" points="669.53 365.17 669.53 377.46 664.25 378.68 669.53 365.17"/>
    <path class="cls-7" d="M1051.49,346.18H1035a5.08,5.08,0,0,1-5.07-5.07h0A5.08,5.08,0,0,1,1035,336h16.5a5.08,5.08,0,0,1,5.07,5.07h0A5.08,5.08,0,0,1,1051.49,346.18Z"/>
    <path class="cls-7" d="M1025.65,388.12a2.32,2.32,0,0,1-2.34,2.32h0a2.31,2.31,0,0,1-2.31-2.32l-12.39-26.21a2.31,2.31,0,0,1,2.31-2.33h0a2.32,2.32,0,0,1,2.34,2.33Z"/>
    <path class="cls-7" d="M1015.85,388.12a2.32,2.32,0,0,1-2.32,2.32h0a2.33,2.33,0,0,1-2.34-2.32L998.8,361.9a2.33,2.33,0,0,1,2.34-2.33h0a2.32,2.32,0,0,1,2.32,2.33Z"/>
    <path class="cls-7" d="M1032.32,390.44a2.53,2.53,0,0,1-2.53,2.53h-23.66a2.53,2.53,0,0,1-2.53-2.53h0a2.53,2.53,0,0,1,2.53-2.53h23.66a2.53,2.53,0,0,1,2.53,2.53h0Z"/>
    <path class="cls-18" d="M960.73,351.62h0a6.16,6.16,0,0,0,4.56,1.21l7.88-1a6.16,6.16,0,0,1,4.56,1.21l20.94,16a26.39,26.39,0,0,0,37-4.92l11-14.36a12.51,12.51,0,0,0-11.78-20l-71.3,10.86A6.16,6.16,0,0,0,960.73,351.62Z"/>
    <path class="cls-19" d="M973.17,351.79l76.08-10.13a12.52,12.52,0,0,0-14.38-11.89l-71.3,10.86a6.16,6.16,0,0,0,1.72,12.2l7.88-1h0Z"/>
    <path class="cls-20" d="M1034.87,329.77l-12.14,1.85c-3.36,3.44-7.61,10.16-2.05,19.06,3.71,5.94,11.63,7.72,19.22,7.89l6.75-8.82A12.51,12.51,0,0,0,1034.87,329.77Z"/>
    <circle class="cls-10" cx="1034.94" cy="341.05" r="5.02"/>
    <path class="cls-7" d="M389.16,446.94H372a5.27,5.27,0,0,1-5.25-5.25h0a5.27,5.27,0,0,1,5.25-5.25h17.11a5.27,5.27,0,0,1,5.25,5.25h0A5.27,5.27,0,0,1,389.16,446.94Z"/>
    <path class="cls-7" d="M370.1,514.32a2.6,2.6,0,0,1-2.62,2.6h0a2.59,2.59,0,0,1-2.59-2.6V485a2.59,2.59,0,0,1,2.59-2.61h0A2.6,2.6,0,0,1,370.1,485v29.37Z"/>
    <path class="cls-7" d="M359.12,514.32a2.6,2.6,0,0,1-2.6,2.6h0a2.61,2.61,0,0,1-2.62-2.6V485a2.61,2.61,0,0,1,2.62-2.61h0a2.6,2.6,0,0,1,2.6,2.61v29.37Z"/>
    <path class="cls-7" d="M377.57,516.92a2.83,2.83,0,0,1-2.84,2.84h-26.5a2.83,2.83,0,0,1-2.83-2.84h0a2.83,2.83,0,0,1,2.83-2.83h26.5a2.83,2.83,0,0,1,2.84,2.83h0Z"/>
    <path class="cls-21" d="M318.37,514.16h0a6.08,6.08,0,0,0,4.3-1.78l9.52-10.46a6.08,6.08,0,0,1,4.3-1.78h26a26,26,0,0,0,26-26v-23.6a10,10,0,0,0-17.18-7L314,503.85A6.08,6.08,0,0,0,318.37,514.16Z"/>
    <path class="cls-22" d="M372.36,424.2h0a16.16,16.16,0,0,1,16.16,16.16v18.82a0,0,0,0,1,0,0H356.2a0,0,0,0,1,0,0V440.36A16.16,16.16,0,0,1,372.36,424.2Z"/>
    <circle class="cls-10" cx="372.36" cy="441.69" r="6.72"/>
    <path class="cls-23" d="M1085.09,391.72c8-8,6-23.05,6-23.05L1062,397.76S1077.05,399.75,1085.09,391.72Z"/>
    <path class="cls-23" d="M1005.71,447.11c8-8,6-23.05,6-23.05l-29.09,29.09S997.67,455.15,1005.71,447.11Z"/>
    <path class="cls-23" d="M1137.31,403.58h-50.82s11.38,14.85,25.41,14.85S1137.31,403.58,1137.31,403.58Z"/>
    <path class="cls-23" d="M1063.42,436.34c9.92,9.92,28.47,7.46,28.47,7.46L1056,407.87S1053.5,426.42,1063.42,436.34Z"/>
    <path class="cls-23" d="M1002.7,488.25c12.88,5.58,29.22-3.52,29.22-3.52l-46.62-20.21S989.82,482.67,1002.7,488.25Z"/>
    <path class="cls-2" d="M1645,447.31c-8-8-6-23.05-6-23.05s15-2,23.05,6,6,23.05,6,23.05S1653,455.34,1645,447.31Z"/>
    <path class="cls-2" d="M1631.13,456.11c5.58-12.88-3.52-29.22-3.52-29.22s-18.15,4.53-23.73,17.4,3.52,29.22,3.52,29.22S1625.55,469,1631.13,456.11Z"/>
    <path class="cls-23" d="M1645,447.31c8,8,23.05,6,23.05,6L1639,424.26S1637,439.27,1645,447.31Z"/>
    <path class="cls-23" d="M1603.87,444.3c-5.58,12.88,3.52,29.22,3.52,29.22l20.21-46.62S1609.45,431.42,1603.87,444.3Z"/>
    <path class="cls-2" d="M1539.17,368.25c-5.7,8-1.9,20.44-1.9,20.44s13-.41,18.75-8.37,1.9-20.44,1.9-20.44S1544.87,360.29,1539.17,368.25Z"/>
    <path class="cls-2" d="M1526.13,362.71c6.55,10.16,1.11,25.33,1.11,25.33s-16.07-1.3-22.62-11.46-1.11-25.33-1.11-25.33S1519.58,352.55,1526.13,362.71Z"/>
    <path class="cls-23" d="M1539.17,368.25c5.7-8,18.75-8.37,18.75-8.37l-20.65,28.82S1533.46,376.2,1539.17,368.25Z"/>
    <path class="cls-23" d="M1504.62,376.58c-6.55-10.16-1.11-25.33-1.11-25.33l23.72,36.8S1511.17,386.74,1504.62,376.58Z"/>
    <path class="cls-23" d="M926.89,342.36s18,5,29.23-3.47,11.32-27.17,11.32-27.17Z"/>
    <path class="cls-23" d="M890.87,317.53c3.08,13.69,20.07,21.53,20.07,21.53l-11.16-49.58S887.78,303.84,890.87,317.53Z"/>
    <path class="cls-23" d="M622.1,492.65c14-.16,25.24-15.14,25.24-15.14l-50.81.57S608.07,492.8,622.1,492.65Z"/>
    <path class="cls-23" d="M732.74,423.58c14-.16,25.24-15.14,25.24-15.14l-50.81.57S718.71,423.74,732.74,423.58Z"/>
    <path class="cls-23" d="M703,448.72c7.31,7.71,21.39,6.22,21.39,6.22L697.89,427S695.66,441,703,448.72Z"/>
    <path class="cls-23" d="M617.72,527.73c10,9.81,28.55,7.15,28.55,7.15l-36.33-35.53S607.69,517.92,617.72,527.73Z"/>
    <path class="cls-23" d="M572.77,502.72c0.13,11.89,12.82,21.38,12.82,21.38l-0.48-43S572.64,490.84,572.77,502.72Z"/>
    <path class="cls-23" d="M457.6,546.07c2.27,13.85,18.77,22.67,18.77,22.67l-8.21-50.15S455.33,532.23,457.6,546.07Z"/>
    <path class="cls-23" d="M503.38,555c11.4,8.19,29.3,2.76,29.3,2.76l-41.27-29.65S492,546.84,503.38,555Z"/>
    <path class="cls-2" d="M310.17,565c-2.27-13.85-18.77-22.67-18.77-22.67S278.59,556,280.85,569.82s18.77,22.67,18.77,22.67S312.44,578.86,310.17,565Z"/>
    <path class="cls-2" d="M344,554.65c-11.4-8.19-29.3-2.76-29.3-2.76s0.57,18.7,12,26.89,29.3,2.76,29.3,2.76S355.36,562.83,344,554.65Z"/>
    <path class="cls-23" d="M280.85,569.82c2.27,13.85,18.77,22.67,18.77,22.67l-8.21-50.15S278.59,556,280.85,569.82Z"/>
    <path class="cls-23" d="M326.63,578.77c11.4,8.19,29.3,2.76,29.3,2.76l-41.27-29.65S315.24,570.58,326.63,578.77Z"/>
    <path class="cls-23" d="M496.59,517.4c13.85-2.27,22.67-18.77,22.67-18.77l-50.15,8.21S482.75,519.66,496.59,517.4Z"/>
    <path class="cls-2" d="M268.94,477.36C257.56,485.56,257,504.27,257,504.27s17.91,5.4,29.3-2.81,11.92-26.91,11.92-26.91S280.32,469.15,268.94,477.36Z"/>
    <path class="cls-2" d="M244.58,451.73c-2.25,13.85,10.6,27.46,10.6,27.46s16.48-8.85,18.73-22.7S263.31,429,263.31,429,246.83,437.88,244.58,451.73Z"/>
    <path class="cls-2" d="M219.15,496.72c8.21,11.38,26.91,11.92,26.91,11.92s5.4-17.91-2.81-29.3-26.91-11.92-26.91-11.92S210.95,485.34,219.15,496.72Z"/>
    <path class="cls-23" d="M286.31,501.46c11.38-8.21,11.92-26.91,11.92-26.91L257,504.27S274.93,509.66,286.31,501.46Z"/>
    <path class="cls-23" d="M273.91,456.49c2.25-13.85-10.6-27.46-10.6-27.46l-8.13,50.16S271.66,470.34,273.91,456.49Z"/>
    <path class="cls-23" d="M243.25,479.35C235,468,216.34,467.42,216.34,467.42l29.72,41.22S251.46,490.73,243.25,479.35Z"/>
    <path class="cls-2" d="M203.42,574.14c13.7-3,21.58-20,21.58-20s-14.33-12-28-9-21.58,20-21.58,20S189.72,577.19,203.42,574.14Z"/>
    <path class="cls-2" d="M215.67,607.3c7.53-11.84,1.11-29.41,1.11-29.41s-18.64,1.62-26.17,13.46-1.11,29.41-1.11,29.41S208.14,619.14,215.67,607.3Z"/>
    <path class="cls-2" d="M256.8,576c-3-13.7-20-21.58-20-21.58s-12,14.33-9,28,20,21.58,20,21.58S259.85,589.72,256.8,576Z"/>
    <path class="cls-23" d="M197,545.14c-13.7,3-21.58,20-21.58,20l49.61-11S210.67,542.1,197,545.14Z"/>
    <path class="cls-23" d="M190.61,591.35c-7.53,11.84-1.11,29.41-1.11,29.41l27.28-42.87S198.14,579.52,190.61,591.35Z"/>
    <path class="cls-23" d="M227.8,582.46c3,13.7,20,21.58,20,21.58l-11-49.61S224.76,568.76,227.8,582.46Z"/>
    <path class="cls-3" d="M1416.11,571.44c6.5-8.22,3.07-21.76,3.07-21.76s-14-.22-20.47,8-3.07,21.76-3.07,21.76S1409.61,579.66,1416.11,571.44Z"/>
    <path class="cls-3" d="M1438.83,584.88c-1.21-10.41-13.21-17.56-13.21-17.56s-10,9.72-8.82,20.13S1430,605,1430,605,1440,595.28,1438.83,584.88Z"/>
    <path class="cls-3" d="M1237.39,591.33c1.57-10.36-8.13-20.42-8.13-20.42s-12.24,6.74-13.8,17.1,8.13,20.42,8.13,20.42S1235.83,601.69,1237.39,591.33Z"/>
    <path class="cls-3" d="M1256,557.54c-6.22-8.43-20.19-8.69-20.19-8.69s-3.89,13.42,2.33,21.85,20.19,8.69,20.19,8.69S1262.24,566,1256,557.54Z"/>
    <path class="cls-2" d="M1199.79,529.48c13.41-4.12,28.65,6.73,28.65,6.73s-6.51,17.54-19.92,21.67-28.65-6.73-28.65-6.73S1186.38,533.6,1199.79,529.48Z"/>
    <path class="cls-2" d="M1229.81,501.29c9.29,4.92,11.61,18.74,11.61,18.74s-12.74,5.85-22,.93-11.61-18.74-11.61-18.74S1220.52,496.37,1229.81,501.29Z"/>
    <path class="cls-2" d="M1390.79,476.39c8,11.53,26.69,12.41,26.69,12.41s5.72-17.81-2.27-29.34S1388.52,447,1388.52,447,1382.79,464.86,1390.79,476.39Z"/>
    <path class="cls-2" d="M1397,517.1c10.34,1.87,20.71-7.56,20.71-7.56s-6.4-12.47-16.75-14.34-20.71,7.56-20.71,7.56S1386.64,515.23,1397,517.1Z"/>
    <path class="cls-2" d="M1427.17,547.3c-1.87-10.34,7.56-20.71,7.56-20.71s12.47,6.4,14.34,16.75-7.56,20.71-7.56,20.71S1429,557.64,1427.17,547.3Z"/>
    <path class="cls-1" d="M1242.58,537.14h145.49A46.11,46.11,0,0,0,1434.18,491V441.29A38.28,38.28,0,0,1,1472.46,403h326.36"/>
    <path class="cls-12" d="M1315.9,467.85l-35,37.94a6,6,0,0,0,8.62,8.48L1320.88,482Z"/>
    <path class="cls-12" d="M1329.61,465.63l-35,37.94a6,6,0,0,0,8.62,8.48l31.36-32.29Z"/>
    <path class="cls-7" d="M1323.35,440.5h-30.92a3.93,3.93,0,0,1-3.92-3.92h0a3.93,3.93,0,0,1,3.92-3.92h30.92a3.93,3.93,0,0,1,3.92,3.92h0A3.93,3.93,0,0,1,1323.35,440.5Z"/>
    <path class="cls-7" d="M1333.13,525.71a2.59,2.59,0,0,1-2.6,2.59h0a2.57,2.57,0,0,1-2.58-2.59V479.62a2.57,2.57,0,0,1,2.58-2.59h0a2.59,2.59,0,0,1,2.6,2.59v46.09Z"/>
    <path class="cls-7" d="M1322.21,525.71a2.59,2.59,0,0,1-2.59,2.59h0a2.59,2.59,0,0,1-2.61-2.59V479.62a2.59,2.59,0,0,1,2.61-2.59h0a2.59,2.59,0,0,1,2.59,2.59v46.09Z"/>
    <path class="cls-7" d="M1340.57,528.3a2.82,2.82,0,0,1-2.82,2.82h-26.36a2.82,2.82,0,0,1-2.82-2.82h0a2.82,2.82,0,0,1,2.82-2.82h26.36a2.82,2.82,0,0,1,2.82,2.82h0Z"/>
    <path class="cls-11" d="M1281.66,508.68h0a6,6,0,0,0,4.28-1.77l9.47-10.4a6,6,0,0,1,4.28-1.77h25.88a25.9,25.9,0,0,0,25.9-25.9V445.36a10,10,0,0,0-17.09-6.92l-57,60A6,6,0,0,0,1281.66,508.68Z"/>
    <path class="cls-20" d="M1335.38,419.18h0a16.08,16.08,0,0,1,16.08,16.08V454a0,0,0,0,1,0,0h-32.15a0,0,0,0,1,0,0V435.25A16.08,16.08,0,0,1,1335.38,419.18Z"/>
    <circle class="cls-10" cx="1334.15" cy="437.81" r="5.45"/>
    <path class="cls-12" d="M1295.41,496.5l30.15-1.77a25.9,25.9,0,0,0,25.9-25.9l-37,15.14a58.71,58.71,0,0,0-19,12.53h0Z"/>
    <path class="cls-23" d="M1208.52,557.87c13.41-4.12,19.92-21.67,19.92-21.67l-48.57,14.94S1195.11,562,1208.52,557.87Z"/>
    <path class="cls-23" d="M1219.4,521c9.29,4.92,22-.93,22-0.93l-33.64-17.82S1210.11,516,1219.4,521Z"/>
    <path class="cls-23" d="M1417.48,488.8l-29-41.76s-5.72,17.81,2.27,29.34S1417.48,488.8,1417.48,488.8Z"/>
    <path class="cls-23" d="M1397,517.1c10.34,1.87,20.71-7.56,20.71-7.56l-37.46-6.78S1386.64,515.23,1397,517.1Z"/>
    <path class="cls-23" d="M1434.73,526.58s-9.43,10.37-7.56,20.71S1441.51,564,1441.51,564Z"/>
    <path class="cls-2" d="M1505.53,441.63C1494.2,440.71,1486,428,1486,428s10.16-11.24,21.48-10.31S1527,431.32,1527,431.32,1516.85,442.56,1505.53,441.63Z"/>
    <path class="cls-2" d="M1502.51,479.37c-9.08-10.7-5.12-29-5.12-29s18.69-.94,27.77,9.76,5.12,29,5.12,29S1511.59,490.07,1502.51,479.37Z"/>
    <path class="cls-2" d="M1457.49,454c1.14-14,16.88-24.11,16.88-24.11s13.88,12.55,12.73,26.53-16.88,24.11-16.88,24.11S1456.34,468,1457.49,454Z"/>
    <path class="cls-23" d="M1505.53,441.63c11.32,0.93,21.48-10.31,21.48-10.31L1486,428S1494.2,440.71,1505.53,441.63Z"/>
    <path class="cls-23" d="M1530.27,489.13l-32.88-38.74s-4,18.29,5.12,29S1530.27,489.13,1530.27,489.13Z"/>
    <path class="cls-23" d="M1457.49,454c-1.14,14,12.73,26.53,12.73,26.53l4.14-50.65S1458.63,440,1457.49,454Z"/>
  </g>
</svg>
