<svg id="Vögel_1" data-name="Vögel 1" xmlns="http://www.w3.org/2000/svg" width="1757.7" height="668.77" viewBox="0 0 1757.7 668.77">
  <defs>
    <style>
      .cls-1 {
        fill: #ffe3bf;
      }

      .cls-2 {
        fill: #40c96c;
      }

      .cls-3 {
        fill: none;
        stroke: #ffb578;
        stroke-linecap: round;
        stroke-linejoin: round;
        stroke-width: 13.12px;
      }

      .cls-4 {
        fill: #ff8a54;
      }

      .cls-5 {
        fill: #185b84;
      }

      .cls-6 {
        fill: #00bb83;
      }

      .cls-7 {
        fill: #fff;
      }

      .cls-8 {
        fill: #e02b61;
      }

      .cls-9 {
        fill: #ff4079;
      }

      .cls-10 {
        fill: #cf4e73;
      }

      .cls-11 {
        fill: #962463;
      }

      .cls-12 {
        fill: #37bd6f;
      }

      .cls-13 {
        fill: #0094cb;
      }

      .cls-14 {
        fill: #6e3667;
      }
    </style>
  </defs>
  <title>Patreon Header</title>
  <g id="Vögel_1-2" data-name="Vögel 1">
    <path class="cls-1" d="M1379.2,362.62c9.07,1.82,18.34-6.31,18.34-6.31s-5.43-11.07-14.5-12.89-18.34,6.31-18.34,6.31S1370.13,360.8,1379.2,362.62Z"/>
    <path class="cls-1" d="M1377.75,385.87c7.7-5.13,8.51-17.43,8.51-17.43s-11.67-4-19.37,1.13-8.51,17.43-8.51,17.43S1370,391,1377.75,385.87Z"/>
    <path class="cls-1" d="M1440.63,375.49c-1.5-8.29-11.48-13.43-11.48-13.43s-7.56,8.3-6.07,16.6,11.48,13.43,11.48,13.43S1442.13,383.78,1440.63,375.49Z"/>
    <path class="cls-1" d="M1460.82,368.94c-6.92-4.81-17.62-1.38-17.62-1.38s0.52,11.22,7.44,16,17.62,1.38,17.62,1.38S1467.74,373.74,1460.82,368.94Z"/>
    <path class="cls-1" d="M1443,343.51c-8.29,1.5-13.43,11.48-13.43,11.48s8.3,7.56,16.6,6.07,13.43-11.48,13.43-11.48S1451.34,342,1443,343.51Z"/>
    <path class="cls-1" d="M1477,293.62c-8.19,2-12.71,12.28-12.71,12.28s8.75,7,16.93,5.05S1494,298.68,1494,298.68,1485.22,291.63,1477,293.62Z"/>
    <path class="cls-1" d="M1469.27,273.87c-4.38,7.2-.31,17.67-0.31,17.67s11.17-1.2,15.55-8.4,0.31-17.67.31-17.67S1473.65,266.67,1469.27,273.87Z"/>
    <path class="cls-1" d="M1445,293.15c2,8.19,12.28,12.71,12.28,12.71s7-8.75,5.05-16.93S1450,276.22,1450,276.22,1443,285,1445,293.15Z"/>
    <path class="cls-2" d="M1121,242.43c-3.38,10.63,5.14,22.83,5.14,22.83s14-5,17.37-15.68-5.14-22.83-5.14-22.83S1124.37,231.8,1121,242.43Z"/>
    <line class="cls-3" x1="1796.94" y1="328.56" x2="1189.22" y2="328.56"/>
    <path class="cls-3" d="M1378.88,328.56V302.69A21.64,21.64,0,0,0,1357.23,281H1114.78"/>
    <path class="cls-2" d="M1079.36,287.91c7.51-7.51,21.56-5.65,21.56-5.65s1.86,14-5.65,21.56-21.56,5.65-21.56,5.65S1071.85,295.42,1079.36,287.91Z"/>
    <path class="cls-2" d="M1051.05,261.58c14,0,25.41,14.85,25.41,14.85s-11.38,14.85-25.41,14.85-25.41-14.85-25.41-14.85S1037,261.58,1051.05,261.58Z"/>
    <path class="cls-2" d="M1099.53,243.68c9.92,9.92,7.46,28.47,7.46,28.47s-18.55,2.46-28.47-7.46-7.46-28.47-7.46-28.47S1089.61,233.76,1099.53,243.68Z"/>
    <path class="cls-2" d="M1429.41,275.83c-7.91,7.91-22.68,5.95-22.68,5.95s-2-14.78,5.95-22.68,22.68-5.95,22.68-5.95S1437.32,267.92,1429.41,275.83Z"/>
    <path class="cls-2" d="M1412.19,313.22c-11.18,0-20.24-11.84-20.24-11.84s9.06-11.84,20.24-11.84,20.24,11.84,20.24,11.84S1423.37,313.22,1412.19,313.22Z"/>
    <path class="cls-2" d="M1197.34,361.31c6.76-8,3.79-21.59,3.79-21.59s-13.91-.69-20.67,7.28-3.79,21.59-3.79,21.59S1190.59,369.28,1197.34,361.31Z"/>
    <path class="cls-2" d="M1153.06,344.43c13.85-2.28,22.66-18.78,22.66-18.78s-13.64-12.81-27.48-10.53-22.66,18.78-22.66,18.78S1139.22,346.71,1153.06,344.43Z"/>
    <path class="cls-2" d="M1146.55,497.15c13-5.17,18.14-23.18,18.14-23.18s-16.05-9.61-29.09-4.44-18.14,23.18-18.14,23.18S1133.51,502.32,1146.55,497.15Z"/>
    <path class="cls-2" d="M1261,356.07c-8.6-6.7-22.66-3-22.66-3s-0.12,14.53,8.48,21.23,22.66,3,22.66,3S1269.6,362.77,1261,356.07Z"/>
    <path class="cls-3" d="M1411.12,329.26V366.9A36.11,36.11,0,0,1,1375,403h-4.61a36.11,36.11,0,0,0-36.11,36.11h0a36.11,36.11,0,0,1-36.11,36.11H1176.44"/>
    <path class="cls-3" d="M1346.2,412.32h0a37.11,37.11,0,0,0-37.11-37.11h-25.24"/>
    <path class="cls-4" d="M1294.3,213.68h14.46a2.59,2.59,0,0,0,2.58-2.58h0a2.59,2.59,0,0,0-2.58-2.58H1294.3a2.59,2.59,0,0,0-2.58,2.58h0A2.59,2.59,0,0,0,1294.3,213.68Z"/>
    <path class="cls-4" d="M1318.85,271a2.18,2.18,0,0,0,2.19,2.18h0a2.16,2.16,0,0,0,2.17-2.18V246.49a2.16,2.16,0,0,0-2.17-2.18h0a2.18,2.18,0,0,0-2.19,2.18V271Z"/>
    <path class="cls-4" d="M1328,271a2.17,2.17,0,0,0,2.17,2.18h0a2.18,2.18,0,0,0,2.19-2.18V246.49a2.18,2.18,0,0,0-2.19-2.18h0a2.17,2.17,0,0,0-2.17,2.18V271Z"/>
    <path class="cls-4" d="M1312.6,273.21a2.37,2.37,0,0,0,2.37,2.37h22.15a2.37,2.37,0,0,0,2.37-2.37h0a2.37,2.37,0,0,0-2.37-2.37H1315a2.37,2.37,0,0,0-2.37,2.37h0Z"/>
    <path class="cls-5" d="M1381.33,261.95h0a5.08,5.08,0,0,1-3.87-.32L1362,253.68a5.08,5.08,0,0,0-3.87-.32L1337.41,260A21.75,21.75,0,0,1,1310,246l-6-18.77a8.36,8.36,0,0,1,11.89-9.93l66.28,35.36A5.08,5.08,0,0,1,1381.33,261.95Z"/>
    <path class="cls-6" d="M1317,195.72h30.33l-20.75,20.75,3.92,8.48h-27V209.22A13.5,13.5,0,0,1,1317,195.72Z"/>
    <circle class="cls-7" cx="1312.6" cy="208.45" r="3.99"/>
    <path class="cls-4" d="M1241.93,242.51a3.9,3.9,0,0,1-3.91,3.91h-36.51a3.9,3.9,0,0,1-3.9-3.91h0a3.9,3.9,0,0,1,3.9-3.9H1238a3.9,3.9,0,0,1,3.91,3.9h0Z"/>
    <path class="cls-8" d="M1228.79,290.46a2.25,2.25,0,0,1-2.24-2.27c0-3.23,21.68-23.39,30.41-23.32,4.78,0,8.65.07,8.59,7.5l-0.07,9.73a8.64,8.64,0,0,1-8.71,8.57h0Z"/>
    <path class="cls-4" d="M1242.23,318.76a2.05,2.05,0,0,1-2.06,2.05h0a2,2,0,0,1-2-2.05V288.21a2,2,0,0,1,2-2.05h0a2.05,2.05,0,0,1,2.06,2.05v30.55Z"/>
    <path class="cls-4" d="M1233.59,318.76a2,2,0,0,1-2,2.05h0a2.05,2.05,0,0,1-2.06-2.05V288.21a2.05,2.05,0,0,1,2.06-2.05h0a2,2,0,0,1,2,2.05v30.55Z"/>
    <path class="cls-4" d="M1248.12,320.81a2.23,2.23,0,0,1-2.23,2.24H1225a2.23,2.23,0,0,1-2.23-2.24h0a2.23,2.23,0,0,1,2.23-2.23h20.87a2.23,2.23,0,0,1,2.23,2.23h0Z"/>
    <path class="cls-9" d="M1201.12,300.89a3.57,3.57,0,0,1-3.58-3.57c0-5.12,34.15-37.4,48-37.4,7.59,0,13.74,0,13.74,11.81v3.54a25.64,25.64,0,0,1-25.64,25.64h-32.54Z"/>
    <circle class="cls-9" cx="1243.83" cy="242.51" r="15.41"/>
    <circle class="cls-7" cx="1240.18" cy="240.09" r="3.89"/>
    <path class="cls-8" d="M1196.82,290.46a2.25,2.25,0,0,1-2.24-2.27c0-3.23,21.68-23.39,30.41-23.32,4.78,0,8.65.07,8.59,7.5l-0.07,9.73a8.64,8.64,0,0,1-8.71,8.57h0Z"/>
    <polygon class="cls-9" points="1259.24 242.51 1259.24 275.26 1239.63 275.26 1239.63 249.44 1259.24 242.51"/>
    <path class="cls-10" d="M1173.34,413.39a2.65,2.65,0,0,1-.65-3.69c2.19-3.11,36.68-8.13,45.1-2.22,4.6,3.24,8.34,5.86,3.3,13l-6.59,9.38a10.18,10.18,0,0,1-14.19,2.46h0Z"/>
    <path class="cls-4" d="M1202.2,464.28a2.3,2.3,0,0,0,2.31,2.3h0a2.28,2.28,0,0,0,2.29-2.3l5.3-25.93a2.28,2.28,0,0,0-2.29-2.3h0a2.3,2.3,0,0,0-2.31,2.3Z"/>
    <path class="cls-4" d="M1211.89,464.28a2.3,2.3,0,0,0,2.29,2.3h0a2.3,2.3,0,0,0,2.32-2.3l5.3-25.93a2.3,2.3,0,0,0-2.32-2.3h0a2.3,2.3,0,0,0-2.29,2.3Z"/>
    <path class="cls-4" d="M1195.6,466.58a2.5,2.5,0,0,0,2.5,2.51h23.4a2.5,2.5,0,0,0,2.5-2.51h0a2.5,2.5,0,0,0-2.5-2.5h-23.4a2.5,2.5,0,0,0-2.5,2.5h0Z"/>
    <path class="cls-11" d="M1250.64,441.84a3.46,3.46,0,0,0,3.47-3.46c0-5-33.07-36.22-46.49-36.22-7.35,0-13.3,0-13.3,11.43V417a24.82,24.82,0,0,0,24.82,24.82h31.51Z"/>
    <path class="cls-10" d="M1259,407.2a2.65,2.65,0,0,0,0-3.75c-2.71-2.67-37.55-1.42-44.76,5.91-3.95,4-7.15,7.26-.91,13.41l8.17,8a10.18,10.18,0,0,0,14.4-.12h0Z"/>
    <polygon class="cls-11" points="1194.37 396.58 1194.37 417.01 1199.09 408.65 1194.37 396.58"/>
    <path class="cls-4" d="M1161.4,396.51a3.13,3.13,0,0,0,3.15,3.12l37.47-.14a3.13,3.13,0,0,0,3.12-3.15h0a3.13,3.13,0,0,0-3.15-3.12l-37.47.14a3.13,3.13,0,0,0-3.12,3.15h0Z"/>
    <circle class="cls-11" cx="1200.65" cy="400.1" r="15.43" transform="translate(-11.4 36) rotate(-1.71)"/>
    <circle class="cls-7" cx="1200.7" cy="398.82" r="5.9" transform="translate(-11.37 36.01) rotate(-1.71)"/>
    <path class="cls-12" d="M1143.5,249.58c3.38-10.63-5.14-22.83-5.14-22.83l-12.23,38.51S1140.12,260.21,1143.5,249.58Z"/>
    <path class="cls-12" d="M1100.92,282.26l-27.21,27.21s14,1.86,21.56-5.65S1100.92,282.26,1100.92,282.26Z"/>
    <path class="cls-12" d="M1076.46,276.44h-50.82s11.38,14.85,25.41,14.85S1076.46,276.44,1076.46,276.44Z"/>
    <path class="cls-12" d="M1107,272.15l-35.93-35.93s-2.46,18.55,7.46,28.47S1107,272.15,1107,272.15Z"/>
    <path class="cls-12" d="M1197.34,361.31c6.76-8,3.79-21.59,3.79-21.59l-24.46,28.87S1190.59,369.28,1197.34,361.31Z"/>
    <path class="cls-12" d="M1153.06,344.43c13.85-2.28,22.66-18.78,22.66-18.78l-50.14,8.25S1139.22,346.71,1153.06,344.43Z"/>
    <path class="cls-12" d="M1146.55,497.15c13-5.17,18.14-23.18,18.14-23.18l-47.24,18.73S1133.51,502.32,1146.55,497.15Z"/>
    <path class="cls-12" d="M1246.82,374.28c8.6,6.7,22.66,3,22.66,3L1238.34,353S1238.22,367.58,1246.82,374.28Z"/>
    <path class="cls-12" d="M1429.41,275.83c7.91-7.91,5.95-22.68,5.95-22.68l-28.63,28.63S1421.51,283.73,1429.41,275.83Z"/>
    <path class="cls-12" d="M1412.19,313.22c11.18,0,20.24-11.84,20.24-11.84h-40.49S1401,313.22,1412.19,313.22Z"/>
    <path class="cls-3" d="M543.27,369.5V314.15a21.64,21.64,0,0,1,21.64-21.64H714.85"/>
    <path class="cls-3" d="M-16.39,292.51h431a21.64,21.64,0,0,1,21.64,21.64v73.06a21.64,21.64,0,0,0,21.64,21.64h20.87a17.71,17.71,0,0,0,17.71-17.71h0a21.64,21.64,0,0,1,21.64-21.64h49.27"/>
    <path class="cls-2" d="M392.92,375.3c8-11.53,26.69-12.41,26.69-12.41s5.72,17.81-2.27,29.34-26.69,12.41-26.69,12.41S384.92,386.83,392.92,375.3Z"/>
    <path class="cls-2" d="M399.11,334.59c10.34-1.87,20.71,7.56,20.71,7.56s-6.4,12.47-16.75,14.34-20.71-7.56-20.71-7.56S388.76,336.46,399.11,334.59Z"/>
    <path class="cls-2" d="M590.76,347.54c9.63-4.21,21.9,2.56,21.9,2.56s-3.35,13.61-13,17.83-21.9-2.56-21.9-2.56S581.13,351.75,590.76,347.54Z"/>
    <path class="cls-2" d="M563.34,332.8c2.66-10.17,15.58-15.61,15.58-15.61s8.61,11.06,6,21.23S569.3,354,569.3,354,560.69,343,563.34,332.8Z"/>
    <path class="cls-2" d="M329.17,327.41c0-14,14.85-25.41,14.85-25.41s14.85,11.38,14.85,25.41S344,352.82,344,352.82,329.17,341.44,329.17,327.41Z"/>
    <path class="cls-2" d="M294.14,322.64c9.92-9.92,28.47-7.46,28.47-7.46s2.46,18.55-7.46,28.47-28.47,7.46-28.47,7.46S284.22,332.56,294.14,322.64Z"/>
    <path class="cls-2" d="M326.49,247.55C338.17,255.33,339.4,274,339.4,274s-17.7,6.06-29.38-1.72-12.91-26.45-12.91-26.45S314.82,239.77,326.49,247.55Z"/>
    <path class="cls-2" d="M479.68,336.2c13.79,2.6,22.22,19.31,22.22,19.31S488,368,474.18,365.39,452,346.09,452,346.09,465.89,333.6,479.68,336.2Z"/>
    <path class="cls-2" d="M490.86,302.66c7.91,11.59,2.06,29.36,2.06,29.36s-18.68-1-26.59-12.61-2.06-29.36-2.06-29.36S483,291.07,490.86,302.66Z"/>
    <path class="cls-2" d="M533,332.6c-2.6,13.79-19.31,22.22-19.31,22.22s-12.49-13.93-9.89-27.72,19.31-22.22,19.31-22.22S535.58,318.81,533,332.6Z"/>
    <path class="cls-2" d="M756.43,277.5c-7.25,12-25.84,14.08-25.84,14.08s-6.84-17.41.4-29.43,25.84-14.08,25.84-14.08S763.68,265.48,756.43,277.5Z"/>
    <path class="cls-2" d="M778,297.92c-10.75,2.66-22.28-6.56-22.28-6.56s5.9-13.53,16.64-16.19,22.28,6.56,22.28,6.56S788.75,295.26,778,297.92Z"/>
    <path class="cls-2" d="M741.21,328.7c-12-7.25-14.08-25.84-14.08-25.84s17.41-6.84,29.43.4,14.08,25.84,14.08,25.84S753.22,335.95,741.21,328.7Z"/>
    <path class="cls-2" d="M699.85,313.08c5.37-8.9,19.13-10.43,19.13-10.43s5.07,12.89-.3,21.79-19.13,10.43-19.13,10.43S694.48,322,699.85,313.08Z"/>
    <path class="cls-12" d="M390.64,404.65s18.69-.88,26.69-12.41,2.27-29.34,2.27-29.34Z"/>
    <path class="cls-12" d="M403.07,356.49c10.34-1.87,16.75-14.34,16.75-14.34l-37.46,6.78S392.73,358.36,403.07,356.49Z"/>
    <path class="cls-12" d="M612.66,350.1l-34.87,15.26s12.27,6.78,21.9,2.56S612.66,350.1,612.66,350.1Z"/>
    <path class="cls-12" d="M584.88,338.42c2.66-10.17-6-21.23-6-21.23L569.3,354S582.22,348.6,584.88,338.42Z"/>
    <path class="cls-12" d="M329.17,327.41c0,14,14.85,25.41,14.85,25.41V302S329.17,313.38,329.17,327.41Z"/>
    <path class="cls-12" d="M286.68,351.11s18.55,2.46,28.47-7.46,7.46-28.47,7.46-28.47Z"/>
    <path class="cls-12" d="M310,272.28C321.7,280.06,339.4,274,339.4,274l-42.29-28.17S298.35,264.5,310,272.28Z"/>
    <path class="cls-12" d="M474.18,365.39C488,368,501.9,355.5,501.9,355.5L452,346.09S460.39,362.79,474.18,365.39Z"/>
    <path class="cls-12" d="M492.92,332l-28.65-42s-5.85,17.77,2.06,29.36S492.92,332,492.92,332Z"/>
    <path class="cls-12" d="M523.09,304.88s-16.71,8.43-19.31,22.22,9.89,27.72,9.89,27.72Z"/>
    <path class="cls-2" d="M243.1,350.69c-7.53-11.84-1.09-29.41-1.09-29.41s18.64,1.63,26.17,13.47,1.09,29.41,1.09,29.41S250.63,362.54,243.1,350.69Z"/>
    <path class="cls-2" d="M211,365.46c3.05-13.7,20-21.57,20-21.57s12,14.33,9,28-20,21.57-20,21.57S207.93,379.15,211,365.46Z"/>
    <path class="cls-2" d="M204.05,314.25c11.84-7.53,29.41-1.09,29.41-1.09s-1.63,18.64-13.47,26.17-29.41,1.09-29.41,1.09S192.21,321.78,204.05,314.25Z"/>
    <path class="cls-12" d="M268.18,334.76C260.65,322.92,242,321.28,242,321.28l27.26,42.89S275.7,346.6,268.18,334.76Z"/>
    <path class="cls-12" d="M231,343.89L220,393.49s17-7.87,20-21.57S231,343.89,231,343.89Z"/>
    <path class="cls-12" d="M190.58,340.41s17.57,6.43,29.41-1.09,13.47-26.17,13.47-26.17Z"/>
    <path class="cls-12" d="M756.43,277.5c7.25-12,.4-29.43.4-29.43l-26.25,43.51S749.18,289.51,756.43,277.5Z"/>
    <path class="cls-12" d="M778,297.92c10.75-2.66,16.64-16.19,16.64-16.19l-38.92,9.63S767.26,300.58,778,297.92Z"/>
    <path class="cls-12" d="M741.21,328.7c12,7.25,29.43.4,29.43,0.4l-43.51-26.25S729.19,321.45,741.21,328.7Z"/>
    <path class="cls-12" d="M718.68,324.44c5.37-8.9.3-21.79,0.3-21.79l-19.43,32.22S713.31,333.33,718.68,324.44Z"/>
    <path class="cls-2" d="M126.9,248.72c13.6-3.46,28.29,8.13,28.29,8.13s-7.36,17.2-21,20.66-28.29-8.13-28.29-8.13S113.3,252.18,126.9,248.72Z"/>
    <path class="cls-2" d="M125.89,219c9.52,5.66,11.25,20.32,11.25,20.32s-13.7,5.49-23.22-.16-11.25-20.32-11.25-20.32S116.37,213.38,125.89,219Z"/>
    <path class="cls-2" d="M173.7,223c3.46,13.6-8.13,28.29-8.13,28.29s-17.2-7.36-20.66-21S153,202,153,202,170.24,209.37,173.7,223Z"/>
    <path class="cls-2" d="M192.16,263.14c-10.07,2.56-20.94-6-20.94-6s5.45-12.74,15.52-15.3,20.94,6,20.94,6S202.23,260.58,192.16,263.14Z"/>
    <path class="cls-12" d="M126.9,248.72c-13.6,3.46-21,20.66-21,20.66l49.25-12.54S140.5,245.26,126.9,248.72Z"/>
    <path class="cls-12" d="M125.89,219c-9.52-5.66-23.22-.16-23.22-0.16l34.47,20.48S135.41,224.69,125.89,219Z"/>
    <path class="cls-12" d="M173.7,223c-3.46-13.6-20.66-21-20.66-21l12.54,49.25S177.16,236.57,173.7,223Z"/>
    <path class="cls-12" d="M186.74,241.83c-10.07,2.56-15.52,15.3-15.52,15.3l36.46-9.28S196.8,239.27,186.74,241.83Z"/>
    <path class="cls-1" d="M257.12,254.51c-7,7.8-4.41,21.53-4.41,21.53s13.93,1.08,20.92-6.72S278,247.79,278,247.79,264.11,246.71,257.12,254.51Z"/>
    <path class="cls-1" d="M235.27,239.7c0.57,10.46,12.11,18.34,12.11,18.34s10.61-9.08,10-19.55-12.11-18.34-12.11-18.34S234.7,229.24,235.27,239.7Z"/>
    <path class="cls-1" d="M223.89,276.57c7.8,7,21.53,4.41,21.53,4.41s1.08-13.93-6.72-20.92-21.53-4.41-21.53-4.41S216.09,269.58,223.89,276.57Z"/>
    <path class="cls-2" d="M1538.37,283.81c13.6-3.46,28.29,8.13,28.29,8.13s-7.36,17.2-21,20.66-28.29-8.13-28.29-8.13S1524.77,287.27,1538.37,283.81Z"/>
    <path class="cls-2" d="M1537.36,254.12c9.52,5.66,11.25,20.32,11.25,20.32s-13.7,5.49-23.22-.16S1514.14,254,1514.14,254,1527.84,248.46,1537.36,254.12Z"/>
    <path class="cls-2" d="M1585.17,258.06c3.46,13.6-8.13,28.29-8.13,28.29s-17.2-7.36-20.66-21,8.13-28.29,8.13-28.29S1581.71,244.46,1585.17,258.06Z"/>
    <path class="cls-2" d="M1603.63,298.23c-10.07,2.56-20.94-6-20.94-6s5.45-12.74,15.52-15.3,20.94,6,20.94,6S1613.7,295.67,1603.63,298.23Z"/>
    <path class="cls-12" d="M1538.37,283.81c-13.6,3.46-21,20.66-21,20.66l49.25-12.54S1552,280.35,1538.37,283.81Z"/>
    <path class="cls-12" d="M1537.36,254.12c-9.52-5.66-23.22-.16-23.22-0.16l34.47,20.48S1546.88,259.77,1537.36,254.12Z"/>
    <path class="cls-12" d="M1585.17,258.06c-3.46-13.6-20.66-21-20.66-21L1577,286.34S1588.63,271.66,1585.17,258.06Z"/>
    <path class="cls-12" d="M1598.21,276.91c-10.07,2.56-15.52,15.3-15.52,15.3l36.46-9.28S1608.28,274.35,1598.21,276.91Z"/>
    <path class="cls-1" d="M1668.59,289.6c-7,7.8-4.41,21.53-4.41,21.53s13.93,1.08,20.92-6.72,4.41-21.53,4.41-21.53S1675.58,281.79,1668.59,289.6Z"/>
    <path class="cls-1" d="M1646.74,274.79c0.57,10.46,12.11,18.34,12.11,18.34s10.61-9.08,10-19.55-12.11-18.34-12.11-18.34S1646.17,264.33,1646.74,274.79Z"/>
    <path class="cls-1" d="M1635.36,311.66c7.8,7,21.53,4.41,21.53,4.41s1.08-13.93-6.72-20.92-21.53-4.41-21.53-4.41S1627.56,304.66,1635.36,311.66Z"/>
    <path class="cls-1" d="M1622.93,374.82c-9.33-4.76-11.85-18.51-11.85-18.51s12.61-6,21.94-1.25,11.85,18.51,11.85,18.51S1632.26,379.59,1622.93,374.82Z"/>
    <path class="cls-1" d="M1584.61,370.27c-3.23-10,4.7-21.47,4.7-21.47s13.17,4.66,16.4,14.63-4.7,21.47-4.7,21.47S1587.84,380.24,1584.61,370.27Z"/>
    <path class="cls-1" d="M134.49,333.63c10.45-.81,18.06-12.52,18.06-12.52s-9.32-10.4-19.77-9.59S114.72,324,114.72,324,124,334.44,134.49,333.63Z"/>
    <path class="cls-1" d="M140.07,359.43c6.81-8,3.91-21.62,3.91-21.62S130,337,123.22,345s-3.91,21.62-3.91,21.62S133.25,367.39,140.07,359.43Z"/>
    <path class="cls-1" d="M173.76,340.63c-0.81-10.45-12.52-18.06-12.52-18.06s-10.4,9.32-9.59,19.77,12.52,18.06,12.52,18.06S174.57,351.07,173.76,340.63Z"/>
    <path class="cls-4" d="M623.29,237H593a3.93,3.93,0,0,1-3.91-3.91h0A3.93,3.93,0,0,1,593,229.2h30.31a3.93,3.93,0,0,1,3.91,3.91h0A3.93,3.93,0,0,1,623.29,237Z"/>
    <path class="cls-4" d="M589.83,282a2.75,2.75,0,0,1-2.76,2.75h0a2.73,2.73,0,0,1-2.74-2.75v-40.1a2.73,2.73,0,0,1,2.74-2.75h0a2.75,2.75,0,0,1,2.76,2.75V282Z"/>
    <path class="cls-4" d="M578.24,282a2.75,2.75,0,0,1-2.74,2.75h0a2.75,2.75,0,0,1-2.77-2.75v-40.1a2.75,2.75,0,0,1,2.77-2.75h0a2.75,2.75,0,0,1,2.74,2.75V282Z"/>
    <path class="cls-4" d="M597.73,284.73a3,3,0,0,1-3,3h-28a3,3,0,0,1-3-3h0a3,3,0,0,1,3-3h28a3,3,0,0,1,3,3h0Z"/>
    <path class="cls-13" d="M539.62,279.41h0a5.66,5.66,0,0,0,4-1.66L557.34,264a5.66,5.66,0,0,1,4-1.66h24.23a24.24,24.24,0,0,0,24.24-24.24v-31a5.66,5.66,0,0,0-9.73-3.94l-64.53,66.62A5.66,5.66,0,0,0,539.62,279.41Z"/>
    <circle class="cls-7" cx="597.83" cy="228.26" r="4.85"/>
    <path class="cls-5" d="M550.4,248.44l31.19-31.19a2.11,2.11,0,0,1,3.6,1.49v11.88A21.42,21.42,0,0,1,563.77,252H551.89A2.11,2.11,0,0,1,550.4,248.44Z"/>
    <path class="cls-4" d="M696.13,229.79l16.93-7.64A5.72,5.72,0,0,1,720.6,225h0a5.72,5.72,0,0,1-2.85,7.55l-16.93,7.64a5.72,5.72,0,0,1-7.55-2.85h0A5.72,5.72,0,0,1,696.13,229.79Z"/>
    <path class="cls-4" d="M686.24,282.92a2.62,2.62,0,0,1-2.63,2.62h0a2.6,2.6,0,0,1-2.6-2.62l-13.94-29.5a2.6,2.6,0,0,1,2.6-2.62h0a2.62,2.62,0,0,1,2.63,2.62Z"/>
    <path class="cls-4" d="M675.22,282.92a2.61,2.61,0,0,1-2.61,2.62h0a2.62,2.62,0,0,1-2.63-2.62L656,253.42a2.62,2.62,0,0,1,2.63-2.62h0a2.61,2.61,0,0,1,2.61,2.62Z"/>
    <path class="cls-4" d="M693.75,285.54a2.85,2.85,0,0,1-2.85,2.85H664.28a2.85,2.85,0,0,1-2.85-2.85h0a2.85,2.85,0,0,1,2.85-2.85h26.62a2.85,2.85,0,0,1,2.85,2.85h0Z"/>
    <path class="cls-9" d="M621.8,272.33h0a6.93,6.93,0,0,0,5.29-.44l7.95-4.1a6.93,6.93,0,0,1,5.29-.44l28.27,9a29.7,29.7,0,0,0,37.33-19.25l6.19-19.38a14.08,14.08,0,0,0-20.06-16.69l-71.42,38.55A6.93,6.93,0,0,0,621.8,272.33Z"/>
    <path class="cls-8" d="M635,267.79L711.8,228.2a14.09,14.09,0,0,0-19.74-7.14l-71.42,38.55a6.93,6.93,0,0,0,6.45,12.27l7.95-4.1h0Z"/>
    <path class="cls-14" d="M692.06,221.06l-12.16,6.56c-2.26,4.92-4.21,13.65,5.05,21,6.18,4.88,15.25,3.77,23.36,1.07l3.8-11.91A14.08,14.08,0,0,0,692.06,221.06Z"/>
    <circle class="cls-7" cx="696.41" cy="232.99" r="5.65" transform="translate(-37.78 248.39) rotate(-19.7)"/>
    <path class="cls-11" d="M438,224.13a3,3,0,0,0,0-4.2c-3-3-42.06-1.59-50.14,6.62-4.42,4.49-8,8.13-1,15l9.15,9a11.4,11.4,0,0,0,16.13-.14h0Z"/>
    <path class="cls-4" d="M408,284.07a2.58,2.58,0,0,1-2.59,2.58h0a2.56,2.56,0,0,1-2.56-2.58l-5.94-29a2.56,2.56,0,0,1,2.56-2.58h0a2.58,2.58,0,0,1,2.59,2.58Z"/>
    <path class="cls-4" d="M397.16,284.07a2.57,2.57,0,0,1-2.57,2.58h0a2.58,2.58,0,0,1-2.59-2.58l-5.94-29a2.58,2.58,0,0,1,2.59-2.58h0a2.57,2.57,0,0,1,2.57,2.58Z"/>
    <path class="cls-4" d="M415.41,286.64a2.8,2.8,0,0,1-2.8,2.81H386.39a2.8,2.8,0,0,1-2.8-2.81h0a2.8,2.8,0,0,1,2.8-2.8H412.6a2.8,2.8,0,0,1,2.8,2.8h0Z"/>
    <path class="cls-10" d="M356.33,262.93a3.87,3.87,0,0,1-3.88-3.87c0-5.56,37-40.57,52.08-40.57,8.23,0,14.9,0,14.9,12.8v3.83a27.8,27.8,0,0,1-27.8,27.8H356.33Z"/>
    <path class="cls-4" d="M423.76,190.55a3.51,3.51,0,0,1,.13,5L395,226a3.51,3.51,0,0,1-5,.13h0a3.51,3.51,0,0,1-.13-5l28.89-30.44a3.51,3.51,0,0,1,5-.13h0Z"/>
    <path class="cls-4" d="M429,204.28a3,3,0,0,1-2.13,3.72l-34.94,9.51a3,3,0,0,1-3.72-2.13h0a3,3,0,0,1,2.13-3.72l34.94-9.51a3,3,0,0,1,3.72,2.13h0Z"/>
    <circle class="cls-10" cx="402.07" cy="212.24" r="17.29"/>
    <circle class="cls-7" cx="401.97" cy="210.81" r="6.61"/>
    <path class="cls-11" d="M347,224.13a3,3,0,0,1,0-4.2c3-3,42.06-1.59,50.14,6.62,4.42,4.49,8,8.13,1,15l-9.15,9a11.4,11.4,0,0,1-16.13-.14h0Z"/>
    <polygon class="cls-10" points="419.36 212.24 419.36 235.12 414.07 225.75 419.36 212.24"/>
    <path class="cls-1" d="M330.91,385.83c10-3.22,14.64-16.39,14.64-16.39s-11.5-7.94-21.46-4.71-14.64,16.39-14.64,16.39S320.94,389.06,330.91,385.83Z"/>
    <path class="cls-1" d="M342.34,409.62c4.77-9.33-1.24-21.94-1.24-21.94s-13.74,2.52-18.51,11.84,1.24,21.94,1.24,21.94S337.58,419,342.34,409.62Z"/>
    <path class="cls-1" d="M434.91,432.41c2.1-10.27-7.07-20.81-7.07-20.81s-12.57,6.1-14.66,16.37,7.07,20.81,7.07,20.81S432.81,442.68,434.91,432.41Z"/>
    <path class="cls-1" d="M461.25,434.15c-5.78-8.74-19.71-9.71-19.71-9.71s-4.57,13.2,1.21,21.94,19.71,9.71,19.71,9.71S467,442.89,461.25,434.15Z"/>
    <path class="cls-1" d="M370.72,383.48c-3.22-10-16.39-14.64-16.39-14.64s-7.94,11.5-4.71,21.46S366,404.94,366,404.94,373.95,393.45,370.72,383.48Z"/>
  </g>
</svg>
