<svg id="Background" xmlns="http://www.w3.org/2000/svg" width="1757.7" height="668.77" viewBox="0 0 1757.7 668.77">
  <defs>
    <style>
      .cls-1 {
        fill: #fff6eb;
      }

      .cls-2 {
        fill: #ffefd9;
      }

      .cls-3 {
        fill: #ffeacf;
      }

      .cls-4 {
        fill: #fff;
      }

      .cls-5 {
        fill: #ffe3bf;
      }
    </style>
  </defs>
  <title>Patreon Header</title>
  <g id="Hintergrund_Berge" data-name="Hintergrund Berge">
    <rect class="cls-1" x="-76.19" width="1873.58" height="667.77"/>
    <path class="cls-2" d="M1692.88,236l-3.14,3.91c-62.28-28.76-133.8-27.15-195.26,2.67l-18.9,9.12-54.43-36.51a144.27,144.27,0,0,0-170.28,7,139.22,139.22,0,0,0-180.55,3.66l-56.69,50.32-19.63-17a74,74,0,0,0-86.09-2.9l-43-31.7a122.52,122.52,0,0,0-138.59-4.67,158.79,158.79,0,0,0-171.36,50.08l-3.15,3.82h0a230.42,230.42,0,0,0-195.27,2.76l-18.9,9.17L283.2,249.18a144.28,144.28,0,0,0-170.28,7h0a139.22,139.22,0,0,0-180.55,3.67l-12.17,10.8V667.77H1803.46V178.57A158.92,158.92,0,0,0,1692.88,236Z"/>
    <path class="cls-3" d="M30.78,356.78l3.14,3.91c62.28-28.76,133.8-27.15,195.26,2.67l18.9,9.12L302.52,336a144.27,144.27,0,0,1,170.28,7,139.22,139.22,0,0,1,180.55,3.66L710,397l19.63-17a74,74,0,0,1,86.09-2.9l43-31.7a122.52,122.52,0,0,1,138.59-4.67,158.79,158.79,0,0,1,171.36,50.08l3.15,3.82h0a230.42,230.42,0,0,1,195.27,2.76l18.9,9.17L1440.46,370a144.28,144.28,0,0,1,170.28,7h0a139.22,139.22,0,0,1,180.55,3.67l12.17,10.8V667.77H-79.8V299.4A158.92,158.92,0,0,1,30.78,356.78Z"/>
    <path class="cls-4" d="M671.89,106.74h0a37.36,37.36,0,0,1,37.36,37.36v7.82a0,0,0,0,1,0,0H634.53a0,0,0,0,1,0,0V144.1A37.36,37.36,0,0,1,671.89,106.74Z"/>
    <path class="cls-4" d="M715.33,116.5h0a29.29,29.29,0,0,1,29.29,29.29v6.13a0,0,0,0,1,0,0H686a0,0,0,0,1,0,0v-6.13a29.29,29.29,0,0,1,29.29-29.29Z"/>
    <path class="cls-4" d="M1253.73,222.11a46.18,46.18,0,0,0-46-42.08h0a46.18,46.18,0,0,0-46,42.08h92Z"/>
    <path class="cls-4" d="M1297.11,222.11a36.21,36.21,0,0,0-35.67-30h0a36.21,36.21,0,0,0-35.67,30h71.35Z"/>
    <path class="cls-4" d="M890.24,90a38,38,0,0,1,37.89-34.66h0A38,38,0,0,1,966,90H890.24Z"/>
    <path class="cls-4" d="M854.51,90a29.83,29.83,0,0,1,29.38-24.73h0A29.83,29.83,0,0,1,913.28,90H854.51Z"/>
    <path class="cls-4" d="M1480.42,136.65h0A29.35,29.35,0,0,1,1509.76,166v6.14a0,0,0,0,1,0,0h-58.69a0,0,0,0,1,0,0V166A29.35,29.35,0,0,1,1480.42,136.65Z"/>
    <path class="cls-4" d="M700.64,124.91h44.24a27,27,0,0,1,27,27v0a0,0,0,0,1,0,0H673.63a0,0,0,0,1,0,0v0a27,27,0,0,1,27-27Z"/>
    <path class="cls-4" d="M1313.6,53.77h0a31.18,31.18,0,0,1,31.18,31.18v6.53a0,0,0,0,1,0,0h-62.37a0,0,0,0,1,0,0V84.95A31.18,31.18,0,0,1,1313.6,53.77Z"/>
    <path class="cls-4" d="M1349.86,61.91h0a24.45,24.45,0,0,1,24.45,24.45v5.12a0,0,0,0,1,0,0h-48.9a0,0,0,0,1,0,0V86.36a24.45,24.45,0,0,1,24.45-24.45Z"/>
    <path class="cls-4" d="M1337.6,68.93h36.92a22.54,22.54,0,0,1,22.54,22.54v0a0,0,0,0,1,0,0h-82a0,0,0,0,1,0,0v0A22.54,22.54,0,0,1,1337.6,68.93Z"/>
    <path class="cls-4" d="M1740.9,153.22h72.42a0,0,0,0,1,0,0v7.58A36.21,36.21,0,0,1,1777.11,197h0a36.21,36.21,0,0,1-36.21-36.21v-7.58A0,0,0,0,1,1740.9,153.22Z" transform="translate(3554.21 350.24) rotate(180)"/>
    <path class="cls-4" d="M1707.2,163.63h121.47a0,0,0,0,1,0,0v0A33.39,33.39,0,0,1,1795.28,197h-54.69a33.39,33.39,0,0,1-33.39-33.39v0a0,0,0,0,1,0,0Z" transform="translate(3535.86 360.64) rotate(180)"/>
    <path class="cls-4" d="M1447.46,148.84h79.15a24,24,0,0,1,24,24v0a0,0,0,0,1,0,0H1423.49a0,0,0,0,1,0,0v0a24,24,0,0,1,24-24Z"/>
    <path class="cls-4" d="M446.7,42.53h0A29.35,29.35,0,0,1,476,71.87V78a0,0,0,0,1,0,0H417.36a0,0,0,0,1,0,0V71.87A29.35,29.35,0,0,1,446.7,42.53Z"/>
    <path class="cls-4" d="M413.74,54.71h79.15a24,24,0,0,1,24,24v0a0,0,0,0,1,0,0H389.77a0,0,0,0,1,0,0v0A24,24,0,0,1,413.74,54.71Z"/>
    <path class="cls-5" d="M1692.88,532.62l-3.14,3.91c-62.28-28.76-133.8-27.15-195.26,2.67l-18.9,9.12-54.43-36.51a144.27,144.27,0,0,0-170.28,7,139.22,139.22,0,0,0-180.55,3.66l-56.69,50.32L994,555.8a74,74,0,0,0-86.09-2.9l-43-31.7a122.52,122.52,0,0,0-138.59-4.67A158.79,158.79,0,0,0,554.94,566.6l-3.15,3.82h0a230.42,230.42,0,0,0-195.27,2.76l-18.9,9.17L283.2,545.86a144.28,144.28,0,0,0-170.28,7h0a139.22,139.22,0,0,0-180.55,3.67l-12.17,10.8V667.77H1803.46V475.25A158.92,158.92,0,0,0,1692.88,532.62Z"/>
    <path class="cls-4" d="M-26.69,134h0A28.51,28.51,0,0,1,1.82,162.49v6a0,0,0,0,1,0,0h-57a0,0,0,0,1,0,0v-6A28.51,28.51,0,0,1-26.69,134Z"/>
    <path class="cls-4" d="M268.88,138.36h89.75a0,0,0,0,1,0,0v9.39a44.88,44.88,0,0,1-44.88,44.88h0a44.88,44.88,0,0,1-44.88-44.88v-9.39a0,0,0,0,1,0,0Z" transform="translate(627.51 330.99) rotate(180)"/>
    <path class="cls-4" d="M226.39,150.08h70.37a0,0,0,0,1,0,0v7.36a35.18,35.18,0,0,1-35.18,35.18h0a35.18,35.18,0,0,1-35.18-35.18v-7.36a0,0,0,0,1,0,0Z" transform="translate(523.15 342.71) rotate(180)"/>
    <path class="cls-4" d="M193.65,160.19h118a0,0,0,0,1,0,0v0a32.44,32.44,0,0,1-32.44,32.44H226.09a32.44,32.44,0,0,1-32.44-32.44v0a0,0,0,0,1,0,0Z" transform="translate(505.32 352.82) rotate(180)"/>
    <path class="cls-4" d="M-58.71,145.82h76.9a23.29,23.29,0,0,1,23.29,23.29v0a0,0,0,0,1,0,0H-82a0,0,0,0,1,0,0v0A23.29,23.29,0,0,1-58.71,145.82Z"/>
  </g>
</svg>
