<svg id="Büsche" xmlns="http://www.w3.org/2000/svg" width="1757.7" height="668.77" viewBox="0 0 1757.7 668.77">
  <defs>
    <style>
      .cls-1 {
        fill: #ffd7a3;
      }

      .cls-2 {
        fill: #ffcc8a;
      }

      .cls-3 {
        fill: #ffeacf;
      }

      .cls-4 {
        fill: #ffe3bf;
      }
    </style>
  </defs>
  <title>Patreon Header</title>
  <g>
    <path class="cls-1" d="M144.08,451.65h0a38.22,38.22,0,0,0,57.82-26.52h0a38.22,38.22,0,0,0-57.82,26.52h0Z"/>
    <path class="cls-1" d="M38,378.21h0A38.22,38.22,0,0,0,80.17,330.6h0A38.22,38.22,0,0,0,38,378.21Z"/>
    <path class="cls-1" d="M133.8,436.41h0a37.68,37.68,0,0,0,6.43-62.83h0A37.68,37.68,0,0,0,133.8,436.41Z"/>
    <path class="cls-1" d="M396,654.39h0a37.68,37.68,0,0,0-58.24,24.45A37.68,37.68,0,0,0,396,654.39Z"/>
    <path class="cls-1" d="M-106.56,541.32a59.84,59.84,0,0,0-45.18,45.08h0A59.44,59.44,0,0,0-110,597.27c-0.29.57-.6,1.13-0.89,1.71a89,89,0,0,0-9,38.11,59.45,59.45,0,0,0-36.87,17h0A59.5,59.5,0,0,0-121,688.42,59.58,59.58,0,0,0-154.6,729.6h0A59.53,59.53,0,0,0-104.74,739,59.66,59.66,0,0,0-97,795h0a59.67,59.67,0,0,0,42.48-37.53,59.58,59.58,0,0,0,40.27,34.91h0a59.6,59.6,0,0,0,9.82-53.22A60.25,60.25,0,0,0,22,744.81a59.55,59.55,0,0,0-2.39,33.34h0a59.44,59.44,0,0,0,42.7-7.9,59.53,59.53,0,0,0,21.23,46.46h0a59.43,59.43,0,0,0,27-27.87,59.72,59.72,0,0,0,5.56,27.54h0A59.48,59.48,0,0,0,151,803.52a59.53,59.53,0,0,0,9.59,50.06h0a59.67,59.67,0,0,0,42.48-37.53A59.58,59.58,0,0,0,243.36,851h0a59.6,59.6,0,0,0,9.82-53.22,59.61,59.61,0,0,0,55-2.22h0a59.81,59.81,0,0,0-38.6-49,59.48,59.48,0,0,0,29.39-39h0a59.62,59.62,0,0,0-55.1-7.76,61.53,61.53,0,0,0-6-28.82q1.54,0,3.07-.15a59.85,59.85,0,0,0,24.42,9.44h0a60.09,60.09,0,0,0,8-21.24,59.48,59.48,0,0,0,46.91-1h0a59.68,59.68,0,0,0-7.9-28.32,59.44,59.44,0,0,0,26-37h0a59.47,59.47,0,0,0-33.89-11.25,59.43,59.43,0,0,0-.23-41.28h0a59.46,59.46,0,0,0-38.58,12.06,59.47,59.47,0,0,0,14.94-32.75h0a59.56,59.56,0,0,0-52.7-3.4,60,60,0,0,0-17.05-67.94h0a59.48,59.48,0,0,0-30.51,37.37,59.94,59.94,0,0,0-15-19.08h0a59.64,59.64,0,0,0-22.81,20.35,60,60,0,0,0-50.25-49.65h0a59.84,59.84,0,0,0-8.51,25.3A89.24,89.24,0,0,0,61,446.58c-0.65-.32-1.32-0.6-2-0.9A59.73,59.73,0,0,0,73.59,388h0a59.43,59.43,0,0,0-43.69,11.69,59.44,59.44,0,0,0-18.82-34.8h0A59.45,59.45,0,0,0-19,396.25a59.44,59.44,0,0,0-38-11.8h0a59.44,59.44,0,0,0,.48,43.47,59.49,59.49,0,0,0-33.3,10.71h0a59.61,59.61,0,0,0,35.11,42.65c-1.27,2.14-2.48,4.33-3.59,6.61a89.5,89.5,0,0,0-7.11,20.82,59.83,59.83,0,0,0-56.35-29.39h0A59.84,59.84,0,0,0-106.56,541.32ZM172.33,769.81l0.36,0.74L172,771C172.15,770.62,172.23,770.22,172.33,769.81Z"/>
    <path class="cls-2" d="M144.76,527h0a35.47,35.47,0,0,0,29.16-51.32h0A35.47,35.47,0,0,0,144.76,527Z"/>
    <path class="cls-2" d="M127.06,551.36h0a35,35,0,0,0-29.23-50.8h0A35,35,0,0,0,127.06,551.36Z"/>
    <path class="cls-2" d="M164.58,546.64a35,35,0,0,0,57-13.72h0a35,35,0,0,0-57,13.72h0Z"/>
    <path class="cls-2" d="M195.57,797.9a55.52,55.52,0,0,0,48.1-34.56h0a55.15,55.15,0,0,0-36.59-16.17c0.35-.48.72-0.95,1.07-1.44A82.56,82.56,0,0,0,222,712.17a55.16,55.16,0,0,0,36.3-10.06h0a55.22,55.22,0,0,0-27.67-36.79,55.28,55.28,0,0,0,37-32.7h0a55.24,55.24,0,0,0-44.27-16,55.36,55.36,0,0,0,1.25-52.47h0a55.37,55.37,0,0,0-44.5,28,55.29,55.29,0,0,0-31.68-38h0a55.3,55.3,0,0,0-16.92,47.28,55.91,55.91,0,0,0-23.33-9.12,55.26,55.26,0,0,0,7.16-30.18h0a55.16,55.16,0,0,0-40.28.87,55.24,55.24,0,0,0-12.52-45.72h0a55.15,55.15,0,0,0-28.88,21.5,55.42,55.42,0,0,0-1-26.05h0a55.19,55.19,0,0,0-33.93,6.58A55.24,55.24,0,0,0-2.59,472.1h0a55.37,55.37,0,0,0-44.5,28,55.29,55.29,0,0,0-31.68-38h0a55.3,55.3,0,0,0-16.92,47.28,55.31,55.31,0,0,0-50.71-6.16h0a55.49,55.49,0,0,0,28.05,50.63,55.19,55.19,0,0,0-32.73,31.36h0a55.33,55.33,0,0,0,49.31,15.31,57.09,57.09,0,0,0,1.22,27.3q-1.41-.2-2.83-0.32a55.53,55.53,0,0,0-21-12.28h0a55.76,55.76,0,0,0-10.47,18.27,55.19,55.19,0,0,0-43.1-6.1h0a55.38,55.38,0,0,0,3,27.11,55.15,55.15,0,0,0-29.34,30h0a55.18,55.18,0,0,0,29.36,15.36,55.14,55.14,0,0,0-5.94,37.84h0a55.17,55.17,0,0,0,37.13-5.29,55.19,55.19,0,0,0-18.56,27.77h0a55.27,55.27,0,0,0,47.76,11A55.66,55.66,0,0,0-109,836h0a55.19,55.19,0,0,0,33.51-29.68A55.62,55.62,0,0,0-64.6,826h0a55.34,55.34,0,0,0,23.92-15.24,55.67,55.67,0,0,0,38.62,53h0a55.52,55.52,0,0,0,11.57-21.9A82.81,82.81,0,0,0,28,859.7c0.55,0.39,1.12.74,1.68,1.12A55.43,55.43,0,0,0,7.75,911.45h0a55.15,55.15,0,0,0,41.76-4.19,55.15,55.15,0,0,0,12.05,34.68h0a55.16,55.16,0,0,0,32.25-24.21,55.16,55.16,0,0,0,33.08,16.47h0a55.16,55.16,0,0,0,6-39.89,55.2,55.2,0,0,0,32.1-4.84h0a55.31,55.31,0,0,0-25.8-44.3c1.48-1.77,2.92-3.6,4.27-5.52a83.05,83.05,0,0,0,9.62-18,55.52,55.52,0,0,0,47.23,35.31h0A55.52,55.52,0,0,0,195.57,797.9ZM-25.8,547.08c-0.07-.24-0.14-0.49-0.22-0.73l0.65-.34C-25.52,546.36-25.66,546.72-25.8,547.08Z"/>
    <path class="cls-3" d="M1489,168.67h0a38.22,38.22,0,0,0-37.49,51.38h0A38.22,38.22,0,0,0,1489,168.67Z"/>
    <path class="cls-3" d="M1510.91,144.76h0a37.68,37.68,0,0,0,25.09,58h0A37.68,37.68,0,0,0,1510.91,144.76Z"/>
    <path class="cls-3" d="M1682.81,252.92h0a37.68,37.68,0,0,0,.58,63.16A37.68,37.68,0,0,0,1682.81,252.92Z"/>
    <path class="cls-3" d="M1470.16,145.23a37.68,37.68,0,0,0-62.69,7.72h0a37.68,37.68,0,0,0,62.69-7.72h0Z"/>
    <path class="cls-3" d="M1467.69-127.59A59.84,59.84,0,0,0,1412-96.47h0a59.44,59.44,0,0,0,37.2,21.79c-0.44.47-.89,0.92-1.32,1.41a89,89,0,0,0-19,34.24,59.45,59.45,0,0,0-40.09,6.34h0a59.5,59.5,0,0,0,25.13,42.77,59.58,59.58,0,0,0-43.56,30.5h0a59.53,59.53,0,0,0,45.44,22.55,59.66,59.66,0,0,0-7.75,56h0a59.67,59.67,0,0,0,51.07-24.58,59.58,59.58,0,0,0,29.28,44.53h0a59.6,59.6,0,0,0,23.9-48.56,60.25,60.25,0,0,0,23.86,12.61,59.55,59.55,0,0,0-11.35,31.44h0a59.44,59.44,0,0,0,43.24,4,59.53,59.53,0,0,0,7.82,50.48h0a59.43,59.43,0,0,0,33.55-19.49,59.72,59.72,0,0,0-2.13,28h0a59.48,59.48,0,0,0,37.13-2.89,59.53,59.53,0,0,0-4.36,50.79h0a59.67,59.67,0,0,0,51.07-24.58,59.58,59.58,0,0,0,29.28,44.53h0a59.6,59.6,0,0,0,23.9-48.56,59.61,59.61,0,0,0,53.54,12.8h0A59.81,59.81,0,0,0,1774,172a59.48,59.48,0,0,0,38.88-29.58h0A59.62,59.62,0,0,0,1761.94,120a61.53,61.53,0,0,0,2-29.38q1.49,0.38,3,.69a59.85,59.85,0,0,0,20.94,15.71h0a60.09,60.09,0,0,0,13.44-18.28,59.48,59.48,0,0,0,45.41,11.8h0a59.68,59.68,0,0,0,.09-29.4,59.44,59.44,0,0,0,35.09-28.56h0a59.47,59.47,0,0,0-29.56-20,59.43,59.43,0,0,0,11-39.79h0a59.46,59.46,0,0,0-40.41,1.13,59.47,59.47,0,0,0,23.27-27.46h0a59.56,59.56,0,0,0-49.8-17.58,60,60,0,0,0,2-70h0a59.48,59.48,0,0,0-39.51,27.68,59.94,59.94,0,0,0-9.25-22.43h0a59.64,59.64,0,0,0-27.47,13.39,60,60,0,0,0-34.88-61.43h0a59.84,59.84,0,0,0-15.06,22,89.24,89.24,0,0,0-17.59-21.39c-0.54-.48-1.11-0.93-1.66-1.4a59.73,59.73,0,0,0,29.65-51.53h0a59.43,59.43,0,0,0-45.23-.61,59.44,59.44,0,0,0-8.66-38.6h0a59.45,59.45,0,0,0-37.49,22,59.44,59.44,0,0,0-33.4-21.68h0a59.44,59.44,0,0,0-11.34,42,59.49,59.49,0,0,0-35,1.26h0a59.61,59.61,0,0,0,22.21,50.58c-1.8,1.72-3.56,3.5-5.25,5.39a89.5,89.5,0,0,0-12.5,18.1,59.83,59.83,0,0,0-46.26-43.58h0A59.84,59.84,0,0,0,1467.69-127.59ZM1674.06,168c0,0.27.09,0.54,0.14,0.81l-0.74.29C1673.67,168.77,1673.86,168.4,1674.06,168Z"/>
    <path class="cls-4" d="M1755.4,96.26h0a35.47,35.47,0,0,0,24.71,53.6h0A35.47,35.47,0,0,0,1755.4,96.26Z"/>
    <path class="cls-4" d="M1745.92,67.69h0a35,35,0,0,0,58.31,5.85h0A35,35,0,0,0,1745.92,67.69Z"/>
    <path class="cls-4" d="M1727.89,100.93a35,35,0,0,0-22.06,54.3h0a35,35,0,0,0,22.06-54.3h0Z"/>
    <path class="cls-4" d="M1505.65-20.31a55.52,55.52,0,0,0,.05,59.22h0a55.15,55.15,0,0,0,34.47-20.31c0.18,0.57.35,1.14,0.55,1.7a82.56,82.56,0,0,0,19.17,30.86,55.16,55.16,0,0,0-13,35.36h0a55.22,55.22,0,0,0,46-1,55.28,55.28,0,0,0,5,49.09h0a55.24,55.24,0,0,0,38.81-26.64,55.36,55.36,0,0,0,41.91,31.59h0a55.37,55.37,0,0,0,3.15-52.5,55.29,55.29,0,0,0,49.32-3.62h0a55.3,55.3,0,0,0-28.56-41.31,55.91,55.91,0,0,0,21-13.64A55.26,55.26,0,0,0,1744,51.85h0a55.16,55.16,0,0,0,22.77-33.24,55.24,55.24,0,0,0,44.45,16.47h0a55.15,55.15,0,0,0-.64-36,55.42,55.42,0,0,0,21.74,14.38h0a55.19,55.19,0,0,0,14.43-31.4,55.24,55.24,0,0,0,39.19,26.48h0A55.37,55.37,0,0,0,1889-44a55.29,55.29,0,0,0,49.32-3.62h0a55.3,55.3,0,0,0-28.56-41.31,55.31,55.31,0,0,0,34.56-37.61h0a55.49,55.49,0,0,0-57.49-6.71,55.19,55.19,0,0,0-6.41-44.87h0A55.33,55.33,0,0,0,1839.27-147a57.09,57.09,0,0,0-22.89-14.92q1-1,1.91-2.11a55.53,55.53,0,0,0,22.2-9.87h0a55.76,55.76,0,0,0-8.75-19.15,55.19,55.19,0,0,0,30.08-31.47h0A55.38,55.38,0,0,0,1838-237.83a55.15,55.15,0,0,0-7.3-41.34h0a55.18,55.18,0,0,0-29.59,14.91,55.14,55.14,0,0,0-27.28-26.88h0a55.17,55.17,0,0,0-17.34,33.26,55.19,55.19,0,0,0-11.74-31.27h0A55.27,55.27,0,0,0,1708-256.73,55.66,55.66,0,0,0,1652.2-290h0a55.19,55.19,0,0,0,4.59,44.53,55.62,55.62,0,0,0-22.36-2.64h0a55.34,55.34,0,0,0-1.56,28.32,55.67,55.67,0,0,0-65.55.52h0a55.52,55.52,0,0,0,11.06,22.16,82.81,82.81,0,0,0-25.28,4.6c-0.64.22-1.26,0.47-1.88,0.71a55.43,55.43,0,0,0-28.37-47.31h0a55.15,55.15,0,0,0-20.93,36.38,55.15,55.15,0,0,0-35.2-10.42h0a55.16,55.16,0,0,0,.88,40.32,55.16,55.16,0,0,0-32.66,17.28h0a55.16,55.16,0,0,0,28.9,28.15,55.2,55.2,0,0,0-14.77,28.9h0a55.31,55.31,0,0,0,51,4.85c0.58,2.24,1.22,4.47,2,6.69a83.05,83.05,0,0,0,9,18.31,55.52,55.52,0,0,0-56.22,17.8h0A55.52,55.52,0,0,0,1505.65-20.31ZM1838.49-54l0.72,0.25c0,0.24-.07.49-0.1,0.73C1838.91-53.38,1838.69-53.7,1838.49-54Z"/>
    <path class="cls-3" d="M203.64,103.37h0a38.22,38.22,0,0,0-32.81,54.5h0a38.22,38.22,0,0,0,32.81-54.5h0Z"/>
    <path class="cls-3" d="M220.72,110.16h0a37.68,37.68,0,0,0,30.11,55.52h0A37.68,37.68,0,0,0,220.72,110.16Z"/>
    <path class="cls-3" d="M275.1,60.73c0.72-.11,1.43-0.25,2.14-0.37a61.1,61.1,0,0,0-.74,7.17,31.82,31.82,0,0,0,5.87,2.39,24.21,24.21,0,0,1,4.36-4.41V-294.35a59.47,59.47,0,0,0-39.54,20.14,59.66,59.66,0,0,0-38-41.9h0a59.67,59.67,0,0,0-13.93,54.94,59.58,59.58,0,0,0-52.94-6.13,59.6,59.6,0,0,0,21.9,49.49,60.25,60.25,0,0,0-25,10.2A59.55,59.55,0,0,0,122.4-236.5a59.44,59.44,0,0,0-30.81,30.6,59.53,59.53,0,0,0-43.73-26.4,59.43,59.43,0,0,0-6.59,38.24,59.72,59.72,0,0,0-20.11-19.62A59.48,59.48,0,0,0-.45-183.35,59.53,59.53,0,0,0-36.6-219.29h0a59.67,59.67,0,0,0-13.93,54.94,59.58,59.58,0,0,0-52.94-6.13A59.6,59.6,0,0,0-81.57-121a59.61,59.61,0,0,0-44.18,32.84A59.8,59.8,0,0,0-66.25-69.43a59.48,59.48,0,0,0-2.27,48.8A59.62,59.62,0,0,0-18.64-45.29,61.53,61.53,0,0,0,2.58-24.87Q1.33-24,.13-23a59.84,59.84,0,0,0-25.49,6A60.09,60.09,0,0,0-20,5a59.48,59.48,0,0,0-38.2,27.24A59.68,59.68,0,0,0-35.68,51.17,59.44,59.44,0,0,0-36.3,96.4,59.47,59.47,0,0,0-2,86.59a59.43,59.43,0,0,0,23.46,34A59.46,59.46,0,0,0,46.56,88.85a59.47,59.47,0,0,0,6.12,35.47h0a59.56,59.56,0,0,0,45.44-26.9,60,60,0,0,0,52.38,46.51,59.47,59.47,0,0,0,4.13-48.06,59.94,59.94,0,0,0,23.14,7.3,59.63,59.63,0,0,0,7.37-29.66,60,60,0,0,0,69.49,12.69h0C254.14,76.73,265.66,62.13,275.1,60.73ZM0.24-143.9c0.08-.25.18-0.5,0.26-0.75,0.14,0.39.31,0.77,0.46,1.16Z"/>
    <path class="cls-4" d="M419.33,102.26h0a35.47,35.47,0,0,0,16.92,56.55h0A35.47,35.47,0,0,0,419.33,102.26Z"/>
    <path class="cls-4" d="M414,72.64h0a35,35,0,0,0,56.91,14h0A35,35,0,0,0,414,72.64Z"/>
    <path class="cls-4" d="M391.43,103a35,35,0,0,0-29.49,50.65h0A35,35,0,0,0,391.43,103h0Z"/>
    <path class="cls-4" d="M188.48-48.32a55.52,55.52,0,0,0-8.29,58.64h0a55.15,55.15,0,0,0,37-15.25c0.1,0.59.18,1.17,0.3,1.76a82.56,82.56,0,0,0,14.63,33.25,55.16,55.16,0,0,0-17.83,33.18h0A55.22,55.22,0,0,0,260,68.7,55.28,55.28,0,0,0,258.07,118h0A55.24,55.24,0,0,0,300.25,97.1a55.36,55.36,0,0,0,37,37.18h0A55.37,55.37,0,0,0,347.8,82.74a55.29,55.29,0,0,0,49.34,3.36h0a55.3,55.3,0,0,0-22.46-44.92,55.91,55.91,0,0,0,22.72-10.55,55.26,55.26,0,0,0,16.86,26h0A55.16,55.16,0,0,0,441.47,27a55.24,55.24,0,0,0,41.69,22.56h0a55.15,55.15,0,0,0,4.43-35.73,55.42,55.42,0,0,0,19.5,17.3h0A55.19,55.19,0,0,0,525.8,2a55.24,55.24,0,0,0,35.07,31.73h0a55.37,55.37,0,0,0,10.51-51.54,55.29,55.29,0,0,0,49.34,3.36h0a55.3,55.3,0,0,0-22.46-44.92,55.31,55.31,0,0,0,39.51-32.37h0a55.49,55.49,0,0,0-56-14.74,55.19,55.19,0,0,0,0-45.33h0a55.33,55.33,0,0,0-45.16,25,57.09,57.09,0,0,0-20.56-18q1.12-.89,2.19-1.82a55.53,55.53,0,0,0,23.36-6.65h0a55.76,55.76,0,0,0-6-20.19,55.19,55.19,0,0,0,34.21-26.92h0a55.38,55.38,0,0,0-21.67-16.57,55.15,55.15,0,0,0-1.4-42h0a55.18,55.18,0,0,0-31.4,10.6,55.14,55.14,0,0,0-23.23-30.45h0a55.17,55.17,0,0,0-21.85,30.49,55.19,55.19,0,0,0-7.22-32.61h0a55.27,55.27,0,0,0-40.94,26.92,55.66,55.66,0,0,0-50.59-40.81h0A55.19,55.19,0,0,0,369.82-250a55.62,55.62,0,0,0-21.76-5.76h0a55.34,55.34,0,0,0-5.53,27.82,55.67,55.67,0,0,0-65-8.72h0a55.52,55.52,0,0,0,7.82,23.5,82.81,82.81,0,0,0-25.67,1c-0.66.13-1.31,0.29-2,.44a55.43,55.43,0,0,0-21.43-50.83h0a55.15,55.15,0,0,0-25.84,33.07,55.15,55.15,0,0,0-33.39-15.27h0a55.16,55.16,0,0,0-4.81,40,55.16,55.16,0,0,0-34.77,12.51h0a55.16,55.16,0,0,0,24.65,31.94,55.2,55.2,0,0,0-18.69,26.54h0a55.31,55.31,0,0,0,49.84,12c0.26,2.3.58,4.6,1,6.9a83.05,83.05,0,0,0,6.36,19.39,55.52,55.52,0,0,0-58.17,9.71h0A55.52,55.52,0,0,0,188.48-48.32ZM522.75-34.84l0.68,0.35c-0.07.24-.14,0.47-0.2,0.71C523.08-34.14,522.91-34.48,522.75-34.84Z"/>
    <path class="cls-1" d="M1552.79,431.17h0a38.22,38.22,0,0,0-27.3-57.45h0A38.22,38.22,0,0,0,1552.79,431.17Z"/>
    <path class="cls-1" d="M1563.36,461.83h0a37.68,37.68,0,0,0-62.91-5.56h0A37.68,37.68,0,0,0,1563.36,461.83Z"/>
    <path class="cls-1" d="M1386.36,561.41h0a37.68,37.68,0,0,0-55.8-29.59A37.68,37.68,0,0,0,1386.36,561.41Z"/>
    <path class="cls-1" d="M1582.37,425.79A37.68,37.68,0,0,0,1605.46,367h0a37.68,37.68,0,0,0-23.09,58.79h0Z"/>
    <path class="cls-1" d="M1823.39,553.63a59.84,59.84,0,0,0-.8-63.82h0a59.44,59.44,0,0,0-36.89,22.32c-0.21-.61-0.39-1.22-0.61-1.83a89,89,0,0,0-21-33A59.45,59.45,0,0,0,1777.58,439h0a59.5,59.5,0,0,0-49.58,1.7A59.58,59.58,0,0,0,1722,387.9h0a59.53,59.53,0,0,0-41.48,29.2,59.66,59.66,0,0,0-45.56-33.51h0a59.67,59.67,0,0,0-2.73,56.62,59.58,59.58,0,0,0-53.1,4.52h0a59.6,59.6,0,0,0,31.3,44.15,60.25,60.25,0,0,0-22.46,15,59.55,59.55,0,0,0-22.23-25h0A59.44,59.44,0,0,0,1541.57,515a59.53,59.53,0,0,0-48.11-17.18h0a59.43,59.43,0,0,0,1.15,38.79A59.72,59.72,0,0,0,1471,521.37h0a59.48,59.48,0,0,0-15.15,34,59.53,59.53,0,0,0-42.57-28h0a59.67,59.67,0,0,0-2.73,56.62,59.58,59.58,0,0,0-53.1,4.52h0a59.6,59.6,0,0,0,31.3,44.15,59.61,59.61,0,0,0-36.77,41h0a59.81,59.81,0,0,0,62,6.5,59.48,59.48,0,0,0,7.48,48.28h0a59.62,59.62,0,0,0,44-34.08,61.53,61.53,0,0,0,24.86,15.79q-1,1.13-2,2.3a59.85,59.85,0,0,0-23.79,10.92h0a60.09,60.09,0,0,0,9.67,20.53,59.48,59.48,0,0,0-32,34.29h0A59.68,59.68,0,0,0,1468,792.23a59.44,59.44,0,0,0,8.39,44.46h0a59.47,59.47,0,0,0,31.7-16.44,59.43,59.43,0,0,0,29.74,28.62h0a59.46,59.46,0,0,0,18.26-36.06,59.47,59.47,0,0,0,13.05,33.55h0a59.56,59.56,0,0,0,39.19-35.4,60,60,0,0,0,60.59,35.16h0a59.48,59.48,0,0,0-5.51-47.92,59.94,59.94,0,0,0,24.13,2.56h0a59.64,59.64,0,0,0,1.32-30.54,60,60,0,0,0,70.63-1.39h0a59.84,59.84,0,0,0-12.19-23.74,89.24,89.24,0,0,0,27.18-5.27c0.68-.25,1.35-0.53,2-0.79a59.73,59.73,0,0,0,31.17,50.62h0a59.43,59.43,0,0,0,22.09-39.47A59.44,59.44,0,0,0,1867.79,761h0a59.45,59.45,0,0,0-1.46-43.43,59.44,59.44,0,0,0,35-19h0a59.44,59.44,0,0,0-31.5-30,59.49,59.49,0,0,0,15.55-31.33h0a59.61,59.61,0,0,0-55.05-4.58c-0.65-2.4-1.38-4.8-2.24-7.18a89.5,89.5,0,0,0-10-19.61,59.83,59.83,0,0,0,60.36-19.89h0A59.84,59.84,0,0,0,1823.39,553.63Zm-358.25,40.54-0.78-.26c0-.26.07-0.53,0.1-0.79C1464.68,593.48,1464.92,593.82,1465.15,594.17Z"/>
    <path class="cls-2" d="M1662.09,505.85h0a35.47,35.47,0,0,0-12.16-57.76h0A35.47,35.47,0,0,0,1662.09,505.85Z"/>
    <path class="cls-2" d="M1665,535.81h0a35,35,0,0,0-55.55-18.68h0A35,35,0,0,0,1665,535.81Z"/>
    <path class="cls-2" d="M1508.94,605.65h0a35,35,0,0,0-44.14-38.55h0A35,35,0,0,0,1508.94,605.65Z"/>
    <path class="cls-2" d="M1690,507.42a35,35,0,0,0,33.59-48h0a35,35,0,0,0-33.59,48h0Z"/>
    <path class="cls-2" d="M1650.68,574.37a55.52,55.52,0,0,0-57.73-13.2h0A55.15,55.15,0,0,0,1605,599.31c-0.59.05-1.19,0.09-1.78,0.15a82.56,82.56,0,0,0-34.36,11.78,55.16,55.16,0,0,0-31.56-20.56h0a55.22,55.22,0,0,0-9.28,45.09,55.28,55.28,0,0,0-49-6.07h0a55.24,55.24,0,0,0,17.29,43.78,55.36,55.36,0,0,0-40.16,33.78h0a55.37,55.37,0,0,0,50.47,14.81,55.29,55.29,0,0,0-7.51,48.88h0a55.3,55.3,0,0,0,46.65-18.6,55.91,55.91,0,0,0,8.6,23.52A55.26,55.26,0,0,0,1527,790.5h0a55.16,55.16,0,0,0,27.31,29.62,55.24,55.24,0,0,0-26,39.64h0a55.15,55.15,0,0,0,35.23,7.43,55.42,55.42,0,0,0-18.88,18h0a55.19,55.19,0,0,0,27.38,21.09,55.24,55.24,0,0,0-34.57,32.28h0A55.37,55.37,0,0,0,1588,953.34a55.29,55.29,0,0,0-7.51,48.88h0a55.3,55.3,0,0,0,46.65-18.6,55.31,55.31,0,0,0,28.93,42.1h0a55.49,55.49,0,0,0,19.4-54.53,55.19,55.19,0,0,0,45.17,3.79h0a55.33,55.33,0,0,0-21.14-47.1,57.09,57.09,0,0,0,19.66-19q0.79,1.19,1.63,2.34a55.53,55.53,0,0,0,4.66,23.84h0a55.76,55.76,0,0,0,20.62-4.24A55.19,55.19,0,0,0,1770,967.19h0a55.38,55.38,0,0,0,18.34-20.2,55.15,55.15,0,0,0,41.93,2.13h0a55.18,55.18,0,0,0-7.92-32.18,55.14,55.14,0,0,0,32.3-20.58h0A55.17,55.17,0,0,0,1826.11,872a55.19,55.19,0,0,0,33.1-4.45h0a55.27,55.27,0,0,0-23.38-43.07,55.66,55.66,0,0,0,44.93-47h0a55.19,55.19,0,0,0-44.42-5.49,55.62,55.62,0,0,0,7.57-21.2h0a55.34,55.34,0,0,0-27.25-7.85,55.67,55.67,0,0,0,14.16-64h0a55.52,55.52,0,0,0-24.07,5.82,82.81,82.81,0,0,0,1.18-25.67c-0.07-.67-0.18-1.33-0.27-2a55.43,55.43,0,0,0,52.46-17.07h0a55.15,55.15,0,0,0-30.78-28.54,55.15,55.15,0,0,0,18-32h0a55.16,55.16,0,0,0-39.49-8.16,55.16,55.16,0,0,0-9.54-35.7h0a55.16,55.16,0,0,0-33.9,21.87,55.2,55.2,0,0,0-24.87-20.86h0a55.31,55.31,0,0,0-16.14,48.65c-2.31.06-4.63,0.19-7,.45a83.05,83.05,0,0,0-19.86,4.7,55.52,55.52,0,0,0-4.78-58.78h0A55.52,55.52,0,0,0,1650.68,574.37ZM1609.1,906.32l-0.4.65-0.69-.26C1608.37,906.58,1608.73,906.45,1609.1,906.32Z"/>
  </g>
</svg>
