<?xml version="1.0" encoding="utf-8"?>
<!-- Generator: Adobe Illustrator 21.0.2, SVG Export Plug-In . SVG Version: 6.00 Build 0)  -->
<svg version="1.1" xmlns="http://www.w3.org/2000/svg" xmlns:xlink="http://www.w3.org/1999/xlink" x="0px" y="0px"
	 viewBox="0 0 1920 1080" style="enable-background:new 0 0 1920 1080;" xml:space="preserve">
<style type="text/css">
	.st0{clip-path:url(#SVGID_2_);}
	.st1{fill:#739EC6;}
	.st2{fill:#92BFDD;}
	.st3{fill:#A6CDE2;}
	.st4{clip-path:url(#SVGID_4_);}
	.st5{fill:#BAD8E8;}
	.st6{fill:#9FCDED;}
	.st7{opacity:0.4;}
	.st8{fill:none;stroke:#FFFFFF;stroke-width:4;stroke-linecap:round;stroke-miterlimit:10;}
	.st9{fill:#7AA6CC;}
	.st10{fill:#93BADB;}
	.st11{fill:#DAF0F7;}
	.st12{fill:#BBE5EF;}
	.st13{opacity:0.7;fill:#E8F6F9;enable-background:new    ;}
	.st14{opacity:0.7;fill:#A6CDE2;enable-background:new    ;}
	.st15{opacity:0.4;fill:#E8F6F9;enable-background:new    ;}
	.st16{fill:#A69990;}
	.st17{fill:#A39790;}
	.st18{fill:none;stroke:#A69990;stroke-width:18.0492;stroke-linecap:round;stroke-miterlimit:10;}
	.st19{opacity:0.3;fill:#F2F2F2;stroke:#FFFFFF;stroke-width:0.8367;stroke-miterlimit:10;enable-background:new    ;}
	.st20{fill:#58595B;}
	.st21{fill:#C66155;}
	.st22{opacity:0.7;fill:#CCCCCC;enable-background:new    ;}
	.st23{fill:none;}
	.st24{clip-path:url(#SVGID_2_);fill:#58595B;}
</style>
<g id="Layer_1">
</g>
<g id="Layer_2_1_">
	<g>
		<defs>
			<circle id="SVGID_1_" cx="939.5" cy="542.5" r="463.5"/>
		</defs>
		<clipPath id="SVGID_2_">
			<use xlink:href="#SVGID_1_"  style="overflow:visible;"/>
		</clipPath>
		<g id="Layer_2" class="st0">
			<g>
				<circle class="st1" cx="939.5" cy="542.5" r="463.5"/>
			</g>
		</g>
		<g id="Layer_13" class="st0">
			<rect x="796.7" y="329.3" class="st2" width="157" height="132.4"/>
			<rect x="808.4" y="337.3" class="st3" width="135.6" height="114.4"/>
			<g>
				<g>
					<defs>
						<rect id="SVGID_3_" x="808.4" y="337.3" width="135.6" height="114.4"/>
					</defs>
					<clipPath id="SVGID_4_">
						<use xlink:href="#SVGID_3_"  style="overflow:visible;"/>
					</clipPath>
					<g class="st4">
						<path class="st5" d="M858.3,485.8h-4.5c-15,0-22.9-12.3-22.9-27.2V390c0-15,7.9-27.2,22.9-27.2h4.5c15,0,27.2,12.3,27.2,27.2
							v68.7C885.6,473.6,873.3,485.8,858.3,485.8z"/>
						<ellipse class="st5" cx="896.1" cy="455.2" rx="39" ry="49.5"/>
						<path class="st5" d="M831,387v-34.2c0-1,1.2-1.5,1.9-0.8l11.7,15.6c0.4,0.4,0.4,1.1,0.1,1.5L833,387.7
							C832.3,388.5,831,388,831,387z"/>
						<path class="st5" d="M885.6,387v-34.2c0-1-1.2-1.5-1.9-0.8L872,367.6c-0.4,0.4-0.4,1.1-0.1,1.5l11.7,18.6
							C884.4,388.5,885.6,388,885.6,387z"/>
						<g>
							<circle class="st1" cx="844.4" cy="383.1" r="2.4"/>
						</g>
						<g>
							<circle class="st1" cx="868.5" cy="383.5" r="2.4"/>
						</g>
						<path class="st2" d="M859.1,391.6c-0.1,1.8-2.5,3.2-3.5,3.2c-1.1,0-3.3-1.6-3.2-3.5c0.1-1.8,1.6-1.8,3.5-1.7
							C857.7,389.7,859.1,389.7,859.1,391.6z"/>
					</g>
				</g>
			</g>
		</g>
		<g id="Layer_1_1_" class="st0">
			<g>
				<rect x="438" y="583" class="st6" width="1036" height="431"/>
			</g>
			<g>
				<rect x="395" y="592" class="st2" width="1118" height="31"/>
			</g>
			<g>
				<path class="st6" d="M1500,614H432c-8.8,0-16-7.2-16-16l0,0c0-8.8,7.2-16,16-16h1068c8.8,0,16,7.2,16,16l0,0
					C1516,606.8,1508.8,614,1500,614z"/>
			</g>
			<g>
				<g>
					<path class="st2" d="M1447.5,660v315h-315.1V660H1447.5 M1459,648.5h-338v338h338V648.5L1459,648.5z"/>
				</g>
			</g>
			<g>
				<path class="st2" d="M1206.3,696.6h-51.6c-5.5,0-10.1-4.5-10.1-10.1l0,0c0-5.5,4.5-10.1,10.1-10.1h51.6
					c5.5,0,10.1,4.5,10.1,10.1l0,0C1216.3,692.1,1211.8,696.6,1206.3,696.6z"/>
			</g>
			<g>
				<g>
					<path class="st2" d="M1092.5,660v315h-315V660H1092.5 M1104,648.5H766v338h338V648.5L1104,648.5z"/>
				</g>
			</g>
			<g>
				<path class="st2" d="M1003.6,704.7l38.3,34.6c4.1,3.7,10.5,3.4,14.2-0.7l0,0c3.7-4.1,3.4-10.5-0.7-14.2l-38.3-34.6
					c-4.1-3.7-10.5-3.4-14.2,0.7l0,0C999.2,694.6,999.5,701,1003.6,704.7z"/>
			</g>
			<polygon class="st2" points="1259,769 1178,750 1266,835 1191,940 1308,899 1375,946 1370,891 1422,833 1375,803 1411,692 
				1347,760 1308,788 			"/>
			<polygon class="st2" points="1016.5,653.5 1028.5,679.5 1063.5,675.5 1076.5,711.5 1096.5,719.5 1095.5,655.5 			"/>
		</g>
		<g id="Layer_8" class="st0">
			<path class="st2" d="M659,542H460.6c-4.7,0-8.6-3.9-8.6-8.6V410.6c0-4.7,3.9-8.6,8.6-8.6H659c4.7,0,8.6,3.9,8.6,8.6v122.7
				C667.6,538.1,663.7,542,659,542z"/>
			<g>
				<path class="st1" d="M649.1,529.6h-174c-4,0-7.3-3.3-7.3-7.3V421.8c0-4,3.3-7.3,7.3-7.3h174c4,0,7.3,3.3,7.3,7.3v100.5
					C656.4,526.3,653.1,529.6,649.1,529.6z"/>
			</g>
			<rect x="531" y="536" class="st2" width="49" height="35"/>
			<rect x="494" y="564" class="st2" width="122" height="18"/>
			<g id="Layer_9" class="st7">
				<line class="st8" x1="496" y1="416" x2="520" y2="454"/>
				<line class="st8" x1="520" y1="454" x2="589" y2="446"/>
				<line class="st8" x1="589" y1="448" x2="656" y2="484"/>
				<line class="st8" x1="519" y1="455" x2="470" y2="478"/>
				<line class="st8" x1="522" y1="454" x2="552" y2="492"/>
				<line class="st8" x1="552" y1="492" x2="585" y2="490"/>
				<line class="st8" x1="585" y1="490" x2="608" y2="457"/>
				<line class="st8" x1="538" y1="476" x2="505" y2="500"/>
				<line class="st8" x1="505" y1="500" x2="494" y2="468"/>
				<line class="st8" x1="504" y1="500" x2="503" y2="532"/>
				<line class="st8" x1="568" y1="446" x2="572" y2="416"/>
				<line class="st8" x1="552" y1="451" x2="541" y2="475"/>
				<line class="st8" x1="492" y1="468" x2="502" y2="430"/>
				<line class="st8" x1="502" y1="430" x2="547" y2="432"/>
				<line class="st8" x1="520" y1="455" x2="505" y2="499"/>
				<line class="st8" x1="520" y1="453" x2="571" y2="417"/>
				<line class="st8" x1="540" y1="441" x2="542" y2="451"/>
				<line class="st8" x1="585" y1="490" x2="602" y2="528"/>
				<line class="st8" x1="551" y1="492" x2="537" y2="530"/>
				<line class="st8" x1="552" y1="490" x2="587" y2="448"/>
				<line class="st8" x1="588" y1="447" x2="598" y2="414"/>
			</g>
		</g>
		<g id="Layer_11" class="st0">
			<path class="st2" d="M746.4,587h-19c-8,0-14.5-6.5-14.5-14.5v-30c0-8,6.5-14.5,14.5-14.5h19c8,0,14.5,6.5,14.5,14.5v30
				C760.9,580.5,754.3,587,746.4,587z"/>
			<path class="st5" d="M746.2,512h-18.6c-0.7,0-1.3-0.5-1.4-1.2l-0.5-3.2c-0.1-0.8,0.5-1.6,1.4-1.6h19.7c0.9,0,1.5,0.8,1.4,1.6
				l-0.5,3.2C747.5,511.5,746.9,512,746.2,512z"/>
			<path class="st2" d="M747.9,518h-22c-2.2,0-4-1.8-4-4l0,0c0-2.2,1.8-4,4-4h22c2.2,0,4,1.8,4,4l0,0
				C751.9,516.2,750.1,518,747.9,518z"/>
			<rect x="724.9" y="518" class="st2" width="24" height="15"/>
			<rect x="713" y="545" class="st5" width="21" height="24"/>
			<path class="st2" d="M790.1,596h-12.3c-7.1,0-12.9-5.8-12.9-12.9v-33.2c0-7.1,5.8-12.9,12.9-12.9h12.3c7.1,0,12.9,5.8,12.9,12.9
				v33.2C803,590.2,797.2,596,790.1,596z"/>
			<path class="st5" d="M791.3,521h-14.8c-0.5,0-1-0.5-1.1-1.2l-0.4-3.2c-0.1-0.8,0.4-1.6,1.1-1.6h15.7c0.7,0,1.2,0.8,1.1,1.6
				l-0.4,3.2C792.3,520.5,791.9,521,791.3,521z"/>
			<path class="st2" d="M792.3,527h-16.7c-2,0-3.6-1.6-3.6-3.6v-0.9c0-2,1.6-3.6,3.6-3.6h16.7c2,0,3.6,1.6,3.6,3.6v0.9
				C795.9,525.4,794.2,527,792.3,527z"/>
			<g>
				<ellipse class="st2" cx="915" cy="591" rx="42" ry="5"/>
			</g>
			<rect x="774.4" y="527" class="st2" width="19.1" height="15"/>
			<rect x="776" y="553" class="st5" width="22.7" height="24"/>
			<path class="st3" d="M878.1,583.5l-1.3-28.4c-0.2-5.4,4-10,9.3-10.2l39.4-1.8c5.4-0.2,10,4,10.2,9.3l1.3,28.4
				c0.2,5.4-4,10-9.3,10.2l-39.4,1.8C882.9,593,878.3,588.8,878.1,583.5z"/>
			<path class="st3" d="M946.8,577.1l-1-22c-0.1-2.2,1.6-4.1,3.8-4.2l0,0c2.2-0.1,4.1,1.6,4.2,3.8l1,22c0.1,2.2-1.6,4.1-3.8,4.2l0,0
				C948.8,581,946.9,579.3,946.8,577.1z"/>
			
				<rect x="931.3" y="554.5" transform="matrix(0.999 -4.528932e-02 4.528932e-02 0.999 -24.6946 43.0988)" class="st3" width="15" height="24"/>
			
				<rect x="894.8" y="548.1" transform="matrix(0.999 -4.528932e-02 4.528932e-02 0.999 -24.3667 41.641)" class="st5" width="24" height="21"/>
			<path class="st3" d="M768.1,598h-12.3c-7.1,0-12.9-5.8-12.9-12.9v-33.2c0-7.1,5.8-12.9,12.9-12.9h12.3c7.1,0,12.9,5.8,12.9,12.9
				v33.2C781,592.2,775.2,598,768.1,598z"/>
			<path class="st5" d="M769.3,524h-14.8c-0.5,0-1-0.5-1.1-1.2l-0.4-3.2c-0.1-0.8,0.4-1.6,1.1-1.6h15.7c0.7,0,1.2,0.8,1.1,1.6
				l-0.4,3.2C770.3,523.5,769.9,524,769.3,524z"/>
			<path class="st3" d="M770.3,529h-16.7c-2,0-3.6-1.6-3.6-3.6v-0.9c0-2,1.6-3.6,3.6-3.6h16.7c2,0,3.6,1.6,3.6,3.6v0.9
				C773.9,527.4,772.2,529,770.3,529z"/>
			<rect x="752.4" y="529" class="st3" width="19.1" height="15"/>
			<rect x="754" y="556" class="st5" width="22.7" height="24"/>
		</g>
		<g id="Layer_10" class="st0">
			
				<ellipse transform="matrix(0.9758 -0.2186 0.2186 0.9758 -58.1106 279.8802)" class="st9" cx="1235.8" cy="402.6" rx="67.8" ry="41.7"/>
			<ellipse class="st9" cx="1190.8" cy="365" rx="24.8" ry="24"/>
			<ellipse class="st9" cx="1296.8" cy="367" rx="24.8" ry="24"/>
			<g>
				<ellipse class="st10" cx="1102" cy="598.5" rx="44" ry="10.5"/>
			</g>
			<g>
				<path class="st10" d="M1083,666L1083,666c-5.5,0-10-4.5-10-10v-48c0-5.5,4.5-10,10-10l0,0c5.5,0,10,4.5,10,10v48
					C1093,661.5,1088.5,666,1083,666z"/>
			</g>
			<g>
				<path class="st10" d="M1105.5,629L1105.5,629c-3.6,0-6.5-2.9-6.5-6.5v-17c0-3.6,2.9-6.5,6.5-6.5l0,0c3.6,0,6.5,2.9,6.5,6.5v17
					C1112,626.1,1109.1,629,1105.5,629z"/>
			</g>
			<g>
				<path class="st10" d="M1289.5,626L1289.5,626c-3.6,0-6.5-2.9-6.5-6.5v-17c0-3.6,2.9-6.5,6.5-6.5l0,0c3.6,0,6.5,2.9,6.5,6.5v17
					C1296,623.1,1293.1,626,1289.5,626z"/>
			</g>
			<g>
				<ellipse class="st10" cx="1155.4" cy="595.5" rx="31.4" ry="7.5"/>
			</g>
			<g>
				<ellipse class="st10" cx="1305.4" cy="597.5" rx="31.4" ry="7.5"/>
			</g>
			<path class="st9" d="M1204.5,500L1204.5,500c-8,0-14.5-6.5-14.5-14.5v-60c0-8,6.5-14.5,14.5-14.5l0,0c8,0,14.5,6.5,14.5,14.5v60
				C1219,493.5,1212.5,500,1204.5,500z"/>
			<path class="st9" d="M1234.5,463L1234.5,463c-4.1,0-7.5-3.4-7.5-7.5v-33c0-4.1,3.4-7.5,7.5-7.5l0,0c4.1,0,7.5,3.4,7.5,7.5v33
				C1242,459.6,1238.6,463,1234.5,463z"/>
		</g>
		<g id="Layer_12" class="st0">
			<rect x="442" y="337" class="st2" width="275" height="16"/>
			<rect x="667.3" y="233" class="st3" width="41.4" height="104"/>
			<rect x="667.3" y="301" class="st5" width="41.4" height="24"/>
			<rect x="667.3" y="295" class="st5" width="41.4" height="4"/>
			<polygon class="st3" points="624.4,336.5 665.2,330.2 648.4,227.5 607.5,233.8 			"/>
			<polygon class="st5" points="622.4,324.6 663.3,318.4 659.4,294.7 618.5,300.9 			"/>
			<polygon class="st5" points="617.6,295 658.4,288.7 659,292.7 618.2,299 			"/>
			<polygon class="st3" points="611.8,337.1 615.1,297.2 507.9,288.9 504.6,328.8 			"/>
			<polygon class="st5" points="599.4,336.1 602.7,296.3 578,294.3 574.7,334.2 			"/>
			<polygon class="st5" points="568.5,333.7 571.8,293.9 575.9,294.2 572.6,334.1 			"/>
		</g>
		<g id="Layer_4" class="st0">
			<g>
				<rect x="386" y="664" class="st11" width="485" height="392"/>
			</g>
			<g>
				<g>
					<path class="st12" d="M863,686v9H368v-9H863 M873,676H358v29h515V676L873,676z"/>
				</g>
			</g>
			<g>
				<path class="st11" d="M885.5,694h-1045c-15.1,0-27.5-12.4-27.5-27.5l0,0c0-15.1,12.4-27.5,27.5-27.5h1045
					c15.1,0,27.5,12.4,27.5,27.5l0,0C913,681.6,900.6,694,885.5,694z"/>
			</g>
			<g>
				<g>
					<path class="st12" d="M842,736.5v318H524v-318H842 M852,726.5H514v338h338V726.5L852,726.5z"/>
				</g>
			</g>
			<g>
				<g>
					<path class="st12" d="M599.3,764.5L599.3,764.5C599.4,764.6,599.3,764.6,599.3,764.5l-51.6,0.1c0,0-0.1,0-0.1-0.1
						c0,0,0-0.1,0.1-0.1L599.3,764.5L599.3,764.5 M599.3,754.5h-51.6c-5.5,0-10.1,4.5-10.1,10.1s4.5,10.1,10.1,10.1h51.6
						c5.5,0,10.1-4.5,10.1-10.1S604.8,754.5,599.3,754.5L599.3,754.5z"/>
				</g>
			</g>
		</g>
		<g id="Layer_3" class="st0">
			<path class="st13" d="M1150.6,567.9l-10.4-70.1l1-0.1c1.1-0.1,1.9-1.1,1.7-2.2c-0.1-1.1-1.1-1.9-2.2-1.7l-19.8,2.5
				c-1.1,0.1-1.9,1.1-1.7,2.2c0.1,1.1,1.1,1.9,2.2,1.7l1-0.1l10.5,70.5c0.7,4.9,5.3,8.3,10.2,7.6
				C1147.9,577.4,1151.3,572.8,1150.6,567.9z"/>
			<path class="st13" d="M1200.9,565l-24.7-66.4l0.9-0.3c1-0.4,1.6-1.5,1.2-2.5s-1.5-1.6-2.5-1.2l-18.9,6.5c-1,0.4-1.6,1.5-1.2,2.5
				s1.5,1.6,2.5,1.2l1-0.3l24.8,66.8c1.7,4.6,6.9,7,11.6,5.3C1200.2,574.8,1202.6,569.6,1200.9,565z"/>
			<path class="st13" d="M1235.3,574.5l26.4-65.7l0.9,0.4c1,0.4,2.2,0,2.6-1s0-2.2-1-2.6l-18.4-7.9c-1-0.4-2.2,0-2.6,1s0,2.2,1,2.6
				l0.9,0.4l-26.6,66.1c-1.8,4.6,0.4,9.9,5,11.7C1228.2,581.3,1233.5,579.1,1235.3,574.5z"/>
			<g>
				<ellipse class="st2" cx="1017" cy="589" rx="39" ry="5"/>
			</g>
			<g>
				<ellipse class="st2" cx="1378" cy="600" rx="39" ry="5"/>
			</g>
			<path class="st13" d="M1135.4,600.7l-72.9,4.1c-4.9,0.3-9.2-3.5-9.5-8.5l0,0c-0.3-4.9,3.5-9.2,8.5-9.5l72.9-4.1l0.5,7.2L1120,592
				l-2.5-3.3l-27.7,4.1l25.1-1.6l2.6,3.3l6.2,0.2l10.2,0.1L1135.4,600.7z"/>
			<path class="st13" d="M1325.6,567.2l70.7,18.1c4.8,1.2,7.7,6.2,6.5,10.9l0,0c-1.2,4.8-6.2,7.7-10.9,6.5l-70.7-18.1l1.7-7
				l14.9,2.5l1.4,4l27.7,4.4l-24.4-6l-1.5-3.9l-5.9-2.1l-9.7-3.2L1325.6,567.2z"/>
			<rect x="1101" y="500" class="st2" width="14" height="82"/>
			<rect x="1274" y="500" class="st2" width="14" height="82"/>
			<rect x="1109" y="523" class="st2" width="173" height="8"/>
			<rect x="1109" y="562" class="st2" width="173" height="8"/>
			<path class="st14" d="M1047.7,536c0-2.8-2.2-5-5-5h-43c-2.8,0-5,2.2-5,5c0,1.9,1,3.5,2.5,4.3c0,0.3,0,0.6,0,0.9v39.5
				c0,5.4,4.4,9.8,9.8,9.8h28.5c5.4,0,9.8-4.4,9.8-9.8v-39.5c0-0.3,0-0.6,0-0.9C1046.7,539.5,1047.7,537.9,1047.7,536z"/>
			<path class="st15" d="M1041,548h-19c-0.5,0-1-0.5-1-1l0,0c0-0.5,0.5-1,1-1h19c0.6,0,1,0.5,1,1l0,0
				C1042,547.5,1041.6,548,1041,548z"/>
			<path class="st15" d="M1041,563h-19c-0.5,0-1-0.5-1-1l0,0c0-0.5,0.5-1,1-1h19c0.6,0,1,0.5,1,1l0,0
				C1042,562.5,1041.6,563,1041,563z"/>
			<path class="st15" d="M1041,578h-19c-0.5,0-1-0.5-1-1l0,0c0-0.5,0.5-1,1-1h19c0.6,0,1,0.5,1,1l0,0
				C1042,577.5,1041.6,578,1041,578z"/>
			<path class="st15" d="M1041.2,555.5h-10.5c-0.4,0-0.8-0.3-0.8-0.8v-0.5c0-0.4,0.3-0.8,0.8-0.8h10.5c0.4,0,0.8,0.3,0.8,0.8v0.5
				C1042,555.2,1041.7,555.5,1041.2,555.5z"/>
			<path class="st15" d="M1041.2,570.5h-10.5c-0.4,0-0.8-0.3-0.8-0.8v-0.5c0-0.4,0.3-0.8,0.8-0.8h10.5c0.4,0,0.8,0.3,0.8,0.8v0.5
				C1042,570.2,1041.7,570.5,1041.2,570.5z"/>
		</g>
		<g id="Layer_5" class="st0">
			<path class="st16" d="M836,641c0-46.3-48.8-80-91-80c-24.5,0-52.7,6.7-69,25c-11.8,13.2-15.6,34.4-15.6,53.8"/>
			<path class="st16" d="M836,641c0-46.3-48.8-80-91-80c-24.5,0-52.7,6.7-69,25c-11.8,13.2-15.6,34.4-15.6,53.8"/>
			<path class="st17" d="M881,625.2v-64.7c0-1.8-2.2-2.8-3.5-1.5l-22.1,29.5c-0.8,0.8-0.8,2-0.1,2.8l22.1,35.1
				C878.6,628,881,627.1,881,625.2z"/>
			<path class="st16" d="M885,628.2c0,10-15.4,14-38.1,14s-44.1-6-44.1-14c0-23.3,12-52.1,42.1-52.1C877,576.1,885,604.9,885,628.2z
				"/>
			<path class="st16" d="M810.8,633v-72.7c0-2,2.5-3.1,3.9-1.7l24.9,33.2c0.9,0.9,0.9,2.3,0.1,3.2l-24.9,39.5
				C813.5,636.1,810.8,635.1,810.8,633z"/>
			<line class="st18" x1="669.4" y1="635.2" x2="669.4" y2="739.5"/>
			<path class="st19" d="M856,635.5L856,635.5c-1.4,0-2.5-1.1-2.5-2.5v-9c0-1.4,1.1-2.5,2.5-2.5l0,0c1.4,0,2.5,1.1,2.5,2.5v9
				C858.5,634.4,857.4,635.5,856,635.5z"/>
			<path class="st20" d="M861.7,605c0,3.7,3,6.7,6.7,6.7s6.7-3,6.7-6.7s-3,3.3-6.7,3.3S861.7,601.3,861.7,605z"/>
			<path class="st20" d="M827.4,605c0,3.7,3,6.7,6.7,6.7s6.7-3,6.7-6.7s-3,3.3-6.7,3.3S827.4,601.3,827.4,605z"/>
			<g>
				<path class="st21" d="M842,620.8c0.2,5.1,7,8.8,9.6,8.8c3.1,0,9-4.5,8.8-9.6s-4.5-4.8-9.6-4.6
					C845.8,615.6,841.8,615.7,842,620.8z"/>
			</g>
		</g>
		<g id="Layer_6" class="st0">
			<path class="st22" d="M969,258H737c-18.1,0-33-14.8-33-33l0,0c0-18.1,14.8-33,33-33h232c18.1,0,33,14.8,33,33l0,0
				C1002,243.2,987.2,258,969,258z"/>
			<path class="st22" d="M992.5,309h-131c-16.8,0-30.5-13.7-30.5-30.5l0,0c0-16.8,13.7-30.5,30.5-30.5h131
				c16.8,0,30.5,13.7,30.5,30.5l0,0C1023,295.3,1009.3,309,992.5,309z"/>
			<path class="st22" d="M1213.5,235h-131c-16.8,0-30.5-13.7-30.5-30.5l0,0c0-16.8,13.7-30.5,30.5-30.5h131
				c16.8,0,30.5,13.7,30.5,30.5l0,0C1244,221.3,1230.3,235,1213.5,235z"/>
			<path class="st22" d="M998.9,172H760.5c-30.5,0-55.5-25-55.5-55.5l0,0C705,86,730,61,760.5,61h238.4c30.5,0,55.5,25,55.5,55.5
				l0,0C1054.4,147,1029.4,172,998.9,172z"/>
			<path class="st22" d="M951.9,360H815.1c-14.4,0-26.1-11.7-26.1-26.1v-8.8c0-14.4,11.7-26.1,26.1-26.1h136.8
				c14.4,0,26.1,11.7,26.1,26.1v8.8C978,348.3,966.3,360,951.9,360z"/>
			<path class="st22" d="M1001,395H891.5c-14,0-25.5-11.5-25.5-25.5l0,0c0-14,11.5-25.5,25.5-25.5H1001c14,0,25.5,11.5,25.5,25.5
				l0,0C1026.5,383.5,1015,395,1001,395z"/>
			<circle class="st22" cx="1174" cy="448" r="19"/>
			<circle class="st22" cx="1093.5" cy="401.5" r="33.5"/>
			<circle class="st22" cx="1199" cy="426" r="21"/>
		</g>
		<g id="Layer_7" class="st0">
			<g>
				<circle class="st23" cx="939.5" cy="542.5" r="463.5"/>
			</g>
		</g>
		<path class="st24" d="M678.5,736.9c-0.2,4.4-1.3,11.6-9.3,11.6c-7.6,0-8.9-7.9-8.8-12.2"/>
		<path class="st24" d="M730.2,561.9c-2.9,14.4-1.3,23.4,2.9,24.3c4.3,0.9,10.1-10.8,13.1-25.2c0,0-5.9,0.1-8,0.2
			C736.2,561.3,730.2,561.9,730.2,561.9z"/>
		<path class="st24" d="M770.2,564.8c-4.9,13.9-12.1,23.7-16.2,22.2c-4.1-1.5-4.2-11.5,0.7-25.4c0,0,4.5,0.5,7.4,1.1
			C764.8,563.3,770.2,564.8,770.2,564.8z"/>
		<rect x="660.3" y="714.3" class="st24" width="18" height="13.5"/>
	</g>
	<path class="st20" d="M730.1,562.5"/>
</g>
</svg>
