<?xml version="1.0" encoding="utf-8"?>
<!-- Generator: Adobe Illustrator 21.0.2, SVG Export Plug-In . SVG Version: 6.00 Build 0)  -->
<svg version="1.1" id="Layer_1" xmlns="http://www.w3.org/2000/svg" xmlns:xlink="http://www.w3.org/1999/xlink" x="0px" y="0px"
	 viewBox="0 0 385 166.8" style="enable-background:new 0 0 385 166.8;" xml:space="preserve">
<style type="text/css">
	.st0{fill:none;stroke:#58595B;stroke-width:1.6412;stroke-miterlimit:10;}
	.st1{fill:#A89B92;}
	.st2{fill:#EADFBF;}
	.st3{clip-path:url(#SVGID_2_);fill:#A89B92;}
	.st4{clip-path:url(#SVGID_4_);fill:#58595B;}
	.st5{clip-path:url(#SVGID_6_);fill:#58595B;}
	.st6{clip-path:url(#SVGID_8_);fill:#58595B;}
	.st7{clip-path:url(#SVGID_10_);fill:#58595B;}
	.st8{clip-path:url(#SVGID_14_);fill:#58595B;}
	.st9{clip-path:url(#SVGID_16_);fill:#58595B;}
	.st10{clip-path:url(#SVGID_18_);fill:#58595B;}
	.st11{clip-path:url(#SVGID_20_);fill:#58595B;}
	.st12{fill:#58595B;}
	.st13{fill:#8F7E73;}
	.st14{fill:none;stroke:#58595B;stroke-width:1.6412;stroke-linecap:round;stroke-miterlimit:10;}
	.st15{fill:#B3A9A3;}
	.st16{fill:#FFFFFF;}
	.st17{fill:#F8F8F9;}
	.st18{fill:#F1F2F2;}
	.st19{fill:#69B2CC;}
	.st20{fill:#F05B72;}
	.st21{opacity:0.7;fill:#F7FCFE;enable-background:new    ;}
	.st22{fill:none;}
	.st23{font-family:'HelveticaNeue';}
	.st24{font-size:16.001px;}
</style>
<line class="st0" x1="303.6" y1="30.6" x2="303.4" y2="13.4"/>
<line class="st0" x1="305.3" y1="30.7" x2="307.7" y2="13.7"/>
<line class="st0" x1="301.8" y1="30.6" x2="298.8" y2="13.6"/>
<path class="st1" d="M282.8,41.2l25.1,23.7L333,88.6l8-33.5l6.7-28c0.6-2.5-1.7-4.6-4.1-3.9L316,31.4L282.8,41.2z"/>
<path class="st2" d="M279,44.8l25.1,23.7l25.1,23.7l8-33.5l7.3-30.8c0.3-1.2-0.9-2.3-2.1-2l-30.3,9L279,44.8z"/>
<path class="st1" d="M320.6,37.1c2.4,0.7,3.2,3.8,1.3,5.5L301,62.4l-20.9,19.8c-1.8,1.7-4.9,0.8-5.4-1.6l-6.7-28l-6.7-28
	c-0.6-2.5,1.7-4.6,4.1-3.9l27.6,8.2L320.6,37.1z"/>
<path class="st2" d="M327.8,42.6c1.2,0.4,1.6,1.9,0.7,2.8l-23,21.8l-23,21.8c-0.9,0.9-2.4,0.4-2.7-0.8l-7.4-30.8L265,26.6
	c-0.3-1.2,0.9-2.3,2.1-2l30.3,9L327.8,42.6z"/>
<g>
	<g>
		<g>
			<defs>
				<path id="SVGID_1_" d="M303.8,254.6L303.8,254.6c23.5,0,51-19.3,50.9-42.9l-8.4-155.3c0-23.5-19.3-37.8-42.8-37.8l0,0
					c-23.5,0-42.8,14.4-42.7,37.9l-8,155.4C252.7,235.4,280.2,254.7,303.8,254.6z"/>
			</defs>
			<clipPath id="SVGID_2_">
				<use xlink:href="#SVGID_1_"  style="overflow:visible;"/>
			</clipPath>
			<path class="st3" d="M303.8,254.6L303.8,254.6c23.5,0,51-19.3,50.9-42.9l-8.4-155.3c0-23.5-19.3-37.8-42.8-37.8l0,0
				c-23.5,0-42.8,14.4-42.7,37.9l-8,155.4C252.7,235.4,280.2,254.7,303.8,254.6z"/>
		</g>
	</g>
	<g>
		<g>
			<defs>
				<path id="SVGID_3_" d="M304.5,254.6L304.5,254.6c23.5,0,51-19.5,50.7-43.1l-8.8-155.3c0-23.5-19.5-37.8-43-37.6l0,0
					c-23.5,0-42.8,14.6-42.5,38.1l-7.5,155.4C253.3,235.6,280.9,254.7,304.5,254.6z"/>
			</defs>
			<clipPath id="SVGID_4_">
				<use xlink:href="#SVGID_3_"  style="overflow:visible;"/>
			</clipPath>
			
				<ellipse transform="matrix(1 -1.559083e-03 1.559083e-03 1 -2.691517e-02 0.473)" class="st4" cx="303.4" cy="17.5" rx="3" ry="11.7"/>
		</g>
	</g>
	<g>
		<g>
			<defs>
				<path id="SVGID_5_" d="M304.5,254.6L304.5,254.6c23.5,0,51-19.5,50.7-43.1l-8.8-155.3c0-23.5-19.5-37.8-43-37.6l0,0
					c-23.5,0-42.8,14.6-42.5,38.1l-7.5,155.4C253.3,235.6,280.9,254.8,304.5,254.6z"/>
			</defs>
			<clipPath id="SVGID_6_">
				<use xlink:href="#SVGID_5_"  style="overflow:visible;"/>
			</clipPath>
			
				<ellipse transform="matrix(1 -1.559083e-03 1.559083e-03 1 -2.269654e-02 0.4847)" class="st5" cx="310.9" cy="14.8" rx="3" ry="11.7"/>
		</g>
	</g>
	<g>
		<g>
			<defs>
				<path id="SVGID_7_" d="M304.5,254.6L304.5,254.6c23.5,0,51-19.5,50.7-43.1l-8.8-155.3c0-23.5-19.5-37.8-43-37.6l0,0
					c-23.5,0-42.8,14.6-42.5,38.1l-7.5,155.4C253.3,235.6,280.9,254.7,304.5,254.6z"/>
			</defs>
			<clipPath id="SVGID_8_">
				<use xlink:href="#SVGID_7_"  style="overflow:visible;"/>
			</clipPath>
			
				<ellipse transform="matrix(1 -1.559083e-03 1.559083e-03 1 -2.271454e-02 0.4615)" class="st6" cx="296" cy="14.8" rx="3" ry="11.7"/>
		</g>
	</g>
	<g>
		<g>
			<defs>
				<path id="SVGID_9_" d="M303.8,254.6L303.8,254.6c23.5,0,51-19.3,50.9-42.9l-8.4-155.3c0-23.5-19.3-37.8-42.8-37.8l0,0
					c-23.5,0-42.8,14.4-42.7,37.9l-8,155.4C252.7,235.4,280.2,254.7,303.8,254.6z"/>
			</defs>
			<clipPath id="SVGID_10_">
				<use xlink:href="#SVGID_9_"  style="overflow:visible;"/>
			</clipPath>
			<path class="st7" d="M348.2,66.2c-6.4,0.5-11.5,1.9-11.3,3.2s5.5,1.9,11.9,1.4s11.5-1.9,11.3-3.2S354.7,65.7,348.2,66.2z"/>
		</g>
	</g>
	<g>
		<g>
			<defs>
				<path id="SVGID_11_" d="M339.5,260.6L339.5,260.6c23.1-4.6,46.3-28.9,41.5-52L342.4,58c-4.6-23.1-26.3-33.3-49.4-28.7l0,0
					c-23.1,4.6-39.2,22.5-34.5,45.5l22.5,153.9C285.5,251.8,316.3,265.3,339.5,260.6z"/>
			</defs>
			<clipPath id="SVGID_12_">
				<use xlink:href="#SVGID_11_"  style="overflow:visible;"/>
			</clipPath>
		</g>
	</g>
	<g>
		<g>
			<defs>
				<path id="SVGID_13_" d="M303.8,254.6L303.8,254.6c23.5,0,51-19.3,50.9-42.9l-8.4-155.3c0-23.5-19.3-37.8-42.8-37.8l0,0
					c-23.5,0-42.8,14.4-42.7,37.9l-8,155.4C252.7,235.4,280.2,254.7,303.8,254.6z"/>
			</defs>
			<clipPath id="SVGID_14_">
				<use xlink:href="#SVGID_13_"  style="overflow:visible;"/>
			</clipPath>
			<path class="st8" d="M350.1,59.4c-6.4,0.5-11.5,1.9-11.3,3.2s5.5,1.9,11.9,1.4s11.5-1.9,11.3-3.2S356.5,58.9,350.1,59.4z"/>
		</g>
	</g>
	<g>
		<g>
			<defs>
				<path id="SVGID_15_" d="M303.8,254.6L303.8,254.6c23.5,0,51-19.3,50.9-42.9l-8.4-155.3c0-23.5-19.3-37.8-42.8-37.8l0,0
					c-23.5,0-42.8,14.4-42.7,37.9l-8,155.4C252.7,235.4,280.2,254.7,303.8,254.6z"/>
			</defs>
			<clipPath id="SVGID_16_">
				<use xlink:href="#SVGID_15_"  style="overflow:visible;"/>
			</clipPath>
			<path class="st9" d="M257.8,69.7c6.4,0.6,11.8,0.2,12-1.1s-4.8-2.8-11.2-3.5c-6.4-0.7-11.8-0.2-12,1.1
				C246.4,67.5,251.5,69.1,257.8,69.7z"/>
		</g>
	</g>
	<g>
		<g>
			<defs>
				<path id="SVGID_17_" d="M303.8,254.6L303.8,254.6c23.5,0,51-19.3,50.9-42.9l-8.4-155.3c0-23.5-19.3-37.8-42.8-37.8l0,0
					c-23.5,0-42.8,14.4-42.7,37.9l-8,155.4C252.7,235.4,280.2,254.7,303.8,254.6z"/>
			</defs>
			<clipPath id="SVGID_18_">
				<use xlink:href="#SVGID_17_"  style="overflow:visible;"/>
			</clipPath>
			<path class="st10" d="M256.4,62.4c6.4,0.6,11.8,0.2,12-1.1s-4.8-2.8-11.2-3.5c-6.4-0.6-11.8-0.2-12,1.1
				C245,60.2,250,61.7,256.4,62.4z"/>
		</g>
	</g>
	<g>
		<g>
			<defs>
				<path id="SVGID_19_" d="M255.6-111.6L255.6-111.6c-22.7-6.2-54.3,5.2-60.4,28l-32.8,152c-6.2,22.7,8.7,41.5,31.3,47.7l0,0
					c22.7,6.2,45-2.6,51.2-25.3l48.7-147.8C299.9-79.7,278.4-105.6,255.6-111.6z"/>
			</defs>
			<clipPath id="SVGID_20_">
				<use xlink:href="#SVGID_19_"  style="overflow:visible;"/>
			</clipPath>
			
				<ellipse transform="matrix(0.1328 -0.9911 0.9911 0.1328 147.0747 317.7963)" class="st11" cx="255.1" cy="74.9" rx="3" ry="11.7"/>
		</g>
	</g>
</g>
<ellipse transform="matrix(1 -1.559083e-03 1.559083e-03 1 -0.1838 0.4735)" class="st2" cx="303.6" cy="118.1" rx="25.1" ry="39.6"/>
<path class="st12" d="M323.8,53.1c0-2.3-1.9-3.4-4.2-3.4s-4.2,1.1-4.2,3.4c0,2.3,1.9,1.7,4.2,1.7C322,54.8,323.8,55.4,323.8,53.1z"
	/>
<path class="st12" d="M291.8,54.2c0-2.3-1.9-3.4-4.2-3.4c-2.3,0-4.2,1.1-4.2,3.4c0,2.3,1.9,1.7,4.2,1.7S291.8,56.5,291.8,54.2z"/>
<path class="st13" d="M316.5,45.5l10,0.8c1.2,0.1,2.2-0.8,2.3-2l0,0c0.1-1.2-0.8-2.2-2-2.3l-10-0.8c-1.2-0.1-2.2,0.8-2.3,2l0,0
	C314.4,44.3,315.3,45.4,316.5,45.5z"/>
<path class="st13" d="M282.4,47.9l10-1.3c1.2-0.2,2-1.2,1.8-2.4l0,0c-0.2-1.2-1.2-2-2.4-1.8l-10,1.3c-1.2,0.2-2,1.2-1.8,2.4l0,0
	C280.2,47.2,281.2,48,282.4,47.9z"/>
<ellipse transform="matrix(1 -1.559083e-03 1.559083e-03 1 -0.1005 0.486)" class="st2" cx="311.7" cy="64.7" rx="8.7" ry="7.8"/>
<ellipse transform="matrix(1 -1.559083e-03 1.559083e-03 1 -0.1005 0.4602)" class="st2" cx="295.1" cy="64.7" rx="8.7" ry="7.8"/>
<path class="st12" d="M299.4,58.9c0,0.5,1.8,3.1,4,3.1s4-2.7,4-3.1c0-1.3-1.8-1.5-4-1.5S299.4,57.6,299.4,58.9z"/>
<line class="st14" x1="314.5" y1="68.6" x2="330" y2="76"/>
<line class="st14" x1="315.4" y1="65.5" x2="332.6" y2="65.5"/>
<line class="st14" x1="315.2" y1="62.2" x2="332.2" y2="59.6"/>
<line class="st14" x1="293.7" y1="68.5" x2="278.2" y2="76"/>
<line class="st14" x1="292.8" y1="65.5" x2="275.6" y2="65.5"/>
<line class="st14" x1="293" y1="62.1" x2="276" y2="59.6"/>
<path class="st15" d="M262.5,114.2L262.5,114.2c5.1-2.8,9.2-10.5,6.4-15.7L251,71.8c-4.8-13.8-8.9-8.7-14-5.9l-0.8,0.4
	c-5.1,2.8-11.7,6.5-3.2,16.1l12.9,28.7C248.7,116.3,257.4,117,262.5,114.2z"/>
<path class="st15" d="M336.5,111.1L336.5,111.1c-5.5,2-10.7,9-8.7,14.5l13.6,29.1c2.6,14.4,9.6,12.3,15,10.3l0.1,0
	c5.5-2,11.2-7.3,4.3-18.1l-8.3-30.3C350.4,111.2,341.9,109.1,336.5,111.1z"/>
<path class="st15" d="M246.9,71.3l0.4-0.2c1.6-0.9,1.8-3.8,0.9-5.4L242,53.1c-0.9-1.6-3.6-1.9-5.2-1.1l-0.4,0.2
	c-1.6,0.9-2.9,3-2.1,4.6l8.1,13.1C243.4,71.6,245.4,72.2,246.9,71.3z"/>
<g>
	<path class="st12" d="M241.9,75.3L241.9,75.3c0.6-0.5,0.7-1.3,0.2-1.9l-1.5-1.8c-0.5-0.6-1.3-0.7-1.9-0.2l0,0
		c-0.6,0.5-0.7,1.3-0.2,1.9l1.5,1.8C240.5,75.7,241.3,75.8,241.9,75.3z"/>
	<path class="st12" d="M241.2,75.3L241.2,75.3c0.7,0.1,1.4-0.5,1.4-1.2l0.2-2.3c0.1-0.7-0.5-1.4-1.2-1.4l0,0
		c-0.7-0.1-1.4,0.5-1.4,1.2l-0.2,2.3C239.9,74.6,240.4,75.3,241.2,75.3z"/>
	<path class="st12" d="M242,74.9L242,74.9c0.3-0.7-0.1-1.5-0.8-1.7l-2.2-0.8c-0.7-0.3-1.5,0.1-1.7,0.8l0,0c-0.3,0.7,0.1,1.5,0.8,1.7
		l2.2,0.8C240.9,76,241.7,75.6,242,74.9z"/>
</g>
<path class="st1" d="M238.6,70.9l0.4-0.2c1.6-0.9,2.8-3.2,2-4.8l-2.4-2.6c-0.9-1.6-2.8-2.1-4.4-1.3l-0.4,0.2
	c-1.6,0.9-2.1,2.8-1.3,4.4l0.9,3.4C234.4,71.6,237.1,71.8,238.6,70.9z"/>
<path class="st1" d="M246.5,73.9l0.4,0.2c1.6,0.7,4.3,0.3,5-1.4l0.6-3.5c0.7-1.6-0.1-3.5-1.7-4.2l-0.4-0.2c-1.6-0.7-3.5,0.1-4.2,1.7
	l-2.1,2.8C243.4,70.9,244.9,73.2,246.5,73.9z"/>
<path class="st1" d="M234.7,75l0.3-0.3c1.3-1.2,1.9-3.9,0.7-5.1l-3-1.9c-1.2-1.3-3.3-1.3-4.6-0.1l-0.3,0.3c-1.3,1.2-1.3,3.3-0.1,4.6
	l1.8,3C230.7,76.8,233.4,76.2,234.7,75z"/>
<path class="st12" d="M239.9,58.3L239.9,58.3c0.9-0.6,1.2-1.8,0.7-2.7l-0.2-0.3c-0.6-0.9-1.8-1.2-2.7-0.7l0,0
	c-0.9,0.6-1.2,1.8-0.7,2.7l0.2,0.3C237.7,58.6,239,58.9,239.9,58.3z"/>
<path class="st16" d="M264.8,117.5c-5.8,2.6-6.3,15.3-9.6,12.3c-5.5-4.9-19.7-40.2-19.7-40.2L255.9,79l13.3,24.2
	C269.3,103.1,268.1,116,264.8,117.5z"/>
<path class="st17" d="M339,109.4c6.1-1.7,8.6-14.2,11.4-10.7c4.7,5.7,13.3,42.7,13.3,42.7l-21.8,7.3l-9.4-26
	C332.4,123,335.6,110.4,339,109.4z"/>
<polygon class="st17" points="231.5,83.3 252.7,71.1 259.9,84.7 237.7,96.5 "/>
<polygon class="st16" points="340.1,143.5 362.9,134.7 368,149.2 344.2,157.5 "/>
<polygon class="st16" points="311,182 301.3,93.3 258.2,87 252,181.5 "/>
<polygon class="st18" points="296.4,85.5 298.8,89.6 301.2,93.7 296.5,93.7 291.7,93.7 294.1,89.6 "/>
<polygon class="st17" points="259.7,89.7 259.4,78.9 296.4,85.5 291.8,101.1 "/>
<polygon class="st18" points="313.3,85.1 310.9,89.2 308.5,93.4 313.3,93.3 318.1,93.3 315.7,89.2 "/>
<polygon class="st16" points="299.9,182.5 308.3,93.5 349.9,91.5 356.9,181.4 "/>
<polygon class="st17" points="348.4,91.4 347.6,80.5 313.3,85.1 319.3,101.1 "/>
<path class="st19" d="M325.1,119.7L325.1,119.7c0.6,0,1.2-0.5,1.2-1.2v-6.9c0-0.6-0.5-1.2-1.2-1.2l0,0c-0.6,0-1.2,0.5-1.2,1.2v6.9
	C323.9,119.2,324.5,119.7,325.1,119.7z"/>
<path class="st20" d="M328,120L328,120c0.6,0,1.2-0.5,1.2-1.2v-6.9c0-0.6-0.5-1.2-1.2-1.2l0,0c-0.6,0-1.2,0.5-1.2,1.2v6.9
	C326.9,119.5,327.4,120,328,120z"/>
<rect x="318.6" y="116.2" transform="matrix(1 -1.559083e-03 1.559083e-03 1 -0.196 0.5121)" class="st17" width="19.6" height="19.6"/>
<rect x="318.5" y="114.4" transform="matrix(1 -1.559083e-03 1.559083e-03 1 -0.1813 0.5122)" class="st18" width="19.9" height="4.4"/>
<path class="st21" d="M216.8,28l-7.6-5.5l-3.4-2.5l0.2,0.2c0-5.7-3.7-10.5-8.3-10.5L17.3,8.3c-4.6,0-8.4,4.6-8.5,10.4L8.3,34.4
	c0,5.7,3.7,10.5,8.3,10.5L197,46.3c4.6,0,8.4-4.6,8.5-10.4h0.2l3.4-2.4L216.8,28z"/>
<rect x="74.3" y="-32.7" transform="matrix(7.985908e-03 -1 1 7.985908e-03 51.7141 158.6065)" class="st22" width="63" height="171.9"/>
<text transform="matrix(1 7.985881e-03 -7.985881e-03 1 20.0238 32.5748)" class="st12 st23 st24">Check out our new stuff!</text>
</svg>
