<?xml version="1.0" encoding="utf-8"?>
<!-- Generator: Adobe Illustrator 21.0.2, SVG Export Plug-In . SVG Version: 6.00 Build 0)  -->
<svg version="1.1" id="Layer_5" xmlns="http://www.w3.org/2000/svg" xmlns:xlink="http://www.w3.org/1999/xlink" x="0px" y="0px"
	 viewBox="0 0 300 300" style="enable-background:new 0 0 300 300;" xml:space="preserve">
<style type="text/css">
	.st0{fill:#15A2CE;}
</style>
<path class="st0" d="M149.4,1.5C67.3,1.5,0.7,68.1,0.7,150.2s66.6,148.7,148.7,148.7s148.7-66.6,148.7-148.7S231.5,1.5,149.4,1.5z
	 M205.7,133.9c-2.2,6.3-5.3,11.9-9.4,16.8c-4,4.9-9,8.8-14.8,11.7c-5.8,2.9-12.4,4.4-19.8,4.4c-18.5,0-18.1,7.8-18.1,19.6
	c0,0,0,9.4,0,13.4c0,13.9-9.8,71.6-16,71.6c-6.1,0-16-57.8-16-71.6c0-36.5,0-136.7,0-136.7h9.9v-6.6c-2.6-0.9-5-2.4-7.2-4.5
	c-3.6-3.6-5.5-8-5.5-13.2h37.2c0,5.1-1.8,9.5-5.5,13.2c-2.1,2.1-4.5,3.6-7.2,4.5v6.6h7.5l17,0c7.7,0,14.6,1.3,20.9,3.8
	c6.3,2.5,11.6,6,16.1,10.6c4.5,4.5,7.9,9.9,10.3,16.2c2.4,6.2,3.6,13.1,3.6,20.5C209,121,207.9,127.6,205.7,133.9z"/>
</svg>
