<?xml version="1.0" encoding="utf-8"?>
<!-- Generator: Adobe Illustrator 26.0.3, SVG Export Plug-In . SVG Version: 6.00 Build 0)  -->
<svg version="1.1" id="Layer_1" xmlns="http://www.w3.org/2000/svg" xmlns:xlink="http://www.w3.org/1999/xlink" x="0px" y="0px"
	 viewBox="0 0 195.3 63.2" style="enable-background:new 0 0 195.3 63.2;" xml:space="preserve">
<style type="text/css">
	.st0{fill:#1B365E;}
	.st1{fill:#14A2CD;}
	.st2{fill:#17A1CC;}
</style>
<g>
	<path class="st0" d="M64.5,21.2h4.6v16.6h8.5V42H64.5V21.2z"/>
	<path class="st0" d="M86.7,40.2L86.7,40.2c-0.5,0.8-1.2,1.4-2,1.7s-1.7,0.5-2.5,0.5c-0.7,0-1.3-0.1-1.9-0.3
		c-0.6-0.2-1.2-0.4-1.6-0.8c-0.5-0.3-0.8-0.8-1.1-1.4c-0.3-0.6-0.4-1.3-0.4-1.9c0-0.8,0.2-1.5,0.4-2.1c0.3-0.6,0.8-1,1.3-1.4
		s1.2-0.7,1.8-0.8c0.7-0.2,1.4-0.3,2.1-0.4c0.7-0.1,1.4-0.2,2.1-0.2c0.7,0,1.4,0,2,0c0-0.8-0.3-1.4-0.8-1.9s-1.3-0.7-2-0.7
		c-0.7,0-1.4,0.2-2,0.4c-0.6,0.3-1.2,0.8-1.6,1.3l-2.4-2.5c0.8-0.8,1.8-1.4,2.9-1.7c1.1-0.4,2.3-0.6,3.4-0.6c1.3,0,2.4,0.2,3.2,0.5
		c0.8,0.3,1.4,0.8,2,1.4c0.5,0.7,0.8,1.4,1,2.3c0.2,1,0.3,2.1,0.3,3.1V42h-4V40.2z M85.6,35.7c-0.3,0-0.8,0-1.3,0.1
		c-0.5,0-0.9,0.1-1.4,0.3c-0.4,0.1-0.8,0.3-1.2,0.6c-0.3,0.3-0.5,0.7-0.5,1.2c0,0.5,0.3,0.9,0.7,1.2c0.4,0.3,0.9,0.4,1.4,0.4
		c0.4,0,0.8-0.1,1.3-0.2c0.4-0.1,0.8-0.3,1.1-0.5c0.3-0.3,0.6-0.5,0.8-0.8c0.2-0.3,0.3-0.8,0.3-1.2v-0.9L85.6,35.7z"/>
	<rect x="111.1" y="27.7" class="st0" width="4.4" height="14.3"/>
	<path class="st1" d="M119.9,54.4c0.8,0,2.2-6.3,2.2-8.1c0-0.6,0-1.9,0-1.9c0-1.6-0.1-2.7,2.5-2.7c0.9,0,1.9-0.2,2.7-0.6
		c0.8-0.4,1.4-0.9,2-1.6c0.6-0.7,1-1.4,1.3-2.3c0.3-0.8,0.4-1.8,0.4-2.7c0-0.9-0.2-1.9-0.5-2.8c-0.7-1.7-1.9-3-3.6-3.6
		c-0.9-0.3-1.9-0.5-2.9-0.5h-3.3V26c0.3-0.1,0.7-0.3,1-0.6c0.5-0.5,0.8-1.1,0.8-1.8h-5.2c0,0.7,0.3,1.4,0.8,1.8l0,0
		c0.3,0.3,0.6,0.5,1,0.6v1.5h-1.4c0,0,0,13.8,0,18.8C117.7,48.1,119.1,54.4,119.9,54.4"/>
	<path class="st0" d="M145.8,39.2c-0.7,0.9-1.6,1.6-2.7,2.1c-1,0.5-2.2,0.8-3.4,0.8c-1.1,0-2.1-0.2-3.1-0.5
		c-0.9-0.3-1.8-0.8-2.5-1.5s-1.3-1.4-1.7-2.4c-0.4-1-0.7-2-0.6-3.1c0-1.1,0.2-2.1,0.6-3.1c0.4-0.9,0.9-1.7,1.7-2.4
		c0.8-0.7,1.6-1.2,2.5-1.5c1-0.3,2-0.5,3.1-0.5c0.9,0,1.9,0.2,2.8,0.5c0.8,0.3,1.5,0.8,2.1,1.5c0.6,0.7,1,1.5,1.4,2.4
		c0.3,1,0.5,2,0.5,3.1v1.4h-10.2c0.2,0.8,0.5,1.5,1.2,2c0.6,0.5,1.4,0.8,2.2,0.8c0.7,0,1.3-0.2,1.9-0.5c0.5-0.3,0.9-0.8,1.3-1.3
		L145.8,39.2z M142,33c0-0.7-0.3-1.4-0.8-1.9c-0.5-0.5-1.3-0.8-1.9-0.8c-0.4,0-0.8,0.1-1.3,0.3c-0.3,0.2-0.7,0.3-0.9,0.6
		c-0.3,0.3-0.5,0.5-0.6,0.8c-0.2,0.3-0.3,0.7-0.3,1C136.2,33,142,33,142,33z"/>
	<path class="st0" d="M157.2,31h-3.9v4.7c0,0.3,0,0.7,0.1,1.1c0,0.3,0.1,0.6,0.3,0.8c0.2,0.3,0.3,0.4,0.6,0.6
		c0.3,0.2,0.8,0.2,1.1,0.2c0.3,0,0.6,0,0.9-0.1c0.3,0,0.6-0.2,0.8-0.3v3.6c-0.5,0.2-1,0.3-1.5,0.3c-0.5,0.1-1,0.1-1.5,0.1
		c-0.7,0-1.4-0.1-2-0.3c-0.6-0.2-1.2-0.4-1.7-0.8c-0.5-0.3-0.8-0.8-1.1-1.4c-0.3-0.6-0.4-1.4-0.4-2v-6.9H146v-3.6h2.8V23h4.4v4.2
		h3.9L157.2,31L157.2,31z"/>
	<path class="st0" d="M167.7,31h-3.9v4.7c0,0.3,0,0.7,0.1,1.1c0,0.3,0.1,0.6,0.3,0.8c0.2,0.3,0.3,0.4,0.6,0.6
		c0.3,0.2,0.8,0.2,1.1,0.2c0.3,0,0.6,0,0.9-0.1c0.3,0,0.6-0.2,0.8-0.3v3.6c-0.5,0.2-1,0.3-1.5,0.3c-0.5,0.1-1,0.1-1.5,0.1
		c-0.7,0-1.4-0.1-2-0.3c-0.6-0.2-1.2-0.4-1.7-0.8c-0.5-0.3-0.8-0.8-1.1-1.4c-0.3-0.6-0.4-1.4-0.4-2v-6.9h-2.8v-3.6h2.8V23h4.4v4.2
		h3.9L167.7,31L167.7,31z"/>
	<path class="st0" d="M181.6,39.2c-0.7,0.9-1.6,1.6-2.7,2.1c-1,0.5-2.2,0.8-3.4,0.8c-1.1,0-2.1-0.2-3.1-0.5
		c-0.9-0.3-1.8-0.8-2.5-1.5s-1.3-1.4-1.7-2.4c-0.4-1-0.7-2-0.6-3.1c0-1.1,0.2-2.1,0.6-3.1c0.4-0.9,0.9-1.7,1.7-2.4
		c0.8-0.7,1.6-1.2,2.5-1.5c1-0.3,2-0.5,3.1-0.5c0.9,0,1.9,0.2,2.8,0.5c0.8,0.3,1.5,0.8,2.1,1.5c0.6,0.7,1,1.5,1.4,2.4
		c0.3,1,0.5,2,0.5,3.1v1.4H172c0.2,0.8,0.5,1.5,1.2,2c0.6,0.5,1.4,0.8,2.2,0.8c0.7,0,1.3-0.2,1.9-0.5c0.5-0.3,0.9-0.8,1.3-1.3
		L181.6,39.2z M177.8,33c0-0.7-0.3-1.4-0.8-1.9c-0.5-0.5-1.3-0.8-1.9-0.8c-0.8,0-1.6,0.3-2.3,0.8c-0.3,0.3-0.5,0.5-0.6,0.8
		c-0.2,0.3-0.3,0.7-0.3,1C171.9,33,177.8,33,177.8,33z"/>
	<path class="st0" d="M93.7,20.8h4.1v1.9h0.1c0.2-0.3,0.4-0.5,0.7-0.8c0.3-0.3,0.7-0.5,1-0.8c0.4-0.3,0.8-0.4,1.3-0.5
		c0.4-0.1,0.9-0.2,1.4-0.2c1,0,1.9,0.2,2.9,0.6c0.8,0.3,1.6,0.8,2.2,1.5c0.6,0.7,1.1,1.4,1.4,2.4c0.3,0.9,0.5,1.9,0.5,3
		s-0.2,1.9-0.4,2.9c-0.3,0.8-0.8,1.7-1.3,2.5c-0.6,0.7-1.3,1.3-2,1.7c-0.8,0.4-1.8,0.7-2.7,0.7c-0.8,0-1.8-0.2-2.5-0.4
		c-0.8-0.3-1.4-0.8-1.9-1.4h-0.1V42h-4.4V20.8H93.7z M97.8,28c0,1.1,0.3,1.9,0.9,2.6s1.5,1,2.6,1s1.9-0.3,2.6-1
		c0.6-0.7,0.9-1.5,0.9-2.6s-0.3-1.9-0.9-2.6c-0.6-0.7-1.5-1-2.6-1c-1.1,0-2,0.3-2.6,1S97.8,26.9,97.8,28L97.8,28z"/>
</g>
<g>
	<path class="st2" d="M39.1,14.2c-9.6,0-17.4,7.8-17.4,17.4S29.5,49,39.1,49s17.4-7.8,17.4-17.4S48.7,14.2,39.1,14.2z M45.6,29.8
		c-0.2,0.7-0.6,1.4-1.1,1.9s-1.1,1-1.7,1.3c-0.7,0.3-1.5,0.5-2.3,0.5c-2.1,0-2.1,0.9-2.1,2.3c0,0,0,1.1,0,1.6c0,1.6-1.2,8.3-1.9,8.3
		c-0.7,0-1.8-6.7-1.8-8.3c0-4.2,0.1-15.9,0.1-15.9l1.2,0v-0.8c-0.3-0.1-0.6-0.3-0.8-0.5c-0.4-0.4-0.6-1-0.6-1.5l4.3,0
		c0,0.6-0.2,1.1-0.6,1.5c-0.3,0.2-0.5,0.4-0.9,0.5v0.8l2.8,0c0.8,0,1.6,0.1,2.4,0.4c1.4,0.6,2.5,1.7,3.1,3.1
		c0.3,0.8,0.4,1.6,0.4,2.4C46,28.3,45.8,29.1,45.6,29.8z"/>
</g>
</svg>
