<?xml version="1.0" encoding="utf-8"?>
<!-- Generator: Adobe Illustrator 25.2.0, SVG Export Plug-In . SVG Version: 6.00 Build 0)  -->
<svg version="1.1" id="Layer_1" xmlns="http://www.w3.org/2000/svg" xmlns:xlink="http://www.w3.org/1999/xlink" x="0px" y="0px"
	 viewBox="0 0 466.6 143.6" style="enable-background:new 0 0 466.6 143.6;" xml:space="preserve">
<style type="text/css">
	.st0{fill:#4E4E4E;}
	.st1{fill:#15A2CE;}
	.st2{font-family:'Avenir-Light';}
	.st3{font-size:45.7111px;}
</style>
<path class="st0" d="M23.7,16.9h15.4v55.7h28.6V87h-44V16.9z"/>
<path class="st0" d="M98,80.9h-0.2c-1.7,2.6-3.8,4.5-6.6,5.5c-2.8,1.2-5.6,1.7-8.6,1.7c-2.2,0-4.4-0.3-6.5-1
	c-2.1-0.6-3.9-1.6-5.5-2.8c-1.6-1.3-2.9-2.8-3.7-4.7c-1-1.8-1.4-4-1.4-6.4c0-2.8,0.5-5.1,1.5-7c1.1-1.9,2.4-3.5,4.1-4.8
	c1.7-1.3,3.7-2.2,6-2.9c2.2-0.7,4.6-1.2,7-1.5c2.4-0.3,4.8-0.5,7.2-0.6c2.4-0.1,4.7-0.1,6.7-0.1c0-2.7-1-4.7-2.9-6.3
	c-1.9-1.6-4.1-2.3-6.7-2.3c-2.4,0-4.7,0.5-6.7,1.5c-2,1.1-3.8,2.4-5.4,4.3l-7.9-8.1c2.8-2.6,6-4.5,9.7-5.7c3.7-1.3,7.5-1.9,11.5-1.9
	c4.4,0,8,0.5,10.7,1.6c2.8,1.1,5,2.7,6.7,4.8c1.7,2.1,2.9,4.7,3.5,7.8c0.6,3.1,1,6.6,1,10.6v24.5H98V80.9z M94.4,65.9
	c-1.2,0-2.6,0-4.3,0.1s-3.3,0.4-4.9,0.9c-1.6,0.4-2.9,1.2-3.9,2.1c-1.1,1-1.6,2.2-1.6,3.8c0,1.8,0.7,3.1,2.2,3.9
	c1.5,0.9,3.1,1.3,4.8,1.3c1.5,0,2.9-0.2,4.3-0.6c1.4-0.4,2.6-1,3.6-1.7c1.1-0.7,1.9-1.6,2.6-2.8c0.6-1.2,1-2.4,1-3.9v-3.2h-3.7V65.9
	z"/>
<path class="st1" d="M217.9,27.8c0,2.3-0.9,4.4-2.6,6.1c-1.7,1.7-3.7,2.6-6.1,2.6s-4.4-0.9-6.1-2.6c-1.7-1.7-2.6-3.7-2.6-6.1H217.9z
	"/>
<rect x="179.6" y="38.9" class="st0" width="14.8" height="48"/>
<path class="st1" d="M216.7,95.9c0,0,0,4.4,0,6.2c0,6.4-4.5,33.1-7.4,33.1c-2.8,0-7.3-26.7-7.3-33.1c0-16.9,0-63.1,0-63.1h13.6h7.9
	c3.5,0,6.8,0.5,9.7,1.7c2.9,1.2,5.3,2.8,7.4,4.9c2,2.1,3.6,4.6,4.8,7.4c1.1,2.9,1.7,6.1,1.7,9.5c0,3.2-0.5,6.3-1.5,9.1
	c-1.1,2.9-2.4,5.5-4.4,7.8c-1.9,2.2-4.1,4-6.8,5.4c-2.7,1.4-5.7,2-9.1,2C216.5,86.9,216.7,90.5,216.7,95.9z"/>
<path class="st0" d="M296.1,78.7c-2.3,3.1-5.4,5.4-9,7c-3.6,1.6-7.3,2.4-11.3,2.4c-3.7,0-7.1-0.6-10.4-1.8c-3.3-1.2-6.1-2.9-8.5-5.1
	c-2.4-2.2-4.3-4.9-5.6-8c-1.4-3.1-2.1-6.6-2.1-10.4s0.7-7.2,2.1-10.4c1.4-3.1,3.3-5.7,5.6-8c2.4-2.2,5.2-3.9,8.5-5.1
	c3.3-1.2,6.7-1.8,10.4-1.8c3.4,0,6.6,0.6,9.4,1.8c2.8,1.2,5.2,2.9,7.1,5.1c1.9,2.2,3.4,4.9,4.5,8c1.1,3.1,1.6,6.6,1.6,10.4v4.7
	h-34.4c0.6,2.9,1.9,5.1,3.8,6.8s4.5,2.6,7.3,2.6c2.4,0,4.5-0.5,6.2-1.6c1.7-1.1,3.2-2.4,4.4-4.3L296.1,78.7z M283.5,57.5
	c0.1-2.6-0.7-4.7-2.4-6.4c-1.7-1.8-3.9-2.7-6.6-2.7c-1.7,0-3.1,0.2-4.4,0.7s-2.3,1.2-3.2,2s-1.6,1.8-2.1,2.9s-0.7,2.2-0.9,3.4H283.5
	z"/>
<path class="st0" d="M334.3,50.7h-13.1v16.1c0,1.3,0.1,2.6,0.2,3.6c0.1,1.1,0.4,2,0.9,2.9c0.4,0.7,1.2,1.4,2.1,1.8
	c1,0.4,2.2,0.6,3.8,0.6c0.7,0,1.8-0.1,3.1-0.2c1.3-0.2,2.2-0.5,2.9-1.2v12.3c-1.7,0.6-3.4,1-5.1,1.2c-1.8,0.2-3.5,0.3-5.2,0.3
	c-2.6,0-4.8-0.2-6.9-0.7s-3.9-1.4-5.5-2.6c-1.6-1.2-2.8-2.7-3.7-4.5c-0.9-1.8-1.4-4-1.4-6.7v-23h-9.5V38.9h9.5V24.7h14.9v14.2h13.1
	V50.7z"/>
<path class="st0" d="M369.6,50.7h-13.1v16.1c0,1.3,0.1,2.6,0.2,3.6c0.1,1.1,0.4,2,0.9,2.9c0.4,0.7,1.2,1.4,2.1,1.8
	c1,0.4,2.2,0.6,3.8,0.6c0.7,0,1.8-0.1,3.1-0.2c1.3-0.1,2.2-0.5,2.9-1.2v12.3c-1.7,0.6-3.4,1-5.1,1.2c-1.8,0.2-3.5,0.3-5.2,0.3
	c-2.6,0-4.8-0.2-6.9-0.7s-3.9-1.4-5.5-2.6c-1.6-1.2-2.8-2.7-3.7-4.5c-0.9-1.8-1.4-4-1.4-6.7v-23h-9.5V38.9h9.5V24.7h14.8v14.2h13.1
	v11.8H369.6z"/>
<path class="st0" d="M416.1,78.7c-2.3,3.1-5.4,5.4-9,7c-3.6,1.6-7.3,2.4-11.3,2.4c-3.7,0-7.1-0.6-10.4-1.8c-3.3-1.2-6.1-2.9-8.5-5.1
	c-2.4-2.2-4.3-4.9-5.6-8c-1.4-3.1-2.1-6.6-2.1-10.4s0.7-7.2,2.1-10.4c1.4-3.1,3.3-5.7,5.6-8c2.4-2.2,5.2-3.9,8.5-5.1
	s6.7-1.8,10.4-1.8c3.4,0,6.6,0.6,9.4,1.8c2.8,1.2,5.2,2.9,7.1,5.1c1.9,2.2,3.4,4.9,4.5,8c1.1,3.1,1.6,6.6,1.6,10.4v4.7h-34.4
	c0.6,2.9,1.9,5.1,3.8,6.8s4.5,2.6,7.3,2.6c2.4,0,4.5-0.5,6.2-1.6c1.7-1.1,3.2-2.4,4.4-4.3L416.1,78.7z M403.4,57.5
	c0.1-2.6-0.7-4.7-2.4-6.4c-1.7-1.8-3.9-2.7-6.6-2.7c-1.7,0-3.1,0.2-4.4,0.7c-1.3,0.5-2.3,1.2-3.2,2c-0.9,0.9-1.6,1.8-2.1,2.9
	s-0.7,2.2-0.9,3.4H403.4z"/>
<rect x="206.5" y="35" class="st1" width="5.5" height="6.5"/>
<path class="st0" d="M121.6,16.7h13.6v6.4h0.2c0.6-0.9,1.4-1.7,2.3-2.7c1-0.9,2.1-1.7,3.4-2.4c1.3-0.7,2.7-1.3,4.3-1.8
	c1.5-0.4,3.1-0.7,4.9-0.7c3.5,0,6.8,0.6,9.7,1.8c2.9,1.2,5.4,3,7.4,5.1c2.1,2.2,3.7,4.8,4.8,7.9c1.2,3.1,1.7,6.4,1.7,10
	c0,3.4-0.5,6.6-1.5,9.7c-1.1,3.1-2.4,5.7-4.4,8.2c-1.9,2.3-4.1,4.3-6.9,5.6c-2.7,1.4-5.7,2.1-9.1,2.1c-3.1,0-6-0.5-8.6-1.4
	c-2.7-1-4.9-2.6-6.6-4.9h-0.2v27.6h-14.8V16.7H121.6z M135.2,40.7c0,3.6,1.1,6.6,3.1,8.8c2.1,2.2,5,3.4,8.7,3.4s6.7-1.2,8.7-3.4
	c2.1-2.2,3.1-5.2,3.1-8.8c0-3.6-1.1-6.6-3.1-8.8c-2.1-2.2-5-3.4-8.7-3.4s-6.7,1.2-8.7,3.4C136.3,34.1,135.2,37.1,135.2,40.7z"/>
<text transform="matrix(1 0 0 1 321.7853 130.5108)" class="st0 st2 st3">Labs</text>
</svg>
