<?xml version="1.0" encoding="utf-8"?>
<!-- Generator: Adobe Illustrator 21.0.2, SVG Export Plug-In . SVG Version: 6.00 Build 0)  -->
<svg version="1.1" id="Layer_1" xmlns="http://www.w3.org/2000/svg" xmlns:xlink="http://www.w3.org/1999/xlink" x="0px" y="0px"
	 viewBox="0 0 466.6 143.6" style="enable-background:new 0 0 466.6 143.6;" xml:space="preserve">
<style type="text/css">
	.st0{fill:#4E4E4E;}
	.st1{fill:#15A2CE;}
	.st2{font-family:'Avenir-Light';}
	.st3{font-size:43px;}
</style>
<path class="st0" d="M21.1,30.1h14.5v52.4h26.9V96H21.1V30.1z"/>
<path class="st0" d="M91,90.3h-0.2c-1.6,2.4-3.6,4.2-6.2,5.2c-2.6,1.1-5.3,1.6-8.1,1.6c-2.1,0-4.1-0.3-6.1-0.9
	c-2-0.6-3.7-1.5-5.2-2.6c-1.5-1.2-2.7-2.6-3.5-4.4c-0.9-1.7-1.3-3.8-1.3-6c0-2.6,0.5-4.8,1.4-6.6c1-1.8,2.3-3.3,3.9-4.5
	c1.6-1.2,3.5-2.1,5.6-2.7c2.1-0.7,4.3-1.1,6.6-1.4c2.3-0.3,4.5-0.5,6.8-0.6c2.3-0.1,4.4-0.1,6.3-0.1c0-2.5-0.9-4.4-2.7-5.9
	c-1.8-1.5-3.9-2.2-6.3-2.2c-2.3,0-4.4,0.5-6.3,1.4c-1.9,1-3.6,2.3-5.1,4l-7.4-7.6c2.6-2.4,5.6-4.2,9.1-5.4c3.5-1.2,7.1-1.8,10.8-1.8
	c4.1,0,7.5,0.5,10.1,1.5c2.6,1,4.7,2.5,6.3,4.5c1.6,2,2.7,4.4,3.3,7.3c0.6,2.9,0.9,6.2,0.9,10v23H91V90.3z M87.6,76.2
	c-1.1,0-2.4,0-4,0.1c-1.6,0.1-3.1,0.4-4.6,0.8c-1.5,0.4-2.7,1.1-3.7,2c-1,0.9-1.5,2.1-1.5,3.6c0,1.7,0.7,2.9,2.1,3.7
	c1.4,0.8,2.9,1.2,4.5,1.2c1.4,0,2.7-0.2,4-0.6c1.3-0.4,2.4-0.9,3.4-1.6c1-0.7,1.8-1.5,2.4-2.6c0.6-1.1,0.9-2.3,0.9-3.7v-3H87.6z"/>
<path class="st1" d="M203.8,40.3c0,2.2-0.8,4.1-2.4,5.7c-1.6,1.6-3.5,2.4-5.7,2.4s-4.1-0.8-5.7-2.4c-1.6-1.6-2.4-3.5-2.4-5.7H203.8z
	"/>
<rect x="167.8" y="50.8" class="st0" width="13.9" height="45.2"/>
<path class="st1" d="M202.7,104.4c0,0,0,4.1,0,5.8c0,6-4.2,31.1-7,31.1c-2.6,0-6.9-25.1-6.9-31.1c0-15.9,0-59.4,0-59.4h12.8l7.4,0
	c3.3,0,6.4,0.5,9.1,1.6c2.7,1.1,5,2.6,7,4.6c1.9,2,3.4,4.3,4.5,7c1,2.7,1.6,5.7,1.6,8.9c0,3-0.5,5.9-1.4,8.6c-1,2.7-2.3,5.2-4.1,7.3
	c-1.8,2.1-3.9,3.8-6.4,5.1c-2.5,1.3-5.4,1.9-8.6,1.9C202.5,95.9,202.7,99.3,202.7,104.4z M201.8,56.5"/>
<path class="st0" d="M277.3,88.2c-2.2,2.9-5.1,5.1-8.5,6.6c-3.4,1.5-6.9,2.3-10.6,2.3c-3.5,0-6.7-0.6-9.8-1.7
	c-3.1-1.1-5.7-2.7-8-4.8c-2.3-2.1-4-4.6-5.3-7.5c-1.3-2.9-2-6.2-2-9.8c0-3.6,0.7-6.8,2-9.8c1.3-2.9,3.1-5.4,5.3-7.5
	c2.3-2.1,4.9-3.7,8-4.8c3.1-1.1,6.3-1.7,9.8-1.7c3.2,0,6.2,0.6,8.8,1.7c2.6,1.1,4.9,2.7,6.7,4.8c1.8,2.1,3.2,4.6,4.2,7.5
	c1,2.9,1.5,6.2,1.5,9.8v4.4H247c0.6,2.7,1.8,4.8,3.6,6.4s4.2,2.4,6.9,2.4c2.3,0,4.2-0.5,5.8-1.5c1.6-1,3-2.3,4.1-4L277.3,88.2z
	 M265.5,68.3c0.1-2.4-0.7-4.4-2.3-6c-1.6-1.7-3.7-2.5-6.2-2.5c-1.6,0-2.9,0.2-4.1,0.7c-1.2,0.5-2.2,1.1-3,1.9
	c-0.8,0.8-1.5,1.7-2,2.7c-0.5,1-0.7,2.1-0.8,3.2H265.5z"/>
<path class="st0" d="M313.3,61.9H301V77c0,1.2,0.1,2.4,0.2,3.4c0.1,1,0.4,1.9,0.8,2.7c0.4,0.7,1.1,1.3,2,1.7
	c0.9,0.4,2.1,0.6,3.6,0.6c0.7,0,1.7-0.1,2.9-0.2c1.2-0.2,2.1-0.5,2.7-1.1v11.6c-1.6,0.6-3.2,0.9-4.8,1.1c-1.7,0.2-3.3,0.3-4.9,0.3
	c-2.4,0-4.5-0.2-6.5-0.7c-2-0.5-3.7-1.3-5.2-2.4c-1.5-1.1-2.6-2.5-3.5-4.2c-0.8-1.7-1.3-3.8-1.3-6.3V61.9h-8.9V50.8h8.9V37.4H301
	v13.4h12.3V61.9z"/>
<path class="st0" d="M346.5,61.9h-12.3V77c0,1.2,0.1,2.4,0.2,3.4c0.1,1,0.4,1.9,0.8,2.7c0.4,0.7,1.1,1.3,2,1.7
	c0.9,0.4,2.1,0.6,3.6,0.6c0.7,0,1.7-0.1,2.9-0.2s2.1-0.5,2.7-1.1v11.6c-1.6,0.6-3.2,0.9-4.8,1.1c-1.7,0.2-3.3,0.3-4.9,0.3
	c-2.4,0-4.5-0.2-6.5-0.7c-2-0.5-3.7-1.3-5.2-2.4c-1.5-1.1-2.6-2.5-3.5-4.2c-0.8-1.7-1.3-3.8-1.3-6.3V61.9h-8.9V50.8h8.9V37.4h13.9
	v13.4h12.3V61.9z"/>
<path class="st0" d="M390.2,88.2c-2.2,2.9-5.1,5.1-8.5,6.6c-3.4,1.5-6.9,2.3-10.6,2.3c-3.5,0-6.7-0.6-9.8-1.7
	c-3.1-1.1-5.7-2.7-8-4.8c-2.3-2.1-4-4.6-5.3-7.5c-1.3-2.9-2-6.2-2-9.8c0-3.6,0.7-6.8,2-9.8c1.3-2.9,3.1-5.4,5.3-7.5
	c2.3-2.1,4.9-3.7,8-4.8c3.1-1.1,6.3-1.7,9.8-1.7c3.2,0,6.2,0.6,8.8,1.7c2.6,1.1,4.9,2.7,6.7,4.8c1.8,2.1,3.2,4.6,4.2,7.5
	c1,2.9,1.5,6.2,1.5,9.8v4.4h-32.4c0.6,2.7,1.8,4.8,3.6,6.4s4.2,2.4,6.9,2.4c2.3,0,4.2-0.5,5.8-1.5c1.6-1,3-2.3,4.1-4L390.2,88.2z
	 M378.3,68.3c0.1-2.4-0.7-4.4-2.3-6c-1.6-1.7-3.7-2.5-6.2-2.5c-1.6,0-2.9,0.2-4.1,0.7c-1.2,0.5-2.2,1.1-3,1.9
	c-0.8,0.8-1.5,1.7-2,2.7c-0.5,1-0.7,2.1-0.8,3.2H378.3z"/>
<rect x="193.1" y="47.1" class="st1" width="5.2" height="6.1"/>
<path class="st0" d="M113.2,29.9H126v6h0.2c0.6-0.8,1.3-1.6,2.2-2.5c0.9-0.8,2-1.6,3.2-2.3c1.2-0.7,2.5-1.2,4-1.7
	c1.4-0.4,2.9-0.7,4.6-0.7c3.3,0,6.4,0.6,9.1,1.7c2.7,1.1,5.1,2.8,7,4.8c2,2.1,3.5,4.5,4.5,7.4c1.1,2.9,1.6,6,1.6,9.4
	c0,3.2-0.5,6.2-1.4,9.1c-1,2.9-2.3,5.4-4.1,7.7c-1.8,2.2-3.9,4-6.5,5.3c-2.5,1.3-5.4,2-8.6,2c-2.9,0-5.6-0.5-8.1-1.3
	c-2.5-0.9-4.6-2.4-6.2-4.6h-0.2v26h-13.9V29.9z M126,52.5c0,3.4,1,6.2,2.9,8.3c2,2.1,4.7,3.2,8.2,3.2c3.5,0,6.3-1.1,8.2-3.2
	c2-2.1,2.9-4.9,2.9-8.3c0-3.4-1-6.2-2.9-8.3c-2-2.1-4.7-3.2-8.2-3.2c-3.5,0-6.3,1.1-8.2,3.2C127,46.3,126,49.1,126,52.5z"/>
<text transform="matrix(1 0 0 1 373.4969 40.5919)" class="st0 st2 st3">Beta</text>
</svg>
