<?xml version="1.0" encoding="utf-8"?>
<!-- Generator: Adobe Illustrator 26.0.3, SVG Export Plug-In . SVG Version: 6.00 Build 0)  -->
<svg version="1.1" id="Layer_1" xmlns="http://www.w3.org/2000/svg" xmlns:xlink="http://www.w3.org/1999/xlink" x="0px" y="0px"
	 viewBox="0 0 158 63.2" style="enable-background:new 0 0 158 63.2;" xml:space="preserve">
<style type="text/css">
	.st0{fill:#004777;}
	.st1{fill:#14A2CD;}
</style>
<g>
	<path class="st0" d="M33.5,21.2h4.6v16.6h8.5V42H33.5V21.2z"/>
	<path class="st0" d="M55.7,40.2L55.7,40.2c-0.5,0.8-1.2,1.4-2,1.7s-1.7,0.5-2.5,0.5c-0.7,0-1.3-0.1-1.9-0.3
		c-0.6-0.2-1.2-0.4-1.6-0.8c-0.5-0.3-0.8-0.8-1.1-1.4c-0.3-0.6-0.4-1.3-0.4-1.9c0-0.8,0.2-1.5,0.4-2.1c0.3-0.6,0.8-1,1.3-1.4
		s1.2-0.7,1.8-0.8c0.7-0.2,1.4-0.3,2.1-0.4c0.7-0.1,1.4-0.2,2.1-0.2s1.4,0,2,0c0-0.8-0.3-1.4-0.8-1.9s-1.3-0.7-2-0.7s-1.4,0.2-2,0.4
		c-0.6,0.3-1.2,0.8-1.6,1.3l-2.4-2.5c0.8-0.8,1.8-1.4,2.9-1.7c1.1-0.4,2.3-0.6,3.4-0.6c1.3,0,2.4,0.2,3.2,0.5s1.4,0.8,2,1.4
		c0.5,0.7,0.8,1.4,1,2.3c0.2,1,0.3,2.1,0.3,3.1V42h-4v-1.8H55.7z M54.6,35.7c-0.3,0-0.8,0-1.3,0.1c-0.5,0-0.9,0.1-1.4,0.3
		c-0.4,0.1-0.8,0.3-1.2,0.6c-0.3,0.3-0.5,0.7-0.5,1.2s0.3,0.9,0.7,1.2s0.9,0.4,1.4,0.4c0.4,0,0.8-0.1,1.3-0.2
		c0.4-0.1,0.8-0.3,1.1-0.5c0.3-0.3,0.6-0.5,0.8-0.8s0.3-0.8,0.3-1.2v-0.9L54.6,35.7z"/>
	<rect x="80.1" y="27.7" class="st0" width="4.4" height="14.3"/>
	<path class="st1" d="M88.9,54.4c0.8,0,2.2-6.3,2.2-8.1c0-0.6,0-1.9,0-1.9c0-1.6-0.1-2.7,2.5-2.7c0.9,0,1.9-0.2,2.7-0.6
		c0.8-0.4,1.4-0.9,2-1.6c0.6-0.7,1-1.4,1.3-2.3c0.3-0.8,0.4-1.8,0.4-2.7s-0.2-1.9-0.5-2.8c-0.7-1.7-1.9-3-3.6-3.6
		C95,27.8,94,27.6,93,27.6h-3.3V26c0.3-0.1,0.7-0.3,1-0.6c0.5-0.5,0.8-1.1,0.8-1.8h-5.2c0,0.7,0.3,1.4,0.8,1.8l0,0
		c0.3,0.3,0.6,0.5,1,0.6v1.5h-1.4c0,0,0,13.8,0,18.8C86.7,48.1,88.1,54.4,88.9,54.4"/>
	<path class="st0" d="M114.8,39.2c-0.7,0.9-1.6,1.6-2.7,2.1c-1,0.5-2.2,0.8-3.4,0.8c-1.1,0-2.1-0.2-3.1-0.5
		c-0.9-0.3-1.8-0.8-2.5-1.5c-0.8-0.7-1.3-1.4-1.7-2.4c-0.4-1-0.7-2-0.6-3.1c0-1.1,0.2-2.1,0.6-3.1c0.4-0.9,0.9-1.7,1.7-2.4
		c0.8-0.7,1.6-1.2,2.5-1.5c1-0.3,2-0.5,3.1-0.5c0.9,0,1.9,0.2,2.8,0.5c0.8,0.3,1.5,0.8,2.1,1.5s1,1.5,1.4,2.4c0.3,1,0.5,2,0.5,3.1
		V36h-10.2c0.2,0.8,0.5,1.5,1.2,2c0.6,0.5,1.4,0.8,2.2,0.8c0.7,0,1.3-0.2,1.9-0.5c0.5-0.3,0.9-0.8,1.3-1.3L114.8,39.2z M111,33
		c0-0.7-0.3-1.4-0.8-1.9s-1.3-0.8-1.9-0.8c-0.4,0-0.8,0.1-1.3,0.3c-0.3,0.2-0.7,0.3-0.9,0.6c-0.3,0.3-0.5,0.5-0.6,0.8
		c-0.2,0.3-0.3,0.7-0.3,1C105.2,33,111,33,111,33z"/>
	<path class="st0" d="M126.2,31h-3.9v4.7c0,0.3,0,0.7,0.1,1.1c0,0.3,0.1,0.6,0.3,0.8s0.3,0.4,0.6,0.6c0.3,0.2,0.8,0.2,1.1,0.2
		c0.3,0,0.6,0,0.9-0.1c0.3,0,0.6-0.2,0.8-0.3v3.6c-0.5,0.2-1,0.3-1.5,0.3c-0.5,0.1-1,0.1-1.5,0.1c-0.7,0-1.4-0.1-2-0.3
		s-1.2-0.4-1.7-0.8c-0.5-0.3-0.8-0.8-1.1-1.4c-0.3-0.6-0.4-1.4-0.4-2v-6.9H115V27h2.8v-4h4.4v4.2h3.9L126.2,31L126.2,31z"/>
	<path class="st0" d="M136.7,31h-3.9v4.7c0,0.3,0,0.7,0.1,1.1c0,0.3,0.1,0.6,0.3,0.8c0.2,0.3,0.3,0.4,0.6,0.6
		c0.3,0.2,0.8,0.2,1.1,0.2s0.6,0,0.9-0.1c0.3,0,0.6-0.2,0.8-0.3v3.6c-0.5,0.2-1,0.3-1.5,0.3c-0.5,0.1-1,0.1-1.5,0.1
		c-0.7,0-1.4-0.1-2-0.3s-1.2-0.4-1.7-0.8c-0.5-0.3-0.8-0.8-1.1-1.4c-0.3-0.6-0.4-1.4-0.4-2v-6.9h-2.8V27h2.8v-4h4.4v4.2h3.9
		L136.7,31L136.7,31z"/>
	<path class="st0" d="M150.6,39.2c-0.7,0.9-1.6,1.6-2.7,2.1c-1,0.5-2.2,0.8-3.4,0.8c-1.1,0-2.1-0.2-3.1-0.5
		c-0.9-0.3-1.8-0.8-2.5-1.5s-1.3-1.4-1.7-2.4s-0.7-2-0.6-3.1c0-1.1,0.2-2.1,0.6-3.1c0.4-0.9,0.9-1.7,1.7-2.4
		c0.8-0.7,1.6-1.2,2.5-1.5c1-0.3,2-0.5,3.1-0.5c0.9,0,1.9,0.2,2.8,0.5c0.8,0.3,1.5,0.8,2.1,1.5s1,1.5,1.4,2.4c0.3,1,0.5,2,0.5,3.1
		V36H141c0.2,0.8,0.5,1.5,1.2,2c0.6,0.5,1.4,0.8,2.2,0.8c0.7,0,1.3-0.2,1.9-0.5c0.5-0.3,0.9-0.8,1.3-1.3L150.6,39.2z M146.8,33
		c0-0.7-0.3-1.4-0.8-1.9s-1.3-0.8-1.9-0.8c-0.8,0-1.6,0.3-2.3,0.8c-0.3,0.3-0.5,0.5-0.6,0.8c-0.2,0.3-0.3,0.7-0.3,1
		C140.9,33,146.8,33,146.8,33z"/>
	<path class="st0" d="M62.7,20.8h4.1v1.9h0.1c0.2-0.3,0.4-0.5,0.7-0.8c0.3-0.3,0.7-0.5,1-0.8c0.4-0.3,0.8-0.4,1.3-0.5
		c0.4-0.1,0.9-0.2,1.4-0.2c1,0,1.9,0.2,2.9,0.6c0.8,0.3,1.6,0.8,2.2,1.5s1.1,1.4,1.4,2.4c0.3,0.9,0.5,1.9,0.5,3s-0.2,1.9-0.4,2.9
		c-0.3,0.8-0.8,1.7-1.3,2.5c-0.6,0.7-1.3,1.3-2,1.7c-0.8,0.4-1.8,0.7-2.7,0.7c-0.8,0-1.8-0.2-2.5-0.4c-0.8-0.3-1.4-0.8-1.9-1.4h-0.1
		V42H63V20.8H62.7z M66.8,28c0,1.1,0.3,1.9,0.9,2.6s1.5,1,2.6,1s1.9-0.3,2.6-1c0.6-0.7,0.9-1.5,0.9-2.6s-0.2-2-0.8-2.6
		c-0.6-0.7-1.5-1-2.6-1s-2,0.3-2.6,1S66.8,26.9,66.8,28L66.8,28z"/>
</g>
</svg>
