<svg id="Layer4" xmlns="http://www.w3.org/2000/svg" viewBox="0 0 1757.31 769.24"><defs><style>.cls-1{fill:#fdd9bb;}.cls-2{fill:#998379;}.cls-3{fill:#9dc176;}.cls-4{fill:#accc87;}.cls-5{fill:#95bf6d;}.cls-6{fill:#fcc036;}.cls-7{fill:#5491c4;}.cls-8{fill:gray;}.cls-9{fill:#666;}.cls-10{fill:#f9f9f9;}.cls-11{fill:#ebebeb;}.cls-12{fill:#4d4d4d;}.cls-13{fill:#e5b88f;}.cls-14{fill:#dba87f;}</style></defs><title>180319_about_banner_parallax</title><g id="etienne"><rect class="cls-1" x="827.45" y="375.99" width="33.18" height="48.6" rx="16.59" ry="16.59"/><g id="Layer_9" data-name="Layer 9"><rect class="cls-1" x="803.35" y="347.66" width="12.18" height="18.06" rx="5.96" ry="5.96"/><rect class="cls-1" x="873.94" y="348.62" width="12.18" height="18.06" rx="5.96" ry="5.96"/><path class="cls-1" d="M844.86,402.28h0c-14.2,0-33.51-16.41-33.51-36.46l-.9-24.74c0-20.05,15.49-36.46,34.42-36.46h0c18.93,0,34.42,16.41,34.42,36.46l-.9,24.74C878.37,385.87,859.29,402.28,844.86,402.28Z"/><path class="cls-2" d="M845.14,387.7h0c-14.61,0-34.48-14.24-34.48-31.65l-.93-21.48c0-17.41,15.93-31.65,35.41-31.65h0c19.48,0,35.41,14.24,35.41,31.65L879.62,356C879.62,373.45,860,387.7,845.14,387.7Z"/><path class="cls-2" d="M857.11,297.62c8.95,3.21,12.42,18.34,7.85,24.19-2.51,3.21-15.52.18-12.95-2C860.24,313,856.31,297.33,857.11,297.62Z"/><path class="cls-2" d="M879.9,314.85c-5-8.47-19.72-8.54-24-2.47-2.36,3.33,3.43,16,4.8,12.89C865,315.19,880.35,315.61,879.9,314.85Z"/></g><path class="cls-3" d="M743.69,486.92l26.52-69.31c3.87-10.12,10.07-17.7,27.85-15l4,2.07c8.57,3.28,3.21,14.78-.67,24.9l-26.52,69.31c-3.87,10.12-14,15.71-22.62,12.43h0C743.66,508,739.82,497,743.69,486.92Z"/><path class="cls-3" d="M948.75,487.06l-26.41-69c-3.85-10.07-10.33-21.18-31-17.44l2.28,4.73c-8.57,3.28-6.29,14.56-2.44,24.63l26.41,69c3.85,10.07,14,15.63,22.59,12.35h0C948.75,508.06,952.6,497.14,948.75,487.06Z"/><path class="cls-4" d="M882.7,579c-30.88,0-53.49,6.32-76.59,6.32-17.24,0-31.34-26-31.34-45.52V430.39q0-.81,0-1.61c.82-20.37,19.48-35.37,39.69-32.67l26.23,3.51a35.09,35.09,0,0,0,9.75-.06l22.51-3.3c20.29-3,39.18,12,40,32.52q0,.8,0,1.61V539.82C913,559.29,899.94,579,882.7,579Z"/><path class="cls-5" d="M846,387.35c15.83,0,45.2-14.21,49.52-7,9.95,16.59-11.5,59.52-49,60.52S776,397.34,788.66,380.35C794,373.15,828.88,387.35,846,387.35Z"/><polygon class="cls-6" points="887.33 692.84 864.35 692.84 866.35 669.38 890.33 672.38 887.33 692.84"/><polygon class="cls-6" points="823.9 694.45 797.92 694.45 795.92 680.99 821.9 677.99 823.9 694.45"/><path class="cls-7" d="M818.41,680.65l-16.7,1.79c-7.56.81-14.42-4-15.33-10.71l-12.58-93c-.91-6.72,4.48-12.83,12-13.64l16.7-1.79c7.56-.81,14.42,4,15.33,10.71l12.58,93C831.36,673.73,826,679.84,818.41,680.65Z"/><path class="cls-7" d="M868.8,680.88l16.7,1.79c7.56.81,14.42-4,15.33-10.71l12.58-93c.91-6.72-4.48-12.83-12-13.64l-16.7-1.79c-7.56-.81-14.42,4-15.33,10.71l-12.58,93C855.85,674,861.24,680.07,868.8,680.88Z"/><g id="Layer_12" data-name="Layer 12"><path class="cls-8" d="M781.77,725.19c0-15.61,11.47-28.26,25.63-28.26S833,709.58,833,725.19"/><rect class="cls-9" x="793.2" y="691.46" width="35.72" height="35.08" rx="4.75" ry="4.75"/><rect class="cls-10" x="778.9" y="720.16" width="53.97" height="5.76"/><path class="cls-8" d="M859.77,725.79c0-15.61,11.47-28.26,25.63-28.26S911,710.19,911,725.79"/><rect class="cls-9" x="859.15" y="692.06" width="33.53" height="35.08" rx="4.75" ry="4.75"/><rect class="cls-10" x="859.14" y="720.16" width="53.97" height="5.76"/><rect class="cls-11" x="793.17" y="720.16" width="35.87" height="5.76"/><rect class="cls-11" x="859.26" y="720.16" width="33.61" height="5.76"/></g><path class="cls-3" d="M896.41,551.46c-6.12.07-17.37,1.22-23.49,1.3-6.32.08-19-1.77-25.29-1.69-4.9.06-15.69,1.18-20.59,1.24-5.22.06-16.67-.81-21.89-.74-13.17.16-27.66,2-32.34,8.35l6.39-.21c0,2.8,13.9,3.22,27.07,3.05l90.25-1.1c13.17-.16,23.92-2.59,23.89-5.39h0C920.39,553.46,909.58,551.3,896.41,551.46Z"/><path class="cls-12" d="M846,457.63a17.45,17.45,0,1,0,17.45,17.45A17.45,17.45,0,0,0,846,457.63Zm6.6,15.54a6.31,6.31,0,0,1-1.1,2,5.33,5.33,0,0,1-1.74,1.37,5.14,5.14,0,0,1-2.33.51c-2.17,0-2.12.92-2.12,2.31,0,0,0,1.1,0,1.57,0,1.63-1.15,8.4-1.88,8.4s-1.87-6.78-1.87-8.4c0-4.29,0-16,0-16h1.16v-.78a2.14,2.14,0,0,1-.84-.53,2.11,2.11,0,0,1-.64-1.55h4.37a2.11,2.11,0,0,1-.64,1.55,2.14,2.14,0,0,1-.84.53v.78H847a6.54,6.54,0,0,1,2.45.44,5.4,5.4,0,0,1,3.1,3.14,6.61,6.61,0,0,1,.43,2.41A7,7,0,0,1,852.57,473.17Z"/></g><g id="Layer_10" data-name="Layer 10"><rect class="cls-13" x="830.36" y="502.74" width="32.82" height="147.61" transform="translate(1423.32 -270.23) rotate(90)"/><rect class="cls-13" x="833.71" y="375.95" width="23.07" height="145.55" transform="translate(1293.98 -396.52) rotate(90)"/><rect class="cls-13" x="833.71" y="419.95" width="23.07" height="145.55" transform="translate(1337.98 -352.52) rotate(90)"/><rect class="cls-14" x="767.04" y="422.34" width="21.77" height="304.82"/><rect class="cls-14" x="902.87" y="422.34" width="21.77" height="304.82"/></g></svg>