<?xml version="1.0" encoding="utf-8"?>
<!-- Generator: Adobe Illustrator 26.0.3, SVG Export Plug-In . SVG Version: 6.00 Build 0)  -->
<svg version="1.1" id="Layer0" xmlns="http://www.w3.org/2000/svg" xmlns:xlink="http://www.w3.org/1999/xlink" x="0px" y="0px"
	 viewBox="0 0 1757.3 769.2" style="enable-background:new 0 0 1757.3 769.2;" xml:space="preserve">
<style type="text/css">
	.st0{fill:#C7E6F2;}
	.st1{fill:#D9EDF9;}
	.st2{opacity:0.2;}
	.st3{fill:#FFFFFF;}
	.st4{fill:none;stroke:#D0EAF7;stroke-width:8;stroke-miterlimit:10;}
	.st5{opacity:0.9;fill:#FFFFFF;enable-background:new    ;}
	.st6{fill:#4D4D4D;}
	.st7{font-family:'MoskBold700';}
	.st8{font-size:30.1351px;}
	.st9{fill:#A08E88;}
	.st10{fill:#2A304D;}
	.st11{fill:#938073;}
	.st12{fill:#7F5F52;}
	.st13{fill:none;stroke:#BCAB99;stroke-width:4.3946;stroke-linecap:round;stroke-miterlimit:10;}
	.st14{fill:#A69990;}
	.st15{fill:#B74930;}
	.st16{fill:#BC9E8A;}
	.st17{opacity:0.6;fill:#D7F7F7;}
	
		.st18{opacity:0.3;fill:none;stroke:#FFFFFF;stroke-width:6.2623;stroke-linecap:round;stroke-miterlimit:10;enable-background:new    ;}
	.st19{opacity:0.6;fill:none;stroke:#C7EAF2;stroke-width:5;stroke-linecap:round;stroke-miterlimit:10;}
</style>
<g>
	<path class="st0" d="M705.6,607h-837c-3.7,0-6.8-3-6.8-6.8v-31.8c0-3.7,3-6.8,6.8-6.8h837c3.7,0,6.8,3,6.8,6.8v31.8
		C712.4,603.9,709.3,607,705.6,607z"/>
	<path class="st1" d="M710.9,584.3h-847.3c-10.1,0-18.2-8.2-18.2-18.2v0c0-10.1,8.2-18.2,18.2-18.2h847.3c10.1,0,18.2,8.2,18.2,18.2
		v0C729.1,576.1,720.9,584.3,710.9,584.3z"/>
	<g class="st2">
		<path class="st3" d="M696.3,566.6H506.9c-2.7,0-4.8-2.2-4.8-4.8v0c0-2.7,2.2-4.8,4.8-4.8h189.4c2.7,0,4.8,2.2,4.8,4.8v0
			C701.2,564.4,699,566.6,696.3,566.6z"/>
	</g>
	<rect x="-138.1" y="596" class="st1" width="850.5" height="407.4"/>
	<rect x="-84.1" y="628.9" class="st4" width="362.2" height="244.8"/>
	<rect x="278.2" y="628.9" class="st4" width="362.2" height="244.8"/>
</g>
<g>
	<path class="st5" d="M760.1,367.8h-53.9c-7.9,0-14.2,6.4-14.2,14.2v1.5l-11.4,8c-1.2,1.2-1.2,3.1,0,4.3l11.4,7.2v1.5
		c0,7.9,6.4,14.2,14.2,14.2h54.8c7.9,0,14.2-6.4,14.2-14.2v-22.5C775.2,374.2,767.9,367.8,760.1,367.8z"/>
	<text transform="matrix(1 0 0 1 709.8975 401.4922)" class="st6 st7 st8">Hi !</text>
	<g>
		<path class="st9" d="M618.3,538c-0.7,3.2-3.1,5.6-6.1,6.4c-1.3,0.4-2.7,0.4-4.1,0.1c-17.4-3.8-32.4-12.2-43.2-24.3
			c-11.6-13-18.6-30.2-19.8-49c0,0,0,0,0,0c-0.1-1.3-0.1-2.6-0.2-3.9c-0.1-3.5,0-7.1,0.3-10.6c0.4-4.7,1.1-9.3,2.2-13.9
			c1.1-4.6,2.5-9.1,4.2-13.5c1.9-4.9,4.2-9.7,6.9-14.4c1.2-2.2,2.6-4.3,4-6.4c2.6-3.9,8-5,11.9-2.4c3.9,2.6,5,8,2.4,11.9
			c-1.4,2.1-2.8,4.3-4,6.6c-2,3.6-3.7,7.3-5.1,11c-1.6,4-2.8,8.2-3.7,12.3c-0.8,3.5-1.3,7.1-1.6,10.7c-0.2,2.8-0.3,5.5-0.3,8.3
			c0,1.4,0.1,2.9,0.2,4.3c1.2,14.5,6.6,27.7,15.4,37.5c8.5,9.5,19.9,15.9,34.1,19C616.4,528.8,619.3,533.3,618.3,538z"/>
		<path class="st10" d="M576.8,418c-1.4,2.1-2.8,4.3-4,6.6c-3.3,0-6.9-1.3-9.9-3.8c-2-1.7-3.5-3.7-4.4-5.8c1.2-2.2,2.6-4.3,4-6.4
			c2.6-3.9,8-5,11.9-2.4C578.4,408.8,579.4,414.1,576.8,418z"/>
		<path class="st10" d="M567.7,435.7c-1.6,4-2.8,8.2-3.7,12.3c-4.9,2.8-14,0-16.5-5.1c1.1-4.6,2.5-9.1,4.2-13.5
			c1,2.7,3.2,5.3,7.1,6.5C562,437,565.3,436.8,567.7,435.7z"/>
		<path class="st10" d="M562.3,458.7c-0.2,2.8-0.3,5.5-0.3,8.3c0,1.4,0.1,2.9,0.2,4.3c-3.7,4.2-13.1,4.1-17.2,0c0,0,0,0,0,0
			c-0.1-1.3-0.1-2.6-0.2-3.9c-0.1-3.5,0-7.1,0.3-10.6c1.7,2.3,4.5,4.3,8.6,4.4C557.3,461.4,560.4,460.4,562.3,458.7z"/>
	</g>
	<path class="st11" d="M596.3,335.7l24.9,22.3L590,389l0.8-50.2C589.6,335.3,593.7,333.3,596.3,335.7z"/>
	<path class="st12" d="M604.3,349.6l23.9,23.3l-33.4,29.7l2.8-50.1C597.6,349,601.8,347.2,604.3,349.6z"/>
	<path class="st11" d="M655.5,336L633,360.6l30.2,30.4l-0.9-52.6C662.2,334.9,657.9,333.4,655.5,336z"/>
	<path class="st12" d="M651.7,350.5l-23.9,23.3l28.5,32.1l2.1-52.5C658.4,349.9,654.2,348.1,651.7,350.5z"/>
	<line class="st13" x1="640.2" y1="356" x2="656.1" y2="338.1"/>
	<path class="st9" d="M648.9,548.1h0.2h27.7c4.4-3.4,7.6-9.7,10-20.6c11.5-52-10.5-79.3-19.4-98.2l-82.5,8.2l0.2-4.6
		c-0.1,0.2-0.2,0.4-0.2,0.6c0,0.1,0,0.1-0.1,0.2c-4,10.2-14.7,30.6-19,54.2v0c-1,5.3-1.6,10.8-1.8,16.4c-0.2,5.1,0,10.3,0.7,15.5
		c0.7,5.4,2,10.9,4,16.2c2.1,5.8,4.5,9.6,7.5,12h30h4.8H648.9z"/>
	<path class="st14" d="M648.9,548.1c2.1-1.5,3.6-4.2,5-9.3c1.3-4.4,2.6-10.4,4.4-18.8c11.5-52,16.5-70.9,10.4-87.1
		c-0.5-1.3-0.9-2.4-1.4-3.6c-4.6-11.7-6.9-16.9-4.3-32c1.3-7.5,1.2-14,0-19.6c0,0,0,0,0,0s0,0,0,0c0,0,0,0,0,0
		c-1-4.7-2.8-8.7-5.1-12.1c-3-4.3-6.9-7.7-11.4-10h0c-1.4-0.7-2.8-1.3-4.3-1.9c-0.7-0.3-1.5-0.5-2.3-0.7h0c-7.6-2.2-16-2-23.7,0.4
		c-1.9,0.6-3.8,1.3-5.6,2.2c-5.3,2.5-10.1,6.2-13.7,11c-3.4,4.5-5.8,10.1-6.8,16.5c0,0,0,0,0,0v0c0,0,0,0,0,0
		c-0.8,5.7-0.4,12.1,1.5,19.3c3.3,12.4-1.3,17.7-6.6,30.3c-0.1,0.2-0.2,0.4-0.2,0.6c0,0.1,0,0.1-0.1,0.2c-4.6,12.6-3,48.4,11.1,88.6
		v0c0.3,0.8,0.5,1.5,0.8,2.3c1.2,3.3,2.2,6.1,3.2,8.6c0.7,1.8,1.4,3.5,2,4.9c1,2.3,2,4.2,3.1,5.6c1.6,2.2,3.4,3.5,5.8,4.3
		c0,0,0.1,0,0.1,0H648.9z"/>
	<g>
		<path class="st15" d="M621.2,397.8c0.2,4.1,5.7,7.2,7.8,7.2c2.5,0,7.3-3.7,7.2-7.8c-0.2-4.1-3.7-3.9-7.8-3.7
			C624.3,393.6,621,393.7,621.2,397.8z"/>
		<path class="st10" d="M645.6,387.5c-0.1-2.5-2.2-4.4-4.6-4.3c-2.5,0.1-4.4,2.2-4.3,4.6c0.1,2.5,2.1,2.5,4.6,2.4
			C643.7,390.2,645.7,390,645.6,387.5z"/>
		<path class="st10" d="M620.6,388.1c0.2-2.4-1.6-4.6-4-4.8s-4.6,1.6-4.8,4s1.7,2.8,4.2,3S620.4,390.5,620.6,388.1z"/>
	</g>
	<path class="st16" d="M613.8,547c0-53.2,6-80.2,13.5-80.2c7.4,0,13.5,28.3,13.5,80.2H613.8z"/>
	<path class="st14" d="M620.5,545.6c0,4.9-4.7,4.2-10.6,4.2s-10.6,0.7-10.6-4.2s4.7-8.9,10.6-8.9S620.5,540.7,620.5,545.6z"/>
	<path class="st14" d="M655.8,545.6c0,3.8-2.8,4.2-6.7,4.2h-0.2c-1.1,0-2.4,0-3.6,0c-1.4,0-2.7,0-3.9,0c-2.4,0-4.4-0.2-5.5-1.1
		c-0.8-0.6-1.2-1.6-1.2-3.1c0-3.5,2.4-6.5,5.9-8c1.4-0.6,3-0.9,4.7-0.9c3.6,0,6.8,1.5,8.7,3.8C655.2,542,655.8,543.7,655.8,545.6z"
		/>
</g>
<path class="st17" d="M78.7,497.5l-3.3,43.5c-0.4,4.1-3.2,7.3-6.6,7.3H48.3c-3.2,0-6-2.9-6.5-6.8l-3.8-44"/>
<line class="st18" x1="70.5" y1="503.6" x2="67.3" y2="538"/>
<path class="st19" d="M78.7,497.5l-3,45.7c0,2.8-2.3,5.1-5.1,5.1H46c-2.8,0-5.1-2.3-5.1-5.1l-3-45.7"/>
</svg>
