<svg id="Layer0" xmlns="http://www.w3.org/2000/svg" xmlns:xlink="http://www.w3.org/1999/xlink" viewBox="0 0 1757.31 769.24"><defs><style>.cls-1,.cls-16{fill:#88caea;}.cls-1,.cls-17{opacity:0.5;}.cls-2{fill:none;}.cls-3{opacity:0.4;}.cls-14,.cls-4{fill:#fff;}.cls-5{clip-path:url(#clip-path);}.cls-6{fill:#e1edf4;}.cls-7,.cls-9{fill:#dce0e5;}.cls-14,.cls-7{opacity:0.7;}.cls-8{fill:#edeeef;}.cls-10{fill:#c1e2ac;}.cls-11{fill:#93c73d;opacity:0.2;}.cls-12{fill:#c0b399;}.cls-13{fill:#c1dd6b;opacity:0.8;}.cls-15{fill:#f2e9c7;}.cls-16{opacity:0.1;}.cls-18{clip-path:url(#clip-path-2);}.cls-19{fill:#aa812e;}.cls-20{fill:#fab129;}.cls-21{fill:#fcc036;}.cls-22{fill:#badeea;}</style><clipPath id="clip-path"><polygon class="cls-1" points="738.88 682.21 712.11 681.29 712.11 74.92 980.41 74.92 977.33 681.83 738.88 682.21"/></clipPath><clipPath id="clip-path-2"><polygon class="cls-2" points="975.6 681.83 739.69 682.21 713.3 683.87 713.3 77.5 978.38 77.5 975.6 681.83"/></clipPath></defs><title>About_layer00</title><g id="home_bg" data-name="home bg" class="cls-3"><rect class="cls-4" x="560.68" y="39.03" width="436.14" height="674.27"/><polygon class="cls-1" points="738.88 682.21 712.11 681.29 712.11 74.92 980.41 74.92 977.33 681.83 738.88 682.21"/><g class="cls-5"><rect class="cls-6" x="510.71" y="-40.09" width="1382.1" height="779.26"/><path class="cls-7" d="M811,541.87,986.54,301.18c10.5-14.39,27.68-14.39,38.18,0l175.56,240.69"/><path class="cls-4" d="M989.26,336.28l-3.18-13.73c-.66-2.86-3-4.28-5-3l-3.64,4.69c-3.62,2.26-6.89-3.93-4.2-7.94l13.28-19.08c10.5-14.39,27.68-14.39,38.18,0l15.43,20.06c2.61,3.39.45,9.36-3.1,8.57l-9-2c-2.26-.51-4.3,1.93-4.24,5.07l.13,6.84c.08,4.28-3.54,6.71-6,4l-9-10.1a2.9,2.9,0,0,0-4.43-.19l-9.63,9.43C992.85,340.81,990,339.52,989.26,336.28Z"/><path class="cls-8" d="M599.78,600.33l244.79-338.5c10.5-14.39,27.68-14.39,38.18,0l254.19,362.74"/><path class="cls-9" d="M901.15,568.76,725.58,328.07c-10.5-14.39-27.68-14.39-38.18,0L511.84,568.76l-1.13,170.41,408.72-4.38Z"/><path class="cls-4" d="M690.12,363.16l-3.18-13.73c-.66-2.86-3-4.28-5-3l-3.64,4.69c-3.62,2.26-6.89-3.93-4.2-7.94l13.28-19.08c10.5-14.39,27.68-14.39,38.18,0L741,344.13c2.61,3.39.45,9.36-3.1,8.57l-9-2c-2.26-.51-4.3,1.93-4.24,5.07l.13,6.84c.08,4.28-3.54,6.71-6,4l-9-10.1a2.9,2.9,0,0,0-4.43-.19l-9.63,9.43C693.71,367.7,690.87,366.4,690.12,363.16Z"/><path class="cls-4" d="M847.06,301.32l-3.18-13.73c-.66-2.86-3-4.28-5-3l-3.64,4.69c-3.62,2.26-6.89-3.93-4.2-7.94l13.28-19.08c10.5-14.39,27.68-14.39,38.18,0L898,282.29c2.61,3.39.45,9.36-3.1,8.57l-9-2c-2.26-.51-4.3,1.93-4.24,5.07l.13,6.84c.08,4.28-3.54,6.71-6,4l-9-10.1a2.9,2.9,0,0,0-4.43-.19l-9.63,9.43C850.64,305.86,847.81,304.56,847.06,301.32Z"/><path class="cls-10" d="M1136.65,588.43c98.08,112.78,221.69,450.6,56.76,450.6-81.53,0-461.77-35.19-603.49-137.56-145-104.7-157.14-285.73-117.72-315C517.91,552.6,673.1,459.41,838,459.41S1096.82,542.64,1136.65,588.43Z"/><ellipse class="cls-11" cx="936.25" cy="552.14" rx="53.25" ry="6.5"/><rect class="cls-12" x="927.3" y="438.29" width="16.16" height="118.15" rx="8.08" ry="8.08"/><path class="cls-12" d="M918.51,497.27c-6.77,0-10.23-7.55-10.23-16.15V465.45c0-.59,0-11.19,0-11.77.18-3.28-2.74-4.83-4.15-2.24a29.55,29.55,0,0,0-3.36,14v17.82c0,13.21,7.89,24,17.53,24h13c3.3,0,9.42-1.11,9.42-5.54s-7.57-4.49-9.85-4.48"/><path class="cls-12" d="M954.86,476.24c6.77,0,10.23-7.55,10.23-16.15V444.42c0-.59,0-11.19,0-11.77-.18-3.28,2.74-4.83,4.15-2.24a29.55,29.55,0,0,1,3.36,14v17.82c0,13.21-7.89,24-17.53,24h-13c-3.3,0-9.42-1.11-9.42-5.54s7.57-4.49,9.85-4.48"/><rect class="cls-13" x="897.48" y="330.74" width="78.1" height="132.94" rx="36.28" ry="36.28"/><rect class="cls-13" x="885.47" y="412.35" width="41.8" height="70.14" rx="19.28" ry="19.28"/><rect class="cls-13" x="949.47" y="396.55" width="41.8" height="70.14" rx="19.28" ry="19.28"/><rect class="cls-14" x="845.51" y="129.52" width="98.83" height="47.12" rx="20.12" ry="20.12"/><rect class="cls-14" x="892.78" y="158.98" width="98.83" height="47.12" rx="20.12" ry="20.12"/><rect class="cls-14" x="962.73" y="237.57" width="49.51" height="23.61" rx="10.08" ry="10.08"/><rect class="cls-14" x="986.41" y="252.33" width="49.51" height="23.61" rx="10.08" ry="10.08"/><ellipse class="cls-15" cx="722.94" cy="204.3" rx="42.66" ry="58.48"/><rect class="cls-14" x="724.3" y="236.04" width="146.55" height="69.88" rx="29.84" ry="29.84"/></g><polygon class="cls-16" points="975.6 684.43 713.3 683.87 713.3 77.5 978.38 77.5 978.38 214.7 975.6 684.43"/><g class="cls-17"><g class="cls-18"><polygon class="cls-4" points="926.48 51.92 654.37 297.02 642.08 263.81 914.18 18.7 926.48 51.92"/><polygon class="cls-4" points="1007.14 103.73 709.36 371.97 684.01 303.45 981.79 35.21 1007.14 103.73"/></g></g><g id="Layer_14" data-name="Layer 14"><polygon class="cls-19" points="1090.12 92.99 593.35 92.99 593.35 84.06 1091.12 84.06 1090.12 92.99"/><path class="cls-20" d="M681.73,88v-1.7a19.12,19.12,0,0,1-38.23,0v2a16,16,0,0,0-4.46,11l.85,541.19a15.66,15.66,0,0,0,2.57,8.53v-8.62c0-9.59,8.6-17.44,19.1-17.44s19.1,7.85,19.1,17.44v.05c4.06-3.11,6.66-11.77,6.66-17L686.47,99.2A16,16,0,0,0,681.73,88Z"/><rect class="cls-21" x="680.21" y="66.16" width="34.89" height="591.45" rx="17.44" ry="17.44"/><rect class="cls-21" x="611" y="66.16" width="34.89" height="618.55" rx="17.18" ry="17.18"/><path class="cls-20" d="M1040,84.49v-1.7a19.12,19.12,0,0,1-38.23,0v2a16,16,0,0,0-4.46,11l.85,541.19a15.66,15.66,0,0,0,2.57,8.53v-8.62c0-9.59,8.6-17.44,19.1-17.44s19.1,7.85,19.1,17.44v.05c4.06-3.11,6.66-11.77,6.66-17l-.85-524.19A16,16,0,0,0,1040,84.49Z"/><rect class="cls-21" x="1038.53" y="62.69" width="34.89" height="591.45" rx="17.44" ry="17.44"/><rect class="cls-21" x="969.32" y="62.69" width="34.89" height="618.55" rx="17.18" ry="17.18"/><circle class="cls-19" cx="592.31" cy="90.04" r="13.23"/><circle class="cls-19" cx="1097.93" cy="87.52" r="13.23"/></g></g><g id="Lab_bg" data-name="Lab bg"><path class="cls-22" d="M1006.58,1.94c0,7.27-326.33,827.64-326.33,827.64L1788.2,832,1775.14-6.78Z"/></g><rect class="cls-6" x="-296.67" y="704.58" width="2245.5" height="252.36"/></svg>