<?xml version="1.0" encoding="utf-8"?>
<!-- Generator: Adobe Illustrator 21.0.2, SVG Export Plug-In . SVG Version: 6.00 Build 0)  -->
<svg version="1.1" xmlns="http://www.w3.org/2000/svg" xmlns:xlink="http://www.w3.org/1999/xlink" x="0px" y="0px"
	 viewBox="0 0 1757.3 769.2" style="enable-background:new 0 0 1757.3 769.2;" xml:space="preserve">
<style type="text/css">
	.st0{display:none;}
	.st1{display:inline;opacity:0.4;}
	.st2{fill:#FFFFFF;}
	.st3{clip-path:url(#SVGID_2_);}
	.st4{fill:#E1EDF4;}
	.st5{opacity:0.7;fill:#DCE0E5;}
	.st6{fill:#EDEEEF;}
	.st7{fill:#DCE0E5;}
	.st8{fill:#C1E2AC;}
	.st9{opacity:0.2;fill:#93C73D;}
	.st10{fill:#C0B399;}
	.st11{opacity:0.8;fill:#C1DD6B;}
	.st12{opacity:0.7;fill:#FFFFFF;}
	.st13{fill:#F2E9C7;}
	.st14{opacity:0.1;fill:#88CAEA;}
	.st15{opacity:0.5;}
	.st16{clip-path:url(#SVGID_4_);fill:#FFFFFF;}
	.st17{fill:#AA812E;}
	.st18{fill:#FAB129;}
	.st19{fill:#FCC036;}
	.st20{display:inline;}
	.st21{fill:#BADEEA;}
	.st22{display:inline;fill:#E1EDF4;}
	.st23{fill:#DBA87F;}
	.st24{fill:#E5B88F;}
	.st25{fill:#F6F6F6;}
	.st26{fill:#B1B1B1;}
	.st27{fill:#CACACA;}
	.st28{fill:#808080;}
	.st29{fill:#F4F4F4;}
	.st30{fill:#4D4D4D;}
	.st31{fill:#EE5B72;}
	.st32{fill:#4FB580;}
	.st33{fill:#E8F1F9;}
	.st34{fill:none;stroke:#B1B1B1;stroke-width:8;stroke-linecap:round;stroke-miterlimit:10;}
	.st35{fill:#ABCEA5;}
	.st36{fill:#BBDDB6;}
	.st37{fill:#666666;}
	.st38{fill:#93C73D;}
	.st39{fill:none;stroke:#CACACA;stroke-width:0.8707;stroke-miterlimit:10;}
	.st40{fill:#88CAEA;}
	.st41{fill:#AD88A6;}
	.st42{fill:#EF7087;}
	.st43{fill:#F0F0F0;}
	.st44{fill:#333333;}
	.st45{fill:#F5921D;}
	.st46{fill:none;stroke:#E5B88F;stroke-width:4;stroke-linecap:round;stroke-linejoin:round;stroke-miterlimit:10;}
	.st47{fill:#ACD053;}
	.st48{fill:#E2923B;}
	.st49{opacity:0.3;fill:none;stroke:#FFFFFF;stroke-width:4;stroke-linecap:round;stroke-miterlimit:10;}
	.st50{opacity:0.7;fill:#EAF3FB;stroke:#FFFFFF;stroke-width:2;stroke-miterlimit:10;}
	.st51{fill:#A6CDE2;}
	.st52{opacity:0.7;fill:#EAF3FB;stroke:#FFFFFF;stroke-width:2;stroke-linecap:round;stroke-miterlimit:10;}
	.st53{opacity:0.5;fill:none;stroke:#FFFFFF;stroke-width:6;stroke-linecap:round;stroke-miterlimit:10;}
	.st54{opacity:0.8;}
	.st55{fill:#E4E4E4;}
	.st56{clip-path:url(#SVGID_6_);fill:#F5921D;}
	.st57{fill:none;stroke:#E4E4E4;stroke-width:0.8623;stroke-linecap:round;stroke-miterlimit:10;}
	.st58{clip-path:url(#SVGID_8_);fill:#EF7087;}
	.st59{fill:none;stroke:#E4E4E4;stroke-width:0.8617;stroke-linecap:round;stroke-miterlimit:10;}
	.st60{fill:#EAF3FB;stroke:#FFFFFF;stroke-width:0.7777;stroke-linecap:round;stroke-miterlimit:10;}
	.st61{fill:#5491C4;}
	.st62{opacity:0.6;fill:#EAF3FB;stroke:#FFFFFF;stroke-width:2.1243;stroke-linecap:round;stroke-miterlimit:10;}
	.st63{fill:none;stroke:#F5921D;stroke-width:4.083;stroke-miterlimit:10;}
	.st64{fill:#EDEDEB;}
	.st65{clip-path:url(#SVGID_10_);fill:none;stroke:#CACACA;stroke-miterlimit:10;}
	.st66{fill:#C4C4BF;}
	.st67{fill:#EAF3FB;stroke:#FFFFFF;stroke-width:0.9651;stroke-linecap:round;stroke-miterlimit:10;}
	.st68{fill:#F9F9F9;}
	.st69{fill:none;stroke:#5491C4;stroke-width:3;stroke-linecap:round;stroke-miterlimit:10;}
	.st70{fill:#5491C4;stroke:#4D4D4D;stroke-width:3;stroke-linecap:round;stroke-miterlimit:10;}
	.st71{fill:none;stroke:#5491C4;stroke-linecap:round;stroke-miterlimit:10;}
	.st72{clip-path:url(#SVGID_12_);fill:#5491C4;}
	.st73{fill:none;stroke:#E4E4E4;stroke-linecap:round;stroke-miterlimit:10;}
	.st74{clip-path:url(#SVGID_14_);fill:#93C73D;}
	.st75{opacity:0.4;fill:#B1CFDD;}
	.st76{fill:#F0F6F7;}
	.st77{fill:none;stroke:#2D8F5C;stroke-width:2.4549;stroke-miterlimit:10;}
	.st78{opacity:0.7;fill:#EAF3FB;}
	.st79{fill:#CB425C;}
	.st80{fill:none;stroke:#B72E2F;stroke-width:2.4549;stroke-miterlimit:10;}
	.st81{fill:#B72E2F;stroke:#347199;stroke-width:2.7398;stroke-miterlimit:10;}
	.st82{fill:#E4EFF2;}
	.st83{fill:none;stroke:#BAD8E8;stroke-width:0.9835;stroke-miterlimit:10;}
	.st84{fill:#BAD8E8;}
	.st85{fill:#FDD9BB;}
	.st86{fill:#998379;}
	.st87{fill:#9DC176;}
	.st88{fill:#ACCC87;}
	.st89{fill:#95BF6D;}
	.st90{fill:#EBEBEB;}
	.st91{fill:#DAF0F7;}
	.st92{fill:#BBE5EF;}
	.st93{display:inline;fill:#A69990;}
	.st94{display:inline;fill:#A39790;}
	.st95{display:inline;fill:none;stroke:#A69990;stroke-width:18.0492;stroke-linecap:round;stroke-miterlimit:10;}
	.st96{display:inline;fill:#58595B;}
	.st97{fill:#C66155;}
	.st98{display:inline;opacity:0.9;fill:#FFFFFF;}
	.st99{display:inline;fill:#4D4D4D;}
	.st100{font-family:'HelveticaNeue';}
	.st101{font-size:31.5354px;}
</style>
<g id="Layer0_1_" class="st0">
	<g id="home_bg" class="st1">
		<rect x="560.7" y="39" class="st2" width="436.1" height="674.3"/>
		<g>
			<defs>
				<polygon id="SVGID_1_" points="738.9,682.2 712.1,681.3 712.1,74.9 980.4,74.9 977.3,681.8 				"/>
			</defs>
			<use xlink:href="#SVGID_1_"  style="overflow:visible;opacity:0.5;fill:#88CAEA;"/>
			<clipPath id="SVGID_2_">
				<use xlink:href="#SVGID_1_"  style="overflow:visible;opacity:0.5;"/>
			</clipPath>
			<g class="st3">
				<rect x="510.7" y="-40.1" class="st4" width="1382.1" height="779.3"/>
				<path class="st5" d="M811,541.9l175.6-240.7c10.5-14.4,27.7-14.4,38.2,0l175.6,240.7"/>
				<path class="st2" d="M989.3,336.3l-3.2-13.7c-0.7-2.9-3-4.3-5-3l-3.6,4.7c-3.6,2.3-6.9-3.9-4.2-7.9l13.3-19.1
					c10.5-14.4,27.7-14.4,38.2,0l15.4,20.1c2.6,3.4,0.4,9.4-3.1,8.6l-9-2c-2.3-0.5-4.3,1.9-4.2,5.1l0.1,6.8c0.1,4.3-3.5,6.7-6,4
					l-9-10.1c-1.3-1.4-3.1-1.5-4.4-0.2l-9.6,9.4C992.8,340.8,990,339.5,989.3,336.3z"/>
				<path class="st6" d="M599.8,600.3l244.8-338.5c10.5-14.4,27.7-14.4,38.2,0l254.2,362.7"/>
				<path class="st7" d="M901.1,568.8L725.6,328.1c-10.5-14.4-27.7-14.4-38.2,0L511.8,568.8l-1.1,170.4l408.7-4.4L901.1,568.8z"/>
				<path class="st2" d="M690.1,363.2l-3.2-13.7c-0.7-2.9-3-4.3-5-3l-3.6,4.7c-3.6,2.3-6.9-3.9-4.2-7.9l13.3-19.1
					c10.5-14.4,27.7-14.4,38.2,0l15.4,20.1c2.6,3.4,0.4,9.4-3.1,8.6l-9-2c-2.3-0.5-4.3,1.9-4.2,5.1l0.1,6.8c0.1,4.3-3.5,6.7-6,4
					l-9-10.1c-1.3-1.4-3.1-1.5-4.4-0.2l-9.6,9.4C693.7,367.7,690.9,366.4,690.1,363.2z"/>
				<path class="st2" d="M847.1,301.3l-3.2-13.7c-0.7-2.9-3-4.3-5-3l-3.6,4.7c-3.6,2.3-6.9-3.9-4.2-7.9l13.3-19.1
					c10.5-14.4,27.7-14.4,38.2,0l15.4,20.1c2.6,3.4,0.4,9.4-3.1,8.6l-9-2c-2.3-0.5-4.3,1.9-4.2,5.1l0.1,6.8c0.1,4.3-3.5,6.7-6,4
					l-9-10.1c-1.3-1.4-3.1-1.5-4.4-0.2l-9.6,9.4C850.6,305.9,847.8,304.6,847.1,301.3z"/>
				<path class="st8" d="M1136.6,588.4c98.1,112.8,221.7,450.6,56.8,450.6c-81.5,0-461.8-35.2-603.5-137.6
					c-145-104.7-157.1-285.7-117.7-315c45.7-33.9,200.9-127.1,365.8-127.1S1096.8,542.6,1136.6,588.4z"/>
				<ellipse class="st9" cx="936.3" cy="552.1" rx="53.3" ry="6.5"/>
				<path class="st10" d="M935.4,556.4L935.4,556.4c-4.4,0-8.1-3.6-8.1-8.1v-102c0-4.4,3.6-8.1,8.1-8.1l0,0c4.4,0,8.1,3.6,8.1,8.1
					v102C943.5,552.8,939.8,556.4,935.4,556.4z"/>
				<path class="st10" d="M918.5,497.3c-6.8,0-10.2-7.6-10.2-16.1v-15.7c0-0.6,0-11.2,0-11.8c0.2-3.3-2.7-4.8-4.1-2.2
					c-2.1,3.9-3.4,8.7-3.4,14v17.8c0,13.2,7.9,24,17.5,24h13c3.3,0,9.4-1.1,9.4-5.5c0-4.3-7.6-4.5-9.9-4.5"/>
				<path class="st10" d="M954.9,476.2c6.8,0,10.2-7.6,10.2-16.1v-15.7c0-0.6,0-11.2,0-11.8c-0.2-3.3,2.7-4.8,4.1-2.2
					c2.1,3.9,3.4,8.7,3.4,14v17.8c0,13.2-7.9,24-17.5,24h-13c-3.3,0-9.4-1.1-9.4-5.5c0-4.3,7.6-4.5,9.9-4.5"/>
				<path class="st11" d="M939.3,463.7h-5.5c-20,0-36.3-16.3-36.3-36.3V367c0-20,16.3-36.3,36.3-36.3h5.5c20,0,36.3,16.3,36.3,36.3
					v60.4C975.6,447.4,959.3,463.7,939.3,463.7z"/>
				<path class="st11" d="M908,482.5h-3.2c-10.6,0-19.3-8.7-19.3-19.3v-31.6c0-10.6,8.7-19.3,19.3-19.3h3.2
					c10.6,0,19.3,8.7,19.3,19.3v31.6C927.3,473.8,918.6,482.5,908,482.5z"/>
				<path class="st11" d="M972,466.7h-3.2c-10.6,0-19.3-8.7-19.3-19.3v-31.6c0-10.6,8.7-19.3,19.3-19.3h3.2
					c10.6,0,19.3,8.7,19.3,19.3v31.6C991.3,458,982.6,466.7,972,466.7z"/>
				<path class="st12" d="M924.2,176.6h-58.6c-11.1,0-20.1-9.1-20.1-20.1v-6.9c0-11.1,9.1-20.1,20.1-20.1h58.6
					c11.1,0,20.1,9.1,20.1,20.1v6.9C944.3,167.6,935.3,176.6,924.2,176.6z"/>
				<path class="st12" d="M971.5,206.1h-58.6c-11.1,0-20.1-9.1-20.1-20.1v-6.9c0-11.1,9.1-20.1,20.1-20.1h58.6
					c11.1,0,20.1,9.1,20.1,20.1v6.9C991.6,197,982.5,206.1,971.5,206.1z"/>
				<path class="st12" d="M1002.2,261.2h-29.3c-5.5,0-10.1-4.5-10.1-10.1v-3.4c0-5.5,4.5-10.1,10.1-10.1h29.3
					c5.5,0,10.1,4.5,10.1,10.1v3.4C1012.2,256.6,1007.7,261.2,1002.2,261.2z"/>
				<path class="st12" d="M1025.8,275.9h-29.3c-5.5,0-10.1-4.5-10.1-10.1v-3.4c0-5.5,4.5-10.1,10.1-10.1h29.3
					c5.5,0,10.1,4.5,10.1,10.1v3.4C1035.9,271.4,1031.4,275.9,1025.8,275.9z"/>
				<ellipse class="st13" cx="722.9" cy="204.3" rx="42.7" ry="58.5"/>
				<path class="st12" d="M841,305.9h-86.9c-16.4,0-29.8-13.4-29.8-29.8v-10.2c0-16.4,13.4-29.8,29.8-29.8H841
					c16.4,0,29.8,13.4,29.8,29.8v10.2C870.8,292.5,857.4,305.9,841,305.9z"/>
			</g>
		</g>
		<g>
			<polygon class="st14" points="975.6,684.4 713.3,683.9 713.3,77.5 978.4,77.5 978.4,214.7 			"/>
			<g class="st15">
				<defs>
					<polygon id="SVGID_3_" class="st15" points="975.6,681.8 739.7,682.2 713.3,683.9 713.3,77.5 978.4,77.5 					"/>
				</defs>
				<clipPath id="SVGID_4_">
					<use xlink:href="#SVGID_3_"  style="overflow:visible;"/>
				</clipPath>
				<polygon class="st16" points="926.5,51.9 654.4,297 642.1,263.8 914.2,18.7 				"/>
				<polygon class="st16" points="1007.1,103.7 709.4,372 684,303.4 981.8,35.2 				"/>
			</g>
		</g>
		<g id="Layer_14">
			<polygon class="st17" points="1090.1,93 593.3,93 593.3,84.1 1091.1,84.1 			"/>
			<path class="st18" d="M681.7,88v-1.7c0,10.5-8.6,19.1-19.1,19.1c-10.5,0-19.1-8.6-19.1-19.1v2c-2.8,3-4.5,6.8-4.5,11l0.8,541.2
				c0,3.1,0.9,6,2.6,8.5v-8.6c0-9.6,8.6-17.4,19.1-17.4c10.5,0,19.1,7.8,19.1,17.4v0.1c4.1-3.1,6.7-11.8,6.7-17l-0.8-524.2
				C686.5,94.9,684.7,91,681.7,88z"/>
			<path class="st19" d="M697.7,657.6L697.7,657.6c-9.6,0-17.4-7.8-17.4-17.4V83.6c0-9.6,7.8-17.4,17.4-17.4l0,0
				c9.6,0,17.4,7.9,17.4,17.4v556.6C715.1,649.8,707.3,657.6,697.7,657.6z"/>
			<path class="st19" d="M628.7,684.7h-0.5c-9.4,0-17.2-7.7-17.2-17.2V83.3c0-9.4,7.7-17.2,17.2-17.2h0.5c9.4,0,17.2,7.7,17.2,17.2
				v584.2C645.9,677,638.2,684.7,628.7,684.7z"/>
			<path class="st18" d="M1040,84.5v-1.7c0,10.5-8.6,19.1-19.1,19.1s-19.1-8.6-19.1-19.1v2c-2.8,3-4.5,6.8-4.5,11l0.8,541.2
				c0,3.1,0.9,6,2.6,8.5v-8.6c0-9.6,8.6-17.4,19.1-17.4c10.5,0,19.1,7.9,19.1,17.4v0.1c4.1-3.1,6.7-11.8,6.7-17l-0.8-524.2
				C1044.8,91.4,1043,87.5,1040,84.5z"/>
			<path class="st19" d="M1056,654.1L1056,654.1c-9.6,0-17.4-7.8-17.4-17.4V80.1c0-9.6,7.9-17.4,17.4-17.4h0
				c9.6,0,17.4,7.9,17.4,17.4v556.6C1073.4,646.3,1065.6,654.1,1056,654.1z"/>
			<path class="st19" d="M987,681.2h-0.5c-9.4,0-17.2-7.7-17.2-17.2V79.9c0-9.4,7.7-17.2,17.2-17.2h0.5c9.4,0,17.2,7.7,17.2,17.2
				v584.2C1004.2,673.5,996.5,681.2,987,681.2z"/>
			<circle class="st17" cx="592.3" cy="90" r="13.2"/>
			<circle class="st17" cx="1097.9" cy="87.5" r="13.2"/>
		</g>
	</g>
	<g id="Lab_bg" class="st20">
		<path class="st21" d="M1006.6,1.9c0,7.3-326.3,827.6-326.3,827.6l1107.9,2.4L1775.1-6.8L1006.6,1.9z"/>
	</g>
	<rect x="-296.7" y="704.6" class="st22" width="2245.5" height="252.4"/>
</g>
<g id="Layer1">
	<g id="Layer_5_1_">
		<g>
			<rect x="518" y="666.8" class="st23" width="93.3" height="10.4"/>
			<polygon class="st24" points="518.2,705.4 498.6,705.4 551.3,493.1 570.9,498 			"/>
			<polygon class="st24" points="613.3,705.4 631.7,705.4 579,496.1 560.6,500.7 			"/>
		</g>
		<polygon class="st23" points="585.5,522 544,522 546.6,512.1 582.9,512.2 		"/>
		<rect x="476.9" y="492.3" class="st25" width="433.4" height="21.7"/>
	</g>
	<g id="Layer_7">
		<rect x="827.8" y="446.1" class="st26" width="34.7" height="39.8"/>
		<path class="st27" d="M944.4,448.4H746c-5,0-9.2-4.1-9.2-9.2V337.3c0-5,4.1-9.2,9.2-9.2h198.4c5,0,9.2,4.1,9.2,9.2v101.9
			C953.5,444.2,949.4,448.4,944.4,448.4z"/>
		<rect x="745.5" y="334.5" class="st28" width="199.3" height="107.4"/>
		<rect x="793.2" y="482.9" class="st26" width="101.6" height="9.1"/>
		<rect x="745.4" y="334.3" class="st29" width="199.5" height="5.6"/>
		<rect x="765.2" y="352.7" class="st29" width="134.3" height="74.2"/>
		<rect x="745.5" y="339.9" class="st30" width="199.4" height="7.4"/>
		<ellipse class="st31" cx="750.7" cy="343.7" rx="2.3" ry="1.9"/>
		<ellipse class="st19" cx="757" cy="343.7" rx="2.3" ry="1.9"/>
		<ellipse class="st32" cx="763.2" cy="343.7" rx="2.3" ry="1.9"/>
		<rect x="879.1" y="355.1" class="st30" width="47.9" height="25.9"/>
		<rect x="883.4" y="358.8" class="st28" width="39.6" height="17.3"/>
		
			<rect x="750.2" y="353.2" transform="matrix(-1 -1.224647e-16 1.224647e-16 -1 1511.4667 766.9402)" class="st30" width="11.1" height="60.6"/>
	</g>
	<g id="Layer_13">
		<g id="Layer_16">
			<circle class="st33" cx="706.1" cy="364.2" r="10.7"/>
			<path class="st34" d="M696.8,324.4c-39.1,3.9-74.2,80.8-74.2,156.6"/>
			<path class="st35" d="M673.8,327.5l10.4,10.4c1.2,1.2,1.2,3.1,0,4.2l-3.9,3.9c-1.2,1.2-3.1,1.2-4.2,0l-10.4-10.4
				c-1.2-1.2-1.2-3.1,0-4.2l3.9-3.9C670.7,326.3,672.6,326.3,673.8,327.5z"/>
			<path class="st36" d="M717,344.1c3.9,0.8,5.4,5.5,2.7,8.5l-12.4,13.7l-12,13.3c-2.8,3.1-7.9,2-9.2-2l-5.5-17.1l-3.8-11.7
				c-2.1-6.4,3.6-12.6,10.1-11.2l12,2.6L717,344.1z"/>
			<path class="st36" d="M580.3,491.7c0-6.2,18.9-11.3,42.2-11.3c23.3,0,42.2,5.1,42.2,11.3"/>
		</g>
		<g id="Layer_15">
			<path class="st30" d="M595,491.5h-61c-3.8,0-6.9-3.1-6.9-6.9v-85.6c0-3.8,3.1-6.9,6.9-6.9h61c1.9,0,3.4,1.5,3.4,3.4V488
				C598.4,489.9,596.9,491.5,595,491.5z"/>
			<path class="st37" d="M605.8,491.5h-59.2c-3.3,0-6-2.7-6-6v-87.3c0-3.3,2.7-6,6-6h59.2c3.3,0,6,2.7,6,6v87.3
				C611.8,488.7,609.1,491.5,605.8,491.5z"/>
			<ellipse class="st28" cx="577.7" cy="458.1" rx="18.7" ry="17.9"/>
			<ellipse class="st37" cx="577.2" cy="457.8" rx="15.6" ry="14.9"/>
			<ellipse class="st30" cx="577.6" cy="458" rx="7.5" ry="7.2"/>
			<ellipse class="st38" cx="549.9" cy="481.5" rx="4.6" ry="4.4"/>
			<ellipse class="st39" cx="577.6" cy="458.4" rx="25.8" ry="24.6"/>
			<ellipse class="st30" cx="576.7" cy="412.8" rx="4.7" ry="4.5"/>
			<ellipse class="st39" cx="577.6" cy="413" rx="8.5" ry="8.1"/>
		</g>
	</g>
	<path class="st38" d="M692.1,485.8l13-67.7c0.2-1.2,1.4-2,2.6-1.8v0c1.2,0.2,2,1.4,1.8,2.6l-13,67.7c-0.2,1.2-1.4,2-2.6,1.8l0,0
		C692.7,488.1,691.9,486.9,692.1,485.8z"/>
	<path class="st40" d="M688.1,486.3l-5.4-68.8c-0.1-1.2,0.8-2.3,2-2.4l0,0c1.2-0.1,2.3,0.8,2.4,2l5.4,68.8c0.1,1.2-0.8,2.3-2,2.4
		l0,0C689.3,488.5,688.2,487.5,688.1,486.3z"/>
	<path class="st19" d="M676.4,486.5l4.1-62c0.1-1.2,1.1-2.1,2.3-2l0.4,0c1.2,0.1,2.1,1.1,2,2.3l-4.1,62c-0.1,1.2-1.1,2.1-2.3,2
		l-0.4,0C677.2,488.7,676.3,487.7,676.4,486.5z"/>
	<path class="st41" d="M673.9,487.2l-7.5-54.7c-0.2-1.4,0.8-2.7,2.2-2.9l0,0c1.4-0.2,2.7,0.8,2.9,2.2l7.5,54.7
		c0.2,1.4-0.8,2.7-2.2,2.9l0,0C675.4,489.6,674.1,488.6,673.9,487.2z"/>
	<path class="st27" d="M691,485.8l-2-58.3c0-1.1,0.9-2.1,2-2.2l0.5,0c1.1,0,2.1,0.9,2.2,2l2,58.3c0,1.1-0.9,2.1-2,2.2l-0.5,0
		C692,487.9,691.1,487,691,485.8z"/>
	<path class="st42" d="M691.4,482.1l3.2-68.9c0.1-1.2,1.1-2.2,2.3-2.1l0,0c1.2,0.1,2.2,1.1,2.1,2.3l-3.2,68.9
		c-0.1,1.2-1.1,2.2-2.3,2.1l0,0C692.3,484.4,691.3,483.3,691.4,482.1z"/>
	<g>
		<path class="st37" d="M704.9,450.3v36c0,2.8-2.2,5-5,5h-28.1c-2.8,0-5-2.2-5-5v-36"/>
	</g>
	<rect x="192.3" y="306.6" class="st43" width="264.6" height="17.7"/>
	<rect x="196.3" y="296.6" class="st24" width="264.6" height="17.7"/>
	<rect x="277" y="171.3" class="st43" width="28" height="125.6"/>
	<rect x="243.9" y="171.3" class="st28" width="30.9" height="125.6"/>
	<rect x="276.4" y="265.6" class="st40" width="28.4" height="20.5"/>
	<rect x="308.2" y="228.8" class="st38" width="15.2" height="68.2"/>
	<rect x="244" y="180.3" class="st32" width="30.6" height="7.4"/>
	<circle class="st44" cx="315.5" cy="242.3" r="4.2"/>
	<rect x="325.6" y="228.3" class="st45" width="15.2" height="68.2"/>
	<circle class="st43" cx="332.9" cy="241.8" r="4.2"/>
	<path class="st46" d="M193.2,214.4h17.2c4.9,0,9,4.1,9,9v35"/>
	<line class="st46" x1="219.4" y1="231.4" x2="237.7" y2="231.4"/>
	<g>
		<path class="st38" d="M233.4,235c1.9,0.3,3.2,2.7,2.8,5.4c-0.5,3.7-3.4,8.6-4.7,8.4"/>
		<path class="st47" d="M231.6,248.8c-1.1-0.2-2.8-5.8-2.3-9.4c0.4-2.7,2.2-4.7,4.2-4.4"/>
	</g>
	<g>
		<path class="st38" d="M240.7,231.2c-1.5-1.3-1.2-4,0.6-6.1c2.4-2.8,7.6-5.4,8.6-4.5"/>
		<path class="st47" d="M249.8,220.6c0.9,0.8-0.9,6.4-3.2,9.1c-1.8,2.1-4.4,2.7-5.9,1.4"/>
	</g>
	<g>
		<path class="st38" d="M239.8,234c1.8-0.7,4.1,0.8,5.1,3.3c1.4,3.4,1.3,9.2,0,9.7"/>
		<path class="st47" d="M244.9,247c-1.1,0.4-5.3-3.7-6.6-7.1c-1-2.5-0.3-5.2,1.5-5.9"/>
	</g>
	<g>
		<path class="st38" d="M222.2,219c-1.1-1.6-0.2-4.2,2.1-5.7c3.1-2.1,8.7-3.2,9.4-2.1"/>
		<path class="st47" d="M233.7,211.2c0.7,1-2.5,6-5.4,8c-2.3,1.5-5,1.5-6.1-0.1"/>
	</g>
	<g>
		<path class="st38" d="M218.2,213.5c-1.8-0.7-2.4-3.4-1.4-5.9c1.4-3.4,5.5-7.5,6.7-7"/>
		<path class="st47" d="M223.6,200.6c1.1,0.4,1.2,6.4-0.2,9.7c-1,2.5-3.4,4-5.2,3.2"/>
	</g>
	<g>
		<path class="st38" d="M193.3,210.3c-1.7,1-4.2,0-5.6-2.3c-2-3.1-2.9-8.8-1.8-9.5"/>
		<path class="st47" d="M185.9,198.4c1-0.6,5.9,2.7,7.8,5.8c1.4,2.3,1.3,5-0.4,6.1"/>
	</g>
	<g>
		<path class="st38" d="M190.2,217.9c2,0,3.5,2.3,3.5,5c-0.1,3.7-2.4,9-3.7,8.9"/>
		<path class="st47" d="M190,231.8c-1.2,0-3.4-5.5-3.4-9.1c0-2.7,1.7-4.9,3.6-4.9"/>
	</g>
	<g>
		<path class="st38" d="M189.1,215.1c-0.9,1.7-3.6,2-6,0.7c-3.3-1.8-6.8-6.2-6.2-7.4"/>
		<path class="st47" d="M176.8,208.4c0.6-1,6.4-0.5,9.6,1.2c2.4,1.3,3.6,3.8,2.7,5.5"/>
	</g>
	<g>
		<path class="st48" d="M238.8,255.7l-3,36c0,2.8-2.2,5-5,5h-21.1c-2.8,0-5-2.2-5-5l-4-36"/>
	</g>
	<line class="st49" x1="699.1" y1="458.4" x2="699.1" y2="479.6"/>
	<line class="st49" x1="232.3" y1="263" x2="230.1" y2="289.1"/>
	<g id="lab_stuff">
		<path class="st2" d="M1293.1,220h-18.6c-0.7,0-1.3-0.5-1.4-1.2l-0.5-3.2c-0.1-0.8,0.5-1.6,1.4-1.6h19.7c0.9,0,1.5,0.8,1.4,1.6
			l-0.5,3.2C1294.4,219.5,1293.8,220,1293.1,220z"/>
		<path class="st50" d="M1295.8,236.2V226h-1c2.2,0,4-1.8,4-4s-1.8-4-4-4h-22c-2.2,0-4,1.8-4,4s1.8,4,4,4h-1v10.2
			c-6.8,1.2-12,7.1-12,14.3v30c0,8,6.5,14.5,14.5,14.5h19c7.9,0,14.5-6.5,14.5-14.5v-30C1307.8,243.3,1302.6,237.4,1295.8,236.2z"/>
		<rect x="1259.9" y="253" class="st2" width="21" height="13.6"/>
		<path class="st2" d="M1435.3,219.9h-14.8c-0.5,0-1-0.5-1.1-1.2l-0.4-3.2c-0.1-0.8,0.4-1.6,1.1-1.6h15.7c0.7,0,1.2,0.8,1.1,1.6
			l-0.4,3.2C1436.3,219.4,1435.9,219.9,1435.3,219.9z"/>
		<path class="st50" d="M1437.5,236.4v-10.5h-1.2c1.9,0,3.6-1.6,3.6-3.6v-0.9c0-2-1.6-3.6-3.6-3.6h-16.7c-2,0-3.6,1.6-3.6,3.6v0.9
			c0,2,1.6,3.6,3.6,3.6h-1.2v10.5c-5.5,1.5-9.5,6.5-9.5,12.4V282c0,7.1,5.8,12.9,12.9,12.9h12.3c7.1,0,12.9-5.8,12.9-12.9v-33.2
			C1447,242.9,1442.9,237.9,1437.5,236.4z"/>
		<rect x="1423" y="264.7" class="st2" width="22.7" height="10"/>
		<path class="st2" d="M1402.4,221h-14.8c-0.5,0-1-0.5-1.1-1.2l-0.4-3.2c-0.1-0.8,0.4-1.6,1.1-1.6h15.7c0.7,0,1.2,0.8,1.1,1.6
			l-0.4,3.2C1403.4,220.5,1403,221,1402.4,221z"/>
		<line class="st51" x1="1385.5" y1="236" x2="1404.6" y2="236"/>
		<path class="st50" d="M1403.5,236.3V226c1.9-0.1,3.5-1.6,3.5-3.6v-0.9c0-2-1.6-3.6-3.6-3.6h-16.7c-2,0-3.6,1.6-3.6,3.6v0.9
			c0,2,1.6,3.6,3.6,3.6h0.1v10.2c-6.1,1-10.8,6.3-10.8,12.7v33.2c0,7.1,5.8,12.9,12.9,12.9h12.3c7.1,0,12.9-5.8,12.9-12.9v-33.2
			C1414.1,242.6,1409.5,237.4,1403.5,236.3z"/>
		<rect x="1384" y="253" class="st2" width="25.8" height="12.1"/>
		<g>
			<g>
				<path class="st42" d="M1116.6,478.7c4,6.9,1.5,10.7-7.9,10.7h-51.1c-9.3,0-10.1-3.4-6.4-10.7c6.7-13,11.1-16.8,16.5-15.4
					c5.5,1.4,13.1,5.6,21.8,4.1c6.1-1.1,17.8-4.1,17.8-4.1L1116.6,478.7z"/>
			</g>
			<path class="st52" d="M1071.7,401h2v35.9c0,0-19.9,29.7-26.7,43.1c-3.6,7.2,0,12.8,7.2,12.8h59.1c7.2,0,10.8-5.6,7.2-12.8
				c-6.7-13.4-26.7-43.1-26.7-43.1V401h1.7"/>
		</g>
		<line class="st52" x1="1443.6" y1="252.8" x2="1435.1" y2="252.8"/>
		<line class="st52" x1="1443.6" y1="259.8" x2="1435.1" y2="259.8"/>
		<line class="st52" x1="1443.6" y1="278.8" x2="1435.1" y2="278.8"/>
		<line class="st52" x1="1407.7" y1="248.9" x2="1399.2" y2="248.9"/>
		<line class="st52" x1="1407.7" y1="269.9" x2="1399.2" y2="269.9"/>
		<line class="st52" x1="1407.7" y1="276.9" x2="1399.2" y2="276.9"/>
		<line class="st52" x1="1279.6" y1="270.8" x2="1271" y2="270.8"/>
		<line class="st52" x1="1279.6" y1="277.8" x2="1271" y2="277.8"/>
		<line class="st53" x1="1382.7" y1="282.9" x2="1382.5" y2="246.7"/>
		<line class="st53" x1="1266.2" y1="282.9" x2="1266" y2="246.7"/>
		<line class="st53" x1="1056.6" y1="478.8" x2="1070" y2="455.9"/>
		<g class="st54">
			
				<rect x="1421" y="443" transform="matrix(-1 -6.044422e-11 6.044422e-11 -1 2845.6279 898.1583)" class="st55" width="3.6" height="12.2"/>
			
				<rect x="1421.4" y="448.1" transform="matrix(-1 -6.021773e-11 6.021773e-11 -1 2845.6279 908.427)" class="st55" width="2.8" height="12.2"/>
			
				<rect x="1421.9" y="459.3" transform="matrix(-1 -6.040603e-11 6.040603e-11 -1 2845.6279 926.8637)" class="st55" width="1.8" height="8.2"/>
			
				<rect x="1422.2" y="462.3" transform="matrix(-1 -6.035407e-11 6.035407e-11 -1 2845.6279 936.8783)" class="st55" width="1.1" height="12.2"/>
			<path class="st55" d="M1421.9,415.7h1.4c0.5,0,0.9-0.4,0.9-0.9V410c0-0.5-0.4-0.9-0.9-0.9h-1.4c-0.5,0-0.9,0.4-0.9,0.9v4.9
				C1421,415.3,1421.4,415.7,1421.9,415.7z"/>
			<path class="st43" d="M1420.9,448.5h2.4c2.6,0,4.8-2.2,4.8-4.8V415c0-0.9-0.7-1.6-1.6-1.6h-5.6V448.5z"/>
			<g>
				<defs>
					<path id="SVGID_5_" d="M1421.9,415.7h1.4c0.5,0,0.9-0.4,0.9-0.9V410c0-0.5-0.4-0.9-0.9-0.9h-1.4c-0.5,0-0.9,0.4-0.9,0.9v4.9
						C1421,415.3,1421.4,415.7,1421.9,415.7z"/>
				</defs>
				<clipPath id="SVGID_6_">
					<use xlink:href="#SVGID_5_"  style="overflow:visible;"/>
				</clipPath>
				
					<rect x="1419.5" y="408.1" transform="matrix(-1 -6.036251e-11 6.036251e-11 -1 2845.5073 818.459)" class="st56" width="6.4" height="2.2"/>
			</g>
			
				<rect x="1421.4" y="455.2" transform="matrix(-1 -6.068269e-11 6.068269e-11 -1 2845.6655 910.6299)" class="st27" width="2.8" height="0.3"/>
			
				<rect x="1421.9" y="460.3" transform="matrix(-1 -5.979540e-11 5.979540e-11 -1 2845.6504 920.9091)" class="st27" width="1.8" height="0.3"/>
			
				<rect x="1422.2" y="467.6" transform="matrix(-1 -5.955338e-11 5.955338e-11 -1 2845.6023 935.3934)" class="st27" width="1.2" height="0.3"/>
			<line class="st57" x1="1427.5" y1="431.5" x2="1425.3" y2="431.5"/>
			<line class="st57" x1="1427.5" y1="429.5" x2="1425.3" y2="429.5"/>
			<line class="st57" x1="1427.5" y1="433.5" x2="1425.3" y2="433.5"/>
			<line class="st57" x1="1427.5" y1="435.5" x2="1425.3" y2="435.5"/>
			<line class="st57" x1="1427.5" y1="437.5" x2="1425.3" y2="437.5"/>
			<line class="st57" x1="1427.5" y1="439.5" x2="1425.3" y2="439.5"/>
			<line class="st57" x1="1427.5" y1="441.5" x2="1425.3" y2="441.5"/>
			<line class="st57" x1="1427.5" y1="443.5" x2="1425.3" y2="443.5"/>
		</g>
		<g class="st54">
			<rect x="1405.6" y="443" class="st55" width="3.6" height="12.2"/>
			<rect x="1406" y="448.1" class="st55" width="2.8" height="12.2"/>
			<rect x="1406.5" y="459.3" class="st55" width="1.8" height="8.2"/>
			<rect x="1406.8" y="462.3" class="st55" width="1.1" height="12.2"/>
			<path class="st55" d="M1408.3,415.7h-1.4c-0.5,0-0.9-0.4-0.9-0.9V410c0-0.5,0.4-0.9,0.9-0.9h1.4c0.5,0,0.9,0.4,0.9,0.9v4.9
				C1409.1,415.3,1408.8,415.7,1408.3,415.7z"/>
			<path class="st43" d="M1409.3,448.5h-2.4c-2.6,0-4.8-2.2-4.8-4.8V415c0-0.9,0.7-1.6,1.6-1.6h5.6V448.5z"/>
			<g>
				<defs>
					<path id="SVGID_7_" d="M1408.3,415.7h-1.4c-0.5,0-0.9-0.4-0.9-0.9V410c0-0.5,0.4-0.9,0.9-0.9h1.4c0.5,0,0.9,0.4,0.9,0.9v4.9
						C1409.1,415.3,1408.8,415.7,1408.3,415.7z"/>
				</defs>
				<clipPath id="SVGID_8_">
					<use xlink:href="#SVGID_7_"  style="overflow:visible;"/>
				</clipPath>
				<rect x="1404.2" y="408.1" class="st58" width="6.4" height="2.2"/>
			</g>
			<rect x="1405.9" y="455.2" class="st27" width="2.8" height="0.3"/>
			<rect x="1406.5" y="460.3" class="st27" width="1.8" height="0.3"/>
			<rect x="1406.8" y="467.6" class="st27" width="1.2" height="0.3"/>
			<line class="st59" x1="1402.7" y1="431.5" x2="1404.8" y2="431.5"/>
			<line class="st59" x1="1402.7" y1="429.5" x2="1404.8" y2="429.5"/>
			<line class="st59" x1="1402.7" y1="433.5" x2="1404.8" y2="433.5"/>
			<line class="st59" x1="1402.7" y1="435.5" x2="1404.8" y2="435.5"/>
			<line class="st59" x1="1402.7" y1="437.5" x2="1404.8" y2="437.5"/>
			<line class="st59" x1="1402.7" y1="439.5" x2="1404.8" y2="439.5"/>
			<line class="st59" x1="1402.7" y1="441.5" x2="1404.8" y2="441.5"/>
			<line class="st59" x1="1402.7" y1="443.5" x2="1404.8" y2="443.5"/>
		</g>
		<path class="st2" d="M1444.9,428.8h-60.3c-2.9,0-5.3-2.4-5.3-5.3v-0.5c0-2.9,2.4-5.3,5.3-5.3h60.3c2.9,0,5.3,2.4,5.3,5.3v0.5
			C1450.2,426.4,1447.8,428.8,1444.9,428.8z"/>
		<path class="st2" d="M1414.7,491.3L1414.7,491.3c-2.2,0-4.1-1.8-4.1-4.1v-72.4c0-2.2,1.8-4.1,4.1-4.1l0,0c2.2,0,4.1,1.8,4.1,4.1
			v72.4C1418.8,489.4,1416.9,491.3,1414.7,491.3z"/>
		<path class="st2" d="M1382.1,491.9L1382.1,491.9c0-4,3.3-7.3,7.3-7.3h50.6c4,0,7.3,3.3,7.3,7.3l0,0"/>
		<path class="st2" d="M1421.2,414h-13c-1.4,0-2.6-1.2-2.6-2.6l0,0c0-1.4,1.2-2.6,2.6-2.6h13c1.4,0,2.6,1.2,2.6,2.6l0,0
			C1423.8,412.8,1422.6,414,1421.2,414z"/>
		<g>
			<g>
				<path class="st60" d="M1249.4,455.7v26c0,0.4-0.1,0.7-0.4,1l-3.9,7.1c-0.5,0.5-1.4,0.5-2,0l-3.9-7.1c-0.3-0.3-0.4-0.6-0.4-1v-26
					c0-0.8,0.6-1.4,1.4-1.4h7.9C1248.8,454.3,1249.4,455,1249.4,455.7z"/>
				<path class="st61" d="M1249.8,457.5h-11.4c-0.4,0-0.8-0.4-0.8-0.8v-3.4c0-0.4,0.4-0.8,0.8-0.8h11.4c0.4,0,0.8,0.4,0.8,0.8v3.4
					C1250.5,457.2,1250.2,457.5,1249.8,457.5z"/>
				<line class="st60" x1="1245.4" y1="468.9" x2="1248.1" y2="468.9"/>
				<line class="st60" x1="1245.4" y1="475.2" x2="1248.1" y2="475.2"/>
				<line class="st60" x1="1245.4" y1="463.6" x2="1248.1" y2="463.6"/>
				<line class="st62" x1="1240.8" y1="460.4" x2="1240.8" y2="478.9"/>
			</g>
			<g>
				<path class="st60" d="M1265.9,455.7v26c0,0.4-0.1,0.7-0.4,1l-3.9,7.1c-0.5,0.5-1.4,0.5-2,0l-3.9-7.1c-0.3-0.3-0.4-0.6-0.4-1v-26
					c0-0.8,0.6-1.4,1.4-1.4h7.9C1265.3,454.3,1265.9,455,1265.9,455.7z"/>
				<path class="st61" d="M1266.3,457.5h-11.4c-0.4,0-0.8-0.4-0.8-0.8v-3.4c0-0.4,0.4-0.8,0.8-0.8h11.4c0.4,0,0.8,0.4,0.8,0.8v3.4
					C1267.1,457.2,1266.7,457.5,1266.3,457.5z"/>
				<line class="st60" x1="1261.9" y1="468.9" x2="1264.7" y2="468.9"/>
				<line class="st60" x1="1261.9" y1="475.2" x2="1264.7" y2="475.2"/>
				<line class="st60" x1="1261.9" y1="463.6" x2="1264.7" y2="463.6"/>
				<line class="st62" x1="1257.4" y1="460.4" x2="1257.4" y2="478.9"/>
			</g>
			<g>
				<path class="st60" d="M1299,455.7v26c0,0.4-0.1,0.7-0.4,1l-3.9,7.1c-0.5,0.5-1.4,0.5-2,0l-3.9-7.1c-0.3-0.3-0.4-0.6-0.4-1v-26
					c0-0.8,0.6-1.4,1.4-1.4h7.9C1298.4,454.3,1299,455,1299,455.7z"/>
				<path class="st61" d="M1299.3,457.5H1288c-0.4,0-0.8-0.4-0.8-0.8v-3.4c0-0.4,0.4-0.8,0.8-0.8h11.4c0.4,0,0.8,0.4,0.8,0.8v3.4
					C1300.1,457.2,1299.8,457.5,1299.3,457.5z"/>
				<line class="st60" x1="1295" y1="468.9" x2="1297.7" y2="468.9"/>
				<line class="st60" x1="1295" y1="475.2" x2="1297.7" y2="475.2"/>
				<line class="st60" x1="1295" y1="463.6" x2="1297.7" y2="463.6"/>
				<line class="st62" x1="1290.4" y1="460.4" x2="1290.4" y2="478.9"/>
			</g>
			<g>
				<path class="st60" d="M1282.5,455.7v26c0,0.4-0.1,0.7-0.4,1l-3.9,7.1c-0.5,0.5-1.4,0.5-2,0l-3.9-7.1c-0.3-0.3-0.4-0.6-0.4-1v-26
					c0-0.8,0.6-1.4,1.4-1.4h7.9C1281.8,454.3,1282.5,455,1282.5,455.7z"/>
				<path class="st61" d="M1282.8,457.5h-11.4c-0.4,0-0.8-0.4-0.8-0.8v-3.4c0-0.4,0.4-0.8,0.8-0.8h11.4c0.4,0,0.8,0.4,0.8,0.8v3.4
					C1283.6,457.2,1283.2,457.5,1282.8,457.5z"/>
				<line class="st60" x1="1278.4" y1="468.9" x2="1281.2" y2="468.9"/>
				<line class="st60" x1="1278.4" y1="475.2" x2="1281.2" y2="475.2"/>
				<line class="st60" x1="1278.4" y1="463.6" x2="1281.2" y2="463.6"/>
				<line class="st62" x1="1273.9" y1="460.4" x2="1273.9" y2="478.9"/>
			</g>
			<rect x="1233.5" y="464.6" class="st63" width="69.6" height="26.2"/>
		</g>
		<g>
			<path class="st64" d="M1229.6,474.9c0,21.2-17.6,18.2-39.3,18.2s-39.5,3-39.5-18.2c0-21.2,17.7-33.3,39.4-33.3
				C1212,441.5,1229.6,453.7,1229.6,474.9z"/>
			<g>
				<defs>
					<path id="SVGID_9_" d="M1229.8,474.9c0,21.2-17.6,18.2-39.3,18.2c-21.8,0-39.5,3-39.5-18.2c0-21.2,17.7-33.3,39.4-33.3
						S1229.8,453.7,1229.8,474.9z"/>
				</defs>
				<clipPath id="SVGID_10_">
					<use xlink:href="#SVGID_9_"  style="overflow:visible;"/>
				</clipPath>
				<path class="st65" d="M1241.1,479.6c10.4,0-26.3,20.8-50.1,20.8s-58.5-21.8-48.1-21.8c10,0,24.3-11.8,48.1-11.8
					S1229.7,479.6,1241.1,479.6z"/>
			</g>
			<path class="st55" d="M1204.5,489.6h-28.2c-0.5,0-1-0.5-1-1v-14.1c0-0.5,0.5-1,1-1h28.2c0.6,0,1,0.5,1,1v14.1
				C1205.5,489.1,1205,489.6,1204.5,489.6z"/>
			<ellipse class="st66" cx="1190.4" cy="444.4" rx="6.2" ry="1.2"/>
			<path class="st27" d="M1202,480.7h-22.6c-0.9,0-1.7-0.8-1.7-1.7v-0.6c0-0.9,0.8-1.7,1.7-1.7h22.6c0.9,0,1.7,0.8,1.7,1.7v0.6
				C1203.7,480,1202.9,480.7,1202,480.7z"/>
			<path class="st61" d="M1198.9,461.4h-16.6c-0.4,0-0.7-0.3-0.7-0.7l0,0c0-0.4,0.3-0.7,0.7-0.7h16.6c0.4,0,0.7,0.3,0.7,0.7l0,0
				C1199.6,461.1,1199.3,461.4,1198.9,461.4z"/>
		</g>
		<g>
			<rect x="1131.2" y="480.4" class="st67" width="4.6" height="7"/>
			<line class="st67" x1="1130.2" y1="480.1" x2="1136.9" y2="480.1"/>
		</g>
		<g>
			<rect x="1139.2" y="480.4" class="st67" width="4.6" height="7"/>
			<line class="st67" x1="1138.2" y1="480.1" x2="1144.9" y2="480.1"/>
		</g>
		<g>
			<rect x="1147.2" y="480.4" class="st67" width="4.6" height="7"/>
			<line class="st67" x1="1146.2" y1="480.1" x2="1152.9" y2="480.1"/>
		</g>
		<rect x="1124.4" y="484.8" class="st32" width="92.6" height="9"/>
		<path class="st68" d="M1695,557.9c0.2,1.8-0.8,3.4-2.5,4c-8.9,3.2-18.1,7.7-34.2,9.9c-6.9,0.9-10.4,3.9-16.6,7.6
			c-3.5,2.1-12.1-0.2-11.8-3.8l17.9-219.7c0.2-2.8,4.3-4.4,6.7-3l11.6,22.4c1.1,0.6,1.8,1.7,1.9,2.9L1695,557.9z"/>
		<polygon class="st2" points="1645.4,511.9 1624.8,525.5 1642.7,373.3 1648.9,359.4 		"/>
		<polygon class="st29" points="1650,511.4 1624.4,525.5 1623.4,518.8 1646.5,503.8 		"/>
		<polygon class="st2" points="1662.1,522.6 1691.3,528.6 1664.9,368.6 1661.2,361.5 		"/>
		<polygon class="st29" points="1657.5,521.7 1691.8,528.6 1693.3,522 1658.1,515.2 		"/>
		<path class="st2" d="M1657,571.5"/>
		<path class="st2" d="M1679.6,576.7c0,0-10.4-5.9-22.7-7.9c-14.2-2.3-30.2-2.8-30.2-2.8l18.5-203c0-8.3,0.6-14.7,9-14.7l0,0
			c8.7,0,8.7,6.4,8.7,15.2l24.3,206.5C1687.6,574.2,1683.8,577.6,1679.6,576.7z"/>
		<g>
			<line class="st69" x1="1662.4" y1="405.2" x2="1662.4" y2="399"/>
			<line class="st70" x1="1668.4" y1="406.2" x2="1667.4" y2="400"/>
			<polygon class="st43" points="1672.2,409.3 1656.5,406.3 1656.5,402.5 1672.2,405.5 			"/>
			<line class="st71" x1="1662.4" y1="408.2" x2="1662.4" y2="402"/>
		</g>
		<g>
			<rect x="1394.9" y="442.5" class="st55" width="4.9" height="12.2"/>
			<rect x="1395.4" y="447.7" class="st55" width="3.8" height="12.2"/>
			<rect x="1396.1" y="458.9" class="st55" width="2.4" height="8.2"/>
			<rect x="1396.5" y="461.9" class="st55" width="1.5" height="12.2"/>
			<path class="st43" d="M1387,416.2h5c0.8,0,1.5-0.7,1.5-1.5v-0.2c0-0.8-0.7-1.5-1.5-1.5h-5c-0.8,0-1.5,0.7-1.5,1.5v0.2
				C1385.5,415.5,1386.2,416.2,1387,416.2z"/>
			<path class="st55" d="M1398.7,415.3h-2.2c-0.6,0-1-0.5-1-1v-4.6c0-0.5,0.4-1,1-1h2.2c0.6,0,1,0.5,1,1v4.6
				C1399.7,414.8,1399.3,415.3,1398.7,415.3z"/>
			<path class="st43" d="M1399.9,448.1h-4.1c-3.1,0-5.6-2.5-5.6-5.6v-27.7c0-1,0.8-1.8,1.8-1.8h7.8V448.1z"/>
			<g>
				<defs>
					<path id="SVGID_11_" d="M1398.7,415.3h-2.2c-0.6,0-1-0.5-1-1v-4.6c0-0.5,0.4-1,1-1h2.2c0.6,0,1,0.5,1,1v4.6
						C1399.7,414.8,1399.3,415.3,1398.7,415.3z"/>
				</defs>
				<clipPath id="SVGID_12_">
					<use xlink:href="#SVGID_11_"  style="overflow:visible;"/>
				</clipPath>
				<rect x="1393.1" y="407.7" class="st72" width="8.7" height="2.2"/>
			</g>
			<rect x="1395.4" y="454.7" class="st27" width="3.8" height="0.3"/>
			<rect x="1396.1" y="459.9" class="st27" width="2.4" height="0.3"/>
			<rect x="1396.5" y="467.1" class="st27" width="1.6" height="0.3"/>
			<line class="st73" x1="1391" y1="431.1" x2="1393.9" y2="431.1"/>
			<line class="st73" x1="1391" y1="429.1" x2="1393.9" y2="429.1"/>
			<line class="st73" x1="1391" y1="433.1" x2="1393.9" y2="433.1"/>
			<line class="st73" x1="1391" y1="435.1" x2="1393.9" y2="435.1"/>
			<line class="st73" x1="1391" y1="437.1" x2="1393.9" y2="437.1"/>
			<line class="st73" x1="1391" y1="439.1" x2="1393.9" y2="439.1"/>
			<line class="st73" x1="1391" y1="441.1" x2="1393.9" y2="441.1"/>
			<line class="st73" x1="1391" y1="443.1" x2="1393.9" y2="443.1"/>
		</g>
		<g>
			
				<rect x="1430.6" y="442.6" transform="matrix(-1 -4.494328e-11 4.494328e-11 -1 2866.1292 897.4014)" class="st55" width="4.9" height="12.2"/>
			
				<rect x="1431.2" y="447.7" transform="matrix(-1 -4.477453e-11 4.477453e-11 -1 2866.1292 907.6702)" class="st55" width="3.8" height="12.2"/>
			
				<rect x="1431.9" y="458.9" transform="matrix(-1 -4.491486e-11 4.491486e-11 -1 2866.1292 926.1068)" class="st55" width="2.4" height="8.2"/>
			
				<rect x="1432.3" y="461.9" transform="matrix(-1 -4.487622e-11 4.487622e-11 -1 2866.1292 936.1215)" class="st55" width="1.5" height="12.2"/>
			<path class="st43" d="M1443.4,416.2h-5c-0.8,0-1.5-0.7-1.5-1.5v-0.2c0-0.8,0.7-1.5,1.5-1.5h5c0.8,0,1.5,0.7,1.5,1.5v0.2
				C1444.9,415.6,1444.2,416.2,1443.4,416.2z"/>
			<path class="st55" d="M1431.7,415.4h2.2c0.5,0,1-0.4,1-1v-4.6c0-0.6-0.5-1-1-1h-2.2c-0.5,0-1,0.4-1,1v4.6
				C1430.7,414.9,1431.1,415.4,1431.7,415.4z"/>
			<path class="st43" d="M1430.5,448.1h4.1c3.1,0,5.6-2.5,5.6-5.6v-27.7c0-1-0.8-1.8-1.8-1.8h-7.8V448.1z"/>
			<g>
				<defs>
					<path id="SVGID_13_" d="M1431.7,415.4h2.2c0.5,0,1-0.4,1-1v-4.6c0-0.6-0.5-1-1-1h-2.2c-0.5,0-1,0.4-1,1v4.6
						C1430.7,414.9,1431.1,415.4,1431.7,415.4z"/>
				</defs>
				<clipPath id="SVGID_14_">
					<use xlink:href="#SVGID_13_"  style="overflow:visible;"/>
				</clipPath>
				
					<rect x="1428.6" y="407.8" transform="matrix(-1 -4.488200e-11 4.488200e-11 -1 2865.967 817.7021)" class="st74" width="8.7" height="2.2"/>
			</g>
			
				<rect x="1431.2" y="454.8" transform="matrix(-1 -4.512047e-11 4.512047e-11 -1 2866.1799 909.873)" class="st27" width="3.8" height="0.3"/>
			
				<rect x="1431.9" y="459.9" transform="matrix(-1 -4.446056e-11 4.446056e-11 -1 2866.1594 920.1522)" class="st27" width="2.4" height="0.3"/>
			
				<rect x="1432.3" y="467.2" transform="matrix(-1 -4.428070e-11 4.428070e-11 -1 2866.095 934.6365)" class="st27" width="1.6" height="0.3"/>
			<line class="st73" x1="1439.4" y1="431.1" x2="1436.5" y2="431.1"/>
			<line class="st73" x1="1439.4" y1="429.1" x2="1436.5" y2="429.1"/>
			<line class="st73" x1="1439.4" y1="433.1" x2="1436.5" y2="433.1"/>
			<line class="st73" x1="1439.4" y1="435.1" x2="1436.5" y2="435.1"/>
			<line class="st73" x1="1439.4" y1="437.1" x2="1436.5" y2="437.1"/>
			<line class="st73" x1="1439.4" y1="439.1" x2="1436.5" y2="439.1"/>
			<line class="st73" x1="1439.4" y1="441.1" x2="1436.5" y2="441.1"/>
			<line class="st73" x1="1439.4" y1="443.1" x2="1436.5" y2="443.1"/>
		</g>
		<rect x="1204.5" y="305.4" class="st75" width="264.6" height="17.7"/>
		<rect x="1208.5" y="295.4" class="st76" width="264.6" height="17.7"/>
		<g>
			<rect x="1304.3" y="479" class="st32" width="36.6" height="14.2"/>
			<line class="st77" x1="1309.2" y1="485.6" x2="1309.2" y2="493.1"/>
			<line class="st77" x1="1316" y1="485.6" x2="1316" y2="493.1"/>
			<line class="st77" x1="1322.7" y1="485.6" x2="1322.7" y2="493.1"/>
			<line class="st77" x1="1329.5" y1="485.6" x2="1329.5" y2="493.1"/>
			<line class="st77" x1="1336.2" y1="485.6" x2="1336.2" y2="493.1"/>
			<rect x="1303" y="473.7" class="st78" width="39.1" height="11.3"/>
		</g>
		<g>
			<rect x="1313.1" y="458.1" class="st79" width="36.6" height="14.2"/>
			<line class="st80" x1="1318" y1="464.7" x2="1318" y2="472.3"/>
			<line class="st80" x1="1324.7" y1="464.7" x2="1324.7" y2="472.3"/>
			<line class="st80" x1="1331.5" y1="464.7" x2="1331.5" y2="472.3"/>
			<line class="st80" x1="1338.3" y1="464.7" x2="1338.3" y2="472.3"/>
			<line class="st80" x1="1345" y1="464.7" x2="1345" y2="472.3"/>
			<rect x="1311.8" y="452.9" class="st78" width="39.1" height="11.3"/>
		</g>
		<g>
			<rect x="1351.5" y="474.7" class="st61" width="36.6" height="17.6"/>
			<line class="st81" x1="1356.4" y1="482.9" x2="1356.4" y2="492.3"/>
			<line class="st81" x1="1363.1" y1="482.9" x2="1363.1" y2="492.3"/>
			<line class="st81" x1="1369.9" y1="482.9" x2="1369.9" y2="492.3"/>
			<line class="st81" x1="1376.6" y1="482.9" x2="1376.6" y2="492.3"/>
			<line class="st81" x1="1383.4" y1="482.9" x2="1383.4" y2="492.3"/>
			<rect x="1350.2" y="468.2" class="st78" width="39.1" height="14.1"/>
		</g>
		<path class="st50" d="M1259.7,252h-8.8v-7H1237v7h-10c-0.9,0-1.7,0.8-1.7,1.7v38.8c0,0.9,0.8,1.7,1.7,1.7h32.7
			c0.9,0,1.7-0.8,1.7-1.7v-38.8C1261.4,252.7,1260.6,252,1259.7,252z"/>
		<line class="st53" x1="1231.2" y1="289.2" x2="1231" y2="258"/>
		<rect x="1234" y="241.7" class="st2" width="19.5" height="7.2"/>
		<rect x="1233.1" y="275.3" class="st2" width="21" height="11"/>
		<g id="Labbench">
			<g>
				<rect x="1041.7" y="506.2" class="st82" width="430.2" height="197.6"/>
				<rect x="854" y="492.3" class="st76" width="635.1" height="22.1"/>
				<rect x="1055.4" y="528.4" class="st83" width="195.4" height="166.2"/>
				<rect x="1263.5" y="528.4" class="st83" width="195.4" height="166.2"/>
				<path class="st84" d="M1310.2,547.3h-30.8c-2.3,0-4.2-1.9-4.2-4.2l0,0c0-2.3,1.9-4.2,4.2-4.2h30.8c2.3,0,4.2,1.9,4.2,4.2l0,0
					C1314.4,545.4,1312.5,547.3,1310.2,547.3z"/>
				<path class="st84" d="M1236.8,548.1h-30.8c-2.3,0-4.2-1.9-4.2-4.2l0,0c0-2.3,1.9-4.2,4.2-4.2h30.8c2.3,0,4.2,1.9,4.2,4.2l0,0
					C1241.1,546.2,1239.2,548.1,1236.8,548.1z"/>
				<rect x="1041.8" y="513.7" class="st75" width="430" height="7.8"/>
			</g>
		</g>
	</g>
</g>
<g id="Layer4" class="st0">
	<g id="etienne" class="st20">
		<path class="st85" d="M844,424.6L844,424.6c-9.1,0-16.6-7.5-16.6-16.6v-15.4c0-9.1,7.5-16.6,16.6-16.6l0,0
			c9.1,0,16.6,7.5,16.6,16.6V408C860.6,417.1,853.2,424.6,844,424.6z"/>
		<g id="Layer_9">
			<path class="st85" d="M809.6,365.7h-0.3c-3.3,0-6-2.7-6-6v-6.1c0-3.3,2.7-6,6-6h0.3c3.3,0,6,2.7,6,6v6.1
				C815.5,363,812.9,365.7,809.6,365.7z"/>
			<path class="st85" d="M880.2,366.7h-0.3c-3.3,0-6-2.7-6-6v-6.1c0-3.3,2.7-6,6-6h0.3c3.3,0,6,2.7,6,6v6.1
				C886.1,364,883.4,366.7,880.2,366.7z"/>
			<path class="st85" d="M844.9,402.3L844.9,402.3c-14.2,0-33.5-16.4-33.5-36.5l-0.9-24.7c0-20.1,15.5-36.5,34.4-36.5h0
				c18.9,0,34.4,16.4,34.4,36.5l-0.9,24.7C878.4,385.9,859.3,402.3,844.9,402.3z"/>
			<path class="st86" d="M845.1,387.7L845.1,387.7c-14.6,0-34.5-14.2-34.5-31.6l-0.9-21.5c0-17.4,15.9-31.6,35.4-31.6h0
				c19.5,0,35.4,14.2,35.4,31.6l-0.9,21.5C879.6,373.5,860,387.7,845.1,387.7z"/>
			<path class="st86" d="M857.1,297.6c8.9,3.2,12.4,18.3,7.8,24.2c-2.5,3.2-15.5,0.2-12.9-2C860.2,313,856.3,297.3,857.1,297.6z"/>
			<path class="st86" d="M879.9,314.9c-5-8.5-19.7-8.5-24-2.5c-2.4,3.3,3.4,16,4.8,12.9C865,315.2,880.3,315.6,879.9,314.9z"/>
		</g>
		<path class="st87" d="M743.7,486.9l26.5-69.3c3.9-10.1,10.1-17.7,27.9-15l4,2.1c8.6,3.3,3.2,14.8-0.7,24.9l-26.5,69.3
			c-3.9,10.1-14,15.7-22.6,12.4l0,0C743.7,508,739.8,497,743.7,486.9z"/>
		<path class="st87" d="M948.7,487.1l-26.4-69c-3.9-10.1-10.3-21.2-31-17.4l2.3,4.7c-8.6,3.3-6.3,14.6-2.4,24.6l26.4,69
			c3.9,10.1,14,15.6,22.6,12.4l0,0C948.7,508.1,952.6,497.1,948.7,487.1z"/>
		<path class="st88" d="M882.7,579c-30.9,0-53.5,6.3-76.6,6.3c-17.2,0-31.3-26-31.3-45.5V430.4c0-0.5,0-1.1,0-1.6
			c0.8-20.4,19.5-35.4,39.7-32.7l26.2,3.5c3.2,0.4,6.5,0.4,9.7-0.1l22.5-3.3c20.3-3,39.2,12,40,32.5c0,0.5,0,1.1,0,1.6v109.4
			C913,559.3,899.9,579,882.7,579z"/>
		<path class="st89" d="M846,387.4c15.8,0,45.2-14.2,49.5-7c9.9,16.6-11.5,59.5-49,60.5c-37.5,1-70.5-43.5-57.9-60.5
			C794,373.2,828.9,387.4,846,387.4z"/>
		<polygon class="st19" points="887.3,692.8 864.4,692.8 866.4,669.4 890.3,672.4 		"/>
		<polygon class="st19" points="823.9,694.5 797.9,694.5 795.9,681 821.9,678 		"/>
		<path class="st61" d="M818.4,680.6l-16.7,1.8c-7.6,0.8-14.4-4-15.3-10.7l-12.6-93c-0.9-6.7,4.5-12.8,12-13.6l16.7-1.8
			c7.6-0.8,14.4,4,15.3,10.7l12.6,93C831.4,673.7,826,679.8,818.4,680.6z"/>
		<path class="st61" d="M868.8,680.9l16.7,1.8c7.6,0.8,14.4-4,15.3-10.7l12.6-93c0.9-6.7-4.5-12.8-12-13.6l-16.7-1.8
			c-7.6-0.8-14.4,4-15.3,10.7l-12.6,93C855.9,674,861.2,680.1,868.8,680.9z"/>
		<g id="Layer_12">
			<path class="st28" d="M781.8,725.2c0-15.6,11.5-28.3,25.6-28.3c14.2,0,25.6,12.7,25.6,28.3"/>
			<path class="st37" d="M824.2,726.5H798c-2.6,0-4.8-2.1-4.8-4.8v-25.6c0-2.6,2.1-4.8,4.8-4.8h26.2c2.6,0,4.8,2.1,4.8,4.8v25.6
				C828.9,724.4,826.8,726.5,824.2,726.5z"/>
			<rect x="778.9" y="720.2" class="st68" width="54" height="5.8"/>
			<path class="st28" d="M859.8,725.8c0-15.6,11.5-28.3,25.6-28.3c14.2,0,25.6,12.7,25.6,28.3"/>
			<path class="st37" d="M887.9,727.1h-24c-2.6,0-4.8-2.1-4.8-4.8v-25.6c0-2.6,2.1-4.8,4.8-4.8h24c2.6,0,4.8,2.1,4.8,4.8v25.6
				C892.7,725,890.5,727.1,887.9,727.1z"/>
			<rect x="859.1" y="720.2" class="st68" width="54" height="5.8"/>
			<rect x="793.2" y="720.2" class="st90" width="35.9" height="5.8"/>
			<rect x="859.3" y="720.2" class="st90" width="33.6" height="5.8"/>
		</g>
		<path class="st87" d="M896.4,551.5c-6.1,0.1-17.4,1.2-23.5,1.3c-6.3,0.1-19-1.8-25.3-1.7c-4.9,0.1-15.7,1.2-20.6,1.2
			c-5.2,0.1-16.7-0.8-21.9-0.7c-13.2,0.2-27.7,2-32.3,8.4l6.4-0.2c0,2.8,13.9,3.2,27.1,3.1l90.3-1.1c13.2-0.2,23.9-2.6,23.9-5.4v0
			C920.4,553.5,909.6,551.3,896.4,551.5z"/>
		<path class="st30" d="M846,457.6c-9.6,0-17.4,7.8-17.4,17.4c0,9.6,7.8,17.4,17.4,17.4s17.4-7.8,17.4-17.4
			C863.4,465.4,855.6,457.6,846,457.6z M852.6,473.2c-0.3,0.7-0.6,1.4-1.1,2c-0.5,0.6-1.1,1-1.7,1.4c-0.7,0.3-1.5,0.5-2.3,0.5
			c-2.2,0-2.1,0.9-2.1,2.3c0,0,0,1.1,0,1.6c0,1.6-1.1,8.4-1.9,8.4c-0.7,0-1.9-6.8-1.9-8.4c0-4.3,0-16,0-16h1.2v-0.8
			c-0.3-0.1-0.6-0.3-0.8-0.5c-0.4-0.4-0.6-0.9-0.6-1.5h4.4c0,0.6-0.2,1.1-0.6,1.5c-0.2,0.2-0.5,0.4-0.8,0.5v0.8h0.9l2,0
			c0.9,0,1.7,0.1,2.5,0.4c0.7,0.3,1.4,0.7,1.9,1.2c0.5,0.5,0.9,1.2,1.2,1.9c0.3,0.7,0.4,1.5,0.4,2.4
			C853,471.7,852.8,472.4,852.6,473.2z"/>
	</g>
	<g id="floor" class="st20">
	</g>
	<g id="Layer_10" class="st20">
		<g>
			
				<rect x="830.4" y="502.7" transform="matrix(-1.836970e-16 1 -1 -1.836970e-16 1423.3198 -270.2271)" class="st24" width="32.8" height="147.6"/>
			
				<rect x="833.7" y="376" transform="matrix(-1.836970e-16 1 -1 -1.836970e-16 1293.9792 -396.5196)" class="st24" width="23.1" height="145.6"/>
			
				<rect x="833.7" y="420" transform="matrix(-1.836970e-16 1 -1 -1.836970e-16 1337.9792 -352.5196)" class="st24" width="23.1" height="145.6"/>
			<rect x="767" y="422.3" class="st23" width="21.8" height="304.8"/>
			<rect x="902.9" y="422.3" class="st23" width="21.8" height="304.8"/>
		</g>
	</g>
</g>
<g id="Layer0" class="st0">
	<g id="Layer_4" class="st20">
		<g>
			<polygon class="st91" points="-88.6,561.8 678.4,569.1 678.4,961.1 -88.6,953.8 			"/>
		</g>
		<g>
			<g>
				<path class="st92" d="M670.4,591.1v9h-495v-9H670.4 M680.4,581.1H-1.2v29h681.6V581.1L680.4,581.1z"/>
			</g>
		</g>
		<g>
			<path class="st91" d="M692.9,599.1h-1045c-15.1,0-27.5-12.4-27.5-27.5l0,0c0-15.1,12.4-27.5,27.5-27.5h1045
				c15.1,0,27.5,12.4,27.5,27.5l0,0C720.4,586.7,708,599.1,692.9,599.1z"/>
		</g>
		<g>
			<g>
				<path class="st92" d="M649.4,641.6v318h-318v-318H649.4 M299.8,638.7 M659.4,631.6h-338v338h338V631.6L659.4,631.6z"/>
			</g>
		</g>
		<g>
			<g>
				<path class="st92" d="M406.7,669.6L406.7,669.6C406.8,669.7,406.7,669.7,406.7,669.6l-51.6,0.1c0,0-0.1,0-0.1-0.1
					c0,0,0-0.1,0.1-0.1L406.7,669.6L406.7,669.6 M260.5,672.5L260.5,672.5 M208.9,672.6C208.9,672.6,208.8,672.6,208.9,672.6
					 M260.5,672.5L260.5,672.5 M406.7,659.6h-51.6c-5.5,0-10.1,4.5-10.1,10.1s4.5,10.1,10.1,10.1h51.6c5.5,0,10.1-4.5,10.1-10.1
					S412.2,659.6,406.7,659.6L406.7,659.6z"/>
			</g>
		</g>
		<g>
			<g>
				<path class="st92" d="M263.4,671.5L263.4,671.5C263.5,671.6,263.4,671.6,263.4,671.5l-51.6,0.1c0,0-0.1,0-0.1-0.1
					c0,0,0-0.1,0.1-0.1L263.4,671.5L263.4,671.5 M117.2,674.4L117.2,674.4 M65.6,674.5C65.6,674.5,65.5,674.5,65.6,674.5
					 M117.2,674.4L117.2,674.4 M263.4,661.5h-51.6c-5.5,0-10.1,4.5-10.1,10.1s4.5,10.1,10.1,10.1h51.6c5.5,0,10.1-4.5,10.1-10.1
					S268.9,661.5,263.4,661.5L263.4,661.5z"/>
			</g>
		</g>
	</g>
	<path class="st93" d="M624.1,546.1c0-64.6-36.6-111.7-68.2-111.7c-18.4,0-39.5,9.4-51.7,34.9c-8.8,18.4-11.7,48-11.7,75.1"/>
	<path class="st94" d="M653.1,442.7V378c0-1.8-2.2-2.8-3.5-1.5L627.5,406c-0.8,0.8-0.8,2-0.1,2.8l22.1,35.1
		C650.7,445.5,653.1,444.6,653.1,442.7z"/>
	<path class="st93" d="M654.1,445.7c0,10-13.4,14-33.2,14c-19.8,0-38.4-6-38.4-14c0-23.3,10.5-52.1,36.7-52.1
		C647.2,393.6,654.1,422.4,654.1,445.7z"/>
	<path class="st93" d="M582.9,450.5v-72.7c0-2,2.5-3.1,3.9-1.7l24.9,33.2c0.9,0.9,0.9,2.3,0.1,3.2L586.9,452
		C585.6,453.6,582.9,452.6,582.9,450.5z"/>
	<line class="st95" x1="501.8" y1="540.3" x2="501.8" y2="644.6"/>
	<path class="st96" d="M629.3,418.3c0,2.3,1.9,4.2,4.2,4.2s4.2-1.9,4.2-4.2s-1.9-4.2-4.2-4.2S629.3,416,629.3,418.3z"/>
	<path class="st96" d="M606.6,419.2c0,2.3,1.9,4.2,4.2,4.2s4.2-1.9,4.2-4.2s-1.9-4.2-4.2-4.2S606.6,416.9,606.6,419.2z"/>
	<g class="st20">
		<path class="st97" d="M617.5,433c0.1,3.6,5,6.3,6.8,6.3c2.2,0,6.4-3.2,6.3-6.8c-0.1-3.6-3.2-3.4-6.8-3.3
			C620.2,429.3,617.4,429.3,617.5,433z"/>
	</g>
	<path class="st96" d="M511.1,642.4c-0.2,4.4-1.3,11.6-9.3,11.6c-7.6,0-8.9-7.9-8.8-12.2"/>
	<path class="st96" d="M544.7,435.8c-2.2,20.1-1,32.7,2.2,33.9c3.2,1.2,7.6-15,9.8-35.1c0,0-4.4,0.1-6,0.3
		C549.2,435,544.7,435.8,544.7,435.8z"/>
	<path class="st96" d="M574.7,439.7c-3.7,19.3-9.1,33-12.1,31c-3.1-2-3.1-16.1,0.6-35.4c0,0,3.4,0.7,5.5,1.6
		C570.7,437.7,574.7,439.7,574.7,439.7z"/>
	<rect x="492.7" y="619.4" class="st96" width="18" height="13.5"/>
	<rect x="583.1" y="445.6" class="st93" width="71.5" height="99.9"/>
	<g class="st20">
		<g>
			<path class="st92" d="M294.1,643.5v318h-318v-318H294.1 M-55.5,640.6 M304.1,633.5h-338v338h338V633.5L304.1,633.5z"/>
		</g>
	</g>
	<path class="st98" d="M789.1,364.7h-64.4c-9.4,0-17,7.6-17,17v1.8l-13.6,9.6c-1.4,1.4-1.4,3.7,0,5.1l13.6,8.6v1.8
		c0,9.4,7.6,17,17,17h65.4c9.3,0,17-7.6,17-17v-26.9C807.1,372.4,798.4,364.7,789.1,364.7z"/>
	<text transform="matrix(1 0 0 1 734.4385 404.5262)" class="st99 st100 st101">Hi !</text>
</g>
<g id="guides" class="st0">
	<g id="z1p7p0.tif" class="st20">
		
			<image style="overflow:visible;" width="450" height="470" id="Layer_0_3_" xlink:href="C3ABA891FD4CA603.png"  transform="matrix(1 0 0 1 117.2873 -593.504)">
		</image>
	</g>
	<g id="wnpFqM.tif" class="st20">
		
			<image style="overflow:visible;" width="303" height="166" id="Layer_0_4_" xlink:href="C3ABA891FD4CA601.png"  transform="matrix(1.8917 0 0 1.8917 661 -524)">
		</image>
	</g>
	<g id="h5OjH0.tif" class="st20">
		
			<image style="overflow:visible;" width="450" height="470" id="Layer_0_7_" xlink:href="C3ABA891FD4CA607.png"  transform="matrix(1 0 0 1 1345.0225 -646.8837)">
		</image>
	</g>
</g>
</svg>
