<svg id="Layer0" xmlns="http://www.w3.org/2000/svg" viewBox="0 0 1757.31 769.24"><defs><style>.cls-1{fill:#daf0f7;}.cls-2{fill:#bbe5ef;}.cls-3{fill:#a69990;}.cls-4{fill:#a39790;}.cls-5{fill:none;stroke:#a69990;stroke-linecap:round;stroke-miterlimit:10;stroke-width:18.05px;}.cls-6{fill:#58595b;}.cls-7{fill:#c66155;}.cls-8{fill:#fff;opacity:0.9;}.cls-9{font-size:31.54px;fill:#4d4d4d;font-family:HelveticaNeue, Helvetica Neue;}</style></defs><title>About_layer0</title><g id="Layer_4" data-name="Layer 4"><polygon class="cls-1" points="-88.64 561.79 678.41 569.14 678.41 961.14 -88.64 953.79 -88.64 561.79"/><path class="cls-2" d="M670.41,591.14v9h-495v-9h495m10-10H-1.17v29H680.41v-29Z"/><path class="cls-1" d="M692.91,599.14h-1045a27.61,27.61,0,0,1-27.5-27.5h0a27.61,27.61,0,0,1,27.5-27.5h1045a27.61,27.61,0,0,1,27.5,27.5h0A27.61,27.61,0,0,1,692.91,599.14Z"/><path class="cls-2" d="M649.41,641.64v318h-318v-318h318M299.8,638.7m359.6-7.06h-338v338h338v-338Z"/><path class="cls-2" d="M406.71,669.64h0c.1.1,0,.1,0,.1h-51.6a.1.1,0,0,1,0-.2l51.6.1h0m-146.25,2.81h0m-51.6.1a.1.1,0,0,1-.1-.1m51.7,0h0m146.25-12.81h-51.6a10.1,10.1,0,0,0,0,20.2h51.6a10.1,10.1,0,0,0,0-20.2Z"/><path class="cls-2" d="M263.44,671.54h0c.1.1,0,.1,0,.1h-51.6a.1.1,0,1,1,0-.2l51.6.1h0m-146.25,2.81h0m-51.6.1a.1.1,0,0,1-.1-.1m51.7,0h0m146.25-12.81h-51.6a10.1,10.1,0,1,0,0,20.2h51.6a10.1,10.1,0,0,0,0-20.2Z"/></g><path class="cls-3" d="M624.06,546.14c0-64.62-36.59-111.66-68.23-111.66-18.37,0-39.51,9.35-51.74,34.89-8.85,18.42-11.7,48-11.7,75.09"/><path class="cls-4" d="M653.14,442.66V378a2.07,2.07,0,0,0-3.5-1.5L627.54,406a2,2,0,0,0-.1,2.8l22.1,35.1A2,2,0,0,0,653.14,442.66Z"/><path class="cls-3" d="M654.14,445.66c0,10-13.41,14-33.19,14s-38.41-6-38.41-14c0-23.3,10.45-52.1,36.67-52.1C647.17,393.56,654.14,422.36,654.14,445.66Z"/><path class="cls-3" d="M582.94,450.46v-72.7a2.33,2.33,0,0,1,3.9-1.7l24.9,33.2a2.33,2.33,0,0,1,.1,3.2L586.94,452A2.29,2.29,0,0,1,582.94,450.46Z"/><line class="cls-5" x1="501.81" y1="540.34" x2="501.81" y2="644.64"/><path class="cls-6" d="M629.3,418.28a4.2,4.2,0,1,0,4.2-4.2A4.2,4.2,0,0,0,629.3,418.28Z"/><path class="cls-6" d="M606.61,419.23a4.2,4.2,0,1,0,4.2-4.2A4.2,4.2,0,0,0,606.61,419.23Z"/><path class="cls-7" d="M617.51,433c.14,3.63,5,6.27,6.84,6.27,2.21,0,6.41-3.21,6.27-6.84s-3.21-3.42-6.84-3.28S617.37,429.35,617.51,433Z"/><path class="cls-6" d="M511.06,642.38c-.15,4.37-1.29,11.59-9.33,11.59-7.59,0-8.92-7.86-8.77-12.23"/><path class="cls-6" d="M544.71,435.75c-2.18,20.12-1,32.7,2.2,33.91s7.61-15,9.79-35.13c0,0-4.43.11-6,.28S544.71,435.75,544.71,435.75Z"/><path class="cls-6" d="M574.69,439.72c-3.68,19.35-9.06,33-12.15,31s-3.12-16.07.56-35.42a41.33,41.33,0,0,1,5.54,1.6C570.69,437.73,574.69,439.72,574.69,439.72Z"/><rect class="cls-6" x="492.74" y="619.42" width="18.03" height="13.47"/><rect class="cls-3" x="583.08" y="445.56" width="71.47" height="99.94"/><path class="cls-2" d="M294.05,643.52v318h-318v-318h318m-349.6-2.94,359.6-7.06h-338v338h338v-338Z"/><path class="cls-8" d="M789.07,364.72H724.64a17,17,0,0,0-17,17v1.81l-13.59,9.59a3.63,3.63,0,0,0,0,5.13l13.59,8.59v1.81a17,17,0,0,0,17,17h65.43a17,17,0,0,0,17-17V381.72C807.07,372.37,798.42,364.72,789.07,364.72Z"/><text class="cls-9" transform="translate(734.44 404.53)">Hi !</text></svg>